%TF.GenerationSoftware,KiCad,Pcbnew,9.0.0*%
%TF.CreationDate,2025-04-30T18:12:18-07:00*%
%TF.ProjectId,PowerBoard,506f7765-7242-46f6-9172-642e6b696361,rev?*%
%TF.SameCoordinates,Original*%
%TF.FileFunction,Soldermask,Bot*%
%TF.FilePolarity,Negative*%
%FSLAX46Y46*%
G04 Gerber Fmt 4.6, Leading zero omitted, Abs format (unit mm)*
G04 Created by KiCad (PCBNEW 9.0.0) date 2025-04-30 18:12:18*
%MOMM*%
%LPD*%
G01*
G04 APERTURE LIST*
G04 Aperture macros list*
%AMRoundRect*
0 Rectangle with rounded corners*
0 $1 Rounding radius*
0 $2 $3 $4 $5 $6 $7 $8 $9 X,Y pos of 4 corners*
0 Add a 4 corners polygon primitive as box body*
4,1,4,$2,$3,$4,$5,$6,$7,$8,$9,$2,$3,0*
0 Add four circle primitives for the rounded corners*
1,1,$1+$1,$2,$3*
1,1,$1+$1,$4,$5*
1,1,$1+$1,$6,$7*
1,1,$1+$1,$8,$9*
0 Add four rect primitives between the rounded corners*
20,1,$1+$1,$2,$3,$4,$5,0*
20,1,$1+$1,$4,$5,$6,$7,0*
20,1,$1+$1,$6,$7,$8,$9,0*
20,1,$1+$1,$8,$9,$2,$3,0*%
%AMHorizOval*
0 Thick line with rounded ends*
0 $1 width*
0 $2 $3 position (X,Y) of the first rounded end (center of the circle)*
0 $4 $5 position (X,Y) of the second rounded end (center of the circle)*
0 Add line between two ends*
20,1,$1,$2,$3,$4,$5,0*
0 Add two circle primitives to create the rounded ends*
1,1,$1,$2,$3*
1,1,$1,$4,$5*%
G04 Aperture macros list end*
%ADD10R,50.000000X25.000000*%
%ADD11C,9.500000*%
%ADD12R,3.000000X3.000000*%
%ADD13C,3.000000*%
%ADD14RoundRect,0.900000X11.600000X-8.100000X11.600000X8.100000X-11.600000X8.100000X-11.600000X-8.100000X0*%
%ADD15R,25.000000X50.000000*%
%ADD16R,1.500000X1.500000*%
%ADD17C,1.500000*%
%ADD18HorizOval,0.800000X0.000000X0.000000X0.000000X0.000000X0*%
%ADD19HorizOval,0.800000X0.000000X0.000000X0.000000X0.000000X0*%
%ADD20C,0.800000*%
%ADD21O,9.000000X6.000000*%
%ADD22R,2.100000X2.100000*%
%ADD23C,2.100000*%
%ADD24HorizOval,0.800000X0.000000X0.000000X0.000000X0.000000X0*%
%ADD25HorizOval,0.800000X0.000000X0.000000X0.000000X0.000000X0*%
%ADD26O,6.000000X9.000000*%
%ADD27C,1.725000*%
%ADD28R,1.700000X1.700000*%
%ADD29O,1.700000X1.700000*%
%ADD30RoundRect,0.250000X1.100000X-0.412500X1.100000X0.412500X-1.100000X0.412500X-1.100000X-0.412500X0*%
%ADD31R,2.150000X2.250000*%
%ADD32RoundRect,0.250000X0.412500X1.100000X-0.412500X1.100000X-0.412500X-1.100000X0.412500X-1.100000X0*%
%ADD33RoundRect,0.250000X-1.100000X0.412500X-1.100000X-0.412500X1.100000X-0.412500X1.100000X0.412500X0*%
%ADD34RoundRect,0.250000X-0.412500X-1.100000X0.412500X-1.100000X0.412500X1.100000X-0.412500X1.100000X0*%
%ADD35C,1.575000*%
%ADD36C,4.650000*%
%ADD37RoundRect,0.250000X-0.400000X-1.075000X0.400000X-1.075000X0.400000X1.075000X-0.400000X1.075000X0*%
%ADD38RoundRect,0.250000X-1.075000X0.400000X-1.075000X-0.400000X1.075000X-0.400000X1.075000X0.400000X0*%
%ADD39RoundRect,0.250000X0.400000X1.075000X-0.400000X1.075000X-0.400000X-1.075000X0.400000X-1.075000X0*%
G04 APERTURE END LIST*
D10*
%TO.C,J2*%
X-62500000Y-72500000D03*
%TD*%
D11*
%TO.C,H22*%
X7000000Y-202000000D03*
%TD*%
D12*
%TO.C,C16*%
X34300000Y33100000D03*
D13*
X34300000Y43100000D03*
%TD*%
D12*
%TO.C,C14*%
X-31900000Y33100000D03*
D13*
X-31900000Y43100000D03*
%TD*%
D12*
%TO.C,C5*%
X266200000Y0D03*
D13*
X266200000Y10000000D03*
%TD*%
D12*
%TO.C,C1*%
X133800000Y0D03*
D13*
X133800000Y10000000D03*
%TD*%
D11*
%TO.C,H4*%
X-23500000Y-212500000D03*
%TD*%
D14*
%TO.C,Q4*%
X145000000Y-240000000D03*
X145000000Y-211000000D03*
%TD*%
D15*
%TO.C,J4*%
X192000000Y-120000000D03*
%TD*%
D11*
%TO.C,H9*%
X249500000Y21500000D03*
%TD*%
D12*
%TO.C,C101*%
X133800000Y33100000D03*
D13*
X133800000Y43100000D03*
%TD*%
D14*
%TO.C,Q2*%
X30000000Y-240000000D03*
X30000000Y-211000000D03*
%TD*%
D11*
%TO.C,H16*%
X17500000Y21500000D03*
%TD*%
D16*
%TO.C,C100*%
X224000000Y-60500000D03*
D17*
X224000000Y-33000000D03*
%TD*%
D14*
%TO.C,Q3*%
X145000000Y-50000000D03*
X145000000Y-21000000D03*
%TD*%
D12*
%TO.C,C6*%
X299300000Y0D03*
D13*
X299300000Y10000000D03*
%TD*%
D14*
%TO.C,Q5*%
X260000000Y-50000000D03*
X260000000Y-21000000D03*
%TD*%
D11*
%TO.C,H14*%
X84000000Y21500000D03*
%TD*%
D16*
%TO.C,IC9*%
X282600000Y-155825000D03*
D17*
X284510000Y-155825000D03*
X286420000Y-155825000D03*
D18*
X285560000Y-133795000D03*
D19*
X285560000Y-135055000D03*
D20*
X286310000Y-132765000D03*
X286310000Y-136085000D03*
X287510000Y-132375000D03*
X287510000Y-136475000D03*
X288840000Y-132375000D03*
X288840000Y-136475000D03*
D21*
X289510000Y-134425000D03*
D20*
X290180000Y-132375000D03*
X290180000Y-136475000D03*
X291510000Y-132375000D03*
X291510000Y-136475000D03*
X292710000Y-132765000D03*
X292710000Y-136085000D03*
X293460000Y-133795000D03*
X293460000Y-135055000D03*
X275560000Y-133795000D03*
X275560000Y-135055000D03*
X276310000Y-132765000D03*
X276310000Y-136085000D03*
X277510000Y-132375000D03*
X277510000Y-136475000D03*
X278840000Y-132375000D03*
X278840000Y-136475000D03*
D21*
X279510000Y-134425000D03*
D20*
X280180000Y-132375000D03*
X280180000Y-136475000D03*
X281510000Y-132375000D03*
X281510000Y-136475000D03*
X282710000Y-132765000D03*
X282710000Y-136085000D03*
D19*
X283460000Y-133795000D03*
D18*
X283460000Y-135055000D03*
%TD*%
D11*
%TO.C,H1*%
X-94150000Y-102500000D03*
%TD*%
D12*
%TO.C,C12*%
X100500000Y0D03*
D13*
X100500000Y10000000D03*
%TD*%
D22*
%TO.C,C97*%
X313150000Y-229000000D03*
D23*
X313150000Y-191500000D03*
X292850000Y-229000000D03*
X292850000Y-191500000D03*
%TD*%
D14*
%TO.C,Q6*%
X260000000Y-240000000D03*
X260000000Y-211000000D03*
%TD*%
D16*
%TO.C,C99*%
X281000000Y-47275000D03*
D17*
X281000000Y-32275000D03*
%TD*%
D12*
%TO.C,C17*%
X67400000Y33100000D03*
D13*
X67400000Y43100000D03*
%TD*%
D12*
%TO.C,C11*%
X67400000Y0D03*
D13*
X67400000Y10000000D03*
%TD*%
D11*
%TO.C,H7*%
X310000000Y-245000000D03*
%TD*%
D16*
%TO.C,C110*%
X110000000Y-228625000D03*
D17*
X110000000Y-201125000D03*
%TD*%
D22*
%TO.C,C87*%
X83150000Y-229000000D03*
D23*
X83150000Y-191500000D03*
X62850000Y-229000000D03*
X62850000Y-191500000D03*
%TD*%
D12*
%TO.C,C3*%
X200000000Y0D03*
D13*
X200000000Y10000000D03*
%TD*%
D16*
%TO.C,C98*%
X237000000Y-47275000D03*
D17*
X237000000Y-32275000D03*
%TD*%
D16*
%TO.C,IC3*%
X-99325000Y-35600000D03*
D17*
X-99325000Y-37510000D03*
X-99325000Y-39420000D03*
D24*
X-77295000Y-38560000D03*
D25*
X-78555000Y-38560000D03*
D20*
X-76265000Y-39310000D03*
X-79585000Y-39310000D03*
X-75875000Y-40510000D03*
X-79975000Y-40510000D03*
X-75875000Y-41840000D03*
X-79975000Y-41840000D03*
D26*
X-77925000Y-42510000D03*
D20*
X-75875000Y-43180000D03*
X-79975000Y-43180000D03*
X-75875000Y-44510000D03*
X-79975000Y-44510000D03*
X-76265000Y-45710000D03*
X-79585000Y-45710000D03*
X-77295000Y-46460000D03*
X-78555000Y-46460000D03*
X-77295000Y-28560000D03*
X-78555000Y-28560000D03*
X-76265000Y-29310000D03*
X-79585000Y-29310000D03*
X-75875000Y-30510000D03*
X-79975000Y-30510000D03*
X-75875000Y-31840000D03*
X-79975000Y-31840000D03*
D26*
X-77925000Y-32510000D03*
D20*
X-75875000Y-33180000D03*
X-79975000Y-33180000D03*
X-75875000Y-34510000D03*
X-79975000Y-34510000D03*
X-76265000Y-35710000D03*
X-79585000Y-35710000D03*
D25*
X-77295000Y-36460000D03*
D24*
X-78555000Y-36460000D03*
%TD*%
D16*
%TO.C,C103*%
X237000000Y-229275000D03*
D17*
X237000000Y-214275000D03*
%TD*%
D11*
%TO.C,H23*%
X123000000Y-202000000D03*
%TD*%
%TO.C,H10*%
X216500000Y21000000D03*
%TD*%
D16*
%TO.C,IC6*%
X52590000Y-120825000D03*
D17*
X54500000Y-120825000D03*
X56410000Y-120825000D03*
D18*
X55550000Y-98795000D03*
D19*
X55550000Y-100055000D03*
D20*
X56300000Y-97765000D03*
X56300000Y-101085000D03*
X57500000Y-97375000D03*
X57500000Y-101475000D03*
X58830000Y-97375000D03*
X58830000Y-101475000D03*
D21*
X59500000Y-99425000D03*
D20*
X60170000Y-97375000D03*
X60170000Y-101475000D03*
X61500000Y-97375000D03*
X61500000Y-101475000D03*
X62700000Y-97765000D03*
X62700000Y-101085000D03*
X63450000Y-98795000D03*
X63450000Y-100055000D03*
X45550000Y-98795000D03*
X45550000Y-100055000D03*
X46300000Y-97765000D03*
X46300000Y-101085000D03*
X47500000Y-97375000D03*
X47500000Y-101475000D03*
X48830000Y-97375000D03*
X48830000Y-101475000D03*
D21*
X49500000Y-99425000D03*
D20*
X50170000Y-97375000D03*
X50170000Y-101475000D03*
X51500000Y-97375000D03*
X51500000Y-101475000D03*
X52700000Y-97765000D03*
X52700000Y-101085000D03*
D19*
X53450000Y-98795000D03*
D18*
X53450000Y-100055000D03*
%TD*%
D16*
%TO.C,C20*%
X7000000Y-46000000D03*
D17*
X7000000Y-31000000D03*
%TD*%
D12*
%TO.C,C18*%
X100500000Y33100000D03*
D13*
X100500000Y43100000D03*
%TD*%
D11*
%TO.C,H8*%
X282500000Y22500000D03*
%TD*%
D12*
%TO.C,C111*%
X266200000Y33100000D03*
D13*
X266200000Y43100000D03*
%TD*%
D14*
%TO.C,Q1*%
X30000000Y-50000000D03*
X30000000Y-21000000D03*
%TD*%
D11*
%TO.C,H6*%
X-100000000Y-245000000D03*
%TD*%
%TO.C,H24*%
X237000000Y-202000000D03*
%TD*%
D27*
%TO.C,PS1*%
X-8915000Y-102325000D03*
X-8915000Y-99785000D03*
X-8915000Y-92165000D03*
X-8915000Y-87085000D03*
%TD*%
D16*
%TO.C,C88*%
X51000000Y-229000000D03*
D17*
X51000000Y-214000000D03*
%TD*%
D11*
%TO.C,H21*%
X217500000Y-10000000D03*
%TD*%
D12*
%TO.C,C9*%
X1200000Y0D03*
D13*
X1200000Y10000000D03*
%TD*%
D28*
%TO.C,J8*%
X-68500000Y-215000000D03*
D29*
X-65960000Y-215000000D03*
X-63420000Y-215000000D03*
X-60880000Y-215000000D03*
X-58340000Y-215000000D03*
X-55800000Y-215000000D03*
X-53260000Y-215000000D03*
X-50720000Y-215000000D03*
X-48180000Y-215000000D03*
X-45640000Y-215000000D03*
%TD*%
D12*
%TO.C,C15*%
X1200000Y33100000D03*
D13*
X1200000Y43100000D03*
%TD*%
D16*
%TO.C,C94*%
X166000000Y-47000000D03*
D17*
X166000000Y-32000000D03*
%TD*%
D11*
%TO.C,H13*%
X117000000Y21500000D03*
%TD*%
D16*
%TO.C,IC5*%
X53090000Y-155825000D03*
D17*
X55000000Y-155825000D03*
X56910000Y-155825000D03*
D18*
X56050000Y-133795000D03*
D19*
X56050000Y-135055000D03*
D20*
X56800000Y-132765000D03*
X56800000Y-136085000D03*
X58000000Y-132375000D03*
X58000000Y-136475000D03*
X59330000Y-132375000D03*
X59330000Y-136475000D03*
D21*
X60000000Y-134425000D03*
D20*
X60670000Y-132375000D03*
X60670000Y-136475000D03*
X62000000Y-132375000D03*
X62000000Y-136475000D03*
X63200000Y-132765000D03*
X63200000Y-136085000D03*
X63950000Y-133795000D03*
X63950000Y-135055000D03*
X46050000Y-133795000D03*
X46050000Y-135055000D03*
X46800000Y-132765000D03*
X46800000Y-136085000D03*
X48000000Y-132375000D03*
X48000000Y-136475000D03*
X49330000Y-132375000D03*
X49330000Y-136475000D03*
D21*
X50000000Y-134425000D03*
D20*
X50670000Y-132375000D03*
X50670000Y-136475000D03*
X52000000Y-132375000D03*
X52000000Y-136475000D03*
X53200000Y-132765000D03*
X53200000Y-136085000D03*
D19*
X53950000Y-133795000D03*
D18*
X53950000Y-135055000D03*
%TD*%
D22*
%TO.C,C96*%
X313300000Y-70500000D03*
D23*
X313300000Y-33000000D03*
X293000000Y-70500000D03*
X293000000Y-33000000D03*
%TD*%
D12*
%TO.C,C2*%
X166900000Y0D03*
D13*
X166900000Y10000000D03*
%TD*%
D16*
%TO.C,C108*%
X123000000Y-229275000D03*
D17*
X123000000Y-214275000D03*
%TD*%
D15*
%TO.C,J5*%
X307000000Y-120000000D03*
%TD*%
D12*
%TO.C,C13*%
X-65000000Y33100000D03*
D13*
X-65000000Y43100000D03*
%TD*%
D11*
%TO.C,H15*%
X50500000Y21500000D03*
%TD*%
%TO.C,H17*%
X-15500000Y22000000D03*
%TD*%
%TO.C,H19*%
X-81500000Y21500000D03*
%TD*%
%TO.C,H18*%
X-48500000Y22000000D03*
%TD*%
D16*
%TO.C,C90*%
X-6000000Y-228625000D03*
D17*
X-6000000Y-201125000D03*
%TD*%
D16*
%TO.C,C104*%
X281000000Y-229275000D03*
D17*
X281000000Y-214275000D03*
%TD*%
D12*
%TO.C,C8*%
X-31900000Y0D03*
D13*
X-31900000Y10000000D03*
%TD*%
D16*
%TO.C,IC4*%
X-64325000Y-35600000D03*
D17*
X-64325000Y-37510000D03*
X-64325000Y-39420000D03*
D24*
X-42295000Y-38560000D03*
D25*
X-43555000Y-38560000D03*
D20*
X-41265000Y-39310000D03*
X-44585000Y-39310000D03*
X-40875000Y-40510000D03*
X-44975000Y-40510000D03*
X-40875000Y-41840000D03*
X-44975000Y-41840000D03*
D26*
X-42925000Y-42510000D03*
D20*
X-40875000Y-43180000D03*
X-44975000Y-43180000D03*
X-40875000Y-44510000D03*
X-44975000Y-44510000D03*
X-41265000Y-45710000D03*
X-44585000Y-45710000D03*
X-42295000Y-46460000D03*
X-43555000Y-46460000D03*
X-42295000Y-28560000D03*
X-43555000Y-28560000D03*
X-41265000Y-29310000D03*
X-44585000Y-29310000D03*
X-40875000Y-30510000D03*
X-44975000Y-30510000D03*
X-40875000Y-31840000D03*
X-44975000Y-31840000D03*
D26*
X-42925000Y-32510000D03*
D20*
X-40875000Y-33180000D03*
X-44975000Y-33180000D03*
X-40875000Y-34510000D03*
X-44975000Y-34510000D03*
X-41265000Y-35710000D03*
X-44585000Y-35710000D03*
D25*
X-42295000Y-36460000D03*
D24*
X-43555000Y-36460000D03*
%TD*%
D12*
%TO.C,C10*%
X34300000Y0D03*
D13*
X34300000Y10000000D03*
%TD*%
D22*
%TO.C,C86*%
X83300000Y-70500000D03*
D23*
X83300000Y-33000000D03*
X63000000Y-70500000D03*
X63000000Y-33000000D03*
%TD*%
D16*
%TO.C,C95*%
X110000000Y-60500000D03*
D17*
X110000000Y-33000000D03*
%TD*%
D16*
%TO.C,C93*%
X123000000Y-47000000D03*
D17*
X123000000Y-32000000D03*
%TD*%
D12*
%TO.C,C7*%
X-65000000Y0D03*
D13*
X-65000000Y10000000D03*
%TD*%
D16*
%TO.C,C84*%
X51000000Y-47000000D03*
D17*
X51000000Y-32000000D03*
%TD*%
D16*
%TO.C,C85*%
X-6000000Y-59500000D03*
D17*
X-6000000Y-32000000D03*
%TD*%
D22*
%TO.C,C91*%
X198300000Y-70000000D03*
D23*
X198300000Y-32500000D03*
X178000000Y-70000000D03*
X178000000Y-32500000D03*
%TD*%
D28*
%TO.C,J9*%
X-68500000Y-100000000D03*
D29*
X-65960000Y-100000000D03*
X-63420000Y-100000000D03*
X-60880000Y-100000000D03*
X-58340000Y-100000000D03*
X-55800000Y-100000000D03*
X-53260000Y-100000000D03*
X-50720000Y-100000000D03*
X-48180000Y-100000000D03*
X-45640000Y-100000000D03*
%TD*%
D12*
%TO.C,C106*%
X200000000Y33100000D03*
D13*
X200000000Y43100000D03*
%TD*%
D11*
%TO.C,H5*%
X-100000000Y45000000D03*
%TD*%
D16*
%TO.C,C89*%
X7000000Y-229275000D03*
D17*
X7000000Y-214275000D03*
%TD*%
D11*
%TO.C,H11*%
X183500000Y21500000D03*
%TD*%
D12*
%TO.C,C112*%
X299300000Y33100000D03*
D13*
X299300000Y43100000D03*
%TD*%
D12*
%TO.C,C107*%
X233100000Y33100000D03*
D13*
X233100000Y43100000D03*
%TD*%
D11*
%TO.C,H20*%
X117500000Y-10550000D03*
%TD*%
D12*
%TO.C,C4*%
X233100000Y0D03*
D13*
X233100000Y10000000D03*
%TD*%
D22*
%TO.C,C92*%
X198300000Y-229000000D03*
D23*
X198300000Y-191500000D03*
X178000000Y-229000000D03*
X178000000Y-191500000D03*
%TD*%
D10*
%TO.C,J1*%
X-40500000Y-241750000D03*
%TD*%
D11*
%TO.C,H19*%
X-15000000Y-10000000D03*
%TD*%
%TO.C,H3*%
X-93500000Y-212500000D03*
%TD*%
D16*
%TO.C,C109*%
X166000000Y-229275000D03*
D17*
X166000000Y-214275000D03*
%TD*%
D15*
%TO.C,J3*%
X77000000Y-120000000D03*
%TD*%
D16*
%TO.C,IC8*%
X167600000Y-120825000D03*
D17*
X169510000Y-120825000D03*
X171420000Y-120825000D03*
D18*
X170560000Y-98795000D03*
D19*
X170560000Y-100055000D03*
D20*
X171310000Y-97765000D03*
X171310000Y-101085000D03*
X172510000Y-97375000D03*
X172510000Y-101475000D03*
X173840000Y-97375000D03*
X173840000Y-101475000D03*
D21*
X174510000Y-99425000D03*
D20*
X175180000Y-97375000D03*
X175180000Y-101475000D03*
X176510000Y-97375000D03*
X176510000Y-101475000D03*
X177710000Y-97765000D03*
X177710000Y-101085000D03*
X178460000Y-98795000D03*
X178460000Y-100055000D03*
X160560000Y-98795000D03*
X160560000Y-100055000D03*
X161310000Y-97765000D03*
X161310000Y-101085000D03*
X162510000Y-97375000D03*
X162510000Y-101475000D03*
X163840000Y-97375000D03*
X163840000Y-101475000D03*
D21*
X164510000Y-99425000D03*
D20*
X165180000Y-97375000D03*
X165180000Y-101475000D03*
X166510000Y-97375000D03*
X166510000Y-101475000D03*
X167710000Y-97765000D03*
X167710000Y-101085000D03*
D19*
X168460000Y-98795000D03*
D18*
X168460000Y-100055000D03*
%TD*%
D11*
%TO.C,H12*%
X150500000Y21500000D03*
%TD*%
D16*
%TO.C,IC7*%
X168100000Y-155825000D03*
D17*
X170010000Y-155825000D03*
X171920000Y-155825000D03*
D18*
X171060000Y-133795000D03*
D19*
X171060000Y-135055000D03*
D20*
X171810000Y-132765000D03*
X171810000Y-136085000D03*
X173010000Y-132375000D03*
X173010000Y-136475000D03*
X174340000Y-132375000D03*
X174340000Y-136475000D03*
D21*
X175010000Y-134425000D03*
D20*
X175680000Y-132375000D03*
X175680000Y-136475000D03*
X177010000Y-132375000D03*
X177010000Y-136475000D03*
X178210000Y-132765000D03*
X178210000Y-136085000D03*
X178960000Y-133795000D03*
X178960000Y-135055000D03*
X161060000Y-133795000D03*
X161060000Y-135055000D03*
X161810000Y-132765000D03*
X161810000Y-136085000D03*
X163010000Y-132375000D03*
X163010000Y-136475000D03*
X164340000Y-132375000D03*
X164340000Y-136475000D03*
D21*
X165010000Y-134425000D03*
D20*
X165680000Y-132375000D03*
X165680000Y-136475000D03*
X167010000Y-132375000D03*
X167010000Y-136475000D03*
X168210000Y-132765000D03*
X168210000Y-136085000D03*
D19*
X168960000Y-133795000D03*
D18*
X168960000Y-135055000D03*
%TD*%
D16*
%TO.C,IC10*%
X283100000Y-120825000D03*
D17*
X285010000Y-120825000D03*
X286920000Y-120825000D03*
D18*
X286060000Y-98795000D03*
D19*
X286060000Y-100055000D03*
D20*
X286810000Y-97765000D03*
X286810000Y-101085000D03*
X288010000Y-97375000D03*
X288010000Y-101475000D03*
X289340000Y-97375000D03*
X289340000Y-101475000D03*
D21*
X290010000Y-99425000D03*
D20*
X290680000Y-97375000D03*
X290680000Y-101475000D03*
X292010000Y-97375000D03*
X292010000Y-101475000D03*
X293210000Y-97765000D03*
X293210000Y-101085000D03*
X293960000Y-98795000D03*
X293960000Y-100055000D03*
X276060000Y-98795000D03*
X276060000Y-100055000D03*
X276810000Y-97765000D03*
X276810000Y-101085000D03*
X278010000Y-97375000D03*
X278010000Y-101475000D03*
X279340000Y-97375000D03*
X279340000Y-101475000D03*
D21*
X280010000Y-99425000D03*
D20*
X280680000Y-97375000D03*
X280680000Y-101475000D03*
X282010000Y-97375000D03*
X282010000Y-101475000D03*
X283210000Y-97765000D03*
X283210000Y-101085000D03*
D19*
X283960000Y-98795000D03*
D18*
X283960000Y-100055000D03*
%TD*%
D12*
%TO.C,C102*%
X166900000Y33100000D03*
D13*
X166900000Y43100000D03*
%TD*%
D11*
%TO.C,H2*%
X-23500000Y-102500000D03*
%TD*%
D16*
%TO.C,C105*%
X224000000Y-228625000D03*
D17*
X224000000Y-201125000D03*
%TD*%
D30*
%TO.C,C55*%
X-53750000Y-183062500D03*
X-53750000Y-179937500D03*
%TD*%
D31*
%TO.C,Z12*%
X287000000Y-224300000D03*
X287000000Y-228700000D03*
%TD*%
D30*
%TO.C,C67*%
X-76350000Y-147612500D03*
X-76350000Y-144487500D03*
%TD*%
D32*
%TO.C,C19*%
X55052500Y-152365000D03*
X51927500Y-152365000D03*
%TD*%
D33*
%TO.C,C61*%
X-71750000Y-122437500D03*
X-71750000Y-125562500D03*
%TD*%
D34*
%TO.C,C31*%
X166937500Y-159000000D03*
X170062500Y-159000000D03*
%TD*%
%TO.C,C30*%
X166375000Y-124000000D03*
X169500000Y-124000000D03*
%TD*%
D30*
%TO.C,C49*%
X-53900000Y-202022500D03*
X-53900000Y-198897500D03*
%TD*%
%TO.C,C35*%
X-80500000Y-120062500D03*
X-80500000Y-116937500D03*
%TD*%
D34*
%TO.C,C28*%
X281937500Y-124000000D03*
X285062500Y-124000000D03*
%TD*%
D30*
%TO.C,C68*%
X-68000000Y-147562500D03*
X-68000000Y-144437500D03*
%TD*%
D35*
%TO.C,J6*%
X-95000000Y-122230000D03*
X-95000000Y-125000000D03*
X-95000000Y-127770000D03*
X-95000000Y-130540000D03*
X-95000000Y-133310000D03*
X-95000000Y-136080000D03*
X-95000000Y-138850000D03*
X-95000000Y-141620000D03*
X-95000000Y-144390000D03*
X-95000000Y-147160000D03*
X-95000000Y-149930000D03*
X-95000000Y-152700000D03*
X-95000000Y-155470000D03*
X-97840000Y-154085000D03*
X-97840000Y-151315000D03*
X-97840000Y-148545000D03*
X-97840000Y-145775000D03*
X-97840000Y-143005000D03*
X-97840000Y-140235000D03*
X-97840000Y-137465000D03*
X-97840000Y-134695000D03*
X-97840000Y-131925000D03*
X-97840000Y-129155000D03*
X-97840000Y-126385000D03*
X-97840000Y-123615000D03*
D36*
X-96420000Y-115330000D03*
X-96420000Y-162370000D03*
%TD*%
D37*
%TO.C,R2*%
X-95050000Y-41000000D03*
X-91950000Y-41000000D03*
%TD*%
D31*
%TO.C,Z8*%
X172000000Y-224300000D03*
X172000000Y-228700000D03*
%TD*%
D30*
%TO.C,C43*%
X-69923250Y-133562500D03*
X-69923250Y-130437500D03*
%TD*%
%TO.C,C69*%
X-80500000Y-152500000D03*
X-80500000Y-149375000D03*
%TD*%
D33*
%TO.C,C46*%
X-79326750Y-136875000D03*
X-79326750Y-140000000D03*
%TD*%
%TO.C,C34*%
X-60000000Y-34437500D03*
X-60000000Y-37562500D03*
%TD*%
%TO.C,C64*%
X-88750000Y-142477500D03*
X-88750000Y-145602500D03*
%TD*%
D31*
%TO.C,Z23*%
X172000000Y-47800000D03*
X172000000Y-52200000D03*
%TD*%
D34*
%TO.C,C32*%
X51437500Y-116500000D03*
X54562500Y-116500000D03*
%TD*%
D33*
%TO.C,C23*%
X-67500000Y-34437500D03*
X-67500000Y-37562500D03*
%TD*%
D34*
%TO.C,C33*%
X166437500Y-116500000D03*
X169562500Y-116500000D03*
%TD*%
D30*
%TO.C,C59*%
X-58000000Y-172022500D03*
X-58000000Y-168897500D03*
%TD*%
D31*
%TO.C,Z18*%
X287000000Y-40800000D03*
X287000000Y-45200000D03*
%TD*%
D30*
%TO.C,C38*%
X-89523250Y-120062500D03*
X-89523250Y-116937500D03*
%TD*%
%TO.C,C66*%
X-72100000Y-147612500D03*
X-72100000Y-144487500D03*
%TD*%
D33*
%TO.C,C63*%
X-80150000Y-142437500D03*
X-80150000Y-145562500D03*
%TD*%
%TO.C,C41*%
X-79476750Y-128000000D03*
X-79476750Y-131125000D03*
%TD*%
D30*
%TO.C,C51*%
X-62500000Y-192062500D03*
X-62500000Y-188937500D03*
%TD*%
D31*
%TO.C,Z7*%
X172000000Y-216800000D03*
X172000000Y-221200000D03*
%TD*%
%TO.C,Z6*%
X172000000Y-209300000D03*
X172000000Y-213700000D03*
%TD*%
D30*
%TO.C,C53*%
X-53500000Y-192125000D03*
X-53500000Y-189000000D03*
%TD*%
D31*
%TO.C,Z4*%
X57500000Y-201300000D03*
X57500000Y-205700000D03*
%TD*%
%TO.C,Z14*%
X57500000Y-40800000D03*
X57500000Y-45200000D03*
%TD*%
%TO.C,Z19*%
X287000000Y-48300000D03*
X287000000Y-52700000D03*
%TD*%
D30*
%TO.C,C70*%
X-84750000Y-152500000D03*
X-84750000Y-149375000D03*
%TD*%
D31*
%TO.C,Z22*%
X172000000Y-40300000D03*
X172000000Y-44700000D03*
%TD*%
D30*
%TO.C,C44*%
X-74173250Y-133562500D03*
X-74173250Y-130437500D03*
%TD*%
%TO.C,C56*%
X-58000000Y-183062500D03*
X-58000000Y-179937500D03*
%TD*%
%TO.C,C50*%
X-58150000Y-202022500D03*
X-58150000Y-198897500D03*
%TD*%
D31*
%TO.C,Z13*%
X57500000Y-33100000D03*
X57500000Y-37500000D03*
%TD*%
D34*
%TO.C,C37*%
X280937500Y-159000000D03*
X284062500Y-159000000D03*
%TD*%
D30*
%TO.C,C58*%
X-53750000Y-172022500D03*
X-53750000Y-168897500D03*
%TD*%
%TO.C,C57*%
X-62350000Y-172062500D03*
X-62350000Y-168937500D03*
%TD*%
D34*
%TO.C,C27*%
X281937500Y-117000000D03*
X285062500Y-117000000D03*
%TD*%
D33*
%TO.C,C39*%
X-88226750Y-128032500D03*
X-88226750Y-131157500D03*
%TD*%
D38*
%TO.C,R6*%
X174000000Y-116000000D03*
X174000000Y-119100000D03*
%TD*%
D31*
%TO.C,Z1*%
X57500000Y-223800000D03*
X57500000Y-228200000D03*
%TD*%
D30*
%TO.C,C22*%
X-94500000Y-37562500D03*
X-94500000Y-34437500D03*
%TD*%
D31*
%TO.C,Z20*%
X287000000Y-55800000D03*
X287000000Y-60200000D03*
%TD*%
D33*
%TO.C,C60*%
X-76000000Y-122437500D03*
X-76000000Y-125562500D03*
%TD*%
D31*
%TO.C,Z15*%
X57500000Y-48300000D03*
X57500000Y-52700000D03*
%TD*%
%TO.C,Z10*%
X287000000Y-209300000D03*
X287000000Y-213700000D03*
%TD*%
%TO.C,Z21*%
X172000000Y-32800000D03*
X172000000Y-37200000D03*
%TD*%
D30*
%TO.C,C48*%
X-62500000Y-202062500D03*
X-62500000Y-198937500D03*
%TD*%
D31*
%TO.C,Z9*%
X287000000Y-201800000D03*
X287000000Y-206200000D03*
%TD*%
D30*
%TO.C,C36*%
X-85000000Y-120062500D03*
X-85000000Y-116937500D03*
%TD*%
D38*
%TO.C,R5*%
X175000000Y-156950000D03*
X175000000Y-160050000D03*
%TD*%
D31*
%TO.C,Z17*%
X287000000Y-33100000D03*
X287000000Y-37500000D03*
%TD*%
D33*
%TO.C,C21*%
X-102000000Y-34437500D03*
X-102000000Y-37562500D03*
%TD*%
D32*
%TO.C,C24*%
X170062500Y-152500000D03*
X166937500Y-152500000D03*
%TD*%
D38*
%TO.C,R4*%
X59000000Y-114950000D03*
X59000000Y-118050000D03*
%TD*%
%TO.C,R7*%
X289000000Y-157950000D03*
X289000000Y-161050000D03*
%TD*%
D33*
%TO.C,C45*%
X-83726750Y-136845000D03*
X-83726750Y-139970000D03*
%TD*%
D30*
%TO.C,C54*%
X-62500000Y-183062500D03*
X-62500000Y-179937500D03*
%TD*%
D34*
%TO.C,C25*%
X51865000Y-158365000D03*
X54990000Y-158365000D03*
%TD*%
D31*
%TO.C,Z3*%
X57500000Y-208800000D03*
X57500000Y-213200000D03*
%TD*%
D33*
%TO.C,C65*%
X-84500000Y-142477500D03*
X-84500000Y-145602500D03*
%TD*%
D34*
%TO.C,C29*%
X51437500Y-123500000D03*
X54562500Y-123500000D03*
%TD*%
D39*
%TO.C,R1*%
X-56950000Y-41000000D03*
X-60050000Y-41000000D03*
%TD*%
D31*
%TO.C,Z2*%
X57500000Y-216300000D03*
X57500000Y-220700000D03*
%TD*%
%TO.C,Z11*%
X287000000Y-216800000D03*
X287000000Y-221200000D03*
%TD*%
D33*
%TO.C,C40*%
X-83726750Y-128000000D03*
X-83726750Y-131125000D03*
%TD*%
D31*
%TO.C,Z16*%
X57500000Y-55800000D03*
X57500000Y-60200000D03*
%TD*%
D33*
%TO.C,C47*%
X-75076750Y-136875000D03*
X-75076750Y-140000000D03*
%TD*%
D31*
%TO.C,Z5*%
X172000000Y-201800000D03*
X172000000Y-206200000D03*
%TD*%
D32*
%TO.C,C26*%
X284562500Y-153000000D03*
X281437500Y-153000000D03*
%TD*%
D33*
%TO.C,C62*%
X-67500000Y-122437500D03*
X-67500000Y-125562500D03*
%TD*%
D30*
%TO.C,C42*%
X-65523250Y-133592500D03*
X-65523250Y-130467500D03*
%TD*%
D38*
%TO.C,R8*%
X289000000Y-115950000D03*
X289000000Y-119050000D03*
%TD*%
D30*
%TO.C,C52*%
X-58000000Y-192062500D03*
X-58000000Y-188937500D03*
%TD*%
D31*
%TO.C,Z24*%
X172000000Y-55300000D03*
X172000000Y-59700000D03*
%TD*%
D38*
%TO.C,R3*%
X58990000Y-157815000D03*
X58990000Y-160915000D03*
%TD*%
D30*
%TO.C,C71*%
X-89000000Y-152500000D03*
X-89000000Y-149375000D03*
%TD*%
M02*
