%TF.GenerationSoftware,KiCad,Pcbnew,9.0.1*%
%TF.CreationDate,2025-05-08T11:31:27-07:00*%
%TF.ProjectId,PowerBoard,506f7765-7242-46f6-9172-642e6b696361,rev?*%
%TF.SameCoordinates,Original*%
%TF.FileFunction,Paste,Top*%
%TF.FilePolarity,Positive*%
%FSLAX46Y46*%
G04 Gerber Fmt 4.6, Leading zero omitted, Abs format (unit mm)*
G04 Created by KiCad (PCBNEW 9.0.1) date 2025-05-08 11:31:27*
%MOMM*%
%LPD*%
G01*
G04 APERTURE LIST*
G04 Aperture macros list*
%AMRoundRect*
0 Rectangle with rounded corners*
0 $1 Rounding radius*
0 $2 $3 $4 $5 $6 $7 $8 $9 X,Y pos of 4 corners*
0 Add a 4 corners polygon primitive as box body*
4,1,4,$2,$3,$4,$5,$6,$7,$8,$9,$2,$3,0*
0 Add four circle primitives for the rounded corners*
1,1,$1+$1,$2,$3*
1,1,$1+$1,$4,$5*
1,1,$1+$1,$6,$7*
1,1,$1+$1,$8,$9*
0 Add four rect primitives between the rounded corners*
20,1,$1+$1,$2,$3,$4,$5,0*
20,1,$1+$1,$4,$5,$6,$7,0*
20,1,$1+$1,$6,$7,$8,$9,0*
20,1,$1+$1,$8,$9,$2,$3,0*%
G04 Aperture macros list end*
%ADD10RoundRect,0.250000X-0.400000X-1.075000X0.400000X-1.075000X0.400000X1.075000X-0.400000X1.075000X0*%
%ADD11RoundRect,0.250000X0.400000X1.075000X-0.400000X1.075000X-0.400000X-1.075000X0.400000X-1.075000X0*%
%ADD12R,1.000000X1.750000*%
G04 APERTURE END LIST*
D10*
%TO.C,R12*%
X-51000000Y-170000000D03*
X-47900000Y-170000000D03*
%TD*%
%TO.C,R29*%
X-69000000Y-190000000D03*
X-65900000Y-190000000D03*
%TD*%
%TO.C,R13*%
X-57000000Y-170000000D03*
X-53900000Y-170000000D03*
%TD*%
%TO.C,R21*%
X-63000000Y-180000000D03*
X-59900000Y-180000000D03*
%TD*%
%TO.C,R36*%
X-69050000Y-200000000D03*
X-65950000Y-200000000D03*
%TD*%
%TO.C,R19*%
X-50950000Y-180000000D03*
X-47850000Y-180000000D03*
%TD*%
%TO.C,R24*%
X-39000000Y-190000000D03*
X-35900000Y-190000000D03*
%TD*%
%TO.C,R9*%
X-33000000Y-170000000D03*
X-29900000Y-170000000D03*
%TD*%
%TO.C,R18*%
X-45000000Y-180000000D03*
X-41900000Y-180000000D03*
%TD*%
%TO.C,R14*%
X-69000000Y-170000000D03*
X-65900000Y-170000000D03*
%TD*%
%TO.C,R31*%
X-39050000Y-200000000D03*
X-35950000Y-200000000D03*
%TD*%
%TO.C,R32*%
X-45050000Y-200000000D03*
X-41950000Y-200000000D03*
%TD*%
%TO.C,R25*%
X-45000000Y-190000000D03*
X-41900000Y-190000000D03*
%TD*%
%TO.C,R17*%
X-39000000Y-180000000D03*
X-35900000Y-180000000D03*
%TD*%
D11*
%TO.C,R62*%
X-94950000Y-174000000D03*
X-98050000Y-174000000D03*
%TD*%
D10*
%TO.C,R35*%
X-63050000Y-200000000D03*
X-59950000Y-200000000D03*
%TD*%
%TO.C,R33*%
X-51050000Y-200000000D03*
X-47950000Y-200000000D03*
%TD*%
D11*
%TO.C,R63*%
X-95000000Y-179000000D03*
X-98100000Y-179000000D03*
%TD*%
D10*
%TO.C,R10*%
X-39000000Y-170000000D03*
X-35900000Y-170000000D03*
%TD*%
%TO.C,R30*%
X-33050000Y-200000000D03*
X-29950000Y-200000000D03*
%TD*%
%TO.C,R22*%
X-69000000Y-180000000D03*
X-65900000Y-180000000D03*
%TD*%
%TO.C,R23*%
X-33000000Y-190000000D03*
X-29900000Y-190000000D03*
%TD*%
%TO.C,R27*%
X-57000000Y-190000000D03*
X-53900000Y-190000000D03*
%TD*%
%TO.C,R11*%
X-45000000Y-170000000D03*
X-41900000Y-170000000D03*
%TD*%
D12*
%TO.C,LED2*%
X-105500000Y-179000000D03*
X-102500000Y-179000000D03*
%TD*%
D10*
%TO.C,R28*%
X-63000000Y-190000000D03*
X-59900000Y-190000000D03*
%TD*%
%TO.C,R16*%
X-33000000Y-180000000D03*
X-29900000Y-180000000D03*
%TD*%
D12*
%TO.C,LED1*%
X-105500000Y-174000000D03*
X-102500000Y-174000000D03*
%TD*%
%TO.C,LED4*%
X-105500000Y-189000000D03*
X-102500000Y-189000000D03*
%TD*%
D10*
%TO.C,R34*%
X-57050000Y-200000000D03*
X-53950000Y-200000000D03*
%TD*%
%TO.C,R20*%
X-57000000Y-180000000D03*
X-53900000Y-180000000D03*
%TD*%
D11*
%TO.C,R64*%
X-95000000Y-184000000D03*
X-98100000Y-184000000D03*
%TD*%
D10*
%TO.C,R26*%
X-51000000Y-190000000D03*
X-47900000Y-190000000D03*
%TD*%
%TO.C,R15*%
X-63000000Y-170000000D03*
X-59900000Y-170000000D03*
%TD*%
D12*
%TO.C,LED3*%
X-105500000Y-184000000D03*
X-102500000Y-184000000D03*
%TD*%
D11*
%TO.C,R65*%
X-95000000Y-189000000D03*
X-98100000Y-189000000D03*
%TD*%
M02*
