%TF.GenerationSoftware,KiCad,Pcbnew,9.0.0*%
%TF.CreationDate,2025-04-28T14:30:34-07:00*%
%TF.ProjectId,PowerBoard,506f7765-7242-46f6-9172-642e6b696361,rev?*%
%TF.SameCoordinates,Original*%
%TF.FileFunction,Paste,Bot*%
%TF.FilePolarity,Positive*%
%FSLAX46Y46*%
G04 Gerber Fmt 4.6, Leading zero omitted, Abs format (unit mm)*
G04 Created by KiCad (PCBNEW 9.0.0) date 2025-04-28 14:30:34*
%MOMM*%
%LPD*%
G01*
G04 APERTURE LIST*
G04 Aperture macros list*
%AMRoundRect*
0 Rectangle with rounded corners*
0 $1 Rounding radius*
0 $2 $3 $4 $5 $6 $7 $8 $9 X,Y pos of 4 corners*
0 Add a 4 corners polygon primitive as box body*
4,1,4,$2,$3,$4,$5,$6,$7,$8,$9,$2,$3,0*
0 Add four circle primitives for the rounded corners*
1,1,$1+$1,$2,$3*
1,1,$1+$1,$4,$5*
1,1,$1+$1,$6,$7*
1,1,$1+$1,$8,$9*
0 Add four rect primitives between the rounded corners*
20,1,$1+$1,$2,$3,$4,$5,0*
20,1,$1+$1,$4,$5,$6,$7,0*
20,1,$1+$1,$6,$7,$8,$9,0*
20,1,$1+$1,$8,$9,$2,$3,0*%
G04 Aperture macros list end*
%ADD10RoundRect,0.250000X1.100000X-0.412500X1.100000X0.412500X-1.100000X0.412500X-1.100000X-0.412500X0*%
%ADD11R,2.150000X2.250000*%
%ADD12RoundRect,0.250000X0.412500X1.100000X-0.412500X1.100000X-0.412500X-1.100000X0.412500X-1.100000X0*%
%ADD13RoundRect,0.250000X-1.100000X0.412500X-1.100000X-0.412500X1.100000X-0.412500X1.100000X0.412500X0*%
%ADD14RoundRect,0.250000X-0.412500X-1.100000X0.412500X-1.100000X0.412500X1.100000X-0.412500X1.100000X0*%
%ADD15RoundRect,0.250000X-0.400000X-1.075000X0.400000X-1.075000X0.400000X1.075000X-0.400000X1.075000X0*%
%ADD16RoundRect,0.250000X-1.075000X0.400000X-1.075000X-0.400000X1.075000X-0.400000X1.075000X0.400000X0*%
%ADD17RoundRect,0.250000X0.400000X1.075000X-0.400000X1.075000X-0.400000X-1.075000X0.400000X-1.075000X0*%
G04 APERTURE END LIST*
D10*
%TO.C,C55*%
X-53750000Y-183062500D03*
X-53750000Y-179937500D03*
%TD*%
D11*
%TO.C,Z12*%
X287000000Y-224300000D03*
X287000000Y-228700000D03*
%TD*%
D10*
%TO.C,C67*%
X-76350000Y-147612500D03*
X-76350000Y-144487500D03*
%TD*%
D12*
%TO.C,C19*%
X55052500Y-152365000D03*
X51927500Y-152365000D03*
%TD*%
D13*
%TO.C,C61*%
X-71750000Y-122437500D03*
X-71750000Y-125562500D03*
%TD*%
D14*
%TO.C,C31*%
X166937500Y-159000000D03*
X170062500Y-159000000D03*
%TD*%
%TO.C,C30*%
X166375000Y-124000000D03*
X169500000Y-124000000D03*
%TD*%
D10*
%TO.C,C49*%
X-53900000Y-202022500D03*
X-53900000Y-198897500D03*
%TD*%
%TO.C,C35*%
X-80500000Y-120062500D03*
X-80500000Y-116937500D03*
%TD*%
D14*
%TO.C,C28*%
X281937500Y-124000000D03*
X285062500Y-124000000D03*
%TD*%
D10*
%TO.C,C68*%
X-68000000Y-147562500D03*
X-68000000Y-144437500D03*
%TD*%
D15*
%TO.C,R2*%
X-95050000Y-41000000D03*
X-91950000Y-41000000D03*
%TD*%
D11*
%TO.C,Z8*%
X172000000Y-224300000D03*
X172000000Y-228700000D03*
%TD*%
D10*
%TO.C,C43*%
X-69923250Y-133562500D03*
X-69923250Y-130437500D03*
%TD*%
%TO.C,C69*%
X-80500000Y-152500000D03*
X-80500000Y-149375000D03*
%TD*%
D13*
%TO.C,C46*%
X-79326750Y-136875000D03*
X-79326750Y-140000000D03*
%TD*%
%TO.C,C34*%
X-60000000Y-34437500D03*
X-60000000Y-37562500D03*
%TD*%
%TO.C,C64*%
X-88750000Y-142477500D03*
X-88750000Y-145602500D03*
%TD*%
D11*
%TO.C,Z23*%
X172000000Y-47800000D03*
X172000000Y-52200000D03*
%TD*%
D14*
%TO.C,C32*%
X51437500Y-116500000D03*
X54562500Y-116500000D03*
%TD*%
D13*
%TO.C,C23*%
X-67500000Y-34437500D03*
X-67500000Y-37562500D03*
%TD*%
D14*
%TO.C,C33*%
X166437500Y-116500000D03*
X169562500Y-116500000D03*
%TD*%
D10*
%TO.C,C59*%
X-58000000Y-172022500D03*
X-58000000Y-168897500D03*
%TD*%
D11*
%TO.C,Z18*%
X287000000Y-40800000D03*
X287000000Y-45200000D03*
%TD*%
D10*
%TO.C,C38*%
X-89523250Y-120062500D03*
X-89523250Y-116937500D03*
%TD*%
%TO.C,C66*%
X-72100000Y-147612500D03*
X-72100000Y-144487500D03*
%TD*%
D13*
%TO.C,C63*%
X-80150000Y-142437500D03*
X-80150000Y-145562500D03*
%TD*%
%TO.C,C41*%
X-79476750Y-128000000D03*
X-79476750Y-131125000D03*
%TD*%
D10*
%TO.C,C51*%
X-62500000Y-192062500D03*
X-62500000Y-188937500D03*
%TD*%
D11*
%TO.C,Z7*%
X172000000Y-216800000D03*
X172000000Y-221200000D03*
%TD*%
%TO.C,Z6*%
X172000000Y-209300000D03*
X172000000Y-213700000D03*
%TD*%
D10*
%TO.C,C53*%
X-53500000Y-192125000D03*
X-53500000Y-189000000D03*
%TD*%
D11*
%TO.C,Z4*%
X57500000Y-201300000D03*
X57500000Y-205700000D03*
%TD*%
%TO.C,Z14*%
X57500000Y-40800000D03*
X57500000Y-45200000D03*
%TD*%
%TO.C,Z19*%
X287000000Y-48300000D03*
X287000000Y-52700000D03*
%TD*%
D10*
%TO.C,C70*%
X-84750000Y-152500000D03*
X-84750000Y-149375000D03*
%TD*%
D11*
%TO.C,Z22*%
X172000000Y-40300000D03*
X172000000Y-44700000D03*
%TD*%
D10*
%TO.C,C44*%
X-74173250Y-133562500D03*
X-74173250Y-130437500D03*
%TD*%
%TO.C,C56*%
X-58000000Y-183062500D03*
X-58000000Y-179937500D03*
%TD*%
%TO.C,C50*%
X-58150000Y-202022500D03*
X-58150000Y-198897500D03*
%TD*%
D11*
%TO.C,Z13*%
X57500000Y-33100000D03*
X57500000Y-37500000D03*
%TD*%
D14*
%TO.C,C37*%
X280937500Y-159000000D03*
X284062500Y-159000000D03*
%TD*%
D10*
%TO.C,C58*%
X-53750000Y-172022500D03*
X-53750000Y-168897500D03*
%TD*%
%TO.C,C57*%
X-62350000Y-172062500D03*
X-62350000Y-168937500D03*
%TD*%
D14*
%TO.C,C27*%
X281937500Y-117000000D03*
X285062500Y-117000000D03*
%TD*%
D13*
%TO.C,C39*%
X-88226750Y-128032500D03*
X-88226750Y-131157500D03*
%TD*%
D16*
%TO.C,R6*%
X174000000Y-116000000D03*
X174000000Y-119100000D03*
%TD*%
D11*
%TO.C,Z1*%
X57500000Y-223800000D03*
X57500000Y-228200000D03*
%TD*%
D10*
%TO.C,C22*%
X-94500000Y-37562500D03*
X-94500000Y-34437500D03*
%TD*%
D11*
%TO.C,Z20*%
X287000000Y-55800000D03*
X287000000Y-60200000D03*
%TD*%
D13*
%TO.C,C60*%
X-76000000Y-122437500D03*
X-76000000Y-125562500D03*
%TD*%
D11*
%TO.C,Z15*%
X57500000Y-48300000D03*
X57500000Y-52700000D03*
%TD*%
%TO.C,Z10*%
X287000000Y-209300000D03*
X287000000Y-213700000D03*
%TD*%
%TO.C,Z21*%
X172000000Y-32800000D03*
X172000000Y-37200000D03*
%TD*%
D10*
%TO.C,C48*%
X-62500000Y-202062500D03*
X-62500000Y-198937500D03*
%TD*%
D11*
%TO.C,Z9*%
X287000000Y-201800000D03*
X287000000Y-206200000D03*
%TD*%
D10*
%TO.C,C36*%
X-85000000Y-120062500D03*
X-85000000Y-116937500D03*
%TD*%
D16*
%TO.C,R5*%
X175000000Y-156950000D03*
X175000000Y-160050000D03*
%TD*%
D11*
%TO.C,Z17*%
X287000000Y-33100000D03*
X287000000Y-37500000D03*
%TD*%
D13*
%TO.C,C21*%
X-102000000Y-34437500D03*
X-102000000Y-37562500D03*
%TD*%
D12*
%TO.C,C24*%
X170062500Y-152500000D03*
X166937500Y-152500000D03*
%TD*%
D16*
%TO.C,R4*%
X59000000Y-114950000D03*
X59000000Y-118050000D03*
%TD*%
%TO.C,R7*%
X289000000Y-157950000D03*
X289000000Y-161050000D03*
%TD*%
D13*
%TO.C,C45*%
X-83726750Y-136845000D03*
X-83726750Y-139970000D03*
%TD*%
D10*
%TO.C,C54*%
X-62500000Y-183062500D03*
X-62500000Y-179937500D03*
%TD*%
D14*
%TO.C,C25*%
X51865000Y-158365000D03*
X54990000Y-158365000D03*
%TD*%
D11*
%TO.C,Z3*%
X57500000Y-208800000D03*
X57500000Y-213200000D03*
%TD*%
D13*
%TO.C,C65*%
X-84500000Y-142477500D03*
X-84500000Y-145602500D03*
%TD*%
D14*
%TO.C,C29*%
X51437500Y-123500000D03*
X54562500Y-123500000D03*
%TD*%
D17*
%TO.C,R1*%
X-56950000Y-41000000D03*
X-60050000Y-41000000D03*
%TD*%
D11*
%TO.C,Z2*%
X57500000Y-216300000D03*
X57500000Y-220700000D03*
%TD*%
%TO.C,Z11*%
X287000000Y-216800000D03*
X287000000Y-221200000D03*
%TD*%
D13*
%TO.C,C40*%
X-83726750Y-128000000D03*
X-83726750Y-131125000D03*
%TD*%
D11*
%TO.C,Z16*%
X57500000Y-55800000D03*
X57500000Y-60200000D03*
%TD*%
D13*
%TO.C,C47*%
X-75076750Y-136875000D03*
X-75076750Y-140000000D03*
%TD*%
D11*
%TO.C,Z5*%
X172000000Y-201800000D03*
X172000000Y-206200000D03*
%TD*%
D12*
%TO.C,C26*%
X284562500Y-153000000D03*
X281437500Y-153000000D03*
%TD*%
D13*
%TO.C,C62*%
X-67500000Y-122437500D03*
X-67500000Y-125562500D03*
%TD*%
D10*
%TO.C,C42*%
X-65523250Y-133592500D03*
X-65523250Y-130467500D03*
%TD*%
D16*
%TO.C,R8*%
X289000000Y-115950000D03*
X289000000Y-119050000D03*
%TD*%
D10*
%TO.C,C52*%
X-58000000Y-192062500D03*
X-58000000Y-188937500D03*
%TD*%
D11*
%TO.C,Z24*%
X172000000Y-55300000D03*
X172000000Y-59700000D03*
%TD*%
D16*
%TO.C,R3*%
X58990000Y-157815000D03*
X58990000Y-160915000D03*
%TD*%
D10*
%TO.C,C71*%
X-89000000Y-152500000D03*
X-89000000Y-149375000D03*
%TD*%
M02*
