M48
; DRILL file {KiCad 9.0.1} date 2025-05-08T11:31:25-0700
; FORMAT={-:-/ absolute / metric / decimal}
; #@! TF.CreationDate,2025-05-08T11:31:25-07:00
; #@! TF.GenerationSoftware,Kicad,Pcbnew,9.0.1
; #@! TF.FileFunction,Plated,1,4,PTH
FMAT,2
METRIC
; #@! TA.AperFunction,Plated,PTH,ViaDrill
T1C0.300
; #@! TA.AperFunction,Plated,PTH,ViaDrill
T2C0.500
; #@! TA.AperFunction,Plated,PTH,ComponentDrill
T3C0.500
; #@! TA.AperFunction,Plated,PTH,ComponentDrill
T4C0.800
; #@! TA.AperFunction,Plated,PTH,ComponentDrill
T5C1.000
; #@! TA.AperFunction,Plated,PTH,ComponentDrill
T6C1.050
; #@! TA.AperFunction,Plated,PTH,ComponentDrill
T7C1.150
; #@! TA.AperFunction,Plated,PTH,ComponentDrill
T8C1.400
; #@! TA.AperFunction,Plated,PTH,ComponentDrill
T9C2.000
; #@! TA.AperFunction,Plated,PTH,ComponentDrill
T10C3.100
; #@! TA.AperFunction,Plated,PTH,ComponentDrill
T11C5.300
; #@! TA.AperFunction,Plated,PTH,ComponentDrill
T12C5.500
; #@! TA.AperFunction,Plated,PTH,ComponentDrill
T13C9.000
%
G90
G05
T1
X-102.5Y-127.5
X-100.0Y-110.0
X-92.0Y-37.5
X-90.0Y-34.5
X-90.0Y-135.0
X-88.0Y-140.0
X-85.0Y-105.0
X-82.5Y-110.0
X-72.5Y-142.5
X-71.0Y-170.0
X-71.0Y-180.0
X-71.0Y-190.0
X-71.0Y-200.0
X-66.0Y-204.0
X-65.95Y-202.0
X-65.0Y-147.5
X-65.0Y-172.0
X-65.0Y-183.0
X-65.0Y-192.0
X-60.0Y-45.0
X-60.0Y-49.5
X-57.5Y-152.5
X-50.0Y-122.5
X-25.5Y-60.5
X-20.0Y-190.0
X-20.0Y-195.0
X-15.0Y-120.0
X59.0Y-113.0
X60.0Y-80.0
X60.0Y-85.0
X63.0Y-161.0
X107.5Y-180.0
X174.0Y-113.5
X175.0Y-161.5
X178.5Y-80.0
X178.5Y-85.0
X283.0Y-85.0
X289.0Y-114.0
X289.0Y-162.5
X290.0Y-80.0
T2
X-109.0Y-96.0
X-109.0Y-97.0
X-109.0Y-98.0
X-109.0Y-99.0
X-109.0Y-100.0
X-109.0Y-101.0
X-109.0Y-102.0
X-109.0Y-103.0
X-109.0Y-104.0
X-109.0Y-105.0
X-109.0Y-106.0
X-109.0Y-107.0
X-109.0Y-108.0
X-109.0Y-109.0
X-109.0Y-110.0
X-109.0Y-111.0
X-109.0Y-112.0
X-109.0Y-113.0
X-109.0Y-114.0
X-109.0Y-115.0
X-109.0Y-116.0
X-109.0Y-117.0
X-109.0Y-118.0
X-109.0Y-119.0
X-109.0Y-120.0
X-109.0Y-121.0
X-109.0Y-122.0
X-109.0Y-123.0
X-109.0Y-124.0
X-109.0Y-125.0
X-109.0Y-126.0
X-109.0Y-127.0
X-109.0Y-128.0
X-109.0Y-129.0
X-109.0Y-130.0
X-109.0Y-131.0
X-109.0Y-132.0
X-109.0Y-133.0
X-109.0Y-134.0
X-109.0Y-135.0
X-109.0Y-136.0
X-109.0Y-137.0
X-109.0Y-138.0
X-109.0Y-139.0
X-109.0Y-140.0
X-109.0Y-141.0
X-109.0Y-142.0
X-109.0Y-143.0
X-109.0Y-144.0
X-109.0Y-145.0
X-109.0Y-146.0
X-109.0Y-147.0
X-109.0Y-148.0
X-109.0Y-149.0
X-109.0Y-150.0
X-109.0Y-151.0
X-109.0Y-152.0
X-109.0Y-153.0
X-109.0Y-154.0
X-109.0Y-155.0
X-109.0Y-156.0
X-109.0Y-157.0
X-109.0Y-158.0
X-109.0Y-159.0
X-109.0Y-160.0
X-109.0Y-161.0
X-109.0Y-162.0
X-109.0Y-163.0
X-109.0Y-164.0
X-109.0Y-165.0
X-109.0Y-166.0
X-109.0Y-167.0
X-109.0Y-168.0
X-109.0Y-169.0
X-109.0Y-170.0
X-109.0Y-171.0
X-109.0Y-172.0
X-109.0Y-173.0
X-109.0Y-174.0
X-109.0Y-175.0
X-109.0Y-176.0
X-109.0Y-177.0
X-109.0Y-178.0
X-109.0Y-179.0
X-109.0Y-180.0
X-109.0Y-181.0
X-109.0Y-182.0
X-109.0Y-183.0
X-109.0Y-184.0
X-109.0Y-185.0
X-109.0Y-186.0
X-109.0Y-187.0
X-109.0Y-188.0
X-109.0Y-189.0
X-109.0Y-190.0
X-109.0Y-191.0
X-109.0Y-192.0
X-108.0Y-96.0
X-108.0Y-192.0
X-107.0Y-96.0
X-107.0Y-192.0
X-106.0Y-96.0
X-106.0Y-192.0
X-105.0Y-96.0
X-105.0Y-192.0
X-104.0Y-96.0
X-104.0Y-192.0
X-103.0Y-96.0
X-103.0Y-192.0
X-102.0Y-96.0
X-102.0Y-192.0
X-101.0Y-96.0
X-101.0Y-192.0
X-100.0Y-96.0
X-100.0Y-192.0
X-99.0Y-96.0
X-99.0Y-192.0
X-98.0Y-96.0
X-98.0Y-192.0
X-97.0Y-96.0
X-97.0Y-192.0
X-96.0Y-96.0
X-96.0Y-192.0
X-95.0Y-96.0
X-95.0Y-192.0
X-94.0Y-96.0
X-94.0Y-192.0
X-93.0Y-96.0
X-93.0Y-192.0
X-92.0Y-96.0
X-92.0Y-192.0
X-91.0Y-96.0
X-91.0Y-192.0
X-90.0Y-96.0
X-90.0Y-192.0
X-89.0Y-96.0
X-89.0Y-192.0
X-88.0Y-96.0
X-88.0Y-192.0
X-87.0Y-96.0
X-87.0Y-192.0
X-86.0Y-96.0
X-86.0Y-192.0
X-85.0Y-96.0
X-85.0Y-192.0
X-84.0Y-96.0
X-84.0Y-192.0
X-83.0Y-96.0
X-83.0Y-185.0
X-83.0Y-186.0
X-83.0Y-187.0
X-83.0Y-188.0
X-83.0Y-189.0
X-83.0Y-190.0
X-83.0Y-191.0
X-83.0Y-192.0
X-82.0Y-96.0
X-81.0Y-96.0
X-80.0Y-96.0
X-79.0Y-96.0
X-78.0Y-96.0
X-77.0Y-96.0
X-76.0Y-96.0
X-75.0Y-96.0
X-74.0Y-96.0
X-74.0Y-161.0
X-74.0Y-162.0
X-74.0Y-163.0
X-74.0Y-164.0
X-74.0Y-165.0
X-74.0Y-166.0
X-74.0Y-167.0
X-74.0Y-168.0
X-74.0Y-169.0
X-74.0Y-170.0
X-74.0Y-171.0
X-74.0Y-172.0
X-74.0Y-173.0
X-74.0Y-174.0
X-74.0Y-175.0
X-74.0Y-176.0
X-74.0Y-177.0
X-74.0Y-178.0
X-74.0Y-179.0
X-74.0Y-180.0
X-74.0Y-181.0
X-74.0Y-182.0
X-74.0Y-183.0
X-74.0Y-184.0
X-74.0Y-185.0
X-74.0Y-186.0
X-74.0Y-187.0
X-74.0Y-188.0
X-74.0Y-189.0
X-74.0Y-190.0
X-74.0Y-191.0
X-74.0Y-192.0
X-74.0Y-193.0
X-74.0Y-194.0
X-74.0Y-195.0
X-74.0Y-196.0
X-74.0Y-197.0
X-74.0Y-198.0
X-74.0Y-199.0
X-74.0Y-200.0
X-74.0Y-201.0
X-74.0Y-202.0
X-74.0Y-203.0
X-74.0Y-204.0
X-74.0Y-205.0
X-74.0Y-206.0
X-74.0Y-207.0
X-74.0Y-208.0
X-74.0Y-209.0
X-74.0Y-210.0
X-74.0Y-211.0
X-74.0Y-212.0
X-74.0Y-213.0
X-74.0Y-214.0
X-74.0Y-215.0
X-74.0Y-216.0
X-74.0Y-217.0
X-74.0Y-218.0
X-73.0Y-96.0
X-73.0Y-161.0
X-73.0Y-218.0
X-72.0Y-96.0
X-72.0Y-161.0
X-72.0Y-218.0
X-71.0Y-96.0
X-71.0Y-161.0
X-71.0Y-218.0
X-70.0Y-96.0
X-70.0Y-161.0
X-70.0Y-210.0
X-70.0Y-218.0
X-69.0Y-96.0
X-69.0Y-161.0
X-69.0Y-218.0
X-68.0Y-96.0
X-68.0Y-161.0
X-68.0Y-218.0
X-67.0Y-96.0
X-67.0Y-161.0
X-67.0Y-218.0
X-66.0Y-96.0
X-66.0Y-161.0
X-66.0Y-218.0
X-65.0Y-96.0
X-65.0Y-161.0
X-65.0Y-165.0
X-65.0Y-175.0
X-65.0Y-195.0
X-65.0Y-218.0
X-64.0Y-96.0
X-64.0Y-161.0
X-64.0Y-218.0
X-63.0Y-96.0
X-63.0Y-161.0
X-63.0Y-218.0
X-62.0Y-96.0
X-62.0Y-161.0
X-62.0Y-195.0
X-62.0Y-218.0
X-61.0Y-96.0
X-61.0Y-161.0
X-61.0Y-207.0
X-61.0Y-218.0
X-60.0Y-96.0
X-60.0Y-161.0
X-60.0Y-185.0
X-60.0Y-218.0
X-59.0Y-96.0
X-59.0Y-161.0
X-59.0Y-218.0
X-58.0Y-96.0
X-58.0Y-161.0
X-58.0Y-218.0
X-57.0Y-96.0
X-57.0Y-161.0
X-57.0Y-218.0
X-56.0Y-96.0
X-56.0Y-161.0
X-56.0Y-186.0
X-56.0Y-206.0
X-56.0Y-218.0
X-55.0Y-96.0
X-55.0Y-152.0
X-55.0Y-161.0
X-55.0Y-165.0
X-55.0Y-175.0
X-55.0Y-195.0
X-55.0Y-218.0
X-54.0Y-96.0
X-54.0Y-152.0
X-54.0Y-161.0
X-54.0Y-218.0
X-53.0Y-96.0
X-53.0Y-152.0
X-53.0Y-161.0
X-53.0Y-218.0
X-52.0Y-96.0
X-52.0Y-152.0
X-52.0Y-161.0
X-52.0Y-176.0
X-52.0Y-218.0
X-51.0Y-96.0
X-51.0Y-152.0
X-51.0Y-161.0
X-51.0Y-206.0
X-51.0Y-218.0
X-50.0Y-96.0
X-50.0Y-152.0
X-50.0Y-161.0
X-50.0Y-185.0
X-50.0Y-195.0
X-50.0Y-218.0
X-49.0Y-96.0
X-49.0Y-152.0
X-49.0Y-161.0
X-49.0Y-218.0
X-48.0Y-96.0
X-48.0Y-152.0
X-48.0Y-161.0
X-48.0Y-218.0
X-47.0Y-96.0
X-47.0Y-152.0
X-47.0Y-161.0
X-47.0Y-218.0
X-46.0Y-96.0
X-46.0Y-152.0
X-46.0Y-161.0
X-46.0Y-218.0
X-45.0Y-96.0
X-45.0Y-152.0
X-45.0Y-161.0
X-45.0Y-165.0
X-45.0Y-175.0
X-45.0Y-185.0
X-45.0Y-195.0
X-45.0Y-205.0
X-45.0Y-218.0
X-44.0Y-96.0
X-44.0Y-152.0
X-44.0Y-161.0
X-44.0Y-218.0
X-43.0Y-96.0
X-43.0Y-152.0
X-43.0Y-161.0
X-43.0Y-218.0
X-42.0Y-96.0
X-42.0Y-152.0
X-42.0Y-161.0
X-42.0Y-218.0
X-41.0Y-96.0
X-41.0Y-152.0
X-41.0Y-161.0
X-41.0Y-218.0
X-40.0Y-96.0
X-40.0Y-152.0
X-40.0Y-161.0
X-40.0Y-210.0
X-40.0Y-218.0
X-39.0Y-96.0
X-39.0Y-152.0
X-39.0Y-161.0
X-39.0Y-218.0
X-38.0Y-96.0
X-38.0Y-152.0
X-38.0Y-161.0
X-38.0Y-218.0
X-37.0Y-152.0
X-37.0Y-161.0
X-37.0Y-218.0
X-36.0Y-152.0
X-36.0Y-161.0
X-36.0Y-218.0
X-35.0Y-152.0
X-35.0Y-161.0
X-35.0Y-218.0
X-34.0Y-152.0
X-34.0Y-161.0
X-34.0Y-218.0
X-33.0Y-161.0
X-33.0Y-218.0
X-32.0Y-161.0
X-32.0Y-206.0
X-32.0Y-207.0
X-32.0Y-208.0
X-32.0Y-209.0
X-32.0Y-210.0
X-32.0Y-211.0
X-32.0Y-212.0
X-32.0Y-213.0
X-32.0Y-214.0
X-32.0Y-215.0
X-32.0Y-216.0
X-32.0Y-217.0
X-32.0Y-218.0
X-31.0Y-206.0
X-30.0Y-206.0
X-29.0Y-206.0
X-28.0Y-206.0
X-27.0Y-206.0
X-26.0Y-152.0
X-26.0Y-206.0
X-25.0Y-152.0
X-25.0Y-206.0
X-24.0Y-152.0
X-23.0Y-152.0
X-21.0Y-112.0
X-21.0Y-113.0
X-21.0Y-114.0
X-21.0Y-115.0
X-21.0Y-116.0
X-21.0Y-117.0
X-21.0Y-118.0
X-21.0Y-122.0
X-21.0Y-123.0
X-21.0Y-124.0
X-21.0Y-125.0
X-21.0Y-126.0
X-21.0Y-127.0
X-21.0Y-128.0
X-21.0Y-129.0
X-21.0Y-130.0
X-21.0Y-131.0
X-21.0Y-132.0
X-21.0Y-133.0
X-21.0Y-134.0
X-21.0Y-135.0
X-21.0Y-136.0
X-21.0Y-137.0
X-21.0Y-138.0
X-21.0Y-139.0
X-21.0Y-140.0
X-21.0Y-141.0
X-21.0Y-147.0
X-21.0Y-148.0
T3
X-79.975Y-30.51
X-79.975Y-31.84
X-79.975Y-33.18
X-79.975Y-34.51
X-79.975Y-40.51
X-79.975Y-41.84
X-79.975Y-43.18
X-79.975Y-44.51
X-79.585Y-29.31
X-79.585Y-35.71
X-79.585Y-39.31
X-79.585Y-45.71
X-78.555Y-28.56
X-78.555Y-36.46
X-78.555Y-38.56
X-78.555Y-46.46
X-77.295Y-28.56
X-77.295Y-36.46
X-77.295Y-38.56
X-77.295Y-46.46
X-76.265Y-29.31
X-76.265Y-35.71
X-76.265Y-39.31
X-76.265Y-45.71
X-75.875Y-30.51
X-75.875Y-31.84
X-75.875Y-33.18
X-75.875Y-34.51
X-75.875Y-40.51
X-75.875Y-41.84
X-75.875Y-43.18
X-75.875Y-44.51
X-44.975Y-30.51
X-44.975Y-31.84
X-44.975Y-33.18
X-44.975Y-34.51
X-44.975Y-40.51
X-44.975Y-41.84
X-44.975Y-43.18
X-44.975Y-44.51
X-44.585Y-29.31
X-44.585Y-35.71
X-44.585Y-39.31
X-44.585Y-45.71
X-43.555Y-28.56
X-43.555Y-36.46
X-43.555Y-38.56
X-43.555Y-46.46
X-42.295Y-28.56
X-42.295Y-36.46
X-42.295Y-38.56
X-42.295Y-46.46
X-41.265Y-29.31
X-41.265Y-35.71
X-41.265Y-39.31
X-41.265Y-45.71
X-40.875Y-30.51
X-40.875Y-31.84
X-40.875Y-33.18
X-40.875Y-34.51
X-40.875Y-40.51
X-40.875Y-41.84
X-40.875Y-43.18
X-40.875Y-44.51
X45.55Y-98.795
X45.55Y-100.055
X46.05Y-133.795
X46.05Y-135.055
X46.3Y-97.765
X46.3Y-101.085
X46.8Y-132.765
X46.8Y-136.085
X47.5Y-97.375
X47.5Y-101.475
X48.0Y-132.375
X48.0Y-136.475
X48.83Y-97.375
X48.83Y-101.475
X49.33Y-132.375
X49.33Y-136.475
X50.17Y-97.375
X50.17Y-101.475
X50.67Y-132.375
X50.67Y-136.475
X51.5Y-97.375
X51.5Y-101.475
X52.0Y-132.375
X52.0Y-136.475
X52.7Y-97.765
X52.7Y-101.085
X53.2Y-132.765
X53.2Y-136.085
X53.45Y-98.795
X53.45Y-100.055
X53.95Y-133.795
X53.95Y-135.055
X55.55Y-98.795
X55.55Y-100.055
X56.05Y-133.795
X56.05Y-135.055
X56.3Y-97.765
X56.3Y-101.085
X56.8Y-132.765
X56.8Y-136.085
X57.5Y-97.375
X57.5Y-101.475
X58.0Y-132.375
X58.0Y-136.475
X58.83Y-97.375
X58.83Y-101.475
X59.33Y-132.375
X59.33Y-136.475
X60.17Y-97.375
X60.17Y-101.475
X60.67Y-132.375
X60.67Y-136.475
X61.5Y-97.375
X61.5Y-101.475
X62.0Y-132.375
X62.0Y-136.475
X62.7Y-97.765
X62.7Y-101.085
X63.2Y-132.765
X63.2Y-136.085
X63.45Y-98.795
X63.45Y-100.055
X63.95Y-133.795
X63.95Y-135.055
X160.56Y-98.795
X160.56Y-100.055
X161.06Y-133.795
X161.06Y-135.055
X161.31Y-97.765
X161.31Y-101.085
X161.81Y-132.765
X161.81Y-136.085
X162.51Y-97.375
X162.51Y-101.475
X163.01Y-132.375
X163.01Y-136.475
X163.84Y-97.375
X163.84Y-101.475
X164.34Y-132.375
X164.34Y-136.475
X165.18Y-97.375
X165.18Y-101.475
X165.68Y-132.375
X165.68Y-136.475
X166.51Y-97.375
X166.51Y-101.475
X167.01Y-132.375
X167.01Y-136.475
X167.71Y-97.765
X167.71Y-101.085
X168.21Y-132.765
X168.21Y-136.085
X168.46Y-98.795
X168.46Y-100.055
X168.96Y-133.795
X168.96Y-135.055
X170.56Y-98.795
X170.56Y-100.055
X171.06Y-133.795
X171.06Y-135.055
X171.31Y-97.765
X171.31Y-101.085
X171.81Y-132.765
X171.81Y-136.085
X172.51Y-97.375
X172.51Y-101.475
X173.01Y-132.375
X173.01Y-136.475
X173.84Y-97.375
X173.84Y-101.475
X174.34Y-132.375
X174.34Y-136.475
X175.18Y-97.375
X175.18Y-101.475
X175.68Y-132.375
X175.68Y-136.475
X176.51Y-97.375
X176.51Y-101.475
X177.01Y-132.375
X177.01Y-136.475
X177.71Y-97.765
X177.71Y-101.085
X178.21Y-132.765
X178.21Y-136.085
X178.46Y-98.795
X178.46Y-100.055
X178.96Y-133.795
X178.96Y-135.055
X275.56Y-133.795
X275.56Y-135.055
X276.06Y-98.795
X276.06Y-100.055
X276.31Y-132.765
X276.31Y-136.085
X276.81Y-97.765
X276.81Y-101.085
X277.51Y-132.375
X277.51Y-136.475
X278.01Y-97.375
X278.01Y-101.475
X278.84Y-132.375
X278.84Y-136.475
X279.34Y-97.375
X279.34Y-101.475
X280.18Y-132.375
X280.18Y-136.475
X280.68Y-97.375
X280.68Y-101.475
X281.51Y-132.375
X281.51Y-136.475
X282.01Y-97.375
X282.01Y-101.475
X282.71Y-132.765
X282.71Y-136.085
X283.21Y-97.765
X283.21Y-101.085
X283.46Y-133.795
X283.46Y-135.055
X283.96Y-98.795
X283.96Y-100.055
X285.56Y-133.795
X285.56Y-135.055
X286.06Y-98.795
X286.06Y-100.055
X286.31Y-132.765
X286.31Y-136.085
X286.81Y-97.765
X286.81Y-101.085
X287.51Y-132.375
X287.51Y-136.475
X288.01Y-97.375
X288.01Y-101.475
X288.84Y-132.375
X288.84Y-136.475
X289.34Y-97.375
X289.34Y-101.475
X290.18Y-132.375
X290.18Y-136.475
X290.68Y-97.375
X290.68Y-101.475
X291.51Y-132.375
X291.51Y-136.475
X292.01Y-97.375
X292.01Y-101.475
X292.71Y-132.765
X292.71Y-136.085
X293.21Y-97.765
X293.21Y-101.085
X293.46Y-133.795
X293.46Y-135.055
X293.96Y-98.795
X293.96Y-100.055
T4
X-99.325Y-35.6
X-99.325Y-37.51
X-99.325Y-39.42
X-64.325Y-35.6
X-64.325Y-37.51
X-64.325Y-39.42
X52.59Y-120.825
X53.09Y-155.825
X54.5Y-120.825
X55.0Y-155.825
X56.41Y-120.825
X56.91Y-155.825
X167.6Y-120.825
X168.1Y-155.825
X169.51Y-120.825
X170.01Y-155.825
X171.42Y-120.825
X171.92Y-155.825
X282.6Y-155.825
X283.1Y-120.825
X284.51Y-155.825
X285.01Y-120.825
X286.42Y-155.825
X286.92Y-120.825
T5
X-68.5Y-100.0
X-68.5Y-215.0
X-65.96Y-100.0
X-65.96Y-215.0
X-63.42Y-100.0
X-63.42Y-215.0
X-60.88Y-100.0
X-60.88Y-215.0
X-58.34Y-100.0
X-58.34Y-215.0
X-55.8Y-100.0
X-55.8Y-215.0
X-53.26Y-100.0
X-53.26Y-215.0
X-50.72Y-100.0
X-50.72Y-215.0
X-48.18Y-100.0
X-48.18Y-215.0
X-45.64Y-100.0
X-45.64Y-215.0
X-6.0Y-32.0
X-6.0Y-59.5
X-6.0Y-201.125
X-6.0Y-228.625
X7.0Y-31.0
X7.0Y-46.0
X7.0Y-214.275
X7.0Y-229.275
X51.0Y-32.0
X51.0Y-47.0
X51.0Y-214.0
X51.0Y-229.0
X110.0Y-33.0
X110.0Y-60.5
X110.0Y-201.125
X110.0Y-228.625
X123.0Y-32.0
X123.0Y-47.0
X123.0Y-214.275
X123.0Y-229.275
X166.0Y-32.0
X166.0Y-47.0
X166.0Y-214.275
X166.0Y-229.275
X224.0Y-33.0
X224.0Y-60.5
X224.0Y-201.125
X224.0Y-228.625
X237.0Y-32.275
X237.0Y-47.275
X237.0Y-214.275
X237.0Y-229.275
X281.0Y-32.275
X281.0Y-47.275
X281.0Y-214.275
X281.0Y-229.275
T6
X-97.84Y-123.615
X-97.84Y-126.385
X-97.84Y-129.155
X-97.84Y-131.925
X-97.84Y-134.695
X-97.84Y-137.465
X-97.84Y-140.235
X-97.84Y-143.005
X-97.84Y-145.775
X-97.84Y-148.545
X-97.84Y-151.315
X-97.84Y-154.085
X-95.0Y-122.23
X-95.0Y-125.0
X-95.0Y-127.77
X-95.0Y-130.54
X-95.0Y-133.31
X-95.0Y-136.08
X-95.0Y-138.85
X-95.0Y-141.62
X-95.0Y-144.39
X-95.0Y-147.16
X-95.0Y-149.93
X-95.0Y-152.7
X-95.0Y-155.47
T7
X-8.915Y-87.085
X-8.915Y-92.165
X-8.915Y-99.785
X-8.915Y-102.325
T8
X62.85Y-191.5
X62.85Y-229.0
X63.0Y-33.0
X63.0Y-70.5
X83.15Y-191.5
X83.15Y-229.0
X83.3Y-33.0
X83.3Y-70.5
X178.0Y-32.5
X178.0Y-70.0
X178.0Y-191.5
X178.0Y-229.0
X198.3Y-32.5
X198.3Y-70.0
X198.3Y-191.5
X198.3Y-229.0
X292.85Y-191.5
X292.85Y-229.0
X293.0Y-33.0
X293.0Y-70.5
X313.15Y-191.5
X313.15Y-229.0
X313.3Y-33.0
X313.3Y-70.5
T9
X-65.0Y43.1
X-65.0Y33.1
X-65.0Y10.0
X-65.0Y0.0
X-31.9Y43.1
X-31.9Y33.1
X-31.9Y10.0
X-31.9Y0.0
X1.2Y43.1
X1.2Y33.1
X1.2Y10.0
X1.2Y0.0
X34.3Y43.1
X34.3Y33.1
X34.3Y10.0
X34.3Y0.0
X67.4Y43.1
X67.4Y33.1
X67.4Y10.0
X67.4Y0.0
X100.5Y43.1
X100.5Y33.1
X100.5Y10.0
X100.5Y0.0
X133.8Y43.1
X133.8Y33.1
X133.8Y10.0
X133.8Y0.0
X166.9Y43.1
X166.9Y33.1
X166.9Y10.0
X166.9Y0.0
X200.0Y43.1
X200.0Y33.1
X200.0Y10.0
X200.0Y0.0
X233.1Y43.1
X233.1Y33.1
X233.1Y10.0
X233.1Y0.0
X266.2Y43.1
X266.2Y33.1
X266.2Y10.0
X266.2Y0.0
X299.3Y43.1
X299.3Y33.1
X299.3Y10.0
X299.3Y0.0
T10
X-96.42Y-115.33
X-96.42Y-162.37
T11
X-100.0Y45.0
X-100.0Y-245.0
X-94.15Y-102.5
X-93.5Y-212.5
X-81.5Y21.5
X-48.5Y22.0
X-23.5Y-102.5
X-23.5Y-212.5
X-15.5Y22.0
X-15.0Y-10.0
X7.0Y-202.0
X17.5Y21.5
X50.5Y21.5
X84.0Y21.5
X117.0Y21.5
X117.5Y-10.55
X123.0Y-202.0
X150.5Y21.5
X183.5Y21.5
X216.5Y21.0
X217.5Y-10.0
X237.0Y-202.0
X249.5Y21.5
X282.5Y22.5
X310.0Y-245.0
T12
X-62.5Y-72.5
X-40.5Y-241.75
X77.0Y-120.0
X192.0Y-120.0
X307.0Y-120.0
T13
X30.0Y-21.0
X30.0Y-50.0
X30.0Y-211.0
X30.0Y-240.0
X145.0Y-21.0
X145.0Y-50.0
X145.0Y-211.0
X145.0Y-240.0
X260.0Y-21.0
X260.0Y-50.0
X260.0Y-211.0
X260.0Y-240.0
T9
G00X-77.925Y-30.51
M15
G01X-77.925Y-34.51
M16
G05
G00X-77.925Y-40.51
M15
G01X-77.925Y-44.51
M16
G05
G00X-42.925Y-30.51
M15
G01X-42.925Y-34.51
M16
G05
G00X-42.925Y-40.51
M15
G01X-42.925Y-44.51
M16
G05
G00X47.5Y-99.425
M15
G01X51.5Y-99.425
M16
G05
G00X48.0Y-134.425
M15
G01X52.0Y-134.425
M16
G05
G00X57.5Y-99.425
M15
G01X61.5Y-99.425
M16
G05
G00X58.0Y-134.425
M15
G01X62.0Y-134.425
M16
G05
G00X162.51Y-99.425
M15
G01X166.51Y-99.425
M16
G05
G00X163.01Y-134.425
M15
G01X167.01Y-134.425
M16
G05
G00X172.51Y-99.425
M15
G01X176.51Y-99.425
M16
G05
G00X173.01Y-134.425
M15
G01X177.01Y-134.425
M16
G05
G00X277.51Y-134.425
M15
G01X281.51Y-134.425
M16
G05
G00X278.01Y-99.425
M15
G01X282.01Y-99.425
M16
G05
G00X287.51Y-134.425
M15
G01X291.51Y-134.425
M16
G05
G00X288.01Y-99.425
M15
G01X292.01Y-99.425
M16
G05
M30
