%TF.GenerationSoftware,KiCad,Pcbnew,9.0.0*%
%TF.CreationDate,2025-04-28T14:21:00-07:00*%
%TF.ProjectId,GateDriver,47617465-4472-4697-9665-722e6b696361,rev?*%
%TF.SameCoordinates,Original*%
%TF.FileFunction,Paste,Top*%
%TF.FilePolarity,Positive*%
%FSLAX46Y46*%
G04 Gerber Fmt 4.6, Leading zero omitted, Abs format (unit mm)*
G04 Created by KiCad (PCBNEW 9.0.0) date 2025-04-28 14:21:00*
%MOMM*%
%LPD*%
G01*
G04 APERTURE LIST*
G04 Aperture macros list*
%AMRoundRect*
0 Rectangle with rounded corners*
0 $1 Rounding radius*
0 $2 $3 $4 $5 $6 $7 $8 $9 X,Y pos of 4 corners*
0 Add a 4 corners polygon primitive as box body*
4,1,4,$2,$3,$4,$5,$6,$7,$8,$9,$2,$3,0*
0 Add four circle primitives for the rounded corners*
1,1,$1+$1,$2,$3*
1,1,$1+$1,$4,$5*
1,1,$1+$1,$6,$7*
1,1,$1+$1,$8,$9*
0 Add four rect primitives between the rounded corners*
20,1,$1+$1,$2,$3,$4,$5,0*
20,1,$1+$1,$4,$5,$6,$7,0*
20,1,$1+$1,$6,$7,$8,$9,0*
20,1,$1+$1,$8,$9,$2,$3,0*%
G04 Aperture macros list end*
%ADD10RoundRect,0.250000X0.412500X1.100000X-0.412500X1.100000X-0.412500X-1.100000X0.412500X-1.100000X0*%
%ADD11RoundRect,0.250000X1.100000X-0.412500X1.100000X0.412500X-1.100000X0.412500X-1.100000X-0.412500X0*%
%ADD12RoundRect,0.250000X-0.412500X-1.100000X0.412500X-1.100000X0.412500X1.100000X-0.412500X1.100000X0*%
%ADD13RoundRect,0.250000X0.400000X1.075000X-0.400000X1.075000X-0.400000X-1.075000X0.400000X-1.075000X0*%
%ADD14RoundRect,0.250000X1.075000X-0.400000X1.075000X0.400000X-1.075000X0.400000X-1.075000X-0.400000X0*%
%ADD15R,2.300000X1.550000*%
%ADD16RoundRect,0.250000X-1.100000X0.412500X-1.100000X-0.412500X1.100000X-0.412500X1.100000X0.412500X0*%
%ADD17R,3.200000X2.250000*%
%ADD18RoundRect,0.250000X-1.075000X0.400000X-1.075000X-0.400000X1.075000X-0.400000X1.075000X0.400000X0*%
%ADD19R,0.449999X1.849999*%
%ADD20R,1.075000X0.500000*%
G04 APERTURE END LIST*
D10*
%TO.C,C66*%
X164062500Y-124500000D03*
X160937500Y-124500000D03*
%TD*%
D11*
%TO.C,C29*%
X127000000Y-145062500D03*
X127000000Y-141937500D03*
%TD*%
D10*
%TO.C,C67*%
X158562500Y-124500000D03*
X155437500Y-124500000D03*
%TD*%
%TO.C,C31*%
X132062500Y-124000000D03*
X128937500Y-124000000D03*
%TD*%
D12*
%TO.C,C35*%
X80437500Y-71000000D03*
X83562500Y-71000000D03*
%TD*%
D13*
%TO.C,R45*%
X149550000Y-96000000D03*
X146450000Y-96000000D03*
%TD*%
D14*
%TO.C,R30*%
X167000000Y-136050000D03*
X167000000Y-132950000D03*
%TD*%
D12*
%TO.C,C34*%
X80437500Y-76000000D03*
X83562500Y-76000000D03*
%TD*%
D10*
%TO.C,C68*%
X153062500Y-124500000D03*
X149937500Y-124500000D03*
%TD*%
D12*
%TO.C,C45*%
X101437500Y-58000000D03*
X104562500Y-58000000D03*
%TD*%
D10*
%TO.C,C52*%
X105562500Y-106000000D03*
X102437500Y-106000000D03*
%TD*%
D13*
%TO.C,R44*%
X165600000Y-54000000D03*
X162500000Y-54000000D03*
%TD*%
D10*
%TO.C,C65*%
X169562500Y-124500000D03*
X166437500Y-124500000D03*
%TD*%
D12*
%TO.C,C44*%
X101437500Y-62500000D03*
X104562500Y-62500000D03*
%TD*%
D14*
%TO.C,R28*%
X156000000Y-136050000D03*
X156000000Y-132950000D03*
%TD*%
D10*
%TO.C,C53*%
X103562500Y-101000000D03*
X100437500Y-101000000D03*
%TD*%
D15*
%TO.C,D13*%
X151900000Y-79000000D03*
X147600000Y-79000000D03*
%TD*%
D12*
%TO.C,C85*%
X146437500Y-99250000D03*
X149562500Y-99250000D03*
%TD*%
D14*
%TO.C,R27*%
X150500000Y-136062500D03*
X150500000Y-132962500D03*
%TD*%
D16*
%TO.C,C20*%
X142500000Y-114375000D03*
X142500000Y-117500000D03*
%TD*%
D17*
%TO.C,D1*%
X117000000Y-62300000D03*
X117000000Y-69200000D03*
%TD*%
D10*
%TO.C,C32*%
X132000000Y-133000000D03*
X128875000Y-133000000D03*
%TD*%
%TO.C,C69*%
X147562500Y-124500000D03*
X144437500Y-124500000D03*
%TD*%
D11*
%TO.C,C28*%
X122500000Y-145062500D03*
X122500000Y-141937500D03*
%TD*%
D18*
%TO.C,R47*%
X151000000Y-83450000D03*
X151000000Y-86550000D03*
%TD*%
D12*
%TO.C,C83*%
X162500000Y-60000000D03*
X165625000Y-60000000D03*
%TD*%
%TO.C,C43*%
X101437500Y-66000000D03*
X104562500Y-66000000D03*
%TD*%
%TO.C,C36*%
X81437500Y-66000000D03*
X84562500Y-66000000D03*
%TD*%
D10*
%TO.C,C76*%
X142062500Y-129000000D03*
X138937500Y-129000000D03*
%TD*%
D12*
%TO.C,C51*%
X81437500Y-94000000D03*
X84562500Y-94000000D03*
%TD*%
D16*
%TO.C,C64*%
X147000000Y-114375000D03*
X147000000Y-117500000D03*
%TD*%
D12*
%TO.C,C80*%
X153437500Y-99000000D03*
X156562500Y-99000000D03*
%TD*%
D13*
%TO.C,R46*%
X134550000Y-87000000D03*
X131450000Y-87000000D03*
%TD*%
D10*
%TO.C,C71*%
X169562500Y-129000000D03*
X166437500Y-129000000D03*
%TD*%
%TO.C,C70*%
X142062500Y-124500000D03*
X138937500Y-124500000D03*
%TD*%
D17*
%TO.C,D2*%
X125750000Y-62300000D03*
X125750000Y-69200000D03*
%TD*%
D14*
%TO.C,R25*%
X139500000Y-136112500D03*
X139500000Y-133012500D03*
%TD*%
D11*
%TO.C,C30*%
X131500000Y-145062500D03*
X131500000Y-141937500D03*
%TD*%
D12*
%TO.C,C49*%
X80437500Y-104000000D03*
X83562500Y-104000000D03*
%TD*%
D14*
%TO.C,R29*%
X161500000Y-136112500D03*
X161500000Y-133012500D03*
%TD*%
D10*
%TO.C,C75*%
X147562500Y-129000000D03*
X144437500Y-129000000D03*
%TD*%
D12*
%TO.C,C59*%
X159437500Y-99000000D03*
X162562500Y-99000000D03*
%TD*%
D10*
%TO.C,C73*%
X158562500Y-129000000D03*
X155437500Y-129000000D03*
%TD*%
%TO.C,C72*%
X164062500Y-129000000D03*
X160937500Y-129000000D03*
%TD*%
D19*
%TO.C,U1*%
X150200001Y-113500000D03*
X150850002Y-113500000D03*
X151500001Y-113500000D03*
X152150002Y-113500000D03*
X152800001Y-113500000D03*
X153450002Y-113500000D03*
X154100000Y-113500000D03*
X154750002Y-113500000D03*
X155400000Y-113500000D03*
X156050002Y-113500000D03*
X156700000Y-113500000D03*
X157350002Y-113500000D03*
X158000000Y-113500000D03*
X158650001Y-113500000D03*
X159300000Y-113500000D03*
X159950001Y-113500000D03*
X160600000Y-113500000D03*
X161250001Y-113500000D03*
X161250001Y-103550002D03*
X160600000Y-103550002D03*
X159950001Y-103550002D03*
X159300000Y-103550002D03*
X158650001Y-103550002D03*
X158000000Y-103550002D03*
X157350002Y-103550002D03*
X156700000Y-103550002D03*
X156050002Y-103550002D03*
X155400000Y-103550002D03*
X154750002Y-103550002D03*
X154100000Y-103550002D03*
X153450002Y-103550002D03*
X152800001Y-103550002D03*
X152150002Y-103550002D03*
X151500001Y-103550002D03*
X150850002Y-103550002D03*
X150200001Y-103550002D03*
%TD*%
D20*
%TO.C,D9*%
X137338000Y-83625000D03*
X139662000Y-83625000D03*
%TD*%
D12*
%TO.C,C50*%
X80437500Y-99000000D03*
X83562500Y-99000000D03*
%TD*%
D10*
%TO.C,C33*%
X132062500Y-128500000D03*
X128937500Y-128500000D03*
%TD*%
%TO.C,C81*%
X140037500Y-87000000D03*
X136912500Y-87000000D03*
%TD*%
D13*
%TO.C,R24*%
X103550000Y-91000000D03*
X100450000Y-91000000D03*
%TD*%
D12*
%TO.C,C79*%
X153437500Y-94500000D03*
X156562500Y-94500000D03*
%TD*%
D18*
%TO.C,R48*%
X155750000Y-83450000D03*
X155750000Y-86550000D03*
%TD*%
D14*
%TO.C,R26*%
X145000000Y-136050000D03*
X145000000Y-132950000D03*
%TD*%
D10*
%TO.C,C74*%
X153062500Y-129000000D03*
X149937500Y-129000000D03*
%TD*%
D12*
%TO.C,C60*%
X159437500Y-94500000D03*
X162562500Y-94500000D03*
%TD*%
D10*
%TO.C,C54*%
X103562500Y-96000000D03*
X100437500Y-96000000D03*
%TD*%
M02*
