%TF.GenerationSoftware,KiCad,Pcbnew,9.0.0*%
%TF.CreationDate,2025-04-28T14:21:00-07:00*%
%TF.ProjectId,GateDriver,47617465-4472-4697-9665-722e6b696361,rev?*%
%TF.SameCoordinates,Original*%
%TF.FileFunction,Copper,L3,Inr*%
%TF.FilePolarity,Positive*%
%FSLAX46Y46*%
G04 Gerber Fmt 4.6, Leading zero omitted, Abs format (unit mm)*
G04 Created by KiCad (PCBNEW 9.0.0) date 2025-04-28 14:21:00*
%MOMM*%
%LPD*%
G01*
G04 APERTURE LIST*
G04 Aperture macros list*
%AMRoundRect*
0 Rectangle with rounded corners*
0 $1 Rounding radius*
0 $2 $3 $4 $5 $6 $7 $8 $9 X,Y pos of 4 corners*
0 Add a 4 corners polygon primitive as box body*
4,1,4,$2,$3,$4,$5,$6,$7,$8,$9,$2,$3,0*
0 Add four circle primitives for the rounded corners*
1,1,$1+$1,$2,$3*
1,1,$1+$1,$4,$5*
1,1,$1+$1,$6,$7*
1,1,$1+$1,$8,$9*
0 Add four rect primitives between the rounded corners*
20,1,$1+$1,$2,$3,$4,$5,0*
20,1,$1+$1,$4,$5,$6,$7,0*
20,1,$1+$1,$6,$7,$8,$9,0*
20,1,$1+$1,$8,$9,$2,$3,0*%
G04 Aperture macros list end*
%TA.AperFunction,ComponentPad*%
%ADD10C,10.600000*%
%TD*%
%TA.AperFunction,ComponentPad*%
%ADD11RoundRect,0.500000X4.500000X7.000000X-4.500000X7.000000X-4.500000X-7.000000X4.500000X-7.000000X0*%
%TD*%
%TA.AperFunction,ComponentPad*%
%ADD12RoundRect,0.500000X7.000000X-4.500000X7.000000X4.500000X-7.000000X4.500000X-7.000000X-4.500000X0*%
%TD*%
%TA.AperFunction,ComponentPad*%
%ADD13R,1.950000X1.950000*%
%TD*%
%TA.AperFunction,ComponentPad*%
%ADD14C,1.950000*%
%TD*%
%TA.AperFunction,ComponentPad*%
%ADD15C,3.000000*%
%TD*%
%TA.AperFunction,ComponentPad*%
%ADD16R,1.200000X1.200000*%
%TD*%
%TA.AperFunction,ComponentPad*%
%ADD17C,1.200000*%
%TD*%
%TA.AperFunction,ComponentPad*%
%ADD18C,1.725000*%
%TD*%
%TA.AperFunction,ComponentPad*%
%ADD19C,1.300000*%
%TD*%
%TA.AperFunction,ComponentPad*%
%ADD20C,4.800000*%
%TD*%
%TA.AperFunction,ComponentPad*%
%ADD21R,1.500000X1.500000*%
%TD*%
%TA.AperFunction,ComponentPad*%
%ADD22C,1.500000*%
%TD*%
%TA.AperFunction,ViaPad*%
%ADD23C,1.000000*%
%TD*%
%TA.AperFunction,ViaPad*%
%ADD24C,0.600000*%
%TD*%
%TA.AperFunction,ViaPad*%
%ADD25C,0.500000*%
%TD*%
%TA.AperFunction,Conductor*%
%ADD26C,0.350000*%
%TD*%
%TA.AperFunction,Conductor*%
%ADD27C,1.000000*%
%TD*%
G04 APERTURE END LIST*
D10*
%TO.N,N/C*%
%TO.C,H4*%
X82500000Y-152500000D03*
%TD*%
D11*
%TO.N,IGBT_COLLECTOR*%
%TO.C,Q1*%
X123750000Y-51000000D03*
%TO.N,IGBT_EMITTER*%
X138750000Y-69000000D03*
D12*
%TO.N,IGBT_GATE*%
X178750000Y-56000000D03*
%TD*%
D10*
%TO.N,N/C*%
%TO.C,H6*%
X82500000Y-47500000D03*
%TD*%
D13*
%TO.N,ANALOG_INPUT_1*%
%TO.C,J1*%
X180000000Y-108080000D03*
D14*
%TO.N,IGBT_EMITTER*%
X180000000Y-103000000D03*
%TO.N,+5VP*%
X180000000Y-97920000D03*
%TD*%
D13*
%TO.N,IGBT_GATE*%
%TO.C,J5*%
X179000000Y-70000000D03*
D14*
X179000000Y-65000000D03*
%TD*%
D13*
%TO.N,IGBT_EMITTER*%
%TO.C,J6*%
X155000000Y-59000000D03*
D14*
X150000000Y-59000000D03*
%TD*%
D10*
%TO.N,N/C*%
%TO.C,H5*%
X180000000Y-152500000D03*
%TD*%
D15*
%TO.N,ANALOG_SENSE_2*%
%TO.C,TP5*%
X167000000Y-90750000D03*
%TD*%
%TO.N,IGBT_GATE*%
%TO.C,TP7*%
X161000000Y-81000000D03*
%TD*%
%TO.N,Net-(D9-K)*%
%TO.C,TP8*%
X134000000Y-83000000D03*
%TD*%
%TO.N,ANALOG_SENSE_1*%
%TO.C,TP6*%
X168250000Y-101000000D03*
%TD*%
%TO.N,IGBT_EMITTER*%
%TO.C,TP3*%
X140500000Y-104000000D03*
%TD*%
D13*
%TO.N,ANALOG_INPUT_2*%
%TO.C,J3*%
X180000000Y-89830000D03*
D14*
%TO.N,IGBT_EMITTER*%
X180000000Y-84750000D03*
%TO.N,+5VP*%
X180000000Y-79670000D03*
%TD*%
D13*
%TO.N,IGBT_COLLECTOR*%
%TO.C,J7*%
X112500000Y-49000000D03*
D14*
X107500000Y-49000000D03*
%TD*%
D16*
%TO.N,+12V*%
%TO.C,C39*%
X158500000Y-153000000D03*
D17*
%TO.N,GND*%
X153500000Y-153000000D03*
%TD*%
D16*
%TO.N,IGBT_EMITTER*%
%TO.C,C56*%
X105000000Y-113500000D03*
D17*
%TO.N,ISO_GATE_DRIVE_-9V*%
X105000000Y-118500000D03*
%TD*%
D16*
%TO.N,ISO_GATE_DRIVE_+15V*%
%TO.C,C42*%
X117500000Y-91000000D03*
D17*
%TO.N,IGBT_EMITTER*%
X117500000Y-96000000D03*
%TD*%
D18*
%TO.N,+5V*%
%TO.C,PS4*%
X134500000Y-119325000D03*
%TO.N,GND*%
X134500000Y-116785000D03*
%TO.N,IGBT_EMITTER*%
X134500000Y-109165000D03*
%TO.N,+5VP*%
X134500000Y-104085000D03*
%TD*%
D16*
%TO.N,+12V*%
%TO.C,C38*%
X170000000Y-153000000D03*
D17*
%TO.N,GND*%
X165000000Y-153000000D03*
%TD*%
D16*
%TO.N,ISO_GATE_DRIVE_+15V*%
%TO.C,C41*%
X117500000Y-114000000D03*
D17*
%TO.N,IGBT_EMITTER*%
X117500000Y-119000000D03*
%TD*%
D19*
%TO.N,+12V*%
%TO.C,J4*%
X172559610Y-136418500D03*
%TO.N,GND*%
X172559610Y-133678500D03*
%TO.N,GATE_DRIVE+*%
X172559610Y-130938500D03*
%TO.N,GATE_DRIVE-*%
X172559610Y-128198500D03*
%TO.N,FAULT*%
X172559610Y-125458500D03*
%TO.N,SDI*%
X175099610Y-135048500D03*
%TO.N,SDO*%
X175099610Y-132308500D03*
%TO.N,SPI_CLK*%
X175099610Y-129568500D03*
%TO.N,SPI_CS*%
X175099610Y-126828500D03*
D20*
%TO.N,GND*%
X173829610Y-143438500D03*
X173829610Y-118438500D03*
%TD*%
D16*
%TO.N,IGBT_EMITTER*%
%TO.C,C55*%
X117500000Y-125500000D03*
D17*
%TO.N,ISO_GATE_DRIVE_-9V*%
X117500000Y-130500000D03*
%TD*%
D16*
%TO.N,+12V*%
%TO.C,C37*%
X147000000Y-152500000D03*
D17*
%TO.N,GND*%
X142000000Y-152500000D03*
%TD*%
D16*
%TO.N,+12V*%
%TO.C,C47*%
X124000000Y-152500000D03*
D17*
%TO.N,GND*%
X119000000Y-152500000D03*
%TD*%
D16*
%TO.N,+12V*%
%TO.C,C48*%
X135500000Y-152500000D03*
D17*
%TO.N,GND*%
X130500000Y-152500000D03*
%TD*%
D21*
%TO.N,+12V*%
%TO.C,PS2*%
X87000000Y-65460000D03*
D22*
%TO.N,GND*%
X87000000Y-70540000D03*
%TO.N,unconnected-(PS2-CTRL-Pad3)*%
X87000000Y-78160000D03*
%TO.N,IGBT_EMITTER*%
X107320000Y-78160000D03*
%TO.N,unconnected-(PS2-TRIM-Pad5)*%
X107320000Y-68000000D03*
%TO.N,ISO_GATE_DRIVE_+15V*%
X107320000Y-57840000D03*
%TD*%
D16*
%TO.N,+12V*%
%TO.C,C46*%
X112600000Y-152500000D03*
D17*
%TO.N,GND*%
X107600000Y-152500000D03*
%TD*%
D16*
%TO.N,IGBT_EMITTER*%
%TO.C,C57*%
X105000000Y-125000000D03*
D17*
%TO.N,ISO_GATE_DRIVE_-9V*%
X105000000Y-130000000D03*
%TD*%
D18*
%TO.N,+12V*%
%TO.C,PS1*%
X134415000Y-141325000D03*
%TO.N,GND*%
X134415000Y-138785000D03*
X134415000Y-131165000D03*
%TO.N,+5V*%
X134415000Y-126085000D03*
%TD*%
D16*
%TO.N,ISO_GATE_DRIVE_+15V*%
%TO.C,C40*%
X117500000Y-102500000D03*
D17*
%TO.N,IGBT_EMITTER*%
X117500000Y-107500000D03*
%TD*%
D21*
%TO.N,+12V*%
%TO.C,PS3*%
X87000000Y-93460000D03*
D22*
%TO.N,GND*%
X87000000Y-98540000D03*
%TO.N,unconnected-(PS3-CTRL-Pad3)*%
X87000000Y-106160000D03*
%TO.N,ISO_GATE_DRIVE_-9V*%
X107320000Y-106160000D03*
%TO.N,unconnected-(PS3-TRIM-Pad5)*%
X107320000Y-96000000D03*
%TO.N,IGBT_EMITTER*%
X107320000Y-85840000D03*
%TD*%
D23*
%TO.N,GND*%
X114000000Y-159000000D03*
X186000000Y-150000000D03*
X76000000Y-70000000D03*
X142000000Y-127000000D03*
X115000000Y-159000000D03*
X180000000Y-159000000D03*
X76000000Y-60000000D03*
X180000000Y-130000000D03*
X126000000Y-147000000D03*
X181000000Y-159000000D03*
X167000000Y-118000000D03*
X76000000Y-77000000D03*
X186000000Y-154000000D03*
X91000000Y-159000000D03*
X135000000Y-159000000D03*
X186000000Y-147000000D03*
X130000000Y-121000000D03*
X165000000Y-159000000D03*
X143000000Y-113000000D03*
X146000000Y-159000000D03*
X76000000Y-142000000D03*
X137000000Y-159000000D03*
X90000000Y-159000000D03*
X175000000Y-159000000D03*
X186000000Y-135000000D03*
X137000000Y-114000000D03*
X148000000Y-126500000D03*
X153000000Y-132000000D03*
X135000000Y-145000000D03*
X125000000Y-148000000D03*
X124000000Y-159000000D03*
X165000000Y-155000000D03*
X87000000Y-142000000D03*
X169000000Y-127000000D03*
X76000000Y-99000000D03*
X170000000Y-145000000D03*
X76000000Y-97000000D03*
X177000000Y-121000000D03*
X130000000Y-135000000D03*
X109000000Y-148000000D03*
X150000000Y-150000000D03*
X162000000Y-113000000D03*
X87000000Y-138000000D03*
X76000000Y-138000000D03*
X88000000Y-144000000D03*
X186000000Y-156000000D03*
X76000000Y-134000000D03*
X104000000Y-159000000D03*
X144000000Y-159000000D03*
X76000000Y-143000000D03*
X107000000Y-148000000D03*
X76000000Y-64000000D03*
X76000000Y-151000000D03*
X145000000Y-150000000D03*
X87000000Y-124000000D03*
X89000000Y-159000000D03*
X168000000Y-159000000D03*
X164000000Y-159000000D03*
X87000000Y-125000000D03*
X76000000Y-147000000D03*
X76000000Y-121000000D03*
X76000000Y-90000000D03*
X78000000Y-159000000D03*
X76000000Y-119000000D03*
X87000000Y-119000000D03*
X135000000Y-155000000D03*
X78000000Y-55000000D03*
X98000000Y-148000000D03*
X162000000Y-159000000D03*
X117000000Y-148000000D03*
X139000000Y-113000000D03*
X150000000Y-155000000D03*
X85000000Y-115000000D03*
X91000000Y-147000000D03*
X138000000Y-113000000D03*
X166000000Y-117000000D03*
X164000000Y-115000000D03*
X76000000Y-136000000D03*
X149000000Y-159000000D03*
X76000000Y-117000000D03*
X87000000Y-141000000D03*
X76000000Y-156000000D03*
X80000000Y-55000000D03*
X87000000Y-143000000D03*
X76000000Y-154000000D03*
X175000000Y-121000000D03*
X102000000Y-148000000D03*
X155000000Y-159000000D03*
X175000000Y-125000000D03*
X142000000Y-132000000D03*
X171000000Y-121000000D03*
X80000000Y-120000000D03*
X168500000Y-122500000D03*
X185000000Y-159000000D03*
X76000000Y-84000000D03*
X145000000Y-145000000D03*
X138000000Y-159000000D03*
X87000000Y-113000000D03*
X85000000Y-159000000D03*
X165000000Y-135000000D03*
X100000000Y-148000000D03*
X87000000Y-137000000D03*
X76000000Y-116000000D03*
X157000000Y-159000000D03*
X96000000Y-159000000D03*
X130000000Y-155000000D03*
X147000000Y-113000000D03*
X76000000Y-100000000D03*
X76000000Y-76000000D03*
X186000000Y-128000000D03*
X177000000Y-159000000D03*
X76000000Y-58000000D03*
X76000000Y-125000000D03*
X159000000Y-159000000D03*
X95000000Y-159000000D03*
X87000000Y-135000000D03*
X76000000Y-88000000D03*
X100000000Y-150000000D03*
X76000000Y-111000000D03*
X80000000Y-115000000D03*
X85000000Y-55000000D03*
X76000000Y-75000000D03*
X159000000Y-122500000D03*
X173000000Y-159000000D03*
X89000000Y-145000000D03*
X186000000Y-157000000D03*
X173000000Y-121000000D03*
X76000000Y-124000000D03*
X97000000Y-148000000D03*
X125000000Y-155000000D03*
X126000000Y-159000000D03*
X87000000Y-134000000D03*
X120000000Y-155000000D03*
X104000000Y-148000000D03*
X76000000Y-135000000D03*
X128000000Y-130000000D03*
X153000000Y-159000000D03*
X103000000Y-148000000D03*
X80000000Y-145000000D03*
X76000000Y-98000000D03*
X87000000Y-140000000D03*
X76000000Y-130000000D03*
X76000000Y-83000000D03*
X95000000Y-155000000D03*
X76000000Y-115000000D03*
X76000000Y-95000000D03*
X98000000Y-159000000D03*
X76000000Y-129000000D03*
X140000000Y-113000000D03*
X133000000Y-159000000D03*
X186000000Y-127000000D03*
X76000000Y-66000000D03*
X76000000Y-74000000D03*
X128000000Y-137000000D03*
X76000000Y-82000000D03*
X125000000Y-159000000D03*
X76000000Y-61000000D03*
X186000000Y-152000000D03*
X186000000Y-151000000D03*
X180000000Y-125000000D03*
X76000000Y-140000000D03*
X76000000Y-146000000D03*
X147000000Y-123000000D03*
X159000000Y-132000000D03*
X186000000Y-132000000D03*
X76000000Y-65000000D03*
X142000000Y-141000000D03*
X135000000Y-150000000D03*
X159000000Y-127000000D03*
X87000000Y-116000000D03*
X160000000Y-159000000D03*
X113000000Y-159000000D03*
X76000000Y-120000000D03*
X80000000Y-140000000D03*
X114516841Y-155027771D03*
X76000000Y-139000000D03*
X81000000Y-55000000D03*
X83000000Y-55000000D03*
X97000000Y-159000000D03*
X186000000Y-142000000D03*
X83000000Y-159000000D03*
X155000000Y-118500000D03*
X100000000Y-155000000D03*
X150000000Y-159000000D03*
X76000000Y-104000000D03*
X131000000Y-159000000D03*
X77000000Y-159000000D03*
X180000000Y-145000000D03*
X130000000Y-159000000D03*
X99000000Y-148000000D03*
X128000000Y-138000000D03*
X122000000Y-148000000D03*
X185000000Y-121000000D03*
X76000000Y-89000000D03*
X178000000Y-121000000D03*
X76000000Y-92000000D03*
X186000000Y-137000000D03*
X119000000Y-159000000D03*
X141000000Y-123000000D03*
X140000000Y-159000000D03*
X165000000Y-138000000D03*
X76000000Y-107000000D03*
X136000000Y-115000000D03*
X106000000Y-148000000D03*
X76000000Y-128000000D03*
X186000000Y-121000000D03*
X76000000Y-113000000D03*
X76000000Y-159000000D03*
X82000000Y-159000000D03*
X128000000Y-159000000D03*
X115000000Y-150000000D03*
X76000000Y-158000000D03*
X178000000Y-159000000D03*
X160000000Y-155000000D03*
X76000000Y-87000000D03*
X87000000Y-118000000D03*
X76000000Y-85000000D03*
X76000000Y-101000000D03*
X77000000Y-55000000D03*
X186000000Y-131000000D03*
X76000000Y-96000000D03*
X153000000Y-127000000D03*
X129000000Y-122000000D03*
X121000000Y-148000000D03*
X87000000Y-114000000D03*
X85000000Y-140000000D03*
X76000000Y-126000000D03*
X134000000Y-159000000D03*
X76000000Y-127000000D03*
X148036104Y-139993278D03*
X76000000Y-110000000D03*
X148000000Y-132000000D03*
X174000000Y-159000000D03*
X100000000Y-159000000D03*
X128000000Y-139000000D03*
X87000000Y-55000000D03*
X94000000Y-148000000D03*
X110000000Y-159000000D03*
X166000000Y-159000000D03*
X76000000Y-79000000D03*
X163000000Y-159000000D03*
X116000000Y-159000000D03*
X160000000Y-145000000D03*
X186000000Y-133000000D03*
X76000000Y-118000000D03*
X186000000Y-122000000D03*
X148000000Y-159000000D03*
X140000000Y-150000000D03*
X80000000Y-159000000D03*
X87000000Y-129000000D03*
X86000000Y-55000000D03*
X76000000Y-63000000D03*
X76000000Y-157000000D03*
X128000000Y-136000000D03*
X129000000Y-159000000D03*
X76000000Y-123000000D03*
X186000000Y-123000000D03*
X76000000Y-55000000D03*
X186000000Y-136000000D03*
X76000000Y-56000000D03*
X105000000Y-148000000D03*
X76000000Y-59000000D03*
X99000000Y-159000000D03*
X169000000Y-120000000D03*
X151000000Y-159000000D03*
X106000000Y-159000000D03*
X76000000Y-150000000D03*
X144000000Y-113000000D03*
X186000000Y-140000000D03*
X169000000Y-131000000D03*
X95000000Y-150000000D03*
X186000000Y-143000000D03*
X158000000Y-139000000D03*
X182000000Y-121000000D03*
X85000000Y-135000000D03*
X117000000Y-159000000D03*
X81000000Y-159000000D03*
X155000000Y-145000000D03*
X76000000Y-155000000D03*
X87000000Y-136000000D03*
X186000000Y-130000000D03*
X184000000Y-159000000D03*
X79000000Y-159000000D03*
X105000000Y-150000000D03*
X186000000Y-159000000D03*
X76000000Y-62000000D03*
X141000000Y-113000000D03*
X123000000Y-159000000D03*
X108000000Y-148000000D03*
X125014710Y-149946611D03*
X76000000Y-109000000D03*
X76000000Y-112000000D03*
X146000000Y-113000000D03*
X135000000Y-135000000D03*
X143000000Y-159000000D03*
X82000000Y-55000000D03*
X158000000Y-159000000D03*
X76000000Y-103000000D03*
X186000000Y-149000000D03*
X102000000Y-159000000D03*
X186000000Y-126000000D03*
X186000000Y-155000000D03*
X76000000Y-73000000D03*
X123000000Y-148000000D03*
X147000000Y-159000000D03*
X174000000Y-121000000D03*
X141000000Y-159000000D03*
X186000000Y-125000000D03*
X80000000Y-130000000D03*
X145000000Y-113000000D03*
X111000000Y-159000000D03*
X76000000Y-102000000D03*
X90000000Y-155000000D03*
X94000000Y-159000000D03*
X139000000Y-159000000D03*
X76000000Y-152000000D03*
X122000000Y-159000000D03*
X148000000Y-113000000D03*
X76000000Y-94000000D03*
X142000000Y-113000000D03*
X181000000Y-121000000D03*
X186000000Y-148000000D03*
X76000000Y-86000000D03*
X87000000Y-159000000D03*
X112000000Y-148000000D03*
X186000000Y-141000000D03*
X128000000Y-126000000D03*
X118000000Y-159000000D03*
X76000000Y-57000000D03*
X142000000Y-159000000D03*
X84000000Y-55000000D03*
X170000000Y-155000000D03*
X140000000Y-145000000D03*
X86000000Y-159000000D03*
X76000000Y-133000000D03*
X101000000Y-159000000D03*
X76000000Y-131000000D03*
X172000000Y-159000000D03*
X79000000Y-55000000D03*
X93000000Y-159000000D03*
X183000000Y-159000000D03*
X76000000Y-148000000D03*
X154000000Y-159000000D03*
X186000000Y-144000000D03*
X76000000Y-78000000D03*
X186000000Y-134000000D03*
X114000000Y-148000000D03*
X76000000Y-69000000D03*
X76000000Y-67000000D03*
X176000000Y-121000000D03*
X90000000Y-146000000D03*
X164000000Y-127000000D03*
X167000000Y-159000000D03*
X128000000Y-131000000D03*
X92000000Y-159000000D03*
X76000000Y-122000000D03*
X76000000Y-153000000D03*
X111000000Y-148000000D03*
X165000000Y-150000000D03*
X176000000Y-159000000D03*
X76000000Y-80000000D03*
X161000000Y-159000000D03*
X76000000Y-91000000D03*
X115000000Y-148000000D03*
X180000000Y-140000000D03*
X186000000Y-138000000D03*
X164000000Y-122500000D03*
X169000000Y-159000000D03*
X182000000Y-159000000D03*
X80000000Y-125000000D03*
X171000000Y-159000000D03*
X96000000Y-148000000D03*
X136000000Y-159000000D03*
X76000000Y-137000000D03*
X87000000Y-130000000D03*
X139995536Y-155057522D03*
X84000000Y-159000000D03*
X76000000Y-106000000D03*
X95000000Y-148000000D03*
X180000000Y-121000000D03*
X186000000Y-145000000D03*
X87000000Y-117000000D03*
X76000000Y-105000000D03*
X120000000Y-159000000D03*
X76000000Y-132000000D03*
X133000000Y-118000000D03*
X179000000Y-121000000D03*
X76000000Y-81000000D03*
X76000000Y-145000000D03*
X108000000Y-159000000D03*
X164000000Y-132000000D03*
X105000000Y-159000000D03*
X184000000Y-121000000D03*
X128000000Y-135000000D03*
X165000000Y-116000000D03*
X88000000Y-159000000D03*
X76000000Y-68000000D03*
X127000000Y-159000000D03*
X186000000Y-146000000D03*
X153000000Y-140000000D03*
X103000000Y-159000000D03*
X186000000Y-139000000D03*
X109000000Y-159000000D03*
X186000000Y-153000000D03*
X145000000Y-155000000D03*
X168000000Y-119000000D03*
X132000000Y-119000000D03*
X101000000Y-148000000D03*
X76000000Y-141000000D03*
X76000000Y-144000000D03*
X87000000Y-120000000D03*
X131000000Y-120000000D03*
X186000000Y-129000000D03*
X155000000Y-155000000D03*
X107000000Y-159000000D03*
X76000000Y-71000000D03*
X105000000Y-155000000D03*
X180000000Y-135000000D03*
X93000000Y-148000000D03*
X150000000Y-145000000D03*
X116000000Y-148000000D03*
X179000000Y-159000000D03*
X152000000Y-159000000D03*
X130000000Y-150000000D03*
X163000000Y-114000000D03*
X110000000Y-148000000D03*
X76000000Y-114000000D03*
X186000000Y-124000000D03*
X170000000Y-159000000D03*
X145000000Y-159000000D03*
X132000000Y-159000000D03*
X76000000Y-93000000D03*
X172000000Y-121000000D03*
X170000000Y-150000000D03*
X121000000Y-159000000D03*
X156000000Y-159000000D03*
X170000000Y-121000000D03*
X76000000Y-149000000D03*
X76000000Y-108000000D03*
X160000000Y-150000000D03*
X183000000Y-121000000D03*
X87000000Y-115000000D03*
X113000000Y-148000000D03*
X87000000Y-139000000D03*
X76000000Y-72000000D03*
X155000000Y-150000000D03*
X186000000Y-158000000D03*
X124000000Y-148000000D03*
X112000000Y-159000000D03*
D24*
%TO.N,+5V*%
X149000000Y-117000000D03*
X155500000Y-116500000D03*
X143500000Y-119500000D03*
%TO.N,ISO_GATE_DRIVE_+15V*%
X150725000Y-102179593D03*
D23*
X110000000Y-75000000D03*
D24*
X148000000Y-100000000D03*
D23*
X127500000Y-96000000D03*
D24*
X156562500Y-98500000D03*
D23*
%TO.N,IGBT_EMITTER*%
X177500000Y-110000000D03*
X98000000Y-108000000D03*
X131000000Y-98000000D03*
X98000000Y-110000000D03*
X112000000Y-83000000D03*
X108000000Y-132000000D03*
X105000000Y-132000000D03*
X98000000Y-129000000D03*
X116000000Y-132000000D03*
X122000000Y-115000000D03*
X98000000Y-101000000D03*
X168000000Y-80000000D03*
X122000000Y-129000000D03*
X98000000Y-100000000D03*
X122000000Y-119000000D03*
X102000000Y-132000000D03*
X98000000Y-88000000D03*
X98000000Y-116000000D03*
X131000000Y-91000000D03*
X98000000Y-125000000D03*
X122000000Y-109000000D03*
X98000000Y-113000000D03*
D24*
X159500000Y-97000000D03*
D23*
X142500000Y-100000000D03*
X109922147Y-81000000D03*
X122000000Y-104000000D03*
X98000000Y-81000000D03*
X103000000Y-81000000D03*
X101000000Y-81000000D03*
X122000000Y-121000000D03*
X165000000Y-92500000D03*
X100019787Y-80977259D03*
X98000000Y-106000000D03*
X122000000Y-102000000D03*
D24*
X159250000Y-102000000D03*
D23*
X104000000Y-132000000D03*
X103000000Y-132000000D03*
X98000000Y-119000000D03*
X134000000Y-92000000D03*
X118000000Y-132000000D03*
X172500000Y-75000000D03*
D24*
X148500000Y-102500000D03*
D23*
X98000000Y-127000000D03*
X98000000Y-92000000D03*
X174000000Y-86000000D03*
D24*
X155500000Y-90000000D03*
D23*
X109000000Y-132000000D03*
D24*
X156750000Y-105250000D03*
D23*
X121000000Y-92000000D03*
X132500000Y-100000000D03*
D25*
X171500000Y-105500000D03*
D23*
X98000000Y-124000000D03*
X98000000Y-98000000D03*
X122000000Y-124000000D03*
X175000000Y-80000000D03*
X98000000Y-109000000D03*
X111000000Y-132000000D03*
X98000000Y-126000000D03*
X98000000Y-114000000D03*
X98000000Y-121000000D03*
X122000000Y-108000000D03*
X98000000Y-82000000D03*
X136000000Y-79000000D03*
X119000000Y-132000000D03*
X98000000Y-122000000D03*
X98000000Y-111000000D03*
X122000000Y-130000000D03*
X147500000Y-75000000D03*
X98000000Y-97000000D03*
X122000000Y-122000000D03*
X98000000Y-131000000D03*
X142500000Y-85000000D03*
X122000000Y-101000000D03*
X122000000Y-116000000D03*
X110943149Y-81951043D03*
X98000000Y-95000000D03*
X98000000Y-96000000D03*
X120000000Y-132000000D03*
X140000000Y-95000000D03*
X163029068Y-89997334D03*
X98000000Y-87000000D03*
X98000000Y-123000000D03*
X98000000Y-91000000D03*
X98000000Y-117000000D03*
X106000000Y-132000000D03*
X185000000Y-102500000D03*
X122000000Y-100000000D03*
X122000000Y-93000000D03*
X105001507Y-80988818D03*
X98000000Y-90000000D03*
X98000000Y-118000000D03*
X160000000Y-90000000D03*
X98000000Y-85000000D03*
X122000000Y-98000000D03*
X182500000Y-95000000D03*
X122000000Y-105000000D03*
X113000000Y-132000000D03*
X157500000Y-75000000D03*
X98000000Y-89000000D03*
X170000000Y-85000000D03*
X145000000Y-80000000D03*
X122000000Y-111000000D03*
X98000000Y-93000000D03*
X122000000Y-127000000D03*
X122000000Y-99000000D03*
X98000000Y-107000000D03*
X98000000Y-112000000D03*
X122000000Y-118000000D03*
X122000000Y-126000000D03*
X122000000Y-125000000D03*
X148618719Y-90381281D03*
X122000000Y-131000000D03*
X122000000Y-120000000D03*
X145000000Y-105000000D03*
X185000000Y-110000000D03*
X122000000Y-103000000D03*
D24*
X149562500Y-94250000D03*
D23*
X98000000Y-99000000D03*
X122000000Y-113000000D03*
X122000000Y-128000000D03*
X98000000Y-105000000D03*
X117000000Y-132000000D03*
X98000000Y-102000000D03*
X107000000Y-132000000D03*
X122000000Y-117000000D03*
X98000000Y-120000000D03*
X114000000Y-132000000D03*
X122000000Y-114000000D03*
X185000000Y-80000000D03*
X112000000Y-132000000D03*
X122000000Y-112000000D03*
D25*
X176250000Y-103000000D03*
D23*
X122000000Y-106000000D03*
X102000000Y-81000000D03*
X122000000Y-107000000D03*
X101000000Y-132000000D03*
X152500000Y-75000000D03*
X147500000Y-87500000D03*
X98000000Y-132000000D03*
X99000000Y-81000000D03*
X113000000Y-84000000D03*
X98000000Y-86000000D03*
D24*
X155250000Y-99500000D03*
D23*
X162500000Y-85000000D03*
X98000000Y-94000000D03*
X98000000Y-130000000D03*
X98000000Y-104000000D03*
X167500000Y-75000000D03*
X98000000Y-115000000D03*
X98000000Y-103000000D03*
X104000000Y-81000000D03*
X142000000Y-90000000D03*
X100000000Y-132000000D03*
X157500000Y-90000000D03*
X99000000Y-132000000D03*
X121000000Y-132000000D03*
X122000000Y-110000000D03*
X110000000Y-132000000D03*
X131000000Y-106000000D03*
X115000000Y-132000000D03*
X122000000Y-123000000D03*
X122000000Y-132000000D03*
X98000000Y-84000000D03*
X98000000Y-83000000D03*
X98000000Y-128000000D03*
D24*
%TO.N,+12V*%
X119000000Y-143500000D03*
D23*
X158750000Y-148500000D03*
X84000000Y-107000000D03*
X84000000Y-79000000D03*
D24*
%TO.N,ISO_GATE_DRIVE_-9V*%
X164000000Y-99000000D03*
D23*
X127000000Y-94000000D03*
X153500000Y-92000000D03*
X162500000Y-92000000D03*
D24*
X162000000Y-103000000D03*
%TO.N,Net-(U1-VREG1)*%
X161000000Y-115500000D03*
%TO.N,Net-(U1-VREG2)*%
X160750000Y-105750000D03*
%TO.N,Net-(U1-VBST)*%
X152023479Y-104956655D03*
D25*
%TO.N,ANALOG_SENSE_1*%
X169250000Y-103500000D03*
D24*
X157500000Y-101500000D03*
%TO.N,IGBT_GATE*%
X154250000Y-105000000D03*
X154500000Y-100500000D03*
X154500000Y-81750000D03*
D25*
%TO.N,ANALOG_SENSE_2*%
X165000000Y-101750000D03*
D24*
X158000000Y-102250000D03*
%TO.N,Net-(U1-VREF)*%
X155250000Y-105500000D03*
%TO.N,Net-(D9-K)*%
X149500000Y-103750000D03*
X135875000Y-99125000D03*
%TO.N,SPI_CS*%
X178500000Y-138000000D03*
%TO.N,SPI_CLK*%
X176500000Y-139000000D03*
%TO.N,GATE_DRIVE+*%
X172000000Y-139750000D03*
%TO.N,SDI*%
X170000000Y-137500000D03*
X170000000Y-135000000D03*
%TO.N,GATE_DRIVE-*%
X177500000Y-140500000D03*
%TO.N,Net-(D13-A)*%
X127500000Y-82500000D03*
X144750000Y-98500000D03*
%TO.N,Net-(U1-nFLT1)*%
X153000000Y-117500000D03*
%TO.N,Net-(U1-nFLT2_DOUT)*%
X154500000Y-115750000D03*
%TO.N,Net-(U1-OUTH)*%
X152094669Y-101155331D03*
X150500000Y-89000000D03*
%TO.N,Net-(U1-OUTL)*%
X152875000Y-100875000D03*
X152500000Y-89000000D03*
%TD*%
D26*
%TO.N,+5V*%
X149500000Y-116500000D02*
X149000000Y-117000000D01*
X155500000Y-116500000D02*
X149500000Y-116500000D01*
D27*
%TO.N,IGBT_EMITTER*%
X160500000Y-99500000D02*
X161000000Y-99000000D01*
D26*
X161275000Y-101225000D02*
X161500000Y-101000000D01*
D27*
%TO.N,+12V*%
X161500000Y-148500000D02*
X158750000Y-148500000D01*
X172559610Y-137440390D02*
X171750000Y-138250000D01*
X172559610Y-136418500D02*
X172559610Y-137440390D01*
X171750000Y-138250000D02*
X161500000Y-148500000D01*
%TO.N,ISO_GATE_DRIVE_-9V*%
X124000000Y-95000000D02*
X121500000Y-95000000D01*
X125000000Y-94000000D02*
X124000000Y-95000000D01*
X121500000Y-95000000D02*
X121000000Y-94500000D01*
X127000000Y-94000000D02*
X125000000Y-94000000D01*
D26*
%TO.N,Net-(D13-A)*%
X139500000Y-90750000D02*
X140000000Y-90750000D01*
X140000000Y-90750000D02*
X142750000Y-93500000D01*
X135750000Y-90750000D02*
X139500000Y-90750000D01*
X144750000Y-95500000D02*
X144750000Y-98500000D01*
X142750000Y-93500000D02*
X144750000Y-95500000D01*
X127500000Y-82500000D02*
X135750000Y-90750000D01*
%TD*%
%TA.AperFunction,Conductor*%
%TO.N,IGBT_EMITTER*%
G36*
X186942539Y-73019685D02*
G01*
X186988294Y-73072489D01*
X186999500Y-73124000D01*
X186999500Y-112376000D01*
X186979815Y-112443039D01*
X186927011Y-112488794D01*
X186875500Y-112500000D01*
X175051362Y-112500000D01*
X174984323Y-112480315D01*
X174963681Y-112463681D01*
X169557135Y-107057135D01*
X178524500Y-107057135D01*
X178524500Y-109102870D01*
X178524501Y-109102876D01*
X178530908Y-109162483D01*
X178581202Y-109297328D01*
X178581206Y-109297335D01*
X178667452Y-109412544D01*
X178667455Y-109412547D01*
X178782664Y-109498793D01*
X178782671Y-109498797D01*
X178917517Y-109549091D01*
X178917516Y-109549091D01*
X178924444Y-109549835D01*
X178977127Y-109555500D01*
X181022872Y-109555499D01*
X181082483Y-109549091D01*
X181217331Y-109498796D01*
X181332546Y-109412546D01*
X181418796Y-109297331D01*
X181469091Y-109162483D01*
X181475500Y-109102873D01*
X181475499Y-107057128D01*
X181469091Y-106997517D01*
X181451832Y-106951244D01*
X181418797Y-106862671D01*
X181418793Y-106862664D01*
X181332547Y-106747455D01*
X181332544Y-106747452D01*
X181217335Y-106661206D01*
X181217328Y-106661202D01*
X181082482Y-106610908D01*
X181082483Y-106610908D01*
X181022883Y-106604501D01*
X181022881Y-106604500D01*
X181022873Y-106604500D01*
X181022864Y-106604500D01*
X178977129Y-106604500D01*
X178977123Y-106604501D01*
X178917516Y-106610908D01*
X178782671Y-106661202D01*
X178782664Y-106661206D01*
X178667455Y-106747452D01*
X178667452Y-106747455D01*
X178581206Y-106862664D01*
X178581202Y-106862671D01*
X178530908Y-106997517D01*
X178525399Y-107048761D01*
X178524501Y-107057123D01*
X178524500Y-107057135D01*
X169557135Y-107057135D01*
X168000000Y-105500000D01*
X161595755Y-105500000D01*
X161528716Y-105480315D01*
X161482961Y-105427511D01*
X161481219Y-105423513D01*
X161459394Y-105370821D01*
X161459391Y-105370816D01*
X161459390Y-105370814D01*
X161371789Y-105239711D01*
X161371786Y-105239707D01*
X161260292Y-105128213D01*
X161260288Y-105128210D01*
X161129185Y-105040609D01*
X161129172Y-105040602D01*
X160983501Y-104980264D01*
X160983489Y-104980261D01*
X160828845Y-104949500D01*
X160828842Y-104949500D01*
X160671158Y-104949500D01*
X160671155Y-104949500D01*
X160516510Y-104980261D01*
X160516498Y-104980264D01*
X160370827Y-105040602D01*
X160370814Y-105040609D01*
X160239711Y-105128210D01*
X160239707Y-105128213D01*
X160128213Y-105239707D01*
X160128210Y-105239711D01*
X160040609Y-105370814D01*
X160040606Y-105370820D01*
X160040606Y-105370821D01*
X160018804Y-105423455D01*
X159974966Y-105477855D01*
X159908672Y-105499921D01*
X159904245Y-105500000D01*
X156167947Y-105500000D01*
X156100908Y-105480315D01*
X156055153Y-105427511D01*
X156046330Y-105400191D01*
X156019738Y-105266510D01*
X156019737Y-105266503D01*
X156013208Y-105250741D01*
X155959397Y-105120827D01*
X155959390Y-105120814D01*
X155871789Y-104989711D01*
X155871786Y-104989707D01*
X155760292Y-104878213D01*
X155760288Y-104878210D01*
X155629185Y-104790609D01*
X155629172Y-104790602D01*
X155483501Y-104730264D01*
X155483489Y-104730261D01*
X155328845Y-104699500D01*
X155328842Y-104699500D01*
X155171158Y-104699500D01*
X155171153Y-104699500D01*
X155105431Y-104712573D01*
X155035839Y-104706346D01*
X154980662Y-104663482D01*
X154966679Y-104638409D01*
X154959392Y-104620817D01*
X154871789Y-104489711D01*
X154871786Y-104489707D01*
X154760292Y-104378213D01*
X154760288Y-104378210D01*
X154629185Y-104290609D01*
X154629172Y-104290602D01*
X154483501Y-104230264D01*
X154483489Y-104230261D01*
X154328845Y-104199500D01*
X154328842Y-104199500D01*
X154171158Y-104199500D01*
X154171155Y-104199500D01*
X154016510Y-104230261D01*
X154016498Y-104230264D01*
X153870827Y-104290602D01*
X153870814Y-104290609D01*
X153739711Y-104378210D01*
X153739707Y-104378213D01*
X153628213Y-104489707D01*
X153628210Y-104489711D01*
X153540609Y-104620814D01*
X153540602Y-104620827D01*
X153480264Y-104766498D01*
X153480261Y-104766510D01*
X153449500Y-104921153D01*
X153449500Y-105078846D01*
X153471639Y-105190144D01*
X153480263Y-105233497D01*
X153493934Y-105266503D01*
X153519634Y-105328547D01*
X153527103Y-105398017D01*
X153495828Y-105460496D01*
X153435739Y-105496148D01*
X153405073Y-105500000D01*
X152850452Y-105500000D01*
X152783413Y-105480315D01*
X152737658Y-105427511D01*
X152727714Y-105358353D01*
X152735891Y-105328547D01*
X152753513Y-105286004D01*
X152793216Y-105190152D01*
X152823979Y-105035497D01*
X152823979Y-104877813D01*
X152823979Y-104877810D01*
X152823978Y-104877808D01*
X152793216Y-104723158D01*
X152758112Y-104638409D01*
X152732876Y-104577482D01*
X152732869Y-104577469D01*
X152645268Y-104446366D01*
X152645265Y-104446362D01*
X152533771Y-104334868D01*
X152533767Y-104334865D01*
X152402664Y-104247264D01*
X152402651Y-104247257D01*
X152256980Y-104186919D01*
X152256968Y-104186916D01*
X152102324Y-104156155D01*
X152102321Y-104156155D01*
X151944637Y-104156155D01*
X151944634Y-104156155D01*
X151789989Y-104186916D01*
X151789977Y-104186919D01*
X151644306Y-104247257D01*
X151644293Y-104247264D01*
X151513190Y-104334865D01*
X151513186Y-104334868D01*
X151401692Y-104446362D01*
X151401689Y-104446366D01*
X151314088Y-104577469D01*
X151314081Y-104577482D01*
X151253743Y-104723153D01*
X151253740Y-104723165D01*
X151222979Y-104877808D01*
X151222979Y-105035501D01*
X151253740Y-105190144D01*
X151253742Y-105190152D01*
X151285367Y-105266503D01*
X151311067Y-105328547D01*
X151318536Y-105398017D01*
X151287261Y-105460496D01*
X151227172Y-105496148D01*
X151196506Y-105500000D01*
X139499999Y-105500000D01*
X135036319Y-109963681D01*
X134974996Y-109997166D01*
X134948638Y-110000000D01*
X130124000Y-110000000D01*
X130056961Y-109980315D01*
X130011206Y-109927511D01*
X130000000Y-109876000D01*
X130000000Y-103977724D01*
X133137000Y-103977724D01*
X133137000Y-104192275D01*
X133170560Y-104404170D01*
X133236859Y-104608215D01*
X133329795Y-104790609D01*
X133334258Y-104799368D01*
X133460362Y-104972935D01*
X133612065Y-105124638D01*
X133785632Y-105250742D01*
X133854837Y-105286004D01*
X133976784Y-105348140D01*
X133976786Y-105348140D01*
X133976789Y-105348142D01*
X134046588Y-105370821D01*
X134180829Y-105414439D01*
X134392725Y-105448000D01*
X134392730Y-105448000D01*
X134607275Y-105448000D01*
X134819170Y-105414439D01*
X134834226Y-105409547D01*
X135023211Y-105348142D01*
X135214368Y-105250742D01*
X135387935Y-105124638D01*
X135539638Y-104972935D01*
X135665742Y-104799368D01*
X135763142Y-104608211D01*
X135829439Y-104404170D01*
X135833550Y-104378213D01*
X135863000Y-104192275D01*
X135863000Y-103977724D01*
X135829439Y-103765829D01*
X135814193Y-103718907D01*
X135798677Y-103671153D01*
X148699500Y-103671153D01*
X148699500Y-103828846D01*
X148730261Y-103983489D01*
X148730264Y-103983501D01*
X148790602Y-104129172D01*
X148790609Y-104129185D01*
X148878210Y-104260288D01*
X148878213Y-104260292D01*
X148989707Y-104371786D01*
X148989711Y-104371789D01*
X149120814Y-104459390D01*
X149120827Y-104459397D01*
X149194013Y-104489711D01*
X149266503Y-104519737D01*
X149421153Y-104550499D01*
X149421156Y-104550500D01*
X149421158Y-104550500D01*
X149578844Y-104550500D01*
X149578845Y-104550499D01*
X149733497Y-104519737D01*
X149879179Y-104459394D01*
X150010289Y-104371789D01*
X150121789Y-104260289D01*
X150209394Y-104129179D01*
X150269737Y-103983497D01*
X150300500Y-103828842D01*
X150300500Y-103671158D01*
X150300500Y-103671155D01*
X150300499Y-103671153D01*
X150281158Y-103573920D01*
X150269737Y-103516503D01*
X150232284Y-103426082D01*
X150209397Y-103370827D01*
X150209390Y-103370814D01*
X150121789Y-103239711D01*
X150121786Y-103239707D01*
X150010292Y-103128213D01*
X150010288Y-103128210D01*
X149879185Y-103040609D01*
X149879172Y-103040602D01*
X149733501Y-102980264D01*
X149733489Y-102980261D01*
X149578845Y-102949500D01*
X149578842Y-102949500D01*
X149421158Y-102949500D01*
X149421155Y-102949500D01*
X149266510Y-102980261D01*
X149266498Y-102980264D01*
X149120827Y-103040602D01*
X149120814Y-103040609D01*
X148989711Y-103128210D01*
X148989707Y-103128213D01*
X148878213Y-103239707D01*
X148878210Y-103239711D01*
X148790609Y-103370814D01*
X148790602Y-103370827D01*
X148730264Y-103516498D01*
X148730261Y-103516510D01*
X148699500Y-103671153D01*
X135798677Y-103671153D01*
X135763142Y-103561789D01*
X135665742Y-103370632D01*
X135539638Y-103197065D01*
X135387935Y-103045362D01*
X135214368Y-102919258D01*
X135210031Y-102917048D01*
X135023215Y-102821859D01*
X134819170Y-102755560D01*
X134607275Y-102722000D01*
X134607270Y-102722000D01*
X134392730Y-102722000D01*
X134392725Y-102722000D01*
X134180829Y-102755560D01*
X133976784Y-102821859D01*
X133785631Y-102919258D01*
X133686605Y-102991205D01*
X133612065Y-103045362D01*
X133612063Y-103045364D01*
X133612062Y-103045364D01*
X133460364Y-103197062D01*
X133460364Y-103197063D01*
X133460362Y-103197065D01*
X133433893Y-103233497D01*
X133334258Y-103370631D01*
X133236859Y-103561784D01*
X133170560Y-103765829D01*
X133137000Y-103977724D01*
X130000000Y-103977724D01*
X130000000Y-102100746D01*
X149924500Y-102100746D01*
X149924500Y-102258439D01*
X149955261Y-102413082D01*
X149955264Y-102413094D01*
X150015602Y-102558765D01*
X150015609Y-102558778D01*
X150103210Y-102689881D01*
X150103213Y-102689885D01*
X150214707Y-102801379D01*
X150214711Y-102801382D01*
X150345814Y-102888983D01*
X150345827Y-102888990D01*
X150423489Y-102921158D01*
X150491503Y-102949330D01*
X150576661Y-102966269D01*
X150646153Y-102980092D01*
X150646156Y-102980093D01*
X150646158Y-102980093D01*
X150803844Y-102980093D01*
X150803845Y-102980092D01*
X150958497Y-102949330D01*
X151104179Y-102888987D01*
X151235289Y-102801382D01*
X151346789Y-102689882D01*
X151434394Y-102558772D01*
X151494737Y-102413090D01*
X151525500Y-102258435D01*
X151525500Y-102100751D01*
X151525500Y-102100748D01*
X151500636Y-101975752D01*
X151506863Y-101906160D01*
X151549726Y-101850983D01*
X151615615Y-101827738D01*
X151683612Y-101843806D01*
X151691144Y-101848458D01*
X151715483Y-101864721D01*
X151715496Y-101864728D01*
X151861167Y-101925066D01*
X151861172Y-101925068D01*
X152015822Y-101955830D01*
X152015825Y-101955831D01*
X152015827Y-101955831D01*
X152173513Y-101955831D01*
X152173514Y-101955830D01*
X152328166Y-101925068D01*
X152473848Y-101864725D01*
X152604958Y-101777120D01*
X152674575Y-101707502D01*
X152735896Y-101674019D01*
X152786450Y-101673569D01*
X152796158Y-101675500D01*
X152953844Y-101675500D01*
X152953845Y-101675499D01*
X153108497Y-101644737D01*
X153254179Y-101584394D01*
X153385289Y-101496789D01*
X153460925Y-101421153D01*
X156699500Y-101421153D01*
X156699500Y-101578846D01*
X156730261Y-101733489D01*
X156730264Y-101733501D01*
X156790602Y-101879172D01*
X156790609Y-101879185D01*
X156878210Y-102010288D01*
X156878213Y-102010292D01*
X156989710Y-102121789D01*
X157120815Y-102209390D01*
X157120821Y-102209394D01*
X157122945Y-102210274D01*
X157123885Y-102211031D01*
X157126192Y-102212264D01*
X157125958Y-102212701D01*
X157177349Y-102254107D01*
X157199421Y-102320399D01*
X157199500Y-102324837D01*
X157199500Y-102328846D01*
X157230261Y-102483489D01*
X157230264Y-102483501D01*
X157290602Y-102629172D01*
X157290609Y-102629185D01*
X157378210Y-102760288D01*
X157378213Y-102760292D01*
X157489707Y-102871786D01*
X157489711Y-102871789D01*
X157620814Y-102959390D01*
X157620827Y-102959397D01*
X157720060Y-103000500D01*
X157766503Y-103019737D01*
X157895328Y-103045362D01*
X157921153Y-103050499D01*
X157921156Y-103050500D01*
X157921158Y-103050500D01*
X158078844Y-103050500D01*
X158078845Y-103050499D01*
X158233497Y-103019737D01*
X158379179Y-102959394D01*
X158436411Y-102921153D01*
X161199500Y-102921153D01*
X161199500Y-103078846D01*
X161230261Y-103233489D01*
X161230264Y-103233501D01*
X161290602Y-103379172D01*
X161290609Y-103379185D01*
X161378210Y-103510288D01*
X161378213Y-103510292D01*
X161489707Y-103621786D01*
X161489711Y-103621789D01*
X161620814Y-103709390D01*
X161620827Y-103709397D01*
X161766498Y-103769735D01*
X161766503Y-103769737D01*
X161921153Y-103800499D01*
X161921156Y-103800500D01*
X161921158Y-103800500D01*
X162078844Y-103800500D01*
X162078845Y-103800499D01*
X162233497Y-103769737D01*
X162379179Y-103709394D01*
X162510289Y-103621789D01*
X162621789Y-103510289D01*
X162709394Y-103379179D01*
X162712854Y-103370827D01*
X162723067Y-103346166D01*
X162769737Y-103233497D01*
X162800500Y-103078842D01*
X162800500Y-102921158D01*
X162800500Y-102921155D01*
X162800499Y-102921153D01*
X162795973Y-102898398D01*
X162769737Y-102766503D01*
X162762635Y-102749356D01*
X162709397Y-102620827D01*
X162709390Y-102620814D01*
X162621789Y-102489711D01*
X162621786Y-102489707D01*
X162510292Y-102378213D01*
X162510288Y-102378210D01*
X162379185Y-102290609D01*
X162379172Y-102290602D01*
X162233501Y-102230264D01*
X162233489Y-102230261D01*
X162078845Y-102199500D01*
X162078842Y-102199500D01*
X161921158Y-102199500D01*
X161921155Y-102199500D01*
X161766510Y-102230261D01*
X161766498Y-102230264D01*
X161620827Y-102290602D01*
X161620814Y-102290609D01*
X161489711Y-102378210D01*
X161489707Y-102378213D01*
X161378213Y-102489707D01*
X161378210Y-102489711D01*
X161290609Y-102620814D01*
X161290602Y-102620827D01*
X161230264Y-102766498D01*
X161230261Y-102766510D01*
X161199500Y-102921153D01*
X158436411Y-102921153D01*
X158510289Y-102871789D01*
X158510292Y-102871786D01*
X158554694Y-102827385D01*
X158621786Y-102760292D01*
X158621789Y-102760289D01*
X158709394Y-102629179D01*
X158712854Y-102620827D01*
X158759888Y-102507274D01*
X158769737Y-102483497D01*
X158800500Y-102328842D01*
X158800500Y-102171158D01*
X158800500Y-102171155D01*
X158800499Y-102171153D01*
X158769738Y-102016510D01*
X158769737Y-102016503D01*
X158752858Y-101975752D01*
X158709397Y-101870827D01*
X158709390Y-101870814D01*
X158678056Y-101823920D01*
X164249499Y-101823920D01*
X164278340Y-101968907D01*
X164278343Y-101968917D01*
X164334912Y-102105488D01*
X164334919Y-102105501D01*
X164417048Y-102228415D01*
X164417051Y-102228419D01*
X164521580Y-102332948D01*
X164521584Y-102332951D01*
X164644498Y-102415080D01*
X164644511Y-102415087D01*
X164781082Y-102471656D01*
X164781087Y-102471658D01*
X164781091Y-102471658D01*
X164781092Y-102471659D01*
X164926079Y-102500500D01*
X164926082Y-102500500D01*
X165073920Y-102500500D01*
X165171462Y-102481096D01*
X165218913Y-102471658D01*
X165355495Y-102415084D01*
X165478416Y-102332951D01*
X165582951Y-102228416D01*
X165665084Y-102105495D01*
X165721658Y-101968913D01*
X165738014Y-101886690D01*
X165750500Y-101823920D01*
X165750500Y-101676079D01*
X165721659Y-101531092D01*
X165721658Y-101531091D01*
X165721658Y-101531087D01*
X165712102Y-101508016D01*
X165665087Y-101394511D01*
X165665080Y-101394498D01*
X165582951Y-101271584D01*
X165582948Y-101271580D01*
X165478419Y-101167051D01*
X165478415Y-101167048D01*
X165355501Y-101084919D01*
X165355488Y-101084912D01*
X165218917Y-101028343D01*
X165218907Y-101028340D01*
X165073920Y-100999500D01*
X165073918Y-100999500D01*
X164926082Y-100999500D01*
X164926080Y-100999500D01*
X164781092Y-101028340D01*
X164781082Y-101028343D01*
X164644511Y-101084912D01*
X164644498Y-101084919D01*
X164521584Y-101167048D01*
X164521580Y-101167051D01*
X164417051Y-101271580D01*
X164417048Y-101271584D01*
X164334919Y-101394498D01*
X164334912Y-101394511D01*
X164278343Y-101531082D01*
X164278340Y-101531092D01*
X164249500Y-101676079D01*
X164249500Y-101676082D01*
X164249500Y-101823918D01*
X164249500Y-101823920D01*
X164249499Y-101823920D01*
X158678056Y-101823920D01*
X158621790Y-101739712D01*
X158621786Y-101739707D01*
X158510292Y-101628213D01*
X158510288Y-101628210D01*
X158379185Y-101540609D01*
X158379169Y-101540601D01*
X158377038Y-101539718D01*
X158376094Y-101538957D01*
X158373809Y-101537736D01*
X158374040Y-101537302D01*
X158322638Y-101495873D01*
X158300579Y-101429577D01*
X158300500Y-101425161D01*
X158300500Y-101421155D01*
X158300499Y-101421153D01*
X158298251Y-101409854D01*
X158269737Y-101266503D01*
X158213660Y-101131120D01*
X158209397Y-101120827D01*
X158209390Y-101120814D01*
X158121789Y-100989711D01*
X158121786Y-100989707D01*
X158010292Y-100878213D01*
X158010288Y-100878210D01*
X157996313Y-100868872D01*
X166249500Y-100868872D01*
X166249500Y-101131127D01*
X166270872Y-101293450D01*
X166283730Y-101391116D01*
X166347259Y-101628210D01*
X166351602Y-101644418D01*
X166351605Y-101644428D01*
X166451953Y-101886690D01*
X166451958Y-101886700D01*
X166583075Y-102113803D01*
X166742718Y-102321851D01*
X166742726Y-102321860D01*
X166928140Y-102507274D01*
X166928148Y-102507281D01*
X167136196Y-102666924D01*
X167363299Y-102798041D01*
X167363309Y-102798046D01*
X167582868Y-102888990D01*
X167605581Y-102898398D01*
X167858884Y-102966270D01*
X168118880Y-103000500D01*
X168118887Y-103000500D01*
X168381113Y-103000500D01*
X168381120Y-103000500D01*
X168446823Y-102991849D01*
X168515855Y-103002614D01*
X168568112Y-103048993D01*
X168586998Y-103116261D01*
X168577569Y-103162239D01*
X168528342Y-103281087D01*
X168528340Y-103281092D01*
X168499500Y-103426079D01*
X168499500Y-103426082D01*
X168499500Y-103573918D01*
X168499500Y-103573920D01*
X168499499Y-103573920D01*
X168528340Y-103718907D01*
X168528343Y-103718917D01*
X168584912Y-103855488D01*
X168584919Y-103855501D01*
X168667048Y-103978415D01*
X168667051Y-103978419D01*
X168771580Y-104082948D01*
X168771584Y-104082951D01*
X168894498Y-104165080D01*
X168894511Y-104165087D01*
X169031082Y-104221656D01*
X169031087Y-104221658D01*
X169031091Y-104221658D01*
X169031092Y-104221659D01*
X169176079Y-104250500D01*
X169176082Y-104250500D01*
X169323920Y-104250500D01*
X169425664Y-104230261D01*
X169468913Y-104221658D01*
X169605495Y-104165084D01*
X169728416Y-104082951D01*
X169832951Y-103978416D01*
X169915084Y-103855495D01*
X169971658Y-103718913D01*
X170000500Y-103573918D01*
X170000500Y-103426082D01*
X170000500Y-103426079D01*
X169971659Y-103281092D01*
X169971658Y-103281091D01*
X169971658Y-103281087D01*
X169951946Y-103233497D01*
X169915087Y-103144511D01*
X169915080Y-103144498D01*
X169832951Y-103021584D01*
X169832948Y-103021580D01*
X169728419Y-102917051D01*
X169728415Y-102917048D01*
X169605501Y-102834919D01*
X169605492Y-102834914D01*
X169504777Y-102793197D01*
X169450374Y-102749356D01*
X169428309Y-102683062D01*
X169445588Y-102615362D01*
X169476738Y-102580264D01*
X169571851Y-102507282D01*
X169664053Y-102415080D01*
X169757274Y-102321860D01*
X169757277Y-102321855D01*
X169757282Y-102321851D01*
X169916924Y-102113803D01*
X170048043Y-101886697D01*
X170148398Y-101644419D01*
X170216270Y-101391116D01*
X170250500Y-101131120D01*
X170250500Y-100868880D01*
X170216270Y-100608884D01*
X170148398Y-100355581D01*
X170105995Y-100253211D01*
X170048046Y-100113309D01*
X170048041Y-100113299D01*
X169916924Y-99886196D01*
X169757281Y-99678148D01*
X169757274Y-99678140D01*
X169571860Y-99492726D01*
X169571851Y-99492718D01*
X169363803Y-99333075D01*
X169136700Y-99201958D01*
X169136690Y-99201953D01*
X168894428Y-99101605D01*
X168894421Y-99101603D01*
X168894419Y-99101602D01*
X168641116Y-99033730D01*
X168583339Y-99026123D01*
X168381127Y-98999500D01*
X168381120Y-98999500D01*
X168118880Y-98999500D01*
X168118872Y-98999500D01*
X167887772Y-99029926D01*
X167858884Y-99033730D01*
X167690508Y-99078846D01*
X167605581Y-99101602D01*
X167605571Y-99101605D01*
X167363309Y-99201953D01*
X167363299Y-99201958D01*
X167136196Y-99333075D01*
X166928148Y-99492718D01*
X166742718Y-99678148D01*
X166583075Y-99886196D01*
X166451958Y-100113299D01*
X166451953Y-100113309D01*
X166351605Y-100355571D01*
X166351602Y-100355581D01*
X166327391Y-100445940D01*
X166283730Y-100608885D01*
X166249500Y-100868872D01*
X157996313Y-100868872D01*
X157879185Y-100790609D01*
X157879172Y-100790602D01*
X157733501Y-100730264D01*
X157733489Y-100730261D01*
X157578845Y-100699500D01*
X157578842Y-100699500D01*
X157421158Y-100699500D01*
X157421155Y-100699500D01*
X157266510Y-100730261D01*
X157266498Y-100730264D01*
X157120827Y-100790602D01*
X157120814Y-100790609D01*
X156989711Y-100878210D01*
X156989707Y-100878213D01*
X156878213Y-100989707D01*
X156878210Y-100989711D01*
X156790609Y-101120814D01*
X156790602Y-101120827D01*
X156730264Y-101266498D01*
X156730261Y-101266510D01*
X156699500Y-101421153D01*
X153460925Y-101421153D01*
X153496789Y-101385289D01*
X153584394Y-101254179D01*
X153644737Y-101108497D01*
X153654947Y-101057164D01*
X153687331Y-100995257D01*
X153748046Y-100960682D01*
X153817816Y-100964421D01*
X153874488Y-101005286D01*
X153877262Y-101009134D01*
X153878213Y-101010292D01*
X153989707Y-101121786D01*
X153989711Y-101121789D01*
X154120814Y-101209390D01*
X154120827Y-101209397D01*
X154258683Y-101266498D01*
X154266503Y-101269737D01*
X154421153Y-101300499D01*
X154421156Y-101300500D01*
X154421158Y-101300500D01*
X154578844Y-101300500D01*
X154578845Y-101300499D01*
X154589179Y-101298443D01*
X154614287Y-101293450D01*
X154614292Y-101293449D01*
X154699800Y-101276439D01*
X154733497Y-101269737D01*
X154879179Y-101209394D01*
X155010289Y-101121789D01*
X155121789Y-101010289D01*
X155209394Y-100879179D01*
X155213658Y-100868886D01*
X155243782Y-100796158D01*
X155269737Y-100733497D01*
X155300500Y-100578842D01*
X155300500Y-100421158D01*
X155300500Y-100421155D01*
X155300499Y-100421153D01*
X155292148Y-100379172D01*
X155269737Y-100266503D01*
X155227946Y-100165609D01*
X155209397Y-100120827D01*
X155209390Y-100120814D01*
X155121789Y-99989711D01*
X155121786Y-99989707D01*
X155010292Y-99878213D01*
X155010288Y-99878210D01*
X154879185Y-99790609D01*
X154879172Y-99790602D01*
X154733501Y-99730264D01*
X154733489Y-99730261D01*
X154578845Y-99699500D01*
X154578842Y-99699500D01*
X154421158Y-99699500D01*
X154421155Y-99699500D01*
X154266510Y-99730261D01*
X154266498Y-99730264D01*
X154120827Y-99790602D01*
X154120814Y-99790609D01*
X153989711Y-99878210D01*
X153989707Y-99878213D01*
X153878213Y-99989707D01*
X153878210Y-99989711D01*
X153790609Y-100120814D01*
X153790602Y-100120827D01*
X153730264Y-100266498D01*
X153730261Y-100266508D01*
X153720052Y-100317833D01*
X153687667Y-100379744D01*
X153626951Y-100414318D01*
X153557181Y-100410577D01*
X153500509Y-100369711D01*
X153497736Y-100365864D01*
X153496786Y-100364707D01*
X153385292Y-100253213D01*
X153385288Y-100253210D01*
X153254185Y-100165609D01*
X153254172Y-100165602D01*
X153108501Y-100105264D01*
X153108489Y-100105261D01*
X152953845Y-100074500D01*
X152953842Y-100074500D01*
X152796158Y-100074500D01*
X152796155Y-100074500D01*
X152641510Y-100105261D01*
X152641498Y-100105264D01*
X152495827Y-100165602D01*
X152495814Y-100165609D01*
X152364711Y-100253210D01*
X152295094Y-100322827D01*
X152233770Y-100356311D01*
X152183223Y-100356762D01*
X152173511Y-100354831D01*
X152015827Y-100354831D01*
X152015824Y-100354831D01*
X151861179Y-100385592D01*
X151861167Y-100385595D01*
X151715496Y-100445933D01*
X151715483Y-100445940D01*
X151584380Y-100533541D01*
X151584376Y-100533544D01*
X151472882Y-100645038D01*
X151472879Y-100645042D01*
X151385278Y-100776145D01*
X151385271Y-100776158D01*
X151324933Y-100921829D01*
X151324930Y-100921841D01*
X151294169Y-101076484D01*
X151294169Y-101234177D01*
X151319032Y-101359172D01*
X151312805Y-101428764D01*
X151269942Y-101483941D01*
X151204052Y-101507185D01*
X151136055Y-101491117D01*
X151128525Y-101486465D01*
X151104190Y-101470205D01*
X151104172Y-101470195D01*
X150958501Y-101409857D01*
X150958489Y-101409854D01*
X150803845Y-101379093D01*
X150803842Y-101379093D01*
X150646158Y-101379093D01*
X150646155Y-101379093D01*
X150491510Y-101409854D01*
X150491498Y-101409857D01*
X150345827Y-101470195D01*
X150345814Y-101470202D01*
X150214711Y-101557803D01*
X150214707Y-101557806D01*
X150103213Y-101669300D01*
X150103210Y-101669304D01*
X150015609Y-101800407D01*
X150015602Y-101800420D01*
X149955264Y-101946091D01*
X149955261Y-101946103D01*
X149924500Y-102100746D01*
X130000000Y-102100746D01*
X130000000Y-99046153D01*
X135074500Y-99046153D01*
X135074500Y-99203846D01*
X135105261Y-99358489D01*
X135105264Y-99358501D01*
X135165602Y-99504172D01*
X135165609Y-99504185D01*
X135253210Y-99635288D01*
X135253213Y-99635292D01*
X135364707Y-99746786D01*
X135364711Y-99746789D01*
X135495814Y-99834390D01*
X135495827Y-99834397D01*
X135601603Y-99878210D01*
X135641503Y-99894737D01*
X135796153Y-99925499D01*
X135796156Y-99925500D01*
X135796158Y-99925500D01*
X135953844Y-99925500D01*
X135953845Y-99925499D01*
X135975694Y-99921153D01*
X147199500Y-99921153D01*
X147199500Y-100078846D01*
X147230261Y-100233489D01*
X147230264Y-100233501D01*
X147290602Y-100379172D01*
X147290609Y-100379185D01*
X147378210Y-100510288D01*
X147378213Y-100510292D01*
X147489707Y-100621786D01*
X147489711Y-100621789D01*
X147620814Y-100709390D01*
X147620827Y-100709397D01*
X147766498Y-100769735D01*
X147766503Y-100769737D01*
X147921153Y-100800499D01*
X147921156Y-100800500D01*
X147921158Y-100800500D01*
X148078844Y-100800500D01*
X148078845Y-100800499D01*
X148233497Y-100769737D01*
X148379179Y-100709394D01*
X148510289Y-100621789D01*
X148621789Y-100510289D01*
X148709394Y-100379179D01*
X148715389Y-100364707D01*
X148734804Y-100317833D01*
X148769737Y-100233497D01*
X148800500Y-100078842D01*
X148800500Y-99921158D01*
X148800500Y-99921155D01*
X148800499Y-99921153D01*
X148795245Y-99894738D01*
X148769737Y-99766503D01*
X148761570Y-99746786D01*
X148709397Y-99620827D01*
X148709390Y-99620814D01*
X148621789Y-99489711D01*
X148621786Y-99489707D01*
X148510292Y-99378213D01*
X148510288Y-99378210D01*
X148379185Y-99290609D01*
X148379172Y-99290602D01*
X148233501Y-99230264D01*
X148233489Y-99230261D01*
X148078845Y-99199500D01*
X148078842Y-99199500D01*
X147921158Y-99199500D01*
X147921155Y-99199500D01*
X147766510Y-99230261D01*
X147766498Y-99230264D01*
X147620827Y-99290602D01*
X147620814Y-99290609D01*
X147489711Y-99378210D01*
X147489707Y-99378213D01*
X147378213Y-99489707D01*
X147378210Y-99489711D01*
X147290609Y-99620814D01*
X147290602Y-99620827D01*
X147230264Y-99766498D01*
X147230261Y-99766510D01*
X147199500Y-99921153D01*
X135975694Y-99921153D01*
X136108497Y-99894737D01*
X136254179Y-99834394D01*
X136254185Y-99834390D01*
X136287749Y-99811964D01*
X136355792Y-99766498D01*
X136385289Y-99746789D01*
X136496789Y-99635289D01*
X136584394Y-99504179D01*
X136590389Y-99489707D01*
X136636571Y-99378211D01*
X136644737Y-99358497D01*
X136675500Y-99203842D01*
X136675500Y-99046158D01*
X136675500Y-99046155D01*
X136675499Y-99046153D01*
X136666219Y-98999500D01*
X136644737Y-98891503D01*
X136592959Y-98766498D01*
X136584397Y-98745827D01*
X136584390Y-98745814D01*
X136496789Y-98614711D01*
X136496786Y-98614707D01*
X136385292Y-98503213D01*
X136385288Y-98503210D01*
X136254185Y-98415609D01*
X136254172Y-98415602D01*
X136108501Y-98355264D01*
X136108489Y-98355261D01*
X135953845Y-98324500D01*
X135953842Y-98324500D01*
X135796158Y-98324500D01*
X135796155Y-98324500D01*
X135641510Y-98355261D01*
X135641498Y-98355264D01*
X135495827Y-98415602D01*
X135495814Y-98415609D01*
X135364711Y-98503210D01*
X135364707Y-98503213D01*
X135253213Y-98614707D01*
X135253210Y-98614711D01*
X135165609Y-98745814D01*
X135165602Y-98745827D01*
X135105264Y-98891498D01*
X135105261Y-98891510D01*
X135074500Y-99046153D01*
X130000000Y-99046153D01*
X130000000Y-86254663D01*
X130019685Y-86187624D01*
X130072489Y-86141869D01*
X130141647Y-86131925D01*
X130205203Y-86160950D01*
X130211681Y-86166982D01*
X135319390Y-91274692D01*
X135319394Y-91274695D01*
X135430024Y-91348616D01*
X135430028Y-91348618D01*
X135430031Y-91348620D01*
X135552964Y-91399541D01*
X135683464Y-91425499D01*
X135683468Y-91425500D01*
X135683469Y-91425500D01*
X135816531Y-91425500D01*
X139433469Y-91425500D01*
X139668837Y-91425500D01*
X139735876Y-91445185D01*
X139756518Y-91461819D01*
X144038181Y-95743482D01*
X144071666Y-95804805D01*
X144074500Y-95831163D01*
X144074500Y-98032479D01*
X144054815Y-98099518D01*
X144053602Y-98101370D01*
X144040609Y-98120814D01*
X144040602Y-98120827D01*
X143980264Y-98266498D01*
X143980261Y-98266510D01*
X143949500Y-98421153D01*
X143949500Y-98578846D01*
X143980261Y-98733489D01*
X143980264Y-98733501D01*
X144040602Y-98879172D01*
X144040609Y-98879185D01*
X144128210Y-99010288D01*
X144128213Y-99010292D01*
X144239707Y-99121786D01*
X144239711Y-99121789D01*
X144370814Y-99209390D01*
X144370827Y-99209397D01*
X144516498Y-99269735D01*
X144516503Y-99269737D01*
X144671153Y-99300499D01*
X144671156Y-99300500D01*
X144671158Y-99300500D01*
X144828844Y-99300500D01*
X144828845Y-99300499D01*
X144983497Y-99269737D01*
X145129179Y-99209394D01*
X145260289Y-99121789D01*
X145371789Y-99010289D01*
X145459394Y-98879179D01*
X145519737Y-98733497D01*
X145550500Y-98578842D01*
X145550500Y-98421158D01*
X145550500Y-98421155D01*
X145550499Y-98421153D01*
X155762000Y-98421153D01*
X155762000Y-98578846D01*
X155792761Y-98733489D01*
X155792764Y-98733501D01*
X155853102Y-98879172D01*
X155853109Y-98879185D01*
X155940710Y-99010288D01*
X155940713Y-99010292D01*
X156052207Y-99121786D01*
X156052211Y-99121789D01*
X156183314Y-99209390D01*
X156183327Y-99209397D01*
X156328998Y-99269735D01*
X156329003Y-99269737D01*
X156483653Y-99300499D01*
X156483656Y-99300500D01*
X156483658Y-99300500D01*
X156641344Y-99300500D01*
X156641345Y-99300499D01*
X156795997Y-99269737D01*
X156941679Y-99209394D01*
X157072789Y-99121789D01*
X157184289Y-99010289D01*
X157243848Y-98921153D01*
X163199500Y-98921153D01*
X163199500Y-99078846D01*
X163230261Y-99233489D01*
X163230264Y-99233501D01*
X163290602Y-99379172D01*
X163290609Y-99379185D01*
X163378210Y-99510288D01*
X163378213Y-99510292D01*
X163489707Y-99621786D01*
X163489711Y-99621789D01*
X163620814Y-99709390D01*
X163620827Y-99709397D01*
X163711101Y-99746789D01*
X163766503Y-99769737D01*
X163921153Y-99800499D01*
X163921156Y-99800500D01*
X163921158Y-99800500D01*
X164078844Y-99800500D01*
X164078845Y-99800499D01*
X164233497Y-99769737D01*
X164379179Y-99709394D01*
X164510289Y-99621789D01*
X164621789Y-99510289D01*
X164709394Y-99379179D01*
X164769737Y-99233497D01*
X164800500Y-99078842D01*
X164800500Y-98921158D01*
X164800500Y-98921155D01*
X164800499Y-98921153D01*
X164792557Y-98881226D01*
X164769737Y-98766503D01*
X164761170Y-98745821D01*
X164709397Y-98620827D01*
X164709390Y-98620814D01*
X164621789Y-98489711D01*
X164621786Y-98489707D01*
X164510292Y-98378213D01*
X164510288Y-98378210D01*
X164379185Y-98290609D01*
X164379172Y-98290602D01*
X164233501Y-98230264D01*
X164233489Y-98230261D01*
X164078845Y-98199500D01*
X164078842Y-98199500D01*
X163921158Y-98199500D01*
X163921155Y-98199500D01*
X163766510Y-98230261D01*
X163766498Y-98230264D01*
X163620827Y-98290602D01*
X163620814Y-98290609D01*
X163489711Y-98378210D01*
X163489707Y-98378213D01*
X163378213Y-98489707D01*
X163378210Y-98489711D01*
X163290609Y-98620814D01*
X163290602Y-98620827D01*
X163230264Y-98766498D01*
X163230261Y-98766510D01*
X163199500Y-98921153D01*
X157243848Y-98921153D01*
X157271894Y-98879179D01*
X157332237Y-98733497D01*
X157363000Y-98578842D01*
X157363000Y-98421158D01*
X157363000Y-98421155D01*
X157362999Y-98421153D01*
X157349893Y-98355264D01*
X157332237Y-98266503D01*
X157331827Y-98265514D01*
X157271897Y-98120827D01*
X157271890Y-98120814D01*
X157184289Y-97989711D01*
X157184286Y-97989707D01*
X157072792Y-97878213D01*
X157072788Y-97878210D01*
X156961531Y-97803870D01*
X178524500Y-97803870D01*
X178524500Y-98036129D01*
X178560831Y-98265514D01*
X178632601Y-98486400D01*
X178701093Y-98620821D01*
X178738039Y-98693331D01*
X178874551Y-98881224D01*
X179038776Y-99045449D01*
X179226669Y-99181961D01*
X179280515Y-99209397D01*
X179433599Y-99287398D01*
X179433601Y-99287398D01*
X179433604Y-99287400D01*
X179654486Y-99359169D01*
X179772668Y-99377886D01*
X179883871Y-99395500D01*
X179883876Y-99395500D01*
X180116129Y-99395500D01*
X180225272Y-99378213D01*
X180345514Y-99359169D01*
X180566396Y-99287400D01*
X180773331Y-99181961D01*
X180961224Y-99045449D01*
X181125449Y-98881224D01*
X181261961Y-98693331D01*
X181367400Y-98486396D01*
X181439169Y-98265514D01*
X181462087Y-98120814D01*
X181475500Y-98036129D01*
X181475500Y-97803870D01*
X181456232Y-97682222D01*
X181439169Y-97574486D01*
X181367400Y-97353604D01*
X181367398Y-97353601D01*
X181367398Y-97353599D01*
X181261960Y-97146668D01*
X181127828Y-96962051D01*
X181125449Y-96958776D01*
X180961224Y-96794551D01*
X180773331Y-96658039D01*
X180733575Y-96637782D01*
X180566400Y-96552601D01*
X180345514Y-96480831D01*
X180116129Y-96444500D01*
X180116124Y-96444500D01*
X179883876Y-96444500D01*
X179883871Y-96444500D01*
X179654485Y-96480831D01*
X179433599Y-96552601D01*
X179226668Y-96658039D01*
X179038773Y-96794553D01*
X178874553Y-96958773D01*
X178738039Y-97146668D01*
X178632601Y-97353599D01*
X178560831Y-97574485D01*
X178524500Y-97803870D01*
X156961531Y-97803870D01*
X156941685Y-97790609D01*
X156941672Y-97790602D01*
X156796001Y-97730264D01*
X156795989Y-97730261D01*
X156641345Y-97699500D01*
X156641342Y-97699500D01*
X156483658Y-97699500D01*
X156483655Y-97699500D01*
X156329010Y-97730261D01*
X156328998Y-97730264D01*
X156183327Y-97790602D01*
X156183314Y-97790609D01*
X156052211Y-97878210D01*
X156052207Y-97878213D01*
X155940713Y-97989707D01*
X155940710Y-97989711D01*
X155853109Y-98120814D01*
X155853102Y-98120827D01*
X155792764Y-98266498D01*
X155792761Y-98266510D01*
X155762000Y-98421153D01*
X145550499Y-98421153D01*
X145537393Y-98355264D01*
X145519737Y-98266503D01*
X145519327Y-98265514D01*
X145459397Y-98120827D01*
X145459390Y-98120814D01*
X145446398Y-98101370D01*
X145425520Y-98034692D01*
X145425500Y-98032479D01*
X145425500Y-95433466D01*
X145399541Y-95302969D01*
X145399540Y-95302968D01*
X145399540Y-95302964D01*
X145348620Y-95180031D01*
X145304077Y-95113368D01*
X145274698Y-95069398D01*
X145274697Y-95069397D01*
X145274695Y-95069394D01*
X145180606Y-94975305D01*
X143180606Y-92975305D01*
X142303844Y-92098543D01*
X152499499Y-92098543D01*
X152537947Y-92291829D01*
X152537950Y-92291839D01*
X152613364Y-92473907D01*
X152613371Y-92473920D01*
X152722860Y-92637781D01*
X152722863Y-92637785D01*
X152862214Y-92777136D01*
X152862218Y-92777139D01*
X153026079Y-92886628D01*
X153026092Y-92886635D01*
X153208160Y-92962049D01*
X153208165Y-92962051D01*
X153208169Y-92962051D01*
X153208170Y-92962052D01*
X153401456Y-93000500D01*
X153401459Y-93000500D01*
X153598543Y-93000500D01*
X153728582Y-92974632D01*
X153791835Y-92962051D01*
X153973914Y-92886632D01*
X154137782Y-92777139D01*
X154277139Y-92637782D01*
X154386632Y-92473914D01*
X154462051Y-92291835D01*
X154500500Y-92098543D01*
X161499499Y-92098543D01*
X161537947Y-92291829D01*
X161537950Y-92291839D01*
X161613364Y-92473907D01*
X161613371Y-92473920D01*
X161722860Y-92637781D01*
X161722863Y-92637785D01*
X161862214Y-92777136D01*
X161862218Y-92777139D01*
X162026079Y-92886628D01*
X162026092Y-92886635D01*
X162208160Y-92962049D01*
X162208165Y-92962051D01*
X162208169Y-92962051D01*
X162208170Y-92962052D01*
X162401456Y-93000500D01*
X162401459Y-93000500D01*
X162598543Y-93000500D01*
X162728582Y-92974632D01*
X162791835Y-92962051D01*
X162973914Y-92886632D01*
X163137782Y-92777139D01*
X163277139Y-92637782D01*
X163386632Y-92473914D01*
X163462051Y-92291835D01*
X163500500Y-92098541D01*
X163500500Y-91901459D01*
X163500500Y-91901456D01*
X163462052Y-91708170D01*
X163462051Y-91708169D01*
X163462051Y-91708165D01*
X163462049Y-91708160D01*
X163386635Y-91526092D01*
X163386628Y-91526079D01*
X163277139Y-91362218D01*
X163277136Y-91362214D01*
X163137785Y-91222863D01*
X163137781Y-91222860D01*
X162973920Y-91113371D01*
X162973907Y-91113364D01*
X162791839Y-91037950D01*
X162791829Y-91037947D01*
X162598543Y-90999500D01*
X162598541Y-90999500D01*
X162401459Y-90999500D01*
X162401457Y-90999500D01*
X162208170Y-91037947D01*
X162208160Y-91037950D01*
X162026092Y-91113364D01*
X162026079Y-91113371D01*
X161862218Y-91222860D01*
X161862214Y-91222863D01*
X161722863Y-91362214D01*
X161722860Y-91362218D01*
X161613371Y-91526079D01*
X161613364Y-91526092D01*
X161537950Y-91708160D01*
X161537947Y-91708170D01*
X161499500Y-91901456D01*
X161499500Y-91901459D01*
X161499500Y-92098541D01*
X161499500Y-92098543D01*
X161499499Y-92098543D01*
X154500500Y-92098543D01*
X154500500Y-92098541D01*
X154500500Y-91901459D01*
X154500500Y-91901456D01*
X154462052Y-91708170D01*
X154462051Y-91708169D01*
X154462051Y-91708165D01*
X154462049Y-91708160D01*
X154386635Y-91526092D01*
X154386628Y-91526079D01*
X154277139Y-91362218D01*
X154277136Y-91362214D01*
X154137785Y-91222863D01*
X154137781Y-91222860D01*
X153973920Y-91113371D01*
X153973907Y-91113364D01*
X153791839Y-91037950D01*
X153791829Y-91037947D01*
X153598543Y-90999500D01*
X153598541Y-90999500D01*
X153401459Y-90999500D01*
X153401457Y-90999500D01*
X153208170Y-91037947D01*
X153208160Y-91037950D01*
X153026092Y-91113364D01*
X153026079Y-91113371D01*
X152862218Y-91222860D01*
X152862214Y-91222863D01*
X152722863Y-91362214D01*
X152722860Y-91362218D01*
X152613371Y-91526079D01*
X152613364Y-91526092D01*
X152537950Y-91708160D01*
X152537947Y-91708170D01*
X152499500Y-91901456D01*
X152499500Y-91901459D01*
X152499500Y-92098541D01*
X152499500Y-92098543D01*
X152499499Y-92098543D01*
X142303844Y-92098543D01*
X141553917Y-91348616D01*
X140907804Y-90702502D01*
X140824174Y-90618872D01*
X164999500Y-90618872D01*
X164999500Y-90881127D01*
X165021383Y-91047335D01*
X165033730Y-91141116D01*
X165089331Y-91348621D01*
X165101602Y-91394418D01*
X165101605Y-91394428D01*
X165201953Y-91636690D01*
X165201958Y-91636700D01*
X165333075Y-91863803D01*
X165492718Y-92071851D01*
X165492726Y-92071860D01*
X165678140Y-92257274D01*
X165678148Y-92257281D01*
X165886196Y-92416924D01*
X166113299Y-92548041D01*
X166113309Y-92548046D01*
X166329959Y-92637785D01*
X166355581Y-92648398D01*
X166608884Y-92716270D01*
X166868880Y-92750500D01*
X166868887Y-92750500D01*
X167131113Y-92750500D01*
X167131120Y-92750500D01*
X167391116Y-92716270D01*
X167644419Y-92648398D01*
X167886697Y-92548043D01*
X168113803Y-92416924D01*
X168321851Y-92257282D01*
X168321855Y-92257277D01*
X168321860Y-92257274D01*
X168507274Y-92071860D01*
X168507277Y-92071855D01*
X168507282Y-92071851D01*
X168666924Y-91863803D01*
X168798043Y-91636697D01*
X168898398Y-91394419D01*
X168966270Y-91141116D01*
X169000500Y-90881120D01*
X169000500Y-90618880D01*
X168966270Y-90358884D01*
X168898398Y-90105581D01*
X168898394Y-90105571D01*
X168798046Y-89863309D01*
X168798041Y-89863299D01*
X168666924Y-89636196D01*
X168507281Y-89428148D01*
X168507274Y-89428140D01*
X168321860Y-89242726D01*
X168321851Y-89242718D01*
X168113803Y-89083075D01*
X167886700Y-88951958D01*
X167886690Y-88951954D01*
X167805604Y-88918367D01*
X167644428Y-88851605D01*
X167644421Y-88851603D01*
X167644419Y-88851602D01*
X167478465Y-88807135D01*
X178524500Y-88807135D01*
X178524500Y-90852870D01*
X178524501Y-90852876D01*
X178530908Y-90912483D01*
X178581202Y-91047328D01*
X178581206Y-91047335D01*
X178667452Y-91162544D01*
X178667455Y-91162547D01*
X178782664Y-91248793D01*
X178782671Y-91248797D01*
X178917517Y-91299091D01*
X178917516Y-91299091D01*
X178924444Y-91299835D01*
X178977127Y-91305500D01*
X181022872Y-91305499D01*
X181082483Y-91299091D01*
X181217331Y-91248796D01*
X181332546Y-91162546D01*
X181418796Y-91047331D01*
X181469091Y-90912483D01*
X181475500Y-90852873D01*
X181475499Y-88807128D01*
X181469091Y-88747517D01*
X181421836Y-88620821D01*
X181418797Y-88612671D01*
X181418793Y-88612664D01*
X181332547Y-88497455D01*
X181332544Y-88497452D01*
X181217335Y-88411206D01*
X181217328Y-88411202D01*
X181082482Y-88360908D01*
X181082483Y-88360908D01*
X181022883Y-88354501D01*
X181022881Y-88354500D01*
X181022873Y-88354500D01*
X181022864Y-88354500D01*
X178977129Y-88354500D01*
X178977123Y-88354501D01*
X178917516Y-88360908D01*
X178782671Y-88411202D01*
X178782664Y-88411206D01*
X178667455Y-88497452D01*
X178667452Y-88497455D01*
X178581206Y-88612664D01*
X178581202Y-88612671D01*
X178530908Y-88747517D01*
X178524501Y-88807116D01*
X178524501Y-88807123D01*
X178524500Y-88807135D01*
X167478465Y-88807135D01*
X167391116Y-88783730D01*
X167333339Y-88776123D01*
X167131127Y-88749500D01*
X167131120Y-88749500D01*
X166868880Y-88749500D01*
X166868872Y-88749500D01*
X166637772Y-88779926D01*
X166608884Y-88783730D01*
X166355581Y-88851602D01*
X166355571Y-88851605D01*
X166113309Y-88951953D01*
X166113299Y-88951958D01*
X165886196Y-89083075D01*
X165678148Y-89242718D01*
X165492718Y-89428148D01*
X165333075Y-89636196D01*
X165201958Y-89863299D01*
X165201953Y-89863309D01*
X165101605Y-90105571D01*
X165101602Y-90105581D01*
X165069523Y-90225304D01*
X165033730Y-90358885D01*
X164999500Y-90618872D01*
X140824174Y-90618872D01*
X140430609Y-90225307D01*
X140430605Y-90225304D01*
X140319975Y-90151383D01*
X140319965Y-90151378D01*
X140197036Y-90100459D01*
X140197028Y-90100457D01*
X140066535Y-90074500D01*
X140066531Y-90074500D01*
X139566531Y-90074500D01*
X136081163Y-90074500D01*
X136014124Y-90054815D01*
X135993482Y-90038181D01*
X134876454Y-88921153D01*
X149699500Y-88921153D01*
X149699500Y-89078846D01*
X149730261Y-89233489D01*
X149730264Y-89233501D01*
X149790602Y-89379172D01*
X149790609Y-89379185D01*
X149878210Y-89510288D01*
X149878213Y-89510292D01*
X149989707Y-89621786D01*
X149989711Y-89621789D01*
X150120814Y-89709390D01*
X150120827Y-89709397D01*
X150266498Y-89769735D01*
X150266503Y-89769737D01*
X150421153Y-89800499D01*
X150421156Y-89800500D01*
X150421158Y-89800500D01*
X150578844Y-89800500D01*
X150578845Y-89800499D01*
X150733497Y-89769737D01*
X150879179Y-89709394D01*
X151010289Y-89621789D01*
X151121789Y-89510289D01*
X151209394Y-89379179D01*
X151269737Y-89233497D01*
X151300500Y-89078842D01*
X151300500Y-88921158D01*
X151300500Y-88921155D01*
X151300499Y-88921153D01*
X151699500Y-88921153D01*
X151699500Y-89078846D01*
X151730261Y-89233489D01*
X151730264Y-89233501D01*
X151790602Y-89379172D01*
X151790609Y-89379185D01*
X151878210Y-89510288D01*
X151878213Y-89510292D01*
X151989707Y-89621786D01*
X151989711Y-89621789D01*
X152120814Y-89709390D01*
X152120827Y-89709397D01*
X152266498Y-89769735D01*
X152266503Y-89769737D01*
X152421153Y-89800499D01*
X152421156Y-89800500D01*
X152421158Y-89800500D01*
X152578844Y-89800500D01*
X152578845Y-89800499D01*
X152733497Y-89769737D01*
X152879179Y-89709394D01*
X153010289Y-89621789D01*
X153121789Y-89510289D01*
X153209394Y-89379179D01*
X153269737Y-89233497D01*
X153300500Y-89078842D01*
X153300500Y-88921158D01*
X153300500Y-88921155D01*
X153300499Y-88921153D01*
X153277818Y-88807128D01*
X153269737Y-88766503D01*
X153261873Y-88747517D01*
X153209397Y-88620827D01*
X153209390Y-88620814D01*
X153121789Y-88489711D01*
X153121786Y-88489707D01*
X153010292Y-88378213D01*
X153010288Y-88378210D01*
X152879185Y-88290609D01*
X152879172Y-88290602D01*
X152733501Y-88230264D01*
X152733489Y-88230261D01*
X152578845Y-88199500D01*
X152578842Y-88199500D01*
X152421158Y-88199500D01*
X152421155Y-88199500D01*
X152266510Y-88230261D01*
X152266498Y-88230264D01*
X152120827Y-88290602D01*
X152120814Y-88290609D01*
X151989711Y-88378210D01*
X151989707Y-88378213D01*
X151878213Y-88489707D01*
X151878210Y-88489711D01*
X151790609Y-88620814D01*
X151790602Y-88620827D01*
X151730264Y-88766498D01*
X151730261Y-88766510D01*
X151699500Y-88921153D01*
X151300499Y-88921153D01*
X151277818Y-88807128D01*
X151269737Y-88766503D01*
X151261873Y-88747517D01*
X151209397Y-88620827D01*
X151209390Y-88620814D01*
X151121789Y-88489711D01*
X151121786Y-88489707D01*
X151010292Y-88378213D01*
X151010288Y-88378210D01*
X150879185Y-88290609D01*
X150879172Y-88290602D01*
X150733501Y-88230264D01*
X150733489Y-88230261D01*
X150578845Y-88199500D01*
X150578842Y-88199500D01*
X150421158Y-88199500D01*
X150421155Y-88199500D01*
X150266510Y-88230261D01*
X150266498Y-88230264D01*
X150120827Y-88290602D01*
X150120814Y-88290609D01*
X149989711Y-88378210D01*
X149989707Y-88378213D01*
X149878213Y-88489707D01*
X149878210Y-88489711D01*
X149790609Y-88620814D01*
X149790602Y-88620827D01*
X149730264Y-88766498D01*
X149730261Y-88766510D01*
X149699500Y-88921153D01*
X134876454Y-88921153D01*
X130036319Y-84081018D01*
X130002834Y-84019695D01*
X130000000Y-83993337D01*
X130000000Y-82868872D01*
X131999500Y-82868872D01*
X131999500Y-83131127D01*
X132026123Y-83333339D01*
X132033730Y-83391116D01*
X132101602Y-83644418D01*
X132101605Y-83644428D01*
X132201953Y-83886690D01*
X132201958Y-83886700D01*
X132333075Y-84113803D01*
X132492718Y-84321851D01*
X132492726Y-84321860D01*
X132678140Y-84507274D01*
X132678148Y-84507281D01*
X132886196Y-84666924D01*
X133113299Y-84798041D01*
X133113309Y-84798046D01*
X133355571Y-84898394D01*
X133355581Y-84898398D01*
X133608884Y-84966270D01*
X133868880Y-85000500D01*
X133868887Y-85000500D01*
X134131113Y-85000500D01*
X134131120Y-85000500D01*
X134391116Y-84966270D01*
X134644419Y-84898398D01*
X134886697Y-84798043D01*
X135113803Y-84666924D01*
X135321851Y-84507282D01*
X135321855Y-84507277D01*
X135321860Y-84507274D01*
X135507274Y-84321860D01*
X135507277Y-84321855D01*
X135507282Y-84321851D01*
X135666924Y-84113803D01*
X135798043Y-83886697D01*
X135898398Y-83644419D01*
X135966270Y-83391116D01*
X136000500Y-83131120D01*
X136000500Y-82868880D01*
X135966270Y-82608884D01*
X135898398Y-82355581D01*
X135884427Y-82321851D01*
X135798046Y-82113309D01*
X135798041Y-82113299D01*
X135666927Y-81886201D01*
X135639501Y-81850459D01*
X135507282Y-81678149D01*
X135507281Y-81678148D01*
X135507274Y-81678140D01*
X135500287Y-81671153D01*
X153699500Y-81671153D01*
X153699500Y-81828846D01*
X153730261Y-81983489D01*
X153730264Y-81983501D01*
X153790602Y-82129172D01*
X153790609Y-82129185D01*
X153878210Y-82260288D01*
X153878213Y-82260292D01*
X153989707Y-82371786D01*
X153989711Y-82371789D01*
X154120814Y-82459390D01*
X154120827Y-82459397D01*
X154266498Y-82519735D01*
X154266503Y-82519737D01*
X154421153Y-82550499D01*
X154421156Y-82550500D01*
X154421158Y-82550500D01*
X154578844Y-82550500D01*
X154578845Y-82550499D01*
X154733497Y-82519737D01*
X154879179Y-82459394D01*
X155010289Y-82371789D01*
X155121789Y-82260289D01*
X155209394Y-82129179D01*
X155269737Y-81983497D01*
X155300500Y-81828842D01*
X155300500Y-81671158D01*
X155300500Y-81671155D01*
X155300499Y-81671153D01*
X155269738Y-81516510D01*
X155269737Y-81516503D01*
X155259885Y-81492718D01*
X155209397Y-81370827D01*
X155209390Y-81370814D01*
X155121789Y-81239711D01*
X155121786Y-81239707D01*
X155010292Y-81128213D01*
X155010288Y-81128210D01*
X154879185Y-81040609D01*
X154879172Y-81040602D01*
X154733502Y-80980265D01*
X154733501Y-80980264D01*
X154733497Y-80980263D01*
X154733492Y-80980262D01*
X154733489Y-80980261D01*
X154578845Y-80949500D01*
X154578842Y-80949500D01*
X154421158Y-80949500D01*
X154421155Y-80949500D01*
X154266510Y-80980261D01*
X154266498Y-80980264D01*
X154120827Y-81040602D01*
X154120814Y-81040609D01*
X153989711Y-81128210D01*
X153989707Y-81128213D01*
X153878213Y-81239707D01*
X153878210Y-81239711D01*
X153790609Y-81370814D01*
X153790602Y-81370827D01*
X153730264Y-81516498D01*
X153730261Y-81516510D01*
X153699500Y-81671153D01*
X135500287Y-81671153D01*
X135321860Y-81492726D01*
X135321851Y-81492718D01*
X135113803Y-81333075D01*
X134886700Y-81201958D01*
X134886690Y-81201953D01*
X134644428Y-81101605D01*
X134644421Y-81101603D01*
X134644419Y-81101602D01*
X134391116Y-81033730D01*
X134333339Y-81026123D01*
X134131127Y-80999500D01*
X134131120Y-80999500D01*
X133868880Y-80999500D01*
X133868872Y-80999500D01*
X133637772Y-81029926D01*
X133608884Y-81033730D01*
X133355581Y-81101602D01*
X133355571Y-81101605D01*
X133113309Y-81201953D01*
X133113299Y-81201958D01*
X132886196Y-81333075D01*
X132678148Y-81492718D01*
X132492718Y-81678148D01*
X132333075Y-81886196D01*
X132201958Y-82113299D01*
X132201953Y-82113309D01*
X132101605Y-82355571D01*
X132101602Y-82355581D01*
X132045079Y-82566531D01*
X132033730Y-82608885D01*
X131999500Y-82868872D01*
X130000000Y-82868872D01*
X130000000Y-82551362D01*
X130019685Y-82484323D01*
X130036319Y-82463681D01*
X131631128Y-80868872D01*
X158999500Y-80868872D01*
X158999500Y-81131127D01*
X159026089Y-81333075D01*
X159033730Y-81391116D01*
X159067329Y-81516510D01*
X159101602Y-81644418D01*
X159101605Y-81644428D01*
X159201953Y-81886690D01*
X159201958Y-81886700D01*
X159333075Y-82113803D01*
X159492718Y-82321851D01*
X159492726Y-82321860D01*
X159678140Y-82507274D01*
X159678148Y-82507281D01*
X159886196Y-82666924D01*
X160113299Y-82798041D01*
X160113309Y-82798046D01*
X160355571Y-82898394D01*
X160355581Y-82898398D01*
X160608884Y-82966270D01*
X160868880Y-83000500D01*
X160868887Y-83000500D01*
X161131113Y-83000500D01*
X161131120Y-83000500D01*
X161391116Y-82966270D01*
X161644419Y-82898398D01*
X161886697Y-82798043D01*
X162113803Y-82666924D01*
X162321851Y-82507282D01*
X162321855Y-82507277D01*
X162321860Y-82507274D01*
X162507274Y-82321860D01*
X162507277Y-82321855D01*
X162507282Y-82321851D01*
X162666924Y-82113803D01*
X162798043Y-81886697D01*
X162798249Y-81886201D01*
X162858579Y-81740550D01*
X162898398Y-81644419D01*
X162966270Y-81391116D01*
X163000500Y-81131120D01*
X163000500Y-80868880D01*
X162966270Y-80608884D01*
X162898398Y-80355581D01*
X162849030Y-80236396D01*
X162798046Y-80113309D01*
X162798041Y-80113299D01*
X162666924Y-79886196D01*
X162507281Y-79678148D01*
X162507274Y-79678140D01*
X162383004Y-79553870D01*
X178524500Y-79553870D01*
X178524500Y-79786129D01*
X178560831Y-80015514D01*
X178632601Y-80236400D01*
X178693328Y-80355581D01*
X178738039Y-80443331D01*
X178874551Y-80631224D01*
X179038776Y-80795449D01*
X179226669Y-80931961D01*
X179321463Y-80980261D01*
X179433599Y-81037398D01*
X179433601Y-81037398D01*
X179433604Y-81037400D01*
X179654486Y-81109169D01*
X179772668Y-81127886D01*
X179883871Y-81145500D01*
X179883876Y-81145500D01*
X180116129Y-81145500D01*
X180225272Y-81128213D01*
X180345514Y-81109169D01*
X180566396Y-81037400D01*
X180773331Y-80931961D01*
X180961224Y-80795449D01*
X181125449Y-80631224D01*
X181261961Y-80443331D01*
X181367400Y-80236396D01*
X181439169Y-80015514D01*
X181459651Y-79886196D01*
X181475500Y-79786129D01*
X181475500Y-79553870D01*
X181454082Y-79418644D01*
X181439169Y-79324486D01*
X181367400Y-79103604D01*
X181367398Y-79103601D01*
X181367398Y-79103599D01*
X181279070Y-78930247D01*
X181261961Y-78896669D01*
X181125449Y-78708776D01*
X180961224Y-78544551D01*
X180773331Y-78408039D01*
X180566400Y-78302601D01*
X180345514Y-78230831D01*
X180116129Y-78194500D01*
X180116124Y-78194500D01*
X179883876Y-78194500D01*
X179883871Y-78194500D01*
X179654485Y-78230831D01*
X179433599Y-78302601D01*
X179226668Y-78408039D01*
X179038773Y-78544553D01*
X178874553Y-78708773D01*
X178738039Y-78896668D01*
X178632601Y-79103599D01*
X178560831Y-79324485D01*
X178524500Y-79553870D01*
X162383004Y-79553870D01*
X162321860Y-79492726D01*
X162321851Y-79492718D01*
X162113803Y-79333075D01*
X161886700Y-79201958D01*
X161886690Y-79201953D01*
X161644428Y-79101605D01*
X161644421Y-79101603D01*
X161644419Y-79101602D01*
X161391116Y-79033730D01*
X161333339Y-79026123D01*
X161131127Y-78999500D01*
X161131120Y-78999500D01*
X160868880Y-78999500D01*
X160868872Y-78999500D01*
X160637772Y-79029926D01*
X160608884Y-79033730D01*
X160355581Y-79101602D01*
X160355571Y-79101605D01*
X160113309Y-79201953D01*
X160113299Y-79201958D01*
X159886196Y-79333075D01*
X159678148Y-79492718D01*
X159492718Y-79678148D01*
X159333075Y-79886196D01*
X159201958Y-80113299D01*
X159201953Y-80113309D01*
X159101605Y-80355571D01*
X159101602Y-80355581D01*
X159033730Y-80608885D01*
X158999500Y-80868872D01*
X131631128Y-80868872D01*
X139463681Y-73036319D01*
X139525004Y-73002834D01*
X139551362Y-73000000D01*
X186875500Y-73000000D01*
X186942539Y-73019685D01*
G37*
%TD.AperFunction*%
%TD*%
%TA.AperFunction,Conductor*%
%TO.N,ISO_GATE_DRIVE_-9V*%
G36*
X108617645Y-80019685D02*
G01*
X108663400Y-80072489D01*
X108673344Y-80141647D01*
X108650923Y-80196887D01*
X108638804Y-80213565D01*
X108531580Y-80424003D01*
X108458593Y-80648631D01*
X108421647Y-80881902D01*
X108421647Y-81118097D01*
X108458593Y-81351368D01*
X108531580Y-81575996D01*
X108603251Y-81716657D01*
X108638804Y-81786433D01*
X108777630Y-81977510D01*
X108944637Y-82144517D01*
X109135714Y-82283343D01*
X109346155Y-82390568D01*
X109467284Y-82429925D01*
X109524957Y-82469361D01*
X109546894Y-82509533D01*
X109552582Y-82527038D01*
X109594564Y-82609432D01*
X109659806Y-82737476D01*
X109798632Y-82928553D01*
X109965639Y-83095560D01*
X110156716Y-83234386D01*
X110259931Y-83286976D01*
X110367156Y-83341611D01*
X110367159Y-83341612D01*
X110492795Y-83382433D01*
X110550470Y-83421870D01*
X110572408Y-83462045D01*
X110609433Y-83575996D01*
X110646446Y-83648637D01*
X110716657Y-83786433D01*
X110855483Y-83977510D01*
X111022490Y-84144517D01*
X111213567Y-84283343D01*
X111316782Y-84335933D01*
X111424007Y-84390568D01*
X111424013Y-84390570D01*
X111503868Y-84416516D01*
X111561544Y-84455953D01*
X111583482Y-84496129D01*
X111609430Y-84575989D01*
X111609432Y-84575992D01*
X111716657Y-84786433D01*
X111855483Y-84977510D01*
X112022490Y-85144517D01*
X112213567Y-85283343D01*
X112312991Y-85334002D01*
X112424003Y-85390566D01*
X112424005Y-85390566D01*
X112424008Y-85390568D01*
X112544412Y-85429689D01*
X112648631Y-85463553D01*
X112881903Y-85500500D01*
X112881908Y-85500500D01*
X113118097Y-85500500D01*
X113351368Y-85463553D01*
X113357129Y-85461681D01*
X113575992Y-85390568D01*
X113786433Y-85283343D01*
X113977510Y-85144517D01*
X114144517Y-84977510D01*
X114283343Y-84786433D01*
X114375673Y-84605224D01*
X114423648Y-84554429D01*
X114491469Y-84537634D01*
X114557603Y-84560171D01*
X114573839Y-84573839D01*
X120426160Y-90426160D01*
X120459645Y-90487483D01*
X120454661Y-90557175D01*
X120412789Y-90613108D01*
X120394775Y-90624325D01*
X120213568Y-90716655D01*
X120079896Y-90813774D01*
X120022490Y-90855483D01*
X120022488Y-90855485D01*
X120022487Y-90855485D01*
X119855485Y-91022487D01*
X119855485Y-91022488D01*
X119855483Y-91022490D01*
X119795862Y-91104550D01*
X119716657Y-91213566D01*
X119609433Y-91424003D01*
X119536446Y-91648631D01*
X119499500Y-91881902D01*
X119499500Y-92118097D01*
X119536446Y-92351368D01*
X119609433Y-92575996D01*
X119646446Y-92648637D01*
X119716657Y-92786433D01*
X119855483Y-92977510D01*
X120022490Y-93144517D01*
X120213567Y-93283343D01*
X120316782Y-93335933D01*
X120424007Y-93390568D01*
X120424013Y-93390570D01*
X120503868Y-93416516D01*
X120561544Y-93455953D01*
X120583482Y-93496129D01*
X120609430Y-93575989D01*
X120609432Y-93575992D01*
X120716657Y-93786433D01*
X120855483Y-93977510D01*
X121022490Y-94144517D01*
X121213567Y-94283343D01*
X121312991Y-94334002D01*
X121424003Y-94390566D01*
X121424005Y-94390566D01*
X121424008Y-94390568D01*
X121535057Y-94426650D01*
X121648631Y-94463553D01*
X121881903Y-94500500D01*
X121881908Y-94500500D01*
X122118097Y-94500500D01*
X122356180Y-94462791D01*
X122356546Y-94465102D01*
X122416655Y-94468016D01*
X122473535Y-94508592D01*
X122499448Y-94573479D01*
X122500000Y-94585162D01*
X122500000Y-96414837D01*
X122480315Y-96481876D01*
X122427511Y-96527631D01*
X122358353Y-96537575D01*
X122356187Y-96537161D01*
X122356180Y-96537209D01*
X122118097Y-96499500D01*
X122118092Y-96499500D01*
X121881908Y-96499500D01*
X121881903Y-96499500D01*
X121648631Y-96536446D01*
X121424003Y-96609433D01*
X121213566Y-96716657D01*
X121132059Y-96775876D01*
X121022490Y-96855483D01*
X121022488Y-96855485D01*
X121022487Y-96855485D01*
X120855485Y-97022487D01*
X120855485Y-97022488D01*
X120855483Y-97022490D01*
X120795862Y-97104550D01*
X120716657Y-97213566D01*
X120609433Y-97424003D01*
X120536446Y-97648631D01*
X120499500Y-97881902D01*
X120499500Y-98118097D01*
X120536447Y-98351371D01*
X120572289Y-98461683D01*
X120574284Y-98531524D01*
X120572289Y-98538317D01*
X120536447Y-98648628D01*
X120499500Y-98881902D01*
X120499500Y-99118097D01*
X120536447Y-99351371D01*
X120572289Y-99461683D01*
X120574284Y-99531524D01*
X120572289Y-99538317D01*
X120536447Y-99648628D01*
X120499500Y-99881902D01*
X120499500Y-100118097D01*
X120536447Y-100351371D01*
X120572289Y-100461683D01*
X120574284Y-100531524D01*
X120572289Y-100538317D01*
X120536447Y-100648628D01*
X120499500Y-100881902D01*
X120499500Y-101118097D01*
X120536447Y-101351371D01*
X120572289Y-101461683D01*
X120574284Y-101531524D01*
X120572289Y-101538317D01*
X120536447Y-101648628D01*
X120499500Y-101881902D01*
X120499500Y-102118097D01*
X120536447Y-102351371D01*
X120572289Y-102461683D01*
X120574284Y-102531524D01*
X120572289Y-102538317D01*
X120536447Y-102648628D01*
X120499500Y-102881902D01*
X120499500Y-103118097D01*
X120536447Y-103351371D01*
X120572289Y-103461683D01*
X120574284Y-103531524D01*
X120572289Y-103538317D01*
X120536447Y-103648628D01*
X120499500Y-103881902D01*
X120499500Y-104118097D01*
X120536447Y-104351371D01*
X120572289Y-104461683D01*
X120574284Y-104531524D01*
X120572289Y-104538317D01*
X120536447Y-104648628D01*
X120499500Y-104881902D01*
X120499500Y-105118097D01*
X120536447Y-105351371D01*
X120572289Y-105461683D01*
X120574284Y-105531524D01*
X120572289Y-105538317D01*
X120536447Y-105648628D01*
X120499500Y-105881902D01*
X120499500Y-106118097D01*
X120536447Y-106351371D01*
X120572289Y-106461683D01*
X120574284Y-106531524D01*
X120572289Y-106538317D01*
X120536447Y-106648628D01*
X120499500Y-106881902D01*
X120499500Y-107118097D01*
X120536447Y-107351371D01*
X120572289Y-107461683D01*
X120574284Y-107531524D01*
X120572289Y-107538317D01*
X120536447Y-107648628D01*
X120499500Y-107881902D01*
X120499500Y-108118097D01*
X120536447Y-108351371D01*
X120572289Y-108461683D01*
X120574284Y-108531524D01*
X120572289Y-108538317D01*
X120536447Y-108648628D01*
X120499500Y-108881902D01*
X120499500Y-109118097D01*
X120536447Y-109351371D01*
X120572289Y-109461683D01*
X120574284Y-109531524D01*
X120572289Y-109538317D01*
X120536447Y-109648628D01*
X120499500Y-109881902D01*
X120499500Y-110118097D01*
X120536447Y-110351371D01*
X120572289Y-110461683D01*
X120574284Y-110531524D01*
X120572289Y-110538317D01*
X120536447Y-110648628D01*
X120499500Y-110881902D01*
X120499500Y-111118097D01*
X120536447Y-111351371D01*
X120572289Y-111461683D01*
X120574284Y-111531524D01*
X120572289Y-111538317D01*
X120536447Y-111648628D01*
X120499500Y-111881902D01*
X120499500Y-112118097D01*
X120536447Y-112351371D01*
X120572289Y-112461683D01*
X120574284Y-112531524D01*
X120572289Y-112538317D01*
X120536447Y-112648628D01*
X120499500Y-112881902D01*
X120499500Y-113118097D01*
X120536447Y-113351371D01*
X120572289Y-113461683D01*
X120574284Y-113531524D01*
X120572289Y-113538317D01*
X120536447Y-113648628D01*
X120499500Y-113881902D01*
X120499500Y-114118097D01*
X120536447Y-114351371D01*
X120572289Y-114461683D01*
X120574284Y-114531524D01*
X120572289Y-114538317D01*
X120536447Y-114648628D01*
X120499500Y-114881902D01*
X120499500Y-115118097D01*
X120536447Y-115351371D01*
X120572289Y-115461683D01*
X120574284Y-115531524D01*
X120572289Y-115538317D01*
X120536447Y-115648628D01*
X120499500Y-115881902D01*
X120499500Y-116118097D01*
X120536447Y-116351371D01*
X120572289Y-116461683D01*
X120574284Y-116531524D01*
X120572289Y-116538317D01*
X120536447Y-116648628D01*
X120499500Y-116881902D01*
X120499500Y-117118097D01*
X120536447Y-117351371D01*
X120572289Y-117461683D01*
X120574284Y-117531524D01*
X120572289Y-117538317D01*
X120536447Y-117648628D01*
X120499500Y-117881902D01*
X120499500Y-118118097D01*
X120536447Y-118351371D01*
X120572289Y-118461683D01*
X120574284Y-118531524D01*
X120572289Y-118538317D01*
X120536447Y-118648628D01*
X120499500Y-118881902D01*
X120499500Y-119118097D01*
X120536447Y-119351371D01*
X120572289Y-119461683D01*
X120574284Y-119531524D01*
X120572289Y-119538317D01*
X120536447Y-119648628D01*
X120499500Y-119881902D01*
X120499500Y-120118097D01*
X120536447Y-120351371D01*
X120572289Y-120461683D01*
X120574284Y-120531524D01*
X120572289Y-120538317D01*
X120536447Y-120648628D01*
X120499500Y-120881902D01*
X120499500Y-121118097D01*
X120536447Y-121351371D01*
X120572289Y-121461683D01*
X120574284Y-121531524D01*
X120572289Y-121538317D01*
X120536447Y-121648628D01*
X120499500Y-121881902D01*
X120499500Y-122118097D01*
X120536447Y-122351371D01*
X120572289Y-122461683D01*
X120574284Y-122531524D01*
X120572289Y-122538317D01*
X120536447Y-122648628D01*
X120499500Y-122881902D01*
X120499500Y-123118097D01*
X120536447Y-123351371D01*
X120572289Y-123461683D01*
X120574284Y-123531524D01*
X120572289Y-123538317D01*
X120536447Y-123648628D01*
X120499500Y-123881902D01*
X120499500Y-124118097D01*
X120536447Y-124351371D01*
X120572289Y-124461683D01*
X120574284Y-124531524D01*
X120572289Y-124538317D01*
X120536447Y-124648628D01*
X120499500Y-124881902D01*
X120499500Y-125118097D01*
X120536447Y-125351371D01*
X120572289Y-125461683D01*
X120574284Y-125531524D01*
X120572289Y-125538317D01*
X120536447Y-125648628D01*
X120499500Y-125881902D01*
X120499500Y-126118097D01*
X120536447Y-126351371D01*
X120572289Y-126461683D01*
X120574284Y-126531524D01*
X120572289Y-126538317D01*
X120536447Y-126648628D01*
X120499500Y-126881902D01*
X120499500Y-127118097D01*
X120536447Y-127351371D01*
X120572289Y-127461683D01*
X120574284Y-127531524D01*
X120572289Y-127538317D01*
X120536447Y-127648628D01*
X120499500Y-127881902D01*
X120499500Y-128118097D01*
X120536447Y-128351371D01*
X120572289Y-128461683D01*
X120574284Y-128531524D01*
X120572289Y-128538317D01*
X120536447Y-128648628D01*
X120499500Y-128881902D01*
X120499500Y-129118097D01*
X120536447Y-129351371D01*
X120572289Y-129461683D01*
X120574284Y-129531524D01*
X120572289Y-129538317D01*
X120536447Y-129648628D01*
X120499500Y-129881902D01*
X120499500Y-130118097D01*
X120536447Y-130351371D01*
X120550322Y-130394074D01*
X120552317Y-130463915D01*
X120516236Y-130523747D01*
X120453535Y-130554575D01*
X120394074Y-130550322D01*
X120351370Y-130536447D01*
X120351371Y-130536447D01*
X120118097Y-130499500D01*
X120118092Y-130499500D01*
X119881908Y-130499500D01*
X119881903Y-130499500D01*
X119648628Y-130536447D01*
X119538317Y-130572289D01*
X119468476Y-130574284D01*
X119461683Y-130572289D01*
X119351370Y-130536447D01*
X119351371Y-130536447D01*
X119118097Y-130499500D01*
X119118092Y-130499500D01*
X118881908Y-130499500D01*
X118881903Y-130499500D01*
X118648628Y-130536447D01*
X118538317Y-130572289D01*
X118468476Y-130574284D01*
X118461683Y-130572289D01*
X118351370Y-130536447D01*
X118351371Y-130536447D01*
X118118097Y-130499500D01*
X118118092Y-130499500D01*
X117881908Y-130499500D01*
X117881903Y-130499500D01*
X117648628Y-130536447D01*
X117538317Y-130572289D01*
X117468476Y-130574284D01*
X117461683Y-130572289D01*
X117351370Y-130536447D01*
X117351371Y-130536447D01*
X117118097Y-130499500D01*
X117118092Y-130499500D01*
X116881908Y-130499500D01*
X116881903Y-130499500D01*
X116648628Y-130536447D01*
X116538317Y-130572289D01*
X116468476Y-130574284D01*
X116461683Y-130572289D01*
X116351370Y-130536447D01*
X116351371Y-130536447D01*
X116118097Y-130499500D01*
X116118092Y-130499500D01*
X115881908Y-130499500D01*
X115881903Y-130499500D01*
X115648628Y-130536447D01*
X115538317Y-130572289D01*
X115468476Y-130574284D01*
X115461683Y-130572289D01*
X115351370Y-130536447D01*
X115351371Y-130536447D01*
X115118097Y-130499500D01*
X115118092Y-130499500D01*
X114881908Y-130499500D01*
X114881903Y-130499500D01*
X114648628Y-130536447D01*
X114538317Y-130572289D01*
X114468476Y-130574284D01*
X114461683Y-130572289D01*
X114351370Y-130536447D01*
X114351371Y-130536447D01*
X114118097Y-130499500D01*
X114118092Y-130499500D01*
X113881908Y-130499500D01*
X113881903Y-130499500D01*
X113648628Y-130536447D01*
X113538317Y-130572289D01*
X113468476Y-130574284D01*
X113461683Y-130572289D01*
X113351370Y-130536447D01*
X113351371Y-130536447D01*
X113118097Y-130499500D01*
X113118092Y-130499500D01*
X112881908Y-130499500D01*
X112881903Y-130499500D01*
X112648628Y-130536447D01*
X112538317Y-130572289D01*
X112468476Y-130574284D01*
X112461683Y-130572289D01*
X112351370Y-130536447D01*
X112351371Y-130536447D01*
X112118097Y-130499500D01*
X112118092Y-130499500D01*
X111881908Y-130499500D01*
X111881903Y-130499500D01*
X111648628Y-130536447D01*
X111538317Y-130572289D01*
X111468476Y-130574284D01*
X111461683Y-130572289D01*
X111351370Y-130536447D01*
X111351371Y-130536447D01*
X111118097Y-130499500D01*
X111118092Y-130499500D01*
X110881908Y-130499500D01*
X110881903Y-130499500D01*
X110648628Y-130536447D01*
X110538317Y-130572289D01*
X110468476Y-130574284D01*
X110461683Y-130572289D01*
X110351370Y-130536447D01*
X110351371Y-130536447D01*
X110118097Y-130499500D01*
X110118092Y-130499500D01*
X109881908Y-130499500D01*
X109881903Y-130499500D01*
X109648628Y-130536447D01*
X109538317Y-130572289D01*
X109468476Y-130574284D01*
X109461683Y-130572289D01*
X109351370Y-130536447D01*
X109351371Y-130536447D01*
X109118097Y-130499500D01*
X109118092Y-130499500D01*
X108881908Y-130499500D01*
X108881903Y-130499500D01*
X108648628Y-130536447D01*
X108538317Y-130572289D01*
X108468476Y-130574284D01*
X108461683Y-130572289D01*
X108351370Y-130536447D01*
X108351371Y-130536447D01*
X108118097Y-130499500D01*
X108118092Y-130499500D01*
X107881908Y-130499500D01*
X107881903Y-130499500D01*
X107648628Y-130536447D01*
X107538317Y-130572289D01*
X107468476Y-130574284D01*
X107461683Y-130572289D01*
X107351370Y-130536447D01*
X107351371Y-130536447D01*
X107118097Y-130499500D01*
X107118092Y-130499500D01*
X106881908Y-130499500D01*
X106881903Y-130499500D01*
X106648628Y-130536447D01*
X106538317Y-130572289D01*
X106468476Y-130574284D01*
X106461683Y-130572289D01*
X106351370Y-130536447D01*
X106351371Y-130536447D01*
X106118097Y-130499500D01*
X106118092Y-130499500D01*
X105881908Y-130499500D01*
X105881903Y-130499500D01*
X105648628Y-130536447D01*
X105538317Y-130572289D01*
X105468476Y-130574284D01*
X105461683Y-130572289D01*
X105351370Y-130536447D01*
X105351371Y-130536447D01*
X105118097Y-130499500D01*
X105118092Y-130499500D01*
X104881908Y-130499500D01*
X104881903Y-130499500D01*
X104648628Y-130536447D01*
X104538317Y-130572289D01*
X104468476Y-130574284D01*
X104461683Y-130572289D01*
X104351370Y-130536447D01*
X104351371Y-130536447D01*
X104118097Y-130499500D01*
X104118092Y-130499500D01*
X103881908Y-130499500D01*
X103881903Y-130499500D01*
X103648628Y-130536447D01*
X103538317Y-130572289D01*
X103468476Y-130574284D01*
X103461683Y-130572289D01*
X103351370Y-130536447D01*
X103351371Y-130536447D01*
X103118097Y-130499500D01*
X103118092Y-130499500D01*
X102881908Y-130499500D01*
X102881903Y-130499500D01*
X102648628Y-130536447D01*
X102538317Y-130572289D01*
X102468476Y-130574284D01*
X102461683Y-130572289D01*
X102351370Y-130536447D01*
X102351371Y-130536447D01*
X102118097Y-130499500D01*
X102118092Y-130499500D01*
X101881908Y-130499500D01*
X101881903Y-130499500D01*
X101648628Y-130536447D01*
X101538317Y-130572289D01*
X101468476Y-130574284D01*
X101461683Y-130572289D01*
X101351370Y-130536447D01*
X101351371Y-130536447D01*
X101118097Y-130499500D01*
X101118092Y-130499500D01*
X100881908Y-130499500D01*
X100881903Y-130499500D01*
X100648628Y-130536447D01*
X100538317Y-130572289D01*
X100468476Y-130574284D01*
X100461683Y-130572289D01*
X100351370Y-130536447D01*
X100351371Y-130536447D01*
X100118097Y-130499500D01*
X100118092Y-130499500D01*
X99881908Y-130499500D01*
X99881903Y-130499500D01*
X99648632Y-130536446D01*
X99605923Y-130550323D01*
X99536082Y-130552317D01*
X99476249Y-130516235D01*
X99445423Y-130453533D01*
X99449676Y-130394074D01*
X99463553Y-130351368D01*
X99479973Y-130247689D01*
X99500500Y-130118097D01*
X99500500Y-129881902D01*
X99480347Y-129754666D01*
X99463553Y-129648632D01*
X99427708Y-129538316D01*
X99425714Y-129468477D01*
X99427702Y-129461704D01*
X99463553Y-129351368D01*
X99483705Y-129224126D01*
X99500500Y-129118097D01*
X99500500Y-128881902D01*
X99480347Y-128754666D01*
X99463553Y-128648632D01*
X99427708Y-128538316D01*
X99425714Y-128468477D01*
X99427702Y-128461704D01*
X99463553Y-128351368D01*
X99483705Y-128224126D01*
X99500500Y-128118097D01*
X99500500Y-127881902D01*
X99480347Y-127754666D01*
X99463553Y-127648632D01*
X99427708Y-127538316D01*
X99425714Y-127468477D01*
X99427702Y-127461704D01*
X99463553Y-127351368D01*
X99483705Y-127224126D01*
X99500500Y-127118097D01*
X99500500Y-126881902D01*
X99480347Y-126754666D01*
X99463553Y-126648632D01*
X99427708Y-126538316D01*
X99425714Y-126468477D01*
X99427702Y-126461704D01*
X99463553Y-126351368D01*
X99483705Y-126224126D01*
X99500500Y-126118097D01*
X99500500Y-125881902D01*
X99480347Y-125754666D01*
X99463553Y-125648632D01*
X99427708Y-125538316D01*
X99425714Y-125468477D01*
X99427702Y-125461704D01*
X99463553Y-125351368D01*
X99483705Y-125224126D01*
X99500500Y-125118097D01*
X99500500Y-124881902D01*
X99475266Y-124722584D01*
X99463553Y-124648632D01*
X99427708Y-124538316D01*
X99427168Y-124519400D01*
X99421647Y-124501301D01*
X99425864Y-124473737D01*
X99425714Y-124468477D01*
X99426303Y-124466315D01*
X99426957Y-124463995D01*
X99463553Y-124351368D01*
X99465042Y-124341966D01*
X103399500Y-124341966D01*
X103399500Y-125658028D01*
X103399501Y-125658034D01*
X103410113Y-125777415D01*
X103466089Y-125973045D01*
X103466090Y-125973048D01*
X103466091Y-125973049D01*
X103560302Y-126153407D01*
X103594977Y-126195933D01*
X103688890Y-126311109D01*
X103738268Y-126351371D01*
X103846593Y-126439698D01*
X104026951Y-126533909D01*
X104222582Y-126589886D01*
X104341963Y-126600500D01*
X105658036Y-126600499D01*
X105777418Y-126589886D01*
X105973049Y-126533909D01*
X106153407Y-126439698D01*
X106311109Y-126311109D01*
X106439698Y-126153407D01*
X106533909Y-125973049D01*
X106589886Y-125777418D01*
X106600500Y-125658037D01*
X106600499Y-124841966D01*
X115899500Y-124841966D01*
X115899500Y-126158028D01*
X115899501Y-126158034D01*
X115910113Y-126277415D01*
X115966089Y-126473045D01*
X115966090Y-126473048D01*
X115966091Y-126473049D01*
X116060302Y-126653407D01*
X116060304Y-126653409D01*
X116188890Y-126811109D01*
X116275712Y-126881902D01*
X116346593Y-126939698D01*
X116526951Y-127033909D01*
X116722582Y-127089886D01*
X116841963Y-127100500D01*
X118158036Y-127100499D01*
X118277418Y-127089886D01*
X118473049Y-127033909D01*
X118653407Y-126939698D01*
X118811109Y-126811109D01*
X118939698Y-126653407D01*
X119033909Y-126473049D01*
X119089886Y-126277418D01*
X119100500Y-126158037D01*
X119100499Y-124841964D01*
X119089886Y-124722582D01*
X119037161Y-124538317D01*
X119033910Y-124526954D01*
X119033909Y-124526953D01*
X119033909Y-124526951D01*
X118939698Y-124346593D01*
X118838584Y-124222586D01*
X118811109Y-124188890D01*
X118653409Y-124060304D01*
X118653410Y-124060304D01*
X118653407Y-124060302D01*
X118473049Y-123966091D01*
X118473048Y-123966090D01*
X118473045Y-123966089D01*
X118355829Y-123932550D01*
X118277418Y-123910114D01*
X118277415Y-123910113D01*
X118277413Y-123910113D01*
X118211102Y-123904217D01*
X118158037Y-123899500D01*
X118158032Y-123899500D01*
X116841971Y-123899500D01*
X116841965Y-123899500D01*
X116841964Y-123899501D01*
X116830316Y-123900536D01*
X116722584Y-123910113D01*
X116526954Y-123966089D01*
X116436772Y-124013196D01*
X116346593Y-124060302D01*
X116346591Y-124060303D01*
X116346590Y-124060304D01*
X116188890Y-124188890D01*
X116060304Y-124346590D01*
X116060302Y-124346593D01*
X116013196Y-124436772D01*
X115966089Y-124526954D01*
X115910114Y-124722583D01*
X115910113Y-124722586D01*
X115899500Y-124841966D01*
X106600499Y-124841966D01*
X106600499Y-124341964D01*
X106589886Y-124222582D01*
X106545012Y-124065756D01*
X106533910Y-124026954D01*
X106533909Y-124026953D01*
X106533909Y-124026951D01*
X106439698Y-123846593D01*
X106387684Y-123782803D01*
X106311109Y-123688890D01*
X106153409Y-123560304D01*
X106153410Y-123560304D01*
X106153407Y-123560302D01*
X105973049Y-123466091D01*
X105973048Y-123466090D01*
X105973045Y-123466089D01*
X105855829Y-123432550D01*
X105777418Y-123410114D01*
X105777415Y-123410113D01*
X105777413Y-123410113D01*
X105711102Y-123404217D01*
X105658037Y-123399500D01*
X105658032Y-123399500D01*
X104341971Y-123399500D01*
X104341965Y-123399500D01*
X104341964Y-123399501D01*
X104330316Y-123400536D01*
X104222584Y-123410113D01*
X104026954Y-123466089D01*
X103962035Y-123500000D01*
X103846593Y-123560302D01*
X103846591Y-123560303D01*
X103846590Y-123560304D01*
X103688890Y-123688890D01*
X103560304Y-123846590D01*
X103560302Y-123846593D01*
X103513196Y-123936772D01*
X103466089Y-124026954D01*
X103421332Y-124183376D01*
X103419755Y-124188890D01*
X103410114Y-124222583D01*
X103410113Y-124222586D01*
X103399500Y-124341966D01*
X99465042Y-124341966D01*
X99483950Y-124222586D01*
X99500500Y-124118097D01*
X99500500Y-123881902D01*
X99469929Y-123688890D01*
X99463553Y-123648632D01*
X99427708Y-123538316D01*
X99425714Y-123468477D01*
X99427702Y-123461704D01*
X99463553Y-123351368D01*
X99483705Y-123224126D01*
X99500500Y-123118097D01*
X99500500Y-122881902D01*
X99480347Y-122754666D01*
X99463553Y-122648632D01*
X99427708Y-122538316D01*
X99425714Y-122468477D01*
X99427702Y-122461704D01*
X99463553Y-122351368D01*
X99483705Y-122224126D01*
X99500500Y-122118097D01*
X99500500Y-121881902D01*
X99480347Y-121754666D01*
X99463553Y-121648632D01*
X99427708Y-121538316D01*
X99425714Y-121468477D01*
X99427702Y-121461704D01*
X99463553Y-121351368D01*
X99483705Y-121224126D01*
X99500500Y-121118097D01*
X99500500Y-120881902D01*
X99480347Y-120754666D01*
X99463553Y-120648632D01*
X99427708Y-120538316D01*
X99425714Y-120468477D01*
X99427702Y-120461704D01*
X99463553Y-120351368D01*
X99484234Y-120220793D01*
X99500500Y-120118097D01*
X99500500Y-119881902D01*
X99480347Y-119754666D01*
X99463553Y-119648632D01*
X99427708Y-119538316D01*
X99425714Y-119468477D01*
X99427702Y-119461704D01*
X99463553Y-119351368D01*
X99499254Y-119125961D01*
X99500500Y-119118097D01*
X99500500Y-118881902D01*
X99499254Y-118874038D01*
X115899500Y-118874038D01*
X115899500Y-119125961D01*
X115938910Y-119374785D01*
X116016760Y-119614383D01*
X116131132Y-119838848D01*
X116279201Y-120042649D01*
X116279205Y-120042654D01*
X116457345Y-120220794D01*
X116457350Y-120220798D01*
X116635117Y-120349952D01*
X116661155Y-120368870D01*
X116804184Y-120441747D01*
X116885616Y-120483239D01*
X116885618Y-120483239D01*
X116885621Y-120483241D01*
X117125215Y-120561090D01*
X117374038Y-120600500D01*
X117374039Y-120600500D01*
X117625961Y-120600500D01*
X117625962Y-120600500D01*
X117874785Y-120561090D01*
X118114379Y-120483241D01*
X118338845Y-120368870D01*
X118542656Y-120220793D01*
X118720793Y-120042656D01*
X118868870Y-119838845D01*
X118983241Y-119614379D01*
X119061090Y-119374785D01*
X119100500Y-119125962D01*
X119100500Y-118874038D01*
X119061090Y-118625215D01*
X118983241Y-118385621D01*
X118983239Y-118385618D01*
X118983239Y-118385616D01*
X118941747Y-118304184D01*
X118868870Y-118161155D01*
X118837583Y-118118092D01*
X118720798Y-117957350D01*
X118720794Y-117957345D01*
X118542654Y-117779205D01*
X118542649Y-117779201D01*
X118338848Y-117631132D01*
X118338847Y-117631131D01*
X118338845Y-117631130D01*
X118268747Y-117595413D01*
X118114383Y-117516760D01*
X117874785Y-117438910D01*
X117625962Y-117399500D01*
X117374038Y-117399500D01*
X117249626Y-117419205D01*
X117125214Y-117438910D01*
X116885616Y-117516760D01*
X116661151Y-117631132D01*
X116457350Y-117779201D01*
X116457345Y-117779205D01*
X116279205Y-117957345D01*
X116279201Y-117957350D01*
X116131132Y-118161151D01*
X116016760Y-118385616D01*
X115938910Y-118625214D01*
X115899500Y-118874038D01*
X99499254Y-118874038D01*
X99480347Y-118754666D01*
X99463553Y-118648632D01*
X99427708Y-118538316D01*
X99425714Y-118468477D01*
X99427702Y-118461704D01*
X99463553Y-118351368D01*
X99493680Y-118161155D01*
X99500500Y-118118097D01*
X99500500Y-117881902D01*
X99480347Y-117754666D01*
X99463553Y-117648632D01*
X99427708Y-117538316D01*
X99425714Y-117468477D01*
X99427702Y-117461704D01*
X99463553Y-117351368D01*
X99483705Y-117224126D01*
X99500500Y-117118097D01*
X99500500Y-116881902D01*
X99480347Y-116754666D01*
X99463553Y-116648632D01*
X99427708Y-116538316D01*
X99425714Y-116468477D01*
X99427702Y-116461704D01*
X99463553Y-116351368D01*
X99483705Y-116224126D01*
X99500500Y-116118097D01*
X99500500Y-115881902D01*
X99480347Y-115754666D01*
X99463553Y-115648632D01*
X99427708Y-115538316D01*
X99425714Y-115468477D01*
X99427702Y-115461704D01*
X99463553Y-115351368D01*
X99483705Y-115224126D01*
X99500500Y-115118097D01*
X99500500Y-114881902D01*
X99480347Y-114754666D01*
X99463553Y-114648632D01*
X99427708Y-114538316D01*
X99425714Y-114468477D01*
X99427702Y-114461704D01*
X99463553Y-114351368D01*
X99483705Y-114224126D01*
X99500500Y-114118097D01*
X99500500Y-113881902D01*
X99480347Y-113754666D01*
X99463553Y-113648632D01*
X99427708Y-113538316D01*
X99425714Y-113468477D01*
X99427702Y-113461704D01*
X99463553Y-113351368D01*
X99483951Y-113222582D01*
X99500500Y-113118097D01*
X99500500Y-112881902D01*
X99496811Y-112858612D01*
X99494174Y-112841966D01*
X103399500Y-112841966D01*
X103399500Y-114158028D01*
X103399501Y-114158034D01*
X103410113Y-114277415D01*
X103466089Y-114473045D01*
X103466090Y-114473048D01*
X103466091Y-114473049D01*
X103560302Y-114653407D01*
X103594977Y-114695933D01*
X103688890Y-114811109D01*
X103775712Y-114881902D01*
X103846593Y-114939698D01*
X104026951Y-115033909D01*
X104222582Y-115089886D01*
X104341963Y-115100500D01*
X105658036Y-115100499D01*
X105777418Y-115089886D01*
X105973049Y-115033909D01*
X106153407Y-114939698D01*
X106311109Y-114811109D01*
X106439698Y-114653407D01*
X106533909Y-114473049D01*
X106589886Y-114277418D01*
X106600500Y-114158037D01*
X106600499Y-113341966D01*
X115899500Y-113341966D01*
X115899500Y-114658028D01*
X115899501Y-114658034D01*
X115910113Y-114777415D01*
X115966089Y-114973045D01*
X115966090Y-114973048D01*
X115966091Y-114973049D01*
X116060302Y-115153407D01*
X116060304Y-115153409D01*
X116188890Y-115311109D01*
X116238268Y-115351371D01*
X116346593Y-115439698D01*
X116526951Y-115533909D01*
X116722582Y-115589886D01*
X116841963Y-115600500D01*
X118158036Y-115600499D01*
X118277418Y-115589886D01*
X118473049Y-115533909D01*
X118653407Y-115439698D01*
X118811109Y-115311109D01*
X118939698Y-115153407D01*
X119033909Y-114973049D01*
X119089886Y-114777418D01*
X119100500Y-114658037D01*
X119100499Y-113341964D01*
X119089886Y-113222582D01*
X119033909Y-113026951D01*
X118939698Y-112846593D01*
X118838584Y-112722586D01*
X118811109Y-112688890D01*
X118653409Y-112560304D01*
X118653410Y-112560304D01*
X118653407Y-112560302D01*
X118473049Y-112466091D01*
X118473048Y-112466090D01*
X118473045Y-112466089D01*
X118355829Y-112432550D01*
X118277418Y-112410114D01*
X118277415Y-112410113D01*
X118277413Y-112410113D01*
X118211102Y-112404217D01*
X118158037Y-112399500D01*
X118158032Y-112399500D01*
X116841971Y-112399500D01*
X116841965Y-112399500D01*
X116841964Y-112399501D01*
X116830316Y-112400536D01*
X116722584Y-112410113D01*
X116526954Y-112466089D01*
X116462035Y-112500000D01*
X116346593Y-112560302D01*
X116346591Y-112560303D01*
X116346590Y-112560304D01*
X116188890Y-112688890D01*
X116060304Y-112846590D01*
X115966089Y-113026954D01*
X115910114Y-113222583D01*
X115910113Y-113222586D01*
X115899500Y-113341966D01*
X106600499Y-113341966D01*
X106600499Y-112841964D01*
X106589886Y-112722582D01*
X106545012Y-112565756D01*
X106533910Y-112526954D01*
X106533909Y-112526953D01*
X106533909Y-112526951D01*
X106439698Y-112346593D01*
X106387684Y-112282803D01*
X106311109Y-112188890D01*
X106153409Y-112060304D01*
X106153410Y-112060304D01*
X106153407Y-112060302D01*
X105973049Y-111966091D01*
X105973048Y-111966090D01*
X105973045Y-111966089D01*
X105855829Y-111932550D01*
X105777418Y-111910114D01*
X105777415Y-111910113D01*
X105777413Y-111910113D01*
X105711102Y-111904217D01*
X105658037Y-111899500D01*
X105658032Y-111899500D01*
X104341971Y-111899500D01*
X104341965Y-111899500D01*
X104341964Y-111899501D01*
X104330316Y-111900536D01*
X104222584Y-111910113D01*
X104026954Y-111966089D01*
X103936772Y-112013196D01*
X103846593Y-112060302D01*
X103846591Y-112060303D01*
X103846590Y-112060304D01*
X103688890Y-112188890D01*
X103560304Y-112346590D01*
X103560302Y-112346593D01*
X103513196Y-112436772D01*
X103466089Y-112526954D01*
X103431272Y-112648637D01*
X103419755Y-112688890D01*
X103410114Y-112722583D01*
X103410113Y-112722586D01*
X103399500Y-112841966D01*
X99494174Y-112841966D01*
X99475266Y-112722586D01*
X99463553Y-112648632D01*
X99427708Y-112538316D01*
X99425714Y-112468477D01*
X99427702Y-112461704D01*
X99463553Y-112351368D01*
X99489287Y-112188890D01*
X99500500Y-112118097D01*
X99500500Y-111881902D01*
X99480347Y-111754666D01*
X99463553Y-111648632D01*
X99427708Y-111538316D01*
X99425714Y-111468477D01*
X99427702Y-111461704D01*
X99463553Y-111351368D01*
X99483705Y-111224126D01*
X99500500Y-111118097D01*
X99500500Y-110881902D01*
X99480347Y-110754666D01*
X99463553Y-110648632D01*
X99427708Y-110538316D01*
X99425714Y-110468477D01*
X99427702Y-110461704D01*
X99463553Y-110351368D01*
X99483705Y-110224126D01*
X99500500Y-110118097D01*
X99500500Y-109881902D01*
X99480347Y-109754666D01*
X99463553Y-109648632D01*
X99427708Y-109538316D01*
X99425714Y-109468477D01*
X99427702Y-109461704D01*
X99463553Y-109351368D01*
X99483705Y-109224126D01*
X99500500Y-109118097D01*
X99500500Y-108881902D01*
X99474982Y-108720793D01*
X99463553Y-108648632D01*
X99427708Y-108538316D01*
X99425714Y-108468477D01*
X99427702Y-108461704D01*
X99463553Y-108351368D01*
X99483705Y-108224126D01*
X99500500Y-108118097D01*
X99500500Y-107881902D01*
X99480347Y-107754666D01*
X99463553Y-107648632D01*
X99427708Y-107538316D01*
X99427123Y-107517826D01*
X99421655Y-107498069D01*
X99425840Y-107472910D01*
X99425714Y-107468477D01*
X99427221Y-107463216D01*
X99427438Y-107462515D01*
X99456187Y-107374038D01*
X115899500Y-107374038D01*
X115899500Y-107625962D01*
X115938910Y-107874785D01*
X116016760Y-108114383D01*
X116131132Y-108338848D01*
X116279201Y-108542649D01*
X116279205Y-108542654D01*
X116457345Y-108720794D01*
X116457350Y-108720798D01*
X116635117Y-108849952D01*
X116661155Y-108868870D01*
X116804184Y-108941747D01*
X116885616Y-108983239D01*
X116885618Y-108983239D01*
X116885621Y-108983241D01*
X117125215Y-109061090D01*
X117374038Y-109100500D01*
X117374039Y-109100500D01*
X117625961Y-109100500D01*
X117625962Y-109100500D01*
X117874785Y-109061090D01*
X118114379Y-108983241D01*
X118338845Y-108868870D01*
X118542656Y-108720793D01*
X118720793Y-108542656D01*
X118868870Y-108338845D01*
X118983241Y-108114379D01*
X119061090Y-107874785D01*
X119100500Y-107625962D01*
X119100500Y-107374038D01*
X119061090Y-107125215D01*
X118983241Y-106885621D01*
X118983239Y-106885618D01*
X118983239Y-106885616D01*
X118941747Y-106804184D01*
X118868870Y-106661155D01*
X118779625Y-106538319D01*
X118720798Y-106457350D01*
X118720794Y-106457345D01*
X118542654Y-106279205D01*
X118542649Y-106279201D01*
X118338848Y-106131132D01*
X118338847Y-106131131D01*
X118338845Y-106131130D01*
X118268747Y-106095413D01*
X118114383Y-106016760D01*
X117874785Y-105938910D01*
X117625962Y-105899500D01*
X117374038Y-105899500D01*
X117249626Y-105919205D01*
X117125214Y-105938910D01*
X116885616Y-106016760D01*
X116661151Y-106131132D01*
X116457350Y-106279201D01*
X116457345Y-106279205D01*
X116279205Y-106457345D01*
X116279201Y-106457350D01*
X116131132Y-106661151D01*
X116016760Y-106885616D01*
X115938910Y-107125214D01*
X115938910Y-107125215D01*
X115899500Y-107374038D01*
X99456187Y-107374038D01*
X99463553Y-107351368D01*
X99475194Y-107277865D01*
X99500500Y-107118097D01*
X99500500Y-106881902D01*
X99465536Y-106661155D01*
X99463553Y-106648632D01*
X99427708Y-106538316D01*
X99425714Y-106468477D01*
X99427702Y-106461704D01*
X99463553Y-106351368D01*
X99498435Y-106131132D01*
X99500500Y-106118097D01*
X99500500Y-105881902D01*
X99480347Y-105754666D01*
X99463553Y-105648632D01*
X99427708Y-105538316D01*
X99425714Y-105468477D01*
X99427702Y-105461704D01*
X99463553Y-105351368D01*
X99483705Y-105224126D01*
X99500500Y-105118097D01*
X99500500Y-104881902D01*
X99480347Y-104754666D01*
X99463553Y-104648632D01*
X99427708Y-104538316D01*
X99425714Y-104468477D01*
X99427702Y-104461704D01*
X99463553Y-104351368D01*
X99483705Y-104224126D01*
X99500500Y-104118097D01*
X99500500Y-103881902D01*
X99480347Y-103754666D01*
X99463553Y-103648632D01*
X99427708Y-103538316D01*
X99425714Y-103468477D01*
X99427702Y-103461704D01*
X99463553Y-103351368D01*
X99483705Y-103224126D01*
X99500500Y-103118097D01*
X99500500Y-102881902D01*
X99480347Y-102754666D01*
X99463553Y-102648632D01*
X99427708Y-102538316D01*
X99425714Y-102468477D01*
X99427702Y-102461704D01*
X99463553Y-102351368D01*
X99483705Y-102224126D01*
X99500500Y-102118097D01*
X99500500Y-101881902D01*
X99496811Y-101858612D01*
X99494174Y-101841966D01*
X115899500Y-101841966D01*
X115899500Y-103158028D01*
X115899501Y-103158034D01*
X115910113Y-103277415D01*
X115966089Y-103473045D01*
X115966090Y-103473048D01*
X115966091Y-103473049D01*
X116060302Y-103653407D01*
X116060304Y-103653409D01*
X116188890Y-103811109D01*
X116275712Y-103881902D01*
X116346593Y-103939698D01*
X116526951Y-104033909D01*
X116722582Y-104089886D01*
X116841963Y-104100500D01*
X118158036Y-104100499D01*
X118277418Y-104089886D01*
X118473049Y-104033909D01*
X118653407Y-103939698D01*
X118811109Y-103811109D01*
X118939698Y-103653407D01*
X119033909Y-103473049D01*
X119089886Y-103277418D01*
X119100500Y-103158037D01*
X119100499Y-101841964D01*
X119089886Y-101722582D01*
X119037161Y-101538317D01*
X119033910Y-101526954D01*
X119033909Y-101526953D01*
X119033909Y-101526951D01*
X118939698Y-101346593D01*
X118887684Y-101282803D01*
X118811109Y-101188890D01*
X118653409Y-101060304D01*
X118653410Y-101060304D01*
X118653407Y-101060302D01*
X118473049Y-100966091D01*
X118473048Y-100966090D01*
X118473045Y-100966089D01*
X118355829Y-100932550D01*
X118277418Y-100910114D01*
X118277415Y-100910113D01*
X118277413Y-100910113D01*
X118211102Y-100904217D01*
X118158037Y-100899500D01*
X118158032Y-100899500D01*
X116841971Y-100899500D01*
X116841965Y-100899500D01*
X116841964Y-100899501D01*
X116830316Y-100900536D01*
X116722584Y-100910113D01*
X116526954Y-100966089D01*
X116436772Y-101013196D01*
X116346593Y-101060302D01*
X116346591Y-101060303D01*
X116346590Y-101060304D01*
X116188890Y-101188890D01*
X116060304Y-101346590D01*
X116060302Y-101346593D01*
X116013196Y-101436772D01*
X115966089Y-101526954D01*
X115910114Y-101722583D01*
X115910113Y-101722586D01*
X115899500Y-101841966D01*
X99494174Y-101841966D01*
X99475266Y-101722586D01*
X99463553Y-101648632D01*
X99427708Y-101538316D01*
X99425714Y-101468477D01*
X99427702Y-101461704D01*
X99463553Y-101351368D01*
X99489287Y-101188890D01*
X99500500Y-101118097D01*
X99500500Y-100881902D01*
X99480347Y-100754666D01*
X99463553Y-100648632D01*
X99427708Y-100538316D01*
X99425714Y-100468477D01*
X99427702Y-100461704D01*
X99463553Y-100351368D01*
X99483705Y-100224126D01*
X99500500Y-100118097D01*
X99500500Y-99881902D01*
X99480347Y-99754666D01*
X99463553Y-99648632D01*
X99427708Y-99538316D01*
X99425714Y-99468477D01*
X99427702Y-99461704D01*
X99463553Y-99351368D01*
X99483705Y-99224126D01*
X99500500Y-99118097D01*
X99500500Y-98881902D01*
X99480347Y-98754666D01*
X99463553Y-98648632D01*
X99427708Y-98538316D01*
X99425714Y-98468477D01*
X99427702Y-98461704D01*
X99463553Y-98351368D01*
X99483705Y-98224126D01*
X99500500Y-98118097D01*
X99500500Y-97881902D01*
X99474943Y-97720546D01*
X99463553Y-97648632D01*
X99427708Y-97538316D01*
X99425714Y-97468477D01*
X99427702Y-97461704D01*
X99463553Y-97351368D01*
X99494390Y-97156670D01*
X99500500Y-97118097D01*
X99500500Y-96881902D01*
X99474327Y-96716657D01*
X99463553Y-96648632D01*
X99427708Y-96538316D01*
X99425714Y-96468477D01*
X99427702Y-96461704D01*
X99463553Y-96351368D01*
X99499254Y-96125961D01*
X99500500Y-96118097D01*
X99500500Y-95885258D01*
X105569500Y-95885258D01*
X105569500Y-96114741D01*
X105594446Y-96304215D01*
X105599452Y-96342238D01*
X105641590Y-96499500D01*
X105658842Y-96563887D01*
X105746650Y-96775876D01*
X105746657Y-96775890D01*
X105861392Y-96974617D01*
X106001081Y-97156661D01*
X106001089Y-97156670D01*
X106163330Y-97318911D01*
X106163338Y-97318918D01*
X106345382Y-97458607D01*
X106345385Y-97458608D01*
X106345388Y-97458611D01*
X106544112Y-97573344D01*
X106544117Y-97573346D01*
X106544123Y-97573349D01*
X106609672Y-97600500D01*
X106756113Y-97661158D01*
X106977762Y-97720548D01*
X107205266Y-97750500D01*
X107205273Y-97750500D01*
X107434727Y-97750500D01*
X107434734Y-97750500D01*
X107662238Y-97720548D01*
X107883887Y-97661158D01*
X108095888Y-97573344D01*
X108294612Y-97458611D01*
X108476661Y-97318919D01*
X108476665Y-97318914D01*
X108476670Y-97318911D01*
X108638911Y-97156670D01*
X108638914Y-97156665D01*
X108638919Y-97156661D01*
X108778611Y-96974612D01*
X108893344Y-96775888D01*
X108981158Y-96563887D01*
X109040548Y-96342238D01*
X109070500Y-96114734D01*
X109070500Y-95885266D01*
X109069022Y-95874038D01*
X115899500Y-95874038D01*
X115899500Y-96125961D01*
X115938910Y-96374785D01*
X116016760Y-96614383D01*
X116131132Y-96838848D01*
X116279201Y-97042649D01*
X116279205Y-97042654D01*
X116457345Y-97220794D01*
X116457350Y-97220798D01*
X116592392Y-97318911D01*
X116661155Y-97368870D01*
X116769360Y-97424003D01*
X116885616Y-97483239D01*
X116885618Y-97483239D01*
X116885621Y-97483241D01*
X117125215Y-97561090D01*
X117374038Y-97600500D01*
X117374039Y-97600500D01*
X117625961Y-97600500D01*
X117625962Y-97600500D01*
X117874785Y-97561090D01*
X118114379Y-97483241D01*
X118338845Y-97368870D01*
X118542656Y-97220793D01*
X118720793Y-97042656D01*
X118868870Y-96838845D01*
X118983241Y-96614379D01*
X119061090Y-96374785D01*
X119100500Y-96125962D01*
X119100500Y-95874038D01*
X119061090Y-95625215D01*
X118983241Y-95385621D01*
X118983239Y-95385618D01*
X118983239Y-95385616D01*
X118941747Y-95304184D01*
X118868870Y-95161155D01*
X118770230Y-95025388D01*
X118720798Y-94957350D01*
X118720794Y-94957345D01*
X118542654Y-94779205D01*
X118542649Y-94779201D01*
X118338848Y-94631132D01*
X118338847Y-94631131D01*
X118338845Y-94631130D01*
X118248628Y-94585162D01*
X118114383Y-94516760D01*
X117874785Y-94438910D01*
X117797379Y-94426650D01*
X117625962Y-94399500D01*
X117374038Y-94399500D01*
X117249626Y-94419205D01*
X117125214Y-94438910D01*
X116885616Y-94516760D01*
X116661151Y-94631132D01*
X116457350Y-94779201D01*
X116457345Y-94779205D01*
X116279205Y-94957345D01*
X116279201Y-94957350D01*
X116131132Y-95161151D01*
X116016760Y-95385616D01*
X115938910Y-95625214D01*
X115899500Y-95874038D01*
X109069022Y-95874038D01*
X109040548Y-95657762D01*
X108981158Y-95436113D01*
X108893344Y-95224112D01*
X108778611Y-95025388D01*
X108778608Y-95025385D01*
X108778607Y-95025382D01*
X108638918Y-94843338D01*
X108638911Y-94843330D01*
X108476670Y-94681089D01*
X108476661Y-94681081D01*
X108294617Y-94541392D01*
X108289294Y-94538319D01*
X108095888Y-94426656D01*
X108095876Y-94426650D01*
X107883887Y-94338842D01*
X107662238Y-94279452D01*
X107624215Y-94274446D01*
X107434741Y-94249500D01*
X107434734Y-94249500D01*
X107205266Y-94249500D01*
X107205258Y-94249500D01*
X106988715Y-94278009D01*
X106977762Y-94279452D01*
X106884076Y-94304554D01*
X106756112Y-94338842D01*
X106544123Y-94426650D01*
X106544109Y-94426657D01*
X106345382Y-94541392D01*
X106163338Y-94681081D01*
X106001081Y-94843338D01*
X105861392Y-95025382D01*
X105746657Y-95224109D01*
X105746650Y-95224123D01*
X105658842Y-95436112D01*
X105658842Y-95436113D01*
X105601899Y-95648632D01*
X105599453Y-95657759D01*
X105599451Y-95657770D01*
X105569500Y-95885258D01*
X99500500Y-95885258D01*
X99500500Y-95881902D01*
X99480347Y-95754666D01*
X99463553Y-95648632D01*
X99427708Y-95538316D01*
X99425714Y-95468477D01*
X99427702Y-95461704D01*
X99463553Y-95351368D01*
X99493680Y-95161155D01*
X99500500Y-95118097D01*
X99500500Y-94881902D01*
X99480347Y-94754666D01*
X99463553Y-94648632D01*
X99427708Y-94538316D01*
X99425714Y-94468477D01*
X99427702Y-94461704D01*
X99463553Y-94351368D01*
X99496315Y-94144517D01*
X99500500Y-94118097D01*
X99500500Y-93881902D01*
X99480347Y-93754666D01*
X99463553Y-93648632D01*
X99427708Y-93538316D01*
X99425714Y-93468477D01*
X99427702Y-93461704D01*
X99463553Y-93351368D01*
X99496315Y-93144517D01*
X99500500Y-93118097D01*
X99500500Y-92881902D01*
X99480347Y-92754666D01*
X99463553Y-92648632D01*
X99427708Y-92538316D01*
X99425714Y-92468477D01*
X99427702Y-92461704D01*
X99463553Y-92351368D01*
X99485378Y-92213567D01*
X99500500Y-92118097D01*
X99500500Y-91881902D01*
X99474327Y-91716657D01*
X99463553Y-91648632D01*
X99427708Y-91538316D01*
X99425714Y-91468477D01*
X99427702Y-91461704D01*
X99463553Y-91351368D01*
X99485379Y-91213566D01*
X99500500Y-91118097D01*
X99500500Y-90881902D01*
X99474327Y-90716657D01*
X99463553Y-90648632D01*
X99427708Y-90538316D01*
X99427168Y-90519400D01*
X99421647Y-90501301D01*
X99425864Y-90473737D01*
X99425714Y-90468477D01*
X99426303Y-90466315D01*
X99426957Y-90463995D01*
X99463553Y-90351368D01*
X99465042Y-90341966D01*
X115899500Y-90341966D01*
X115899500Y-91658028D01*
X115899501Y-91658034D01*
X115910113Y-91777415D01*
X115966089Y-91973045D01*
X115966090Y-91973048D01*
X115966091Y-91973049D01*
X116060302Y-92153407D01*
X116060304Y-92153409D01*
X116188890Y-92311109D01*
X116282803Y-92387684D01*
X116346593Y-92439698D01*
X116526951Y-92533909D01*
X116722582Y-92589886D01*
X116841963Y-92600500D01*
X118158036Y-92600499D01*
X118277418Y-92589886D01*
X118473049Y-92533909D01*
X118653407Y-92439698D01*
X118811109Y-92311109D01*
X118939698Y-92153407D01*
X119033909Y-91973049D01*
X119089886Y-91777418D01*
X119100500Y-91658037D01*
X119100499Y-90341964D01*
X119089886Y-90222582D01*
X119033909Y-90026951D01*
X118939698Y-89846593D01*
X118887684Y-89782803D01*
X118811109Y-89688890D01*
X118653409Y-89560304D01*
X118653410Y-89560304D01*
X118653407Y-89560302D01*
X118473049Y-89466091D01*
X118473048Y-89466090D01*
X118473045Y-89466089D01*
X118355829Y-89432550D01*
X118277418Y-89410114D01*
X118277415Y-89410113D01*
X118277413Y-89410113D01*
X118211102Y-89404217D01*
X118158037Y-89399500D01*
X118158032Y-89399500D01*
X116841971Y-89399500D01*
X116841965Y-89399500D01*
X116841964Y-89399501D01*
X116830316Y-89400536D01*
X116722584Y-89410113D01*
X116526954Y-89466089D01*
X116462035Y-89500000D01*
X116346593Y-89560302D01*
X116346591Y-89560303D01*
X116346590Y-89560304D01*
X116188890Y-89688890D01*
X116060304Y-89846590D01*
X115966089Y-90026954D01*
X115910114Y-90222583D01*
X115910113Y-90222586D01*
X115899500Y-90341966D01*
X99465042Y-90341966D01*
X99483950Y-90222586D01*
X99500500Y-90118097D01*
X99500500Y-89881902D01*
X99469929Y-89688890D01*
X99463553Y-89648632D01*
X99427708Y-89538316D01*
X99425714Y-89468477D01*
X99427702Y-89461704D01*
X99463553Y-89351368D01*
X99483705Y-89224126D01*
X99500500Y-89118097D01*
X99500500Y-88881902D01*
X99480347Y-88754666D01*
X99463553Y-88648632D01*
X99427708Y-88538316D01*
X99425714Y-88468477D01*
X99427702Y-88461704D01*
X99463553Y-88351368D01*
X99483705Y-88224126D01*
X99500500Y-88118097D01*
X99500500Y-87881902D01*
X99480347Y-87754666D01*
X99463553Y-87648632D01*
X99427708Y-87538316D01*
X99425714Y-87468477D01*
X99427702Y-87461704D01*
X99463553Y-87351368D01*
X99494035Y-87158911D01*
X99500500Y-87118097D01*
X99500500Y-86881902D01*
X99480347Y-86754666D01*
X99463553Y-86648632D01*
X99427708Y-86538316D01*
X99425714Y-86468477D01*
X99427702Y-86461704D01*
X99463553Y-86351368D01*
X99490340Y-86182240D01*
X99500500Y-86118097D01*
X99500500Y-85881902D01*
X99478959Y-85745902D01*
X99478958Y-85745901D01*
X99475689Y-85725258D01*
X105569500Y-85725258D01*
X105569500Y-85954741D01*
X105594446Y-86144215D01*
X105599452Y-86182238D01*
X105599453Y-86182240D01*
X105658842Y-86403887D01*
X105746650Y-86615876D01*
X105746657Y-86615890D01*
X105861392Y-86814617D01*
X106001081Y-86996661D01*
X106001089Y-86996670D01*
X106163330Y-87158911D01*
X106163338Y-87158918D01*
X106345382Y-87298607D01*
X106345385Y-87298608D01*
X106345388Y-87298611D01*
X106544112Y-87413344D01*
X106544117Y-87413346D01*
X106544123Y-87413349D01*
X106635480Y-87451190D01*
X106756113Y-87501158D01*
X106977762Y-87560548D01*
X107205266Y-87590500D01*
X107205273Y-87590500D01*
X107434727Y-87590500D01*
X107434734Y-87590500D01*
X107662238Y-87560548D01*
X107883887Y-87501158D01*
X108095888Y-87413344D01*
X108294612Y-87298611D01*
X108476661Y-87158919D01*
X108476665Y-87158914D01*
X108476670Y-87158911D01*
X108638911Y-86996670D01*
X108638914Y-86996665D01*
X108638919Y-86996661D01*
X108778611Y-86814612D01*
X108893344Y-86615888D01*
X108981158Y-86403887D01*
X109040548Y-86182238D01*
X109070500Y-85954734D01*
X109070500Y-85725266D01*
X109040548Y-85497762D01*
X108981158Y-85276113D01*
X108926648Y-85144514D01*
X108893349Y-85064123D01*
X108893346Y-85064117D01*
X108893344Y-85064112D01*
X108778611Y-84865388D01*
X108778608Y-84865385D01*
X108778607Y-84865382D01*
X108638918Y-84683338D01*
X108638911Y-84683330D01*
X108476670Y-84521089D01*
X108476661Y-84521081D01*
X108294617Y-84381392D01*
X108242603Y-84351362D01*
X108095888Y-84266656D01*
X108095876Y-84266650D01*
X107883887Y-84178842D01*
X107662238Y-84119452D01*
X107624215Y-84114446D01*
X107434741Y-84089500D01*
X107434734Y-84089500D01*
X107205266Y-84089500D01*
X107205258Y-84089500D01*
X106988715Y-84118009D01*
X106977762Y-84119452D01*
X106884228Y-84144514D01*
X106756112Y-84178842D01*
X106544123Y-84266650D01*
X106544109Y-84266657D01*
X106345382Y-84381392D01*
X106163338Y-84521081D01*
X106001081Y-84683338D01*
X105861392Y-84865382D01*
X105746657Y-85064109D01*
X105746650Y-85064123D01*
X105658842Y-85276112D01*
X105638679Y-85351362D01*
X105599452Y-85497762D01*
X105599157Y-85500000D01*
X105569500Y-85725258D01*
X99475689Y-85725258D01*
X99463553Y-85648632D01*
X99426353Y-85534145D01*
X99425298Y-85529896D01*
X99426591Y-85499194D01*
X99425714Y-85468477D01*
X99427702Y-85461704D01*
X99463553Y-85351368D01*
X99496315Y-85144517D01*
X99500500Y-85118097D01*
X99500500Y-84881902D01*
X99480347Y-84754666D01*
X99463553Y-84648632D01*
X99427708Y-84538316D01*
X99425714Y-84468477D01*
X99427702Y-84461704D01*
X99463553Y-84351368D01*
X99483705Y-84224126D01*
X99500500Y-84118097D01*
X99500500Y-83881902D01*
X99480347Y-83754666D01*
X99463553Y-83648632D01*
X99427708Y-83538316D01*
X99425714Y-83468477D01*
X99427702Y-83461704D01*
X99463553Y-83351368D01*
X99485378Y-83213567D01*
X99500500Y-83118097D01*
X99500500Y-82881902D01*
X99474327Y-82716657D01*
X99463553Y-82648632D01*
X99439078Y-82573309D01*
X99437084Y-82503472D01*
X99473164Y-82443639D01*
X99535864Y-82412810D01*
X99595327Y-82417062D01*
X99668419Y-82440812D01*
X99755897Y-82454667D01*
X99901690Y-82477759D01*
X99901695Y-82477759D01*
X100137884Y-82477759D01*
X100243913Y-82460964D01*
X100371155Y-82440812D01*
X100436582Y-82419552D01*
X100506420Y-82417557D01*
X100513204Y-82419549D01*
X100648632Y-82463553D01*
X100736110Y-82477408D01*
X100881903Y-82500500D01*
X100881908Y-82500500D01*
X101118097Y-82500500D01*
X101224126Y-82483705D01*
X101351368Y-82463553D01*
X101461683Y-82427708D01*
X101531523Y-82425714D01*
X101538295Y-82427702D01*
X101648632Y-82463553D01*
X101765270Y-82482026D01*
X101881903Y-82500500D01*
X101881908Y-82500500D01*
X102118097Y-82500500D01*
X102224126Y-82483705D01*
X102351368Y-82463553D01*
X102461683Y-82427708D01*
X102531523Y-82425714D01*
X102538295Y-82427702D01*
X102648632Y-82463553D01*
X102765270Y-82482026D01*
X102881903Y-82500500D01*
X102881908Y-82500500D01*
X103118097Y-82500500D01*
X103224126Y-82483705D01*
X103351368Y-82463553D01*
X103461683Y-82427708D01*
X103531523Y-82425714D01*
X103538295Y-82427702D01*
X103648632Y-82463553D01*
X103765270Y-82482026D01*
X103881903Y-82500500D01*
X103881908Y-82500500D01*
X104118097Y-82500500D01*
X104224126Y-82483705D01*
X104351368Y-82463553D01*
X104479643Y-82421872D01*
X104549482Y-82419878D01*
X104556265Y-82421869D01*
X104650139Y-82452371D01*
X104720740Y-82463553D01*
X104883410Y-82489318D01*
X104883415Y-82489318D01*
X105119604Y-82489318D01*
X105352875Y-82452371D01*
X105379749Y-82443639D01*
X105577499Y-82379386D01*
X105787940Y-82272161D01*
X105979017Y-82133335D01*
X106146024Y-81966328D01*
X106284850Y-81775251D01*
X106392075Y-81564810D01*
X106465060Y-81340186D01*
X106502007Y-81106915D01*
X106502007Y-80870720D01*
X106465060Y-80637449D01*
X106395708Y-80424008D01*
X106392075Y-80412826D01*
X106392073Y-80412823D01*
X106392073Y-80412821D01*
X106353658Y-80337429D01*
X106284850Y-80202385D01*
X106282655Y-80199364D01*
X106280853Y-80196883D01*
X106257375Y-80131077D01*
X106273202Y-80063023D01*
X106323308Y-80014329D01*
X106381173Y-80000000D01*
X108550606Y-80000000D01*
X108617645Y-80019685D01*
G37*
%TD.AperFunction*%
%TD*%
%TA.AperFunction,Conductor*%
%TO.N,GND*%
G36*
X87443039Y-54019685D02*
G01*
X87488794Y-54072489D01*
X87500000Y-54124000D01*
X87500000Y-64085500D01*
X87480315Y-64152539D01*
X87427511Y-64198294D01*
X87376000Y-64209500D01*
X86202129Y-64209500D01*
X86202123Y-64209501D01*
X86142516Y-64215908D01*
X86007671Y-64266202D01*
X86007664Y-64266206D01*
X85892455Y-64352452D01*
X85892452Y-64352455D01*
X85806206Y-64467664D01*
X85806202Y-64467671D01*
X85755908Y-64602517D01*
X85749501Y-64662116D01*
X85749500Y-64662135D01*
X85749500Y-66257870D01*
X85749501Y-66257876D01*
X85755908Y-66317483D01*
X85806202Y-66452328D01*
X85806206Y-66452335D01*
X85892452Y-66567544D01*
X85892455Y-66567547D01*
X86007664Y-66653793D01*
X86007671Y-66653797D01*
X86142517Y-66704091D01*
X86142516Y-66704091D01*
X86149444Y-66704835D01*
X86202127Y-66710500D01*
X87376000Y-66710499D01*
X87443039Y-66730184D01*
X87488794Y-66782987D01*
X87500000Y-66834499D01*
X87500000Y-76836934D01*
X87480315Y-76903973D01*
X87427511Y-76949728D01*
X87358353Y-76959672D01*
X87337682Y-76954865D01*
X87292828Y-76940291D01*
X87098422Y-76909500D01*
X87098417Y-76909500D01*
X86901583Y-76909500D01*
X86901578Y-76909500D01*
X86707173Y-76940290D01*
X86519970Y-77001117D01*
X86344594Y-77090476D01*
X86253741Y-77156485D01*
X86185354Y-77206172D01*
X86185352Y-77206174D01*
X86185351Y-77206174D01*
X86046174Y-77345351D01*
X86046174Y-77345352D01*
X86046172Y-77345354D01*
X85996485Y-77413741D01*
X85930476Y-77504594D01*
X85841117Y-77679970D01*
X85780290Y-77867173D01*
X85749500Y-78061577D01*
X85749500Y-78258422D01*
X85780290Y-78452826D01*
X85841117Y-78640029D01*
X85875837Y-78708170D01*
X85930476Y-78815405D01*
X86046172Y-78974646D01*
X86185354Y-79113828D01*
X86344595Y-79229524D01*
X86427455Y-79271743D01*
X86519970Y-79318882D01*
X86519972Y-79318882D01*
X86519975Y-79318884D01*
X86620317Y-79351487D01*
X86707173Y-79379709D01*
X86901578Y-79410500D01*
X86901583Y-79410500D01*
X87098422Y-79410500D01*
X87192666Y-79395572D01*
X87292826Y-79379709D01*
X87292831Y-79379707D01*
X87292833Y-79379707D01*
X87337680Y-79365135D01*
X87407521Y-79363138D01*
X87467354Y-79399218D01*
X87498183Y-79461918D01*
X87500000Y-79483065D01*
X87500000Y-92085500D01*
X87480315Y-92152539D01*
X87427511Y-92198294D01*
X87376000Y-92209500D01*
X86202129Y-92209500D01*
X86202123Y-92209501D01*
X86142516Y-92215908D01*
X86007671Y-92266202D01*
X86007664Y-92266206D01*
X85892455Y-92352452D01*
X85892452Y-92352455D01*
X85806206Y-92467664D01*
X85806202Y-92467671D01*
X85755908Y-92602517D01*
X85749501Y-92662116D01*
X85749500Y-92662135D01*
X85749500Y-94257870D01*
X85749501Y-94257876D01*
X85755908Y-94317483D01*
X85806202Y-94452328D01*
X85806206Y-94452335D01*
X85892452Y-94567544D01*
X85892455Y-94567547D01*
X86007664Y-94653793D01*
X86007671Y-94653797D01*
X86142517Y-94704091D01*
X86142516Y-94704091D01*
X86149444Y-94704835D01*
X86202127Y-94710500D01*
X87376000Y-94710499D01*
X87443039Y-94730184D01*
X87488794Y-94782987D01*
X87500000Y-94834499D01*
X87500000Y-104836934D01*
X87480315Y-104903973D01*
X87427511Y-104949728D01*
X87358353Y-104959672D01*
X87337682Y-104954865D01*
X87292828Y-104940291D01*
X87098422Y-104909500D01*
X87098417Y-104909500D01*
X86901583Y-104909500D01*
X86901578Y-104909500D01*
X86707173Y-104940290D01*
X86519970Y-105001117D01*
X86344594Y-105090476D01*
X86270231Y-105144505D01*
X86185354Y-105206172D01*
X86185352Y-105206174D01*
X86185351Y-105206174D01*
X86046174Y-105345351D01*
X86046174Y-105345352D01*
X86046172Y-105345354D01*
X86033920Y-105362218D01*
X85930476Y-105504594D01*
X85841117Y-105679970D01*
X85780290Y-105867173D01*
X85749500Y-106061577D01*
X85749500Y-106258422D01*
X85780290Y-106452826D01*
X85841117Y-106640029D01*
X85930476Y-106815405D01*
X86046172Y-106974646D01*
X86185354Y-107113828D01*
X86344595Y-107229524D01*
X86369668Y-107242299D01*
X86519970Y-107318882D01*
X86519972Y-107318882D01*
X86519975Y-107318884D01*
X86620317Y-107351487D01*
X86707173Y-107379709D01*
X86901578Y-107410500D01*
X86901583Y-107410500D01*
X87098422Y-107410500D01*
X87192666Y-107395572D01*
X87292826Y-107379709D01*
X87292831Y-107379707D01*
X87292833Y-107379707D01*
X87337680Y-107365135D01*
X87407521Y-107363138D01*
X87467354Y-107399218D01*
X87498183Y-107461918D01*
X87500000Y-107483065D01*
X87500000Y-142500000D01*
X92500000Y-147500000D01*
X125000000Y-147500000D01*
X127500000Y-145000000D01*
X127500000Y-141217724D01*
X133052000Y-141217724D01*
X133052000Y-141432275D01*
X133085560Y-141644170D01*
X133151859Y-141848215D01*
X133249258Y-142039368D01*
X133375362Y-142212935D01*
X133527065Y-142364638D01*
X133700632Y-142490742D01*
X133718802Y-142500000D01*
X133891784Y-142588140D01*
X133891786Y-142588140D01*
X133891789Y-142588142D01*
X134001160Y-142623678D01*
X134095829Y-142654439D01*
X134307725Y-142688000D01*
X134307730Y-142688000D01*
X134522275Y-142688000D01*
X134734170Y-142654439D01*
X134938211Y-142588142D01*
X135129368Y-142490742D01*
X135302935Y-142364638D01*
X135454638Y-142212935D01*
X135580742Y-142039368D01*
X135678142Y-141848211D01*
X135744439Y-141644170D01*
X135778000Y-141432275D01*
X135778000Y-141217724D01*
X135744439Y-141005829D01*
X135713678Y-140911160D01*
X135678142Y-140801789D01*
X135678140Y-140801786D01*
X135678140Y-140801784D01*
X135580741Y-140610631D01*
X135557648Y-140578846D01*
X135454638Y-140437065D01*
X135302935Y-140285362D01*
X135129368Y-140159258D01*
X135070347Y-140129185D01*
X134938215Y-140061859D01*
X134734170Y-139995560D01*
X134522275Y-139962000D01*
X134522270Y-139962000D01*
X134307730Y-139962000D01*
X134307725Y-139962000D01*
X134095829Y-139995560D01*
X133891784Y-140061859D01*
X133700631Y-140159258D01*
X133601605Y-140231205D01*
X133527065Y-140285362D01*
X133527063Y-140285364D01*
X133527062Y-140285364D01*
X133375364Y-140437062D01*
X133375364Y-140437063D01*
X133375362Y-140437065D01*
X133359142Y-140459390D01*
X133249258Y-140610631D01*
X133151859Y-140801784D01*
X133085560Y-141005829D01*
X133052000Y-141217724D01*
X127500000Y-141217724D01*
X127500000Y-134921153D01*
X169199500Y-134921153D01*
X169199500Y-135078846D01*
X169230261Y-135233489D01*
X169230264Y-135233501D01*
X169290602Y-135379172D01*
X169290609Y-135379185D01*
X169378210Y-135510288D01*
X169378213Y-135510292D01*
X169489707Y-135621786D01*
X169489711Y-135621789D01*
X169620814Y-135709390D01*
X169620827Y-135709397D01*
X169766498Y-135769735D01*
X169766503Y-135769737D01*
X169908560Y-135797994D01*
X169921153Y-135800499D01*
X169921156Y-135800500D01*
X169921158Y-135800500D01*
X170078844Y-135800500D01*
X170078845Y-135800499D01*
X170233497Y-135769737D01*
X170379179Y-135709394D01*
X170510289Y-135621789D01*
X170621789Y-135510289D01*
X170709394Y-135379179D01*
X170769737Y-135233497D01*
X170800500Y-135078842D01*
X170800500Y-134957948D01*
X173949110Y-134957948D01*
X173949110Y-135139051D01*
X173977439Y-135317910D01*
X174033397Y-135490136D01*
X174033398Y-135490139D01*
X174059284Y-135540941D01*
X174100478Y-135621789D01*
X174115616Y-135651497D01*
X174222051Y-135797994D01*
X174222055Y-135797999D01*
X174350110Y-135926054D01*
X174350115Y-135926058D01*
X174420043Y-135976863D01*
X174496616Y-136032496D01*
X174602094Y-136086240D01*
X174657970Y-136114711D01*
X174657973Y-136114712D01*
X174744086Y-136142691D01*
X174830201Y-136170671D01*
X174913039Y-136183791D01*
X175009059Y-136199000D01*
X175009064Y-136199000D01*
X175190161Y-136199000D01*
X175276869Y-136185265D01*
X175369019Y-136170671D01*
X175541249Y-136114711D01*
X175702604Y-136032496D01*
X175849111Y-135926053D01*
X175977163Y-135798001D01*
X176083606Y-135651494D01*
X176165821Y-135490139D01*
X176221781Y-135317909D01*
X176236375Y-135225759D01*
X176250110Y-135139051D01*
X176250110Y-134957948D01*
X176233629Y-134853897D01*
X176221781Y-134779091D01*
X176165821Y-134606861D01*
X176165821Y-134606860D01*
X176137350Y-134550984D01*
X176083606Y-134445506D01*
X176034713Y-134378210D01*
X175977168Y-134299005D01*
X175977164Y-134299000D01*
X175849109Y-134170945D01*
X175849104Y-134170941D01*
X175702607Y-134064506D01*
X175702606Y-134064505D01*
X175702604Y-134064504D01*
X175650910Y-134038164D01*
X175541249Y-133982288D01*
X175541246Y-133982287D01*
X175369020Y-133926329D01*
X175190161Y-133898000D01*
X175190156Y-133898000D01*
X175009064Y-133898000D01*
X175009059Y-133898000D01*
X174830199Y-133926329D01*
X174657973Y-133982287D01*
X174657970Y-133982288D01*
X174496612Y-134064506D01*
X174350115Y-134170941D01*
X174350110Y-134170945D01*
X174222055Y-134299000D01*
X174222051Y-134299005D01*
X174115616Y-134445502D01*
X174033398Y-134606860D01*
X174033397Y-134606863D01*
X173977439Y-134779089D01*
X173949110Y-134957948D01*
X170800500Y-134957948D01*
X170800500Y-134921158D01*
X170800500Y-134921155D01*
X170800499Y-134921153D01*
X170772241Y-134779091D01*
X170769737Y-134766503D01*
X170769735Y-134766498D01*
X170709397Y-134620827D01*
X170709390Y-134620814D01*
X170621789Y-134489711D01*
X170621786Y-134489707D01*
X170510292Y-134378213D01*
X170510288Y-134378210D01*
X170379185Y-134290609D01*
X170379172Y-134290602D01*
X170233501Y-134230264D01*
X170233489Y-134230261D01*
X170078845Y-134199500D01*
X170078842Y-134199500D01*
X169921158Y-134199500D01*
X169921155Y-134199500D01*
X169766510Y-134230261D01*
X169766498Y-134230264D01*
X169620827Y-134290602D01*
X169620814Y-134290609D01*
X169489711Y-134378210D01*
X169489707Y-134378213D01*
X169378213Y-134489707D01*
X169378210Y-134489711D01*
X169290609Y-134620814D01*
X169290602Y-134620827D01*
X169230264Y-134766498D01*
X169230261Y-134766510D01*
X169199500Y-134921153D01*
X127500000Y-134921153D01*
X127500000Y-132217948D01*
X173949110Y-132217948D01*
X173949110Y-132399051D01*
X173977439Y-132577910D01*
X174033397Y-132750136D01*
X174033398Y-132750139D01*
X174115616Y-132911497D01*
X174222051Y-133057994D01*
X174222055Y-133057999D01*
X174350110Y-133186054D01*
X174350115Y-133186058D01*
X174477897Y-133278896D01*
X174496616Y-133292496D01*
X174602094Y-133346240D01*
X174657970Y-133374711D01*
X174657973Y-133374712D01*
X174744086Y-133402691D01*
X174830201Y-133430671D01*
X174913039Y-133443791D01*
X175009059Y-133459000D01*
X175009064Y-133459000D01*
X175190161Y-133459000D01*
X175276869Y-133445265D01*
X175369019Y-133430671D01*
X175541249Y-133374711D01*
X175702604Y-133292496D01*
X175849111Y-133186053D01*
X175977163Y-133058001D01*
X176083606Y-132911494D01*
X176165821Y-132750139D01*
X176221781Y-132577909D01*
X176238252Y-132473914D01*
X176250110Y-132399051D01*
X176250110Y-132217948D01*
X176229686Y-132089000D01*
X176221781Y-132039091D01*
X176183897Y-131922493D01*
X176165822Y-131866863D01*
X176165821Y-131866860D01*
X176137350Y-131810984D01*
X176083606Y-131705506D01*
X176070006Y-131686787D01*
X175977168Y-131559005D01*
X175977164Y-131559000D01*
X175849109Y-131430945D01*
X175849104Y-131430941D01*
X175702607Y-131324506D01*
X175702606Y-131324505D01*
X175702604Y-131324504D01*
X175638488Y-131291835D01*
X175541249Y-131242288D01*
X175541246Y-131242287D01*
X175369020Y-131186329D01*
X175190161Y-131158000D01*
X175190156Y-131158000D01*
X175009064Y-131158000D01*
X175009059Y-131158000D01*
X174830199Y-131186329D01*
X174657973Y-131242287D01*
X174657970Y-131242288D01*
X174496612Y-131324506D01*
X174350115Y-131430941D01*
X174350110Y-131430945D01*
X174222055Y-131559000D01*
X174222051Y-131559005D01*
X174115616Y-131705502D01*
X174033398Y-131866860D01*
X174033397Y-131866863D01*
X173977439Y-132039089D01*
X173949110Y-132217948D01*
X127500000Y-132217948D01*
X127500000Y-130847948D01*
X171409110Y-130847948D01*
X171409110Y-131029051D01*
X171437439Y-131207910D01*
X171493397Y-131380136D01*
X171493398Y-131380139D01*
X171519284Y-131430941D01*
X171567763Y-131526086D01*
X171575616Y-131541497D01*
X171682051Y-131687994D01*
X171682055Y-131687999D01*
X171810110Y-131816054D01*
X171810115Y-131816058D01*
X171880043Y-131866863D01*
X171956616Y-131922496D01*
X172062094Y-131976240D01*
X172117970Y-132004711D01*
X172117973Y-132004712D01*
X172204086Y-132032691D01*
X172290201Y-132060671D01*
X172373039Y-132073791D01*
X172469059Y-132089000D01*
X172469064Y-132089000D01*
X172650161Y-132089000D01*
X172736869Y-132075265D01*
X172829019Y-132060671D01*
X173001249Y-132004711D01*
X173162604Y-131922496D01*
X173309111Y-131816053D01*
X173437163Y-131688001D01*
X173543606Y-131541494D01*
X173625821Y-131380139D01*
X173681781Y-131207909D01*
X173699743Y-131094500D01*
X173710110Y-131029051D01*
X173710110Y-130847948D01*
X173689686Y-130719000D01*
X173681781Y-130669091D01*
X173625821Y-130496861D01*
X173625821Y-130496860D01*
X173587904Y-130422445D01*
X173543606Y-130335506D01*
X173475888Y-130242299D01*
X173437168Y-130189005D01*
X173437164Y-130189000D01*
X173309109Y-130060945D01*
X173309104Y-130060941D01*
X173162607Y-129954506D01*
X173162606Y-129954505D01*
X173162604Y-129954504D01*
X173110910Y-129928164D01*
X173001249Y-129872288D01*
X173001246Y-129872287D01*
X172829020Y-129816329D01*
X172650161Y-129788000D01*
X172650156Y-129788000D01*
X172469064Y-129788000D01*
X172469059Y-129788000D01*
X172290199Y-129816329D01*
X172117973Y-129872287D01*
X172117970Y-129872288D01*
X171956612Y-129954506D01*
X171810115Y-130060941D01*
X171810110Y-130060945D01*
X171682055Y-130189000D01*
X171682051Y-130189005D01*
X171575616Y-130335502D01*
X171493398Y-130496860D01*
X171493397Y-130496863D01*
X171437439Y-130669089D01*
X171409110Y-130847948D01*
X127500000Y-130847948D01*
X127500000Y-129477948D01*
X173949110Y-129477948D01*
X173949110Y-129659051D01*
X173977439Y-129837910D01*
X174033397Y-130010136D01*
X174033398Y-130010139D01*
X174115616Y-130171497D01*
X174222051Y-130317994D01*
X174222055Y-130317999D01*
X174350110Y-130446054D01*
X174350115Y-130446058D01*
X174477897Y-130538896D01*
X174496616Y-130552496D01*
X174602094Y-130606240D01*
X174657970Y-130634711D01*
X174657973Y-130634712D01*
X174744086Y-130662691D01*
X174830201Y-130690671D01*
X174913039Y-130703791D01*
X175009059Y-130719000D01*
X175009064Y-130719000D01*
X175190161Y-130719000D01*
X175276869Y-130705265D01*
X175369019Y-130690671D01*
X175541249Y-130634711D01*
X175702604Y-130552496D01*
X175849111Y-130446053D01*
X175977163Y-130318001D01*
X176083606Y-130171494D01*
X176165821Y-130010139D01*
X176221781Y-129837909D01*
X176236924Y-129742299D01*
X176250110Y-129659051D01*
X176250110Y-129477948D01*
X176229686Y-129349000D01*
X176221781Y-129299091D01*
X176165821Y-129126861D01*
X176165821Y-129126860D01*
X176131126Y-129058768D01*
X176083606Y-128965506D01*
X176055338Y-128926598D01*
X175977168Y-128819005D01*
X175977164Y-128819000D01*
X175849109Y-128690945D01*
X175849104Y-128690941D01*
X175702607Y-128584506D01*
X175702606Y-128584505D01*
X175702604Y-128584504D01*
X175650910Y-128558164D01*
X175541249Y-128502288D01*
X175541246Y-128502287D01*
X175369020Y-128446329D01*
X175190161Y-128418000D01*
X175190156Y-128418000D01*
X175009064Y-128418000D01*
X175009059Y-128418000D01*
X174830199Y-128446329D01*
X174657973Y-128502287D01*
X174657970Y-128502288D01*
X174496612Y-128584506D01*
X174350115Y-128690941D01*
X174350110Y-128690945D01*
X174222055Y-128819000D01*
X174222051Y-128819005D01*
X174115616Y-128965502D01*
X174033398Y-129126860D01*
X174033397Y-129126863D01*
X173977439Y-129299089D01*
X173949110Y-129477948D01*
X127500000Y-129477948D01*
X127500000Y-128107948D01*
X171409110Y-128107948D01*
X171409110Y-128289051D01*
X171437439Y-128467910D01*
X171493397Y-128640136D01*
X171493398Y-128640139D01*
X171575616Y-128801497D01*
X171682051Y-128947994D01*
X171682055Y-128947999D01*
X171810110Y-129076054D01*
X171810115Y-129076058D01*
X171880043Y-129126863D01*
X171956616Y-129182496D01*
X172062094Y-129236240D01*
X172117970Y-129264711D01*
X172117973Y-129264712D01*
X172174481Y-129283072D01*
X172290201Y-129320671D01*
X172373039Y-129333791D01*
X172469059Y-129349000D01*
X172469064Y-129349000D01*
X172650161Y-129349000D01*
X172736869Y-129335265D01*
X172829019Y-129320671D01*
X173001249Y-129264711D01*
X173162604Y-129182496D01*
X173309111Y-129076053D01*
X173437163Y-128948001D01*
X173543606Y-128801494D01*
X173625821Y-128640139D01*
X173681781Y-128467909D01*
X173696375Y-128375759D01*
X173710110Y-128289051D01*
X173710110Y-128107948D01*
X173689686Y-127979000D01*
X173681781Y-127929091D01*
X173625821Y-127756861D01*
X173625821Y-127756860D01*
X173597350Y-127700984D01*
X173543606Y-127595506D01*
X173493170Y-127526086D01*
X173437168Y-127449005D01*
X173437164Y-127449000D01*
X173309109Y-127320945D01*
X173309104Y-127320941D01*
X173162607Y-127214506D01*
X173162606Y-127214505D01*
X173162604Y-127214504D01*
X173110910Y-127188164D01*
X173001249Y-127132288D01*
X173001246Y-127132287D01*
X172829020Y-127076329D01*
X172650161Y-127048000D01*
X172650156Y-127048000D01*
X172469064Y-127048000D01*
X172469059Y-127048000D01*
X172290199Y-127076329D01*
X172117973Y-127132287D01*
X172117970Y-127132288D01*
X171956612Y-127214506D01*
X171810115Y-127320941D01*
X171810110Y-127320945D01*
X171682055Y-127449000D01*
X171682051Y-127449005D01*
X171575616Y-127595502D01*
X171493398Y-127756860D01*
X171493397Y-127756863D01*
X171437439Y-127929089D01*
X171409110Y-128107948D01*
X127500000Y-128107948D01*
X127500000Y-125977724D01*
X133052000Y-125977724D01*
X133052000Y-126192275D01*
X133085560Y-126404170D01*
X133151859Y-126608215D01*
X133249257Y-126799366D01*
X133249258Y-126799368D01*
X133375362Y-126972935D01*
X133527065Y-127124638D01*
X133700632Y-127250742D01*
X133738695Y-127270136D01*
X133891784Y-127348140D01*
X133891786Y-127348140D01*
X133891789Y-127348142D01*
X134001160Y-127383678D01*
X134095829Y-127414439D01*
X134307725Y-127448000D01*
X134307730Y-127448000D01*
X134522275Y-127448000D01*
X134734170Y-127414439D01*
X134938211Y-127348142D01*
X135129368Y-127250742D01*
X135302935Y-127124638D01*
X135454638Y-126972935D01*
X135580742Y-126799368D01*
X135581985Y-126796926D01*
X135612037Y-126737948D01*
X173949110Y-126737948D01*
X173949110Y-126919051D01*
X173977439Y-127097910D01*
X174033397Y-127270136D01*
X174033398Y-127270139D01*
X174115616Y-127431497D01*
X174222051Y-127577994D01*
X174222055Y-127577999D01*
X174350110Y-127706054D01*
X174350115Y-127706058D01*
X174420043Y-127756863D01*
X174496616Y-127812496D01*
X174602094Y-127866240D01*
X174657970Y-127894711D01*
X174657973Y-127894712D01*
X174744086Y-127922691D01*
X174830201Y-127950671D01*
X174913039Y-127963791D01*
X175009059Y-127979000D01*
X175009064Y-127979000D01*
X175190161Y-127979000D01*
X175276869Y-127965265D01*
X175369019Y-127950671D01*
X175541249Y-127894711D01*
X175702604Y-127812496D01*
X175849111Y-127706053D01*
X175977163Y-127578001D01*
X176083606Y-127431494D01*
X176165821Y-127270139D01*
X176221781Y-127097909D01*
X176241575Y-126972935D01*
X176250110Y-126919051D01*
X176250110Y-126737948D01*
X176229561Y-126608211D01*
X176221781Y-126559091D01*
X176165821Y-126386861D01*
X176165821Y-126386860D01*
X176137350Y-126330984D01*
X176083606Y-126225506D01*
X176027202Y-126147872D01*
X175977168Y-126079005D01*
X175977164Y-126079000D01*
X175849109Y-125950945D01*
X175849104Y-125950941D01*
X175702607Y-125844506D01*
X175702606Y-125844505D01*
X175702604Y-125844504D01*
X175650910Y-125818164D01*
X175541249Y-125762288D01*
X175541246Y-125762287D01*
X175369020Y-125706329D01*
X175190161Y-125678000D01*
X175190156Y-125678000D01*
X175009064Y-125678000D01*
X175009059Y-125678000D01*
X174830199Y-125706329D01*
X174657973Y-125762287D01*
X174657970Y-125762288D01*
X174496612Y-125844506D01*
X174350115Y-125950941D01*
X174350110Y-125950945D01*
X174222055Y-126079000D01*
X174222051Y-126079005D01*
X174115616Y-126225502D01*
X174033398Y-126386860D01*
X174033397Y-126386863D01*
X173977439Y-126559089D01*
X173949110Y-126737948D01*
X135612037Y-126737948D01*
X135643202Y-126676786D01*
X135678140Y-126608215D01*
X135678140Y-126608214D01*
X135678142Y-126608211D01*
X135744439Y-126404170D01*
X135755227Y-126336058D01*
X135778000Y-126192275D01*
X135778000Y-125977724D01*
X135744439Y-125765829D01*
X135678140Y-125561784D01*
X135605579Y-125419377D01*
X135580741Y-125370631D01*
X135578792Y-125367948D01*
X171409110Y-125367948D01*
X171409110Y-125549051D01*
X171437439Y-125727910D01*
X171493397Y-125900136D01*
X171493398Y-125900139D01*
X171532934Y-125977730D01*
X171566596Y-126043796D01*
X171575616Y-126061497D01*
X171682051Y-126207994D01*
X171682055Y-126207999D01*
X171810110Y-126336054D01*
X171810115Y-126336058D01*
X171937897Y-126428896D01*
X171956616Y-126442496D01*
X172062094Y-126496240D01*
X172117970Y-126524711D01*
X172117973Y-126524712D01*
X172204086Y-126552691D01*
X172290201Y-126580671D01*
X172373039Y-126593791D01*
X172469059Y-126609000D01*
X172469064Y-126609000D01*
X172650161Y-126609000D01*
X172744288Y-126594091D01*
X172829019Y-126580671D01*
X173001249Y-126524711D01*
X173162604Y-126442496D01*
X173309111Y-126336053D01*
X173437163Y-126208001D01*
X173543606Y-126061494D01*
X173625821Y-125900139D01*
X173681781Y-125727909D01*
X173708093Y-125561784D01*
X173710110Y-125549051D01*
X173710110Y-125367948D01*
X173693629Y-125263897D01*
X173681781Y-125189091D01*
X173635082Y-125045364D01*
X173625822Y-125016863D01*
X173625821Y-125016860D01*
X173567020Y-124901459D01*
X173543606Y-124855506D01*
X173519160Y-124821859D01*
X173437168Y-124709005D01*
X173437164Y-124709000D01*
X173309109Y-124580945D01*
X173309104Y-124580941D01*
X173162607Y-124474506D01*
X173162606Y-124474505D01*
X173162604Y-124474504D01*
X173110910Y-124448164D01*
X173001249Y-124392288D01*
X173001246Y-124392287D01*
X172829020Y-124336329D01*
X172650161Y-124308000D01*
X172650156Y-124308000D01*
X172469064Y-124308000D01*
X172469059Y-124308000D01*
X172290199Y-124336329D01*
X172117973Y-124392287D01*
X172117970Y-124392288D01*
X171956612Y-124474506D01*
X171810115Y-124580941D01*
X171810110Y-124580945D01*
X171682055Y-124709000D01*
X171682051Y-124709005D01*
X171575616Y-124855502D01*
X171493398Y-125016860D01*
X171493397Y-125016863D01*
X171437439Y-125189089D01*
X171409110Y-125367948D01*
X135578792Y-125367948D01*
X135454638Y-125197065D01*
X135302935Y-125045362D01*
X135129368Y-124919258D01*
X135094436Y-124901459D01*
X134938215Y-124821859D01*
X134734170Y-124755560D01*
X134522275Y-124722000D01*
X134522270Y-124722000D01*
X134307730Y-124722000D01*
X134307725Y-124722000D01*
X134095829Y-124755560D01*
X133891784Y-124821859D01*
X133700631Y-124919258D01*
X133601605Y-124991205D01*
X133527065Y-125045362D01*
X133527063Y-125045364D01*
X133527062Y-125045364D01*
X133375364Y-125197062D01*
X133375364Y-125197063D01*
X133375362Y-125197065D01*
X133321205Y-125271605D01*
X133249258Y-125370631D01*
X133151859Y-125561784D01*
X133085560Y-125765829D01*
X133052000Y-125977724D01*
X127500000Y-125977724D01*
X127500000Y-122551362D01*
X127519685Y-122484323D01*
X127536319Y-122463681D01*
X130782276Y-119217724D01*
X133137000Y-119217724D01*
X133137000Y-119432275D01*
X133170560Y-119644170D01*
X133236859Y-119848215D01*
X133314199Y-120000000D01*
X133334258Y-120039368D01*
X133460362Y-120212935D01*
X133612065Y-120364638D01*
X133785632Y-120490742D01*
X133803802Y-120500000D01*
X133976784Y-120588140D01*
X133976786Y-120588140D01*
X133976789Y-120588142D01*
X134086160Y-120623678D01*
X134180829Y-120654439D01*
X134392725Y-120688000D01*
X134392730Y-120688000D01*
X134607275Y-120688000D01*
X134819170Y-120654439D01*
X135023211Y-120588142D01*
X135214368Y-120490742D01*
X135387935Y-120364638D01*
X135539638Y-120212935D01*
X135665742Y-120039368D01*
X135763142Y-119848211D01*
X135829439Y-119644170D01*
X135839785Y-119578846D01*
X135863000Y-119432275D01*
X135863000Y-119421153D01*
X142699500Y-119421153D01*
X142699500Y-119578846D01*
X142730261Y-119733489D01*
X142730264Y-119733501D01*
X142790602Y-119879172D01*
X142790609Y-119879185D01*
X142878210Y-120010288D01*
X142878213Y-120010292D01*
X142989707Y-120121786D01*
X142989711Y-120121789D01*
X143120814Y-120209390D01*
X143120827Y-120209397D01*
X143266498Y-120269735D01*
X143266503Y-120269737D01*
X143421153Y-120300499D01*
X143421156Y-120300500D01*
X143421158Y-120300500D01*
X143578844Y-120300500D01*
X143578845Y-120300499D01*
X143733497Y-120269737D01*
X143846166Y-120223067D01*
X143879172Y-120209397D01*
X143879172Y-120209396D01*
X143879179Y-120209394D01*
X144010289Y-120121789D01*
X144121789Y-120010289D01*
X144209394Y-119879179D01*
X144269737Y-119733497D01*
X144300500Y-119578842D01*
X144300500Y-119421158D01*
X144300500Y-119421155D01*
X144300499Y-119421153D01*
X144269738Y-119266510D01*
X144269737Y-119266503D01*
X144249203Y-119216928D01*
X144209397Y-119120827D01*
X144209390Y-119120814D01*
X144121789Y-118989711D01*
X144121786Y-118989707D01*
X144010292Y-118878213D01*
X144010288Y-118878210D01*
X143879185Y-118790609D01*
X143879172Y-118790602D01*
X143733501Y-118730264D01*
X143733489Y-118730261D01*
X143578845Y-118699500D01*
X143578842Y-118699500D01*
X143421158Y-118699500D01*
X143421155Y-118699500D01*
X143266510Y-118730261D01*
X143266498Y-118730264D01*
X143120827Y-118790602D01*
X143120814Y-118790609D01*
X142989711Y-118878210D01*
X142989707Y-118878213D01*
X142878213Y-118989707D01*
X142878210Y-118989711D01*
X142790609Y-119120814D01*
X142790602Y-119120827D01*
X142730264Y-119266498D01*
X142730261Y-119266510D01*
X142699500Y-119421153D01*
X135863000Y-119421153D01*
X135863000Y-119217724D01*
X135829439Y-119005829D01*
X135763140Y-118801784D01*
X135665741Y-118610631D01*
X135539638Y-118437065D01*
X135387935Y-118285362D01*
X135214368Y-118159258D01*
X135023215Y-118061859D01*
X134819170Y-117995560D01*
X134607275Y-117962000D01*
X134607270Y-117962000D01*
X134392730Y-117962000D01*
X134392725Y-117962000D01*
X134180829Y-117995560D01*
X133976784Y-118061859D01*
X133785631Y-118159258D01*
X133686605Y-118231205D01*
X133612065Y-118285362D01*
X133612063Y-118285364D01*
X133612062Y-118285364D01*
X133460364Y-118437062D01*
X133460364Y-118437063D01*
X133460362Y-118437065D01*
X133433590Y-118473914D01*
X133334258Y-118610631D01*
X133236859Y-118801784D01*
X133170560Y-119005829D01*
X133137000Y-119217724D01*
X130782276Y-119217724D01*
X133078847Y-116921153D01*
X148199500Y-116921153D01*
X148199500Y-117078846D01*
X148230261Y-117233489D01*
X148230264Y-117233501D01*
X148290602Y-117379172D01*
X148290609Y-117379185D01*
X148378210Y-117510288D01*
X148378213Y-117510292D01*
X148489707Y-117621786D01*
X148489711Y-117621789D01*
X148620814Y-117709390D01*
X148620827Y-117709397D01*
X148766498Y-117769735D01*
X148766503Y-117769737D01*
X148921153Y-117800499D01*
X148921156Y-117800500D01*
X148921158Y-117800500D01*
X149078844Y-117800500D01*
X149078845Y-117800499D01*
X149233497Y-117769737D01*
X149379179Y-117709394D01*
X149510289Y-117621789D01*
X149621789Y-117510289D01*
X149709394Y-117379179D01*
X149762053Y-117252048D01*
X149805893Y-117197644D01*
X149872187Y-117175579D01*
X149876614Y-117175500D01*
X152097270Y-117175500D01*
X152164309Y-117195185D01*
X152210064Y-117247989D01*
X152220008Y-117317147D01*
X152218887Y-117323692D01*
X152199500Y-117421155D01*
X152199500Y-117578846D01*
X152230261Y-117733489D01*
X152230264Y-117733501D01*
X152290602Y-117879172D01*
X152290609Y-117879185D01*
X152378210Y-118010288D01*
X152378213Y-118010292D01*
X152489707Y-118121786D01*
X152489711Y-118121789D01*
X152620814Y-118209390D01*
X152620827Y-118209397D01*
X152700261Y-118242299D01*
X152766503Y-118269737D01*
X152921153Y-118300499D01*
X152921156Y-118300500D01*
X152921158Y-118300500D01*
X153078844Y-118300500D01*
X153078845Y-118300499D01*
X153233497Y-118269737D01*
X153379179Y-118209394D01*
X153510289Y-118121789D01*
X153621789Y-118010289D01*
X153709394Y-117879179D01*
X153769737Y-117733497D01*
X153800500Y-117578842D01*
X153800500Y-117421158D01*
X153800500Y-117421155D01*
X153781113Y-117323692D01*
X153787340Y-117254100D01*
X153830203Y-117198923D01*
X153896093Y-117175678D01*
X153902730Y-117175500D01*
X155032480Y-117175500D01*
X155099519Y-117195185D01*
X155101372Y-117196399D01*
X155120813Y-117209389D01*
X155120815Y-117209390D01*
X155120821Y-117209394D01*
X155120823Y-117209395D01*
X155120827Y-117209397D01*
X155258695Y-117266503D01*
X155266503Y-117269737D01*
X155421153Y-117300499D01*
X155421156Y-117300500D01*
X155421158Y-117300500D01*
X155578844Y-117300500D01*
X155578845Y-117300499D01*
X155733497Y-117269737D01*
X155879179Y-117209394D01*
X156010289Y-117121789D01*
X156121789Y-117010289D01*
X156209394Y-116879179D01*
X156269737Y-116733497D01*
X156300500Y-116578842D01*
X156300500Y-116421158D01*
X156300500Y-116421155D01*
X156300499Y-116421153D01*
X156274531Y-116290606D01*
X156269737Y-116266503D01*
X156252835Y-116225698D01*
X156209397Y-116120827D01*
X156209390Y-116120814D01*
X156121789Y-115989711D01*
X156121786Y-115989707D01*
X156010292Y-115878213D01*
X156010288Y-115878210D01*
X155879185Y-115790609D01*
X155879172Y-115790602D01*
X155733501Y-115730264D01*
X155733489Y-115730261D01*
X155578845Y-115699500D01*
X155578842Y-115699500D01*
X155421158Y-115699500D01*
X155421150Y-115699500D01*
X155420174Y-115699596D01*
X155419668Y-115699500D01*
X155415066Y-115699500D01*
X155415066Y-115698626D01*
X155388064Y-115693500D01*
X155355748Y-115688626D01*
X155353919Y-115687019D01*
X155351530Y-115686566D01*
X155327813Y-115664080D01*
X155303262Y-115642507D01*
X155302164Y-115639762D01*
X155300827Y-115638494D01*
X155288823Y-115610302D01*
X155287418Y-115605393D01*
X155269737Y-115516503D01*
X155230242Y-115421153D01*
X160199500Y-115421153D01*
X160199500Y-115578846D01*
X160230261Y-115733489D01*
X160230264Y-115733501D01*
X160290602Y-115879172D01*
X160290609Y-115879185D01*
X160378210Y-116010288D01*
X160378213Y-116010292D01*
X160489707Y-116121786D01*
X160489711Y-116121789D01*
X160620814Y-116209390D01*
X160620827Y-116209397D01*
X160758683Y-116266498D01*
X160766503Y-116269737D01*
X160921153Y-116300499D01*
X160921156Y-116300500D01*
X160921158Y-116300500D01*
X161078844Y-116300500D01*
X161078845Y-116300499D01*
X161233497Y-116269737D01*
X161379179Y-116209394D01*
X161510289Y-116121789D01*
X161621789Y-116010289D01*
X161709394Y-115879179D01*
X161769737Y-115733497D01*
X161800500Y-115578842D01*
X161800500Y-115421158D01*
X161800500Y-115421155D01*
X161800499Y-115421153D01*
X161769738Y-115266510D01*
X161769737Y-115266503D01*
X161769735Y-115266498D01*
X161709397Y-115120827D01*
X161709390Y-115120814D01*
X161621789Y-114989711D01*
X161621786Y-114989707D01*
X161510292Y-114878213D01*
X161510288Y-114878210D01*
X161379185Y-114790609D01*
X161379172Y-114790602D01*
X161233501Y-114730264D01*
X161233489Y-114730261D01*
X161078845Y-114699500D01*
X161078842Y-114699500D01*
X160921158Y-114699500D01*
X160921155Y-114699500D01*
X160766510Y-114730261D01*
X160766498Y-114730264D01*
X160620827Y-114790602D01*
X160620814Y-114790609D01*
X160489711Y-114878210D01*
X160489707Y-114878213D01*
X160378213Y-114989707D01*
X160378210Y-114989711D01*
X160290609Y-115120814D01*
X160290602Y-115120827D01*
X160230264Y-115266498D01*
X160230261Y-115266510D01*
X160199500Y-115421153D01*
X155230242Y-115421153D01*
X155209397Y-115370827D01*
X155209390Y-115370814D01*
X155121789Y-115239711D01*
X155121786Y-115239707D01*
X155010292Y-115128213D01*
X155010288Y-115128210D01*
X154879185Y-115040609D01*
X154879172Y-115040602D01*
X154733501Y-114980264D01*
X154733489Y-114980261D01*
X154578845Y-114949500D01*
X154578842Y-114949500D01*
X154421158Y-114949500D01*
X154421155Y-114949500D01*
X154266510Y-114980261D01*
X154266498Y-114980264D01*
X154120827Y-115040602D01*
X154120814Y-115040609D01*
X153989711Y-115128210D01*
X153989707Y-115128213D01*
X153878213Y-115239707D01*
X153878210Y-115239711D01*
X153790609Y-115370814D01*
X153790602Y-115370827D01*
X153730264Y-115516498D01*
X153730261Y-115516510D01*
X153699500Y-115671153D01*
X153699500Y-115700500D01*
X153679815Y-115767539D01*
X153627011Y-115813294D01*
X153575500Y-115824500D01*
X149433464Y-115824500D01*
X149302971Y-115850457D01*
X149302963Y-115850459D01*
X149235965Y-115878211D01*
X149180034Y-115901378D01*
X149146874Y-115923535D01*
X149069395Y-115975304D01*
X148852935Y-116191763D01*
X148791612Y-116225247D01*
X148789449Y-116225698D01*
X148766503Y-116230262D01*
X148766500Y-116230263D01*
X148620827Y-116290602D01*
X148620814Y-116290609D01*
X148489711Y-116378210D01*
X148489707Y-116378213D01*
X148378213Y-116489707D01*
X148378210Y-116489711D01*
X148290609Y-116620814D01*
X148290602Y-116620827D01*
X148230264Y-116766498D01*
X148230261Y-116766510D01*
X148199500Y-116921153D01*
X133078847Y-116921153D01*
X137463681Y-112536319D01*
X137525004Y-112502834D01*
X137551362Y-112500000D01*
X162448638Y-112500000D01*
X162515677Y-112519685D01*
X162536319Y-112536319D01*
X170000000Y-120000000D01*
X186875500Y-120000000D01*
X186942539Y-120019685D01*
X186988294Y-120072489D01*
X186999500Y-120124000D01*
X186999500Y-159375500D01*
X186979815Y-159442539D01*
X186927011Y-159488294D01*
X186875500Y-159499500D01*
X75624500Y-159499500D01*
X75557461Y-159479815D01*
X75511706Y-159427011D01*
X75500500Y-159375500D01*
X75500500Y-152272092D01*
X76699500Y-152272092D01*
X76699500Y-152727907D01*
X76735262Y-153182302D01*
X76735262Y-153182303D01*
X76801498Y-153600498D01*
X76806566Y-153632494D01*
X76912971Y-154075705D01*
X77053823Y-154509200D01*
X77053827Y-154509212D01*
X77175281Y-154802426D01*
X77228252Y-154930309D01*
X77435182Y-155336434D01*
X77435189Y-155336447D01*
X77435192Y-155336452D01*
X77673333Y-155725061D01*
X77673338Y-155725068D01*
X77673340Y-155725071D01*
X77941255Y-156093825D01*
X78237276Y-156440421D01*
X78559579Y-156762724D01*
X78906175Y-157058745D01*
X79274929Y-157326660D01*
X79274933Y-157326662D01*
X79274938Y-157326666D01*
X79663547Y-157564807D01*
X79663552Y-157564810D01*
X79663557Y-157564812D01*
X79663566Y-157564818D01*
X80069691Y-157771748D01*
X80490799Y-157946177D01*
X80924295Y-158087029D01*
X81367506Y-158193434D01*
X81817698Y-158264738D01*
X82272098Y-158300500D01*
X82272106Y-158300500D01*
X82727894Y-158300500D01*
X82727902Y-158300500D01*
X83182302Y-158264738D01*
X83632494Y-158193434D01*
X84075705Y-158087029D01*
X84509201Y-157946177D01*
X84930309Y-157771748D01*
X85336434Y-157564818D01*
X85725071Y-157326660D01*
X86093825Y-157058745D01*
X86440421Y-156762724D01*
X86762724Y-156440421D01*
X87058745Y-156093825D01*
X87326660Y-155725071D01*
X87564818Y-155336434D01*
X87771748Y-154930309D01*
X87946177Y-154509201D01*
X88087029Y-154075705D01*
X88193434Y-153632494D01*
X88264738Y-153182302D01*
X88300500Y-152727902D01*
X88300500Y-152272098D01*
X88267448Y-151852135D01*
X111499500Y-151852135D01*
X111499500Y-153147870D01*
X111499501Y-153147876D01*
X111505908Y-153207483D01*
X111556202Y-153342328D01*
X111556206Y-153342335D01*
X111642452Y-153457544D01*
X111642455Y-153457547D01*
X111757664Y-153543793D01*
X111757671Y-153543797D01*
X111892517Y-153594091D01*
X111892516Y-153594091D01*
X111899444Y-153594835D01*
X111952127Y-153600500D01*
X113247872Y-153600499D01*
X113307483Y-153594091D01*
X113442331Y-153543796D01*
X113557546Y-153457546D01*
X113643796Y-153342331D01*
X113694091Y-153207483D01*
X113700500Y-153147873D01*
X113700499Y-151852135D01*
X122899500Y-151852135D01*
X122899500Y-153147870D01*
X122899501Y-153147876D01*
X122905908Y-153207483D01*
X122956202Y-153342328D01*
X122956206Y-153342335D01*
X123042452Y-153457544D01*
X123042455Y-153457547D01*
X123157664Y-153543793D01*
X123157671Y-153543797D01*
X123292517Y-153594091D01*
X123292516Y-153594091D01*
X123299444Y-153594835D01*
X123352127Y-153600500D01*
X124647872Y-153600499D01*
X124707483Y-153594091D01*
X124842331Y-153543796D01*
X124957546Y-153457546D01*
X125043796Y-153342331D01*
X125094091Y-153207483D01*
X125100500Y-153147873D01*
X125100499Y-151852135D01*
X134399500Y-151852135D01*
X134399500Y-153147870D01*
X134399501Y-153147876D01*
X134405908Y-153207483D01*
X134456202Y-153342328D01*
X134456206Y-153342335D01*
X134542452Y-153457544D01*
X134542455Y-153457547D01*
X134657664Y-153543793D01*
X134657671Y-153543797D01*
X134792517Y-153594091D01*
X134792516Y-153594091D01*
X134799444Y-153594835D01*
X134852127Y-153600500D01*
X136147872Y-153600499D01*
X136207483Y-153594091D01*
X136342331Y-153543796D01*
X136457546Y-153457546D01*
X136543796Y-153342331D01*
X136594091Y-153207483D01*
X136600500Y-153147873D01*
X136600499Y-151852135D01*
X145899500Y-151852135D01*
X145899500Y-153147870D01*
X145899501Y-153147876D01*
X145905908Y-153207483D01*
X145956202Y-153342328D01*
X145956206Y-153342335D01*
X146042452Y-153457544D01*
X146042455Y-153457547D01*
X146157664Y-153543793D01*
X146157671Y-153543797D01*
X146292517Y-153594091D01*
X146292516Y-153594091D01*
X146299444Y-153594835D01*
X146352127Y-153600500D01*
X147647872Y-153600499D01*
X147707483Y-153594091D01*
X147842331Y-153543796D01*
X147957546Y-153457546D01*
X148043796Y-153342331D01*
X148094091Y-153207483D01*
X148100500Y-153147873D01*
X148100499Y-152352135D01*
X157399500Y-152352135D01*
X157399500Y-153647870D01*
X157399501Y-153647876D01*
X157405908Y-153707483D01*
X157456202Y-153842328D01*
X157456206Y-153842335D01*
X157542452Y-153957544D01*
X157542455Y-153957547D01*
X157657664Y-154043793D01*
X157657671Y-154043797D01*
X157792517Y-154094091D01*
X157792516Y-154094091D01*
X157799444Y-154094835D01*
X157852127Y-154100500D01*
X159147872Y-154100499D01*
X159207483Y-154094091D01*
X159342331Y-154043796D01*
X159457546Y-153957546D01*
X159543796Y-153842331D01*
X159594091Y-153707483D01*
X159600500Y-153647873D01*
X159600499Y-152352135D01*
X168899500Y-152352135D01*
X168899500Y-153647870D01*
X168899501Y-153647876D01*
X168905908Y-153707483D01*
X168956202Y-153842328D01*
X168956206Y-153842335D01*
X169042452Y-153957544D01*
X169042455Y-153957547D01*
X169157664Y-154043793D01*
X169157671Y-154043797D01*
X169292517Y-154094091D01*
X169292516Y-154094091D01*
X169299444Y-154094835D01*
X169352127Y-154100500D01*
X170647872Y-154100499D01*
X170707483Y-154094091D01*
X170842331Y-154043796D01*
X170957546Y-153957546D01*
X171043796Y-153842331D01*
X171094091Y-153707483D01*
X171100500Y-153647873D01*
X171100499Y-152352128D01*
X171094091Y-152292517D01*
X171086475Y-152272098D01*
X171086473Y-152272092D01*
X174199500Y-152272092D01*
X174199500Y-152727907D01*
X174235262Y-153182302D01*
X174235262Y-153182303D01*
X174301498Y-153600498D01*
X174306566Y-153632494D01*
X174412971Y-154075705D01*
X174553823Y-154509200D01*
X174553827Y-154509212D01*
X174675281Y-154802426D01*
X174728252Y-154930309D01*
X174935182Y-155336434D01*
X174935189Y-155336447D01*
X174935192Y-155336452D01*
X175173333Y-155725061D01*
X175173338Y-155725068D01*
X175173340Y-155725071D01*
X175441255Y-156093825D01*
X175737276Y-156440421D01*
X176059579Y-156762724D01*
X176406175Y-157058745D01*
X176774929Y-157326660D01*
X176774933Y-157326662D01*
X176774938Y-157326666D01*
X177163547Y-157564807D01*
X177163552Y-157564810D01*
X177163557Y-157564812D01*
X177163566Y-157564818D01*
X177569691Y-157771748D01*
X177990799Y-157946177D01*
X178424295Y-158087029D01*
X178867506Y-158193434D01*
X179317698Y-158264738D01*
X179772098Y-158300500D01*
X179772106Y-158300500D01*
X180227894Y-158300500D01*
X180227902Y-158300500D01*
X180682302Y-158264738D01*
X181132494Y-158193434D01*
X181575705Y-158087029D01*
X182009201Y-157946177D01*
X182430309Y-157771748D01*
X182836434Y-157564818D01*
X183225071Y-157326660D01*
X183593825Y-157058745D01*
X183940421Y-156762724D01*
X184262724Y-156440421D01*
X184558745Y-156093825D01*
X184826660Y-155725071D01*
X185064818Y-155336434D01*
X185271748Y-154930309D01*
X185446177Y-154509201D01*
X185587029Y-154075705D01*
X185693434Y-153632494D01*
X185764738Y-153182302D01*
X185800500Y-152727902D01*
X185800500Y-152272098D01*
X185764738Y-151817698D01*
X185693434Y-151367506D01*
X185587029Y-150924295D01*
X185446177Y-150490799D01*
X185271748Y-150069691D01*
X185064818Y-149663566D01*
X185064812Y-149663557D01*
X185064810Y-149663552D01*
X185064807Y-149663547D01*
X184826666Y-149274938D01*
X184826662Y-149274933D01*
X184826660Y-149274929D01*
X184558745Y-148906175D01*
X184262724Y-148559579D01*
X183940421Y-148237276D01*
X183593825Y-147941255D01*
X183225071Y-147673340D01*
X183225068Y-147673338D01*
X183225061Y-147673333D01*
X182836452Y-147435192D01*
X182836447Y-147435189D01*
X182836437Y-147435184D01*
X182836434Y-147435182D01*
X182430309Y-147228252D01*
X182302426Y-147175281D01*
X182009212Y-147053827D01*
X182009205Y-147053824D01*
X182009201Y-147053823D01*
X181575705Y-146912971D01*
X181132494Y-146806566D01*
X180682302Y-146735262D01*
X180227907Y-146699500D01*
X180227902Y-146699500D01*
X179772098Y-146699500D01*
X179772092Y-146699500D01*
X179317697Y-146735262D01*
X179317696Y-146735262D01*
X178867511Y-146806565D01*
X178867508Y-146806565D01*
X178867506Y-146806566D01*
X178708784Y-146844671D01*
X178424306Y-146912968D01*
X178424301Y-146912969D01*
X178424295Y-146912971D01*
X177990799Y-147053823D01*
X177990787Y-147053827D01*
X177569693Y-147228251D01*
X177163552Y-147435189D01*
X177163547Y-147435192D01*
X176774938Y-147673333D01*
X176774927Y-147673341D01*
X176406182Y-147941249D01*
X176406168Y-147941260D01*
X176059585Y-148237270D01*
X176059571Y-148237283D01*
X175737283Y-148559571D01*
X175737270Y-148559585D01*
X175441260Y-148906168D01*
X175441249Y-148906182D01*
X175173341Y-149274927D01*
X175173333Y-149274938D01*
X174935192Y-149663547D01*
X174935189Y-149663552D01*
X174728251Y-150069693D01*
X174553827Y-150490787D01*
X174553823Y-150490799D01*
X174412971Y-150924295D01*
X174412969Y-150924301D01*
X174412968Y-150924306D01*
X174306565Y-151367511D01*
X174235262Y-151817696D01*
X174235262Y-151817697D01*
X174199500Y-152272092D01*
X171086473Y-152272092D01*
X171043797Y-152157671D01*
X171043793Y-152157664D01*
X170957547Y-152042455D01*
X170957544Y-152042452D01*
X170842335Y-151956206D01*
X170842328Y-151956202D01*
X170707482Y-151905908D01*
X170707483Y-151905908D01*
X170647883Y-151899501D01*
X170647881Y-151899500D01*
X170647873Y-151899500D01*
X170647864Y-151899500D01*
X169352129Y-151899500D01*
X169352123Y-151899501D01*
X169292516Y-151905908D01*
X169157671Y-151956202D01*
X169157664Y-151956206D01*
X169042455Y-152042452D01*
X169042452Y-152042455D01*
X168956206Y-152157664D01*
X168956202Y-152157671D01*
X168905908Y-152292517D01*
X168899501Y-152352116D01*
X168899501Y-152352123D01*
X168899500Y-152352135D01*
X159600499Y-152352135D01*
X159600499Y-152352128D01*
X159594091Y-152292517D01*
X159586475Y-152272098D01*
X159543797Y-152157671D01*
X159543793Y-152157664D01*
X159457547Y-152042455D01*
X159457544Y-152042452D01*
X159342335Y-151956206D01*
X159342328Y-151956202D01*
X159207482Y-151905908D01*
X159207483Y-151905908D01*
X159147883Y-151899501D01*
X159147881Y-151899500D01*
X159147873Y-151899500D01*
X159147864Y-151899500D01*
X157852129Y-151899500D01*
X157852123Y-151899501D01*
X157792516Y-151905908D01*
X157657671Y-151956202D01*
X157657664Y-151956206D01*
X157542455Y-152042452D01*
X157542452Y-152042455D01*
X157456206Y-152157664D01*
X157456202Y-152157671D01*
X157405908Y-152292517D01*
X157399501Y-152352116D01*
X157399501Y-152352123D01*
X157399500Y-152352135D01*
X148100499Y-152352135D01*
X148100499Y-151852128D01*
X148094091Y-151792517D01*
X148043796Y-151657669D01*
X148043795Y-151657668D01*
X148043793Y-151657664D01*
X147957547Y-151542455D01*
X147957544Y-151542452D01*
X147842335Y-151456206D01*
X147842328Y-151456202D01*
X147707482Y-151405908D01*
X147707483Y-151405908D01*
X147647883Y-151399501D01*
X147647881Y-151399500D01*
X147647873Y-151399500D01*
X147647864Y-151399500D01*
X146352129Y-151399500D01*
X146352123Y-151399501D01*
X146292516Y-151405908D01*
X146157671Y-151456202D01*
X146157664Y-151456206D01*
X146042455Y-151542452D01*
X146042452Y-151542455D01*
X145956206Y-151657664D01*
X145956202Y-151657671D01*
X145905908Y-151792517D01*
X145899501Y-151852116D01*
X145899501Y-151852123D01*
X145899500Y-151852135D01*
X136600499Y-151852135D01*
X136600499Y-151852128D01*
X136594091Y-151792517D01*
X136543796Y-151657669D01*
X136543795Y-151657668D01*
X136543793Y-151657664D01*
X136457547Y-151542455D01*
X136457544Y-151542452D01*
X136342335Y-151456206D01*
X136342328Y-151456202D01*
X136207482Y-151405908D01*
X136207483Y-151405908D01*
X136147883Y-151399501D01*
X136147881Y-151399500D01*
X136147873Y-151399500D01*
X136147864Y-151399500D01*
X134852129Y-151399500D01*
X134852123Y-151399501D01*
X134792516Y-151405908D01*
X134657671Y-151456202D01*
X134657664Y-151456206D01*
X134542455Y-151542452D01*
X134542452Y-151542455D01*
X134456206Y-151657664D01*
X134456202Y-151657671D01*
X134405908Y-151792517D01*
X134399501Y-151852116D01*
X134399501Y-151852123D01*
X134399500Y-151852135D01*
X125100499Y-151852135D01*
X125100499Y-151852128D01*
X125094091Y-151792517D01*
X125043796Y-151657669D01*
X125043795Y-151657668D01*
X125043793Y-151657664D01*
X124957547Y-151542455D01*
X124957544Y-151542452D01*
X124842335Y-151456206D01*
X124842328Y-151456202D01*
X124707482Y-151405908D01*
X124707483Y-151405908D01*
X124647883Y-151399501D01*
X124647881Y-151399500D01*
X124647873Y-151399500D01*
X124647864Y-151399500D01*
X123352129Y-151399500D01*
X123352123Y-151399501D01*
X123292516Y-151405908D01*
X123157671Y-151456202D01*
X123157664Y-151456206D01*
X123042455Y-151542452D01*
X123042452Y-151542455D01*
X122956206Y-151657664D01*
X122956202Y-151657671D01*
X122905908Y-151792517D01*
X122899501Y-151852116D01*
X122899501Y-151852123D01*
X122899500Y-151852135D01*
X113700499Y-151852135D01*
X113700499Y-151852128D01*
X113694091Y-151792517D01*
X113643796Y-151657669D01*
X113643795Y-151657668D01*
X113643793Y-151657664D01*
X113557547Y-151542455D01*
X113557544Y-151542452D01*
X113442335Y-151456206D01*
X113442328Y-151456202D01*
X113307482Y-151405908D01*
X113307483Y-151405908D01*
X113247883Y-151399501D01*
X113247881Y-151399500D01*
X113247873Y-151399500D01*
X113247864Y-151399500D01*
X111952129Y-151399500D01*
X111952123Y-151399501D01*
X111892516Y-151405908D01*
X111757671Y-151456202D01*
X111757664Y-151456206D01*
X111642455Y-151542452D01*
X111642452Y-151542455D01*
X111556206Y-151657664D01*
X111556202Y-151657671D01*
X111505908Y-151792517D01*
X111499501Y-151852116D01*
X111499501Y-151852123D01*
X111499500Y-151852135D01*
X88267448Y-151852135D01*
X88264738Y-151817698D01*
X88193434Y-151367506D01*
X88087029Y-150924295D01*
X87946177Y-150490799D01*
X87771748Y-150069691D01*
X87564818Y-149663566D01*
X87564812Y-149663557D01*
X87564810Y-149663552D01*
X87564807Y-149663547D01*
X87326666Y-149274938D01*
X87326662Y-149274933D01*
X87326660Y-149274929D01*
X87058745Y-148906175D01*
X86796002Y-148598543D01*
X157749499Y-148598543D01*
X157787947Y-148791829D01*
X157787950Y-148791839D01*
X157863364Y-148973907D01*
X157863371Y-148973920D01*
X157972860Y-149137781D01*
X157972863Y-149137785D01*
X158112214Y-149277136D01*
X158112218Y-149277139D01*
X158276079Y-149386628D01*
X158276092Y-149386635D01*
X158458160Y-149462049D01*
X158458165Y-149462051D01*
X158458169Y-149462051D01*
X158458170Y-149462052D01*
X158651456Y-149500500D01*
X158651459Y-149500500D01*
X161598543Y-149500500D01*
X161647215Y-149490818D01*
X161762632Y-149467860D01*
X161791836Y-149462051D01*
X161845165Y-149439961D01*
X161973914Y-149386632D01*
X162137782Y-149277139D01*
X162277139Y-149137782D01*
X162277140Y-149137779D01*
X162284206Y-149130714D01*
X162284209Y-149130710D01*
X171181818Y-140233100D01*
X171243139Y-140199617D01*
X171312831Y-140204601D01*
X171368764Y-140246473D01*
X171372596Y-140251887D01*
X171378210Y-140260288D01*
X171378213Y-140260292D01*
X171489707Y-140371786D01*
X171489711Y-140371789D01*
X171620814Y-140459390D01*
X171620827Y-140459397D01*
X171766498Y-140519735D01*
X171766503Y-140519737D01*
X171921153Y-140550499D01*
X171921156Y-140550500D01*
X171921158Y-140550500D01*
X172078844Y-140550500D01*
X172078845Y-140550499D01*
X172233497Y-140519737D01*
X172379179Y-140459394D01*
X172510289Y-140371789D01*
X172621789Y-140260289D01*
X172709394Y-140129179D01*
X172712854Y-140120827D01*
X172767163Y-139989711D01*
X172769737Y-139983497D01*
X172800500Y-139828842D01*
X172800500Y-139671158D01*
X172800500Y-139671155D01*
X172800499Y-139671153D01*
X172790679Y-139621786D01*
X172769737Y-139516503D01*
X172767163Y-139510288D01*
X172709397Y-139370827D01*
X172709390Y-139370814D01*
X172621789Y-139239711D01*
X172621786Y-139239707D01*
X172510289Y-139128210D01*
X172501892Y-139122600D01*
X172488382Y-139106434D01*
X172471516Y-139093809D01*
X172466426Y-139080163D01*
X172457087Y-139068988D01*
X172454461Y-139048084D01*
X172447099Y-139028345D01*
X172450194Y-139014113D01*
X172448380Y-138999663D01*
X172457472Y-138980657D01*
X172461951Y-138960072D01*
X172476832Y-138940192D01*
X172478534Y-138936636D01*
X172483070Y-138931849D01*
X172493766Y-138921153D01*
X175699500Y-138921153D01*
X175699500Y-139078846D01*
X175730261Y-139233489D01*
X175730264Y-139233501D01*
X175790602Y-139379172D01*
X175790609Y-139379185D01*
X175878210Y-139510288D01*
X175878213Y-139510292D01*
X175989707Y-139621786D01*
X175989711Y-139621789D01*
X176120814Y-139709390D01*
X176120827Y-139709397D01*
X176201847Y-139742956D01*
X176266503Y-139769737D01*
X176421153Y-139800499D01*
X176421156Y-139800500D01*
X176421158Y-139800500D01*
X176578844Y-139800500D01*
X176578845Y-139800499D01*
X176733497Y-139769737D01*
X176780121Y-139750424D01*
X176849588Y-139742956D01*
X176912067Y-139774231D01*
X176947720Y-139834319D01*
X176945227Y-139904144D01*
X176915254Y-139952666D01*
X176878214Y-139989706D01*
X176878210Y-139989711D01*
X176790609Y-140120814D01*
X176790602Y-140120827D01*
X176730264Y-140266498D01*
X176730261Y-140266510D01*
X176699500Y-140421153D01*
X176699500Y-140578846D01*
X176730261Y-140733489D01*
X176730264Y-140733501D01*
X176790602Y-140879172D01*
X176790609Y-140879185D01*
X176878210Y-141010288D01*
X176878213Y-141010292D01*
X176989707Y-141121786D01*
X176989711Y-141121789D01*
X177120814Y-141209390D01*
X177120827Y-141209397D01*
X177266498Y-141269735D01*
X177266503Y-141269737D01*
X177421153Y-141300499D01*
X177421156Y-141300500D01*
X177421158Y-141300500D01*
X177578844Y-141300500D01*
X177578845Y-141300499D01*
X177733497Y-141269737D01*
X177859054Y-141217730D01*
X177879172Y-141209397D01*
X177879172Y-141209396D01*
X177879179Y-141209394D01*
X178010289Y-141121789D01*
X178121789Y-141010289D01*
X178209394Y-140879179D01*
X178269737Y-140733497D01*
X178300500Y-140578842D01*
X178300500Y-140421158D01*
X178300500Y-140421155D01*
X178300499Y-140421153D01*
X178290679Y-140371786D01*
X178269737Y-140266503D01*
X178225315Y-140159258D01*
X178209397Y-140120827D01*
X178209390Y-140120814D01*
X178121789Y-139989711D01*
X178121786Y-139989707D01*
X178010292Y-139878213D01*
X178010288Y-139878210D01*
X177879185Y-139790609D01*
X177879172Y-139790602D01*
X177733501Y-139730264D01*
X177733489Y-139730261D01*
X177578845Y-139699500D01*
X177578842Y-139699500D01*
X177421158Y-139699500D01*
X177421155Y-139699500D01*
X177266510Y-139730261D01*
X177266502Y-139730263D01*
X177219878Y-139749575D01*
X177150408Y-139757042D01*
X177087930Y-139725766D01*
X177052278Y-139665677D01*
X177054773Y-139595852D01*
X177084747Y-139547331D01*
X177121786Y-139510292D01*
X177121789Y-139510289D01*
X177209394Y-139379179D01*
X177212854Y-139370827D01*
X177267163Y-139239711D01*
X177269737Y-139233497D01*
X177300500Y-139078842D01*
X177300500Y-138921158D01*
X177300500Y-138921155D01*
X177300499Y-138921153D01*
X177282207Y-138829193D01*
X177269737Y-138766503D01*
X177209794Y-138621786D01*
X177209397Y-138620827D01*
X177209390Y-138620814D01*
X177121789Y-138489711D01*
X177121786Y-138489707D01*
X177010292Y-138378213D01*
X177010288Y-138378210D01*
X176879185Y-138290609D01*
X176879172Y-138290602D01*
X176733501Y-138230264D01*
X176733489Y-138230261D01*
X176578845Y-138199500D01*
X176578842Y-138199500D01*
X176421158Y-138199500D01*
X176421155Y-138199500D01*
X176266510Y-138230261D01*
X176266498Y-138230264D01*
X176120827Y-138290602D01*
X176120814Y-138290609D01*
X175989711Y-138378210D01*
X175989707Y-138378213D01*
X175878213Y-138489707D01*
X175878210Y-138489711D01*
X175790609Y-138620814D01*
X175790602Y-138620827D01*
X175730264Y-138766498D01*
X175730261Y-138766510D01*
X175699500Y-138921153D01*
X172493766Y-138921153D01*
X172527139Y-138887781D01*
X172527138Y-138887781D01*
X173336749Y-138078172D01*
X173382107Y-138010289D01*
X173441666Y-137921153D01*
X177699500Y-137921153D01*
X177699500Y-138078846D01*
X177730261Y-138233489D01*
X177730264Y-138233501D01*
X177790602Y-138379172D01*
X177790609Y-138379185D01*
X177878210Y-138510288D01*
X177878213Y-138510292D01*
X177989707Y-138621786D01*
X177989711Y-138621789D01*
X178120814Y-138709390D01*
X178120827Y-138709397D01*
X178258683Y-138766498D01*
X178266503Y-138769737D01*
X178421153Y-138800499D01*
X178421156Y-138800500D01*
X178421158Y-138800500D01*
X178578844Y-138800500D01*
X178578845Y-138800499D01*
X178733497Y-138769737D01*
X178879179Y-138709394D01*
X179010289Y-138621789D01*
X179121789Y-138510289D01*
X179209394Y-138379179D01*
X179269737Y-138233497D01*
X179300500Y-138078842D01*
X179300500Y-137921158D01*
X179300500Y-137921155D01*
X179300499Y-137921153D01*
X179269738Y-137766510D01*
X179269737Y-137766503D01*
X179255536Y-137732218D01*
X179209397Y-137620827D01*
X179209390Y-137620814D01*
X179121789Y-137489711D01*
X179121786Y-137489707D01*
X179010292Y-137378213D01*
X179010288Y-137378210D01*
X178879185Y-137290609D01*
X178879172Y-137290602D01*
X178733501Y-137230264D01*
X178733489Y-137230261D01*
X178578845Y-137199500D01*
X178578842Y-137199500D01*
X178421158Y-137199500D01*
X178421155Y-137199500D01*
X178266510Y-137230261D01*
X178266498Y-137230264D01*
X178120827Y-137290602D01*
X178120814Y-137290609D01*
X177989711Y-137378210D01*
X177989707Y-137378213D01*
X177878213Y-137489707D01*
X177878210Y-137489711D01*
X177790609Y-137620814D01*
X177790602Y-137620827D01*
X177730264Y-137766498D01*
X177730261Y-137766510D01*
X177699500Y-137921153D01*
X173441666Y-137921153D01*
X173446242Y-137914304D01*
X173507463Y-137766503D01*
X173521661Y-137732226D01*
X173560110Y-137538931D01*
X173560110Y-137341850D01*
X173560110Y-137018873D01*
X173573626Y-136962577D01*
X173625819Y-136860144D01*
X173625822Y-136860136D01*
X173648413Y-136790606D01*
X173681781Y-136687909D01*
X173696375Y-136595759D01*
X173710110Y-136509051D01*
X173710110Y-136327948D01*
X173689686Y-136199000D01*
X173681781Y-136149091D01*
X173625821Y-135976861D01*
X173625821Y-135976860D01*
X173597350Y-135920984D01*
X173543606Y-135815506D01*
X173466509Y-135709390D01*
X173437168Y-135669005D01*
X173437164Y-135669000D01*
X173309109Y-135540945D01*
X173309104Y-135540941D01*
X173162607Y-135434506D01*
X173162606Y-135434505D01*
X173162604Y-135434504D01*
X173110910Y-135408164D01*
X173001249Y-135352288D01*
X173001246Y-135352287D01*
X172829020Y-135296329D01*
X172650161Y-135268000D01*
X172650156Y-135268000D01*
X172469064Y-135268000D01*
X172469059Y-135268000D01*
X172290199Y-135296329D01*
X172117973Y-135352287D01*
X172117970Y-135352288D01*
X171956612Y-135434506D01*
X171810115Y-135540941D01*
X171810110Y-135540945D01*
X171682055Y-135669000D01*
X171682051Y-135669005D01*
X171575616Y-135815502D01*
X171493398Y-135976860D01*
X171493397Y-135976863D01*
X171437439Y-136149089D01*
X171409110Y-136327948D01*
X171409110Y-136509051D01*
X171437439Y-136687910D01*
X171493397Y-136860136D01*
X171493400Y-136860144D01*
X171530652Y-136933252D01*
X171543549Y-137001921D01*
X171517273Y-137066662D01*
X171507849Y-137077229D01*
X171112221Y-137472858D01*
X171112220Y-137472859D01*
X171112219Y-137472861D01*
X171046149Y-137538931D01*
X171012181Y-137572899D01*
X170950857Y-137606383D01*
X170881166Y-137601399D01*
X170825233Y-137559527D01*
X170800816Y-137494062D01*
X170800500Y-137485217D01*
X170800500Y-137421155D01*
X170800499Y-137421153D01*
X170791957Y-137378210D01*
X170769737Y-137266503D01*
X170769735Y-137266498D01*
X170709397Y-137120827D01*
X170709390Y-137120814D01*
X170621789Y-136989711D01*
X170621786Y-136989707D01*
X170510292Y-136878213D01*
X170510288Y-136878210D01*
X170379185Y-136790609D01*
X170379172Y-136790602D01*
X170233501Y-136730264D01*
X170233489Y-136730261D01*
X170078845Y-136699500D01*
X170078842Y-136699500D01*
X169921158Y-136699500D01*
X169921155Y-136699500D01*
X169766510Y-136730261D01*
X169766498Y-136730264D01*
X169620827Y-136790602D01*
X169620814Y-136790609D01*
X169489711Y-136878210D01*
X169489707Y-136878213D01*
X169378213Y-136989707D01*
X169378210Y-136989711D01*
X169290609Y-137120814D01*
X169290602Y-137120827D01*
X169230264Y-137266498D01*
X169230261Y-137266510D01*
X169199500Y-137421153D01*
X169199500Y-137578846D01*
X169230261Y-137733489D01*
X169230264Y-137733501D01*
X169290602Y-137879172D01*
X169290609Y-137879185D01*
X169378210Y-138010288D01*
X169378213Y-138010292D01*
X169489707Y-138121786D01*
X169489711Y-138121789D01*
X169620814Y-138209390D01*
X169620827Y-138209397D01*
X169766498Y-138269735D01*
X169766503Y-138269737D01*
X169921153Y-138300499D01*
X169921156Y-138300500D01*
X169985217Y-138300500D01*
X170052256Y-138320185D01*
X170098011Y-138372989D01*
X170107955Y-138442147D01*
X170078930Y-138505703D01*
X170072898Y-138512181D01*
X161121899Y-147463181D01*
X161060576Y-147496666D01*
X161034218Y-147499500D01*
X158651457Y-147499500D01*
X158458170Y-147537947D01*
X158458160Y-147537950D01*
X158276092Y-147613364D01*
X158276079Y-147613371D01*
X158112218Y-147722860D01*
X158112214Y-147722863D01*
X157972863Y-147862214D01*
X157972860Y-147862218D01*
X157863371Y-148026079D01*
X157863364Y-148026092D01*
X157787950Y-148208160D01*
X157787947Y-148208170D01*
X157749500Y-148401456D01*
X157749500Y-148401459D01*
X157749500Y-148598541D01*
X157749500Y-148598543D01*
X157749499Y-148598543D01*
X86796002Y-148598543D01*
X86762724Y-148559579D01*
X86440421Y-148237276D01*
X86093825Y-147941255D01*
X85725071Y-147673340D01*
X85725068Y-147673338D01*
X85725061Y-147673333D01*
X85336452Y-147435192D01*
X85336447Y-147435189D01*
X85336437Y-147435184D01*
X85336434Y-147435182D01*
X84930309Y-147228252D01*
X84802426Y-147175281D01*
X84509212Y-147053827D01*
X84509205Y-147053824D01*
X84509201Y-147053823D01*
X84075705Y-146912971D01*
X83632494Y-146806566D01*
X83182302Y-146735262D01*
X82727907Y-146699500D01*
X82727902Y-146699500D01*
X82272098Y-146699500D01*
X82272092Y-146699500D01*
X81817697Y-146735262D01*
X81817696Y-146735262D01*
X81367511Y-146806565D01*
X81367508Y-146806565D01*
X81367506Y-146806566D01*
X81208784Y-146844671D01*
X80924306Y-146912968D01*
X80924301Y-146912969D01*
X80924295Y-146912971D01*
X80490799Y-147053823D01*
X80490787Y-147053827D01*
X80069693Y-147228251D01*
X79663552Y-147435189D01*
X79663547Y-147435192D01*
X79274938Y-147673333D01*
X79274927Y-147673341D01*
X78906182Y-147941249D01*
X78906168Y-147941260D01*
X78559585Y-148237270D01*
X78559571Y-148237283D01*
X78237283Y-148559571D01*
X78237270Y-148559585D01*
X77941260Y-148906168D01*
X77941249Y-148906182D01*
X77673341Y-149274927D01*
X77673333Y-149274938D01*
X77435192Y-149663547D01*
X77435189Y-149663552D01*
X77228251Y-150069693D01*
X77053827Y-150490787D01*
X77053823Y-150490799D01*
X76912971Y-150924295D01*
X76912969Y-150924301D01*
X76912968Y-150924306D01*
X76806565Y-151367511D01*
X76735262Y-151817696D01*
X76735262Y-151817697D01*
X76699500Y-152272092D01*
X75500500Y-152272092D01*
X75500500Y-107098543D01*
X82999499Y-107098543D01*
X83037947Y-107291829D01*
X83037950Y-107291839D01*
X83113364Y-107473907D01*
X83113371Y-107473920D01*
X83222860Y-107637781D01*
X83222863Y-107637785D01*
X83362214Y-107777136D01*
X83362218Y-107777139D01*
X83526079Y-107886628D01*
X83526092Y-107886635D01*
X83708160Y-107962049D01*
X83708165Y-107962051D01*
X83708169Y-107962051D01*
X83708170Y-107962052D01*
X83901456Y-108000500D01*
X83901459Y-108000500D01*
X84098543Y-108000500D01*
X84228582Y-107974632D01*
X84291835Y-107962051D01*
X84473914Y-107886632D01*
X84637782Y-107777139D01*
X84777139Y-107637782D01*
X84886632Y-107473914D01*
X84962051Y-107291835D01*
X84974632Y-107228582D01*
X85000500Y-107098543D01*
X85000500Y-106901456D01*
X84962052Y-106708170D01*
X84962051Y-106708169D01*
X84962051Y-106708165D01*
X84942343Y-106660586D01*
X84886635Y-106526092D01*
X84886628Y-106526079D01*
X84777139Y-106362218D01*
X84777136Y-106362214D01*
X84637785Y-106222863D01*
X84637781Y-106222860D01*
X84473920Y-106113371D01*
X84473907Y-106113364D01*
X84291839Y-106037950D01*
X84291829Y-106037947D01*
X84098543Y-105999500D01*
X84098541Y-105999500D01*
X83901459Y-105999500D01*
X83901457Y-105999500D01*
X83708170Y-106037947D01*
X83708160Y-106037950D01*
X83526092Y-106113364D01*
X83526079Y-106113371D01*
X83362218Y-106222860D01*
X83362214Y-106222863D01*
X83222863Y-106362214D01*
X83222860Y-106362218D01*
X83113371Y-106526079D01*
X83113364Y-106526092D01*
X83037950Y-106708160D01*
X83037947Y-106708170D01*
X82999500Y-106901456D01*
X82999500Y-106901459D01*
X82999500Y-107098541D01*
X82999500Y-107098543D01*
X82999499Y-107098543D01*
X75500500Y-107098543D01*
X75500500Y-79098543D01*
X82999499Y-79098543D01*
X83037947Y-79291829D01*
X83037950Y-79291839D01*
X83113364Y-79473907D01*
X83113371Y-79473920D01*
X83222860Y-79637781D01*
X83222863Y-79637785D01*
X83362214Y-79777136D01*
X83362218Y-79777139D01*
X83526079Y-79886628D01*
X83526092Y-79886635D01*
X83708160Y-79962049D01*
X83708165Y-79962051D01*
X83708169Y-79962051D01*
X83708170Y-79962052D01*
X83901456Y-80000500D01*
X83901459Y-80000500D01*
X84098543Y-80000500D01*
X84228582Y-79974632D01*
X84291835Y-79962051D01*
X84473914Y-79886632D01*
X84637782Y-79777139D01*
X84777139Y-79637782D01*
X84886632Y-79473914D01*
X84962051Y-79291835D01*
X84979929Y-79201957D01*
X85000500Y-79098543D01*
X85000500Y-78901456D01*
X84962052Y-78708170D01*
X84962051Y-78708169D01*
X84962051Y-78708165D01*
X84962049Y-78708160D01*
X84886635Y-78526092D01*
X84886628Y-78526079D01*
X84777139Y-78362218D01*
X84777136Y-78362214D01*
X84637785Y-78222863D01*
X84637781Y-78222860D01*
X84473920Y-78113371D01*
X84473907Y-78113364D01*
X84291839Y-78037950D01*
X84291829Y-78037947D01*
X84098543Y-77999500D01*
X84098541Y-77999500D01*
X83901459Y-77999500D01*
X83901457Y-77999500D01*
X83708170Y-78037947D01*
X83708160Y-78037950D01*
X83526092Y-78113364D01*
X83526079Y-78113371D01*
X83362218Y-78222860D01*
X83362214Y-78222863D01*
X83222863Y-78362214D01*
X83222860Y-78362218D01*
X83113371Y-78526079D01*
X83113364Y-78526092D01*
X83037950Y-78708160D01*
X83037947Y-78708170D01*
X82999500Y-78901456D01*
X82999500Y-78901459D01*
X82999500Y-79098541D01*
X82999500Y-79098543D01*
X82999499Y-79098543D01*
X75500500Y-79098543D01*
X75500500Y-54124000D01*
X75520185Y-54056961D01*
X75572989Y-54011206D01*
X75624500Y-54000000D01*
X87376000Y-54000000D01*
X87443039Y-54019685D01*
G37*
%TD.AperFunction*%
%TD*%
M02*
