%TF.GenerationSoftware,KiCad,Pcbnew,9.0.0*%
%TF.CreationDate,2025-04-28T14:21:01-07:00*%
%TF.ProjectId,GateDriver,47617465-4472-4697-9665-722e6b696361,rev?*%
%TF.SameCoordinates,Original*%
%TF.FileFunction,Soldermask,Bot*%
%TF.FilePolarity,Negative*%
%FSLAX46Y46*%
G04 Gerber Fmt 4.6, Leading zero omitted, Abs format (unit mm)*
G04 Created by KiCad (PCBNEW 9.0.0) date 2025-04-28 14:21:01*
%MOMM*%
%LPD*%
G01*
G04 APERTURE LIST*
G04 Aperture macros list*
%AMRoundRect*
0 Rectangle with rounded corners*
0 $1 Rounding radius*
0 $2 $3 $4 $5 $6 $7 $8 $9 X,Y pos of 4 corners*
0 Add a 4 corners polygon primitive as box body*
4,1,4,$2,$3,$4,$5,$6,$7,$8,$9,$2,$3,0*
0 Add four circle primitives for the rounded corners*
1,1,$1+$1,$2,$3*
1,1,$1+$1,$4,$5*
1,1,$1+$1,$6,$7*
1,1,$1+$1,$8,$9*
0 Add four rect primitives between the rounded corners*
20,1,$1+$1,$2,$3,$4,$5,0*
20,1,$1+$1,$4,$5,$6,$7,0*
20,1,$1+$1,$6,$7,$8,$9,0*
20,1,$1+$1,$8,$9,$2,$3,0*%
G04 Aperture macros list end*
%ADD10C,10.600000*%
%ADD11RoundRect,0.500000X4.500000X7.000000X-4.500000X7.000000X-4.500000X-7.000000X4.500000X-7.000000X0*%
%ADD12RoundRect,0.500000X7.000000X-4.500000X7.000000X4.500000X-7.000000X4.500000X-7.000000X-4.500000X0*%
%ADD13R,1.950000X1.950000*%
%ADD14C,1.950000*%
%ADD15C,3.000000*%
%ADD16RoundRect,0.250000X0.412500X1.100000X-0.412500X1.100000X-0.412500X-1.100000X0.412500X-1.100000X0*%
%ADD17R,1.200000X1.200000*%
%ADD18C,1.200000*%
%ADD19RoundRect,0.250000X-0.412500X-1.100000X0.412500X-1.100000X0.412500X1.100000X-0.412500X1.100000X0*%
%ADD20C,1.725000*%
%ADD21RoundRect,0.250000X-1.100000X0.412500X-1.100000X-0.412500X1.100000X-0.412500X1.100000X0.412500X0*%
%ADD22C,1.300000*%
%ADD23C,4.800000*%
%ADD24RoundRect,0.250000X-0.400000X-1.075000X0.400000X-1.075000X0.400000X1.075000X-0.400000X1.075000X0*%
%ADD25RoundRect,0.250000X0.400000X1.075000X-0.400000X1.075000X-0.400000X-1.075000X0.400000X-1.075000X0*%
%ADD26RoundRect,0.250000X-1.075000X0.400000X-1.075000X-0.400000X1.075000X-0.400000X1.075000X0.400000X0*%
%ADD27R,1.500000X1.500000*%
%ADD28C,1.500000*%
%ADD29RoundRect,0.250000X1.075000X-0.400000X1.075000X0.400000X-1.075000X0.400000X-1.075000X-0.400000X0*%
G04 APERTURE END LIST*
D10*
%TO.C,H4*%
X82500000Y-152500000D03*
%TD*%
D11*
%TO.C,Q1*%
X123750000Y-51000000D03*
X138750000Y-69000000D03*
D12*
X178750000Y-56000000D03*
%TD*%
D10*
%TO.C,H6*%
X82500000Y-47500000D03*
%TD*%
D13*
%TO.C,J1*%
X180000000Y-108080000D03*
D14*
X180000000Y-103000000D03*
X180000000Y-97920000D03*
%TD*%
D13*
%TO.C,J5*%
X179000000Y-70000000D03*
D14*
X179000000Y-65000000D03*
%TD*%
D13*
%TO.C,J6*%
X155000000Y-59000000D03*
D14*
X150000000Y-59000000D03*
%TD*%
D10*
%TO.C,H5*%
X180000000Y-152500000D03*
%TD*%
D15*
%TO.C,TP5*%
X167000000Y-90750000D03*
%TD*%
%TO.C,TP7*%
X161000000Y-81000000D03*
%TD*%
%TO.C,TP8*%
X134000000Y-83000000D03*
%TD*%
%TO.C,TP6*%
X168250000Y-101000000D03*
%TD*%
%TO.C,TP3*%
X140500000Y-104000000D03*
%TD*%
D13*
%TO.C,J3*%
X180000000Y-89830000D03*
D14*
X180000000Y-84750000D03*
X180000000Y-79670000D03*
%TD*%
D13*
%TO.C,J7*%
X112500000Y-49000000D03*
D14*
X107500000Y-49000000D03*
%TD*%
D16*
%TO.C,C26*%
X149562500Y-97000000D03*
X146437500Y-97000000D03*
%TD*%
D17*
%TO.C,C39*%
X158500000Y-153000000D03*
D18*
X153500000Y-153000000D03*
%TD*%
D17*
%TO.C,C56*%
X105000000Y-113500000D03*
D18*
X105000000Y-118500000D03*
%TD*%
D16*
%TO.C,C63*%
X156812500Y-107000000D03*
X153687500Y-107000000D03*
%TD*%
D19*
%TO.C,C77*%
X150000000Y-123000000D03*
X153125000Y-123000000D03*
%TD*%
D17*
%TO.C,C42*%
X117500000Y-91000000D03*
D18*
X117500000Y-96000000D03*
%TD*%
D20*
%TO.C,PS4*%
X134500000Y-119325000D03*
X134500000Y-116785000D03*
X134500000Y-109165000D03*
X134500000Y-104085000D03*
%TD*%
D21*
%TO.C,C88*%
X165250000Y-104437500D03*
X165250000Y-107562500D03*
%TD*%
D16*
%TO.C,C87*%
X163312500Y-116750000D03*
X160187500Y-116750000D03*
%TD*%
D17*
%TO.C,C38*%
X170000000Y-153000000D03*
D18*
X165000000Y-153000000D03*
%TD*%
D17*
%TO.C,C41*%
X117500000Y-114000000D03*
D18*
X117500000Y-119000000D03*
%TD*%
D16*
%TO.C,C27*%
X149562500Y-101500000D03*
X146437500Y-101500000D03*
%TD*%
D22*
%TO.C,J4*%
X172559610Y-136418500D03*
X172559610Y-133678500D03*
X172559610Y-130938500D03*
X172559610Y-128198500D03*
X172559610Y-125458500D03*
X175099610Y-135048500D03*
X175099610Y-132308500D03*
X175099610Y-129568500D03*
X175099610Y-126828500D03*
D23*
X173829610Y-143438500D03*
X173829610Y-118438500D03*
%TD*%
D17*
%TO.C,C55*%
X117500000Y-125500000D03*
D18*
X117500000Y-130500000D03*
%TD*%
D24*
%TO.C,R31*%
X150000000Y-119500000D03*
X153100000Y-119500000D03*
%TD*%
D17*
%TO.C,C37*%
X147000000Y-152500000D03*
D18*
X142000000Y-152500000D03*
%TD*%
D25*
%TO.C,R23*%
X148100000Y-119500000D03*
X145000000Y-119500000D03*
%TD*%
D17*
%TO.C,C47*%
X124000000Y-152500000D03*
D18*
X119000000Y-152500000D03*
%TD*%
D17*
%TO.C,C48*%
X135500000Y-152500000D03*
D18*
X130500000Y-152500000D03*
%TD*%
D26*
%TO.C,R32*%
X157250000Y-113950000D03*
X157250000Y-117050000D03*
%TD*%
D27*
%TO.C,PS2*%
X87000000Y-65460000D03*
D28*
X87000000Y-70540000D03*
X87000000Y-78160000D03*
X107320000Y-78160000D03*
X107320000Y-68000000D03*
X107320000Y-57840000D03*
%TD*%
D21*
%TO.C,C23*%
X160750000Y-104437500D03*
X160750000Y-107562500D03*
%TD*%
D16*
%TO.C,C62*%
X149562500Y-92500000D03*
X146437500Y-92500000D03*
%TD*%
D29*
%TO.C,R43*%
X174000000Y-109050000D03*
X174000000Y-105950000D03*
%TD*%
D17*
%TO.C,C46*%
X112600000Y-152500000D03*
D18*
X107600000Y-152500000D03*
%TD*%
D29*
%TO.C,R36*%
X169500000Y-96550000D03*
X169500000Y-93450000D03*
%TD*%
D17*
%TO.C,C57*%
X105000000Y-125000000D03*
D18*
X105000000Y-130000000D03*
%TD*%
D29*
%TO.C,R37*%
X174000000Y-96550000D03*
X174000000Y-93450000D03*
%TD*%
%TO.C,R38*%
X169500000Y-109050000D03*
X169500000Y-105950000D03*
%TD*%
D16*
%TO.C,C61*%
X151312500Y-106750000D03*
X148187500Y-106750000D03*
%TD*%
D20*
%TO.C,PS1*%
X134415000Y-141325000D03*
X134415000Y-138785000D03*
X134415000Y-131165000D03*
X134415000Y-126085000D03*
%TD*%
D16*
%TO.C,C84*%
X173562500Y-90500000D03*
X170437500Y-90500000D03*
%TD*%
%TO.C,C22*%
X163312500Y-120500000D03*
X160187500Y-120500000D03*
%TD*%
D17*
%TO.C,C40*%
X117500000Y-102500000D03*
D18*
X117500000Y-107500000D03*
%TD*%
D16*
%TO.C,C82*%
X174562500Y-103000000D03*
X171437500Y-103000000D03*
%TD*%
D27*
%TO.C,PS3*%
X87000000Y-93460000D03*
D28*
X87000000Y-98540000D03*
X87000000Y-106160000D03*
X107320000Y-106160000D03*
X107320000Y-96000000D03*
X107320000Y-85840000D03*
%TD*%
M02*
