M48
; DRILL file {KiCad 9.0.0} date 2025-04-28T14:20:55-0700
; FORMAT={-:-/ absolute / metric / decimal}
; #@! TF.CreationDate,2025-04-28T14:20:55-07:00
; #@! TF.GenerationSoftware,Kicad,Pcbnew,9.0.0
; #@! TF.FileFunction,Plated,1,4,PTH
FMAT,2
METRIC
; #@! TA.AperFunction,Plated,PTH,ViaDrill
T1C0.300
; #@! TA.AperFunction,Plated,PTH,ViaDrill
T2C0.600
; #@! TA.AperFunction,Plated,PTH,ComponentDrill
T3C0.800
; #@! TA.AperFunction,Plated,PTH,ComponentDrill
T4C1.000
; #@! TA.AperFunction,Plated,PTH,ComponentDrill
T5C1.150
; #@! TA.AperFunction,Plated,PTH,ComponentDrill
T6C1.300
; #@! TA.AperFunction,Plated,PTH,ComponentDrill
T7C1.500
; #@! TA.AperFunction,Plated,PTH,ComponentDrill
T8C2.000
; #@! TA.AperFunction,Plated,PTH,ComponentDrill
T9C3.200
; #@! TA.AperFunction,Plated,PTH,ComponentDrill
T10C4.500
; #@! TA.AperFunction,Plated,PTH,ComponentDrill
T11C5.300
%
G90
G05
T1
X119.0Y-143.5
X127.5Y-82.5
X135.875Y-99.125
X143.5Y-119.5
X144.75Y-98.5
X148.0Y-100.0
X148.5Y-102.5
X149.0Y-117.0
X149.5Y-103.75
X149.562Y-94.25
X150.5Y-89.0
X150.725Y-102.18
X152.023Y-104.957
X152.095Y-101.155
X152.5Y-89.0
X152.875Y-100.875
X153.0Y-117.5
X154.25Y-105.0
X154.5Y-81.75
X154.5Y-100.5
X154.5Y-115.75
X155.25Y-99.5
X155.25Y-105.5
X155.5Y-90.0
X155.5Y-116.5
X156.562Y-98.5
X156.75Y-105.25
X157.5Y-101.5
X158.0Y-102.25
X159.25Y-102.0
X159.5Y-97.0
X160.75Y-105.75
X161.0Y-115.5
X162.0Y-103.0
X164.0Y-99.0
X165.0Y-101.75
X169.25Y-103.5
X170.0Y-135.0
X170.0Y-137.5
X171.5Y-105.5
X172.0Y-139.75
X176.25Y-103.0
X176.5Y-139.0
X177.5Y-140.5
X178.5Y-138.0
T2
X76.0Y-55.0
X76.0Y-56.0
X76.0Y-57.0
X76.0Y-58.0
X76.0Y-59.0
X76.0Y-60.0
X76.0Y-61.0
X76.0Y-62.0
X76.0Y-63.0
X76.0Y-64.0
X76.0Y-65.0
X76.0Y-66.0
X76.0Y-67.0
X76.0Y-68.0
X76.0Y-69.0
X76.0Y-70.0
X76.0Y-71.0
X76.0Y-72.0
X76.0Y-73.0
X76.0Y-74.0
X76.0Y-75.0
X76.0Y-76.0
X76.0Y-77.0
X76.0Y-78.0
X76.0Y-79.0
X76.0Y-80.0
X76.0Y-81.0
X76.0Y-82.0
X76.0Y-83.0
X76.0Y-84.0
X76.0Y-85.0
X76.0Y-86.0
X76.0Y-87.0
X76.0Y-88.0
X76.0Y-89.0
X76.0Y-90.0
X76.0Y-91.0
X76.0Y-92.0
X76.0Y-93.0
X76.0Y-94.0
X76.0Y-95.0
X76.0Y-96.0
X76.0Y-97.0
X76.0Y-98.0
X76.0Y-99.0
X76.0Y-100.0
X76.0Y-101.0
X76.0Y-102.0
X76.0Y-103.0
X76.0Y-104.0
X76.0Y-105.0
X76.0Y-106.0
X76.0Y-107.0
X76.0Y-108.0
X76.0Y-109.0
X76.0Y-110.0
X76.0Y-111.0
X76.0Y-112.0
X76.0Y-113.0
X76.0Y-114.0
X76.0Y-115.0
X76.0Y-116.0
X76.0Y-117.0
X76.0Y-118.0
X76.0Y-119.0
X76.0Y-120.0
X76.0Y-121.0
X76.0Y-122.0
X76.0Y-123.0
X76.0Y-124.0
X76.0Y-125.0
X76.0Y-126.0
X76.0Y-127.0
X76.0Y-128.0
X76.0Y-129.0
X76.0Y-130.0
X76.0Y-131.0
X76.0Y-132.0
X76.0Y-133.0
X76.0Y-134.0
X76.0Y-135.0
X76.0Y-136.0
X76.0Y-137.0
X76.0Y-138.0
X76.0Y-139.0
X76.0Y-140.0
X76.0Y-141.0
X76.0Y-142.0
X76.0Y-143.0
X76.0Y-144.0
X76.0Y-145.0
X76.0Y-146.0
X76.0Y-147.0
X76.0Y-148.0
X76.0Y-149.0
X76.0Y-150.0
X76.0Y-151.0
X76.0Y-152.0
X76.0Y-153.0
X76.0Y-154.0
X76.0Y-155.0
X76.0Y-156.0
X76.0Y-157.0
X76.0Y-158.0
X76.0Y-159.0
X77.0Y-55.0
X77.0Y-159.0
X78.0Y-55.0
X78.0Y-159.0
X79.0Y-55.0
X79.0Y-159.0
X80.0Y-55.0
X80.0Y-115.0
X80.0Y-120.0
X80.0Y-125.0
X80.0Y-130.0
X80.0Y-140.0
X80.0Y-145.0
X80.0Y-159.0
X81.0Y-55.0
X81.0Y-159.0
X82.0Y-55.0
X82.0Y-159.0
X83.0Y-55.0
X83.0Y-159.0
X84.0Y-55.0
X84.0Y-79.0
X84.0Y-107.0
X84.0Y-159.0
X85.0Y-55.0
X85.0Y-115.0
X85.0Y-135.0
X85.0Y-140.0
X85.0Y-159.0
X86.0Y-55.0
X86.0Y-159.0
X87.0Y-55.0
X87.0Y-113.0
X87.0Y-114.0
X87.0Y-115.0
X87.0Y-116.0
X87.0Y-117.0
X87.0Y-118.0
X87.0Y-119.0
X87.0Y-120.0
X87.0Y-124.0
X87.0Y-125.0
X87.0Y-129.0
X87.0Y-130.0
X87.0Y-134.0
X87.0Y-135.0
X87.0Y-136.0
X87.0Y-137.0
X87.0Y-138.0
X87.0Y-139.0
X87.0Y-140.0
X87.0Y-141.0
X87.0Y-142.0
X87.0Y-143.0
X87.0Y-159.0
X88.0Y-144.0
X88.0Y-159.0
X89.0Y-145.0
X89.0Y-159.0
X90.0Y-146.0
X90.0Y-155.0
X90.0Y-159.0
X91.0Y-147.0
X91.0Y-159.0
X92.0Y-159.0
X93.0Y-148.0
X93.0Y-159.0
X94.0Y-148.0
X94.0Y-159.0
X95.0Y-148.0
X95.0Y-150.0
X95.0Y-155.0
X95.0Y-159.0
X96.0Y-148.0
X96.0Y-159.0
X97.0Y-148.0
X97.0Y-159.0
X98.0Y-81.0
X98.0Y-82.0
X98.0Y-83.0
X98.0Y-84.0
X98.0Y-85.0
X98.0Y-86.0
X98.0Y-87.0
X98.0Y-88.0
X98.0Y-89.0
X98.0Y-90.0
X98.0Y-91.0
X98.0Y-92.0
X98.0Y-93.0
X98.0Y-94.0
X98.0Y-95.0
X98.0Y-96.0
X98.0Y-97.0
X98.0Y-98.0
X98.0Y-99.0
X98.0Y-100.0
X98.0Y-101.0
X98.0Y-102.0
X98.0Y-103.0
X98.0Y-104.0
X98.0Y-105.0
X98.0Y-106.0
X98.0Y-107.0
X98.0Y-108.0
X98.0Y-109.0
X98.0Y-110.0
X98.0Y-111.0
X98.0Y-112.0
X98.0Y-113.0
X98.0Y-114.0
X98.0Y-115.0
X98.0Y-116.0
X98.0Y-117.0
X98.0Y-118.0
X98.0Y-119.0
X98.0Y-120.0
X98.0Y-121.0
X98.0Y-122.0
X98.0Y-123.0
X98.0Y-124.0
X98.0Y-125.0
X98.0Y-126.0
X98.0Y-127.0
X98.0Y-128.0
X98.0Y-129.0
X98.0Y-130.0
X98.0Y-131.0
X98.0Y-132.0
X98.0Y-148.0
X98.0Y-159.0
X99.0Y-81.0
X99.0Y-132.0
X99.0Y-148.0
X99.0Y-159.0
X100.0Y-132.0
X100.0Y-148.0
X100.0Y-150.0
X100.0Y-155.0
X100.0Y-159.0
X100.02Y-80.977
X101.0Y-81.0
X101.0Y-132.0
X101.0Y-148.0
X101.0Y-159.0
X102.0Y-81.0
X102.0Y-132.0
X102.0Y-148.0
X102.0Y-159.0
X103.0Y-81.0
X103.0Y-132.0
X103.0Y-148.0
X103.0Y-159.0
X104.0Y-81.0
X104.0Y-132.0
X104.0Y-148.0
X104.0Y-159.0
X105.0Y-132.0
X105.0Y-148.0
X105.0Y-150.0
X105.0Y-155.0
X105.0Y-159.0
X105.002Y-80.989
X106.0Y-132.0
X106.0Y-148.0
X106.0Y-159.0
X107.0Y-132.0
X107.0Y-148.0
X107.0Y-159.0
X108.0Y-132.0
X108.0Y-148.0
X108.0Y-159.0
X109.0Y-132.0
X109.0Y-148.0
X109.0Y-159.0
X109.922Y-81.0
X110.0Y-75.0
X110.0Y-132.0
X110.0Y-148.0
X110.0Y-159.0
X110.943Y-81.951
X111.0Y-132.0
X111.0Y-148.0
X111.0Y-159.0
X112.0Y-83.0
X112.0Y-132.0
X112.0Y-148.0
X112.0Y-159.0
X113.0Y-84.0
X113.0Y-132.0
X113.0Y-148.0
X113.0Y-159.0
X114.0Y-132.0
X114.0Y-148.0
X114.0Y-159.0
X114.517Y-155.028
X115.0Y-132.0
X115.0Y-148.0
X115.0Y-150.0
X115.0Y-159.0
X116.0Y-132.0
X116.0Y-148.0
X116.0Y-159.0
X117.0Y-132.0
X117.0Y-148.0
X117.0Y-159.0
X118.0Y-132.0
X118.0Y-159.0
X119.0Y-132.0
X119.0Y-159.0
X120.0Y-132.0
X120.0Y-155.0
X120.0Y-159.0
X121.0Y-92.0
X121.0Y-132.0
X121.0Y-148.0
X121.0Y-159.0
X122.0Y-93.0
X122.0Y-98.0
X122.0Y-99.0
X122.0Y-100.0
X122.0Y-101.0
X122.0Y-102.0
X122.0Y-103.0
X122.0Y-104.0
X122.0Y-105.0
X122.0Y-106.0
X122.0Y-107.0
X122.0Y-108.0
X122.0Y-109.0
X122.0Y-110.0
X122.0Y-111.0
X122.0Y-112.0
X122.0Y-113.0
X122.0Y-114.0
X122.0Y-115.0
X122.0Y-116.0
X122.0Y-117.0
X122.0Y-118.0
X122.0Y-119.0
X122.0Y-120.0
X122.0Y-121.0
X122.0Y-122.0
X122.0Y-123.0
X122.0Y-124.0
X122.0Y-125.0
X122.0Y-126.0
X122.0Y-127.0
X122.0Y-128.0
X122.0Y-129.0
X122.0Y-130.0
X122.0Y-131.0
X122.0Y-132.0
X122.0Y-148.0
X122.0Y-159.0
X123.0Y-148.0
X123.0Y-159.0
X124.0Y-148.0
X124.0Y-159.0
X125.0Y-148.0
X125.0Y-155.0
X125.0Y-159.0
X125.015Y-149.947
X126.0Y-147.0
X126.0Y-159.0
X127.0Y-94.0
X127.0Y-159.0
X127.5Y-96.0
X128.0Y-126.0
X128.0Y-130.0
X128.0Y-131.0
X128.0Y-135.0
X128.0Y-136.0
X128.0Y-137.0
X128.0Y-138.0
X128.0Y-139.0
X128.0Y-159.0
X129.0Y-122.0
X129.0Y-159.0
X130.0Y-121.0
X130.0Y-135.0
X130.0Y-150.0
X130.0Y-155.0
X130.0Y-159.0
X131.0Y-91.0
X131.0Y-98.0
X131.0Y-106.0
X131.0Y-120.0
X131.0Y-159.0
X132.0Y-119.0
X132.0Y-159.0
X132.5Y-100.0
X133.0Y-118.0
X133.0Y-159.0
X134.0Y-92.0
X134.0Y-159.0
X135.0Y-135.0
X135.0Y-145.0
X135.0Y-150.0
X135.0Y-155.0
X135.0Y-159.0
X136.0Y-79.0
X136.0Y-115.0
X136.0Y-159.0
X137.0Y-114.0
X137.0Y-159.0
X138.0Y-113.0
X138.0Y-159.0
X139.0Y-113.0
X139.0Y-159.0
X139.996Y-155.058
X140.0Y-95.0
X140.0Y-113.0
X140.0Y-145.0
X140.0Y-150.0
X140.0Y-159.0
X141.0Y-113.0
X141.0Y-123.0
X141.0Y-159.0
X142.0Y-90.0
X142.0Y-113.0
X142.0Y-127.0
X142.0Y-132.0
X142.0Y-141.0
X142.0Y-159.0
X142.5Y-85.0
X142.5Y-100.0
X143.0Y-113.0
X143.0Y-159.0
X144.0Y-113.0
X144.0Y-159.0
X145.0Y-80.0
X145.0Y-105.0
X145.0Y-113.0
X145.0Y-145.0
X145.0Y-150.0
X145.0Y-155.0
X145.0Y-159.0
X146.0Y-113.0
X146.0Y-159.0
X147.0Y-113.0
X147.0Y-123.0
X147.0Y-159.0
X147.5Y-75.0
X147.5Y-87.5
X148.0Y-113.0
X148.0Y-126.5
X148.0Y-132.0
X148.0Y-159.0
X148.036Y-139.993
X148.619Y-90.381
X149.0Y-159.0
X150.0Y-145.0
X150.0Y-150.0
X150.0Y-155.0
X150.0Y-159.0
X151.0Y-159.0
X152.0Y-159.0
X152.5Y-75.0
X153.0Y-127.0
X153.0Y-132.0
X153.0Y-140.0
X153.0Y-159.0
X153.5Y-92.0
X154.0Y-159.0
X155.0Y-118.5
X155.0Y-145.0
X155.0Y-150.0
X155.0Y-155.0
X155.0Y-159.0
X156.0Y-159.0
X157.0Y-159.0
X157.5Y-75.0
X157.5Y-90.0
X158.0Y-139.0
X158.0Y-159.0
X158.75Y-148.5
X159.0Y-122.5
X159.0Y-127.0
X159.0Y-132.0
X159.0Y-159.0
X160.0Y-90.0
X160.0Y-145.0
X160.0Y-150.0
X160.0Y-155.0
X160.0Y-159.0
X161.0Y-159.0
X162.0Y-113.0
X162.0Y-159.0
X162.5Y-85.0
X162.5Y-92.0
X163.0Y-114.0
X163.0Y-159.0
X163.029Y-89.997
X164.0Y-115.0
X164.0Y-122.5
X164.0Y-127.0
X164.0Y-132.0
X164.0Y-159.0
X165.0Y-92.5
X165.0Y-116.0
X165.0Y-135.0
X165.0Y-138.0
X165.0Y-150.0
X165.0Y-155.0
X165.0Y-159.0
X166.0Y-117.0
X166.0Y-159.0
X167.0Y-118.0
X167.0Y-159.0
X167.5Y-75.0
X168.0Y-80.0
X168.0Y-119.0
X168.0Y-159.0
X168.5Y-122.5
X169.0Y-120.0
X169.0Y-127.0
X169.0Y-131.0
X169.0Y-159.0
X170.0Y-85.0
X170.0Y-121.0
X170.0Y-145.0
X170.0Y-150.0
X170.0Y-155.0
X170.0Y-159.0
X171.0Y-121.0
X171.0Y-159.0
X172.0Y-121.0
X172.0Y-159.0
X172.5Y-75.0
X173.0Y-121.0
X173.0Y-159.0
X174.0Y-86.0
X174.0Y-121.0
X174.0Y-159.0
X175.0Y-80.0
X175.0Y-121.0
X175.0Y-125.0
X175.0Y-159.0
X176.0Y-121.0
X176.0Y-159.0
X177.0Y-121.0
X177.0Y-159.0
X177.5Y-110.0
X178.0Y-121.0
X178.0Y-159.0
X179.0Y-121.0
X179.0Y-159.0
X180.0Y-121.0
X180.0Y-125.0
X180.0Y-130.0
X180.0Y-135.0
X180.0Y-140.0
X180.0Y-145.0
X180.0Y-159.0
X181.0Y-121.0
X181.0Y-159.0
X182.0Y-121.0
X182.0Y-159.0
X182.5Y-95.0
X183.0Y-121.0
X183.0Y-159.0
X184.0Y-121.0
X184.0Y-159.0
X185.0Y-80.0
X185.0Y-102.5
X185.0Y-110.0
X185.0Y-121.0
X185.0Y-159.0
X186.0Y-121.0
X186.0Y-122.0
X186.0Y-123.0
X186.0Y-124.0
X186.0Y-125.0
X186.0Y-126.0
X186.0Y-127.0
X186.0Y-128.0
X186.0Y-129.0
X186.0Y-130.0
X186.0Y-131.0
X186.0Y-132.0
X186.0Y-133.0
X186.0Y-134.0
X186.0Y-135.0
X186.0Y-136.0
X186.0Y-137.0
X186.0Y-138.0
X186.0Y-139.0
X186.0Y-140.0
X186.0Y-141.0
X186.0Y-142.0
X186.0Y-143.0
X186.0Y-144.0
X186.0Y-145.0
X186.0Y-146.0
X186.0Y-147.0
X186.0Y-148.0
X186.0Y-149.0
X186.0Y-150.0
X186.0Y-151.0
X186.0Y-152.0
X186.0Y-153.0
X186.0Y-154.0
X186.0Y-155.0
X186.0Y-156.0
X186.0Y-157.0
X186.0Y-158.0
X186.0Y-159.0
T3
X105.0Y-113.5
X105.0Y-118.5
X105.0Y-125.0
X105.0Y-130.0
X107.6Y-152.5
X112.6Y-152.5
X117.5Y-91.0
X117.5Y-96.0
X117.5Y-102.5
X117.5Y-107.5
X117.5Y-114.0
X117.5Y-119.0
X117.5Y-125.5
X117.5Y-130.5
X119.0Y-152.5
X124.0Y-152.5
X130.5Y-152.5
X135.5Y-152.5
X142.0Y-152.5
X147.0Y-152.5
X153.5Y-153.0
X158.5Y-153.0
X165.0Y-153.0
X170.0Y-153.0
X172.56Y-125.459
X172.56Y-128.198
X172.56Y-130.939
X172.56Y-133.678
X172.56Y-136.418
X175.1Y-126.828
X175.1Y-129.569
X175.1Y-132.308
X175.1Y-135.048
T4
X87.0Y-65.46
X87.0Y-70.54
X87.0Y-78.16
X87.0Y-93.46
X87.0Y-98.54
X87.0Y-106.16
X107.32Y-57.84
X107.32Y-68.0
X107.32Y-78.16
X107.32Y-85.84
X107.32Y-96.0
X107.32Y-106.16
T5
X134.415Y-126.085
X134.415Y-131.165
X134.415Y-138.785
X134.415Y-141.325
X134.5Y-104.085
X134.5Y-109.165
X134.5Y-116.785
X134.5Y-119.325
T6
X107.5Y-49.0
X112.5Y-49.0
X150.0Y-59.0
X155.0Y-59.0
X179.0Y-65.0
X179.0Y-70.0
X180.0Y-79.67
X180.0Y-84.75
X180.0Y-89.83
X180.0Y-97.92
X180.0Y-103.0
X180.0Y-108.08
T7
X134.0Y-83.0
X140.5Y-104.0
X161.0Y-81.0
X167.0Y-90.75
X168.25Y-101.0
T8
X123.75Y-51.0
T9
X173.83Y-118.438
X173.83Y-143.439
T10
X138.75Y-69.0
X178.75Y-56.0
T11
X82.5Y-47.5
X82.5Y-152.5
X180.0Y-152.5
M30
