%TF.GenerationSoftware,KiCad,Pcbnew,9.0.0*%
%TF.CreationDate,2025-04-28T14:21:00-07:00*%
%TF.ProjectId,GateDriver,47617465-4472-4697-9665-722e6b696361,rev?*%
%TF.SameCoordinates,Original*%
%TF.FileFunction,Copper,L2,Inr*%
%TF.FilePolarity,Positive*%
%FSLAX46Y46*%
G04 Gerber Fmt 4.6, Leading zero omitted, Abs format (unit mm)*
G04 Created by KiCad (PCBNEW 9.0.0) date 2025-04-28 14:21:00*
%MOMM*%
%LPD*%
G01*
G04 APERTURE LIST*
G04 Aperture macros list*
%AMRoundRect*
0 Rectangle with rounded corners*
0 $1 Rounding radius*
0 $2 $3 $4 $5 $6 $7 $8 $9 X,Y pos of 4 corners*
0 Add a 4 corners polygon primitive as box body*
4,1,4,$2,$3,$4,$5,$6,$7,$8,$9,$2,$3,0*
0 Add four circle primitives for the rounded corners*
1,1,$1+$1,$2,$3*
1,1,$1+$1,$4,$5*
1,1,$1+$1,$6,$7*
1,1,$1+$1,$8,$9*
0 Add four rect primitives between the rounded corners*
20,1,$1+$1,$2,$3,$4,$5,0*
20,1,$1+$1,$4,$5,$6,$7,0*
20,1,$1+$1,$6,$7,$8,$9,0*
20,1,$1+$1,$8,$9,$2,$3,0*%
G04 Aperture macros list end*
%TA.AperFunction,ComponentPad*%
%ADD10C,10.600000*%
%TD*%
%TA.AperFunction,ComponentPad*%
%ADD11RoundRect,0.500000X4.500000X7.000000X-4.500000X7.000000X-4.500000X-7.000000X4.500000X-7.000000X0*%
%TD*%
%TA.AperFunction,ComponentPad*%
%ADD12RoundRect,0.500000X7.000000X-4.500000X7.000000X4.500000X-7.000000X4.500000X-7.000000X-4.500000X0*%
%TD*%
%TA.AperFunction,ComponentPad*%
%ADD13R,1.950000X1.950000*%
%TD*%
%TA.AperFunction,ComponentPad*%
%ADD14C,1.950000*%
%TD*%
%TA.AperFunction,ComponentPad*%
%ADD15C,3.000000*%
%TD*%
%TA.AperFunction,ComponentPad*%
%ADD16R,1.200000X1.200000*%
%TD*%
%TA.AperFunction,ComponentPad*%
%ADD17C,1.200000*%
%TD*%
%TA.AperFunction,ComponentPad*%
%ADD18C,1.725000*%
%TD*%
%TA.AperFunction,ComponentPad*%
%ADD19C,1.300000*%
%TD*%
%TA.AperFunction,ComponentPad*%
%ADD20C,4.800000*%
%TD*%
%TA.AperFunction,ComponentPad*%
%ADD21R,1.500000X1.500000*%
%TD*%
%TA.AperFunction,ComponentPad*%
%ADD22C,1.500000*%
%TD*%
%TA.AperFunction,ViaPad*%
%ADD23C,1.000000*%
%TD*%
%TA.AperFunction,ViaPad*%
%ADD24C,0.600000*%
%TD*%
%TA.AperFunction,ViaPad*%
%ADD25C,0.500000*%
%TD*%
%TA.AperFunction,Conductor*%
%ADD26C,2.000000*%
%TD*%
%TA.AperFunction,Conductor*%
%ADD27C,1.000000*%
%TD*%
%TA.AperFunction,Conductor*%
%ADD28C,0.500000*%
%TD*%
%TA.AperFunction,Conductor*%
%ADD29C,0.350000*%
%TD*%
%TA.AperFunction,Conductor*%
%ADD30C,0.250000*%
%TD*%
G04 APERTURE END LIST*
D10*
%TO.N,N/C*%
%TO.C,H4*%
X82500000Y-152500000D03*
%TD*%
D11*
%TO.N,IGBT_COLLECTOR*%
%TO.C,Q1*%
X123750000Y-51000000D03*
%TO.N,IGBT_EMITTER*%
X138750000Y-69000000D03*
D12*
%TO.N,IGBT_GATE*%
X178750000Y-56000000D03*
%TD*%
D10*
%TO.N,N/C*%
%TO.C,H6*%
X82500000Y-47500000D03*
%TD*%
D13*
%TO.N,ANALOG_INPUT_1*%
%TO.C,J1*%
X180000000Y-108080000D03*
D14*
%TO.N,IGBT_EMITTER*%
X180000000Y-103000000D03*
%TO.N,+5VP*%
X180000000Y-97920000D03*
%TD*%
D13*
%TO.N,IGBT_GATE*%
%TO.C,J5*%
X179000000Y-70000000D03*
D14*
X179000000Y-65000000D03*
%TD*%
D13*
%TO.N,IGBT_EMITTER*%
%TO.C,J6*%
X155000000Y-59000000D03*
D14*
X150000000Y-59000000D03*
%TD*%
D10*
%TO.N,N/C*%
%TO.C,H5*%
X180000000Y-152500000D03*
%TD*%
D15*
%TO.N,ANALOG_SENSE_2*%
%TO.C,TP5*%
X167000000Y-90750000D03*
%TD*%
%TO.N,IGBT_GATE*%
%TO.C,TP7*%
X161000000Y-81000000D03*
%TD*%
%TO.N,Net-(D9-K)*%
%TO.C,TP8*%
X134000000Y-83000000D03*
%TD*%
%TO.N,ANALOG_SENSE_1*%
%TO.C,TP6*%
X168250000Y-101000000D03*
%TD*%
%TO.N,IGBT_EMITTER*%
%TO.C,TP3*%
X140500000Y-104000000D03*
%TD*%
D13*
%TO.N,ANALOG_INPUT_2*%
%TO.C,J3*%
X180000000Y-89830000D03*
D14*
%TO.N,IGBT_EMITTER*%
X180000000Y-84750000D03*
%TO.N,+5VP*%
X180000000Y-79670000D03*
%TD*%
D13*
%TO.N,IGBT_COLLECTOR*%
%TO.C,J7*%
X112500000Y-49000000D03*
D14*
X107500000Y-49000000D03*
%TD*%
D16*
%TO.N,+12V*%
%TO.C,C39*%
X158500000Y-153000000D03*
D17*
%TO.N,GND*%
X153500000Y-153000000D03*
%TD*%
D16*
%TO.N,IGBT_EMITTER*%
%TO.C,C56*%
X105000000Y-113500000D03*
D17*
%TO.N,ISO_GATE_DRIVE_-9V*%
X105000000Y-118500000D03*
%TD*%
D16*
%TO.N,ISO_GATE_DRIVE_+15V*%
%TO.C,C42*%
X117500000Y-91000000D03*
D17*
%TO.N,IGBT_EMITTER*%
X117500000Y-96000000D03*
%TD*%
D18*
%TO.N,+5V*%
%TO.C,PS4*%
X134500000Y-119325000D03*
%TO.N,GND*%
X134500000Y-116785000D03*
%TO.N,IGBT_EMITTER*%
X134500000Y-109165000D03*
%TO.N,+5VP*%
X134500000Y-104085000D03*
%TD*%
D16*
%TO.N,+12V*%
%TO.C,C38*%
X170000000Y-153000000D03*
D17*
%TO.N,GND*%
X165000000Y-153000000D03*
%TD*%
D16*
%TO.N,ISO_GATE_DRIVE_+15V*%
%TO.C,C41*%
X117500000Y-114000000D03*
D17*
%TO.N,IGBT_EMITTER*%
X117500000Y-119000000D03*
%TD*%
D19*
%TO.N,+12V*%
%TO.C,J4*%
X172559610Y-136418500D03*
%TO.N,GND*%
X172559610Y-133678500D03*
%TO.N,GATE_DRIVE+*%
X172559610Y-130938500D03*
%TO.N,GATE_DRIVE-*%
X172559610Y-128198500D03*
%TO.N,FAULT*%
X172559610Y-125458500D03*
%TO.N,SDI*%
X175099610Y-135048500D03*
%TO.N,SDO*%
X175099610Y-132308500D03*
%TO.N,SPI_CLK*%
X175099610Y-129568500D03*
%TO.N,SPI_CS*%
X175099610Y-126828500D03*
D20*
%TO.N,GND*%
X173829610Y-143438500D03*
X173829610Y-118438500D03*
%TD*%
D16*
%TO.N,IGBT_EMITTER*%
%TO.C,C55*%
X117500000Y-125500000D03*
D17*
%TO.N,ISO_GATE_DRIVE_-9V*%
X117500000Y-130500000D03*
%TD*%
D16*
%TO.N,+12V*%
%TO.C,C37*%
X147000000Y-152500000D03*
D17*
%TO.N,GND*%
X142000000Y-152500000D03*
%TD*%
D16*
%TO.N,+12V*%
%TO.C,C47*%
X124000000Y-152500000D03*
D17*
%TO.N,GND*%
X119000000Y-152500000D03*
%TD*%
D16*
%TO.N,+12V*%
%TO.C,C48*%
X135500000Y-152500000D03*
D17*
%TO.N,GND*%
X130500000Y-152500000D03*
%TD*%
D21*
%TO.N,+12V*%
%TO.C,PS2*%
X87000000Y-65460000D03*
D22*
%TO.N,GND*%
X87000000Y-70540000D03*
%TO.N,unconnected-(PS2-CTRL-Pad3)*%
X87000000Y-78160000D03*
%TO.N,IGBT_EMITTER*%
X107320000Y-78160000D03*
%TO.N,unconnected-(PS2-TRIM-Pad5)*%
X107320000Y-68000000D03*
%TO.N,ISO_GATE_DRIVE_+15V*%
X107320000Y-57840000D03*
%TD*%
D16*
%TO.N,+12V*%
%TO.C,C46*%
X112600000Y-152500000D03*
D17*
%TO.N,GND*%
X107600000Y-152500000D03*
%TD*%
D16*
%TO.N,IGBT_EMITTER*%
%TO.C,C57*%
X105000000Y-125000000D03*
D17*
%TO.N,ISO_GATE_DRIVE_-9V*%
X105000000Y-130000000D03*
%TD*%
D18*
%TO.N,+12V*%
%TO.C,PS1*%
X134415000Y-141325000D03*
%TO.N,GND*%
X134415000Y-138785000D03*
X134415000Y-131165000D03*
%TO.N,+5V*%
X134415000Y-126085000D03*
%TD*%
D16*
%TO.N,ISO_GATE_DRIVE_+15V*%
%TO.C,C40*%
X117500000Y-102500000D03*
D17*
%TO.N,IGBT_EMITTER*%
X117500000Y-107500000D03*
%TD*%
D21*
%TO.N,+12V*%
%TO.C,PS3*%
X87000000Y-93460000D03*
D22*
%TO.N,GND*%
X87000000Y-98540000D03*
%TO.N,unconnected-(PS3-CTRL-Pad3)*%
X87000000Y-106160000D03*
%TO.N,ISO_GATE_DRIVE_-9V*%
X107320000Y-106160000D03*
%TO.N,unconnected-(PS3-TRIM-Pad5)*%
X107320000Y-96000000D03*
%TO.N,IGBT_EMITTER*%
X107320000Y-85840000D03*
%TD*%
D23*
%TO.N,GND*%
X114000000Y-159000000D03*
X186000000Y-150000000D03*
X76000000Y-70000000D03*
X142000000Y-127000000D03*
X115000000Y-159000000D03*
X180000000Y-159000000D03*
X76000000Y-60000000D03*
X180000000Y-130000000D03*
X126000000Y-147000000D03*
X181000000Y-159000000D03*
X167000000Y-118000000D03*
X76000000Y-77000000D03*
X186000000Y-154000000D03*
X91000000Y-159000000D03*
X135000000Y-159000000D03*
X186000000Y-147000000D03*
X130000000Y-121000000D03*
X165000000Y-159000000D03*
X143000000Y-113000000D03*
X146000000Y-159000000D03*
X76000000Y-142000000D03*
X137000000Y-159000000D03*
X90000000Y-159000000D03*
X175000000Y-159000000D03*
X186000000Y-135000000D03*
X137000000Y-114000000D03*
X148000000Y-126500000D03*
X153000000Y-132000000D03*
X135000000Y-145000000D03*
X125000000Y-148000000D03*
X124000000Y-159000000D03*
X165000000Y-155000000D03*
X87000000Y-142000000D03*
X169000000Y-127000000D03*
X76000000Y-99000000D03*
X170000000Y-145000000D03*
X76000000Y-97000000D03*
X177000000Y-121000000D03*
X130000000Y-135000000D03*
X109000000Y-148000000D03*
X150000000Y-150000000D03*
X162000000Y-113000000D03*
X87000000Y-138000000D03*
X76000000Y-138000000D03*
X88000000Y-144000000D03*
X186000000Y-156000000D03*
X76000000Y-134000000D03*
X104000000Y-159000000D03*
X144000000Y-159000000D03*
X76000000Y-143000000D03*
X107000000Y-148000000D03*
X76000000Y-64000000D03*
X76000000Y-151000000D03*
X145000000Y-150000000D03*
X87000000Y-124000000D03*
X89000000Y-159000000D03*
X168000000Y-159000000D03*
X164000000Y-159000000D03*
X87000000Y-125000000D03*
X76000000Y-147000000D03*
X76000000Y-121000000D03*
X76000000Y-90000000D03*
X78000000Y-159000000D03*
X76000000Y-119000000D03*
X87000000Y-119000000D03*
X135000000Y-155000000D03*
X78000000Y-55000000D03*
X98000000Y-148000000D03*
X162000000Y-159000000D03*
X117000000Y-148000000D03*
X139000000Y-113000000D03*
X150000000Y-155000000D03*
X85000000Y-115000000D03*
X91000000Y-147000000D03*
X138000000Y-113000000D03*
X166000000Y-117000000D03*
X164000000Y-115000000D03*
X76000000Y-136000000D03*
X149000000Y-159000000D03*
X76000000Y-117000000D03*
X87000000Y-141000000D03*
X76000000Y-156000000D03*
X80000000Y-55000000D03*
X87000000Y-143000000D03*
X76000000Y-154000000D03*
X175000000Y-121000000D03*
X102000000Y-148000000D03*
X155000000Y-159000000D03*
X175000000Y-125000000D03*
X142000000Y-132000000D03*
X171000000Y-121000000D03*
X80000000Y-120000000D03*
X168500000Y-122500000D03*
X185000000Y-159000000D03*
X76000000Y-84000000D03*
X145000000Y-145000000D03*
X138000000Y-159000000D03*
X87000000Y-113000000D03*
X85000000Y-159000000D03*
X165000000Y-135000000D03*
X100000000Y-148000000D03*
X87000000Y-137000000D03*
X76000000Y-116000000D03*
X157000000Y-159000000D03*
X96000000Y-159000000D03*
X130000000Y-155000000D03*
X147000000Y-113000000D03*
X76000000Y-100000000D03*
X76000000Y-76000000D03*
X186000000Y-128000000D03*
X177000000Y-159000000D03*
X76000000Y-58000000D03*
X76000000Y-125000000D03*
X159000000Y-159000000D03*
X95000000Y-159000000D03*
X87000000Y-135000000D03*
X76000000Y-88000000D03*
X100000000Y-150000000D03*
X76000000Y-111000000D03*
X80000000Y-115000000D03*
X85000000Y-55000000D03*
X76000000Y-75000000D03*
X159000000Y-122500000D03*
X173000000Y-159000000D03*
X89000000Y-145000000D03*
X186000000Y-157000000D03*
X173000000Y-121000000D03*
X76000000Y-124000000D03*
X97000000Y-148000000D03*
X125000000Y-155000000D03*
X126000000Y-159000000D03*
X87000000Y-134000000D03*
X120000000Y-155000000D03*
X104000000Y-148000000D03*
X76000000Y-135000000D03*
X128000000Y-130000000D03*
X153000000Y-159000000D03*
X103000000Y-148000000D03*
X80000000Y-145000000D03*
X76000000Y-98000000D03*
X87000000Y-140000000D03*
X76000000Y-130000000D03*
X76000000Y-83000000D03*
X95000000Y-155000000D03*
X76000000Y-115000000D03*
X76000000Y-95000000D03*
X98000000Y-159000000D03*
X76000000Y-129000000D03*
X140000000Y-113000000D03*
X133000000Y-159000000D03*
X186000000Y-127000000D03*
X76000000Y-66000000D03*
X76000000Y-74000000D03*
X128000000Y-137000000D03*
X76000000Y-82000000D03*
X125000000Y-159000000D03*
X76000000Y-61000000D03*
X186000000Y-152000000D03*
X186000000Y-151000000D03*
X180000000Y-125000000D03*
X76000000Y-140000000D03*
X76000000Y-146000000D03*
X147000000Y-123000000D03*
X159000000Y-132000000D03*
X186000000Y-132000000D03*
X76000000Y-65000000D03*
X142000000Y-141000000D03*
X135000000Y-150000000D03*
X159000000Y-127000000D03*
X87000000Y-116000000D03*
X160000000Y-159000000D03*
X113000000Y-159000000D03*
X76000000Y-120000000D03*
X80000000Y-140000000D03*
X114516841Y-155027771D03*
X76000000Y-139000000D03*
X81000000Y-55000000D03*
X83000000Y-55000000D03*
X97000000Y-159000000D03*
X186000000Y-142000000D03*
X83000000Y-159000000D03*
X155000000Y-118500000D03*
X100000000Y-155000000D03*
X150000000Y-159000000D03*
X76000000Y-104000000D03*
X131000000Y-159000000D03*
X77000000Y-159000000D03*
X180000000Y-145000000D03*
X130000000Y-159000000D03*
X99000000Y-148000000D03*
X128000000Y-138000000D03*
X122000000Y-148000000D03*
X185000000Y-121000000D03*
X76000000Y-89000000D03*
X178000000Y-121000000D03*
X76000000Y-92000000D03*
X186000000Y-137000000D03*
X119000000Y-159000000D03*
X141000000Y-123000000D03*
X140000000Y-159000000D03*
X165000000Y-138000000D03*
X76000000Y-107000000D03*
X136000000Y-115000000D03*
X106000000Y-148000000D03*
X76000000Y-128000000D03*
X186000000Y-121000000D03*
X76000000Y-113000000D03*
X76000000Y-159000000D03*
X82000000Y-159000000D03*
X128000000Y-159000000D03*
X115000000Y-150000000D03*
X76000000Y-158000000D03*
X178000000Y-159000000D03*
X160000000Y-155000000D03*
X76000000Y-87000000D03*
X87000000Y-118000000D03*
X76000000Y-85000000D03*
X76000000Y-101000000D03*
X77000000Y-55000000D03*
X186000000Y-131000000D03*
X76000000Y-96000000D03*
X153000000Y-127000000D03*
X129000000Y-122000000D03*
X121000000Y-148000000D03*
X87000000Y-114000000D03*
X85000000Y-140000000D03*
X76000000Y-126000000D03*
X134000000Y-159000000D03*
X76000000Y-127000000D03*
X148036104Y-139993278D03*
X76000000Y-110000000D03*
X148000000Y-132000000D03*
X174000000Y-159000000D03*
X100000000Y-159000000D03*
X128000000Y-139000000D03*
X87000000Y-55000000D03*
X94000000Y-148000000D03*
X110000000Y-159000000D03*
X166000000Y-159000000D03*
X76000000Y-79000000D03*
X163000000Y-159000000D03*
X116000000Y-159000000D03*
X160000000Y-145000000D03*
X186000000Y-133000000D03*
X76000000Y-118000000D03*
X186000000Y-122000000D03*
X148000000Y-159000000D03*
X140000000Y-150000000D03*
X80000000Y-159000000D03*
X87000000Y-129000000D03*
X86000000Y-55000000D03*
X76000000Y-63000000D03*
X76000000Y-157000000D03*
X128000000Y-136000000D03*
X129000000Y-159000000D03*
X76000000Y-123000000D03*
X186000000Y-123000000D03*
X76000000Y-55000000D03*
X186000000Y-136000000D03*
X76000000Y-56000000D03*
X105000000Y-148000000D03*
X76000000Y-59000000D03*
X99000000Y-159000000D03*
X169000000Y-120000000D03*
X151000000Y-159000000D03*
X106000000Y-159000000D03*
X76000000Y-150000000D03*
X144000000Y-113000000D03*
X186000000Y-140000000D03*
X169000000Y-131000000D03*
X95000000Y-150000000D03*
X186000000Y-143000000D03*
X158000000Y-139000000D03*
X182000000Y-121000000D03*
X85000000Y-135000000D03*
X117000000Y-159000000D03*
X81000000Y-159000000D03*
X155000000Y-145000000D03*
X76000000Y-155000000D03*
X87000000Y-136000000D03*
X186000000Y-130000000D03*
X184000000Y-159000000D03*
X79000000Y-159000000D03*
X105000000Y-150000000D03*
X186000000Y-159000000D03*
X76000000Y-62000000D03*
X141000000Y-113000000D03*
X123000000Y-159000000D03*
X108000000Y-148000000D03*
X125014710Y-149946611D03*
X76000000Y-109000000D03*
X76000000Y-112000000D03*
X146000000Y-113000000D03*
X135000000Y-135000000D03*
X143000000Y-159000000D03*
X82000000Y-55000000D03*
X158000000Y-159000000D03*
X76000000Y-103000000D03*
X186000000Y-149000000D03*
X102000000Y-159000000D03*
X186000000Y-126000000D03*
X186000000Y-155000000D03*
X76000000Y-73000000D03*
X123000000Y-148000000D03*
X147000000Y-159000000D03*
X174000000Y-121000000D03*
X141000000Y-159000000D03*
X186000000Y-125000000D03*
X80000000Y-130000000D03*
X145000000Y-113000000D03*
X111000000Y-159000000D03*
X76000000Y-102000000D03*
X90000000Y-155000000D03*
X94000000Y-159000000D03*
X139000000Y-159000000D03*
X76000000Y-152000000D03*
X122000000Y-159000000D03*
X148000000Y-113000000D03*
X76000000Y-94000000D03*
X142000000Y-113000000D03*
X181000000Y-121000000D03*
X186000000Y-148000000D03*
X76000000Y-86000000D03*
X87000000Y-159000000D03*
X112000000Y-148000000D03*
X186000000Y-141000000D03*
X128000000Y-126000000D03*
X118000000Y-159000000D03*
X76000000Y-57000000D03*
X142000000Y-159000000D03*
X84000000Y-55000000D03*
X170000000Y-155000000D03*
X140000000Y-145000000D03*
X86000000Y-159000000D03*
X76000000Y-133000000D03*
X101000000Y-159000000D03*
X76000000Y-131000000D03*
X172000000Y-159000000D03*
X79000000Y-55000000D03*
X93000000Y-159000000D03*
X183000000Y-159000000D03*
X76000000Y-148000000D03*
X154000000Y-159000000D03*
X186000000Y-144000000D03*
X76000000Y-78000000D03*
X186000000Y-134000000D03*
X114000000Y-148000000D03*
X76000000Y-69000000D03*
X76000000Y-67000000D03*
X176000000Y-121000000D03*
X90000000Y-146000000D03*
X164000000Y-127000000D03*
X167000000Y-159000000D03*
X128000000Y-131000000D03*
X92000000Y-159000000D03*
X76000000Y-122000000D03*
X76000000Y-153000000D03*
X111000000Y-148000000D03*
X165000000Y-150000000D03*
X176000000Y-159000000D03*
X76000000Y-80000000D03*
X161000000Y-159000000D03*
X76000000Y-91000000D03*
X115000000Y-148000000D03*
X180000000Y-140000000D03*
X186000000Y-138000000D03*
X164000000Y-122500000D03*
X169000000Y-159000000D03*
X182000000Y-159000000D03*
X80000000Y-125000000D03*
X171000000Y-159000000D03*
X96000000Y-148000000D03*
X136000000Y-159000000D03*
X76000000Y-137000000D03*
X87000000Y-130000000D03*
X139995536Y-155057522D03*
X84000000Y-159000000D03*
X76000000Y-106000000D03*
X95000000Y-148000000D03*
X180000000Y-121000000D03*
X186000000Y-145000000D03*
X87000000Y-117000000D03*
X76000000Y-105000000D03*
X120000000Y-159000000D03*
X76000000Y-132000000D03*
X133000000Y-118000000D03*
X179000000Y-121000000D03*
X76000000Y-81000000D03*
X76000000Y-145000000D03*
X108000000Y-159000000D03*
X164000000Y-132000000D03*
X105000000Y-159000000D03*
X184000000Y-121000000D03*
X128000000Y-135000000D03*
X165000000Y-116000000D03*
X88000000Y-159000000D03*
X76000000Y-68000000D03*
X127000000Y-159000000D03*
X186000000Y-146000000D03*
X153000000Y-140000000D03*
X103000000Y-159000000D03*
X186000000Y-139000000D03*
X109000000Y-159000000D03*
X186000000Y-153000000D03*
X145000000Y-155000000D03*
X168000000Y-119000000D03*
X132000000Y-119000000D03*
X101000000Y-148000000D03*
X76000000Y-141000000D03*
X76000000Y-144000000D03*
X87000000Y-120000000D03*
X131000000Y-120000000D03*
X186000000Y-129000000D03*
X155000000Y-155000000D03*
X107000000Y-159000000D03*
X76000000Y-71000000D03*
X105000000Y-155000000D03*
X180000000Y-135000000D03*
X93000000Y-148000000D03*
X150000000Y-145000000D03*
X116000000Y-148000000D03*
X179000000Y-159000000D03*
X152000000Y-159000000D03*
X130000000Y-150000000D03*
X163000000Y-114000000D03*
X110000000Y-148000000D03*
X76000000Y-114000000D03*
X186000000Y-124000000D03*
X170000000Y-159000000D03*
X145000000Y-159000000D03*
X132000000Y-159000000D03*
X76000000Y-93000000D03*
X172000000Y-121000000D03*
X170000000Y-150000000D03*
X121000000Y-159000000D03*
X156000000Y-159000000D03*
X170000000Y-121000000D03*
X76000000Y-149000000D03*
X76000000Y-108000000D03*
X160000000Y-150000000D03*
X183000000Y-121000000D03*
X87000000Y-115000000D03*
X113000000Y-148000000D03*
X87000000Y-139000000D03*
X76000000Y-72000000D03*
X155000000Y-150000000D03*
X186000000Y-158000000D03*
X124000000Y-148000000D03*
X112000000Y-159000000D03*
D24*
%TO.N,+5V*%
X149000000Y-117000000D03*
X155500000Y-116500000D03*
X143500000Y-119500000D03*
%TO.N,ISO_GATE_DRIVE_+15V*%
X150725000Y-102179593D03*
D23*
X110000000Y-75000000D03*
D24*
X148000000Y-100000000D03*
D23*
X127500000Y-96000000D03*
D24*
X156562500Y-98500000D03*
D23*
%TO.N,IGBT_EMITTER*%
X177500000Y-110000000D03*
X98000000Y-108000000D03*
X131000000Y-98000000D03*
X98000000Y-110000000D03*
X112000000Y-83000000D03*
X108000000Y-132000000D03*
X105000000Y-132000000D03*
X98000000Y-129000000D03*
X116000000Y-132000000D03*
X122000000Y-115000000D03*
X98000000Y-101000000D03*
X168000000Y-80000000D03*
X122000000Y-129000000D03*
X98000000Y-100000000D03*
X122000000Y-119000000D03*
X102000000Y-132000000D03*
X98000000Y-88000000D03*
X98000000Y-116000000D03*
X131000000Y-91000000D03*
X98000000Y-125000000D03*
X122000000Y-109000000D03*
X98000000Y-113000000D03*
D24*
X159500000Y-97000000D03*
D23*
X142500000Y-100000000D03*
X109922147Y-81000000D03*
X122000000Y-104000000D03*
X98000000Y-81000000D03*
X103000000Y-81000000D03*
X101000000Y-81000000D03*
X122000000Y-121000000D03*
X165000000Y-92500000D03*
X100019787Y-80977259D03*
X98000000Y-106000000D03*
X122000000Y-102000000D03*
D24*
X159250000Y-102000000D03*
D23*
X104000000Y-132000000D03*
X103000000Y-132000000D03*
X98000000Y-119000000D03*
X134000000Y-92000000D03*
X118000000Y-132000000D03*
X172500000Y-75000000D03*
D24*
X148500000Y-102500000D03*
D23*
X98000000Y-127000000D03*
X98000000Y-92000000D03*
X174000000Y-86000000D03*
D24*
X155500000Y-90000000D03*
D23*
X109000000Y-132000000D03*
D24*
X156750000Y-105250000D03*
D23*
X121000000Y-92000000D03*
X132500000Y-100000000D03*
D25*
X171500000Y-105500000D03*
D23*
X98000000Y-124000000D03*
X98000000Y-98000000D03*
X122000000Y-124000000D03*
X175000000Y-80000000D03*
X98000000Y-109000000D03*
X111000000Y-132000000D03*
X98000000Y-126000000D03*
X98000000Y-114000000D03*
X98000000Y-121000000D03*
X122000000Y-108000000D03*
X98000000Y-82000000D03*
X136000000Y-79000000D03*
X119000000Y-132000000D03*
X98000000Y-122000000D03*
X98000000Y-111000000D03*
X122000000Y-130000000D03*
X147500000Y-75000000D03*
X98000000Y-97000000D03*
X122000000Y-122000000D03*
X98000000Y-131000000D03*
X142500000Y-85000000D03*
X122000000Y-101000000D03*
X122000000Y-116000000D03*
X110943149Y-81951043D03*
X98000000Y-95000000D03*
X98000000Y-96000000D03*
X120000000Y-132000000D03*
X140000000Y-95000000D03*
X163029068Y-89997334D03*
X98000000Y-87000000D03*
X98000000Y-123000000D03*
X98000000Y-91000000D03*
X98000000Y-117000000D03*
X106000000Y-132000000D03*
X185000000Y-102500000D03*
X122000000Y-100000000D03*
X122000000Y-93000000D03*
X105001507Y-80988818D03*
X98000000Y-90000000D03*
X98000000Y-118000000D03*
X160000000Y-90000000D03*
X98000000Y-85000000D03*
X122000000Y-98000000D03*
X182500000Y-95000000D03*
X122000000Y-105000000D03*
X113000000Y-132000000D03*
X157500000Y-75000000D03*
X98000000Y-89000000D03*
X170000000Y-85000000D03*
X145000000Y-80000000D03*
X122000000Y-111000000D03*
X98000000Y-93000000D03*
X122000000Y-127000000D03*
X122000000Y-99000000D03*
X98000000Y-107000000D03*
X98000000Y-112000000D03*
X122000000Y-118000000D03*
X122000000Y-126000000D03*
X122000000Y-125000000D03*
X148618719Y-90381281D03*
X122000000Y-131000000D03*
X122000000Y-120000000D03*
X145000000Y-105000000D03*
X185000000Y-110000000D03*
X122000000Y-103000000D03*
D24*
X149562500Y-94250000D03*
D23*
X98000000Y-99000000D03*
X122000000Y-113000000D03*
X122000000Y-128000000D03*
X98000000Y-105000000D03*
X117000000Y-132000000D03*
X98000000Y-102000000D03*
X107000000Y-132000000D03*
X122000000Y-117000000D03*
X98000000Y-120000000D03*
X114000000Y-132000000D03*
X122000000Y-114000000D03*
X185000000Y-80000000D03*
X112000000Y-132000000D03*
X122000000Y-112000000D03*
D25*
X176250000Y-103000000D03*
D23*
X122000000Y-106000000D03*
X102000000Y-81000000D03*
X122000000Y-107000000D03*
X101000000Y-132000000D03*
X152500000Y-75000000D03*
X147500000Y-87500000D03*
X98000000Y-132000000D03*
X99000000Y-81000000D03*
X113000000Y-84000000D03*
X98000000Y-86000000D03*
D24*
X155250000Y-99500000D03*
D23*
X162500000Y-85000000D03*
X98000000Y-94000000D03*
X98000000Y-130000000D03*
X98000000Y-104000000D03*
X167500000Y-75000000D03*
X98000000Y-115000000D03*
X98000000Y-103000000D03*
X104000000Y-81000000D03*
X142000000Y-90000000D03*
X100000000Y-132000000D03*
X157500000Y-90000000D03*
X99000000Y-132000000D03*
X121000000Y-132000000D03*
X122000000Y-110000000D03*
X110000000Y-132000000D03*
X131000000Y-106000000D03*
X115000000Y-132000000D03*
X122000000Y-123000000D03*
X122000000Y-132000000D03*
X98000000Y-84000000D03*
X98000000Y-83000000D03*
X98000000Y-128000000D03*
D24*
%TO.N,+12V*%
X119000000Y-143500000D03*
D23*
X158750000Y-148500000D03*
X84000000Y-107000000D03*
X84000000Y-79000000D03*
D24*
%TO.N,ISO_GATE_DRIVE_-9V*%
X164000000Y-99000000D03*
D23*
X127000000Y-94000000D03*
X153500000Y-92000000D03*
X162500000Y-92000000D03*
D24*
X162000000Y-103000000D03*
%TO.N,Net-(U1-VREG1)*%
X161000000Y-115500000D03*
%TO.N,Net-(U1-VREG2)*%
X160750000Y-105750000D03*
%TO.N,Net-(U1-VBST)*%
X152023479Y-104956655D03*
D25*
%TO.N,ANALOG_SENSE_1*%
X169250000Y-103500000D03*
D24*
X157500000Y-101500000D03*
%TO.N,IGBT_GATE*%
X154250000Y-105000000D03*
X154500000Y-100500000D03*
X154500000Y-81750000D03*
D25*
%TO.N,ANALOG_SENSE_2*%
X165000000Y-101750000D03*
D24*
X158000000Y-102250000D03*
%TO.N,Net-(U1-VREF)*%
X155250000Y-105500000D03*
%TO.N,Net-(D9-K)*%
X149500000Y-103750000D03*
X135875000Y-99125000D03*
%TO.N,SPI_CS*%
X178500000Y-138000000D03*
%TO.N,SPI_CLK*%
X176500000Y-139000000D03*
%TO.N,GATE_DRIVE+*%
X172000000Y-139750000D03*
%TO.N,SDI*%
X170000000Y-137500000D03*
X170000000Y-135000000D03*
%TO.N,GATE_DRIVE-*%
X177500000Y-140500000D03*
%TO.N,Net-(D13-A)*%
X127500000Y-82500000D03*
X144750000Y-98500000D03*
%TO.N,Net-(U1-nFLT1)*%
X153000000Y-117500000D03*
%TO.N,Net-(U1-nFLT2_DOUT)*%
X154500000Y-115750000D03*
%TO.N,Net-(U1-OUTH)*%
X152094669Y-101155331D03*
X150500000Y-89000000D03*
%TO.N,Net-(U1-OUTL)*%
X152875000Y-100875000D03*
X152500000Y-89000000D03*
%TD*%
D26*
%TO.N,ISO_GATE_DRIVE_+15V*%
X116500000Y-85500000D02*
X114000000Y-88000000D01*
D27*
X127500000Y-96000000D02*
X121000000Y-96000000D01*
D26*
X110000000Y-78000000D02*
X110000000Y-75000000D01*
D28*
X149500000Y-100000000D02*
X151000000Y-98500000D01*
D27*
X117500000Y-92500000D02*
X117500000Y-91000000D01*
D26*
X116500000Y-84500000D02*
X110000000Y-78000000D01*
X116500000Y-85500000D02*
X116500000Y-84500000D01*
X114000000Y-88000000D02*
X113000000Y-88000000D01*
D29*
X150725000Y-101225000D02*
X149500000Y-100000000D01*
D28*
X148000000Y-100000000D02*
X149500000Y-100000000D01*
D27*
X121000000Y-96000000D02*
X117500000Y-92500000D01*
D28*
X151000000Y-98500000D02*
X156562500Y-98500000D01*
D29*
X150725000Y-102179593D02*
X150725000Y-101225000D01*
D27*
%TO.N,ISO_GATE_DRIVE_-9V*%
X153000000Y-91500000D02*
X149198471Y-91500000D01*
X148038967Y-91500000D02*
X137500000Y-91500000D01*
X153500000Y-92000000D02*
X153000000Y-91500000D01*
X149198471Y-91500000D02*
X149116190Y-91582281D01*
X135000000Y-94000000D02*
X127000000Y-94000000D01*
X149116190Y-91582281D02*
X148121248Y-91582281D01*
X137500000Y-91500000D02*
X135000000Y-94000000D01*
X153500000Y-92000000D02*
X162500000Y-92000000D01*
X148121248Y-91582281D02*
X148038967Y-91500000D01*
D30*
%TO.N,ANALOG_SENSE_1*%
X159714528Y-100750000D02*
X158250000Y-100750000D01*
X158250000Y-100750000D02*
X157500000Y-101500000D01*
X165000000Y-100750000D02*
X167750000Y-103500000D01*
X163250000Y-100750000D02*
X165000000Y-100750000D01*
X159714528Y-100750000D02*
X163250000Y-100750000D01*
X167750000Y-103500000D02*
X169250000Y-103500000D01*
%TO.N,ANALOG_SENSE_2*%
X159000000Y-101250000D02*
X158000000Y-102250000D01*
X165000000Y-101500000D02*
X164750000Y-101250000D01*
X165000000Y-101750000D02*
X165000000Y-101500000D01*
X164750000Y-101250000D02*
X159000000Y-101250000D01*
D28*
%TO.N,+5VP*%
X180000000Y-97920000D02*
X167920000Y-97920000D01*
X165000000Y-95000000D02*
X143585000Y-95000000D01*
X167920000Y-97920000D02*
X165000000Y-95000000D01*
X143585000Y-95000000D02*
X134500000Y-104085000D01*
%TD*%
%TA.AperFunction,Conductor*%
%TO.N,ISO_GATE_DRIVE_+15V*%
G36*
X108617645Y-80019685D02*
G01*
X108663400Y-80072489D01*
X108673344Y-80141647D01*
X108650923Y-80196887D01*
X108638804Y-80213565D01*
X108531580Y-80424003D01*
X108458593Y-80648631D01*
X108421647Y-80881902D01*
X108421647Y-81118097D01*
X108458593Y-81351368D01*
X108531580Y-81575996D01*
X108603251Y-81716657D01*
X108638804Y-81786433D01*
X108777630Y-81977510D01*
X108944637Y-82144517D01*
X109135714Y-82283343D01*
X109346155Y-82390568D01*
X109467284Y-82429925D01*
X109524957Y-82469361D01*
X109546894Y-82509533D01*
X109552582Y-82527038D01*
X109594564Y-82609432D01*
X109659806Y-82737476D01*
X109798632Y-82928553D01*
X109965639Y-83095560D01*
X110156716Y-83234386D01*
X110259931Y-83286976D01*
X110367156Y-83341611D01*
X110367159Y-83341612D01*
X110492795Y-83382433D01*
X110550470Y-83421870D01*
X110572408Y-83462045D01*
X110609433Y-83575996D01*
X110646446Y-83648637D01*
X110716657Y-83786433D01*
X110855483Y-83977510D01*
X111022490Y-84144517D01*
X111213567Y-84283343D01*
X111316782Y-84335933D01*
X111424007Y-84390568D01*
X111424013Y-84390570D01*
X111503868Y-84416516D01*
X111561544Y-84455953D01*
X111583482Y-84496129D01*
X111609430Y-84575989D01*
X111609432Y-84575992D01*
X111716657Y-84786433D01*
X111855483Y-84977510D01*
X112022490Y-85144517D01*
X112213567Y-85283343D01*
X112312991Y-85334002D01*
X112424003Y-85390566D01*
X112424005Y-85390566D01*
X112424008Y-85390568D01*
X112544412Y-85429689D01*
X112648631Y-85463553D01*
X112881903Y-85500500D01*
X112881908Y-85500500D01*
X113118097Y-85500500D01*
X113351368Y-85463553D01*
X113357129Y-85461681D01*
X113575992Y-85390568D01*
X113786433Y-85283343D01*
X113977510Y-85144517D01*
X114144517Y-84977510D01*
X114283343Y-84786433D01*
X114375673Y-84605224D01*
X114423648Y-84554429D01*
X114491469Y-84537634D01*
X114557603Y-84560171D01*
X114573839Y-84573839D01*
X120426160Y-90426160D01*
X120459645Y-90487483D01*
X120454661Y-90557175D01*
X120412789Y-90613108D01*
X120394775Y-90624325D01*
X120213568Y-90716655D01*
X120079896Y-90813774D01*
X120022490Y-90855483D01*
X120022488Y-90855485D01*
X120022487Y-90855485D01*
X119855485Y-91022487D01*
X119855485Y-91022488D01*
X119855483Y-91022490D01*
X119795862Y-91104550D01*
X119716657Y-91213566D01*
X119609433Y-91424003D01*
X119536446Y-91648631D01*
X119499500Y-91881902D01*
X119499500Y-92118097D01*
X119536446Y-92351368D01*
X119609433Y-92575996D01*
X119646446Y-92648637D01*
X119716657Y-92786433D01*
X119855483Y-92977510D01*
X120022490Y-93144517D01*
X120213567Y-93283343D01*
X120316782Y-93335933D01*
X120424007Y-93390568D01*
X120424013Y-93390570D01*
X120503868Y-93416516D01*
X120561544Y-93455953D01*
X120583482Y-93496129D01*
X120609430Y-93575989D01*
X120609432Y-93575992D01*
X120716657Y-93786433D01*
X120855483Y-93977510D01*
X121022490Y-94144517D01*
X121213567Y-94283343D01*
X121312991Y-94334002D01*
X121424003Y-94390566D01*
X121424005Y-94390566D01*
X121424008Y-94390568D01*
X121535057Y-94426650D01*
X121648631Y-94463553D01*
X121881903Y-94500500D01*
X121881908Y-94500500D01*
X122118097Y-94500500D01*
X122356180Y-94462791D01*
X122356546Y-94465102D01*
X122416655Y-94468016D01*
X122473535Y-94508592D01*
X122499448Y-94573479D01*
X122500000Y-94585162D01*
X122500000Y-96414837D01*
X122480315Y-96481876D01*
X122427511Y-96527631D01*
X122358353Y-96537575D01*
X122356187Y-96537161D01*
X122356180Y-96537209D01*
X122118097Y-96499500D01*
X122118092Y-96499500D01*
X121881908Y-96499500D01*
X121881903Y-96499500D01*
X121648631Y-96536446D01*
X121424003Y-96609433D01*
X121213566Y-96716657D01*
X121132059Y-96775876D01*
X121022490Y-96855483D01*
X121022488Y-96855485D01*
X121022487Y-96855485D01*
X120855485Y-97022487D01*
X120855485Y-97022488D01*
X120855483Y-97022490D01*
X120795862Y-97104550D01*
X120716657Y-97213566D01*
X120609433Y-97424003D01*
X120536446Y-97648631D01*
X120499500Y-97881902D01*
X120499500Y-98118097D01*
X120536447Y-98351371D01*
X120572289Y-98461683D01*
X120574284Y-98531524D01*
X120572289Y-98538317D01*
X120536447Y-98648628D01*
X120499500Y-98881902D01*
X120499500Y-99118097D01*
X120536447Y-99351371D01*
X120572289Y-99461683D01*
X120574284Y-99531524D01*
X120572289Y-99538317D01*
X120536447Y-99648628D01*
X120499500Y-99881902D01*
X120499500Y-100118097D01*
X120536447Y-100351371D01*
X120572289Y-100461683D01*
X120574284Y-100531524D01*
X120572289Y-100538317D01*
X120536447Y-100648628D01*
X120499500Y-100881902D01*
X120499500Y-101118097D01*
X120536447Y-101351371D01*
X120572289Y-101461683D01*
X120574284Y-101531524D01*
X120572289Y-101538317D01*
X120536447Y-101648628D01*
X120499500Y-101881902D01*
X120499500Y-102118097D01*
X120536447Y-102351371D01*
X120572289Y-102461683D01*
X120574284Y-102531524D01*
X120572289Y-102538317D01*
X120536447Y-102648628D01*
X120499500Y-102881902D01*
X120499500Y-103118097D01*
X120536447Y-103351371D01*
X120572289Y-103461683D01*
X120574284Y-103531524D01*
X120572289Y-103538317D01*
X120536447Y-103648628D01*
X120499500Y-103881902D01*
X120499500Y-104118097D01*
X120536447Y-104351371D01*
X120572289Y-104461683D01*
X120574284Y-104531524D01*
X120572289Y-104538317D01*
X120536447Y-104648628D01*
X120499500Y-104881902D01*
X120499500Y-105118097D01*
X120536447Y-105351371D01*
X120572289Y-105461683D01*
X120574284Y-105531524D01*
X120572289Y-105538317D01*
X120536447Y-105648628D01*
X120499500Y-105881902D01*
X120499500Y-106118097D01*
X120536447Y-106351371D01*
X120572289Y-106461683D01*
X120574284Y-106531524D01*
X120572289Y-106538317D01*
X120536447Y-106648628D01*
X120499500Y-106881902D01*
X120499500Y-107118097D01*
X120536447Y-107351371D01*
X120572289Y-107461683D01*
X120574284Y-107531524D01*
X120572289Y-107538317D01*
X120536447Y-107648628D01*
X120499500Y-107881902D01*
X120499500Y-108118097D01*
X120536447Y-108351371D01*
X120572289Y-108461683D01*
X120574284Y-108531524D01*
X120572289Y-108538317D01*
X120536447Y-108648628D01*
X120499500Y-108881902D01*
X120499500Y-109118097D01*
X120536447Y-109351371D01*
X120572289Y-109461683D01*
X120574284Y-109531524D01*
X120572289Y-109538317D01*
X120536447Y-109648628D01*
X120499500Y-109881902D01*
X120499500Y-110118097D01*
X120536447Y-110351371D01*
X120572289Y-110461683D01*
X120574284Y-110531524D01*
X120572289Y-110538317D01*
X120536447Y-110648628D01*
X120499500Y-110881902D01*
X120499500Y-111118097D01*
X120536447Y-111351371D01*
X120572289Y-111461683D01*
X120574284Y-111531524D01*
X120572289Y-111538317D01*
X120536447Y-111648628D01*
X120499500Y-111881902D01*
X120499500Y-112118097D01*
X120536447Y-112351371D01*
X120572289Y-112461683D01*
X120574284Y-112531524D01*
X120572289Y-112538317D01*
X120536447Y-112648628D01*
X120499500Y-112881902D01*
X120499500Y-113118097D01*
X120536447Y-113351371D01*
X120572289Y-113461683D01*
X120574284Y-113531524D01*
X120572289Y-113538317D01*
X120536447Y-113648628D01*
X120499500Y-113881902D01*
X120499500Y-114118097D01*
X120536447Y-114351371D01*
X120572289Y-114461683D01*
X120574284Y-114531524D01*
X120572289Y-114538317D01*
X120536447Y-114648628D01*
X120499500Y-114881902D01*
X120499500Y-115118097D01*
X120536447Y-115351371D01*
X120572289Y-115461683D01*
X120574284Y-115531524D01*
X120572289Y-115538317D01*
X120536447Y-115648628D01*
X120499500Y-115881902D01*
X120499500Y-116118097D01*
X120536447Y-116351371D01*
X120572289Y-116461683D01*
X120574284Y-116531524D01*
X120572289Y-116538317D01*
X120536447Y-116648628D01*
X120499500Y-116881902D01*
X120499500Y-117118097D01*
X120536447Y-117351371D01*
X120572289Y-117461683D01*
X120574284Y-117531524D01*
X120572289Y-117538317D01*
X120536447Y-117648628D01*
X120499500Y-117881902D01*
X120499500Y-118118097D01*
X120536447Y-118351371D01*
X120572289Y-118461683D01*
X120574284Y-118531524D01*
X120572289Y-118538317D01*
X120536447Y-118648628D01*
X120499500Y-118881902D01*
X120499500Y-119118097D01*
X120536447Y-119351371D01*
X120572289Y-119461683D01*
X120574284Y-119531524D01*
X120572289Y-119538317D01*
X120536447Y-119648628D01*
X120499500Y-119881902D01*
X120499500Y-120118097D01*
X120536447Y-120351371D01*
X120572289Y-120461683D01*
X120574284Y-120531524D01*
X120572289Y-120538317D01*
X120536447Y-120648628D01*
X120499500Y-120881902D01*
X120499500Y-121118097D01*
X120536447Y-121351371D01*
X120572289Y-121461683D01*
X120574284Y-121531524D01*
X120572289Y-121538317D01*
X120536447Y-121648628D01*
X120499500Y-121881902D01*
X120499500Y-122118097D01*
X120536447Y-122351371D01*
X120572289Y-122461683D01*
X120574284Y-122531524D01*
X120572289Y-122538317D01*
X120536447Y-122648628D01*
X120499500Y-122881902D01*
X120499500Y-123118097D01*
X120536447Y-123351371D01*
X120572289Y-123461683D01*
X120574284Y-123531524D01*
X120572289Y-123538317D01*
X120536447Y-123648628D01*
X120499500Y-123881902D01*
X120499500Y-124118097D01*
X120536447Y-124351371D01*
X120572289Y-124461683D01*
X120574284Y-124531524D01*
X120572289Y-124538317D01*
X120536447Y-124648628D01*
X120499500Y-124881902D01*
X120499500Y-125118097D01*
X120536447Y-125351371D01*
X120572289Y-125461683D01*
X120574284Y-125531524D01*
X120572289Y-125538317D01*
X120536447Y-125648628D01*
X120499500Y-125881902D01*
X120499500Y-126118097D01*
X120536447Y-126351371D01*
X120572289Y-126461683D01*
X120574284Y-126531524D01*
X120572289Y-126538317D01*
X120536447Y-126648628D01*
X120499500Y-126881902D01*
X120499500Y-127118097D01*
X120536447Y-127351371D01*
X120572289Y-127461683D01*
X120574284Y-127531524D01*
X120572289Y-127538317D01*
X120536447Y-127648628D01*
X120499500Y-127881902D01*
X120499500Y-128118097D01*
X120536447Y-128351371D01*
X120572289Y-128461683D01*
X120574284Y-128531524D01*
X120572289Y-128538317D01*
X120536447Y-128648628D01*
X120499500Y-128881902D01*
X120499500Y-129118097D01*
X120536447Y-129351371D01*
X120572289Y-129461683D01*
X120574284Y-129531524D01*
X120572289Y-129538317D01*
X120536447Y-129648628D01*
X120499500Y-129881902D01*
X120499500Y-130118097D01*
X120536447Y-130351371D01*
X120550322Y-130394074D01*
X120552317Y-130463915D01*
X120516236Y-130523747D01*
X120453535Y-130554575D01*
X120394074Y-130550322D01*
X120351370Y-130536447D01*
X120351371Y-130536447D01*
X120118097Y-130499500D01*
X120118092Y-130499500D01*
X119881908Y-130499500D01*
X119881903Y-130499500D01*
X119648628Y-130536447D01*
X119538317Y-130572289D01*
X119468476Y-130574284D01*
X119461683Y-130572289D01*
X119351370Y-130536447D01*
X119351371Y-130536447D01*
X119205102Y-130513280D01*
X119141967Y-130483351D01*
X119105036Y-130424039D01*
X119100500Y-130390807D01*
X119100500Y-130374038D01*
X119096909Y-130351364D01*
X119061090Y-130125215D01*
X118983241Y-129885621D01*
X118983239Y-129885618D01*
X118983239Y-129885616D01*
X118941747Y-129804184D01*
X118868870Y-129661155D01*
X118779625Y-129538319D01*
X118720798Y-129457350D01*
X118720794Y-129457345D01*
X118542654Y-129279205D01*
X118542649Y-129279201D01*
X118338848Y-129131132D01*
X118338847Y-129131131D01*
X118338845Y-129131130D01*
X118268747Y-129095413D01*
X118114383Y-129016760D01*
X117874785Y-128938910D01*
X117625962Y-128899500D01*
X117374038Y-128899500D01*
X117249626Y-128919205D01*
X117125214Y-128938910D01*
X116885616Y-129016760D01*
X116661151Y-129131132D01*
X116457350Y-129279201D01*
X116457345Y-129279205D01*
X116279205Y-129457345D01*
X116279201Y-129457350D01*
X116131132Y-129661151D01*
X116016760Y-129885616D01*
X115938910Y-130125214D01*
X115899500Y-130374038D01*
X115899500Y-130390807D01*
X115879815Y-130457846D01*
X115827011Y-130503601D01*
X115794898Y-130513280D01*
X115648628Y-130536447D01*
X115538317Y-130572289D01*
X115468476Y-130574284D01*
X115461683Y-130572289D01*
X115351370Y-130536447D01*
X115351371Y-130536447D01*
X115118097Y-130499500D01*
X115118092Y-130499500D01*
X114881908Y-130499500D01*
X114881903Y-130499500D01*
X114648628Y-130536447D01*
X114538317Y-130572289D01*
X114468476Y-130574284D01*
X114461683Y-130572289D01*
X114351370Y-130536447D01*
X114351371Y-130536447D01*
X114118097Y-130499500D01*
X114118092Y-130499500D01*
X113881908Y-130499500D01*
X113881903Y-130499500D01*
X113648628Y-130536447D01*
X113538317Y-130572289D01*
X113468476Y-130574284D01*
X113461683Y-130572289D01*
X113351370Y-130536447D01*
X113351371Y-130536447D01*
X113118097Y-130499500D01*
X113118092Y-130499500D01*
X112881908Y-130499500D01*
X112881903Y-130499500D01*
X112648628Y-130536447D01*
X112538317Y-130572289D01*
X112468476Y-130574284D01*
X112461683Y-130572289D01*
X112351370Y-130536447D01*
X112351371Y-130536447D01*
X112118097Y-130499500D01*
X112118092Y-130499500D01*
X111881908Y-130499500D01*
X111881903Y-130499500D01*
X111648628Y-130536447D01*
X111538317Y-130572289D01*
X111468476Y-130574284D01*
X111461683Y-130572289D01*
X111351370Y-130536447D01*
X111351371Y-130536447D01*
X111118097Y-130499500D01*
X111118092Y-130499500D01*
X110881908Y-130499500D01*
X110881903Y-130499500D01*
X110648628Y-130536447D01*
X110538317Y-130572289D01*
X110468476Y-130574284D01*
X110461683Y-130572289D01*
X110351370Y-130536447D01*
X110351371Y-130536447D01*
X110118097Y-130499500D01*
X110118092Y-130499500D01*
X109881908Y-130499500D01*
X109881903Y-130499500D01*
X109648628Y-130536447D01*
X109538317Y-130572289D01*
X109468476Y-130574284D01*
X109461683Y-130572289D01*
X109351370Y-130536447D01*
X109351371Y-130536447D01*
X109118097Y-130499500D01*
X109118092Y-130499500D01*
X108881908Y-130499500D01*
X108881903Y-130499500D01*
X108648628Y-130536447D01*
X108538317Y-130572289D01*
X108468476Y-130574284D01*
X108461683Y-130572289D01*
X108351370Y-130536447D01*
X108351371Y-130536447D01*
X108118097Y-130499500D01*
X108118092Y-130499500D01*
X107881908Y-130499500D01*
X107881903Y-130499500D01*
X107648628Y-130536447D01*
X107538317Y-130572289D01*
X107468476Y-130574284D01*
X107461683Y-130572289D01*
X107351370Y-130536447D01*
X107351371Y-130536447D01*
X107118097Y-130499500D01*
X107118092Y-130499500D01*
X106881908Y-130499500D01*
X106881903Y-130499500D01*
X106700577Y-130528219D01*
X106631283Y-130519264D01*
X106577831Y-130474268D01*
X106557192Y-130407517D01*
X106560610Y-130376778D01*
X106561082Y-130374806D01*
X106561090Y-130374785D01*
X106600500Y-130125962D01*
X106600500Y-129874038D01*
X106561090Y-129625215D01*
X106483241Y-129385621D01*
X106483239Y-129385618D01*
X106483239Y-129385616D01*
X106429017Y-129279201D01*
X106368870Y-129161155D01*
X106337583Y-129118092D01*
X106220798Y-128957350D01*
X106220794Y-128957345D01*
X106042654Y-128779205D01*
X106042649Y-128779201D01*
X105838848Y-128631132D01*
X105838847Y-128631131D01*
X105838845Y-128631130D01*
X105768747Y-128595413D01*
X105614383Y-128516760D01*
X105374785Y-128438910D01*
X105125962Y-128399500D01*
X104874038Y-128399500D01*
X104749626Y-128419205D01*
X104625214Y-128438910D01*
X104385616Y-128516760D01*
X104161151Y-128631132D01*
X103957350Y-128779201D01*
X103957345Y-128779205D01*
X103779205Y-128957345D01*
X103779201Y-128957350D01*
X103631132Y-129161151D01*
X103516760Y-129385616D01*
X103438910Y-129625214D01*
X103399500Y-129874038D01*
X103399500Y-130125961D01*
X103438908Y-130374778D01*
X103439393Y-130376795D01*
X103439353Y-130377585D01*
X103439672Y-130379597D01*
X103439249Y-130379663D01*
X103435905Y-130446577D01*
X103395243Y-130503396D01*
X103330317Y-130529212D01*
X103299422Y-130528219D01*
X103118097Y-130499500D01*
X103118092Y-130499500D01*
X102881908Y-130499500D01*
X102881903Y-130499500D01*
X102648628Y-130536447D01*
X102538317Y-130572289D01*
X102468476Y-130574284D01*
X102461683Y-130572289D01*
X102351370Y-130536447D01*
X102351371Y-130536447D01*
X102118097Y-130499500D01*
X102118092Y-130499500D01*
X101881908Y-130499500D01*
X101881903Y-130499500D01*
X101648628Y-130536447D01*
X101538317Y-130572289D01*
X101468476Y-130574284D01*
X101461683Y-130572289D01*
X101351370Y-130536447D01*
X101351371Y-130536447D01*
X101118097Y-130499500D01*
X101118092Y-130499500D01*
X100881908Y-130499500D01*
X100881903Y-130499500D01*
X100648628Y-130536447D01*
X100538317Y-130572289D01*
X100468476Y-130574284D01*
X100461683Y-130572289D01*
X100351370Y-130536447D01*
X100351371Y-130536447D01*
X100118097Y-130499500D01*
X100118092Y-130499500D01*
X99881908Y-130499500D01*
X99881903Y-130499500D01*
X99648632Y-130536446D01*
X99605923Y-130550323D01*
X99536082Y-130552317D01*
X99476249Y-130516235D01*
X99445423Y-130453533D01*
X99449676Y-130394074D01*
X99463553Y-130351368D01*
X99499254Y-130125961D01*
X99500500Y-130118097D01*
X99500500Y-129881902D01*
X99465536Y-129661155D01*
X99463553Y-129648632D01*
X99427708Y-129538316D01*
X99425714Y-129468477D01*
X99427702Y-129461704D01*
X99463553Y-129351368D01*
X99493680Y-129161155D01*
X99500500Y-129118097D01*
X99500500Y-128881902D01*
X99480347Y-128754666D01*
X99463553Y-128648632D01*
X99427708Y-128538316D01*
X99425714Y-128468477D01*
X99427702Y-128461704D01*
X99463553Y-128351368D01*
X99483705Y-128224126D01*
X99500500Y-128118097D01*
X99500500Y-127881902D01*
X99480347Y-127754666D01*
X99463553Y-127648632D01*
X99427708Y-127538316D01*
X99425714Y-127468477D01*
X99427702Y-127461704D01*
X99463553Y-127351368D01*
X99483705Y-127224126D01*
X99500500Y-127118097D01*
X99500500Y-126881902D01*
X99480347Y-126754666D01*
X99463553Y-126648632D01*
X99427708Y-126538316D01*
X99425714Y-126468477D01*
X99427702Y-126461704D01*
X99463553Y-126351368D01*
X99483705Y-126224126D01*
X99500500Y-126118097D01*
X99500500Y-125881902D01*
X99480347Y-125754666D01*
X99463553Y-125648632D01*
X99427708Y-125538316D01*
X99425714Y-125468477D01*
X99427702Y-125461704D01*
X99463553Y-125351368D01*
X99483705Y-125224126D01*
X99500500Y-125118097D01*
X99500500Y-124881902D01*
X99475266Y-124722584D01*
X99463553Y-124648632D01*
X99427708Y-124538316D01*
X99427168Y-124519400D01*
X99421647Y-124501301D01*
X99425864Y-124473737D01*
X99425714Y-124468477D01*
X99426303Y-124466315D01*
X99426957Y-124463995D01*
X99463553Y-124351368D01*
X99465042Y-124341966D01*
X103399500Y-124341966D01*
X103399500Y-125658028D01*
X103399501Y-125658034D01*
X103410113Y-125777415D01*
X103466089Y-125973045D01*
X103466090Y-125973048D01*
X103466091Y-125973049D01*
X103560302Y-126153407D01*
X103594977Y-126195933D01*
X103688890Y-126311109D01*
X103738268Y-126351371D01*
X103846593Y-126439698D01*
X104026951Y-126533909D01*
X104222582Y-126589886D01*
X104341963Y-126600500D01*
X105658036Y-126600499D01*
X105777418Y-126589886D01*
X105973049Y-126533909D01*
X106153407Y-126439698D01*
X106311109Y-126311109D01*
X106439698Y-126153407D01*
X106533909Y-125973049D01*
X106589886Y-125777418D01*
X106600500Y-125658037D01*
X106600499Y-124841966D01*
X115899500Y-124841966D01*
X115899500Y-126158028D01*
X115899501Y-126158034D01*
X115910113Y-126277415D01*
X115966089Y-126473045D01*
X115966090Y-126473048D01*
X115966091Y-126473049D01*
X116060302Y-126653407D01*
X116060304Y-126653409D01*
X116188890Y-126811109D01*
X116275712Y-126881902D01*
X116346593Y-126939698D01*
X116526951Y-127033909D01*
X116722582Y-127089886D01*
X116841963Y-127100500D01*
X118158036Y-127100499D01*
X118277418Y-127089886D01*
X118473049Y-127033909D01*
X118653407Y-126939698D01*
X118811109Y-126811109D01*
X118939698Y-126653407D01*
X119033909Y-126473049D01*
X119089886Y-126277418D01*
X119100500Y-126158037D01*
X119100499Y-124841964D01*
X119089886Y-124722582D01*
X119037161Y-124538317D01*
X119033910Y-124526954D01*
X119033909Y-124526953D01*
X119033909Y-124526951D01*
X118939698Y-124346593D01*
X118838584Y-124222586D01*
X118811109Y-124188890D01*
X118653409Y-124060304D01*
X118653410Y-124060304D01*
X118653407Y-124060302D01*
X118473049Y-123966091D01*
X118473048Y-123966090D01*
X118473045Y-123966089D01*
X118355829Y-123932550D01*
X118277418Y-123910114D01*
X118277415Y-123910113D01*
X118277413Y-123910113D01*
X118211102Y-123904217D01*
X118158037Y-123899500D01*
X118158032Y-123899500D01*
X116841971Y-123899500D01*
X116841965Y-123899500D01*
X116841964Y-123899501D01*
X116830316Y-123900536D01*
X116722584Y-123910113D01*
X116526954Y-123966089D01*
X116436772Y-124013196D01*
X116346593Y-124060302D01*
X116346591Y-124060303D01*
X116346590Y-124060304D01*
X116188890Y-124188890D01*
X116060304Y-124346590D01*
X116060302Y-124346593D01*
X116013196Y-124436772D01*
X115966089Y-124526954D01*
X115910114Y-124722583D01*
X115910113Y-124722586D01*
X115899500Y-124841966D01*
X106600499Y-124841966D01*
X106600499Y-124341964D01*
X106589886Y-124222582D01*
X106545012Y-124065756D01*
X106533910Y-124026954D01*
X106533909Y-124026953D01*
X106533909Y-124026951D01*
X106439698Y-123846593D01*
X106387684Y-123782803D01*
X106311109Y-123688890D01*
X106153409Y-123560304D01*
X106153410Y-123560304D01*
X106153407Y-123560302D01*
X105973049Y-123466091D01*
X105973048Y-123466090D01*
X105973045Y-123466089D01*
X105855829Y-123432550D01*
X105777418Y-123410114D01*
X105777415Y-123410113D01*
X105777413Y-123410113D01*
X105711102Y-123404217D01*
X105658037Y-123399500D01*
X105658032Y-123399500D01*
X104341971Y-123399500D01*
X104341965Y-123399500D01*
X104341964Y-123399501D01*
X104330316Y-123400536D01*
X104222584Y-123410113D01*
X104026954Y-123466089D01*
X103962035Y-123500000D01*
X103846593Y-123560302D01*
X103846591Y-123560303D01*
X103846590Y-123560304D01*
X103688890Y-123688890D01*
X103560304Y-123846590D01*
X103560302Y-123846593D01*
X103513196Y-123936772D01*
X103466089Y-124026954D01*
X103421332Y-124183376D01*
X103419755Y-124188890D01*
X103410114Y-124222583D01*
X103410113Y-124222586D01*
X103399500Y-124341966D01*
X99465042Y-124341966D01*
X99483950Y-124222586D01*
X99500500Y-124118097D01*
X99500500Y-123881902D01*
X99469929Y-123688890D01*
X99463553Y-123648632D01*
X99427708Y-123538316D01*
X99425714Y-123468477D01*
X99427702Y-123461704D01*
X99463553Y-123351368D01*
X99483705Y-123224126D01*
X99500500Y-123118097D01*
X99500500Y-122881902D01*
X99480347Y-122754666D01*
X99463553Y-122648632D01*
X99427708Y-122538316D01*
X99425714Y-122468477D01*
X99427702Y-122461704D01*
X99463553Y-122351368D01*
X99483705Y-122224126D01*
X99500500Y-122118097D01*
X99500500Y-121881902D01*
X99480347Y-121754666D01*
X99463553Y-121648632D01*
X99427708Y-121538316D01*
X99425714Y-121468477D01*
X99427702Y-121461704D01*
X99463553Y-121351368D01*
X99483705Y-121224126D01*
X99500500Y-121118097D01*
X99500500Y-120881902D01*
X99480347Y-120754666D01*
X99463553Y-120648632D01*
X99427708Y-120538316D01*
X99425714Y-120468477D01*
X99427702Y-120461704D01*
X99463553Y-120351368D01*
X99484234Y-120220793D01*
X99500500Y-120118097D01*
X99500500Y-119881902D01*
X99474982Y-119720793D01*
X99463553Y-119648632D01*
X99427708Y-119538316D01*
X99425714Y-119468477D01*
X99427702Y-119461704D01*
X99463553Y-119351368D01*
X99499254Y-119125961D01*
X99500500Y-119118097D01*
X99500500Y-118881902D01*
X99480347Y-118754666D01*
X99463553Y-118648632D01*
X99427708Y-118538316D01*
X99427123Y-118517826D01*
X99421655Y-118498069D01*
X99425840Y-118472910D01*
X99425714Y-118468477D01*
X99427221Y-118463216D01*
X99427438Y-118462515D01*
X99456187Y-118374038D01*
X103399500Y-118374038D01*
X103399500Y-118625962D01*
X103434948Y-118849767D01*
X103438910Y-118874785D01*
X103516760Y-119114383D01*
X103631132Y-119338848D01*
X103779201Y-119542649D01*
X103779205Y-119542654D01*
X103957345Y-119720794D01*
X103957350Y-119720798D01*
X104119829Y-119838845D01*
X104161155Y-119868870D01*
X104304184Y-119941747D01*
X104385616Y-119983239D01*
X104385618Y-119983239D01*
X104385621Y-119983241D01*
X104625215Y-120061090D01*
X104874038Y-120100500D01*
X104874039Y-120100500D01*
X105125961Y-120100500D01*
X105125962Y-120100500D01*
X105374785Y-120061090D01*
X105614379Y-119983241D01*
X105838845Y-119868870D01*
X106042656Y-119720793D01*
X106220793Y-119542656D01*
X106368870Y-119338845D01*
X106483241Y-119114379D01*
X106561090Y-118874785D01*
X106561208Y-118874038D01*
X115899500Y-118874038D01*
X115899500Y-119125961D01*
X115938910Y-119374785D01*
X116016760Y-119614383D01*
X116131132Y-119838848D01*
X116279201Y-120042649D01*
X116279205Y-120042654D01*
X116457345Y-120220794D01*
X116457350Y-120220798D01*
X116635117Y-120349952D01*
X116661155Y-120368870D01*
X116804184Y-120441747D01*
X116885616Y-120483239D01*
X116885618Y-120483239D01*
X116885621Y-120483241D01*
X117125215Y-120561090D01*
X117374038Y-120600500D01*
X117374039Y-120600500D01*
X117625961Y-120600500D01*
X117625962Y-120600500D01*
X117874785Y-120561090D01*
X118114379Y-120483241D01*
X118338845Y-120368870D01*
X118542656Y-120220793D01*
X118720793Y-120042656D01*
X118868870Y-119838845D01*
X118983241Y-119614379D01*
X119061090Y-119374785D01*
X119100500Y-119125962D01*
X119100500Y-118874038D01*
X119061090Y-118625215D01*
X118983241Y-118385621D01*
X118983239Y-118385618D01*
X118983239Y-118385616D01*
X118941747Y-118304184D01*
X118868870Y-118161155D01*
X118837583Y-118118092D01*
X118720798Y-117957350D01*
X118720794Y-117957345D01*
X118542654Y-117779205D01*
X118542649Y-117779201D01*
X118338848Y-117631132D01*
X118338847Y-117631131D01*
X118338845Y-117631130D01*
X118268747Y-117595413D01*
X118114383Y-117516760D01*
X117874785Y-117438910D01*
X117625962Y-117399500D01*
X117374038Y-117399500D01*
X117249626Y-117419205D01*
X117125214Y-117438910D01*
X116885616Y-117516760D01*
X116661151Y-117631132D01*
X116457350Y-117779201D01*
X116457345Y-117779205D01*
X116279205Y-117957345D01*
X116279201Y-117957350D01*
X116131132Y-118161151D01*
X116016760Y-118385616D01*
X115938910Y-118625214D01*
X115899500Y-118874038D01*
X106561208Y-118874038D01*
X106600500Y-118625962D01*
X106600500Y-118374038D01*
X106561090Y-118125215D01*
X106483241Y-117885621D01*
X106483239Y-117885618D01*
X106483239Y-117885616D01*
X106429017Y-117779201D01*
X106368870Y-117661155D01*
X106279625Y-117538319D01*
X106220798Y-117457350D01*
X106220794Y-117457345D01*
X106042654Y-117279205D01*
X106042649Y-117279201D01*
X105838848Y-117131132D01*
X105838847Y-117131131D01*
X105838845Y-117131130D01*
X105768747Y-117095413D01*
X105614383Y-117016760D01*
X105374785Y-116938910D01*
X105125962Y-116899500D01*
X104874038Y-116899500D01*
X104749626Y-116919205D01*
X104625214Y-116938910D01*
X104385616Y-117016760D01*
X104161151Y-117131132D01*
X103957350Y-117279201D01*
X103957345Y-117279205D01*
X103779205Y-117457345D01*
X103779201Y-117457350D01*
X103631132Y-117661151D01*
X103516760Y-117885616D01*
X103438910Y-118125214D01*
X103404745Y-118340923D01*
X103399500Y-118374038D01*
X99456187Y-118374038D01*
X99463553Y-118351368D01*
X99493680Y-118161155D01*
X99500500Y-118118097D01*
X99500500Y-117881902D01*
X99465536Y-117661155D01*
X99463553Y-117648632D01*
X99427708Y-117538316D01*
X99425714Y-117468477D01*
X99427702Y-117461704D01*
X99463553Y-117351368D01*
X99498435Y-117131132D01*
X99500500Y-117118097D01*
X99500500Y-116881902D01*
X99480347Y-116754666D01*
X99463553Y-116648632D01*
X99427708Y-116538316D01*
X99425714Y-116468477D01*
X99427702Y-116461704D01*
X99463553Y-116351368D01*
X99483705Y-116224126D01*
X99500500Y-116118097D01*
X99500500Y-115881902D01*
X99480347Y-115754666D01*
X99463553Y-115648632D01*
X99427708Y-115538316D01*
X99425714Y-115468477D01*
X99427702Y-115461704D01*
X99463553Y-115351368D01*
X99483705Y-115224126D01*
X99500500Y-115118097D01*
X99500500Y-114881902D01*
X99480347Y-114754666D01*
X99463553Y-114648632D01*
X99427708Y-114538316D01*
X99425714Y-114468477D01*
X99427702Y-114461704D01*
X99463553Y-114351368D01*
X99483705Y-114224126D01*
X99500500Y-114118097D01*
X99500500Y-113881902D01*
X99480347Y-113754666D01*
X99463553Y-113648632D01*
X99427708Y-113538316D01*
X99425714Y-113468477D01*
X99427702Y-113461704D01*
X99463553Y-113351368D01*
X99483705Y-113224126D01*
X99500500Y-113118097D01*
X99500500Y-112881902D01*
X99496811Y-112858612D01*
X99494174Y-112841966D01*
X103399500Y-112841966D01*
X103399500Y-114158028D01*
X103399501Y-114158034D01*
X103410113Y-114277415D01*
X103466089Y-114473045D01*
X103466090Y-114473048D01*
X103466091Y-114473049D01*
X103560302Y-114653407D01*
X103560304Y-114653409D01*
X103688890Y-114811109D01*
X103775712Y-114881902D01*
X103846593Y-114939698D01*
X104026951Y-115033909D01*
X104222582Y-115089886D01*
X104341963Y-115100500D01*
X105658036Y-115100499D01*
X105777418Y-115089886D01*
X105973049Y-115033909D01*
X106153407Y-114939698D01*
X106311109Y-114811109D01*
X106439698Y-114653407D01*
X106533909Y-114473049D01*
X106589886Y-114277418D01*
X106600500Y-114158037D01*
X106600499Y-112841964D01*
X106589886Y-112722582D01*
X106537161Y-112538317D01*
X106533910Y-112526954D01*
X106533909Y-112526953D01*
X106533909Y-112526951D01*
X106439698Y-112346593D01*
X106387684Y-112282803D01*
X106311109Y-112188890D01*
X106153409Y-112060304D01*
X106153410Y-112060304D01*
X106153407Y-112060302D01*
X105973049Y-111966091D01*
X105973048Y-111966090D01*
X105973045Y-111966089D01*
X105855829Y-111932550D01*
X105777418Y-111910114D01*
X105777415Y-111910113D01*
X105777413Y-111910113D01*
X105711102Y-111904217D01*
X105658037Y-111899500D01*
X105658032Y-111899500D01*
X104341971Y-111899500D01*
X104341965Y-111899500D01*
X104341964Y-111899501D01*
X104330316Y-111900536D01*
X104222584Y-111910113D01*
X104026954Y-111966089D01*
X103936772Y-112013196D01*
X103846593Y-112060302D01*
X103846591Y-112060303D01*
X103846590Y-112060304D01*
X103688890Y-112188890D01*
X103560304Y-112346590D01*
X103560302Y-112346593D01*
X103513196Y-112436772D01*
X103466089Y-112526954D01*
X103410114Y-112722583D01*
X103410113Y-112722586D01*
X103399500Y-112841966D01*
X99494174Y-112841966D01*
X99475266Y-112722586D01*
X99463553Y-112648632D01*
X99427708Y-112538316D01*
X99425714Y-112468477D01*
X99427702Y-112461704D01*
X99463553Y-112351368D01*
X99489287Y-112188890D01*
X99500500Y-112118097D01*
X99500500Y-111881902D01*
X99480347Y-111754666D01*
X99463553Y-111648632D01*
X99427708Y-111538316D01*
X99425714Y-111468477D01*
X99427702Y-111461704D01*
X99463553Y-111351368D01*
X99483705Y-111224126D01*
X99500500Y-111118097D01*
X99500500Y-110881902D01*
X99480347Y-110754666D01*
X99463553Y-110648632D01*
X99427708Y-110538316D01*
X99425714Y-110468477D01*
X99427702Y-110461704D01*
X99463553Y-110351368D01*
X99483705Y-110224126D01*
X99500500Y-110118097D01*
X99500500Y-109881902D01*
X99480347Y-109754666D01*
X99463553Y-109648632D01*
X99427708Y-109538316D01*
X99425714Y-109468477D01*
X99427702Y-109461704D01*
X99463553Y-109351368D01*
X99483705Y-109224126D01*
X99500500Y-109118097D01*
X99500500Y-108881902D01*
X99474982Y-108720793D01*
X99463553Y-108648632D01*
X99427708Y-108538316D01*
X99425714Y-108468477D01*
X99427702Y-108461704D01*
X99463553Y-108351368D01*
X99483705Y-108224126D01*
X99500500Y-108118097D01*
X99500500Y-107881902D01*
X99476970Y-107733344D01*
X99463553Y-107648632D01*
X99427708Y-107538316D01*
X99425714Y-107468477D01*
X99427702Y-107461704D01*
X99463553Y-107351368D01*
X99497884Y-107134612D01*
X99500500Y-107118097D01*
X99500500Y-106881902D01*
X99465536Y-106661155D01*
X99463553Y-106648632D01*
X99427708Y-106538316D01*
X99425714Y-106468477D01*
X99427702Y-106461704D01*
X99463553Y-106351368D01*
X99498435Y-106131132D01*
X99500500Y-106118097D01*
X99500500Y-106045258D01*
X105569500Y-106045258D01*
X105569500Y-106274741D01*
X105593541Y-106457344D01*
X105599452Y-106502238D01*
X105609120Y-106538319D01*
X105658842Y-106723887D01*
X105746650Y-106935876D01*
X105746657Y-106935890D01*
X105861392Y-107134617D01*
X106001081Y-107316661D01*
X106001089Y-107316670D01*
X106163330Y-107478911D01*
X106163338Y-107478918D01*
X106345382Y-107618607D01*
X106345385Y-107618608D01*
X106345388Y-107618611D01*
X106544112Y-107733344D01*
X106544117Y-107733346D01*
X106544123Y-107733349D01*
X106635480Y-107771190D01*
X106756113Y-107821158D01*
X106977762Y-107880548D01*
X107205266Y-107910500D01*
X107205273Y-107910500D01*
X107434727Y-107910500D01*
X107434734Y-107910500D01*
X107662238Y-107880548D01*
X107883887Y-107821158D01*
X108095888Y-107733344D01*
X108294612Y-107618611D01*
X108476661Y-107478919D01*
X108476665Y-107478914D01*
X108476670Y-107478911D01*
X108581543Y-107374038D01*
X115899500Y-107374038D01*
X115899500Y-107625962D01*
X115916508Y-107733344D01*
X115938910Y-107874785D01*
X116016760Y-108114383D01*
X116131132Y-108338848D01*
X116279201Y-108542649D01*
X116279205Y-108542654D01*
X116457345Y-108720794D01*
X116457350Y-108720798D01*
X116635117Y-108849952D01*
X116661155Y-108868870D01*
X116804184Y-108941747D01*
X116885616Y-108983239D01*
X116885618Y-108983239D01*
X116885621Y-108983241D01*
X117125215Y-109061090D01*
X117374038Y-109100500D01*
X117374039Y-109100500D01*
X117625961Y-109100500D01*
X117625962Y-109100500D01*
X117874785Y-109061090D01*
X118114379Y-108983241D01*
X118338845Y-108868870D01*
X118542656Y-108720793D01*
X118720793Y-108542656D01*
X118868870Y-108338845D01*
X118983241Y-108114379D01*
X119061090Y-107874785D01*
X119100500Y-107625962D01*
X119100500Y-107374038D01*
X119061090Y-107125215D01*
X118983241Y-106885621D01*
X118983239Y-106885618D01*
X118983239Y-106885616D01*
X118941747Y-106804184D01*
X118868870Y-106661155D01*
X118779625Y-106538319D01*
X118720798Y-106457350D01*
X118720794Y-106457345D01*
X118542654Y-106279205D01*
X118542649Y-106279201D01*
X118338848Y-106131132D01*
X118338847Y-106131131D01*
X118338845Y-106131130D01*
X118268747Y-106095413D01*
X118114383Y-106016760D01*
X117874785Y-105938910D01*
X117625962Y-105899500D01*
X117374038Y-105899500D01*
X117249626Y-105919205D01*
X117125214Y-105938910D01*
X116885616Y-106016760D01*
X116661151Y-106131132D01*
X116457350Y-106279201D01*
X116457345Y-106279205D01*
X116279205Y-106457345D01*
X116279201Y-106457350D01*
X116131132Y-106661151D01*
X116016760Y-106885616D01*
X115938910Y-107125214D01*
X115937421Y-107134617D01*
X115899500Y-107374038D01*
X108581543Y-107374038D01*
X108638911Y-107316670D01*
X108638912Y-107316668D01*
X108638919Y-107316661D01*
X108778611Y-107134612D01*
X108893344Y-106935888D01*
X108981158Y-106723887D01*
X109040548Y-106502238D01*
X109070500Y-106274734D01*
X109070500Y-106045266D01*
X109040548Y-105817762D01*
X108981158Y-105596113D01*
X108893344Y-105384112D01*
X108778611Y-105185388D01*
X108778608Y-105185385D01*
X108778607Y-105185382D01*
X108638918Y-105003338D01*
X108638911Y-105003330D01*
X108476670Y-104841089D01*
X108476661Y-104841081D01*
X108294617Y-104701392D01*
X108095890Y-104586657D01*
X108095876Y-104586650D01*
X107883887Y-104498842D01*
X107662238Y-104439452D01*
X107624215Y-104434446D01*
X107434741Y-104409500D01*
X107434734Y-104409500D01*
X107205266Y-104409500D01*
X107205258Y-104409500D01*
X106988715Y-104438009D01*
X106977762Y-104439452D01*
X106894801Y-104461681D01*
X106756112Y-104498842D01*
X106544123Y-104586650D01*
X106544109Y-104586657D01*
X106345382Y-104701392D01*
X106163338Y-104841081D01*
X106001081Y-105003338D01*
X105861392Y-105185382D01*
X105746657Y-105384109D01*
X105746650Y-105384123D01*
X105658842Y-105596112D01*
X105599453Y-105817759D01*
X105599451Y-105817770D01*
X105569500Y-106045258D01*
X99500500Y-106045258D01*
X99500500Y-105881902D01*
X99480347Y-105754666D01*
X99463553Y-105648632D01*
X99427708Y-105538316D01*
X99425714Y-105468477D01*
X99427702Y-105461704D01*
X99463553Y-105351368D01*
X99483705Y-105224126D01*
X99500500Y-105118097D01*
X99500500Y-104881902D01*
X99471909Y-104701392D01*
X99463553Y-104648632D01*
X99427708Y-104538316D01*
X99425714Y-104468477D01*
X99427702Y-104461704D01*
X99463553Y-104351368D01*
X99483705Y-104224126D01*
X99500500Y-104118097D01*
X99500500Y-103881902D01*
X99480347Y-103754666D01*
X99463553Y-103648632D01*
X99427708Y-103538316D01*
X99425714Y-103468477D01*
X99427702Y-103461704D01*
X99463553Y-103351368D01*
X99483705Y-103224126D01*
X99500500Y-103118097D01*
X99500500Y-102881902D01*
X99480347Y-102754666D01*
X99463553Y-102648632D01*
X99427708Y-102538316D01*
X99425714Y-102468477D01*
X99427702Y-102461704D01*
X99463553Y-102351368D01*
X99483705Y-102224126D01*
X99500500Y-102118097D01*
X99500500Y-101881902D01*
X99480347Y-101754666D01*
X99463553Y-101648632D01*
X99427708Y-101538316D01*
X99425714Y-101468477D01*
X99427702Y-101461704D01*
X99463553Y-101351368D01*
X99483705Y-101224126D01*
X99500500Y-101118097D01*
X99500500Y-100881902D01*
X99480347Y-100754666D01*
X99463553Y-100648632D01*
X99427708Y-100538316D01*
X99425714Y-100468477D01*
X99427702Y-100461704D01*
X99463553Y-100351368D01*
X99483705Y-100224126D01*
X99500500Y-100118097D01*
X99500500Y-99881902D01*
X99480347Y-99754666D01*
X99463553Y-99648632D01*
X99427708Y-99538316D01*
X99425714Y-99468477D01*
X99427702Y-99461704D01*
X99463553Y-99351368D01*
X99483705Y-99224126D01*
X99500500Y-99118097D01*
X99500500Y-98881902D01*
X99480347Y-98754666D01*
X99463553Y-98648632D01*
X99427708Y-98538316D01*
X99425714Y-98468477D01*
X99427702Y-98461704D01*
X99463553Y-98351368D01*
X99483705Y-98224126D01*
X99500500Y-98118097D01*
X99500500Y-97881902D01*
X99474943Y-97720546D01*
X99463553Y-97648632D01*
X99427708Y-97538316D01*
X99425714Y-97468477D01*
X99427702Y-97461704D01*
X99463553Y-97351368D01*
X99494390Y-97156670D01*
X99500500Y-97118097D01*
X99500500Y-96881902D01*
X99474327Y-96716657D01*
X99463553Y-96648632D01*
X99427708Y-96538316D01*
X99425714Y-96468477D01*
X99427702Y-96461704D01*
X99463553Y-96351368D01*
X99499254Y-96125961D01*
X99500500Y-96118097D01*
X99500500Y-95885258D01*
X105569500Y-95885258D01*
X105569500Y-96114741D01*
X105594446Y-96304215D01*
X105599452Y-96342238D01*
X105641590Y-96499500D01*
X105658842Y-96563887D01*
X105746650Y-96775876D01*
X105746657Y-96775890D01*
X105861392Y-96974617D01*
X106001081Y-97156661D01*
X106001089Y-97156670D01*
X106163330Y-97318911D01*
X106163338Y-97318918D01*
X106345382Y-97458607D01*
X106345385Y-97458608D01*
X106345388Y-97458611D01*
X106544112Y-97573344D01*
X106544117Y-97573346D01*
X106544123Y-97573349D01*
X106609672Y-97600500D01*
X106756113Y-97661158D01*
X106977762Y-97720548D01*
X107205266Y-97750500D01*
X107205273Y-97750500D01*
X107434727Y-97750500D01*
X107434734Y-97750500D01*
X107662238Y-97720548D01*
X107883887Y-97661158D01*
X108095888Y-97573344D01*
X108294612Y-97458611D01*
X108476661Y-97318919D01*
X108476665Y-97318914D01*
X108476670Y-97318911D01*
X108638911Y-97156670D01*
X108638914Y-97156665D01*
X108638919Y-97156661D01*
X108778611Y-96974612D01*
X108893344Y-96775888D01*
X108981158Y-96563887D01*
X109040548Y-96342238D01*
X109070500Y-96114734D01*
X109070500Y-95885266D01*
X109069022Y-95874038D01*
X115899500Y-95874038D01*
X115899500Y-96125961D01*
X115938910Y-96374785D01*
X116016760Y-96614383D01*
X116131132Y-96838848D01*
X116279201Y-97042649D01*
X116279205Y-97042654D01*
X116457345Y-97220794D01*
X116457350Y-97220798D01*
X116592392Y-97318911D01*
X116661155Y-97368870D01*
X116769360Y-97424003D01*
X116885616Y-97483239D01*
X116885618Y-97483239D01*
X116885621Y-97483241D01*
X117125215Y-97561090D01*
X117374038Y-97600500D01*
X117374039Y-97600500D01*
X117625961Y-97600500D01*
X117625962Y-97600500D01*
X117874785Y-97561090D01*
X118114379Y-97483241D01*
X118338845Y-97368870D01*
X118542656Y-97220793D01*
X118720793Y-97042656D01*
X118868870Y-96838845D01*
X118983241Y-96614379D01*
X119061090Y-96374785D01*
X119100500Y-96125962D01*
X119100500Y-95874038D01*
X119061090Y-95625215D01*
X118983241Y-95385621D01*
X118983239Y-95385618D01*
X118983239Y-95385616D01*
X118941747Y-95304184D01*
X118868870Y-95161155D01*
X118770230Y-95025388D01*
X118720798Y-94957350D01*
X118720794Y-94957345D01*
X118542654Y-94779205D01*
X118542649Y-94779201D01*
X118338848Y-94631132D01*
X118338847Y-94631131D01*
X118338845Y-94631130D01*
X118248628Y-94585162D01*
X118114383Y-94516760D01*
X117874785Y-94438910D01*
X117797379Y-94426650D01*
X117625962Y-94399500D01*
X117374038Y-94399500D01*
X117249626Y-94419205D01*
X117125214Y-94438910D01*
X116885616Y-94516760D01*
X116661151Y-94631132D01*
X116457350Y-94779201D01*
X116457345Y-94779205D01*
X116279205Y-94957345D01*
X116279201Y-94957350D01*
X116131132Y-95161151D01*
X116016760Y-95385616D01*
X115938910Y-95625214D01*
X115899500Y-95874038D01*
X109069022Y-95874038D01*
X109040548Y-95657762D01*
X108981158Y-95436113D01*
X108893344Y-95224112D01*
X108778611Y-95025388D01*
X108778608Y-95025385D01*
X108778607Y-95025382D01*
X108638918Y-94843338D01*
X108638911Y-94843330D01*
X108476670Y-94681089D01*
X108476661Y-94681081D01*
X108294617Y-94541392D01*
X108289294Y-94538319D01*
X108095888Y-94426656D01*
X108095876Y-94426650D01*
X107883887Y-94338842D01*
X107662238Y-94279452D01*
X107624215Y-94274446D01*
X107434741Y-94249500D01*
X107434734Y-94249500D01*
X107205266Y-94249500D01*
X107205258Y-94249500D01*
X106988715Y-94278009D01*
X106977762Y-94279452D01*
X106884076Y-94304554D01*
X106756112Y-94338842D01*
X106544123Y-94426650D01*
X106544109Y-94426657D01*
X106345382Y-94541392D01*
X106163338Y-94681081D01*
X106001081Y-94843338D01*
X105861392Y-95025382D01*
X105746657Y-95224109D01*
X105746650Y-95224123D01*
X105658842Y-95436112D01*
X105658842Y-95436113D01*
X105601899Y-95648632D01*
X105599453Y-95657759D01*
X105599451Y-95657770D01*
X105569500Y-95885258D01*
X99500500Y-95885258D01*
X99500500Y-95881902D01*
X99480347Y-95754666D01*
X99463553Y-95648632D01*
X99427708Y-95538316D01*
X99425714Y-95468477D01*
X99427702Y-95461704D01*
X99463553Y-95351368D01*
X99493680Y-95161155D01*
X99500500Y-95118097D01*
X99500500Y-94881902D01*
X99480347Y-94754666D01*
X99463553Y-94648632D01*
X99427708Y-94538316D01*
X99425714Y-94468477D01*
X99427702Y-94461704D01*
X99463553Y-94351368D01*
X99496315Y-94144517D01*
X99500500Y-94118097D01*
X99500500Y-93881902D01*
X99480347Y-93754666D01*
X99463553Y-93648632D01*
X99427708Y-93538316D01*
X99425714Y-93468477D01*
X99427702Y-93461704D01*
X99463553Y-93351368D01*
X99496315Y-93144517D01*
X99500500Y-93118097D01*
X99500500Y-92881902D01*
X99480347Y-92754666D01*
X99463553Y-92648632D01*
X99427708Y-92538316D01*
X99425714Y-92468477D01*
X99427702Y-92461704D01*
X99463553Y-92351368D01*
X99485378Y-92213567D01*
X99500500Y-92118097D01*
X99500500Y-91881902D01*
X99474327Y-91716657D01*
X99463553Y-91648632D01*
X99427708Y-91538316D01*
X99425714Y-91468477D01*
X99427702Y-91461704D01*
X99463553Y-91351368D01*
X99485379Y-91213566D01*
X99500500Y-91118097D01*
X99500500Y-90881902D01*
X99474327Y-90716657D01*
X99463553Y-90648632D01*
X99427708Y-90538316D01*
X99425714Y-90468477D01*
X99427702Y-90461704D01*
X99463553Y-90351368D01*
X99483705Y-90224126D01*
X99500500Y-90118097D01*
X99500500Y-89881902D01*
X99480347Y-89754666D01*
X99463553Y-89648632D01*
X99427708Y-89538316D01*
X99425714Y-89468477D01*
X99427702Y-89461704D01*
X99463553Y-89351368D01*
X99483705Y-89224126D01*
X99500500Y-89118097D01*
X99500500Y-88881902D01*
X99480347Y-88754666D01*
X99463553Y-88648632D01*
X99427708Y-88538316D01*
X99425714Y-88468477D01*
X99427702Y-88461704D01*
X99463553Y-88351368D01*
X99483705Y-88224126D01*
X99500500Y-88118097D01*
X99500500Y-87881902D01*
X99480347Y-87754666D01*
X99463553Y-87648632D01*
X99427708Y-87538316D01*
X99425714Y-87468477D01*
X99427702Y-87461704D01*
X99463553Y-87351368D01*
X99494035Y-87158911D01*
X99500500Y-87118097D01*
X99500500Y-86881902D01*
X99480347Y-86754666D01*
X99463553Y-86648632D01*
X99427708Y-86538316D01*
X99425714Y-86468477D01*
X99427702Y-86461704D01*
X99463553Y-86351368D01*
X99490340Y-86182240D01*
X99500500Y-86118097D01*
X99500500Y-85881902D01*
X99478959Y-85745902D01*
X99478958Y-85745901D01*
X99475689Y-85725258D01*
X105569500Y-85725258D01*
X105569500Y-85954741D01*
X105594446Y-86144215D01*
X105599452Y-86182238D01*
X105599453Y-86182240D01*
X105658842Y-86403887D01*
X105746650Y-86615876D01*
X105746657Y-86615890D01*
X105861392Y-86814617D01*
X106001081Y-86996661D01*
X106001089Y-86996670D01*
X106163330Y-87158911D01*
X106163338Y-87158918D01*
X106345382Y-87298607D01*
X106345385Y-87298608D01*
X106345388Y-87298611D01*
X106544112Y-87413344D01*
X106544117Y-87413346D01*
X106544123Y-87413349D01*
X106635480Y-87451190D01*
X106756113Y-87501158D01*
X106977762Y-87560548D01*
X107205266Y-87590500D01*
X107205273Y-87590500D01*
X107434727Y-87590500D01*
X107434734Y-87590500D01*
X107662238Y-87560548D01*
X107883887Y-87501158D01*
X108095888Y-87413344D01*
X108294612Y-87298611D01*
X108476661Y-87158919D01*
X108476665Y-87158914D01*
X108476670Y-87158911D01*
X108638911Y-86996670D01*
X108638914Y-86996665D01*
X108638919Y-86996661D01*
X108778611Y-86814612D01*
X108893344Y-86615888D01*
X108981158Y-86403887D01*
X109040548Y-86182238D01*
X109070500Y-85954734D01*
X109070500Y-85725266D01*
X109040548Y-85497762D01*
X108981158Y-85276113D01*
X108926648Y-85144514D01*
X108893349Y-85064123D01*
X108893346Y-85064117D01*
X108893344Y-85064112D01*
X108778611Y-84865388D01*
X108778608Y-84865385D01*
X108778607Y-84865382D01*
X108638918Y-84683338D01*
X108638911Y-84683330D01*
X108476670Y-84521089D01*
X108476661Y-84521081D01*
X108294617Y-84381392D01*
X108242603Y-84351362D01*
X108095888Y-84266656D01*
X108095876Y-84266650D01*
X107883887Y-84178842D01*
X107662238Y-84119452D01*
X107624215Y-84114446D01*
X107434741Y-84089500D01*
X107434734Y-84089500D01*
X107205266Y-84089500D01*
X107205258Y-84089500D01*
X106988715Y-84118009D01*
X106977762Y-84119452D01*
X106884228Y-84144514D01*
X106756112Y-84178842D01*
X106544123Y-84266650D01*
X106544109Y-84266657D01*
X106345382Y-84381392D01*
X106163338Y-84521081D01*
X106001081Y-84683338D01*
X105861392Y-84865382D01*
X105746657Y-85064109D01*
X105746650Y-85064123D01*
X105658842Y-85276112D01*
X105638679Y-85351362D01*
X105599452Y-85497762D01*
X105599157Y-85500000D01*
X105569500Y-85725258D01*
X99475689Y-85725258D01*
X99463553Y-85648632D01*
X99426353Y-85534145D01*
X99425298Y-85529896D01*
X99426591Y-85499194D01*
X99425714Y-85468477D01*
X99427702Y-85461704D01*
X99463553Y-85351368D01*
X99496315Y-85144517D01*
X99500500Y-85118097D01*
X99500500Y-84881902D01*
X99480347Y-84754666D01*
X99463553Y-84648632D01*
X99427708Y-84538316D01*
X99425714Y-84468477D01*
X99427702Y-84461704D01*
X99463553Y-84351368D01*
X99483705Y-84224126D01*
X99500500Y-84118097D01*
X99500500Y-83881902D01*
X99480347Y-83754666D01*
X99463553Y-83648632D01*
X99427708Y-83538316D01*
X99425714Y-83468477D01*
X99427702Y-83461704D01*
X99463553Y-83351368D01*
X99485378Y-83213567D01*
X99500500Y-83118097D01*
X99500500Y-82881902D01*
X99474327Y-82716657D01*
X99463553Y-82648632D01*
X99439078Y-82573309D01*
X99437084Y-82503472D01*
X99473164Y-82443639D01*
X99535864Y-82412810D01*
X99595327Y-82417062D01*
X99668419Y-82440812D01*
X99755897Y-82454667D01*
X99901690Y-82477759D01*
X99901695Y-82477759D01*
X100137884Y-82477759D01*
X100243913Y-82460964D01*
X100371155Y-82440812D01*
X100436582Y-82419552D01*
X100506420Y-82417557D01*
X100513204Y-82419549D01*
X100648632Y-82463553D01*
X100736110Y-82477408D01*
X100881903Y-82500500D01*
X100881908Y-82500500D01*
X101118097Y-82500500D01*
X101224126Y-82483705D01*
X101351368Y-82463553D01*
X101461683Y-82427708D01*
X101531523Y-82425714D01*
X101538295Y-82427702D01*
X101648632Y-82463553D01*
X101765270Y-82482026D01*
X101881903Y-82500500D01*
X101881908Y-82500500D01*
X102118097Y-82500500D01*
X102224126Y-82483705D01*
X102351368Y-82463553D01*
X102461683Y-82427708D01*
X102531523Y-82425714D01*
X102538295Y-82427702D01*
X102648632Y-82463553D01*
X102765270Y-82482026D01*
X102881903Y-82500500D01*
X102881908Y-82500500D01*
X103118097Y-82500500D01*
X103224126Y-82483705D01*
X103351368Y-82463553D01*
X103461683Y-82427708D01*
X103531523Y-82425714D01*
X103538295Y-82427702D01*
X103648632Y-82463553D01*
X103765270Y-82482026D01*
X103881903Y-82500500D01*
X103881908Y-82500500D01*
X104118097Y-82500500D01*
X104224126Y-82483705D01*
X104351368Y-82463553D01*
X104479643Y-82421872D01*
X104549482Y-82419878D01*
X104556265Y-82421869D01*
X104650139Y-82452371D01*
X104720740Y-82463553D01*
X104883410Y-82489318D01*
X104883415Y-82489318D01*
X105119604Y-82489318D01*
X105352875Y-82452371D01*
X105379749Y-82443639D01*
X105577499Y-82379386D01*
X105787940Y-82272161D01*
X105979017Y-82133335D01*
X106146024Y-81966328D01*
X106284850Y-81775251D01*
X106392075Y-81564810D01*
X106465060Y-81340186D01*
X106502007Y-81106915D01*
X106502007Y-80870720D01*
X106465060Y-80637449D01*
X106395708Y-80424008D01*
X106392075Y-80412826D01*
X106392073Y-80412823D01*
X106392073Y-80412821D01*
X106353658Y-80337429D01*
X106284850Y-80202385D01*
X106282655Y-80199364D01*
X106280853Y-80196883D01*
X106257375Y-80131077D01*
X106273202Y-80063023D01*
X106323308Y-80014329D01*
X106381173Y-80000000D01*
X108550606Y-80000000D01*
X108617645Y-80019685D01*
G37*
%TD.AperFunction*%
%TD*%
%TA.AperFunction,Conductor*%
%TO.N,GND*%
G36*
X87443039Y-54019685D02*
G01*
X87488794Y-54072489D01*
X87500000Y-54124000D01*
X87500000Y-63585500D01*
X87480315Y-63652539D01*
X87427511Y-63698294D01*
X87376000Y-63709500D01*
X86191971Y-63709500D01*
X86191965Y-63709500D01*
X86191964Y-63709501D01*
X86180316Y-63710536D01*
X86072584Y-63720113D01*
X85876954Y-63776089D01*
X85786772Y-63823196D01*
X85696593Y-63870302D01*
X85696591Y-63870303D01*
X85696590Y-63870304D01*
X85538890Y-63998890D01*
X85410304Y-64156590D01*
X85316089Y-64336954D01*
X85260114Y-64532583D01*
X85260113Y-64532586D01*
X85249500Y-64651966D01*
X85249500Y-66268028D01*
X85249501Y-66268034D01*
X85260113Y-66387415D01*
X85316089Y-66583045D01*
X85316090Y-66583048D01*
X85316091Y-66583049D01*
X85410302Y-66763407D01*
X85410304Y-66763409D01*
X85538890Y-66921109D01*
X85605596Y-66975500D01*
X85696593Y-67049698D01*
X85876951Y-67143909D01*
X86072582Y-67199886D01*
X86191963Y-67210500D01*
X87376000Y-67210499D01*
X87443039Y-67230184D01*
X87488794Y-67282987D01*
X87500000Y-67334499D01*
X87500000Y-76320123D01*
X87480315Y-76387162D01*
X87427511Y-76432917D01*
X87358353Y-76442861D01*
X87343923Y-76439902D01*
X87342260Y-76439456D01*
X87342241Y-76439452D01*
X87342238Y-76439452D01*
X87291681Y-76432796D01*
X87114741Y-76409500D01*
X87114734Y-76409500D01*
X86885266Y-76409500D01*
X86885258Y-76409500D01*
X86668715Y-76438009D01*
X86657762Y-76439452D01*
X86567815Y-76463553D01*
X86436112Y-76498842D01*
X86224123Y-76586650D01*
X86224109Y-76586657D01*
X86025382Y-76701392D01*
X85843338Y-76841081D01*
X85681081Y-77003338D01*
X85541392Y-77185382D01*
X85426657Y-77384109D01*
X85426650Y-77384123D01*
X85338842Y-77596112D01*
X85279453Y-77817759D01*
X85279451Y-77817770D01*
X85272757Y-77868615D01*
X85244490Y-77932511D01*
X85186166Y-77970982D01*
X85116301Y-77971813D01*
X85062137Y-77940110D01*
X84977512Y-77855485D01*
X84977510Y-77855483D01*
X84786433Y-77716657D01*
X84575996Y-77609433D01*
X84351368Y-77536446D01*
X84118097Y-77499500D01*
X84118092Y-77499500D01*
X83881908Y-77499500D01*
X83881903Y-77499500D01*
X83648631Y-77536446D01*
X83424003Y-77609433D01*
X83213566Y-77716657D01*
X83197540Y-77728301D01*
X83022490Y-77855483D01*
X83022488Y-77855485D01*
X83022487Y-77855485D01*
X82855485Y-78022487D01*
X82855485Y-78022488D01*
X82855483Y-78022490D01*
X82795862Y-78104550D01*
X82716657Y-78213566D01*
X82609433Y-78424003D01*
X82536446Y-78648631D01*
X82499500Y-78881902D01*
X82499500Y-79118097D01*
X82536446Y-79351368D01*
X82609433Y-79575996D01*
X82681104Y-79716657D01*
X82716657Y-79786433D01*
X82855483Y-79977510D01*
X83022490Y-80144517D01*
X83213567Y-80283343D01*
X83312991Y-80334002D01*
X83424003Y-80390566D01*
X83424005Y-80390566D01*
X83424008Y-80390568D01*
X83544412Y-80429689D01*
X83648631Y-80463553D01*
X83881903Y-80500500D01*
X83881908Y-80500500D01*
X84118097Y-80500500D01*
X84351368Y-80463553D01*
X84575992Y-80390568D01*
X84786433Y-80283343D01*
X84977510Y-80144517D01*
X85144517Y-79977510D01*
X85283343Y-79786433D01*
X85390568Y-79575992D01*
X85463355Y-79351978D01*
X85502793Y-79294303D01*
X85567152Y-79267105D01*
X85635998Y-79279020D01*
X85678313Y-79313705D01*
X85678413Y-79313618D01*
X85678940Y-79314220D01*
X85679660Y-79314810D01*
X85681081Y-79316661D01*
X85681086Y-79316666D01*
X85681089Y-79316670D01*
X85843330Y-79478911D01*
X85843338Y-79478918D01*
X86025382Y-79618607D01*
X86025385Y-79618608D01*
X86025388Y-79618611D01*
X86224112Y-79733344D01*
X86224117Y-79733346D01*
X86224123Y-79733349D01*
X86315480Y-79771190D01*
X86436113Y-79821158D01*
X86657762Y-79880548D01*
X86885266Y-79910500D01*
X86885273Y-79910500D01*
X87114727Y-79910500D01*
X87114734Y-79910500D01*
X87342238Y-79880548D01*
X87343898Y-79880103D01*
X87344413Y-79880115D01*
X87346219Y-79879756D01*
X87346299Y-79880159D01*
X87413748Y-79881760D01*
X87471613Y-79920919D01*
X87499122Y-79985145D01*
X87500000Y-79999875D01*
X87500000Y-91585500D01*
X87480315Y-91652539D01*
X87427511Y-91698294D01*
X87376000Y-91709500D01*
X86191971Y-91709500D01*
X86191965Y-91709500D01*
X86191964Y-91709501D01*
X86180316Y-91710536D01*
X86072584Y-91720113D01*
X85876954Y-91776089D01*
X85820652Y-91805499D01*
X85696593Y-91870302D01*
X85696591Y-91870303D01*
X85696590Y-91870304D01*
X85538890Y-91998890D01*
X85410304Y-92156590D01*
X85316089Y-92336954D01*
X85260114Y-92532583D01*
X85260113Y-92532586D01*
X85249500Y-92651966D01*
X85249500Y-94268028D01*
X85249501Y-94268034D01*
X85260113Y-94387415D01*
X85316089Y-94583045D01*
X85316090Y-94583048D01*
X85316091Y-94583049D01*
X85410302Y-94763407D01*
X85410304Y-94763409D01*
X85538890Y-94921109D01*
X85632803Y-94997684D01*
X85696593Y-95049698D01*
X85876951Y-95143909D01*
X85876953Y-95143909D01*
X85876954Y-95143910D01*
X85896355Y-95149461D01*
X86072582Y-95199886D01*
X86191963Y-95210500D01*
X87376000Y-95210499D01*
X87443039Y-95230184D01*
X87488794Y-95282987D01*
X87500000Y-95334499D01*
X87500000Y-104320123D01*
X87480315Y-104387162D01*
X87427511Y-104432917D01*
X87358353Y-104442861D01*
X87343923Y-104439902D01*
X87342260Y-104439456D01*
X87342241Y-104439452D01*
X87342238Y-104439452D01*
X87291681Y-104432796D01*
X87114741Y-104409500D01*
X87114734Y-104409500D01*
X86885266Y-104409500D01*
X86885258Y-104409500D01*
X86668715Y-104438009D01*
X86657762Y-104439452D01*
X86590644Y-104457436D01*
X86436112Y-104498842D01*
X86224123Y-104586650D01*
X86224109Y-104586657D01*
X86025382Y-104701392D01*
X85843338Y-104841081D01*
X85681081Y-105003338D01*
X85541392Y-105185382D01*
X85426657Y-105384109D01*
X85426650Y-105384123D01*
X85338842Y-105596112D01*
X85325033Y-105647648D01*
X85287847Y-105786433D01*
X85279453Y-105817759D01*
X85279451Y-105817770D01*
X85272757Y-105868615D01*
X85244490Y-105932511D01*
X85186166Y-105970982D01*
X85116301Y-105971813D01*
X85062137Y-105940110D01*
X84977512Y-105855485D01*
X84977510Y-105855483D01*
X84786433Y-105716657D01*
X84575996Y-105609433D01*
X84351368Y-105536446D01*
X84118097Y-105499500D01*
X84118092Y-105499500D01*
X83881908Y-105499500D01*
X83881903Y-105499500D01*
X83648631Y-105536446D01*
X83424003Y-105609433D01*
X83213566Y-105716657D01*
X83168749Y-105749219D01*
X83022490Y-105855483D01*
X83022488Y-105855485D01*
X83022487Y-105855485D01*
X82855485Y-106022487D01*
X82855485Y-106022488D01*
X82855483Y-106022490D01*
X82832202Y-106054534D01*
X82716657Y-106213566D01*
X82609433Y-106424003D01*
X82536446Y-106648631D01*
X82499500Y-106881902D01*
X82499500Y-107118097D01*
X82536446Y-107351368D01*
X82609433Y-107575996D01*
X82689606Y-107733342D01*
X82716657Y-107786433D01*
X82855483Y-107977510D01*
X83022490Y-108144517D01*
X83213567Y-108283343D01*
X83312991Y-108334002D01*
X83424003Y-108390566D01*
X83424005Y-108390566D01*
X83424008Y-108390568D01*
X83544412Y-108429689D01*
X83648631Y-108463553D01*
X83881903Y-108500500D01*
X83881908Y-108500500D01*
X84118097Y-108500500D01*
X84351368Y-108463553D01*
X84575992Y-108390568D01*
X84786433Y-108283343D01*
X84977510Y-108144517D01*
X85144517Y-107977510D01*
X85283343Y-107786433D01*
X85390568Y-107575992D01*
X85463355Y-107351978D01*
X85502793Y-107294303D01*
X85567152Y-107267105D01*
X85635998Y-107279020D01*
X85678313Y-107313705D01*
X85678413Y-107313618D01*
X85678940Y-107314220D01*
X85679660Y-107314810D01*
X85681081Y-107316661D01*
X85681086Y-107316666D01*
X85681089Y-107316670D01*
X85843330Y-107478911D01*
X85843338Y-107478918D01*
X86025382Y-107618607D01*
X86025385Y-107618608D01*
X86025388Y-107618611D01*
X86224112Y-107733344D01*
X86224117Y-107733346D01*
X86224123Y-107733349D01*
X86315480Y-107771190D01*
X86436113Y-107821158D01*
X86657762Y-107880548D01*
X86885266Y-107910500D01*
X86885273Y-107910500D01*
X87114727Y-107910500D01*
X87114734Y-107910500D01*
X87342238Y-107880548D01*
X87343898Y-107880103D01*
X87344413Y-107880115D01*
X87346219Y-107879756D01*
X87346299Y-107880159D01*
X87413748Y-107881760D01*
X87471613Y-107920919D01*
X87499122Y-107985145D01*
X87500000Y-107999875D01*
X87500000Y-142500000D01*
X92500000Y-147500000D01*
X125000000Y-147500000D01*
X127500000Y-145000000D01*
X127500000Y-141202885D01*
X132552000Y-141202885D01*
X132552000Y-141447114D01*
X132573746Y-141612284D01*
X132583877Y-141689233D01*
X132613691Y-141800500D01*
X132647084Y-141925126D01*
X132647087Y-141925136D01*
X132740539Y-142150748D01*
X132740541Y-142150752D01*
X132862649Y-142362248D01*
X132862654Y-142362254D01*
X132862655Y-142362256D01*
X133011315Y-142555995D01*
X133011321Y-142556002D01*
X133183997Y-142728678D01*
X133184003Y-142728683D01*
X133377752Y-142877351D01*
X133589248Y-142999459D01*
X133814873Y-143092916D01*
X134050767Y-143156123D01*
X134292893Y-143188000D01*
X134292900Y-143188000D01*
X134537100Y-143188000D01*
X134537107Y-143188000D01*
X134779233Y-143156123D01*
X135015127Y-143092916D01*
X135240752Y-142999459D01*
X135452248Y-142877351D01*
X135645997Y-142728683D01*
X135818683Y-142555997D01*
X135967351Y-142362248D01*
X136089459Y-142150752D01*
X136182916Y-141925127D01*
X136246123Y-141689233D01*
X136278000Y-141447107D01*
X136278000Y-141202893D01*
X136246123Y-140960767D01*
X136182916Y-140724873D01*
X136089459Y-140499248D01*
X135967351Y-140287752D01*
X135832713Y-140112287D01*
X135818684Y-140094004D01*
X135818678Y-140093997D01*
X135646002Y-139921321D01*
X135645995Y-139921315D01*
X135452256Y-139772655D01*
X135452253Y-139772653D01*
X135452248Y-139772649D01*
X135413300Y-139750162D01*
X135413299Y-139750161D01*
X135240759Y-139650544D01*
X135240748Y-139650539D01*
X135233769Y-139647648D01*
X170699500Y-139647648D01*
X170699500Y-139852351D01*
X170731522Y-140054534D01*
X170794781Y-140249223D01*
X170844660Y-140347114D01*
X170870408Y-140397648D01*
X170887715Y-140431613D01*
X171008028Y-140597213D01*
X171152786Y-140741971D01*
X171307749Y-140854556D01*
X171318390Y-140862287D01*
X171434607Y-140921503D01*
X171500776Y-140955218D01*
X171500778Y-140955218D01*
X171500781Y-140955220D01*
X171517878Y-140960775D01*
X171695465Y-141018477D01*
X171796557Y-141034488D01*
X171897648Y-141050500D01*
X171897649Y-141050500D01*
X172102351Y-141050500D01*
X172102352Y-141050500D01*
X172304534Y-141018477D01*
X172499219Y-140955220D01*
X172681610Y-140862287D01*
X172774590Y-140794732D01*
X172847213Y-140741971D01*
X172847215Y-140741968D01*
X172847219Y-140741966D01*
X172991966Y-140597219D01*
X172991968Y-140597215D01*
X172991971Y-140597213D01*
X173063143Y-140499251D01*
X173112287Y-140431610D01*
X173205220Y-140249219D01*
X173268477Y-140054534D01*
X173300500Y-139852352D01*
X173300500Y-139647648D01*
X173278387Y-139508034D01*
X173268477Y-139445465D01*
X173221477Y-139300816D01*
X173205220Y-139250781D01*
X173205218Y-139250778D01*
X173205218Y-139250776D01*
X173112287Y-139068390D01*
X173037651Y-138965661D01*
X173037650Y-138965658D01*
X172991971Y-138902787D01*
X172991967Y-138902782D01*
X172986833Y-138897648D01*
X175199500Y-138897648D01*
X175199500Y-139102351D01*
X175231522Y-139304534D01*
X175294781Y-139499223D01*
X175324265Y-139557087D01*
X175373026Y-139652786D01*
X175387715Y-139681613D01*
X175508028Y-139847213D01*
X175652786Y-139991971D01*
X175793216Y-140093997D01*
X175818390Y-140112287D01*
X176000781Y-140205220D01*
X176118037Y-140243318D01*
X176175711Y-140282755D01*
X176202910Y-140347114D01*
X176202192Y-140380642D01*
X176199500Y-140397642D01*
X176199500Y-140602351D01*
X176231522Y-140804534D01*
X176294781Y-140999223D01*
X176387715Y-141181613D01*
X176508028Y-141347213D01*
X176652786Y-141491971D01*
X176807749Y-141604556D01*
X176818390Y-141612287D01*
X176934607Y-141671503D01*
X177000776Y-141705218D01*
X177000778Y-141705218D01*
X177000781Y-141705220D01*
X177105137Y-141739127D01*
X177195465Y-141768477D01*
X177296557Y-141784488D01*
X177397648Y-141800500D01*
X177397649Y-141800500D01*
X177602351Y-141800500D01*
X177602352Y-141800500D01*
X177804534Y-141768477D01*
X177999219Y-141705220D01*
X178181610Y-141612287D01*
X178274590Y-141544732D01*
X178347213Y-141491971D01*
X178347215Y-141491968D01*
X178347219Y-141491966D01*
X178491966Y-141347219D01*
X178491968Y-141347215D01*
X178491971Y-141347213D01*
X178544732Y-141274590D01*
X178612287Y-141181610D01*
X178705220Y-140999219D01*
X178768477Y-140804534D01*
X178800500Y-140602352D01*
X178800500Y-140397648D01*
X178783094Y-140287752D01*
X178768477Y-140195465D01*
X178705218Y-140000776D01*
X178664730Y-139921315D01*
X178612287Y-139818390D01*
X178579059Y-139772655D01*
X178491971Y-139652786D01*
X178351366Y-139512181D01*
X178317881Y-139450858D01*
X178322865Y-139381166D01*
X178364737Y-139325233D01*
X178430201Y-139300816D01*
X178439047Y-139300500D01*
X178602351Y-139300500D01*
X178602352Y-139300500D01*
X178804534Y-139268477D01*
X178999219Y-139205220D01*
X179181610Y-139112287D01*
X179274590Y-139044732D01*
X179347213Y-138991971D01*
X179347215Y-138991968D01*
X179347219Y-138991966D01*
X179491966Y-138847219D01*
X179491968Y-138847215D01*
X179491971Y-138847213D01*
X179556762Y-138758034D01*
X179612287Y-138681610D01*
X179705220Y-138499219D01*
X179768477Y-138304534D01*
X179800500Y-138102352D01*
X179800500Y-137897648D01*
X179789372Y-137827387D01*
X179768477Y-137695465D01*
X179705218Y-137500776D01*
X179652671Y-137397648D01*
X179612287Y-137318390D01*
X179604556Y-137307749D01*
X179491971Y-137152786D01*
X179347213Y-137008028D01*
X179181613Y-136887715D01*
X179181612Y-136887714D01*
X179181610Y-136887713D01*
X179124653Y-136858691D01*
X178999223Y-136794781D01*
X178804534Y-136731522D01*
X178629995Y-136703878D01*
X178602352Y-136699500D01*
X178397648Y-136699500D01*
X178373329Y-136703351D01*
X178195465Y-136731522D01*
X178000776Y-136794781D01*
X177818386Y-136887715D01*
X177652786Y-137008028D01*
X177508028Y-137152786D01*
X177387715Y-137318386D01*
X177294781Y-137500776D01*
X177231523Y-137695464D01*
X177226319Y-137728320D01*
X177196389Y-137791455D01*
X177137077Y-137828385D01*
X177067214Y-137827387D01*
X177047552Y-137819406D01*
X176999226Y-137794782D01*
X176804534Y-137731522D01*
X176629995Y-137703878D01*
X176602352Y-137699500D01*
X176397648Y-137699500D01*
X176373329Y-137703351D01*
X176195465Y-137731522D01*
X176000776Y-137794781D01*
X175818386Y-137887715D01*
X175652786Y-138008028D01*
X175508028Y-138152786D01*
X175387715Y-138318386D01*
X175294781Y-138500776D01*
X175231522Y-138695465D01*
X175199500Y-138897648D01*
X172986833Y-138897648D01*
X172847213Y-138758028D01*
X172681613Y-138637715D01*
X172681612Y-138637714D01*
X172681610Y-138637713D01*
X172624653Y-138608691D01*
X172499223Y-138544781D01*
X172304534Y-138481522D01*
X172129995Y-138453878D01*
X172102352Y-138449500D01*
X171897648Y-138449500D01*
X171873329Y-138453351D01*
X171695465Y-138481522D01*
X171500776Y-138544781D01*
X171318386Y-138637715D01*
X171152786Y-138758028D01*
X171008028Y-138902786D01*
X170887715Y-139068386D01*
X170794781Y-139250776D01*
X170731522Y-139445465D01*
X170699500Y-139647648D01*
X135233769Y-139647648D01*
X135015136Y-139557087D01*
X135015129Y-139557085D01*
X135015127Y-139557084D01*
X134779233Y-139493877D01*
X134738767Y-139488549D01*
X134537114Y-139462000D01*
X134537107Y-139462000D01*
X134292893Y-139462000D01*
X134292885Y-139462000D01*
X134062423Y-139492342D01*
X134050767Y-139493877D01*
X133997932Y-139508034D01*
X133814873Y-139557084D01*
X133814863Y-139557087D01*
X133589251Y-139650539D01*
X133589247Y-139650541D01*
X133377752Y-139772649D01*
X133377743Y-139772655D01*
X133184004Y-139921315D01*
X133183997Y-139921321D01*
X133011321Y-140093997D01*
X133011315Y-140094004D01*
X132862655Y-140287743D01*
X132862649Y-140287752D01*
X132740541Y-140499247D01*
X132740539Y-140499251D01*
X132647087Y-140724863D01*
X132647084Y-140724873D01*
X132583878Y-140960764D01*
X132583876Y-140960775D01*
X132552000Y-141202885D01*
X127500000Y-141202885D01*
X127500000Y-134897648D01*
X168699500Y-134897648D01*
X168699500Y-135102351D01*
X168731522Y-135304534D01*
X168794781Y-135499223D01*
X168887715Y-135681613D01*
X169008028Y-135847213D01*
X169152786Y-135991971D01*
X169318388Y-136112286D01*
X169371828Y-136139516D01*
X169422623Y-136187490D01*
X169439418Y-136255312D01*
X169416880Y-136321446D01*
X169371828Y-136360484D01*
X169318388Y-136387713D01*
X169152786Y-136508028D01*
X169008028Y-136652786D01*
X168887715Y-136818386D01*
X168794781Y-137000776D01*
X168731522Y-137195465D01*
X168699500Y-137397648D01*
X168699500Y-137602351D01*
X168731522Y-137804534D01*
X168794781Y-137999223D01*
X168830335Y-138069000D01*
X168873026Y-138152786D01*
X168887715Y-138181613D01*
X169008028Y-138347213D01*
X169152786Y-138491971D01*
X169307749Y-138604556D01*
X169318390Y-138612287D01*
X169434607Y-138671503D01*
X169500776Y-138705218D01*
X169500778Y-138705218D01*
X169500781Y-138705220D01*
X169605137Y-138739127D01*
X169695465Y-138768477D01*
X169796557Y-138784488D01*
X169897648Y-138800500D01*
X169897649Y-138800500D01*
X170102351Y-138800500D01*
X170102352Y-138800500D01*
X170304534Y-138768477D01*
X170499219Y-138705220D01*
X170681610Y-138612287D01*
X170774590Y-138544732D01*
X170847213Y-138491971D01*
X170847215Y-138491968D01*
X170847219Y-138491966D01*
X170991966Y-138347219D01*
X170991968Y-138347215D01*
X170991971Y-138347213D01*
X171044732Y-138274590D01*
X171112287Y-138181610D01*
X171205220Y-137999219D01*
X171268477Y-137804534D01*
X171277306Y-137748789D01*
X171307233Y-137685659D01*
X171366544Y-137648727D01*
X171436407Y-137649723D01*
X171479463Y-137675687D01*
X171480677Y-137674267D01*
X171484377Y-137677427D01*
X171484381Y-137677431D01*
X171694559Y-137830134D01*
X171807564Y-137887713D01*
X171926033Y-137948077D01*
X171926035Y-137948077D01*
X171926038Y-137948079D01*
X172173117Y-138028360D01*
X172305316Y-138049297D01*
X172429708Y-138069000D01*
X172429713Y-138069000D01*
X172689512Y-138069000D01*
X172802908Y-138051039D01*
X172946103Y-138028360D01*
X173193182Y-137948079D01*
X173424661Y-137830134D01*
X173634839Y-137677431D01*
X173818541Y-137493729D01*
X173971244Y-137283551D01*
X174089189Y-137052072D01*
X174169470Y-136804993D01*
X174198173Y-136623768D01*
X174228102Y-136560634D01*
X174287413Y-136523702D01*
X174357276Y-136524700D01*
X174376942Y-136532682D01*
X174466031Y-136578076D01*
X174466034Y-136578076D01*
X174466038Y-136578079D01*
X174713117Y-136658360D01*
X174845316Y-136679297D01*
X174969708Y-136699000D01*
X174969713Y-136699000D01*
X175229512Y-136699000D01*
X175342908Y-136681039D01*
X175486103Y-136658360D01*
X175733182Y-136578079D01*
X175964661Y-136460134D01*
X176174839Y-136307431D01*
X176358541Y-136123729D01*
X176511244Y-135913551D01*
X176629189Y-135682072D01*
X176709470Y-135434993D01*
X176732149Y-135291798D01*
X176750110Y-135178402D01*
X176750110Y-134918597D01*
X176714769Y-134695465D01*
X176709470Y-134662007D01*
X176629189Y-134414928D01*
X176629187Y-134414925D01*
X176629187Y-134414923D01*
X176579998Y-134318386D01*
X176511244Y-134183449D01*
X176358541Y-133973271D01*
X176174839Y-133789569D01*
X176174837Y-133789567D01*
X176160044Y-133778820D01*
X176117377Y-133723491D01*
X176111396Y-133653878D01*
X176144001Y-133592082D01*
X176160044Y-133578180D01*
X176174833Y-133567435D01*
X176174839Y-133567431D01*
X176358541Y-133383729D01*
X176511244Y-133173551D01*
X176629189Y-132942072D01*
X176709470Y-132694993D01*
X176741436Y-132493166D01*
X176750110Y-132438402D01*
X176750110Y-132178597D01*
X176723996Y-132013725D01*
X176709470Y-131922007D01*
X176629189Y-131674928D01*
X176629187Y-131674925D01*
X176629187Y-131674923D01*
X176540058Y-131500000D01*
X176511244Y-131443449D01*
X176358541Y-131233271D01*
X176174839Y-131049569D01*
X176174837Y-131049567D01*
X176160044Y-131038820D01*
X176117377Y-130983491D01*
X176111396Y-130913878D01*
X176144001Y-130852082D01*
X176160044Y-130838180D01*
X176174839Y-130827431D01*
X176358541Y-130643729D01*
X176511244Y-130433551D01*
X176629189Y-130202072D01*
X176709470Y-129954993D01*
X176732149Y-129811798D01*
X176750110Y-129698402D01*
X176750110Y-129438597D01*
X176728557Y-129302521D01*
X176709470Y-129182007D01*
X176629189Y-128934928D01*
X176629187Y-128934925D01*
X176629187Y-128934923D01*
X176576781Y-128832072D01*
X176511244Y-128703449D01*
X176358541Y-128493271D01*
X176174839Y-128309569D01*
X176174837Y-128309567D01*
X176160044Y-128298820D01*
X176117377Y-128243491D01*
X176111396Y-128173878D01*
X176144001Y-128112082D01*
X176160044Y-128098180D01*
X176174839Y-128087431D01*
X176358541Y-127903729D01*
X176511244Y-127693551D01*
X176629189Y-127462072D01*
X176709470Y-127214993D01*
X176732149Y-127071798D01*
X176750110Y-126958402D01*
X176750110Y-126698597D01*
X176728557Y-126562521D01*
X176709470Y-126442007D01*
X176629189Y-126194928D01*
X176629187Y-126194925D01*
X176629187Y-126194923D01*
X176516135Y-125973049D01*
X176511244Y-125963449D01*
X176358541Y-125753271D01*
X176174839Y-125569569D01*
X176174835Y-125569566D01*
X175964664Y-125416868D01*
X175964663Y-125416867D01*
X175964661Y-125416866D01*
X175836115Y-125351368D01*
X175733186Y-125298922D01*
X175486103Y-125218640D01*
X175229512Y-125178000D01*
X175229507Y-125178000D01*
X174969713Y-125178000D01*
X174969708Y-125178000D01*
X174713116Y-125218640D01*
X174466033Y-125298922D01*
X174376941Y-125344318D01*
X174308272Y-125357214D01*
X174243531Y-125330938D01*
X174203274Y-125273831D01*
X174198173Y-125253231D01*
X174176769Y-125118092D01*
X174169470Y-125072007D01*
X174089189Y-124824928D01*
X174089187Y-124824925D01*
X174089187Y-124824923D01*
X173999361Y-124648632D01*
X173971244Y-124593449D01*
X173818541Y-124383271D01*
X173634839Y-124199569D01*
X173620142Y-124188891D01*
X173424664Y-124046868D01*
X173424663Y-124046867D01*
X173424661Y-124046866D01*
X173352374Y-124010034D01*
X173193186Y-123928922D01*
X172946103Y-123848640D01*
X172689512Y-123808000D01*
X172689507Y-123808000D01*
X172429713Y-123808000D01*
X172429708Y-123808000D01*
X172173116Y-123848640D01*
X171926033Y-123928922D01*
X171694555Y-124046868D01*
X171484384Y-124199566D01*
X171484378Y-124199571D01*
X171300681Y-124383268D01*
X171300676Y-124383274D01*
X171147978Y-124593445D01*
X171030032Y-124824923D01*
X170949750Y-125072006D01*
X170909110Y-125328597D01*
X170909110Y-125588402D01*
X170949750Y-125844993D01*
X171030032Y-126092076D01*
X171088648Y-126207114D01*
X171141636Y-126311109D01*
X171147978Y-126323554D01*
X171256592Y-126473049D01*
X171300679Y-126533729D01*
X171484381Y-126717431D01*
X171484387Y-126717435D01*
X171499179Y-126728183D01*
X171541845Y-126783513D01*
X171547823Y-126853127D01*
X171515216Y-126914921D01*
X171499179Y-126928817D01*
X171484387Y-126939564D01*
X171484378Y-126939571D01*
X171300681Y-127123268D01*
X171300676Y-127123274D01*
X171147978Y-127333445D01*
X171030032Y-127564923D01*
X170949750Y-127812006D01*
X170909110Y-128068597D01*
X170909110Y-128328402D01*
X170949750Y-128584993D01*
X171030032Y-128832076D01*
X171111144Y-128991264D01*
X171147976Y-129063551D01*
X171300679Y-129273729D01*
X171484381Y-129457431D01*
X171484387Y-129457435D01*
X171499179Y-129468183D01*
X171541845Y-129523513D01*
X171547823Y-129593127D01*
X171515216Y-129654921D01*
X171499179Y-129668817D01*
X171484387Y-129679564D01*
X171484378Y-129679571D01*
X171300681Y-129863268D01*
X171300676Y-129863274D01*
X171147978Y-130073445D01*
X171030032Y-130304923D01*
X170949750Y-130552006D01*
X170909110Y-130808597D01*
X170909110Y-131068402D01*
X170949750Y-131324993D01*
X171030032Y-131572076D01*
X171147978Y-131803554D01*
X171234038Y-131922006D01*
X171300679Y-132013729D01*
X171484381Y-132197431D01*
X171694559Y-132350134D01*
X171836942Y-132422682D01*
X171926033Y-132468077D01*
X171926035Y-132468077D01*
X171926038Y-132468079D01*
X172173117Y-132548360D01*
X172305316Y-132569297D01*
X172429708Y-132589000D01*
X172429713Y-132589000D01*
X172689512Y-132589000D01*
X172802908Y-132571039D01*
X172946103Y-132548360D01*
X173193182Y-132468079D01*
X173282278Y-132422681D01*
X173350946Y-132409785D01*
X173415687Y-132436060D01*
X173455944Y-132493166D01*
X173461046Y-132513768D01*
X173489749Y-132694993D01*
X173570032Y-132942076D01*
X173651144Y-133101264D01*
X173687976Y-133173551D01*
X173840679Y-133383729D01*
X174024381Y-133567431D01*
X174024387Y-133567435D01*
X174039179Y-133578183D01*
X174081845Y-133633513D01*
X174087823Y-133703127D01*
X174055216Y-133764921D01*
X174039179Y-133778817D01*
X174024387Y-133789564D01*
X174024378Y-133789571D01*
X173840681Y-133973268D01*
X173840676Y-133973274D01*
X173687978Y-134183445D01*
X173570032Y-134414923D01*
X173489749Y-134662006D01*
X173461046Y-134843231D01*
X173431117Y-134906366D01*
X173371805Y-134943297D01*
X173301942Y-134942299D01*
X173282278Y-134934318D01*
X173193186Y-134888922D01*
X172946103Y-134808640D01*
X172689512Y-134768000D01*
X172689507Y-134768000D01*
X172429713Y-134768000D01*
X172429708Y-134768000D01*
X172173116Y-134808640D01*
X171926033Y-134888922D01*
X171694555Y-135006868D01*
X171497385Y-135150120D01*
X171431579Y-135173600D01*
X171363525Y-135157774D01*
X171314830Y-135107669D01*
X171300500Y-135049802D01*
X171300500Y-134897648D01*
X171268477Y-134695465D01*
X171205218Y-134500776D01*
X171171503Y-134434607D01*
X171112287Y-134318390D01*
X171104556Y-134307749D01*
X170991971Y-134152786D01*
X170847213Y-134008028D01*
X170681613Y-133887715D01*
X170681612Y-133887714D01*
X170681610Y-133887713D01*
X170624653Y-133858691D01*
X170499223Y-133794781D01*
X170304534Y-133731522D01*
X170129995Y-133703878D01*
X170102352Y-133699500D01*
X169897648Y-133699500D01*
X169874748Y-133703127D01*
X169695465Y-133731522D01*
X169500776Y-133794781D01*
X169318386Y-133887715D01*
X169152786Y-134008028D01*
X169008028Y-134152786D01*
X168887715Y-134318386D01*
X168794781Y-134500776D01*
X168731522Y-134695465D01*
X168699500Y-134897648D01*
X127500000Y-134897648D01*
X127500000Y-125962885D01*
X132552000Y-125962885D01*
X132552000Y-126207114D01*
X132578549Y-126408767D01*
X132583877Y-126449233D01*
X132638585Y-126653407D01*
X132647084Y-126685126D01*
X132647087Y-126685136D01*
X132728593Y-126881908D01*
X132740541Y-126910752D01*
X132862649Y-127122248D01*
X132862654Y-127122254D01*
X132862655Y-127122256D01*
X133011315Y-127315995D01*
X133011321Y-127316002D01*
X133183997Y-127488678D01*
X133184004Y-127488684D01*
X133283361Y-127564923D01*
X133377752Y-127637351D01*
X133589248Y-127759459D01*
X133814873Y-127852916D01*
X134050767Y-127916123D01*
X134292893Y-127948000D01*
X134292900Y-127948000D01*
X134537100Y-127948000D01*
X134537107Y-127948000D01*
X134779233Y-127916123D01*
X135015127Y-127852916D01*
X135240752Y-127759459D01*
X135452248Y-127637351D01*
X135645997Y-127488683D01*
X135818683Y-127315997D01*
X135967351Y-127122248D01*
X136089459Y-126910752D01*
X136182916Y-126685127D01*
X136246123Y-126449233D01*
X136278000Y-126207107D01*
X136278000Y-125962893D01*
X136246123Y-125720767D01*
X136182916Y-125484873D01*
X136089459Y-125259248D01*
X135967351Y-125047752D01*
X135818683Y-124854003D01*
X135818678Y-124853997D01*
X135646002Y-124681321D01*
X135645995Y-124681315D01*
X135452256Y-124532655D01*
X135452254Y-124532654D01*
X135452248Y-124532649D01*
X135240752Y-124410541D01*
X135240748Y-124410539D01*
X135015136Y-124317087D01*
X135015129Y-124317085D01*
X135015127Y-124317084D01*
X134779233Y-124253877D01*
X134738767Y-124248549D01*
X134537114Y-124222000D01*
X134537107Y-124222000D01*
X134292893Y-124222000D01*
X134292885Y-124222000D01*
X134062423Y-124252342D01*
X134050767Y-124253877D01*
X133814873Y-124317084D01*
X133814863Y-124317087D01*
X133589251Y-124410539D01*
X133589247Y-124410541D01*
X133377752Y-124532649D01*
X133377743Y-124532655D01*
X133184004Y-124681315D01*
X133183997Y-124681321D01*
X133011321Y-124853997D01*
X133011315Y-124854004D01*
X132862655Y-125047743D01*
X132862649Y-125047752D01*
X132740541Y-125259247D01*
X132740539Y-125259251D01*
X132647087Y-125484863D01*
X132647084Y-125484873D01*
X132624390Y-125569571D01*
X132583878Y-125720764D01*
X132583876Y-125720775D01*
X132552000Y-125962885D01*
X127500000Y-125962885D01*
X127500000Y-122551362D01*
X127519685Y-122484323D01*
X127536319Y-122463681D01*
X130797115Y-119202885D01*
X132637000Y-119202885D01*
X132637000Y-119447114D01*
X132657439Y-119602352D01*
X132668877Y-119689233D01*
X132699772Y-119804534D01*
X132732084Y-119925126D01*
X132732087Y-119925136D01*
X132814460Y-120124000D01*
X132825541Y-120150752D01*
X132947649Y-120362248D01*
X132947654Y-120362254D01*
X132947655Y-120362256D01*
X133096315Y-120555995D01*
X133096321Y-120556002D01*
X133268997Y-120728678D01*
X133269003Y-120728683D01*
X133462752Y-120877351D01*
X133674248Y-120999459D01*
X133899873Y-121092916D01*
X134135767Y-121156123D01*
X134377893Y-121188000D01*
X134377900Y-121188000D01*
X134622100Y-121188000D01*
X134622107Y-121188000D01*
X134864233Y-121156123D01*
X135100127Y-121092916D01*
X135325752Y-120999459D01*
X135537248Y-120877351D01*
X135730997Y-120728683D01*
X135903683Y-120555997D01*
X136052351Y-120362248D01*
X136174459Y-120150752D01*
X136267916Y-119925127D01*
X136331123Y-119689233D01*
X136363000Y-119447107D01*
X136363000Y-119397648D01*
X142199500Y-119397648D01*
X142199500Y-119602351D01*
X142231522Y-119804534D01*
X142294781Y-119999223D01*
X142387715Y-120181613D01*
X142508028Y-120347213D01*
X142652786Y-120491971D01*
X142802166Y-120600500D01*
X142818390Y-120612287D01*
X142934607Y-120671503D01*
X143000776Y-120705218D01*
X143000778Y-120705218D01*
X143000781Y-120705220D01*
X143072993Y-120728683D01*
X143195465Y-120768477D01*
X143296557Y-120784488D01*
X143397648Y-120800500D01*
X143397649Y-120800500D01*
X143602351Y-120800500D01*
X143602352Y-120800500D01*
X143804534Y-120768477D01*
X143999219Y-120705220D01*
X144181610Y-120612287D01*
X144274590Y-120544732D01*
X144347213Y-120491971D01*
X144347215Y-120491968D01*
X144347219Y-120491966D01*
X144491966Y-120347219D01*
X144491968Y-120347215D01*
X144491971Y-120347213D01*
X144583819Y-120220793D01*
X144612287Y-120181610D01*
X144705220Y-119999219D01*
X144768477Y-119804534D01*
X144800500Y-119602352D01*
X144800500Y-119397648D01*
X144768477Y-119195466D01*
X144705220Y-119000781D01*
X144705218Y-119000778D01*
X144705218Y-119000776D01*
X144644651Y-118881908D01*
X144612287Y-118818390D01*
X144599289Y-118800500D01*
X144491971Y-118652786D01*
X144347213Y-118508028D01*
X144181613Y-118387715D01*
X144181612Y-118387714D01*
X144181610Y-118387713D01*
X144110279Y-118351368D01*
X143999223Y-118294781D01*
X143804534Y-118231522D01*
X143629995Y-118203878D01*
X143602352Y-118199500D01*
X143397648Y-118199500D01*
X143373329Y-118203351D01*
X143195465Y-118231522D01*
X143000776Y-118294781D01*
X142818386Y-118387715D01*
X142652786Y-118508028D01*
X142508028Y-118652786D01*
X142387715Y-118818386D01*
X142294781Y-119000776D01*
X142231522Y-119195465D01*
X142199500Y-119397648D01*
X136363000Y-119397648D01*
X136363000Y-119202893D01*
X136331123Y-118960767D01*
X136267916Y-118724873D01*
X136259775Y-118705220D01*
X136174460Y-118499251D01*
X136174459Y-118499248D01*
X136052351Y-118287752D01*
X135917713Y-118112287D01*
X135903684Y-118094004D01*
X135903678Y-118093997D01*
X135731002Y-117921321D01*
X135730995Y-117921315D01*
X135537256Y-117772655D01*
X135537254Y-117772654D01*
X135537248Y-117772649D01*
X135325752Y-117650541D01*
X135325748Y-117650539D01*
X135100136Y-117557087D01*
X135100129Y-117557085D01*
X135100127Y-117557084D01*
X134864233Y-117493877D01*
X134823767Y-117488549D01*
X134622114Y-117462000D01*
X134622107Y-117462000D01*
X134377893Y-117462000D01*
X134377885Y-117462000D01*
X134150282Y-117491966D01*
X134135767Y-117493877D01*
X133899873Y-117557084D01*
X133899863Y-117557087D01*
X133674251Y-117650539D01*
X133674247Y-117650541D01*
X133462752Y-117772649D01*
X133462743Y-117772655D01*
X133269004Y-117921315D01*
X133268997Y-117921321D01*
X133096321Y-118093997D01*
X133096315Y-118094004D01*
X132947655Y-118287743D01*
X132947649Y-118287752D01*
X132825541Y-118499247D01*
X132825539Y-118499251D01*
X132732087Y-118724863D01*
X132732084Y-118724873D01*
X132707027Y-118818390D01*
X132668878Y-118960764D01*
X132668876Y-118960775D01*
X132637000Y-119202885D01*
X130797115Y-119202885D01*
X133102352Y-116897648D01*
X147699500Y-116897648D01*
X147699500Y-117102351D01*
X147731522Y-117304534D01*
X147794781Y-117499223D01*
X147887715Y-117681613D01*
X148008028Y-117847213D01*
X148152786Y-117991971D01*
X148293216Y-118093997D01*
X148318390Y-118112287D01*
X148414299Y-118161155D01*
X148500776Y-118205218D01*
X148500778Y-118205218D01*
X148500781Y-118205220D01*
X148605137Y-118239127D01*
X148695465Y-118268477D01*
X148796557Y-118284488D01*
X148897648Y-118300500D01*
X148897649Y-118300500D01*
X149102351Y-118300500D01*
X149102352Y-118300500D01*
X149304534Y-118268477D01*
X149499219Y-118205220D01*
X149681610Y-118112287D01*
X149837231Y-117999223D01*
X149847213Y-117991971D01*
X149847215Y-117991968D01*
X149847219Y-117991966D01*
X149991966Y-117847219D01*
X149991968Y-117847215D01*
X149991971Y-117847213D01*
X150095133Y-117705220D01*
X150112287Y-117681610D01*
X150205220Y-117499219D01*
X150238222Y-117397648D01*
X151699500Y-117397648D01*
X151699500Y-117602351D01*
X151731522Y-117804534D01*
X151794781Y-117999223D01*
X151887715Y-118181613D01*
X152008028Y-118347213D01*
X152152786Y-118491971D01*
X152307749Y-118604556D01*
X152318390Y-118612287D01*
X152397864Y-118652781D01*
X152500776Y-118705218D01*
X152500778Y-118705218D01*
X152500781Y-118705220D01*
X152561236Y-118724863D01*
X152695465Y-118768477D01*
X152796557Y-118784488D01*
X152897648Y-118800500D01*
X152897649Y-118800500D01*
X153102351Y-118800500D01*
X153102352Y-118800500D01*
X153304534Y-118768477D01*
X153499219Y-118705220D01*
X153681610Y-118612287D01*
X153774590Y-118544732D01*
X153847213Y-118491971D01*
X153847215Y-118491968D01*
X153847219Y-118491966D01*
X153991966Y-118347219D01*
X153991968Y-118347215D01*
X153991971Y-118347213D01*
X154095133Y-118205220D01*
X154112287Y-118181610D01*
X154205220Y-117999219D01*
X154268477Y-117804534D01*
X154300500Y-117602352D01*
X154300500Y-117439047D01*
X154320185Y-117372008D01*
X154372989Y-117326253D01*
X154442147Y-117316309D01*
X154505703Y-117345334D01*
X154512181Y-117351366D01*
X154652786Y-117491971D01*
X154807749Y-117604556D01*
X154818390Y-117612287D01*
X154893464Y-117650539D01*
X155000776Y-117705218D01*
X155000778Y-117705218D01*
X155000781Y-117705220D01*
X155105137Y-117739127D01*
X155195465Y-117768477D01*
X155221844Y-117772655D01*
X155397648Y-117800500D01*
X155397649Y-117800500D01*
X155602351Y-117800500D01*
X155602352Y-117800500D01*
X155804534Y-117768477D01*
X155999219Y-117705220D01*
X156181610Y-117612287D01*
X156274590Y-117544732D01*
X156347213Y-117491971D01*
X156347215Y-117491968D01*
X156347219Y-117491966D01*
X156491966Y-117347219D01*
X156491968Y-117347215D01*
X156491971Y-117347213D01*
X156544732Y-117274590D01*
X156612287Y-117181610D01*
X156705220Y-116999219D01*
X156768477Y-116804534D01*
X156800500Y-116602352D01*
X156800500Y-116397648D01*
X156768477Y-116195466D01*
X156754609Y-116152786D01*
X156722685Y-116054534D01*
X156705220Y-116000781D01*
X156705218Y-116000778D01*
X156705218Y-116000776D01*
X156647610Y-115887715D01*
X156612287Y-115818390D01*
X156595134Y-115794781D01*
X156491971Y-115652786D01*
X156347213Y-115508028D01*
X156326657Y-115493094D01*
X156195285Y-115397648D01*
X159699500Y-115397648D01*
X159699500Y-115602351D01*
X159731522Y-115804534D01*
X159794781Y-115999223D01*
X159799271Y-116008034D01*
X159873026Y-116152786D01*
X159887715Y-116181613D01*
X160008028Y-116347213D01*
X160152786Y-116491971D01*
X160307749Y-116604556D01*
X160318390Y-116612287D01*
X160397864Y-116652781D01*
X160500776Y-116705218D01*
X160500778Y-116705218D01*
X160500781Y-116705220D01*
X160605137Y-116739127D01*
X160695465Y-116768477D01*
X160796557Y-116784488D01*
X160897648Y-116800500D01*
X160897649Y-116800500D01*
X161102351Y-116800500D01*
X161102352Y-116800500D01*
X161304534Y-116768477D01*
X161499219Y-116705220D01*
X161681610Y-116612287D01*
X161774590Y-116544732D01*
X161847213Y-116491971D01*
X161847215Y-116491968D01*
X161847219Y-116491966D01*
X161991966Y-116347219D01*
X161991968Y-116347215D01*
X161991971Y-116347213D01*
X162077904Y-116228934D01*
X162112287Y-116181610D01*
X162205220Y-115999219D01*
X162268477Y-115804534D01*
X162300500Y-115602352D01*
X162300500Y-115397648D01*
X162268477Y-115195466D01*
X162267569Y-115192673D01*
X162205218Y-115000776D01*
X162144651Y-114881908D01*
X162112287Y-114818390D01*
X162104556Y-114807749D01*
X161991971Y-114652786D01*
X161847213Y-114508028D01*
X161681613Y-114387715D01*
X161681612Y-114387714D01*
X161681610Y-114387713D01*
X161610279Y-114351368D01*
X161499223Y-114294781D01*
X161304534Y-114231522D01*
X161129995Y-114203878D01*
X161102352Y-114199500D01*
X160897648Y-114199500D01*
X160873329Y-114203351D01*
X160695465Y-114231522D01*
X160500776Y-114294781D01*
X160318386Y-114387715D01*
X160152786Y-114508028D01*
X160008028Y-114652786D01*
X159887715Y-114818386D01*
X159794781Y-115000776D01*
X159731522Y-115195465D01*
X159699500Y-115397648D01*
X156195285Y-115397648D01*
X156181613Y-115387715D01*
X156181612Y-115387714D01*
X156181610Y-115387713D01*
X155999219Y-115294780D01*
X155863789Y-115250776D01*
X155804532Y-115231522D01*
X155748228Y-115222604D01*
X155685094Y-115192673D01*
X155657143Y-115156425D01*
X155612286Y-115068388D01*
X155491971Y-114902786D01*
X155347213Y-114758028D01*
X155181613Y-114637715D01*
X155181612Y-114637714D01*
X155181610Y-114637713D01*
X155124653Y-114608691D01*
X154999223Y-114544781D01*
X154804534Y-114481522D01*
X154629995Y-114453878D01*
X154602352Y-114449500D01*
X154397648Y-114449500D01*
X154373329Y-114453351D01*
X154195465Y-114481522D01*
X154000776Y-114544781D01*
X153818386Y-114637715D01*
X153652786Y-114758028D01*
X153508028Y-114902786D01*
X153387715Y-115068386D01*
X153294781Y-115250776D01*
X153231522Y-115445465D01*
X153199500Y-115647648D01*
X153199500Y-115852351D01*
X153231797Y-116056267D01*
X153222842Y-116125561D01*
X153177846Y-116179013D01*
X153111095Y-116199652D01*
X153106352Y-116199500D01*
X153102352Y-116199500D01*
X152897648Y-116199500D01*
X152873329Y-116203351D01*
X152695465Y-116231522D01*
X152500776Y-116294781D01*
X152318386Y-116387715D01*
X152152786Y-116508028D01*
X152008028Y-116652786D01*
X151887715Y-116818386D01*
X151794781Y-117000776D01*
X151731522Y-117195465D01*
X151699500Y-117397648D01*
X150238222Y-117397648D01*
X150268477Y-117304534D01*
X150300500Y-117102352D01*
X150300500Y-116897648D01*
X150268477Y-116695466D01*
X150254609Y-116652786D01*
X150238222Y-116602351D01*
X150205220Y-116500781D01*
X150205218Y-116500778D01*
X150205218Y-116500776D01*
X150147610Y-116387715D01*
X150112287Y-116318390D01*
X150095134Y-116294781D01*
X149991971Y-116152786D01*
X149847213Y-116008028D01*
X149681613Y-115887715D01*
X149681612Y-115887714D01*
X149681610Y-115887713D01*
X149612208Y-115852351D01*
X149499223Y-115794781D01*
X149304534Y-115731522D01*
X149129995Y-115703878D01*
X149102352Y-115699500D01*
X148897648Y-115699500D01*
X148873329Y-115703351D01*
X148695465Y-115731522D01*
X148500776Y-115794781D01*
X148318386Y-115887715D01*
X148152786Y-116008028D01*
X148008028Y-116152786D01*
X147887715Y-116318386D01*
X147794781Y-116500776D01*
X147731522Y-116695465D01*
X147699500Y-116897648D01*
X133102352Y-116897648D01*
X137463681Y-112536319D01*
X137525004Y-112502834D01*
X137551362Y-112500000D01*
X162448638Y-112500000D01*
X162515677Y-112519685D01*
X162536319Y-112536319D01*
X170000000Y-120000000D01*
X186875500Y-120000000D01*
X186942539Y-120019685D01*
X186988294Y-120072489D01*
X186999500Y-120124000D01*
X186999500Y-159375500D01*
X186979815Y-159442539D01*
X186927011Y-159488294D01*
X186875500Y-159499500D01*
X75624500Y-159499500D01*
X75557461Y-159479815D01*
X75511706Y-159427011D01*
X75500500Y-159375500D01*
X75500500Y-152252447D01*
X76199500Y-152252447D01*
X76199500Y-152747552D01*
X76238344Y-153241106D01*
X76238346Y-153241125D01*
X76304378Y-153658033D01*
X76315795Y-153730115D01*
X76431372Y-154211530D01*
X76431376Y-154211541D01*
X76584362Y-154682387D01*
X76713128Y-154993257D01*
X76773829Y-155139801D01*
X76998598Y-155580933D01*
X76998601Y-155580938D01*
X76998607Y-155580949D01*
X77221783Y-155945139D01*
X77257284Y-156003071D01*
X77548293Y-156403611D01*
X77869831Y-156780084D01*
X78219916Y-157130169D01*
X78596389Y-157451707D01*
X78996929Y-157742716D01*
X79230078Y-157885589D01*
X79419050Y-158001392D01*
X79419056Y-158001395D01*
X79419067Y-158001402D01*
X79860199Y-158226171D01*
X80317607Y-158415635D01*
X80317612Y-158415637D01*
X80437335Y-158454537D01*
X80788470Y-158568628D01*
X81269885Y-158684205D01*
X81758884Y-158761655D01*
X82252453Y-158800500D01*
X82252461Y-158800500D01*
X82747539Y-158800500D01*
X82747547Y-158800500D01*
X83241116Y-158761655D01*
X83730115Y-158684205D01*
X84211530Y-158568628D01*
X84682393Y-158415635D01*
X85139801Y-158226171D01*
X85580933Y-158001402D01*
X86003071Y-157742716D01*
X86403611Y-157451707D01*
X86780084Y-157130169D01*
X87130169Y-156780084D01*
X87451707Y-156403611D01*
X87742716Y-156003071D01*
X88001402Y-155580933D01*
X88226171Y-155139801D01*
X88415635Y-154682393D01*
X88568628Y-154211530D01*
X88684205Y-153730115D01*
X88761655Y-153241116D01*
X88800500Y-152747547D01*
X88800500Y-152252453D01*
X88768194Y-151841966D01*
X110999500Y-151841966D01*
X110999500Y-153158028D01*
X110999501Y-153158034D01*
X111010113Y-153277415D01*
X111066089Y-153473045D01*
X111066090Y-153473048D01*
X111066091Y-153473049D01*
X111160302Y-153653407D01*
X111194977Y-153695933D01*
X111288890Y-153811109D01*
X111382803Y-153887684D01*
X111446593Y-153939698D01*
X111626951Y-154033909D01*
X111822582Y-154089886D01*
X111941963Y-154100500D01*
X113258036Y-154100499D01*
X113377418Y-154089886D01*
X113573049Y-154033909D01*
X113753407Y-153939698D01*
X113911109Y-153811109D01*
X114039698Y-153653407D01*
X114133909Y-153473049D01*
X114189886Y-153277418D01*
X114200500Y-153158037D01*
X114200499Y-151841966D01*
X122399500Y-151841966D01*
X122399500Y-153158028D01*
X122399501Y-153158034D01*
X122410113Y-153277415D01*
X122466089Y-153473045D01*
X122466090Y-153473048D01*
X122466091Y-153473049D01*
X122560302Y-153653407D01*
X122594977Y-153695933D01*
X122688890Y-153811109D01*
X122782803Y-153887684D01*
X122846593Y-153939698D01*
X123026951Y-154033909D01*
X123222582Y-154089886D01*
X123341963Y-154100500D01*
X124658036Y-154100499D01*
X124777418Y-154089886D01*
X124973049Y-154033909D01*
X125153407Y-153939698D01*
X125311109Y-153811109D01*
X125439698Y-153653407D01*
X125533909Y-153473049D01*
X125589886Y-153277418D01*
X125600500Y-153158037D01*
X125600499Y-151841966D01*
X133899500Y-151841966D01*
X133899500Y-153158028D01*
X133899501Y-153158034D01*
X133910113Y-153277415D01*
X133966089Y-153473045D01*
X133966090Y-153473048D01*
X133966091Y-153473049D01*
X134060302Y-153653407D01*
X134094977Y-153695933D01*
X134188890Y-153811109D01*
X134282803Y-153887684D01*
X134346593Y-153939698D01*
X134526951Y-154033909D01*
X134722582Y-154089886D01*
X134841963Y-154100500D01*
X136158036Y-154100499D01*
X136277418Y-154089886D01*
X136473049Y-154033909D01*
X136653407Y-153939698D01*
X136811109Y-153811109D01*
X136939698Y-153653407D01*
X137033909Y-153473049D01*
X137089886Y-153277418D01*
X137100500Y-153158037D01*
X137100499Y-151841966D01*
X145399500Y-151841966D01*
X145399500Y-153158028D01*
X145399501Y-153158034D01*
X145410113Y-153277415D01*
X145466089Y-153473045D01*
X145466090Y-153473048D01*
X145466091Y-153473049D01*
X145560302Y-153653407D01*
X145594977Y-153695933D01*
X145688890Y-153811109D01*
X145782803Y-153887684D01*
X145846593Y-153939698D01*
X146026951Y-154033909D01*
X146222582Y-154089886D01*
X146341963Y-154100500D01*
X147658036Y-154100499D01*
X147777418Y-154089886D01*
X147973049Y-154033909D01*
X148153407Y-153939698D01*
X148311109Y-153811109D01*
X148439698Y-153653407D01*
X148533909Y-153473049D01*
X148589886Y-153277418D01*
X148600500Y-153158037D01*
X148600499Y-152341966D01*
X156899500Y-152341966D01*
X156899500Y-153658028D01*
X156899501Y-153658034D01*
X156910113Y-153777415D01*
X156966089Y-153973045D01*
X156966090Y-153973048D01*
X156966091Y-153973049D01*
X157060302Y-154153407D01*
X157060304Y-154153409D01*
X157188890Y-154311109D01*
X157282803Y-154387684D01*
X157346593Y-154439698D01*
X157526951Y-154533909D01*
X157722582Y-154589886D01*
X157841963Y-154600500D01*
X159158036Y-154600499D01*
X159277418Y-154589886D01*
X159473049Y-154533909D01*
X159653407Y-154439698D01*
X159811109Y-154311109D01*
X159939698Y-154153407D01*
X160033909Y-153973049D01*
X160089886Y-153777418D01*
X160100500Y-153658037D01*
X160100499Y-152341966D01*
X168399500Y-152341966D01*
X168399500Y-153658028D01*
X168399501Y-153658034D01*
X168410113Y-153777415D01*
X168466089Y-153973045D01*
X168466090Y-153973048D01*
X168466091Y-153973049D01*
X168560302Y-154153407D01*
X168560304Y-154153409D01*
X168688890Y-154311109D01*
X168782803Y-154387684D01*
X168846593Y-154439698D01*
X169026951Y-154533909D01*
X169222582Y-154589886D01*
X169341963Y-154600500D01*
X170658036Y-154600499D01*
X170777418Y-154589886D01*
X170973049Y-154533909D01*
X171153407Y-154439698D01*
X171311109Y-154311109D01*
X171439698Y-154153407D01*
X171533909Y-153973049D01*
X171589886Y-153777418D01*
X171600500Y-153658037D01*
X171600499Y-152341964D01*
X171592541Y-152252447D01*
X173699500Y-152252447D01*
X173699500Y-152747552D01*
X173738344Y-153241106D01*
X173738346Y-153241125D01*
X173804378Y-153658033D01*
X173815795Y-153730115D01*
X173931372Y-154211530D01*
X173931376Y-154211541D01*
X174084362Y-154682387D01*
X174213128Y-154993257D01*
X174273829Y-155139801D01*
X174498598Y-155580933D01*
X174498601Y-155580938D01*
X174498607Y-155580949D01*
X174721783Y-155945139D01*
X174757284Y-156003071D01*
X175048293Y-156403611D01*
X175369831Y-156780084D01*
X175719916Y-157130169D01*
X176096389Y-157451707D01*
X176496929Y-157742716D01*
X176730078Y-157885589D01*
X176919050Y-158001392D01*
X176919056Y-158001395D01*
X176919067Y-158001402D01*
X177360199Y-158226171D01*
X177817607Y-158415635D01*
X177817612Y-158415637D01*
X177937335Y-158454537D01*
X178288470Y-158568628D01*
X178769885Y-158684205D01*
X179258884Y-158761655D01*
X179752453Y-158800500D01*
X179752461Y-158800500D01*
X180247539Y-158800500D01*
X180247547Y-158800500D01*
X180741116Y-158761655D01*
X181230115Y-158684205D01*
X181711530Y-158568628D01*
X182182393Y-158415635D01*
X182639801Y-158226171D01*
X183080933Y-158001402D01*
X183503071Y-157742716D01*
X183903611Y-157451707D01*
X184280084Y-157130169D01*
X184630169Y-156780084D01*
X184951707Y-156403611D01*
X185242716Y-156003071D01*
X185501402Y-155580933D01*
X185726171Y-155139801D01*
X185915635Y-154682393D01*
X186068628Y-154211530D01*
X186184205Y-153730115D01*
X186261655Y-153241116D01*
X186300500Y-152747547D01*
X186300500Y-152252453D01*
X186261655Y-151758884D01*
X186184205Y-151269885D01*
X186068628Y-150788470D01*
X185915635Y-150317607D01*
X185726171Y-149860199D01*
X185501402Y-149419067D01*
X185242716Y-148996929D01*
X184951707Y-148596389D01*
X184630169Y-148219916D01*
X184280084Y-147869831D01*
X183903611Y-147548293D01*
X183868093Y-147522488D01*
X183503072Y-147257285D01*
X183503071Y-147257284D01*
X183261800Y-147109433D01*
X183080949Y-146998607D01*
X183080938Y-146998601D01*
X183080937Y-146998600D01*
X183080933Y-146998598D01*
X182639801Y-146773829D01*
X182493257Y-146713128D01*
X182182387Y-146584362D01*
X181847363Y-146475507D01*
X181711530Y-146431372D01*
X181230115Y-146315795D01*
X181230109Y-146315794D01*
X180741125Y-146238346D01*
X180741116Y-146238345D01*
X180741114Y-146238344D01*
X180741106Y-146238344D01*
X180247552Y-146199500D01*
X180247547Y-146199500D01*
X179752453Y-146199500D01*
X179752447Y-146199500D01*
X179258893Y-146238344D01*
X179258874Y-146238346D01*
X178769890Y-146315794D01*
X178769887Y-146315794D01*
X178769885Y-146315795D01*
X178597480Y-146357185D01*
X178288481Y-146431369D01*
X178288475Y-146431370D01*
X178288470Y-146431372D01*
X178288458Y-146431376D01*
X177817612Y-146584362D01*
X177360201Y-146773828D01*
X176919061Y-146998601D01*
X176919050Y-146998607D01*
X176496938Y-147257278D01*
X176496927Y-147257285D01*
X176096396Y-147548287D01*
X176096382Y-147548298D01*
X175719922Y-147869825D01*
X175719908Y-147869838D01*
X175369838Y-148219908D01*
X175369825Y-148219922D01*
X175048298Y-148596382D01*
X175048287Y-148596396D01*
X174757285Y-148996927D01*
X174757278Y-148996938D01*
X174498607Y-149419050D01*
X174498601Y-149419061D01*
X174273828Y-149860201D01*
X174084362Y-150317612D01*
X173931376Y-150788458D01*
X173931369Y-150788481D01*
X173815794Y-151269890D01*
X173738346Y-151758874D01*
X173738344Y-151758893D01*
X173699500Y-152252447D01*
X171592541Y-152252447D01*
X171589886Y-152222582D01*
X171533909Y-152026951D01*
X171439698Y-151846593D01*
X171338584Y-151722586D01*
X171311109Y-151688890D01*
X171153409Y-151560304D01*
X171153410Y-151560304D01*
X171153407Y-151560302D01*
X170973049Y-151466091D01*
X170973048Y-151466090D01*
X170973045Y-151466089D01*
X170855829Y-151432550D01*
X170777418Y-151410114D01*
X170777415Y-151410113D01*
X170777413Y-151410113D01*
X170711102Y-151404217D01*
X170658037Y-151399500D01*
X170658032Y-151399500D01*
X169341971Y-151399500D01*
X169341965Y-151399500D01*
X169341964Y-151399501D01*
X169330316Y-151400536D01*
X169222584Y-151410113D01*
X169026954Y-151466089D01*
X168936772Y-151513196D01*
X168846593Y-151560302D01*
X168846591Y-151560303D01*
X168846590Y-151560304D01*
X168688890Y-151688890D01*
X168560304Y-151846590D01*
X168560302Y-151846593D01*
X168513196Y-151936772D01*
X168466089Y-152026954D01*
X168410114Y-152222583D01*
X168410113Y-152222586D01*
X168399500Y-152341966D01*
X160100499Y-152341966D01*
X160100499Y-152341964D01*
X160089886Y-152222582D01*
X160033909Y-152026951D01*
X159939698Y-151846593D01*
X159838584Y-151722586D01*
X159811109Y-151688890D01*
X159653409Y-151560304D01*
X159653410Y-151560304D01*
X159653407Y-151560302D01*
X159473049Y-151466091D01*
X159473048Y-151466090D01*
X159473045Y-151466089D01*
X159355829Y-151432550D01*
X159277418Y-151410114D01*
X159277415Y-151410113D01*
X159277413Y-151410113D01*
X159211102Y-151404217D01*
X159158037Y-151399500D01*
X159158032Y-151399500D01*
X157841971Y-151399500D01*
X157841965Y-151399500D01*
X157841964Y-151399501D01*
X157830316Y-151400536D01*
X157722584Y-151410113D01*
X157526954Y-151466089D01*
X157436772Y-151513196D01*
X157346593Y-151560302D01*
X157346591Y-151560303D01*
X157346590Y-151560304D01*
X157188890Y-151688890D01*
X157060304Y-151846590D01*
X157060302Y-151846593D01*
X157013196Y-151936772D01*
X156966089Y-152026954D01*
X156910114Y-152222583D01*
X156910113Y-152222586D01*
X156899500Y-152341966D01*
X148600499Y-152341966D01*
X148600499Y-151841964D01*
X148589886Y-151722582D01*
X148545012Y-151565756D01*
X148533910Y-151526954D01*
X148533909Y-151526953D01*
X148533909Y-151526951D01*
X148439698Y-151346593D01*
X148377151Y-151269885D01*
X148311109Y-151188890D01*
X148153409Y-151060304D01*
X148153410Y-151060304D01*
X148153407Y-151060302D01*
X147973049Y-150966091D01*
X147973048Y-150966090D01*
X147973045Y-150966089D01*
X147855829Y-150932550D01*
X147777418Y-150910114D01*
X147777415Y-150910113D01*
X147777413Y-150910113D01*
X147711102Y-150904217D01*
X147658037Y-150899500D01*
X147658032Y-150899500D01*
X146341971Y-150899500D01*
X146341965Y-150899500D01*
X146341964Y-150899501D01*
X146330316Y-150900536D01*
X146222584Y-150910113D01*
X146026954Y-150966089D01*
X145936772Y-151013196D01*
X145846593Y-151060302D01*
X145846591Y-151060303D01*
X145846590Y-151060304D01*
X145688890Y-151188890D01*
X145560304Y-151346590D01*
X145560302Y-151346593D01*
X145513196Y-151436772D01*
X145466089Y-151526954D01*
X145421332Y-151683376D01*
X145419755Y-151688890D01*
X145410114Y-151722583D01*
X145410113Y-151722586D01*
X145399500Y-151841966D01*
X137100499Y-151841966D01*
X137100499Y-151841964D01*
X137089886Y-151722582D01*
X137045012Y-151565756D01*
X137033910Y-151526954D01*
X137033909Y-151526953D01*
X137033909Y-151526951D01*
X136939698Y-151346593D01*
X136877151Y-151269885D01*
X136811109Y-151188890D01*
X136653409Y-151060304D01*
X136653410Y-151060304D01*
X136653407Y-151060302D01*
X136473049Y-150966091D01*
X136473048Y-150966090D01*
X136473045Y-150966089D01*
X136355829Y-150932550D01*
X136277418Y-150910114D01*
X136277415Y-150910113D01*
X136277413Y-150910113D01*
X136211102Y-150904217D01*
X136158037Y-150899500D01*
X136158032Y-150899500D01*
X134841971Y-150899500D01*
X134841965Y-150899500D01*
X134841964Y-150899501D01*
X134830316Y-150900536D01*
X134722584Y-150910113D01*
X134526954Y-150966089D01*
X134436772Y-151013196D01*
X134346593Y-151060302D01*
X134346591Y-151060303D01*
X134346590Y-151060304D01*
X134188890Y-151188890D01*
X134060304Y-151346590D01*
X134060302Y-151346593D01*
X134013196Y-151436772D01*
X133966089Y-151526954D01*
X133921332Y-151683376D01*
X133919755Y-151688890D01*
X133910114Y-151722583D01*
X133910113Y-151722586D01*
X133899500Y-151841966D01*
X125600499Y-151841966D01*
X125600499Y-151841964D01*
X125589886Y-151722582D01*
X125545012Y-151565756D01*
X125533910Y-151526954D01*
X125533909Y-151526953D01*
X125533909Y-151526951D01*
X125439698Y-151346593D01*
X125377151Y-151269885D01*
X125311109Y-151188890D01*
X125153409Y-151060304D01*
X125153410Y-151060304D01*
X125153407Y-151060302D01*
X124973049Y-150966091D01*
X124973048Y-150966090D01*
X124973045Y-150966089D01*
X124855829Y-150932550D01*
X124777418Y-150910114D01*
X124777415Y-150910113D01*
X124777413Y-150910113D01*
X124711102Y-150904217D01*
X124658037Y-150899500D01*
X124658032Y-150899500D01*
X123341971Y-150899500D01*
X123341965Y-150899500D01*
X123341964Y-150899501D01*
X123330316Y-150900536D01*
X123222584Y-150910113D01*
X123026954Y-150966089D01*
X122936772Y-151013196D01*
X122846593Y-151060302D01*
X122846591Y-151060303D01*
X122846590Y-151060304D01*
X122688890Y-151188890D01*
X122560304Y-151346590D01*
X122560302Y-151346593D01*
X122513196Y-151436772D01*
X122466089Y-151526954D01*
X122421332Y-151683376D01*
X122419755Y-151688890D01*
X122410114Y-151722583D01*
X122410113Y-151722586D01*
X122399500Y-151841966D01*
X114200499Y-151841966D01*
X114200499Y-151841964D01*
X114189886Y-151722582D01*
X114145012Y-151565756D01*
X114133910Y-151526954D01*
X114133909Y-151526953D01*
X114133909Y-151526951D01*
X114039698Y-151346593D01*
X113977151Y-151269885D01*
X113911109Y-151188890D01*
X113753409Y-151060304D01*
X113753410Y-151060304D01*
X113753407Y-151060302D01*
X113573049Y-150966091D01*
X113573048Y-150966090D01*
X113573045Y-150966089D01*
X113455829Y-150932550D01*
X113377418Y-150910114D01*
X113377415Y-150910113D01*
X113377413Y-150910113D01*
X113311102Y-150904217D01*
X113258037Y-150899500D01*
X113258032Y-150899500D01*
X111941971Y-150899500D01*
X111941965Y-150899500D01*
X111941964Y-150899501D01*
X111930316Y-150900536D01*
X111822584Y-150910113D01*
X111626954Y-150966089D01*
X111536772Y-151013196D01*
X111446593Y-151060302D01*
X111446591Y-151060303D01*
X111446590Y-151060304D01*
X111288890Y-151188890D01*
X111160304Y-151346590D01*
X111160302Y-151346593D01*
X111113196Y-151436772D01*
X111066089Y-151526954D01*
X111021332Y-151683376D01*
X111019755Y-151688890D01*
X111010114Y-151722583D01*
X111010113Y-151722586D01*
X110999500Y-151841966D01*
X88768194Y-151841966D01*
X88761655Y-151758884D01*
X88684205Y-151269885D01*
X88568628Y-150788470D01*
X88415635Y-150317607D01*
X88226171Y-149860199D01*
X88001402Y-149419067D01*
X87742716Y-148996929D01*
X87451707Y-148596389D01*
X87268518Y-148381902D01*
X157249500Y-148381902D01*
X157249500Y-148618097D01*
X157286446Y-148851368D01*
X157359433Y-149075996D01*
X157466657Y-149286433D01*
X157605483Y-149477510D01*
X157772490Y-149644517D01*
X157963567Y-149783343D01*
X158062991Y-149834002D01*
X158174003Y-149890566D01*
X158174005Y-149890566D01*
X158174008Y-149890568D01*
X158294412Y-149929689D01*
X158398631Y-149963553D01*
X158631903Y-150000500D01*
X158631908Y-150000500D01*
X158868097Y-150000500D01*
X159101368Y-149963553D01*
X159325992Y-149890568D01*
X159536433Y-149783343D01*
X159727510Y-149644517D01*
X159894517Y-149477510D01*
X160033343Y-149286433D01*
X160140568Y-149075992D01*
X160213553Y-148851368D01*
X160250500Y-148618097D01*
X160250500Y-148381902D01*
X160213553Y-148148631D01*
X160140566Y-147924003D01*
X160033342Y-147713566D01*
X159894517Y-147522490D01*
X159727510Y-147355483D01*
X159536433Y-147216657D01*
X159325996Y-147109433D01*
X159101368Y-147036446D01*
X158868097Y-146999500D01*
X158868092Y-146999500D01*
X158631908Y-146999500D01*
X158631903Y-146999500D01*
X158398631Y-147036446D01*
X158174003Y-147109433D01*
X157963566Y-147216657D01*
X157854550Y-147295862D01*
X157772490Y-147355483D01*
X157772488Y-147355485D01*
X157772487Y-147355485D01*
X157605485Y-147522487D01*
X157605485Y-147522488D01*
X157605483Y-147522490D01*
X157545862Y-147604550D01*
X157466657Y-147713566D01*
X157359433Y-147924003D01*
X157286446Y-148148631D01*
X157249500Y-148381902D01*
X87268518Y-148381902D01*
X87130169Y-148219916D01*
X86780084Y-147869831D01*
X86403611Y-147548293D01*
X86368093Y-147522488D01*
X86003072Y-147257285D01*
X86003071Y-147257284D01*
X85761800Y-147109433D01*
X85580949Y-146998607D01*
X85580938Y-146998601D01*
X85580937Y-146998600D01*
X85580933Y-146998598D01*
X85139801Y-146773829D01*
X84993257Y-146713128D01*
X84682387Y-146584362D01*
X84347363Y-146475507D01*
X84211530Y-146431372D01*
X83730115Y-146315795D01*
X83730109Y-146315794D01*
X83241125Y-146238346D01*
X83241116Y-146238345D01*
X83241114Y-146238344D01*
X83241106Y-146238344D01*
X82747552Y-146199500D01*
X82747547Y-146199500D01*
X82252453Y-146199500D01*
X82252447Y-146199500D01*
X81758893Y-146238344D01*
X81758874Y-146238346D01*
X81269890Y-146315794D01*
X81269887Y-146315794D01*
X81269885Y-146315795D01*
X81097480Y-146357185D01*
X80788481Y-146431369D01*
X80788475Y-146431370D01*
X80788470Y-146431372D01*
X80788458Y-146431376D01*
X80317612Y-146584362D01*
X79860201Y-146773828D01*
X79419061Y-146998601D01*
X79419050Y-146998607D01*
X78996938Y-147257278D01*
X78996927Y-147257285D01*
X78596396Y-147548287D01*
X78596382Y-147548298D01*
X78219922Y-147869825D01*
X78219908Y-147869838D01*
X77869838Y-148219908D01*
X77869825Y-148219922D01*
X77548298Y-148596382D01*
X77548287Y-148596396D01*
X77257285Y-148996927D01*
X77257278Y-148996938D01*
X76998607Y-149419050D01*
X76998601Y-149419061D01*
X76773828Y-149860201D01*
X76584362Y-150317612D01*
X76431376Y-150788458D01*
X76431369Y-150788481D01*
X76315794Y-151269890D01*
X76238346Y-151758874D01*
X76238344Y-151758893D01*
X76199500Y-152252447D01*
X75500500Y-152252447D01*
X75500500Y-54124000D01*
X75520185Y-54056961D01*
X75572989Y-54011206D01*
X75624500Y-54000000D01*
X87376000Y-54000000D01*
X87443039Y-54019685D01*
G37*
%TD.AperFunction*%
%TD*%
%TA.AperFunction,Conductor*%
%TO.N,IGBT_EMITTER*%
G36*
X186942539Y-73019685D02*
G01*
X186988294Y-73072489D01*
X186999500Y-73124000D01*
X186999500Y-112376000D01*
X186979815Y-112443039D01*
X186927011Y-112488794D01*
X186875500Y-112500000D01*
X175051362Y-112500000D01*
X174984323Y-112480315D01*
X174963681Y-112463681D01*
X169557135Y-107057135D01*
X178524500Y-107057135D01*
X178524500Y-109102870D01*
X178524501Y-109102876D01*
X178530908Y-109162483D01*
X178581202Y-109297328D01*
X178581206Y-109297335D01*
X178667452Y-109412544D01*
X178667455Y-109412547D01*
X178782664Y-109498793D01*
X178782671Y-109498797D01*
X178917517Y-109549091D01*
X178917516Y-109549091D01*
X178924444Y-109549835D01*
X178977127Y-109555500D01*
X181022872Y-109555499D01*
X181082483Y-109549091D01*
X181217331Y-109498796D01*
X181332546Y-109412546D01*
X181418796Y-109297331D01*
X181469091Y-109162483D01*
X181475500Y-109102873D01*
X181475499Y-107057128D01*
X181469091Y-106997517D01*
X181418796Y-106862669D01*
X181418795Y-106862668D01*
X181418793Y-106862664D01*
X181332547Y-106747455D01*
X181332544Y-106747452D01*
X181217335Y-106661206D01*
X181217328Y-106661202D01*
X181082482Y-106610908D01*
X181082483Y-106610908D01*
X181022883Y-106604501D01*
X181022881Y-106604500D01*
X181022873Y-106604500D01*
X181022864Y-106604500D01*
X178977129Y-106604500D01*
X178977123Y-106604501D01*
X178917516Y-106610908D01*
X178782671Y-106661202D01*
X178782664Y-106661206D01*
X178667455Y-106747452D01*
X178667452Y-106747455D01*
X178581206Y-106862664D01*
X178581202Y-106862671D01*
X178530908Y-106997517D01*
X178524501Y-107057116D01*
X178524501Y-107057123D01*
X178524500Y-107057135D01*
X169557135Y-107057135D01*
X168000000Y-105500000D01*
X161595755Y-105500000D01*
X161528716Y-105480315D01*
X161482961Y-105427511D01*
X161481219Y-105423513D01*
X161459394Y-105370821D01*
X161459391Y-105370816D01*
X161459390Y-105370814D01*
X161371789Y-105239711D01*
X161371786Y-105239707D01*
X161260292Y-105128213D01*
X161260288Y-105128210D01*
X161129185Y-105040609D01*
X161129172Y-105040602D01*
X160983501Y-104980264D01*
X160983489Y-104980261D01*
X160828845Y-104949500D01*
X160828842Y-104949500D01*
X160671158Y-104949500D01*
X160671155Y-104949500D01*
X160516510Y-104980261D01*
X160516498Y-104980264D01*
X160370827Y-105040602D01*
X160370814Y-105040609D01*
X160239711Y-105128210D01*
X160239707Y-105128213D01*
X160128213Y-105239707D01*
X160128210Y-105239711D01*
X160040609Y-105370814D01*
X160040606Y-105370820D01*
X160040606Y-105370821D01*
X160018804Y-105423455D01*
X159974966Y-105477855D01*
X159908672Y-105499921D01*
X159904245Y-105500000D01*
X156167947Y-105500000D01*
X156100908Y-105480315D01*
X156055153Y-105427511D01*
X156046330Y-105400191D01*
X156019738Y-105266510D01*
X156019737Y-105266503D01*
X156013208Y-105250741D01*
X155959397Y-105120827D01*
X155959390Y-105120814D01*
X155871789Y-104989711D01*
X155871786Y-104989707D01*
X155760292Y-104878213D01*
X155760288Y-104878210D01*
X155629185Y-104790609D01*
X155629172Y-104790602D01*
X155483501Y-104730264D01*
X155483489Y-104730261D01*
X155328845Y-104699500D01*
X155328842Y-104699500D01*
X155171158Y-104699500D01*
X155171153Y-104699500D01*
X155105431Y-104712573D01*
X155035839Y-104706346D01*
X154980662Y-104663482D01*
X154966679Y-104638409D01*
X154959392Y-104620817D01*
X154871789Y-104489711D01*
X154871786Y-104489707D01*
X154760292Y-104378213D01*
X154760288Y-104378210D01*
X154629185Y-104290609D01*
X154629172Y-104290602D01*
X154483501Y-104230264D01*
X154483489Y-104230261D01*
X154328845Y-104199500D01*
X154328842Y-104199500D01*
X154171158Y-104199500D01*
X154171155Y-104199500D01*
X154016510Y-104230261D01*
X154016498Y-104230264D01*
X153870827Y-104290602D01*
X153870814Y-104290609D01*
X153739711Y-104378210D01*
X153739707Y-104378213D01*
X153628213Y-104489707D01*
X153628210Y-104489711D01*
X153540609Y-104620814D01*
X153540602Y-104620827D01*
X153480264Y-104766498D01*
X153480261Y-104766510D01*
X153449500Y-104921153D01*
X153449500Y-105078846D01*
X153471639Y-105190144D01*
X153480263Y-105233497D01*
X153493934Y-105266503D01*
X153519634Y-105328547D01*
X153527103Y-105398017D01*
X153495828Y-105460496D01*
X153435739Y-105496148D01*
X153405073Y-105500000D01*
X152850452Y-105500000D01*
X152783413Y-105480315D01*
X152737658Y-105427511D01*
X152727714Y-105358353D01*
X152735891Y-105328547D01*
X152793216Y-105190152D01*
X152823979Y-105035497D01*
X152823979Y-104877813D01*
X152823979Y-104877810D01*
X152823978Y-104877808D01*
X152806632Y-104790606D01*
X152793216Y-104723158D01*
X152758112Y-104638409D01*
X152732876Y-104577482D01*
X152732869Y-104577469D01*
X152645268Y-104446366D01*
X152645265Y-104446362D01*
X152533771Y-104334868D01*
X152533767Y-104334865D01*
X152402664Y-104247264D01*
X152402651Y-104247257D01*
X152256980Y-104186919D01*
X152256968Y-104186916D01*
X152102324Y-104156155D01*
X152102321Y-104156155D01*
X151944637Y-104156155D01*
X151944634Y-104156155D01*
X151789989Y-104186916D01*
X151789977Y-104186919D01*
X151644306Y-104247257D01*
X151644293Y-104247264D01*
X151513190Y-104334865D01*
X151513186Y-104334868D01*
X151401692Y-104446362D01*
X151401689Y-104446366D01*
X151314088Y-104577469D01*
X151314081Y-104577482D01*
X151253743Y-104723153D01*
X151253740Y-104723165D01*
X151222979Y-104877808D01*
X151222979Y-105035501D01*
X151241421Y-105128211D01*
X151253742Y-105190152D01*
X151285367Y-105266503D01*
X151311067Y-105328547D01*
X151318536Y-105398017D01*
X151287261Y-105460496D01*
X151227172Y-105496148D01*
X151196506Y-105500000D01*
X139499999Y-105500000D01*
X135036319Y-109963681D01*
X134974996Y-109997166D01*
X134948638Y-110000000D01*
X130124000Y-110000000D01*
X130056961Y-109980315D01*
X130011206Y-109927511D01*
X130000000Y-109876000D01*
X130000000Y-103977724D01*
X133137000Y-103977724D01*
X133137000Y-104192275D01*
X133170560Y-104404170D01*
X133236859Y-104608215D01*
X133329795Y-104790609D01*
X133334258Y-104799368D01*
X133460362Y-104972935D01*
X133612065Y-105124638D01*
X133785632Y-105250742D01*
X133875943Y-105296758D01*
X133976784Y-105348140D01*
X133976786Y-105348140D01*
X133976789Y-105348142D01*
X134046588Y-105370821D01*
X134180829Y-105414439D01*
X134392725Y-105448000D01*
X134392730Y-105448000D01*
X134607275Y-105448000D01*
X134819170Y-105414439D01*
X135023211Y-105348142D01*
X135214368Y-105250742D01*
X135387935Y-105124638D01*
X135539638Y-104972935D01*
X135665742Y-104799368D01*
X135763142Y-104608211D01*
X135829439Y-104404170D01*
X135833550Y-104378213D01*
X135863000Y-104192275D01*
X135863000Y-103977731D01*
X135850487Y-103898729D01*
X135846308Y-103872342D01*
X135855262Y-103803052D01*
X135881097Y-103765269D01*
X135975213Y-103671153D01*
X148699500Y-103671153D01*
X148699500Y-103828846D01*
X148730261Y-103983489D01*
X148730264Y-103983501D01*
X148790602Y-104129172D01*
X148790609Y-104129185D01*
X148878210Y-104260288D01*
X148878213Y-104260292D01*
X148989707Y-104371786D01*
X148989711Y-104371789D01*
X149120814Y-104459390D01*
X149120827Y-104459397D01*
X149194013Y-104489711D01*
X149266503Y-104519737D01*
X149421153Y-104550499D01*
X149421156Y-104550500D01*
X149421158Y-104550500D01*
X149578844Y-104550500D01*
X149578845Y-104550499D01*
X149733497Y-104519737D01*
X149879179Y-104459394D01*
X150010289Y-104371789D01*
X150121789Y-104260289D01*
X150209394Y-104129179D01*
X150269737Y-103983497D01*
X150300500Y-103828842D01*
X150300500Y-103671158D01*
X150300500Y-103671155D01*
X150300499Y-103671153D01*
X150281158Y-103573920D01*
X150269737Y-103516503D01*
X150232284Y-103426082D01*
X150209397Y-103370827D01*
X150209390Y-103370814D01*
X150121789Y-103239711D01*
X150121786Y-103239707D01*
X150010292Y-103128213D01*
X150010288Y-103128210D01*
X149879185Y-103040609D01*
X149879172Y-103040602D01*
X149733501Y-102980264D01*
X149733489Y-102980261D01*
X149578845Y-102949500D01*
X149578842Y-102949500D01*
X149421158Y-102949500D01*
X149421155Y-102949500D01*
X149266510Y-102980261D01*
X149266498Y-102980264D01*
X149120827Y-103040602D01*
X149120814Y-103040609D01*
X148989711Y-103128210D01*
X148989707Y-103128213D01*
X148878213Y-103239707D01*
X148878210Y-103239711D01*
X148790609Y-103370814D01*
X148790602Y-103370827D01*
X148730264Y-103516498D01*
X148730261Y-103516510D01*
X148699500Y-103671153D01*
X135975213Y-103671153D01*
X139725214Y-99921153D01*
X147199500Y-99921153D01*
X147199500Y-100078846D01*
X147230261Y-100233489D01*
X147230264Y-100233501D01*
X147290602Y-100379172D01*
X147290609Y-100379185D01*
X147378210Y-100510288D01*
X147378213Y-100510292D01*
X147489707Y-100621786D01*
X147489711Y-100621789D01*
X147620814Y-100709390D01*
X147620827Y-100709397D01*
X147757693Y-100766088D01*
X147766503Y-100769737D01*
X147899757Y-100796243D01*
X147921153Y-100800499D01*
X147921156Y-100800500D01*
X147921158Y-100800500D01*
X148078844Y-100800500D01*
X148078845Y-100800499D01*
X148201247Y-100776152D01*
X148233488Y-100769739D01*
X148233489Y-100769738D01*
X148233497Y-100769737D01*
X148257155Y-100759937D01*
X148304604Y-100750500D01*
X149243837Y-100750500D01*
X149310876Y-100770185D01*
X149331518Y-100786819D01*
X150013181Y-101468482D01*
X150027884Y-101495409D01*
X150044477Y-101521228D01*
X150045368Y-101527428D01*
X150046666Y-101529805D01*
X150049500Y-101556163D01*
X150049500Y-101712072D01*
X150029815Y-101779111D01*
X150028602Y-101780963D01*
X150015609Y-101800407D01*
X150015602Y-101800420D01*
X149955264Y-101946091D01*
X149955261Y-101946103D01*
X149924500Y-102100746D01*
X149924500Y-102258439D01*
X149955261Y-102413082D01*
X149955264Y-102413094D01*
X150015602Y-102558765D01*
X150015609Y-102558778D01*
X150103210Y-102689881D01*
X150103213Y-102689885D01*
X150214707Y-102801379D01*
X150214711Y-102801382D01*
X150345814Y-102888983D01*
X150345827Y-102888990D01*
X150423489Y-102921158D01*
X150491503Y-102949330D01*
X150646153Y-102980092D01*
X150646156Y-102980093D01*
X150646158Y-102980093D01*
X150803844Y-102980093D01*
X150803845Y-102980092D01*
X150958497Y-102949330D01*
X151104179Y-102888987D01*
X151235289Y-102801382D01*
X151346789Y-102689882D01*
X151434394Y-102558772D01*
X151494737Y-102413090D01*
X151525500Y-102258435D01*
X151525500Y-102100751D01*
X151525500Y-102100748D01*
X151500636Y-101975752D01*
X151506863Y-101906160D01*
X151549726Y-101850983D01*
X151615615Y-101827738D01*
X151683612Y-101843806D01*
X151691144Y-101848458D01*
X151715483Y-101864721D01*
X151715496Y-101864728D01*
X151829183Y-101911818D01*
X151861172Y-101925068D01*
X151976403Y-101947989D01*
X152015822Y-101955830D01*
X152015825Y-101955831D01*
X152015827Y-101955831D01*
X152173513Y-101955831D01*
X152173514Y-101955830D01*
X152328166Y-101925068D01*
X152473848Y-101864725D01*
X152604958Y-101777120D01*
X152674575Y-101707502D01*
X152735896Y-101674019D01*
X152786450Y-101673569D01*
X152796158Y-101675500D01*
X152953844Y-101675500D01*
X152953845Y-101675499D01*
X153108497Y-101644737D01*
X153254179Y-101584394D01*
X153385289Y-101496789D01*
X153460925Y-101421153D01*
X156699500Y-101421153D01*
X156699500Y-101578846D01*
X156730261Y-101733489D01*
X156730264Y-101733501D01*
X156790602Y-101879172D01*
X156790609Y-101879185D01*
X156878210Y-102010288D01*
X156878213Y-102010292D01*
X156989710Y-102121789D01*
X157120815Y-102209390D01*
X157120821Y-102209394D01*
X157122945Y-102210274D01*
X157123885Y-102211031D01*
X157126192Y-102212264D01*
X157125958Y-102212701D01*
X157177349Y-102254107D01*
X157199421Y-102320399D01*
X157199500Y-102324837D01*
X157199500Y-102328846D01*
X157230261Y-102483489D01*
X157230264Y-102483501D01*
X157290602Y-102629172D01*
X157290609Y-102629185D01*
X157378210Y-102760288D01*
X157378213Y-102760292D01*
X157489707Y-102871786D01*
X157489711Y-102871789D01*
X157620814Y-102959390D01*
X157620827Y-102959397D01*
X157766498Y-103019735D01*
X157766503Y-103019737D01*
X157895328Y-103045362D01*
X157921153Y-103050499D01*
X157921156Y-103050500D01*
X157921158Y-103050500D01*
X158078844Y-103050500D01*
X158078845Y-103050499D01*
X158233497Y-103019737D01*
X158379179Y-102959394D01*
X158436411Y-102921153D01*
X161199500Y-102921153D01*
X161199500Y-103078846D01*
X161230261Y-103233489D01*
X161230264Y-103233501D01*
X161290602Y-103379172D01*
X161290609Y-103379185D01*
X161378210Y-103510288D01*
X161378213Y-103510292D01*
X161489707Y-103621786D01*
X161489711Y-103621789D01*
X161620814Y-103709390D01*
X161620827Y-103709397D01*
X161766498Y-103769735D01*
X161766503Y-103769737D01*
X161921153Y-103800499D01*
X161921156Y-103800500D01*
X161921158Y-103800500D01*
X162078844Y-103800500D01*
X162078845Y-103800499D01*
X162233497Y-103769737D01*
X162379179Y-103709394D01*
X162510289Y-103621789D01*
X162621789Y-103510289D01*
X162709394Y-103379179D01*
X162712854Y-103370827D01*
X162723067Y-103346166D01*
X162769737Y-103233497D01*
X162800500Y-103078842D01*
X162800500Y-102921158D01*
X162800500Y-102921155D01*
X162800499Y-102921153D01*
X162776674Y-102801379D01*
X162769737Y-102766503D01*
X162757675Y-102737383D01*
X162709397Y-102620827D01*
X162709390Y-102620814D01*
X162621789Y-102489711D01*
X162621786Y-102489707D01*
X162510292Y-102378213D01*
X162510288Y-102378210D01*
X162379185Y-102290609D01*
X162379172Y-102290602D01*
X162233501Y-102230264D01*
X162233489Y-102230261D01*
X162078845Y-102199500D01*
X162078842Y-102199500D01*
X161921158Y-102199500D01*
X161921155Y-102199500D01*
X161766510Y-102230261D01*
X161766498Y-102230264D01*
X161620827Y-102290602D01*
X161620814Y-102290609D01*
X161489711Y-102378210D01*
X161489707Y-102378213D01*
X161378213Y-102489707D01*
X161378210Y-102489711D01*
X161290609Y-102620814D01*
X161290602Y-102620827D01*
X161230264Y-102766498D01*
X161230261Y-102766510D01*
X161199500Y-102921153D01*
X158436411Y-102921153D01*
X158510289Y-102871789D01*
X158510292Y-102871786D01*
X158554694Y-102827385D01*
X158621786Y-102760292D01*
X158621789Y-102760289D01*
X158709394Y-102629179D01*
X158712854Y-102620827D01*
X158738560Y-102558765D01*
X158769737Y-102483497D01*
X158791858Y-102372282D01*
X158824240Y-102310375D01*
X158825675Y-102308913D01*
X159222773Y-101911816D01*
X159284095Y-101878334D01*
X159310453Y-101875500D01*
X164158041Y-101875500D01*
X164225080Y-101895185D01*
X164270835Y-101947989D01*
X164276702Y-101963505D01*
X164278344Y-101968919D01*
X164334912Y-102105488D01*
X164334919Y-102105501D01*
X164417048Y-102228415D01*
X164417051Y-102228419D01*
X164521580Y-102332948D01*
X164521584Y-102332951D01*
X164644498Y-102415080D01*
X164644511Y-102415087D01*
X164781082Y-102471656D01*
X164781087Y-102471658D01*
X164781091Y-102471658D01*
X164781092Y-102471659D01*
X164926079Y-102500500D01*
X164926082Y-102500500D01*
X165073920Y-102500500D01*
X165171462Y-102481096D01*
X165218913Y-102471658D01*
X165355495Y-102415084D01*
X165478416Y-102332951D01*
X165500707Y-102310659D01*
X165562025Y-102277175D01*
X165631717Y-102282157D01*
X165676069Y-102310659D01*
X167261016Y-103895606D01*
X167261045Y-103895637D01*
X167351263Y-103985855D01*
X167351267Y-103985858D01*
X167453707Y-104054307D01*
X167453713Y-104054310D01*
X167453714Y-104054311D01*
X167567548Y-104101463D01*
X167627971Y-104113481D01*
X167688393Y-104125500D01*
X167688394Y-104125500D01*
X168797649Y-104125500D01*
X168864688Y-104145185D01*
X168866455Y-104146341D01*
X168894505Y-104165084D01*
X169031087Y-104221658D01*
X169031091Y-104221658D01*
X169031092Y-104221659D01*
X169176079Y-104250500D01*
X169176082Y-104250500D01*
X169323920Y-104250500D01*
X169425664Y-104230261D01*
X169468913Y-104221658D01*
X169605495Y-104165084D01*
X169728416Y-104082951D01*
X169832951Y-103978416D01*
X169915084Y-103855495D01*
X169971658Y-103718913D01*
X169990978Y-103621786D01*
X170000500Y-103573920D01*
X170000500Y-103426079D01*
X169971659Y-103281092D01*
X169971658Y-103281091D01*
X169971658Y-103281087D01*
X169951946Y-103233497D01*
X169915087Y-103144511D01*
X169915080Y-103144498D01*
X169832951Y-103021584D01*
X169832948Y-103021580D01*
X169728419Y-102917051D01*
X169728415Y-102917048D01*
X169605501Y-102834919D01*
X169605492Y-102834914D01*
X169504777Y-102793197D01*
X169450374Y-102749356D01*
X169428309Y-102683062D01*
X169445588Y-102615362D01*
X169476738Y-102580264D01*
X169571851Y-102507282D01*
X169664053Y-102415080D01*
X169757274Y-102321860D01*
X169757277Y-102321855D01*
X169757282Y-102321851D01*
X169916924Y-102113803D01*
X170048043Y-101886697D01*
X170148398Y-101644419D01*
X170216270Y-101391116D01*
X170250500Y-101131120D01*
X170250500Y-100868880D01*
X170216270Y-100608884D01*
X170148398Y-100355581D01*
X170105995Y-100253211D01*
X170048046Y-100113309D01*
X170048041Y-100113299D01*
X169916924Y-99886196D01*
X169757281Y-99678148D01*
X169757274Y-99678140D01*
X169571860Y-99492726D01*
X169571851Y-99492718D01*
X169363803Y-99333075D01*
X169136700Y-99201958D01*
X169136690Y-99201953D01*
X168894428Y-99101605D01*
X168894421Y-99101603D01*
X168894419Y-99101602D01*
X168641116Y-99033730D01*
X168583339Y-99026123D01*
X168381127Y-98999500D01*
X168381120Y-98999500D01*
X168118880Y-98999500D01*
X168118872Y-98999500D01*
X167887772Y-99029926D01*
X167858884Y-99033730D01*
X167690508Y-99078846D01*
X167605581Y-99101602D01*
X167605571Y-99101605D01*
X167363309Y-99201953D01*
X167363299Y-99201958D01*
X167136196Y-99333075D01*
X166928148Y-99492718D01*
X166742718Y-99678148D01*
X166583075Y-99886196D01*
X166451958Y-100113299D01*
X166451953Y-100113309D01*
X166351605Y-100355571D01*
X166351602Y-100355581D01*
X166327391Y-100445940D01*
X166283730Y-100608885D01*
X166253698Y-100836993D01*
X166225431Y-100900889D01*
X166167107Y-100939360D01*
X166097242Y-100940191D01*
X166043078Y-100908488D01*
X165493394Y-100358804D01*
X165485860Y-100351270D01*
X165485858Y-100351267D01*
X165398733Y-100264142D01*
X165339405Y-100224500D01*
X165296286Y-100195688D01*
X165215792Y-100162347D01*
X165182452Y-100148537D01*
X165122029Y-100136518D01*
X165117306Y-100135578D01*
X165117304Y-100135578D01*
X165061610Y-100124500D01*
X165061607Y-100124500D01*
X165061606Y-100124500D01*
X163311606Y-100124500D01*
X159776134Y-100124500D01*
X158311607Y-100124500D01*
X158188393Y-100124500D01*
X158188389Y-100124500D01*
X158132697Y-100135578D01*
X158127971Y-100136518D01*
X158084743Y-100145116D01*
X158067546Y-100148537D01*
X157953716Y-100195687D01*
X157953707Y-100195692D01*
X157851268Y-100264140D01*
X157807705Y-100307703D01*
X157764142Y-100351267D01*
X157764139Y-100351270D01*
X157441203Y-100674205D01*
X157379880Y-100707690D01*
X157377714Y-100708141D01*
X157266508Y-100730261D01*
X157266498Y-100730264D01*
X157120827Y-100790602D01*
X157120814Y-100790609D01*
X156989711Y-100878210D01*
X156989707Y-100878213D01*
X156878213Y-100989707D01*
X156878210Y-100989711D01*
X156790609Y-101120814D01*
X156790602Y-101120827D01*
X156730264Y-101266498D01*
X156730261Y-101266510D01*
X156699500Y-101421153D01*
X153460925Y-101421153D01*
X153496789Y-101385289D01*
X153584394Y-101254179D01*
X153644737Y-101108497D01*
X153654947Y-101057164D01*
X153687331Y-100995257D01*
X153748046Y-100960682D01*
X153817816Y-100964421D01*
X153874488Y-101005286D01*
X153877262Y-101009134D01*
X153878213Y-101010292D01*
X153989707Y-101121786D01*
X153989711Y-101121789D01*
X154120814Y-101209390D01*
X154120827Y-101209397D01*
X154258683Y-101266498D01*
X154266503Y-101269737D01*
X154421153Y-101300499D01*
X154421156Y-101300500D01*
X154421158Y-101300500D01*
X154578844Y-101300500D01*
X154578845Y-101300499D01*
X154589179Y-101298443D01*
X154614287Y-101293450D01*
X154614292Y-101293449D01*
X154699800Y-101276439D01*
X154733497Y-101269737D01*
X154879179Y-101209394D01*
X155010289Y-101121789D01*
X155121789Y-101010289D01*
X155209394Y-100879179D01*
X155213658Y-100868886D01*
X155244513Y-100794394D01*
X155269737Y-100733497D01*
X155300500Y-100578842D01*
X155300500Y-100421158D01*
X155300500Y-100421155D01*
X155300499Y-100421153D01*
X155292148Y-100379172D01*
X155269737Y-100266503D01*
X155250574Y-100220238D01*
X155209397Y-100120827D01*
X155209390Y-100120814D01*
X155121789Y-99989711D01*
X155121786Y-99989707D01*
X155010292Y-99878213D01*
X155010288Y-99878210D01*
X154879185Y-99790609D01*
X154879172Y-99790602D01*
X154733501Y-99730264D01*
X154733489Y-99730261D01*
X154578845Y-99699500D01*
X154578842Y-99699500D01*
X154421158Y-99699500D01*
X154421155Y-99699500D01*
X154266510Y-99730261D01*
X154266498Y-99730264D01*
X154120827Y-99790602D01*
X154120814Y-99790609D01*
X153989711Y-99878210D01*
X153989707Y-99878213D01*
X153878213Y-99989707D01*
X153878210Y-99989711D01*
X153790609Y-100120814D01*
X153790602Y-100120827D01*
X153730264Y-100266498D01*
X153730261Y-100266508D01*
X153720052Y-100317833D01*
X153687667Y-100379744D01*
X153626951Y-100414318D01*
X153557181Y-100410577D01*
X153500509Y-100369711D01*
X153497736Y-100365864D01*
X153496786Y-100364707D01*
X153385292Y-100253213D01*
X153385288Y-100253210D01*
X153254185Y-100165609D01*
X153254172Y-100165602D01*
X153108501Y-100105264D01*
X153108489Y-100105261D01*
X152953845Y-100074500D01*
X152953842Y-100074500D01*
X152796158Y-100074500D01*
X152796155Y-100074500D01*
X152641510Y-100105261D01*
X152641498Y-100105264D01*
X152495827Y-100165602D01*
X152495814Y-100165609D01*
X152364711Y-100253210D01*
X152295094Y-100322827D01*
X152233770Y-100356311D01*
X152183223Y-100356762D01*
X152173511Y-100354831D01*
X152015827Y-100354831D01*
X152015824Y-100354831D01*
X151861179Y-100385592D01*
X151861167Y-100385595D01*
X151715496Y-100445933D01*
X151715483Y-100445940D01*
X151584380Y-100533541D01*
X151584376Y-100533544D01*
X151472882Y-100645038D01*
X151472879Y-100645042D01*
X151407605Y-100742731D01*
X151353992Y-100787536D01*
X151284667Y-100796243D01*
X151221640Y-100766088D01*
X151216822Y-100761521D01*
X150596015Y-100140714D01*
X150562530Y-100079391D01*
X150567514Y-100009699D01*
X150596015Y-99965352D01*
X151274548Y-99286819D01*
X151335871Y-99253334D01*
X151362229Y-99250500D01*
X156257896Y-99250500D01*
X156305344Y-99259937D01*
X156329003Y-99269737D01*
X156329008Y-99269738D01*
X156329011Y-99269739D01*
X156483653Y-99300499D01*
X156483656Y-99300500D01*
X156483658Y-99300500D01*
X156641344Y-99300500D01*
X156641345Y-99300499D01*
X156795997Y-99269737D01*
X156941679Y-99209394D01*
X157072789Y-99121789D01*
X157184289Y-99010289D01*
X157243848Y-98921153D01*
X163199500Y-98921153D01*
X163199500Y-99078846D01*
X163230261Y-99233489D01*
X163230264Y-99233501D01*
X163290602Y-99379172D01*
X163290609Y-99379185D01*
X163378210Y-99510288D01*
X163378213Y-99510292D01*
X163489707Y-99621786D01*
X163489711Y-99621789D01*
X163620814Y-99709390D01*
X163620827Y-99709397D01*
X163711101Y-99746789D01*
X163766503Y-99769737D01*
X163921153Y-99800499D01*
X163921156Y-99800500D01*
X163921158Y-99800500D01*
X164078844Y-99800500D01*
X164078845Y-99800499D01*
X164233497Y-99769737D01*
X164379179Y-99709394D01*
X164510289Y-99621789D01*
X164621789Y-99510289D01*
X164709394Y-99379179D01*
X164769737Y-99233497D01*
X164800500Y-99078842D01*
X164800500Y-98921158D01*
X164800500Y-98921155D01*
X164800499Y-98921153D01*
X164792557Y-98881226D01*
X164769737Y-98766503D01*
X164761170Y-98745821D01*
X164709397Y-98620827D01*
X164709390Y-98620814D01*
X164621789Y-98489711D01*
X164621786Y-98489707D01*
X164510292Y-98378213D01*
X164510288Y-98378210D01*
X164379185Y-98290609D01*
X164379172Y-98290602D01*
X164233501Y-98230264D01*
X164233489Y-98230261D01*
X164078845Y-98199500D01*
X164078842Y-98199500D01*
X163921158Y-98199500D01*
X163921155Y-98199500D01*
X163766510Y-98230261D01*
X163766498Y-98230264D01*
X163620827Y-98290602D01*
X163620814Y-98290609D01*
X163489711Y-98378210D01*
X163489707Y-98378213D01*
X163378213Y-98489707D01*
X163378210Y-98489711D01*
X163290609Y-98620814D01*
X163290602Y-98620827D01*
X163230264Y-98766498D01*
X163230261Y-98766510D01*
X163199500Y-98921153D01*
X157243848Y-98921153D01*
X157271894Y-98879179D01*
X157332237Y-98733497D01*
X157363000Y-98578842D01*
X157363000Y-98421158D01*
X157363000Y-98421155D01*
X157362999Y-98421153D01*
X157349893Y-98355264D01*
X157332237Y-98266503D01*
X157331827Y-98265514D01*
X157271897Y-98120827D01*
X157271890Y-98120814D01*
X157184289Y-97989711D01*
X157184286Y-97989707D01*
X157072792Y-97878213D01*
X157072788Y-97878210D01*
X156941685Y-97790609D01*
X156941672Y-97790602D01*
X156796001Y-97730264D01*
X156795989Y-97730261D01*
X156641345Y-97699500D01*
X156641342Y-97699500D01*
X156483658Y-97699500D01*
X156483655Y-97699500D01*
X156329011Y-97730260D01*
X156329006Y-97730262D01*
X156329004Y-97730262D01*
X156329003Y-97730263D01*
X156305344Y-97740062D01*
X156257896Y-97749500D01*
X150926080Y-97749500D01*
X150781092Y-97778340D01*
X150781082Y-97778343D01*
X150644511Y-97834912D01*
X150644498Y-97834919D01*
X150521584Y-97917048D01*
X150521580Y-97917051D01*
X149225451Y-99213181D01*
X149164128Y-99246666D01*
X149137770Y-99249500D01*
X148304604Y-99249500D01*
X148257155Y-99240062D01*
X148233497Y-99230263D01*
X148233493Y-99230262D01*
X148233488Y-99230260D01*
X148078845Y-99199500D01*
X148078842Y-99199500D01*
X147921158Y-99199500D01*
X147921155Y-99199500D01*
X147766510Y-99230261D01*
X147766498Y-99230264D01*
X147620827Y-99290602D01*
X147620814Y-99290609D01*
X147489711Y-99378210D01*
X147489707Y-99378213D01*
X147378213Y-99489707D01*
X147378210Y-99489711D01*
X147290609Y-99620814D01*
X147290602Y-99620827D01*
X147230264Y-99766498D01*
X147230261Y-99766510D01*
X147199500Y-99921153D01*
X139725214Y-99921153D01*
X141225214Y-98421153D01*
X143949500Y-98421153D01*
X143949500Y-98578846D01*
X143980261Y-98733489D01*
X143980264Y-98733501D01*
X144040602Y-98879172D01*
X144040609Y-98879185D01*
X144128210Y-99010288D01*
X144128213Y-99010292D01*
X144239707Y-99121786D01*
X144239711Y-99121789D01*
X144370814Y-99209390D01*
X144370827Y-99209397D01*
X144460804Y-99246666D01*
X144516503Y-99269737D01*
X144671153Y-99300499D01*
X144671156Y-99300500D01*
X144671158Y-99300500D01*
X144828844Y-99300500D01*
X144828845Y-99300499D01*
X144983497Y-99269737D01*
X145129179Y-99209394D01*
X145260289Y-99121789D01*
X145371789Y-99010289D01*
X145459394Y-98879179D01*
X145519737Y-98733497D01*
X145550500Y-98578842D01*
X145550500Y-98421158D01*
X145550500Y-98421155D01*
X145550499Y-98421153D01*
X145537393Y-98355264D01*
X145519737Y-98266503D01*
X145519327Y-98265514D01*
X145459397Y-98120827D01*
X145459390Y-98120814D01*
X145371789Y-97989711D01*
X145371786Y-97989707D01*
X145260292Y-97878213D01*
X145260288Y-97878210D01*
X145129185Y-97790609D01*
X145129172Y-97790602D01*
X144983501Y-97730264D01*
X144983489Y-97730261D01*
X144828845Y-97699500D01*
X144828842Y-97699500D01*
X144671158Y-97699500D01*
X144671155Y-97699500D01*
X144516510Y-97730261D01*
X144516498Y-97730264D01*
X144370827Y-97790602D01*
X144370814Y-97790609D01*
X144239711Y-97878210D01*
X144239707Y-97878213D01*
X144128213Y-97989707D01*
X144128210Y-97989711D01*
X144040609Y-98120814D01*
X144040602Y-98120827D01*
X143980264Y-98266498D01*
X143980261Y-98266510D01*
X143949500Y-98421153D01*
X141225214Y-98421153D01*
X143859548Y-95786819D01*
X143920871Y-95753334D01*
X143947229Y-95750500D01*
X164637770Y-95750500D01*
X164704809Y-95770185D01*
X164725451Y-95786819D01*
X166085301Y-97146668D01*
X167441585Y-98502952D01*
X167465429Y-98518883D01*
X167478342Y-98527512D01*
X167478345Y-98527513D01*
X167482373Y-98530205D01*
X167564505Y-98585084D01*
X167621080Y-98608518D01*
X167701088Y-98641659D01*
X167817241Y-98664763D01*
X167836468Y-98668587D01*
X167846081Y-98670500D01*
X167846082Y-98670500D01*
X167846083Y-98670500D01*
X167993918Y-98670500D01*
X178658270Y-98670500D01*
X178725309Y-98690185D01*
X178758588Y-98721615D01*
X178874548Y-98881220D01*
X178874551Y-98881224D01*
X179038776Y-99045449D01*
X179226669Y-99181961D01*
X179321461Y-99230260D01*
X179433599Y-99287398D01*
X179433601Y-99287398D01*
X179433604Y-99287400D01*
X179654486Y-99359169D01*
X179772668Y-99377886D01*
X179883871Y-99395500D01*
X179883876Y-99395500D01*
X180116129Y-99395500D01*
X180225272Y-99378213D01*
X180345514Y-99359169D01*
X180566396Y-99287400D01*
X180773331Y-99181961D01*
X180961224Y-99045449D01*
X181125449Y-98881224D01*
X181261961Y-98693331D01*
X181367400Y-98486396D01*
X181439169Y-98265514D01*
X181462087Y-98120814D01*
X181475500Y-98036129D01*
X181475500Y-97803870D01*
X181456232Y-97682222D01*
X181439169Y-97574486D01*
X181367400Y-97353604D01*
X181367398Y-97353601D01*
X181367398Y-97353599D01*
X181269289Y-97161051D01*
X181261961Y-97146669D01*
X181125449Y-96958776D01*
X180961224Y-96794551D01*
X180773331Y-96658039D01*
X180733575Y-96637782D01*
X180566400Y-96552601D01*
X180345514Y-96480831D01*
X180116129Y-96444500D01*
X180116124Y-96444500D01*
X179883876Y-96444500D01*
X179883871Y-96444500D01*
X179654485Y-96480831D01*
X179433599Y-96552601D01*
X179226668Y-96658039D01*
X179038773Y-96794553D01*
X178874553Y-96958773D01*
X178874548Y-96958779D01*
X178758588Y-97118385D01*
X178703258Y-97161051D01*
X178658270Y-97169500D01*
X168282229Y-97169500D01*
X168215190Y-97149815D01*
X168194548Y-97133181D01*
X165478421Y-94417052D01*
X165478414Y-94417046D01*
X165404729Y-94367812D01*
X165404729Y-94367813D01*
X165355491Y-94334913D01*
X165218917Y-94278343D01*
X165218907Y-94278340D01*
X165073920Y-94249500D01*
X165073918Y-94249500D01*
X143658917Y-94249500D01*
X143511082Y-94249500D01*
X143511080Y-94249500D01*
X143366092Y-94278340D01*
X143366082Y-94278343D01*
X143229511Y-94334912D01*
X143229498Y-94334919D01*
X143106584Y-94417048D01*
X143106580Y-94417051D01*
X134819732Y-102703898D01*
X134758409Y-102737383D01*
X134712653Y-102738690D01*
X134607274Y-102722000D01*
X134607270Y-102722000D01*
X134392730Y-102722000D01*
X134392725Y-102722000D01*
X134180829Y-102755560D01*
X133976784Y-102821859D01*
X133785631Y-102919258D01*
X133686605Y-102991205D01*
X133612065Y-103045362D01*
X133612063Y-103045364D01*
X133612062Y-103045364D01*
X133460364Y-103197062D01*
X133460364Y-103197063D01*
X133460362Y-103197065D01*
X133433893Y-103233497D01*
X133334258Y-103370631D01*
X133236859Y-103561784D01*
X133170560Y-103765829D01*
X133137000Y-103977724D01*
X130000000Y-103977724D01*
X130000000Y-99046153D01*
X135074500Y-99046153D01*
X135074500Y-99203846D01*
X135105261Y-99358489D01*
X135105264Y-99358501D01*
X135165602Y-99504172D01*
X135165609Y-99504185D01*
X135253210Y-99635288D01*
X135253213Y-99635292D01*
X135364707Y-99746786D01*
X135364711Y-99746789D01*
X135495814Y-99834390D01*
X135495827Y-99834397D01*
X135601603Y-99878210D01*
X135641503Y-99894737D01*
X135796153Y-99925499D01*
X135796156Y-99925500D01*
X135796158Y-99925500D01*
X135953844Y-99925500D01*
X135953845Y-99925499D01*
X136108497Y-99894737D01*
X136254179Y-99834394D01*
X136385289Y-99746789D01*
X136496789Y-99635289D01*
X136584394Y-99504179D01*
X136590389Y-99489707D01*
X136636571Y-99378211D01*
X136644737Y-99358497D01*
X136675500Y-99203842D01*
X136675500Y-99046158D01*
X136675500Y-99046155D01*
X136675499Y-99046153D01*
X136666219Y-98999500D01*
X136644737Y-98891503D01*
X136592959Y-98766498D01*
X136584397Y-98745827D01*
X136584390Y-98745814D01*
X136496789Y-98614711D01*
X136496786Y-98614707D01*
X136385292Y-98503213D01*
X136385288Y-98503210D01*
X136254185Y-98415609D01*
X136254172Y-98415602D01*
X136108501Y-98355264D01*
X136108489Y-98355261D01*
X135953845Y-98324500D01*
X135953842Y-98324500D01*
X135796158Y-98324500D01*
X135796155Y-98324500D01*
X135641510Y-98355261D01*
X135641498Y-98355264D01*
X135495827Y-98415602D01*
X135495814Y-98415609D01*
X135364711Y-98503210D01*
X135364707Y-98503213D01*
X135253213Y-98614707D01*
X135253210Y-98614711D01*
X135165609Y-98745814D01*
X135165602Y-98745827D01*
X135105264Y-98891498D01*
X135105261Y-98891510D01*
X135074500Y-99046153D01*
X130000000Y-99046153D01*
X130000000Y-95124500D01*
X130019685Y-95057461D01*
X130072489Y-95011706D01*
X130124000Y-95000500D01*
X135098542Y-95000500D01*
X135129566Y-94994328D01*
X135195188Y-94981275D01*
X135291836Y-94962051D01*
X135345165Y-94939961D01*
X135473914Y-94886632D01*
X135637782Y-94777139D01*
X135777139Y-94637782D01*
X135777140Y-94637779D01*
X135784206Y-94630714D01*
X135784208Y-94630710D01*
X137878101Y-92536819D01*
X137939424Y-92503334D01*
X137965782Y-92500500D01*
X147698927Y-92500500D01*
X147699332Y-92500559D01*
X147699535Y-92500501D01*
X147701128Y-92500822D01*
X147734445Y-92505696D01*
X147740523Y-92507513D01*
X147776082Y-92522242D01*
X147829412Y-92544332D01*
X147926060Y-92563556D01*
X148007670Y-92579790D01*
X148022706Y-92582781D01*
X148022707Y-92582781D01*
X149214732Y-92582781D01*
X149245756Y-92576609D01*
X149311378Y-92563556D01*
X149408026Y-92544332D01*
X149461355Y-92522242D01*
X149491063Y-92509936D01*
X149538510Y-92500500D01*
X152534218Y-92500500D01*
X152601257Y-92520185D01*
X152621899Y-92536819D01*
X152719735Y-92634655D01*
X152719764Y-92634686D01*
X152862214Y-92777136D01*
X152862218Y-92777139D01*
X153026079Y-92886628D01*
X153026092Y-92886635D01*
X153154833Y-92939961D01*
X153197744Y-92957735D01*
X153208164Y-92962051D01*
X153304812Y-92981275D01*
X153353135Y-92990887D01*
X153401458Y-93000500D01*
X153401459Y-93000500D01*
X162598543Y-93000500D01*
X162728582Y-92974632D01*
X162791835Y-92962051D01*
X162973914Y-92886632D01*
X163137782Y-92777139D01*
X163277139Y-92637782D01*
X163386632Y-92473914D01*
X163462051Y-92291835D01*
X163500500Y-92098541D01*
X163500500Y-91901459D01*
X163500500Y-91901456D01*
X163462052Y-91708170D01*
X163462051Y-91708169D01*
X163462051Y-91708165D01*
X163462049Y-91708160D01*
X163386635Y-91526092D01*
X163386628Y-91526079D01*
X163277139Y-91362218D01*
X163277136Y-91362214D01*
X163137785Y-91222863D01*
X163137781Y-91222860D01*
X162973920Y-91113371D01*
X162973907Y-91113364D01*
X162791839Y-91037950D01*
X162791829Y-91037947D01*
X162598543Y-90999500D01*
X162598541Y-90999500D01*
X153965782Y-90999500D01*
X153936341Y-90990855D01*
X153906355Y-90984332D01*
X153901339Y-90980577D01*
X153898743Y-90979815D01*
X153878101Y-90963181D01*
X153781479Y-90866559D01*
X153781459Y-90866537D01*
X153637784Y-90722862D01*
X153630393Y-90717924D01*
X153630392Y-90717923D01*
X153482153Y-90618872D01*
X164999500Y-90618872D01*
X164999500Y-90881127D01*
X165021383Y-91047335D01*
X165033730Y-91141116D01*
X165092973Y-91362214D01*
X165101602Y-91394418D01*
X165101605Y-91394428D01*
X165201953Y-91636690D01*
X165201958Y-91636700D01*
X165333075Y-91863803D01*
X165492718Y-92071851D01*
X165492726Y-92071860D01*
X165678140Y-92257274D01*
X165678148Y-92257281D01*
X165886196Y-92416924D01*
X166113299Y-92548041D01*
X166113309Y-92548046D01*
X166329959Y-92637785D01*
X166355581Y-92648398D01*
X166608884Y-92716270D01*
X166868880Y-92750500D01*
X166868887Y-92750500D01*
X167131113Y-92750500D01*
X167131120Y-92750500D01*
X167391116Y-92716270D01*
X167644419Y-92648398D01*
X167846493Y-92564696D01*
X167886690Y-92548046D01*
X167886691Y-92548045D01*
X167886697Y-92548043D01*
X168113803Y-92416924D01*
X168321851Y-92257282D01*
X168321855Y-92257277D01*
X168321860Y-92257274D01*
X168507274Y-92071860D01*
X168507277Y-92071855D01*
X168507282Y-92071851D01*
X168666924Y-91863803D01*
X168798043Y-91636697D01*
X168898398Y-91394419D01*
X168966270Y-91141116D01*
X169000500Y-90881120D01*
X169000500Y-90618880D01*
X168966270Y-90358884D01*
X168898398Y-90105581D01*
X168898394Y-90105571D01*
X168798046Y-89863309D01*
X168798041Y-89863299D01*
X168666924Y-89636196D01*
X168507281Y-89428148D01*
X168507274Y-89428140D01*
X168321860Y-89242726D01*
X168321851Y-89242718D01*
X168113803Y-89083075D01*
X167886700Y-88951958D01*
X167886690Y-88951954D01*
X167805604Y-88918367D01*
X167644428Y-88851605D01*
X167644421Y-88851603D01*
X167644419Y-88851602D01*
X167478465Y-88807135D01*
X178524500Y-88807135D01*
X178524500Y-90852870D01*
X178524501Y-90852876D01*
X178530908Y-90912483D01*
X178581202Y-91047328D01*
X178581206Y-91047335D01*
X178667452Y-91162544D01*
X178667455Y-91162547D01*
X178782664Y-91248793D01*
X178782671Y-91248797D01*
X178917517Y-91299091D01*
X178917516Y-91299091D01*
X178924444Y-91299835D01*
X178977127Y-91305500D01*
X181022872Y-91305499D01*
X181082483Y-91299091D01*
X181217331Y-91248796D01*
X181332546Y-91162546D01*
X181418796Y-91047331D01*
X181469091Y-90912483D01*
X181475500Y-90852873D01*
X181475499Y-88807128D01*
X181469091Y-88747517D01*
X181421836Y-88620821D01*
X181418797Y-88612671D01*
X181418793Y-88612664D01*
X181332547Y-88497455D01*
X181332544Y-88497452D01*
X181217335Y-88411206D01*
X181217328Y-88411202D01*
X181082482Y-88360908D01*
X181082483Y-88360908D01*
X181022883Y-88354501D01*
X181022881Y-88354500D01*
X181022873Y-88354500D01*
X181022864Y-88354500D01*
X178977129Y-88354500D01*
X178977123Y-88354501D01*
X178917516Y-88360908D01*
X178782671Y-88411202D01*
X178782664Y-88411206D01*
X178667455Y-88497452D01*
X178667452Y-88497455D01*
X178581206Y-88612664D01*
X178581202Y-88612671D01*
X178530908Y-88747517D01*
X178524501Y-88807116D01*
X178524501Y-88807123D01*
X178524500Y-88807135D01*
X167478465Y-88807135D01*
X167391116Y-88783730D01*
X167333339Y-88776123D01*
X167131127Y-88749500D01*
X167131120Y-88749500D01*
X166868880Y-88749500D01*
X166868872Y-88749500D01*
X166637772Y-88779926D01*
X166608884Y-88783730D01*
X166355581Y-88851602D01*
X166355571Y-88851605D01*
X166113309Y-88951953D01*
X166113299Y-88951958D01*
X165886196Y-89083075D01*
X165678148Y-89242718D01*
X165492718Y-89428148D01*
X165333075Y-89636196D01*
X165201958Y-89863299D01*
X165201953Y-89863309D01*
X165101605Y-90105571D01*
X165101602Y-90105581D01*
X165033730Y-90358885D01*
X164999500Y-90618872D01*
X153482153Y-90618872D01*
X153473920Y-90613371D01*
X153473911Y-90613366D01*
X153385226Y-90576632D01*
X153345165Y-90560038D01*
X153291836Y-90537949D01*
X153291832Y-90537948D01*
X153291828Y-90537946D01*
X153195188Y-90518724D01*
X153098544Y-90499500D01*
X153098541Y-90499500D01*
X149099930Y-90499500D01*
X149099926Y-90499500D01*
X149009017Y-90517583D01*
X149009012Y-90517584D01*
X149003283Y-90518724D01*
X148906635Y-90537949D01*
X148853305Y-90560038D01*
X148817741Y-90574769D01*
X148811669Y-90576585D01*
X148802033Y-90576632D01*
X148776150Y-90581781D01*
X148461289Y-90581781D01*
X148413836Y-90572342D01*
X148384134Y-90560039D01*
X148384132Y-90560038D01*
X148330803Y-90537949D01*
X148330799Y-90537948D01*
X148330795Y-90537946D01*
X148234155Y-90518724D01*
X148137511Y-90499500D01*
X148137508Y-90499500D01*
X137401459Y-90499500D01*
X137401455Y-90499500D01*
X137304812Y-90518724D01*
X137208167Y-90537947D01*
X137208161Y-90537949D01*
X137154834Y-90560037D01*
X137154834Y-90560038D01*
X137125130Y-90572342D01*
X137026089Y-90613366D01*
X137026079Y-90613371D01*
X136862219Y-90722859D01*
X136792540Y-90792538D01*
X136722861Y-90862218D01*
X136722858Y-90862221D01*
X134621899Y-92963181D01*
X134560576Y-92996666D01*
X134534218Y-92999500D01*
X130124000Y-92999500D01*
X130056961Y-92979815D01*
X130011206Y-92927011D01*
X130000000Y-92875500D01*
X130000000Y-88921153D01*
X149699500Y-88921153D01*
X149699500Y-89078846D01*
X149730261Y-89233489D01*
X149730264Y-89233501D01*
X149790602Y-89379172D01*
X149790609Y-89379185D01*
X149878210Y-89510288D01*
X149878213Y-89510292D01*
X149989707Y-89621786D01*
X149989711Y-89621789D01*
X150120814Y-89709390D01*
X150120827Y-89709397D01*
X150266498Y-89769735D01*
X150266503Y-89769737D01*
X150421153Y-89800499D01*
X150421156Y-89800500D01*
X150421158Y-89800500D01*
X150578844Y-89800500D01*
X150578845Y-89800499D01*
X150733497Y-89769737D01*
X150879179Y-89709394D01*
X151010289Y-89621789D01*
X151121789Y-89510289D01*
X151209394Y-89379179D01*
X151269737Y-89233497D01*
X151300500Y-89078842D01*
X151300500Y-88921158D01*
X151300500Y-88921155D01*
X151300499Y-88921153D01*
X151699500Y-88921153D01*
X151699500Y-89078846D01*
X151730261Y-89233489D01*
X151730264Y-89233501D01*
X151790602Y-89379172D01*
X151790609Y-89379185D01*
X151878210Y-89510288D01*
X151878213Y-89510292D01*
X151989707Y-89621786D01*
X151989711Y-89621789D01*
X152120814Y-89709390D01*
X152120827Y-89709397D01*
X152266498Y-89769735D01*
X152266503Y-89769737D01*
X152421153Y-89800499D01*
X152421156Y-89800500D01*
X152421158Y-89800500D01*
X152578844Y-89800500D01*
X152578845Y-89800499D01*
X152733497Y-89769737D01*
X152879179Y-89709394D01*
X153010289Y-89621789D01*
X153121789Y-89510289D01*
X153209394Y-89379179D01*
X153269737Y-89233497D01*
X153300500Y-89078842D01*
X153300500Y-88921158D01*
X153300500Y-88921155D01*
X153300499Y-88921153D01*
X153277818Y-88807128D01*
X153269737Y-88766503D01*
X153261873Y-88747517D01*
X153209397Y-88620827D01*
X153209390Y-88620814D01*
X153121789Y-88489711D01*
X153121786Y-88489707D01*
X153010292Y-88378213D01*
X153010288Y-88378210D01*
X152879185Y-88290609D01*
X152879172Y-88290602D01*
X152733501Y-88230264D01*
X152733489Y-88230261D01*
X152578845Y-88199500D01*
X152578842Y-88199500D01*
X152421158Y-88199500D01*
X152421155Y-88199500D01*
X152266510Y-88230261D01*
X152266498Y-88230264D01*
X152120827Y-88290602D01*
X152120814Y-88290609D01*
X151989711Y-88378210D01*
X151989707Y-88378213D01*
X151878213Y-88489707D01*
X151878210Y-88489711D01*
X151790609Y-88620814D01*
X151790602Y-88620827D01*
X151730264Y-88766498D01*
X151730261Y-88766510D01*
X151699500Y-88921153D01*
X151300499Y-88921153D01*
X151277818Y-88807128D01*
X151269737Y-88766503D01*
X151261873Y-88747517D01*
X151209397Y-88620827D01*
X151209390Y-88620814D01*
X151121789Y-88489711D01*
X151121786Y-88489707D01*
X151010292Y-88378213D01*
X151010288Y-88378210D01*
X150879185Y-88290609D01*
X150879172Y-88290602D01*
X150733501Y-88230264D01*
X150733489Y-88230261D01*
X150578845Y-88199500D01*
X150578842Y-88199500D01*
X150421158Y-88199500D01*
X150421155Y-88199500D01*
X150266510Y-88230261D01*
X150266498Y-88230264D01*
X150120827Y-88290602D01*
X150120814Y-88290609D01*
X149989711Y-88378210D01*
X149989707Y-88378213D01*
X149878213Y-88489707D01*
X149878210Y-88489711D01*
X149790609Y-88620814D01*
X149790602Y-88620827D01*
X149730264Y-88766498D01*
X149730261Y-88766510D01*
X149699500Y-88921153D01*
X130000000Y-88921153D01*
X130000000Y-82868872D01*
X131999500Y-82868872D01*
X131999500Y-83131127D01*
X132026123Y-83333339D01*
X132033730Y-83391116D01*
X132101602Y-83644418D01*
X132101605Y-83644428D01*
X132201953Y-83886690D01*
X132201958Y-83886700D01*
X132333075Y-84113803D01*
X132492718Y-84321851D01*
X132492726Y-84321860D01*
X132678140Y-84507274D01*
X132678148Y-84507281D01*
X132886196Y-84666924D01*
X133113299Y-84798041D01*
X133113309Y-84798046D01*
X133355571Y-84898394D01*
X133355581Y-84898398D01*
X133608884Y-84966270D01*
X133868880Y-85000500D01*
X133868887Y-85000500D01*
X134131113Y-85000500D01*
X134131120Y-85000500D01*
X134391116Y-84966270D01*
X134644419Y-84898398D01*
X134886697Y-84798043D01*
X135113803Y-84666924D01*
X135321851Y-84507282D01*
X135321855Y-84507277D01*
X135321860Y-84507274D01*
X135507274Y-84321860D01*
X135507277Y-84321855D01*
X135507282Y-84321851D01*
X135666924Y-84113803D01*
X135798043Y-83886697D01*
X135898398Y-83644419D01*
X135966270Y-83391116D01*
X136000500Y-83131120D01*
X136000500Y-82868880D01*
X135966270Y-82608884D01*
X135898398Y-82355581D01*
X135858927Y-82260289D01*
X135798046Y-82113309D01*
X135798041Y-82113299D01*
X135666927Y-81886201D01*
X135666923Y-81886196D01*
X135507282Y-81678149D01*
X135507281Y-81678148D01*
X135507274Y-81678140D01*
X135500287Y-81671153D01*
X153699500Y-81671153D01*
X153699500Y-81828846D01*
X153730261Y-81983489D01*
X153730264Y-81983501D01*
X153790602Y-82129172D01*
X153790609Y-82129185D01*
X153878210Y-82260288D01*
X153878213Y-82260292D01*
X153989707Y-82371786D01*
X153989711Y-82371789D01*
X154120814Y-82459390D01*
X154120827Y-82459397D01*
X154266498Y-82519735D01*
X154266503Y-82519737D01*
X154421153Y-82550499D01*
X154421156Y-82550500D01*
X154421158Y-82550500D01*
X154578844Y-82550500D01*
X154578845Y-82550499D01*
X154733497Y-82519737D01*
X154879179Y-82459394D01*
X155010289Y-82371789D01*
X155121789Y-82260289D01*
X155209394Y-82129179D01*
X155269737Y-81983497D01*
X155300500Y-81828842D01*
X155300500Y-81671158D01*
X155300500Y-81671155D01*
X155300499Y-81671153D01*
X155269738Y-81516510D01*
X155269737Y-81516503D01*
X155259885Y-81492718D01*
X155209397Y-81370827D01*
X155209390Y-81370814D01*
X155121789Y-81239711D01*
X155121786Y-81239707D01*
X155010292Y-81128213D01*
X155010288Y-81128210D01*
X154879185Y-81040609D01*
X154879172Y-81040602D01*
X154733502Y-80980265D01*
X154733501Y-80980264D01*
X154733497Y-80980263D01*
X154733492Y-80980262D01*
X154733489Y-80980261D01*
X154578845Y-80949500D01*
X154578842Y-80949500D01*
X154421158Y-80949500D01*
X154421155Y-80949500D01*
X154266510Y-80980261D01*
X154266498Y-80980264D01*
X154120827Y-81040602D01*
X154120814Y-81040609D01*
X153989711Y-81128210D01*
X153989707Y-81128213D01*
X153878213Y-81239707D01*
X153878210Y-81239711D01*
X153790609Y-81370814D01*
X153790602Y-81370827D01*
X153730264Y-81516498D01*
X153730261Y-81516510D01*
X153699500Y-81671153D01*
X135500287Y-81671153D01*
X135321860Y-81492726D01*
X135321851Y-81492718D01*
X135113803Y-81333075D01*
X134886700Y-81201958D01*
X134886690Y-81201953D01*
X134644428Y-81101605D01*
X134644421Y-81101603D01*
X134644419Y-81101602D01*
X134391116Y-81033730D01*
X134333339Y-81026123D01*
X134131127Y-80999500D01*
X134131120Y-80999500D01*
X133868880Y-80999500D01*
X133868872Y-80999500D01*
X133637772Y-81029926D01*
X133608884Y-81033730D01*
X133355581Y-81101602D01*
X133355571Y-81101605D01*
X133113309Y-81201953D01*
X133113299Y-81201958D01*
X132886196Y-81333075D01*
X132678148Y-81492718D01*
X132492718Y-81678148D01*
X132333075Y-81886196D01*
X132201958Y-82113299D01*
X132201953Y-82113309D01*
X132101605Y-82355571D01*
X132101602Y-82355581D01*
X132057617Y-82519738D01*
X132033730Y-82608885D01*
X131999500Y-82868872D01*
X130000000Y-82868872D01*
X130000000Y-82551362D01*
X130019685Y-82484323D01*
X130036319Y-82463681D01*
X131631128Y-80868872D01*
X158999500Y-80868872D01*
X158999500Y-81131127D01*
X159026089Y-81333075D01*
X159033730Y-81391116D01*
X159067329Y-81516510D01*
X159101602Y-81644418D01*
X159101605Y-81644428D01*
X159201953Y-81886690D01*
X159201958Y-81886700D01*
X159333075Y-82113803D01*
X159492718Y-82321851D01*
X159492726Y-82321860D01*
X159678140Y-82507274D01*
X159678148Y-82507281D01*
X159886196Y-82666924D01*
X160113299Y-82798041D01*
X160113309Y-82798046D01*
X160355571Y-82898394D01*
X160355581Y-82898398D01*
X160608884Y-82966270D01*
X160868880Y-83000500D01*
X160868887Y-83000500D01*
X161131113Y-83000500D01*
X161131120Y-83000500D01*
X161391116Y-82966270D01*
X161644419Y-82898398D01*
X161886697Y-82798043D01*
X162113803Y-82666924D01*
X162321851Y-82507282D01*
X162321855Y-82507277D01*
X162321860Y-82507274D01*
X162507274Y-82321860D01*
X162507277Y-82321855D01*
X162507282Y-82321851D01*
X162666924Y-82113803D01*
X162798043Y-81886697D01*
X162798249Y-81886201D01*
X162858579Y-81740550D01*
X162898398Y-81644419D01*
X162966270Y-81391116D01*
X163000500Y-81131120D01*
X163000500Y-80868880D01*
X162966270Y-80608884D01*
X162898398Y-80355581D01*
X162849030Y-80236396D01*
X162798046Y-80113309D01*
X162798041Y-80113299D01*
X162666924Y-79886196D01*
X162507281Y-79678148D01*
X162507274Y-79678140D01*
X162383004Y-79553870D01*
X178524500Y-79553870D01*
X178524500Y-79786129D01*
X178560831Y-80015514D01*
X178632601Y-80236400D01*
X178693328Y-80355581D01*
X178738039Y-80443331D01*
X178874551Y-80631224D01*
X179038776Y-80795449D01*
X179226669Y-80931961D01*
X179321463Y-80980261D01*
X179433599Y-81037398D01*
X179433601Y-81037398D01*
X179433604Y-81037400D01*
X179654486Y-81109169D01*
X179772668Y-81127886D01*
X179883871Y-81145500D01*
X179883876Y-81145500D01*
X180116129Y-81145500D01*
X180225272Y-81128213D01*
X180345514Y-81109169D01*
X180566396Y-81037400D01*
X180773331Y-80931961D01*
X180961224Y-80795449D01*
X181125449Y-80631224D01*
X181261961Y-80443331D01*
X181367400Y-80236396D01*
X181439169Y-80015514D01*
X181459651Y-79886196D01*
X181475500Y-79786129D01*
X181475500Y-79553870D01*
X181440529Y-79333075D01*
X181439169Y-79324486D01*
X181367400Y-79103604D01*
X181367398Y-79103601D01*
X181367398Y-79103599D01*
X181261960Y-78896668D01*
X181125449Y-78708776D01*
X180961224Y-78544551D01*
X180773331Y-78408039D01*
X180566400Y-78302601D01*
X180345514Y-78230831D01*
X180116129Y-78194500D01*
X180116124Y-78194500D01*
X179883876Y-78194500D01*
X179883871Y-78194500D01*
X179654485Y-78230831D01*
X179433599Y-78302601D01*
X179226668Y-78408039D01*
X179038773Y-78544553D01*
X178874553Y-78708773D01*
X178738039Y-78896668D01*
X178632601Y-79103599D01*
X178560831Y-79324485D01*
X178524500Y-79553870D01*
X162383004Y-79553870D01*
X162321860Y-79492726D01*
X162321851Y-79492718D01*
X162113803Y-79333075D01*
X161886700Y-79201958D01*
X161886690Y-79201953D01*
X161644428Y-79101605D01*
X161644421Y-79101603D01*
X161644419Y-79101602D01*
X161391116Y-79033730D01*
X161333339Y-79026123D01*
X161131127Y-78999500D01*
X161131120Y-78999500D01*
X160868880Y-78999500D01*
X160868872Y-78999500D01*
X160637772Y-79029926D01*
X160608884Y-79033730D01*
X160355581Y-79101602D01*
X160355571Y-79101605D01*
X160113309Y-79201953D01*
X160113299Y-79201958D01*
X159886196Y-79333075D01*
X159678148Y-79492718D01*
X159492718Y-79678148D01*
X159333075Y-79886196D01*
X159201958Y-80113299D01*
X159201953Y-80113309D01*
X159101605Y-80355571D01*
X159101602Y-80355581D01*
X159033730Y-80608885D01*
X158999500Y-80868872D01*
X131631128Y-80868872D01*
X139463681Y-73036319D01*
X139525004Y-73002834D01*
X139551362Y-73000000D01*
X186875500Y-73000000D01*
X186942539Y-73019685D01*
G37*
%TD.AperFunction*%
%TD*%
M02*
