%TF.GenerationSoftware,KiCad,Pcbnew,9.0.0*%
%TF.CreationDate,2025-04-28T14:21:01-07:00*%
%TF.ProjectId,GateDriver,47617465-4472-4697-9665-722e6b696361,rev?*%
%TF.SameCoordinates,Original*%
%TF.FileFunction,Legend,Bot*%
%TF.FilePolarity,Positive*%
%FSLAX46Y46*%
G04 Gerber Fmt 4.6, Leading zero omitted, Abs format (unit mm)*
G04 Created by KiCad (PCBNEW 9.0.0) date 2025-04-28 14:21:01*
%MOMM*%
%LPD*%
G01*
G04 APERTURE LIST*
%ADD10C,0.500000*%
%ADD11C,0.300000*%
%ADD12C,0.150000*%
%ADD13C,0.254000*%
%ADD14C,0.100000*%
%ADD15C,0.120000*%
%ADD16C,0.200000*%
%ADD17C,0.000000*%
%ADD18C,1.725000*%
%ADD19R,1.500000X1.500000*%
%ADD20C,1.500000*%
G04 APERTURE END LIST*
D10*
X165982142Y-132016976D02*
X165982142Y-128016976D01*
X165982142Y-128016976D02*
X164934523Y-128016976D01*
X164934523Y-128016976D02*
X164672618Y-128207452D01*
X164672618Y-128207452D02*
X164541665Y-128397928D01*
X164541665Y-128397928D02*
X164410713Y-128778880D01*
X164410713Y-128778880D02*
X164410713Y-129350309D01*
X164410713Y-129350309D02*
X164541665Y-129731261D01*
X164541665Y-129731261D02*
X164672618Y-129921738D01*
X164672618Y-129921738D02*
X164934523Y-130112214D01*
X164934523Y-130112214D02*
X165982142Y-130112214D01*
X161267856Y-127826500D02*
X163624999Y-132969357D01*
X160351190Y-132016976D02*
X160351190Y-128016976D01*
X160351190Y-128016976D02*
X158779761Y-132016976D01*
X158779761Y-132016976D02*
X158779761Y-128016976D01*
X157470238Y-131636023D02*
X157339285Y-131826500D01*
X157339285Y-131826500D02*
X157470238Y-132016976D01*
X157470238Y-132016976D02*
X157601190Y-131826500D01*
X157601190Y-131826500D02*
X157470238Y-131636023D01*
X157470238Y-131636023D02*
X157470238Y-132016976D01*
X157470238Y-129540785D02*
X157339285Y-129731261D01*
X157339285Y-129731261D02*
X157470238Y-129921738D01*
X157470238Y-129921738D02*
X157601190Y-129731261D01*
X157601190Y-129731261D02*
X157470238Y-129540785D01*
X157470238Y-129540785D02*
X157470238Y-129921738D01*
X152755952Y-132016976D02*
X154065476Y-132016976D01*
X154065476Y-132016976D02*
X154065476Y-128016976D01*
X150660714Y-129350309D02*
X150660714Y-132016976D01*
X151315476Y-127826500D02*
X151970238Y-130683642D01*
X151970238Y-130683642D02*
X150267857Y-130683642D01*
X149482142Y-128016976D02*
X148827380Y-132016976D01*
X148827380Y-132016976D02*
X148303571Y-129159833D01*
X148303571Y-129159833D02*
X147779761Y-132016976D01*
X147779761Y-132016976D02*
X147125000Y-128016976D01*
X146208333Y-131826500D02*
X145815476Y-132016976D01*
X145815476Y-132016976D02*
X145160714Y-132016976D01*
X145160714Y-132016976D02*
X144898809Y-131826500D01*
X144898809Y-131826500D02*
X144767857Y-131636023D01*
X144767857Y-131636023D02*
X144636904Y-131255071D01*
X144636904Y-131255071D02*
X144636904Y-130874119D01*
X144636904Y-130874119D02*
X144767857Y-130493166D01*
X144767857Y-130493166D02*
X144898809Y-130302690D01*
X144898809Y-130302690D02*
X145160714Y-130112214D01*
X145160714Y-130112214D02*
X145684523Y-129921738D01*
X145684523Y-129921738D02*
X145946428Y-129731261D01*
X145946428Y-129731261D02*
X146077381Y-129540785D01*
X146077381Y-129540785D02*
X146208333Y-129159833D01*
X146208333Y-129159833D02*
X146208333Y-128778880D01*
X146208333Y-128778880D02*
X146077381Y-128397928D01*
X146077381Y-128397928D02*
X145946428Y-128207452D01*
X145946428Y-128207452D02*
X145684523Y-128016976D01*
X145684523Y-128016976D02*
X145029762Y-128016976D01*
X145029762Y-128016976D02*
X144636904Y-128207452D01*
X142541666Y-129921738D02*
X142148809Y-130112214D01*
X142148809Y-130112214D02*
X142017856Y-130302690D01*
X142017856Y-130302690D02*
X141886904Y-130683642D01*
X141886904Y-130683642D02*
X141886904Y-131255071D01*
X141886904Y-131255071D02*
X142017856Y-131636023D01*
X142017856Y-131636023D02*
X142148809Y-131826500D01*
X142148809Y-131826500D02*
X142410714Y-132016976D01*
X142410714Y-132016976D02*
X143458333Y-132016976D01*
X143458333Y-132016976D02*
X143458333Y-128016976D01*
X143458333Y-128016976D02*
X142541666Y-128016976D01*
X142541666Y-128016976D02*
X142279761Y-128207452D01*
X142279761Y-128207452D02*
X142148809Y-128397928D01*
X142148809Y-128397928D02*
X142017856Y-128778880D01*
X142017856Y-128778880D02*
X142017856Y-129159833D01*
X142017856Y-129159833D02*
X142148809Y-129540785D01*
X142148809Y-129540785D02*
X142279761Y-129731261D01*
X142279761Y-129731261D02*
X142541666Y-129921738D01*
X142541666Y-129921738D02*
X143458333Y-129921738D01*
D11*
X140000000Y-127000000D02*
X168000000Y-127000000D01*
X168000000Y-134000000D01*
X140000000Y-134000000D01*
X140000000Y-127000000D01*
D12*
X148642857Y-95059580D02*
X148690476Y-95107200D01*
X148690476Y-95107200D02*
X148833333Y-95154819D01*
X148833333Y-95154819D02*
X148928571Y-95154819D01*
X148928571Y-95154819D02*
X149071428Y-95107200D01*
X149071428Y-95107200D02*
X149166666Y-95011961D01*
X149166666Y-95011961D02*
X149214285Y-94916723D01*
X149214285Y-94916723D02*
X149261904Y-94726247D01*
X149261904Y-94726247D02*
X149261904Y-94583390D01*
X149261904Y-94583390D02*
X149214285Y-94392914D01*
X149214285Y-94392914D02*
X149166666Y-94297676D01*
X149166666Y-94297676D02*
X149071428Y-94202438D01*
X149071428Y-94202438D02*
X148928571Y-94154819D01*
X148928571Y-94154819D02*
X148833333Y-94154819D01*
X148833333Y-94154819D02*
X148690476Y-94202438D01*
X148690476Y-94202438D02*
X148642857Y-94250057D01*
X148261904Y-94250057D02*
X148214285Y-94202438D01*
X148214285Y-94202438D02*
X148119047Y-94154819D01*
X148119047Y-94154819D02*
X147880952Y-94154819D01*
X147880952Y-94154819D02*
X147785714Y-94202438D01*
X147785714Y-94202438D02*
X147738095Y-94250057D01*
X147738095Y-94250057D02*
X147690476Y-94345295D01*
X147690476Y-94345295D02*
X147690476Y-94440533D01*
X147690476Y-94440533D02*
X147738095Y-94583390D01*
X147738095Y-94583390D02*
X148309523Y-95154819D01*
X148309523Y-95154819D02*
X147690476Y-95154819D01*
X146833333Y-94154819D02*
X147023809Y-94154819D01*
X147023809Y-94154819D02*
X147119047Y-94202438D01*
X147119047Y-94202438D02*
X147166666Y-94250057D01*
X147166666Y-94250057D02*
X147261904Y-94392914D01*
X147261904Y-94392914D02*
X147309523Y-94583390D01*
X147309523Y-94583390D02*
X147309523Y-94964342D01*
X147309523Y-94964342D02*
X147261904Y-95059580D01*
X147261904Y-95059580D02*
X147214285Y-95107200D01*
X147214285Y-95107200D02*
X147119047Y-95154819D01*
X147119047Y-95154819D02*
X146928571Y-95154819D01*
X146928571Y-95154819D02*
X146833333Y-95107200D01*
X146833333Y-95107200D02*
X146785714Y-95059580D01*
X146785714Y-95059580D02*
X146738095Y-94964342D01*
X146738095Y-94964342D02*
X146738095Y-94726247D01*
X146738095Y-94726247D02*
X146785714Y-94631009D01*
X146785714Y-94631009D02*
X146833333Y-94583390D01*
X146833333Y-94583390D02*
X146928571Y-94535771D01*
X146928571Y-94535771D02*
X147119047Y-94535771D01*
X147119047Y-94535771D02*
X147214285Y-94583390D01*
X147214285Y-94583390D02*
X147261904Y-94631009D01*
X147261904Y-94631009D02*
X147309523Y-94726247D01*
D13*
X157316428Y-147453365D02*
X157376904Y-147513842D01*
X157376904Y-147513842D02*
X157558333Y-147574318D01*
X157558333Y-147574318D02*
X157679285Y-147574318D01*
X157679285Y-147574318D02*
X157860714Y-147513842D01*
X157860714Y-147513842D02*
X157981666Y-147392889D01*
X157981666Y-147392889D02*
X158042143Y-147271937D01*
X158042143Y-147271937D02*
X158102619Y-147030032D01*
X158102619Y-147030032D02*
X158102619Y-146848603D01*
X158102619Y-146848603D02*
X158042143Y-146606699D01*
X158042143Y-146606699D02*
X157981666Y-146485746D01*
X157981666Y-146485746D02*
X157860714Y-146364794D01*
X157860714Y-146364794D02*
X157679285Y-146304318D01*
X157679285Y-146304318D02*
X157558333Y-146304318D01*
X157558333Y-146304318D02*
X157376904Y-146364794D01*
X157376904Y-146364794D02*
X157316428Y-146425270D01*
X156893095Y-146304318D02*
X156106904Y-146304318D01*
X156106904Y-146304318D02*
X156530238Y-146788127D01*
X156530238Y-146788127D02*
X156348809Y-146788127D01*
X156348809Y-146788127D02*
X156227857Y-146848603D01*
X156227857Y-146848603D02*
X156167381Y-146909080D01*
X156167381Y-146909080D02*
X156106904Y-147030032D01*
X156106904Y-147030032D02*
X156106904Y-147332413D01*
X156106904Y-147332413D02*
X156167381Y-147453365D01*
X156167381Y-147453365D02*
X156227857Y-147513842D01*
X156227857Y-147513842D02*
X156348809Y-147574318D01*
X156348809Y-147574318D02*
X156711666Y-147574318D01*
X156711666Y-147574318D02*
X156832619Y-147513842D01*
X156832619Y-147513842D02*
X156893095Y-147453365D01*
X155502142Y-147574318D02*
X155260238Y-147574318D01*
X155260238Y-147574318D02*
X155139285Y-147513842D01*
X155139285Y-147513842D02*
X155078809Y-147453365D01*
X155078809Y-147453365D02*
X154957857Y-147271937D01*
X154957857Y-147271937D02*
X154897380Y-147030032D01*
X154897380Y-147030032D02*
X154897380Y-146546222D01*
X154897380Y-146546222D02*
X154957857Y-146425270D01*
X154957857Y-146425270D02*
X155018333Y-146364794D01*
X155018333Y-146364794D02*
X155139285Y-146304318D01*
X155139285Y-146304318D02*
X155381190Y-146304318D01*
X155381190Y-146304318D02*
X155502142Y-146364794D01*
X155502142Y-146364794D02*
X155562619Y-146425270D01*
X155562619Y-146425270D02*
X155623095Y-146546222D01*
X155623095Y-146546222D02*
X155623095Y-146848603D01*
X155623095Y-146848603D02*
X155562619Y-146969556D01*
X155562619Y-146969556D02*
X155502142Y-147030032D01*
X155502142Y-147030032D02*
X155381190Y-147090508D01*
X155381190Y-147090508D02*
X155139285Y-147090508D01*
X155139285Y-147090508D02*
X155018333Y-147030032D01*
X155018333Y-147030032D02*
X154957857Y-146969556D01*
X154957857Y-146969556D02*
X154897380Y-146848603D01*
D14*
X162196115Y-152991466D02*
X161434211Y-152991466D01*
X161815163Y-153372419D02*
X161815163Y-152610514D01*
D13*
X99453365Y-114683571D02*
X99513842Y-114623095D01*
X99513842Y-114623095D02*
X99574318Y-114441666D01*
X99574318Y-114441666D02*
X99574318Y-114320714D01*
X99574318Y-114320714D02*
X99513842Y-114139285D01*
X99513842Y-114139285D02*
X99392889Y-114018333D01*
X99392889Y-114018333D02*
X99271937Y-113957856D01*
X99271937Y-113957856D02*
X99030032Y-113897380D01*
X99030032Y-113897380D02*
X98848603Y-113897380D01*
X98848603Y-113897380D02*
X98606699Y-113957856D01*
X98606699Y-113957856D02*
X98485746Y-114018333D01*
X98485746Y-114018333D02*
X98364794Y-114139285D01*
X98364794Y-114139285D02*
X98304318Y-114320714D01*
X98304318Y-114320714D02*
X98304318Y-114441666D01*
X98304318Y-114441666D02*
X98364794Y-114623095D01*
X98364794Y-114623095D02*
X98425270Y-114683571D01*
X98304318Y-115832618D02*
X98304318Y-115227856D01*
X98304318Y-115227856D02*
X98909080Y-115167380D01*
X98909080Y-115167380D02*
X98848603Y-115227856D01*
X98848603Y-115227856D02*
X98788127Y-115348809D01*
X98788127Y-115348809D02*
X98788127Y-115651190D01*
X98788127Y-115651190D02*
X98848603Y-115772142D01*
X98848603Y-115772142D02*
X98909080Y-115832618D01*
X98909080Y-115832618D02*
X99030032Y-115893095D01*
X99030032Y-115893095D02*
X99332413Y-115893095D01*
X99332413Y-115893095D02*
X99453365Y-115832618D01*
X99453365Y-115832618D02*
X99513842Y-115772142D01*
X99513842Y-115772142D02*
X99574318Y-115651190D01*
X99574318Y-115651190D02*
X99574318Y-115348809D01*
X99574318Y-115348809D02*
X99513842Y-115227856D01*
X99513842Y-115227856D02*
X99453365Y-115167380D01*
X98304318Y-116981666D02*
X98304318Y-116739761D01*
X98304318Y-116739761D02*
X98364794Y-116618809D01*
X98364794Y-116618809D02*
X98425270Y-116558333D01*
X98425270Y-116558333D02*
X98606699Y-116437380D01*
X98606699Y-116437380D02*
X98848603Y-116376904D01*
X98848603Y-116376904D02*
X99332413Y-116376904D01*
X99332413Y-116376904D02*
X99453365Y-116437380D01*
X99453365Y-116437380D02*
X99513842Y-116497857D01*
X99513842Y-116497857D02*
X99574318Y-116618809D01*
X99574318Y-116618809D02*
X99574318Y-116860714D01*
X99574318Y-116860714D02*
X99513842Y-116981666D01*
X99513842Y-116981666D02*
X99453365Y-117042142D01*
X99453365Y-117042142D02*
X99332413Y-117102619D01*
X99332413Y-117102619D02*
X99030032Y-117102619D01*
X99030032Y-117102619D02*
X98909080Y-117042142D01*
X98909080Y-117042142D02*
X98848603Y-116981666D01*
X98848603Y-116981666D02*
X98788127Y-116860714D01*
X98788127Y-116860714D02*
X98788127Y-116618809D01*
X98788127Y-116618809D02*
X98848603Y-116497857D01*
X98848603Y-116497857D02*
X98909080Y-116437380D01*
X98909080Y-116437380D02*
X99030032Y-116376904D01*
D14*
X104991466Y-109803884D02*
X104991466Y-110565789D01*
X105372419Y-110184836D02*
X104610514Y-110184836D01*
D12*
X155892857Y-105059580D02*
X155940476Y-105107200D01*
X155940476Y-105107200D02*
X156083333Y-105154819D01*
X156083333Y-105154819D02*
X156178571Y-105154819D01*
X156178571Y-105154819D02*
X156321428Y-105107200D01*
X156321428Y-105107200D02*
X156416666Y-105011961D01*
X156416666Y-105011961D02*
X156464285Y-104916723D01*
X156464285Y-104916723D02*
X156511904Y-104726247D01*
X156511904Y-104726247D02*
X156511904Y-104583390D01*
X156511904Y-104583390D02*
X156464285Y-104392914D01*
X156464285Y-104392914D02*
X156416666Y-104297676D01*
X156416666Y-104297676D02*
X156321428Y-104202438D01*
X156321428Y-104202438D02*
X156178571Y-104154819D01*
X156178571Y-104154819D02*
X156083333Y-104154819D01*
X156083333Y-104154819D02*
X155940476Y-104202438D01*
X155940476Y-104202438D02*
X155892857Y-104250057D01*
X155035714Y-104154819D02*
X155226190Y-104154819D01*
X155226190Y-104154819D02*
X155321428Y-104202438D01*
X155321428Y-104202438D02*
X155369047Y-104250057D01*
X155369047Y-104250057D02*
X155464285Y-104392914D01*
X155464285Y-104392914D02*
X155511904Y-104583390D01*
X155511904Y-104583390D02*
X155511904Y-104964342D01*
X155511904Y-104964342D02*
X155464285Y-105059580D01*
X155464285Y-105059580D02*
X155416666Y-105107200D01*
X155416666Y-105107200D02*
X155321428Y-105154819D01*
X155321428Y-105154819D02*
X155130952Y-105154819D01*
X155130952Y-105154819D02*
X155035714Y-105107200D01*
X155035714Y-105107200D02*
X154988095Y-105059580D01*
X154988095Y-105059580D02*
X154940476Y-104964342D01*
X154940476Y-104964342D02*
X154940476Y-104726247D01*
X154940476Y-104726247D02*
X154988095Y-104631009D01*
X154988095Y-104631009D02*
X155035714Y-104583390D01*
X155035714Y-104583390D02*
X155130952Y-104535771D01*
X155130952Y-104535771D02*
X155321428Y-104535771D01*
X155321428Y-104535771D02*
X155416666Y-104583390D01*
X155416666Y-104583390D02*
X155464285Y-104631009D01*
X155464285Y-104631009D02*
X155511904Y-104726247D01*
X154607142Y-104154819D02*
X153988095Y-104154819D01*
X153988095Y-104154819D02*
X154321428Y-104535771D01*
X154321428Y-104535771D02*
X154178571Y-104535771D01*
X154178571Y-104535771D02*
X154083333Y-104583390D01*
X154083333Y-104583390D02*
X154035714Y-104631009D01*
X154035714Y-104631009D02*
X153988095Y-104726247D01*
X153988095Y-104726247D02*
X153988095Y-104964342D01*
X153988095Y-104964342D02*
X154035714Y-105059580D01*
X154035714Y-105059580D02*
X154083333Y-105107200D01*
X154083333Y-105107200D02*
X154178571Y-105154819D01*
X154178571Y-105154819D02*
X154464285Y-105154819D01*
X154464285Y-105154819D02*
X154559523Y-105107200D01*
X154559523Y-105107200D02*
X154607142Y-105059580D01*
X152205357Y-125659580D02*
X152252976Y-125707200D01*
X152252976Y-125707200D02*
X152395833Y-125754819D01*
X152395833Y-125754819D02*
X152491071Y-125754819D01*
X152491071Y-125754819D02*
X152633928Y-125707200D01*
X152633928Y-125707200D02*
X152729166Y-125611961D01*
X152729166Y-125611961D02*
X152776785Y-125516723D01*
X152776785Y-125516723D02*
X152824404Y-125326247D01*
X152824404Y-125326247D02*
X152824404Y-125183390D01*
X152824404Y-125183390D02*
X152776785Y-124992914D01*
X152776785Y-124992914D02*
X152729166Y-124897676D01*
X152729166Y-124897676D02*
X152633928Y-124802438D01*
X152633928Y-124802438D02*
X152491071Y-124754819D01*
X152491071Y-124754819D02*
X152395833Y-124754819D01*
X152395833Y-124754819D02*
X152252976Y-124802438D01*
X152252976Y-124802438D02*
X152205357Y-124850057D01*
X151872023Y-124754819D02*
X151205357Y-124754819D01*
X151205357Y-124754819D02*
X151633928Y-125754819D01*
X150919642Y-124754819D02*
X150252976Y-124754819D01*
X150252976Y-124754819D02*
X150681547Y-125754819D01*
D13*
X111953365Y-92183571D02*
X112013842Y-92123095D01*
X112013842Y-92123095D02*
X112074318Y-91941666D01*
X112074318Y-91941666D02*
X112074318Y-91820714D01*
X112074318Y-91820714D02*
X112013842Y-91639285D01*
X112013842Y-91639285D02*
X111892889Y-91518333D01*
X111892889Y-91518333D02*
X111771937Y-91457856D01*
X111771937Y-91457856D02*
X111530032Y-91397380D01*
X111530032Y-91397380D02*
X111348603Y-91397380D01*
X111348603Y-91397380D02*
X111106699Y-91457856D01*
X111106699Y-91457856D02*
X110985746Y-91518333D01*
X110985746Y-91518333D02*
X110864794Y-91639285D01*
X110864794Y-91639285D02*
X110804318Y-91820714D01*
X110804318Y-91820714D02*
X110804318Y-91941666D01*
X110804318Y-91941666D02*
X110864794Y-92123095D01*
X110864794Y-92123095D02*
X110925270Y-92183571D01*
X111227651Y-93272142D02*
X112074318Y-93272142D01*
X110743842Y-92969761D02*
X111650984Y-92667380D01*
X111650984Y-92667380D02*
X111650984Y-93453571D01*
X110925270Y-93876904D02*
X110864794Y-93937380D01*
X110864794Y-93937380D02*
X110804318Y-94058333D01*
X110804318Y-94058333D02*
X110804318Y-94360714D01*
X110804318Y-94360714D02*
X110864794Y-94481666D01*
X110864794Y-94481666D02*
X110925270Y-94542142D01*
X110925270Y-94542142D02*
X111046222Y-94602619D01*
X111046222Y-94602619D02*
X111167175Y-94602619D01*
X111167175Y-94602619D02*
X111348603Y-94542142D01*
X111348603Y-94542142D02*
X112074318Y-93816428D01*
X112074318Y-93816428D02*
X112074318Y-94602619D01*
D14*
X117491466Y-87303884D02*
X117491466Y-88065789D01*
X117872419Y-87684836D02*
X117110514Y-87684836D01*
D13*
X140074318Y-109782856D02*
X138804318Y-109782856D01*
X138804318Y-109782856D02*
X138804318Y-110266666D01*
X138804318Y-110266666D02*
X138864794Y-110387618D01*
X138864794Y-110387618D02*
X138925270Y-110448095D01*
X138925270Y-110448095D02*
X139046222Y-110508571D01*
X139046222Y-110508571D02*
X139227651Y-110508571D01*
X139227651Y-110508571D02*
X139348603Y-110448095D01*
X139348603Y-110448095D02*
X139409080Y-110387618D01*
X139409080Y-110387618D02*
X139469556Y-110266666D01*
X139469556Y-110266666D02*
X139469556Y-109782856D01*
X140013842Y-110992380D02*
X140074318Y-111173809D01*
X140074318Y-111173809D02*
X140074318Y-111476190D01*
X140074318Y-111476190D02*
X140013842Y-111597142D01*
X140013842Y-111597142D02*
X139953365Y-111657618D01*
X139953365Y-111657618D02*
X139832413Y-111718095D01*
X139832413Y-111718095D02*
X139711461Y-111718095D01*
X139711461Y-111718095D02*
X139590508Y-111657618D01*
X139590508Y-111657618D02*
X139530032Y-111597142D01*
X139530032Y-111597142D02*
X139469556Y-111476190D01*
X139469556Y-111476190D02*
X139409080Y-111234285D01*
X139409080Y-111234285D02*
X139348603Y-111113333D01*
X139348603Y-111113333D02*
X139288127Y-111052856D01*
X139288127Y-111052856D02*
X139167175Y-110992380D01*
X139167175Y-110992380D02*
X139046222Y-110992380D01*
X139046222Y-110992380D02*
X138925270Y-111052856D01*
X138925270Y-111052856D02*
X138864794Y-111113333D01*
X138864794Y-111113333D02*
X138804318Y-111234285D01*
X138804318Y-111234285D02*
X138804318Y-111536666D01*
X138804318Y-111536666D02*
X138864794Y-111718095D01*
X139227651Y-112806666D02*
X140074318Y-112806666D01*
X138743842Y-112504285D02*
X139650984Y-112201904D01*
X139650984Y-112201904D02*
X139650984Y-112988095D01*
D12*
X163309580Y-105357142D02*
X163357200Y-105309523D01*
X163357200Y-105309523D02*
X163404819Y-105166666D01*
X163404819Y-105166666D02*
X163404819Y-105071428D01*
X163404819Y-105071428D02*
X163357200Y-104928571D01*
X163357200Y-104928571D02*
X163261961Y-104833333D01*
X163261961Y-104833333D02*
X163166723Y-104785714D01*
X163166723Y-104785714D02*
X162976247Y-104738095D01*
X162976247Y-104738095D02*
X162833390Y-104738095D01*
X162833390Y-104738095D02*
X162642914Y-104785714D01*
X162642914Y-104785714D02*
X162547676Y-104833333D01*
X162547676Y-104833333D02*
X162452438Y-104928571D01*
X162452438Y-104928571D02*
X162404819Y-105071428D01*
X162404819Y-105071428D02*
X162404819Y-105166666D01*
X162404819Y-105166666D02*
X162452438Y-105309523D01*
X162452438Y-105309523D02*
X162500057Y-105357142D01*
X162833390Y-105928571D02*
X162785771Y-105833333D01*
X162785771Y-105833333D02*
X162738152Y-105785714D01*
X162738152Y-105785714D02*
X162642914Y-105738095D01*
X162642914Y-105738095D02*
X162595295Y-105738095D01*
X162595295Y-105738095D02*
X162500057Y-105785714D01*
X162500057Y-105785714D02*
X162452438Y-105833333D01*
X162452438Y-105833333D02*
X162404819Y-105928571D01*
X162404819Y-105928571D02*
X162404819Y-106119047D01*
X162404819Y-106119047D02*
X162452438Y-106214285D01*
X162452438Y-106214285D02*
X162500057Y-106261904D01*
X162500057Y-106261904D02*
X162595295Y-106309523D01*
X162595295Y-106309523D02*
X162642914Y-106309523D01*
X162642914Y-106309523D02*
X162738152Y-106261904D01*
X162738152Y-106261904D02*
X162785771Y-106214285D01*
X162785771Y-106214285D02*
X162833390Y-106119047D01*
X162833390Y-106119047D02*
X162833390Y-105928571D01*
X162833390Y-105928571D02*
X162881009Y-105833333D01*
X162881009Y-105833333D02*
X162928628Y-105785714D01*
X162928628Y-105785714D02*
X163023866Y-105738095D01*
X163023866Y-105738095D02*
X163214342Y-105738095D01*
X163214342Y-105738095D02*
X163309580Y-105785714D01*
X163309580Y-105785714D02*
X163357200Y-105833333D01*
X163357200Y-105833333D02*
X163404819Y-105928571D01*
X163404819Y-105928571D02*
X163404819Y-106119047D01*
X163404819Y-106119047D02*
X163357200Y-106214285D01*
X163357200Y-106214285D02*
X163309580Y-106261904D01*
X163309580Y-106261904D02*
X163214342Y-106309523D01*
X163214342Y-106309523D02*
X163023866Y-106309523D01*
X163023866Y-106309523D02*
X162928628Y-106261904D01*
X162928628Y-106261904D02*
X162881009Y-106214285D01*
X162881009Y-106214285D02*
X162833390Y-106119047D01*
X162833390Y-106880952D02*
X162785771Y-106785714D01*
X162785771Y-106785714D02*
X162738152Y-106738095D01*
X162738152Y-106738095D02*
X162642914Y-106690476D01*
X162642914Y-106690476D02*
X162595295Y-106690476D01*
X162595295Y-106690476D02*
X162500057Y-106738095D01*
X162500057Y-106738095D02*
X162452438Y-106785714D01*
X162452438Y-106785714D02*
X162404819Y-106880952D01*
X162404819Y-106880952D02*
X162404819Y-107071428D01*
X162404819Y-107071428D02*
X162452438Y-107166666D01*
X162452438Y-107166666D02*
X162500057Y-107214285D01*
X162500057Y-107214285D02*
X162595295Y-107261904D01*
X162595295Y-107261904D02*
X162642914Y-107261904D01*
X162642914Y-107261904D02*
X162738152Y-107214285D01*
X162738152Y-107214285D02*
X162785771Y-107166666D01*
X162785771Y-107166666D02*
X162833390Y-107071428D01*
X162833390Y-107071428D02*
X162833390Y-106880952D01*
X162833390Y-106880952D02*
X162881009Y-106785714D01*
X162881009Y-106785714D02*
X162928628Y-106738095D01*
X162928628Y-106738095D02*
X163023866Y-106690476D01*
X163023866Y-106690476D02*
X163214342Y-106690476D01*
X163214342Y-106690476D02*
X163309580Y-106738095D01*
X163309580Y-106738095D02*
X163357200Y-106785714D01*
X163357200Y-106785714D02*
X163404819Y-106880952D01*
X163404819Y-106880952D02*
X163404819Y-107071428D01*
X163404819Y-107071428D02*
X163357200Y-107166666D01*
X163357200Y-107166666D02*
X163309580Y-107214285D01*
X163309580Y-107214285D02*
X163214342Y-107261904D01*
X163214342Y-107261904D02*
X163023866Y-107261904D01*
X163023866Y-107261904D02*
X162928628Y-107214285D01*
X162928628Y-107214285D02*
X162881009Y-107166666D01*
X162881009Y-107166666D02*
X162833390Y-107071428D01*
X162392857Y-114809580D02*
X162440476Y-114857200D01*
X162440476Y-114857200D02*
X162583333Y-114904819D01*
X162583333Y-114904819D02*
X162678571Y-114904819D01*
X162678571Y-114904819D02*
X162821428Y-114857200D01*
X162821428Y-114857200D02*
X162916666Y-114761961D01*
X162916666Y-114761961D02*
X162964285Y-114666723D01*
X162964285Y-114666723D02*
X163011904Y-114476247D01*
X163011904Y-114476247D02*
X163011904Y-114333390D01*
X163011904Y-114333390D02*
X162964285Y-114142914D01*
X162964285Y-114142914D02*
X162916666Y-114047676D01*
X162916666Y-114047676D02*
X162821428Y-113952438D01*
X162821428Y-113952438D02*
X162678571Y-113904819D01*
X162678571Y-113904819D02*
X162583333Y-113904819D01*
X162583333Y-113904819D02*
X162440476Y-113952438D01*
X162440476Y-113952438D02*
X162392857Y-114000057D01*
X161821428Y-114333390D02*
X161916666Y-114285771D01*
X161916666Y-114285771D02*
X161964285Y-114238152D01*
X161964285Y-114238152D02*
X162011904Y-114142914D01*
X162011904Y-114142914D02*
X162011904Y-114095295D01*
X162011904Y-114095295D02*
X161964285Y-114000057D01*
X161964285Y-114000057D02*
X161916666Y-113952438D01*
X161916666Y-113952438D02*
X161821428Y-113904819D01*
X161821428Y-113904819D02*
X161630952Y-113904819D01*
X161630952Y-113904819D02*
X161535714Y-113952438D01*
X161535714Y-113952438D02*
X161488095Y-114000057D01*
X161488095Y-114000057D02*
X161440476Y-114095295D01*
X161440476Y-114095295D02*
X161440476Y-114142914D01*
X161440476Y-114142914D02*
X161488095Y-114238152D01*
X161488095Y-114238152D02*
X161535714Y-114285771D01*
X161535714Y-114285771D02*
X161630952Y-114333390D01*
X161630952Y-114333390D02*
X161821428Y-114333390D01*
X161821428Y-114333390D02*
X161916666Y-114381009D01*
X161916666Y-114381009D02*
X161964285Y-114428628D01*
X161964285Y-114428628D02*
X162011904Y-114523866D01*
X162011904Y-114523866D02*
X162011904Y-114714342D01*
X162011904Y-114714342D02*
X161964285Y-114809580D01*
X161964285Y-114809580D02*
X161916666Y-114857200D01*
X161916666Y-114857200D02*
X161821428Y-114904819D01*
X161821428Y-114904819D02*
X161630952Y-114904819D01*
X161630952Y-114904819D02*
X161535714Y-114857200D01*
X161535714Y-114857200D02*
X161488095Y-114809580D01*
X161488095Y-114809580D02*
X161440476Y-114714342D01*
X161440476Y-114714342D02*
X161440476Y-114523866D01*
X161440476Y-114523866D02*
X161488095Y-114428628D01*
X161488095Y-114428628D02*
X161535714Y-114381009D01*
X161535714Y-114381009D02*
X161630952Y-114333390D01*
X161107142Y-113904819D02*
X160440476Y-113904819D01*
X160440476Y-113904819D02*
X160869047Y-114904819D01*
D13*
X168816428Y-147453365D02*
X168876904Y-147513842D01*
X168876904Y-147513842D02*
X169058333Y-147574318D01*
X169058333Y-147574318D02*
X169179285Y-147574318D01*
X169179285Y-147574318D02*
X169360714Y-147513842D01*
X169360714Y-147513842D02*
X169481666Y-147392889D01*
X169481666Y-147392889D02*
X169542143Y-147271937D01*
X169542143Y-147271937D02*
X169602619Y-147030032D01*
X169602619Y-147030032D02*
X169602619Y-146848603D01*
X169602619Y-146848603D02*
X169542143Y-146606699D01*
X169542143Y-146606699D02*
X169481666Y-146485746D01*
X169481666Y-146485746D02*
X169360714Y-146364794D01*
X169360714Y-146364794D02*
X169179285Y-146304318D01*
X169179285Y-146304318D02*
X169058333Y-146304318D01*
X169058333Y-146304318D02*
X168876904Y-146364794D01*
X168876904Y-146364794D02*
X168816428Y-146425270D01*
X168393095Y-146304318D02*
X167606904Y-146304318D01*
X167606904Y-146304318D02*
X168030238Y-146788127D01*
X168030238Y-146788127D02*
X167848809Y-146788127D01*
X167848809Y-146788127D02*
X167727857Y-146848603D01*
X167727857Y-146848603D02*
X167667381Y-146909080D01*
X167667381Y-146909080D02*
X167606904Y-147030032D01*
X167606904Y-147030032D02*
X167606904Y-147332413D01*
X167606904Y-147332413D02*
X167667381Y-147453365D01*
X167667381Y-147453365D02*
X167727857Y-147513842D01*
X167727857Y-147513842D02*
X167848809Y-147574318D01*
X167848809Y-147574318D02*
X168211666Y-147574318D01*
X168211666Y-147574318D02*
X168332619Y-147513842D01*
X168332619Y-147513842D02*
X168393095Y-147453365D01*
X166881190Y-146848603D02*
X167002142Y-146788127D01*
X167002142Y-146788127D02*
X167062619Y-146727651D01*
X167062619Y-146727651D02*
X167123095Y-146606699D01*
X167123095Y-146606699D02*
X167123095Y-146546222D01*
X167123095Y-146546222D02*
X167062619Y-146425270D01*
X167062619Y-146425270D02*
X167002142Y-146364794D01*
X167002142Y-146364794D02*
X166881190Y-146304318D01*
X166881190Y-146304318D02*
X166639285Y-146304318D01*
X166639285Y-146304318D02*
X166518333Y-146364794D01*
X166518333Y-146364794D02*
X166457857Y-146425270D01*
X166457857Y-146425270D02*
X166397380Y-146546222D01*
X166397380Y-146546222D02*
X166397380Y-146606699D01*
X166397380Y-146606699D02*
X166457857Y-146727651D01*
X166457857Y-146727651D02*
X166518333Y-146788127D01*
X166518333Y-146788127D02*
X166639285Y-146848603D01*
X166639285Y-146848603D02*
X166881190Y-146848603D01*
X166881190Y-146848603D02*
X167002142Y-146909080D01*
X167002142Y-146909080D02*
X167062619Y-146969556D01*
X167062619Y-146969556D02*
X167123095Y-147090508D01*
X167123095Y-147090508D02*
X167123095Y-147332413D01*
X167123095Y-147332413D02*
X167062619Y-147453365D01*
X167062619Y-147453365D02*
X167002142Y-147513842D01*
X167002142Y-147513842D02*
X166881190Y-147574318D01*
X166881190Y-147574318D02*
X166639285Y-147574318D01*
X166639285Y-147574318D02*
X166518333Y-147513842D01*
X166518333Y-147513842D02*
X166457857Y-147453365D01*
X166457857Y-147453365D02*
X166397380Y-147332413D01*
X166397380Y-147332413D02*
X166397380Y-147090508D01*
X166397380Y-147090508D02*
X166457857Y-146969556D01*
X166457857Y-146969556D02*
X166518333Y-146909080D01*
X166518333Y-146909080D02*
X166639285Y-146848603D01*
D14*
X173696115Y-152991466D02*
X172934211Y-152991466D01*
X173315163Y-153372419D02*
X173315163Y-152610514D01*
D13*
X111953365Y-115183571D02*
X112013842Y-115123095D01*
X112013842Y-115123095D02*
X112074318Y-114941666D01*
X112074318Y-114941666D02*
X112074318Y-114820714D01*
X112074318Y-114820714D02*
X112013842Y-114639285D01*
X112013842Y-114639285D02*
X111892889Y-114518333D01*
X111892889Y-114518333D02*
X111771937Y-114457856D01*
X111771937Y-114457856D02*
X111530032Y-114397380D01*
X111530032Y-114397380D02*
X111348603Y-114397380D01*
X111348603Y-114397380D02*
X111106699Y-114457856D01*
X111106699Y-114457856D02*
X110985746Y-114518333D01*
X110985746Y-114518333D02*
X110864794Y-114639285D01*
X110864794Y-114639285D02*
X110804318Y-114820714D01*
X110804318Y-114820714D02*
X110804318Y-114941666D01*
X110804318Y-114941666D02*
X110864794Y-115123095D01*
X110864794Y-115123095D02*
X110925270Y-115183571D01*
X111227651Y-116272142D02*
X112074318Y-116272142D01*
X110743842Y-115969761D02*
X111650984Y-115667380D01*
X111650984Y-115667380D02*
X111650984Y-116453571D01*
X112074318Y-117602619D02*
X112074318Y-116876904D01*
X112074318Y-117239761D02*
X110804318Y-117239761D01*
X110804318Y-117239761D02*
X110985746Y-117118809D01*
X110985746Y-117118809D02*
X111106699Y-116997857D01*
X111106699Y-116997857D02*
X111167175Y-116876904D01*
D14*
X117491466Y-110303884D02*
X117491466Y-111065789D01*
X117872419Y-110684836D02*
X117110514Y-110684836D01*
D12*
X148642857Y-99559580D02*
X148690476Y-99607200D01*
X148690476Y-99607200D02*
X148833333Y-99654819D01*
X148833333Y-99654819D02*
X148928571Y-99654819D01*
X148928571Y-99654819D02*
X149071428Y-99607200D01*
X149071428Y-99607200D02*
X149166666Y-99511961D01*
X149166666Y-99511961D02*
X149214285Y-99416723D01*
X149214285Y-99416723D02*
X149261904Y-99226247D01*
X149261904Y-99226247D02*
X149261904Y-99083390D01*
X149261904Y-99083390D02*
X149214285Y-98892914D01*
X149214285Y-98892914D02*
X149166666Y-98797676D01*
X149166666Y-98797676D02*
X149071428Y-98702438D01*
X149071428Y-98702438D02*
X148928571Y-98654819D01*
X148928571Y-98654819D02*
X148833333Y-98654819D01*
X148833333Y-98654819D02*
X148690476Y-98702438D01*
X148690476Y-98702438D02*
X148642857Y-98750057D01*
X148261904Y-98750057D02*
X148214285Y-98702438D01*
X148214285Y-98702438D02*
X148119047Y-98654819D01*
X148119047Y-98654819D02*
X147880952Y-98654819D01*
X147880952Y-98654819D02*
X147785714Y-98702438D01*
X147785714Y-98702438D02*
X147738095Y-98750057D01*
X147738095Y-98750057D02*
X147690476Y-98845295D01*
X147690476Y-98845295D02*
X147690476Y-98940533D01*
X147690476Y-98940533D02*
X147738095Y-99083390D01*
X147738095Y-99083390D02*
X148309523Y-99654819D01*
X148309523Y-99654819D02*
X147690476Y-99654819D01*
X147357142Y-98654819D02*
X146690476Y-98654819D01*
X146690476Y-98654819D02*
X147119047Y-99654819D01*
D13*
X185733928Y-130515167D02*
X186641071Y-130515167D01*
X186641071Y-130515167D02*
X186822499Y-130454690D01*
X186822499Y-130454690D02*
X186943452Y-130333738D01*
X186943452Y-130333738D02*
X187003928Y-130152309D01*
X187003928Y-130152309D02*
X187003928Y-130031357D01*
X186157261Y-131664214D02*
X187003928Y-131664214D01*
X185673452Y-131361833D02*
X186580594Y-131059452D01*
X186580594Y-131059452D02*
X186580594Y-131845643D01*
X111953365Y-126683571D02*
X112013842Y-126623095D01*
X112013842Y-126623095D02*
X112074318Y-126441666D01*
X112074318Y-126441666D02*
X112074318Y-126320714D01*
X112074318Y-126320714D02*
X112013842Y-126139285D01*
X112013842Y-126139285D02*
X111892889Y-126018333D01*
X111892889Y-126018333D02*
X111771937Y-125957856D01*
X111771937Y-125957856D02*
X111530032Y-125897380D01*
X111530032Y-125897380D02*
X111348603Y-125897380D01*
X111348603Y-125897380D02*
X111106699Y-125957856D01*
X111106699Y-125957856D02*
X110985746Y-126018333D01*
X110985746Y-126018333D02*
X110864794Y-126139285D01*
X110864794Y-126139285D02*
X110804318Y-126320714D01*
X110804318Y-126320714D02*
X110804318Y-126441666D01*
X110804318Y-126441666D02*
X110864794Y-126623095D01*
X110864794Y-126623095D02*
X110925270Y-126683571D01*
X110804318Y-127832618D02*
X110804318Y-127227856D01*
X110804318Y-127227856D02*
X111409080Y-127167380D01*
X111409080Y-127167380D02*
X111348603Y-127227856D01*
X111348603Y-127227856D02*
X111288127Y-127348809D01*
X111288127Y-127348809D02*
X111288127Y-127651190D01*
X111288127Y-127651190D02*
X111348603Y-127772142D01*
X111348603Y-127772142D02*
X111409080Y-127832618D01*
X111409080Y-127832618D02*
X111530032Y-127893095D01*
X111530032Y-127893095D02*
X111832413Y-127893095D01*
X111832413Y-127893095D02*
X111953365Y-127832618D01*
X111953365Y-127832618D02*
X112013842Y-127772142D01*
X112013842Y-127772142D02*
X112074318Y-127651190D01*
X112074318Y-127651190D02*
X112074318Y-127348809D01*
X112074318Y-127348809D02*
X112013842Y-127227856D01*
X112013842Y-127227856D02*
X111953365Y-127167380D01*
X110804318Y-129042142D02*
X110804318Y-128437380D01*
X110804318Y-128437380D02*
X111409080Y-128376904D01*
X111409080Y-128376904D02*
X111348603Y-128437380D01*
X111348603Y-128437380D02*
X111288127Y-128558333D01*
X111288127Y-128558333D02*
X111288127Y-128860714D01*
X111288127Y-128860714D02*
X111348603Y-128981666D01*
X111348603Y-128981666D02*
X111409080Y-129042142D01*
X111409080Y-129042142D02*
X111530032Y-129102619D01*
X111530032Y-129102619D02*
X111832413Y-129102619D01*
X111832413Y-129102619D02*
X111953365Y-129042142D01*
X111953365Y-129042142D02*
X112013842Y-128981666D01*
X112013842Y-128981666D02*
X112074318Y-128860714D01*
X112074318Y-128860714D02*
X112074318Y-128558333D01*
X112074318Y-128558333D02*
X112013842Y-128437380D01*
X112013842Y-128437380D02*
X111953365Y-128376904D01*
D14*
X117491466Y-121803884D02*
X117491466Y-122565789D01*
X117872419Y-122184836D02*
X117110514Y-122184836D01*
D12*
X152192857Y-122234819D02*
X152526190Y-121758628D01*
X152764285Y-122234819D02*
X152764285Y-121234819D01*
X152764285Y-121234819D02*
X152383333Y-121234819D01*
X152383333Y-121234819D02*
X152288095Y-121282438D01*
X152288095Y-121282438D02*
X152240476Y-121330057D01*
X152240476Y-121330057D02*
X152192857Y-121425295D01*
X152192857Y-121425295D02*
X152192857Y-121568152D01*
X152192857Y-121568152D02*
X152240476Y-121663390D01*
X152240476Y-121663390D02*
X152288095Y-121711009D01*
X152288095Y-121711009D02*
X152383333Y-121758628D01*
X152383333Y-121758628D02*
X152764285Y-121758628D01*
X151859523Y-121234819D02*
X151240476Y-121234819D01*
X151240476Y-121234819D02*
X151573809Y-121615771D01*
X151573809Y-121615771D02*
X151430952Y-121615771D01*
X151430952Y-121615771D02*
X151335714Y-121663390D01*
X151335714Y-121663390D02*
X151288095Y-121711009D01*
X151288095Y-121711009D02*
X151240476Y-121806247D01*
X151240476Y-121806247D02*
X151240476Y-122044342D01*
X151240476Y-122044342D02*
X151288095Y-122139580D01*
X151288095Y-122139580D02*
X151335714Y-122187200D01*
X151335714Y-122187200D02*
X151430952Y-122234819D01*
X151430952Y-122234819D02*
X151716666Y-122234819D01*
X151716666Y-122234819D02*
X151811904Y-122187200D01*
X151811904Y-122187200D02*
X151859523Y-122139580D01*
X150288095Y-122234819D02*
X150859523Y-122234819D01*
X150573809Y-122234819D02*
X150573809Y-121234819D01*
X150573809Y-121234819D02*
X150669047Y-121377676D01*
X150669047Y-121377676D02*
X150764285Y-121472914D01*
X150764285Y-121472914D02*
X150859523Y-121520533D01*
D13*
X145816428Y-146953365D02*
X145876904Y-147013842D01*
X145876904Y-147013842D02*
X146058333Y-147074318D01*
X146058333Y-147074318D02*
X146179285Y-147074318D01*
X146179285Y-147074318D02*
X146360714Y-147013842D01*
X146360714Y-147013842D02*
X146481666Y-146892889D01*
X146481666Y-146892889D02*
X146542143Y-146771937D01*
X146542143Y-146771937D02*
X146602619Y-146530032D01*
X146602619Y-146530032D02*
X146602619Y-146348603D01*
X146602619Y-146348603D02*
X146542143Y-146106699D01*
X146542143Y-146106699D02*
X146481666Y-145985746D01*
X146481666Y-145985746D02*
X146360714Y-145864794D01*
X146360714Y-145864794D02*
X146179285Y-145804318D01*
X146179285Y-145804318D02*
X146058333Y-145804318D01*
X146058333Y-145804318D02*
X145876904Y-145864794D01*
X145876904Y-145864794D02*
X145816428Y-145925270D01*
X145393095Y-145804318D02*
X144606904Y-145804318D01*
X144606904Y-145804318D02*
X145030238Y-146288127D01*
X145030238Y-146288127D02*
X144848809Y-146288127D01*
X144848809Y-146288127D02*
X144727857Y-146348603D01*
X144727857Y-146348603D02*
X144667381Y-146409080D01*
X144667381Y-146409080D02*
X144606904Y-146530032D01*
X144606904Y-146530032D02*
X144606904Y-146832413D01*
X144606904Y-146832413D02*
X144667381Y-146953365D01*
X144667381Y-146953365D02*
X144727857Y-147013842D01*
X144727857Y-147013842D02*
X144848809Y-147074318D01*
X144848809Y-147074318D02*
X145211666Y-147074318D01*
X145211666Y-147074318D02*
X145332619Y-147013842D01*
X145332619Y-147013842D02*
X145393095Y-146953365D01*
X144183571Y-145804318D02*
X143336904Y-145804318D01*
X143336904Y-145804318D02*
X143881190Y-147074318D01*
D14*
X150696115Y-152491466D02*
X149934211Y-152491466D01*
X150315163Y-152872419D02*
X150315163Y-152110514D01*
D12*
X147192857Y-117674819D02*
X147526190Y-117198628D01*
X147764285Y-117674819D02*
X147764285Y-116674819D01*
X147764285Y-116674819D02*
X147383333Y-116674819D01*
X147383333Y-116674819D02*
X147288095Y-116722438D01*
X147288095Y-116722438D02*
X147240476Y-116770057D01*
X147240476Y-116770057D02*
X147192857Y-116865295D01*
X147192857Y-116865295D02*
X147192857Y-117008152D01*
X147192857Y-117008152D02*
X147240476Y-117103390D01*
X147240476Y-117103390D02*
X147288095Y-117151009D01*
X147288095Y-117151009D02*
X147383333Y-117198628D01*
X147383333Y-117198628D02*
X147764285Y-117198628D01*
X146811904Y-116770057D02*
X146764285Y-116722438D01*
X146764285Y-116722438D02*
X146669047Y-116674819D01*
X146669047Y-116674819D02*
X146430952Y-116674819D01*
X146430952Y-116674819D02*
X146335714Y-116722438D01*
X146335714Y-116722438D02*
X146288095Y-116770057D01*
X146288095Y-116770057D02*
X146240476Y-116865295D01*
X146240476Y-116865295D02*
X146240476Y-116960533D01*
X146240476Y-116960533D02*
X146288095Y-117103390D01*
X146288095Y-117103390D02*
X146859523Y-117674819D01*
X146859523Y-117674819D02*
X146240476Y-117674819D01*
X145907142Y-116674819D02*
X145288095Y-116674819D01*
X145288095Y-116674819D02*
X145621428Y-117055771D01*
X145621428Y-117055771D02*
X145478571Y-117055771D01*
X145478571Y-117055771D02*
X145383333Y-117103390D01*
X145383333Y-117103390D02*
X145335714Y-117151009D01*
X145335714Y-117151009D02*
X145288095Y-117246247D01*
X145288095Y-117246247D02*
X145288095Y-117484342D01*
X145288095Y-117484342D02*
X145335714Y-117579580D01*
X145335714Y-117579580D02*
X145383333Y-117627200D01*
X145383333Y-117627200D02*
X145478571Y-117674819D01*
X145478571Y-117674819D02*
X145764285Y-117674819D01*
X145764285Y-117674819D02*
X145859523Y-117627200D01*
X145859523Y-117627200D02*
X145907142Y-117579580D01*
D13*
X122816428Y-146953365D02*
X122876904Y-147013842D01*
X122876904Y-147013842D02*
X123058333Y-147074318D01*
X123058333Y-147074318D02*
X123179285Y-147074318D01*
X123179285Y-147074318D02*
X123360714Y-147013842D01*
X123360714Y-147013842D02*
X123481666Y-146892889D01*
X123481666Y-146892889D02*
X123542143Y-146771937D01*
X123542143Y-146771937D02*
X123602619Y-146530032D01*
X123602619Y-146530032D02*
X123602619Y-146348603D01*
X123602619Y-146348603D02*
X123542143Y-146106699D01*
X123542143Y-146106699D02*
X123481666Y-145985746D01*
X123481666Y-145985746D02*
X123360714Y-145864794D01*
X123360714Y-145864794D02*
X123179285Y-145804318D01*
X123179285Y-145804318D02*
X123058333Y-145804318D01*
X123058333Y-145804318D02*
X122876904Y-145864794D01*
X122876904Y-145864794D02*
X122816428Y-145925270D01*
X121727857Y-146227651D02*
X121727857Y-147074318D01*
X122030238Y-145743842D02*
X122332619Y-146650984D01*
X122332619Y-146650984D02*
X121546428Y-146650984D01*
X121183571Y-145804318D02*
X120336904Y-145804318D01*
X120336904Y-145804318D02*
X120881190Y-147074318D01*
D14*
X127696115Y-152491466D02*
X126934211Y-152491466D01*
X127315163Y-152872419D02*
X127315163Y-152110514D01*
D13*
X134316428Y-146953365D02*
X134376904Y-147013842D01*
X134376904Y-147013842D02*
X134558333Y-147074318D01*
X134558333Y-147074318D02*
X134679285Y-147074318D01*
X134679285Y-147074318D02*
X134860714Y-147013842D01*
X134860714Y-147013842D02*
X134981666Y-146892889D01*
X134981666Y-146892889D02*
X135042143Y-146771937D01*
X135042143Y-146771937D02*
X135102619Y-146530032D01*
X135102619Y-146530032D02*
X135102619Y-146348603D01*
X135102619Y-146348603D02*
X135042143Y-146106699D01*
X135042143Y-146106699D02*
X134981666Y-145985746D01*
X134981666Y-145985746D02*
X134860714Y-145864794D01*
X134860714Y-145864794D02*
X134679285Y-145804318D01*
X134679285Y-145804318D02*
X134558333Y-145804318D01*
X134558333Y-145804318D02*
X134376904Y-145864794D01*
X134376904Y-145864794D02*
X134316428Y-145925270D01*
X133227857Y-146227651D02*
X133227857Y-147074318D01*
X133530238Y-145743842D02*
X133832619Y-146650984D01*
X133832619Y-146650984D02*
X133046428Y-146650984D01*
X132381190Y-146348603D02*
X132502142Y-146288127D01*
X132502142Y-146288127D02*
X132562619Y-146227651D01*
X132562619Y-146227651D02*
X132623095Y-146106699D01*
X132623095Y-146106699D02*
X132623095Y-146046222D01*
X132623095Y-146046222D02*
X132562619Y-145925270D01*
X132562619Y-145925270D02*
X132502142Y-145864794D01*
X132502142Y-145864794D02*
X132381190Y-145804318D01*
X132381190Y-145804318D02*
X132139285Y-145804318D01*
X132139285Y-145804318D02*
X132018333Y-145864794D01*
X132018333Y-145864794D02*
X131957857Y-145925270D01*
X131957857Y-145925270D02*
X131897380Y-146046222D01*
X131897380Y-146046222D02*
X131897380Y-146106699D01*
X131897380Y-146106699D02*
X131957857Y-146227651D01*
X131957857Y-146227651D02*
X132018333Y-146288127D01*
X132018333Y-146288127D02*
X132139285Y-146348603D01*
X132139285Y-146348603D02*
X132381190Y-146348603D01*
X132381190Y-146348603D02*
X132502142Y-146409080D01*
X132502142Y-146409080D02*
X132562619Y-146469556D01*
X132562619Y-146469556D02*
X132623095Y-146590508D01*
X132623095Y-146590508D02*
X132623095Y-146832413D01*
X132623095Y-146832413D02*
X132562619Y-146953365D01*
X132562619Y-146953365D02*
X132502142Y-147013842D01*
X132502142Y-147013842D02*
X132381190Y-147074318D01*
X132381190Y-147074318D02*
X132139285Y-147074318D01*
X132139285Y-147074318D02*
X132018333Y-147013842D01*
X132018333Y-147013842D02*
X131957857Y-146953365D01*
X131957857Y-146953365D02*
X131897380Y-146832413D01*
X131897380Y-146832413D02*
X131897380Y-146590508D01*
X131897380Y-146590508D02*
X131957857Y-146469556D01*
X131957857Y-146469556D02*
X132018333Y-146409080D01*
X132018333Y-146409080D02*
X132139285Y-146348603D01*
D14*
X139196115Y-152491466D02*
X138434211Y-152491466D01*
X138815163Y-152872419D02*
X138815163Y-152110514D01*
D12*
X155424819Y-114857142D02*
X154948628Y-114523809D01*
X155424819Y-114285714D02*
X154424819Y-114285714D01*
X154424819Y-114285714D02*
X154424819Y-114666666D01*
X154424819Y-114666666D02*
X154472438Y-114761904D01*
X154472438Y-114761904D02*
X154520057Y-114809523D01*
X154520057Y-114809523D02*
X154615295Y-114857142D01*
X154615295Y-114857142D02*
X154758152Y-114857142D01*
X154758152Y-114857142D02*
X154853390Y-114809523D01*
X154853390Y-114809523D02*
X154901009Y-114761904D01*
X154901009Y-114761904D02*
X154948628Y-114666666D01*
X154948628Y-114666666D02*
X154948628Y-114285714D01*
X154424819Y-115190476D02*
X154424819Y-115809523D01*
X154424819Y-115809523D02*
X154805771Y-115476190D01*
X154805771Y-115476190D02*
X154805771Y-115619047D01*
X154805771Y-115619047D02*
X154853390Y-115714285D01*
X154853390Y-115714285D02*
X154901009Y-115761904D01*
X154901009Y-115761904D02*
X154996247Y-115809523D01*
X154996247Y-115809523D02*
X155234342Y-115809523D01*
X155234342Y-115809523D02*
X155329580Y-115761904D01*
X155329580Y-115761904D02*
X155377200Y-115714285D01*
X155377200Y-115714285D02*
X155424819Y-115619047D01*
X155424819Y-115619047D02*
X155424819Y-115333333D01*
X155424819Y-115333333D02*
X155377200Y-115238095D01*
X155377200Y-115238095D02*
X155329580Y-115190476D01*
X154520057Y-116190476D02*
X154472438Y-116238095D01*
X154472438Y-116238095D02*
X154424819Y-116333333D01*
X154424819Y-116333333D02*
X154424819Y-116571428D01*
X154424819Y-116571428D02*
X154472438Y-116666666D01*
X154472438Y-116666666D02*
X154520057Y-116714285D01*
X154520057Y-116714285D02*
X154615295Y-116761904D01*
X154615295Y-116761904D02*
X154710533Y-116761904D01*
X154710533Y-116761904D02*
X154853390Y-116714285D01*
X154853390Y-116714285D02*
X155424819Y-116142857D01*
X155424819Y-116142857D02*
X155424819Y-116761904D01*
D13*
X98702143Y-84074318D02*
X98702143Y-82804318D01*
X98702143Y-82804318D02*
X98218333Y-82804318D01*
X98218333Y-82804318D02*
X98097381Y-82864794D01*
X98097381Y-82864794D02*
X98036904Y-82925270D01*
X98036904Y-82925270D02*
X97976428Y-83046222D01*
X97976428Y-83046222D02*
X97976428Y-83227651D01*
X97976428Y-83227651D02*
X98036904Y-83348603D01*
X98036904Y-83348603D02*
X98097381Y-83409080D01*
X98097381Y-83409080D02*
X98218333Y-83469556D01*
X98218333Y-83469556D02*
X98702143Y-83469556D01*
X97492619Y-84013842D02*
X97311190Y-84074318D01*
X97311190Y-84074318D02*
X97008809Y-84074318D01*
X97008809Y-84074318D02*
X96887857Y-84013842D01*
X96887857Y-84013842D02*
X96827381Y-83953365D01*
X96827381Y-83953365D02*
X96766904Y-83832413D01*
X96766904Y-83832413D02*
X96766904Y-83711461D01*
X96766904Y-83711461D02*
X96827381Y-83590508D01*
X96827381Y-83590508D02*
X96887857Y-83530032D01*
X96887857Y-83530032D02*
X97008809Y-83469556D01*
X97008809Y-83469556D02*
X97250714Y-83409080D01*
X97250714Y-83409080D02*
X97371666Y-83348603D01*
X97371666Y-83348603D02*
X97432143Y-83288127D01*
X97432143Y-83288127D02*
X97492619Y-83167175D01*
X97492619Y-83167175D02*
X97492619Y-83046222D01*
X97492619Y-83046222D02*
X97432143Y-82925270D01*
X97432143Y-82925270D02*
X97371666Y-82864794D01*
X97371666Y-82864794D02*
X97250714Y-82804318D01*
X97250714Y-82804318D02*
X96948333Y-82804318D01*
X96948333Y-82804318D02*
X96766904Y-82864794D01*
X96283095Y-82925270D02*
X96222619Y-82864794D01*
X96222619Y-82864794D02*
X96101666Y-82804318D01*
X96101666Y-82804318D02*
X95799285Y-82804318D01*
X95799285Y-82804318D02*
X95678333Y-82864794D01*
X95678333Y-82864794D02*
X95617857Y-82925270D01*
X95617857Y-82925270D02*
X95557380Y-83046222D01*
X95557380Y-83046222D02*
X95557380Y-83167175D01*
X95557380Y-83167175D02*
X95617857Y-83348603D01*
X95617857Y-83348603D02*
X96343571Y-84074318D01*
X96343571Y-84074318D02*
X95557380Y-84074318D01*
D12*
X158809580Y-105357142D02*
X158857200Y-105309523D01*
X158857200Y-105309523D02*
X158904819Y-105166666D01*
X158904819Y-105166666D02*
X158904819Y-105071428D01*
X158904819Y-105071428D02*
X158857200Y-104928571D01*
X158857200Y-104928571D02*
X158761961Y-104833333D01*
X158761961Y-104833333D02*
X158666723Y-104785714D01*
X158666723Y-104785714D02*
X158476247Y-104738095D01*
X158476247Y-104738095D02*
X158333390Y-104738095D01*
X158333390Y-104738095D02*
X158142914Y-104785714D01*
X158142914Y-104785714D02*
X158047676Y-104833333D01*
X158047676Y-104833333D02*
X157952438Y-104928571D01*
X157952438Y-104928571D02*
X157904819Y-105071428D01*
X157904819Y-105071428D02*
X157904819Y-105166666D01*
X157904819Y-105166666D02*
X157952438Y-105309523D01*
X157952438Y-105309523D02*
X158000057Y-105357142D01*
X158000057Y-105738095D02*
X157952438Y-105785714D01*
X157952438Y-105785714D02*
X157904819Y-105880952D01*
X157904819Y-105880952D02*
X157904819Y-106119047D01*
X157904819Y-106119047D02*
X157952438Y-106214285D01*
X157952438Y-106214285D02*
X158000057Y-106261904D01*
X158000057Y-106261904D02*
X158095295Y-106309523D01*
X158095295Y-106309523D02*
X158190533Y-106309523D01*
X158190533Y-106309523D02*
X158333390Y-106261904D01*
X158333390Y-106261904D02*
X158904819Y-105690476D01*
X158904819Y-105690476D02*
X158904819Y-106309523D01*
X157904819Y-106642857D02*
X157904819Y-107261904D01*
X157904819Y-107261904D02*
X158285771Y-106928571D01*
X158285771Y-106928571D02*
X158285771Y-107071428D01*
X158285771Y-107071428D02*
X158333390Y-107166666D01*
X158333390Y-107166666D02*
X158381009Y-107214285D01*
X158381009Y-107214285D02*
X158476247Y-107261904D01*
X158476247Y-107261904D02*
X158714342Y-107261904D01*
X158714342Y-107261904D02*
X158809580Y-107214285D01*
X158809580Y-107214285D02*
X158857200Y-107166666D01*
X158857200Y-107166666D02*
X158904819Y-107071428D01*
X158904819Y-107071428D02*
X158904819Y-106785714D01*
X158904819Y-106785714D02*
X158857200Y-106690476D01*
X158857200Y-106690476D02*
X158809580Y-106642857D01*
X148642857Y-90559580D02*
X148690476Y-90607200D01*
X148690476Y-90607200D02*
X148833333Y-90654819D01*
X148833333Y-90654819D02*
X148928571Y-90654819D01*
X148928571Y-90654819D02*
X149071428Y-90607200D01*
X149071428Y-90607200D02*
X149166666Y-90511961D01*
X149166666Y-90511961D02*
X149214285Y-90416723D01*
X149214285Y-90416723D02*
X149261904Y-90226247D01*
X149261904Y-90226247D02*
X149261904Y-90083390D01*
X149261904Y-90083390D02*
X149214285Y-89892914D01*
X149214285Y-89892914D02*
X149166666Y-89797676D01*
X149166666Y-89797676D02*
X149071428Y-89702438D01*
X149071428Y-89702438D02*
X148928571Y-89654819D01*
X148928571Y-89654819D02*
X148833333Y-89654819D01*
X148833333Y-89654819D02*
X148690476Y-89702438D01*
X148690476Y-89702438D02*
X148642857Y-89750057D01*
X147785714Y-89654819D02*
X147976190Y-89654819D01*
X147976190Y-89654819D02*
X148071428Y-89702438D01*
X148071428Y-89702438D02*
X148119047Y-89750057D01*
X148119047Y-89750057D02*
X148214285Y-89892914D01*
X148214285Y-89892914D02*
X148261904Y-90083390D01*
X148261904Y-90083390D02*
X148261904Y-90464342D01*
X148261904Y-90464342D02*
X148214285Y-90559580D01*
X148214285Y-90559580D02*
X148166666Y-90607200D01*
X148166666Y-90607200D02*
X148071428Y-90654819D01*
X148071428Y-90654819D02*
X147880952Y-90654819D01*
X147880952Y-90654819D02*
X147785714Y-90607200D01*
X147785714Y-90607200D02*
X147738095Y-90559580D01*
X147738095Y-90559580D02*
X147690476Y-90464342D01*
X147690476Y-90464342D02*
X147690476Y-90226247D01*
X147690476Y-90226247D02*
X147738095Y-90131009D01*
X147738095Y-90131009D02*
X147785714Y-90083390D01*
X147785714Y-90083390D02*
X147880952Y-90035771D01*
X147880952Y-90035771D02*
X148071428Y-90035771D01*
X148071428Y-90035771D02*
X148166666Y-90083390D01*
X148166666Y-90083390D02*
X148214285Y-90131009D01*
X148214285Y-90131009D02*
X148261904Y-90226247D01*
X147309523Y-89750057D02*
X147261904Y-89702438D01*
X147261904Y-89702438D02*
X147166666Y-89654819D01*
X147166666Y-89654819D02*
X146928571Y-89654819D01*
X146928571Y-89654819D02*
X146833333Y-89702438D01*
X146833333Y-89702438D02*
X146785714Y-89750057D01*
X146785714Y-89750057D02*
X146738095Y-89845295D01*
X146738095Y-89845295D02*
X146738095Y-89940533D01*
X146738095Y-89940533D02*
X146785714Y-90083390D01*
X146785714Y-90083390D02*
X147357142Y-90654819D01*
X147357142Y-90654819D02*
X146738095Y-90654819D01*
X176734819Y-106857142D02*
X176258628Y-106523809D01*
X176734819Y-106285714D02*
X175734819Y-106285714D01*
X175734819Y-106285714D02*
X175734819Y-106666666D01*
X175734819Y-106666666D02*
X175782438Y-106761904D01*
X175782438Y-106761904D02*
X175830057Y-106809523D01*
X175830057Y-106809523D02*
X175925295Y-106857142D01*
X175925295Y-106857142D02*
X176068152Y-106857142D01*
X176068152Y-106857142D02*
X176163390Y-106809523D01*
X176163390Y-106809523D02*
X176211009Y-106761904D01*
X176211009Y-106761904D02*
X176258628Y-106666666D01*
X176258628Y-106666666D02*
X176258628Y-106285714D01*
X176068152Y-107714285D02*
X176734819Y-107714285D01*
X175687200Y-107476190D02*
X176401485Y-107238095D01*
X176401485Y-107238095D02*
X176401485Y-107857142D01*
X175734819Y-108142857D02*
X175734819Y-108761904D01*
X175734819Y-108761904D02*
X176115771Y-108428571D01*
X176115771Y-108428571D02*
X176115771Y-108571428D01*
X176115771Y-108571428D02*
X176163390Y-108666666D01*
X176163390Y-108666666D02*
X176211009Y-108714285D01*
X176211009Y-108714285D02*
X176306247Y-108761904D01*
X176306247Y-108761904D02*
X176544342Y-108761904D01*
X176544342Y-108761904D02*
X176639580Y-108714285D01*
X176639580Y-108714285D02*
X176687200Y-108666666D01*
X176687200Y-108666666D02*
X176734819Y-108571428D01*
X176734819Y-108571428D02*
X176734819Y-108285714D01*
X176734819Y-108285714D02*
X176687200Y-108190476D01*
X176687200Y-108190476D02*
X176639580Y-108142857D01*
D13*
X111416428Y-146953365D02*
X111476904Y-147013842D01*
X111476904Y-147013842D02*
X111658333Y-147074318D01*
X111658333Y-147074318D02*
X111779285Y-147074318D01*
X111779285Y-147074318D02*
X111960714Y-147013842D01*
X111960714Y-147013842D02*
X112081666Y-146892889D01*
X112081666Y-146892889D02*
X112142143Y-146771937D01*
X112142143Y-146771937D02*
X112202619Y-146530032D01*
X112202619Y-146530032D02*
X112202619Y-146348603D01*
X112202619Y-146348603D02*
X112142143Y-146106699D01*
X112142143Y-146106699D02*
X112081666Y-145985746D01*
X112081666Y-145985746D02*
X111960714Y-145864794D01*
X111960714Y-145864794D02*
X111779285Y-145804318D01*
X111779285Y-145804318D02*
X111658333Y-145804318D01*
X111658333Y-145804318D02*
X111476904Y-145864794D01*
X111476904Y-145864794D02*
X111416428Y-145925270D01*
X110327857Y-146227651D02*
X110327857Y-147074318D01*
X110630238Y-145743842D02*
X110932619Y-146650984D01*
X110932619Y-146650984D02*
X110146428Y-146650984D01*
X109118333Y-145804318D02*
X109360238Y-145804318D01*
X109360238Y-145804318D02*
X109481190Y-145864794D01*
X109481190Y-145864794D02*
X109541666Y-145925270D01*
X109541666Y-145925270D02*
X109662619Y-146106699D01*
X109662619Y-146106699D02*
X109723095Y-146348603D01*
X109723095Y-146348603D02*
X109723095Y-146832413D01*
X109723095Y-146832413D02*
X109662619Y-146953365D01*
X109662619Y-146953365D02*
X109602142Y-147013842D01*
X109602142Y-147013842D02*
X109481190Y-147074318D01*
X109481190Y-147074318D02*
X109239285Y-147074318D01*
X109239285Y-147074318D02*
X109118333Y-147013842D01*
X109118333Y-147013842D02*
X109057857Y-146953365D01*
X109057857Y-146953365D02*
X108997380Y-146832413D01*
X108997380Y-146832413D02*
X108997380Y-146530032D01*
X108997380Y-146530032D02*
X109057857Y-146409080D01*
X109057857Y-146409080D02*
X109118333Y-146348603D01*
X109118333Y-146348603D02*
X109239285Y-146288127D01*
X109239285Y-146288127D02*
X109481190Y-146288127D01*
X109481190Y-146288127D02*
X109602142Y-146348603D01*
X109602142Y-146348603D02*
X109662619Y-146409080D01*
X109662619Y-146409080D02*
X109723095Y-146530032D01*
D14*
X116296115Y-152491466D02*
X115534211Y-152491466D01*
X115915163Y-152872419D02*
X115915163Y-152110514D01*
D12*
X172234819Y-94357142D02*
X171758628Y-94023809D01*
X172234819Y-93785714D02*
X171234819Y-93785714D01*
X171234819Y-93785714D02*
X171234819Y-94166666D01*
X171234819Y-94166666D02*
X171282438Y-94261904D01*
X171282438Y-94261904D02*
X171330057Y-94309523D01*
X171330057Y-94309523D02*
X171425295Y-94357142D01*
X171425295Y-94357142D02*
X171568152Y-94357142D01*
X171568152Y-94357142D02*
X171663390Y-94309523D01*
X171663390Y-94309523D02*
X171711009Y-94261904D01*
X171711009Y-94261904D02*
X171758628Y-94166666D01*
X171758628Y-94166666D02*
X171758628Y-93785714D01*
X171234819Y-94690476D02*
X171234819Y-95309523D01*
X171234819Y-95309523D02*
X171615771Y-94976190D01*
X171615771Y-94976190D02*
X171615771Y-95119047D01*
X171615771Y-95119047D02*
X171663390Y-95214285D01*
X171663390Y-95214285D02*
X171711009Y-95261904D01*
X171711009Y-95261904D02*
X171806247Y-95309523D01*
X171806247Y-95309523D02*
X172044342Y-95309523D01*
X172044342Y-95309523D02*
X172139580Y-95261904D01*
X172139580Y-95261904D02*
X172187200Y-95214285D01*
X172187200Y-95214285D02*
X172234819Y-95119047D01*
X172234819Y-95119047D02*
X172234819Y-94833333D01*
X172234819Y-94833333D02*
X172187200Y-94738095D01*
X172187200Y-94738095D02*
X172139580Y-94690476D01*
X171234819Y-96166666D02*
X171234819Y-95976190D01*
X171234819Y-95976190D02*
X171282438Y-95880952D01*
X171282438Y-95880952D02*
X171330057Y-95833333D01*
X171330057Y-95833333D02*
X171472914Y-95738095D01*
X171472914Y-95738095D02*
X171663390Y-95690476D01*
X171663390Y-95690476D02*
X172044342Y-95690476D01*
X172044342Y-95690476D02*
X172139580Y-95738095D01*
X172139580Y-95738095D02*
X172187200Y-95785714D01*
X172187200Y-95785714D02*
X172234819Y-95880952D01*
X172234819Y-95880952D02*
X172234819Y-96071428D01*
X172234819Y-96071428D02*
X172187200Y-96166666D01*
X172187200Y-96166666D02*
X172139580Y-96214285D01*
X172139580Y-96214285D02*
X172044342Y-96261904D01*
X172044342Y-96261904D02*
X171806247Y-96261904D01*
X171806247Y-96261904D02*
X171711009Y-96214285D01*
X171711009Y-96214285D02*
X171663390Y-96166666D01*
X171663390Y-96166666D02*
X171615771Y-96071428D01*
X171615771Y-96071428D02*
X171615771Y-95880952D01*
X171615771Y-95880952D02*
X171663390Y-95785714D01*
X171663390Y-95785714D02*
X171711009Y-95738095D01*
X171711009Y-95738095D02*
X171806247Y-95690476D01*
D13*
X99453365Y-126183571D02*
X99513842Y-126123095D01*
X99513842Y-126123095D02*
X99574318Y-125941666D01*
X99574318Y-125941666D02*
X99574318Y-125820714D01*
X99574318Y-125820714D02*
X99513842Y-125639285D01*
X99513842Y-125639285D02*
X99392889Y-125518333D01*
X99392889Y-125518333D02*
X99271937Y-125457856D01*
X99271937Y-125457856D02*
X99030032Y-125397380D01*
X99030032Y-125397380D02*
X98848603Y-125397380D01*
X98848603Y-125397380D02*
X98606699Y-125457856D01*
X98606699Y-125457856D02*
X98485746Y-125518333D01*
X98485746Y-125518333D02*
X98364794Y-125639285D01*
X98364794Y-125639285D02*
X98304318Y-125820714D01*
X98304318Y-125820714D02*
X98304318Y-125941666D01*
X98304318Y-125941666D02*
X98364794Y-126123095D01*
X98364794Y-126123095D02*
X98425270Y-126183571D01*
X98304318Y-127332618D02*
X98304318Y-126727856D01*
X98304318Y-126727856D02*
X98909080Y-126667380D01*
X98909080Y-126667380D02*
X98848603Y-126727856D01*
X98848603Y-126727856D02*
X98788127Y-126848809D01*
X98788127Y-126848809D02*
X98788127Y-127151190D01*
X98788127Y-127151190D02*
X98848603Y-127272142D01*
X98848603Y-127272142D02*
X98909080Y-127332618D01*
X98909080Y-127332618D02*
X99030032Y-127393095D01*
X99030032Y-127393095D02*
X99332413Y-127393095D01*
X99332413Y-127393095D02*
X99453365Y-127332618D01*
X99453365Y-127332618D02*
X99513842Y-127272142D01*
X99513842Y-127272142D02*
X99574318Y-127151190D01*
X99574318Y-127151190D02*
X99574318Y-126848809D01*
X99574318Y-126848809D02*
X99513842Y-126727856D01*
X99513842Y-126727856D02*
X99453365Y-126667380D01*
X98304318Y-127816428D02*
X98304318Y-128663095D01*
X98304318Y-128663095D02*
X99574318Y-128118809D01*
D14*
X104991466Y-121303884D02*
X104991466Y-122065789D01*
X105372419Y-121684836D02*
X104610514Y-121684836D01*
D12*
X176734819Y-94357142D02*
X176258628Y-94023809D01*
X176734819Y-93785714D02*
X175734819Y-93785714D01*
X175734819Y-93785714D02*
X175734819Y-94166666D01*
X175734819Y-94166666D02*
X175782438Y-94261904D01*
X175782438Y-94261904D02*
X175830057Y-94309523D01*
X175830057Y-94309523D02*
X175925295Y-94357142D01*
X175925295Y-94357142D02*
X176068152Y-94357142D01*
X176068152Y-94357142D02*
X176163390Y-94309523D01*
X176163390Y-94309523D02*
X176211009Y-94261904D01*
X176211009Y-94261904D02*
X176258628Y-94166666D01*
X176258628Y-94166666D02*
X176258628Y-93785714D01*
X175734819Y-94690476D02*
X175734819Y-95309523D01*
X175734819Y-95309523D02*
X176115771Y-94976190D01*
X176115771Y-94976190D02*
X176115771Y-95119047D01*
X176115771Y-95119047D02*
X176163390Y-95214285D01*
X176163390Y-95214285D02*
X176211009Y-95261904D01*
X176211009Y-95261904D02*
X176306247Y-95309523D01*
X176306247Y-95309523D02*
X176544342Y-95309523D01*
X176544342Y-95309523D02*
X176639580Y-95261904D01*
X176639580Y-95261904D02*
X176687200Y-95214285D01*
X176687200Y-95214285D02*
X176734819Y-95119047D01*
X176734819Y-95119047D02*
X176734819Y-94833333D01*
X176734819Y-94833333D02*
X176687200Y-94738095D01*
X176687200Y-94738095D02*
X176639580Y-94690476D01*
X175734819Y-95642857D02*
X175734819Y-96309523D01*
X175734819Y-96309523D02*
X176734819Y-95880952D01*
X172234819Y-106857142D02*
X171758628Y-106523809D01*
X172234819Y-106285714D02*
X171234819Y-106285714D01*
X171234819Y-106285714D02*
X171234819Y-106666666D01*
X171234819Y-106666666D02*
X171282438Y-106761904D01*
X171282438Y-106761904D02*
X171330057Y-106809523D01*
X171330057Y-106809523D02*
X171425295Y-106857142D01*
X171425295Y-106857142D02*
X171568152Y-106857142D01*
X171568152Y-106857142D02*
X171663390Y-106809523D01*
X171663390Y-106809523D02*
X171711009Y-106761904D01*
X171711009Y-106761904D02*
X171758628Y-106666666D01*
X171758628Y-106666666D02*
X171758628Y-106285714D01*
X171234819Y-107190476D02*
X171234819Y-107809523D01*
X171234819Y-107809523D02*
X171615771Y-107476190D01*
X171615771Y-107476190D02*
X171615771Y-107619047D01*
X171615771Y-107619047D02*
X171663390Y-107714285D01*
X171663390Y-107714285D02*
X171711009Y-107761904D01*
X171711009Y-107761904D02*
X171806247Y-107809523D01*
X171806247Y-107809523D02*
X172044342Y-107809523D01*
X172044342Y-107809523D02*
X172139580Y-107761904D01*
X172139580Y-107761904D02*
X172187200Y-107714285D01*
X172187200Y-107714285D02*
X172234819Y-107619047D01*
X172234819Y-107619047D02*
X172234819Y-107333333D01*
X172234819Y-107333333D02*
X172187200Y-107238095D01*
X172187200Y-107238095D02*
X172139580Y-107190476D01*
X171663390Y-108380952D02*
X171615771Y-108285714D01*
X171615771Y-108285714D02*
X171568152Y-108238095D01*
X171568152Y-108238095D02*
X171472914Y-108190476D01*
X171472914Y-108190476D02*
X171425295Y-108190476D01*
X171425295Y-108190476D02*
X171330057Y-108238095D01*
X171330057Y-108238095D02*
X171282438Y-108285714D01*
X171282438Y-108285714D02*
X171234819Y-108380952D01*
X171234819Y-108380952D02*
X171234819Y-108571428D01*
X171234819Y-108571428D02*
X171282438Y-108666666D01*
X171282438Y-108666666D02*
X171330057Y-108714285D01*
X171330057Y-108714285D02*
X171425295Y-108761904D01*
X171425295Y-108761904D02*
X171472914Y-108761904D01*
X171472914Y-108761904D02*
X171568152Y-108714285D01*
X171568152Y-108714285D02*
X171615771Y-108666666D01*
X171615771Y-108666666D02*
X171663390Y-108571428D01*
X171663390Y-108571428D02*
X171663390Y-108380952D01*
X171663390Y-108380952D02*
X171711009Y-108285714D01*
X171711009Y-108285714D02*
X171758628Y-108238095D01*
X171758628Y-108238095D02*
X171853866Y-108190476D01*
X171853866Y-108190476D02*
X172044342Y-108190476D01*
X172044342Y-108190476D02*
X172139580Y-108238095D01*
X172139580Y-108238095D02*
X172187200Y-108285714D01*
X172187200Y-108285714D02*
X172234819Y-108380952D01*
X172234819Y-108380952D02*
X172234819Y-108571428D01*
X172234819Y-108571428D02*
X172187200Y-108666666D01*
X172187200Y-108666666D02*
X172139580Y-108714285D01*
X172139580Y-108714285D02*
X172044342Y-108761904D01*
X172044342Y-108761904D02*
X171853866Y-108761904D01*
X171853866Y-108761904D02*
X171758628Y-108714285D01*
X171758628Y-108714285D02*
X171711009Y-108666666D01*
X171711009Y-108666666D02*
X171663390Y-108571428D01*
X150392857Y-104809580D02*
X150440476Y-104857200D01*
X150440476Y-104857200D02*
X150583333Y-104904819D01*
X150583333Y-104904819D02*
X150678571Y-104904819D01*
X150678571Y-104904819D02*
X150821428Y-104857200D01*
X150821428Y-104857200D02*
X150916666Y-104761961D01*
X150916666Y-104761961D02*
X150964285Y-104666723D01*
X150964285Y-104666723D02*
X151011904Y-104476247D01*
X151011904Y-104476247D02*
X151011904Y-104333390D01*
X151011904Y-104333390D02*
X150964285Y-104142914D01*
X150964285Y-104142914D02*
X150916666Y-104047676D01*
X150916666Y-104047676D02*
X150821428Y-103952438D01*
X150821428Y-103952438D02*
X150678571Y-103904819D01*
X150678571Y-103904819D02*
X150583333Y-103904819D01*
X150583333Y-103904819D02*
X150440476Y-103952438D01*
X150440476Y-103952438D02*
X150392857Y-104000057D01*
X149535714Y-103904819D02*
X149726190Y-103904819D01*
X149726190Y-103904819D02*
X149821428Y-103952438D01*
X149821428Y-103952438D02*
X149869047Y-104000057D01*
X149869047Y-104000057D02*
X149964285Y-104142914D01*
X149964285Y-104142914D02*
X150011904Y-104333390D01*
X150011904Y-104333390D02*
X150011904Y-104714342D01*
X150011904Y-104714342D02*
X149964285Y-104809580D01*
X149964285Y-104809580D02*
X149916666Y-104857200D01*
X149916666Y-104857200D02*
X149821428Y-104904819D01*
X149821428Y-104904819D02*
X149630952Y-104904819D01*
X149630952Y-104904819D02*
X149535714Y-104857200D01*
X149535714Y-104857200D02*
X149488095Y-104809580D01*
X149488095Y-104809580D02*
X149440476Y-104714342D01*
X149440476Y-104714342D02*
X149440476Y-104476247D01*
X149440476Y-104476247D02*
X149488095Y-104381009D01*
X149488095Y-104381009D02*
X149535714Y-104333390D01*
X149535714Y-104333390D02*
X149630952Y-104285771D01*
X149630952Y-104285771D02*
X149821428Y-104285771D01*
X149821428Y-104285771D02*
X149916666Y-104333390D01*
X149916666Y-104333390D02*
X149964285Y-104381009D01*
X149964285Y-104381009D02*
X150011904Y-104476247D01*
X148488095Y-104904819D02*
X149059523Y-104904819D01*
X148773809Y-104904819D02*
X148773809Y-103904819D01*
X148773809Y-103904819D02*
X148869047Y-104047676D01*
X148869047Y-104047676D02*
X148964285Y-104142914D01*
X148964285Y-104142914D02*
X149059523Y-104190533D01*
D13*
X138989318Y-131957856D02*
X137719318Y-131957856D01*
X137719318Y-131957856D02*
X137719318Y-132441666D01*
X137719318Y-132441666D02*
X137779794Y-132562618D01*
X137779794Y-132562618D02*
X137840270Y-132623095D01*
X137840270Y-132623095D02*
X137961222Y-132683571D01*
X137961222Y-132683571D02*
X138142651Y-132683571D01*
X138142651Y-132683571D02*
X138263603Y-132623095D01*
X138263603Y-132623095D02*
X138324080Y-132562618D01*
X138324080Y-132562618D02*
X138384556Y-132441666D01*
X138384556Y-132441666D02*
X138384556Y-131957856D01*
X138928842Y-133167380D02*
X138989318Y-133348809D01*
X138989318Y-133348809D02*
X138989318Y-133651190D01*
X138989318Y-133651190D02*
X138928842Y-133772142D01*
X138928842Y-133772142D02*
X138868365Y-133832618D01*
X138868365Y-133832618D02*
X138747413Y-133893095D01*
X138747413Y-133893095D02*
X138626461Y-133893095D01*
X138626461Y-133893095D02*
X138505508Y-133832618D01*
X138505508Y-133832618D02*
X138445032Y-133772142D01*
X138445032Y-133772142D02*
X138384556Y-133651190D01*
X138384556Y-133651190D02*
X138324080Y-133409285D01*
X138324080Y-133409285D02*
X138263603Y-133288333D01*
X138263603Y-133288333D02*
X138203127Y-133227856D01*
X138203127Y-133227856D02*
X138082175Y-133167380D01*
X138082175Y-133167380D02*
X137961222Y-133167380D01*
X137961222Y-133167380D02*
X137840270Y-133227856D01*
X137840270Y-133227856D02*
X137779794Y-133288333D01*
X137779794Y-133288333D02*
X137719318Y-133409285D01*
X137719318Y-133409285D02*
X137719318Y-133711666D01*
X137719318Y-133711666D02*
X137779794Y-133893095D01*
X138989318Y-135102619D02*
X138989318Y-134376904D01*
X138989318Y-134739761D02*
X137719318Y-134739761D01*
X137719318Y-134739761D02*
X137900746Y-134618809D01*
X137900746Y-134618809D02*
X138021699Y-134497857D01*
X138021699Y-134497857D02*
X138082175Y-134376904D01*
D12*
X172642857Y-88559580D02*
X172690476Y-88607200D01*
X172690476Y-88607200D02*
X172833333Y-88654819D01*
X172833333Y-88654819D02*
X172928571Y-88654819D01*
X172928571Y-88654819D02*
X173071428Y-88607200D01*
X173071428Y-88607200D02*
X173166666Y-88511961D01*
X173166666Y-88511961D02*
X173214285Y-88416723D01*
X173214285Y-88416723D02*
X173261904Y-88226247D01*
X173261904Y-88226247D02*
X173261904Y-88083390D01*
X173261904Y-88083390D02*
X173214285Y-87892914D01*
X173214285Y-87892914D02*
X173166666Y-87797676D01*
X173166666Y-87797676D02*
X173071428Y-87702438D01*
X173071428Y-87702438D02*
X172928571Y-87654819D01*
X172928571Y-87654819D02*
X172833333Y-87654819D01*
X172833333Y-87654819D02*
X172690476Y-87702438D01*
X172690476Y-87702438D02*
X172642857Y-87750057D01*
X172071428Y-88083390D02*
X172166666Y-88035771D01*
X172166666Y-88035771D02*
X172214285Y-87988152D01*
X172214285Y-87988152D02*
X172261904Y-87892914D01*
X172261904Y-87892914D02*
X172261904Y-87845295D01*
X172261904Y-87845295D02*
X172214285Y-87750057D01*
X172214285Y-87750057D02*
X172166666Y-87702438D01*
X172166666Y-87702438D02*
X172071428Y-87654819D01*
X172071428Y-87654819D02*
X171880952Y-87654819D01*
X171880952Y-87654819D02*
X171785714Y-87702438D01*
X171785714Y-87702438D02*
X171738095Y-87750057D01*
X171738095Y-87750057D02*
X171690476Y-87845295D01*
X171690476Y-87845295D02*
X171690476Y-87892914D01*
X171690476Y-87892914D02*
X171738095Y-87988152D01*
X171738095Y-87988152D02*
X171785714Y-88035771D01*
X171785714Y-88035771D02*
X171880952Y-88083390D01*
X171880952Y-88083390D02*
X172071428Y-88083390D01*
X172071428Y-88083390D02*
X172166666Y-88131009D01*
X172166666Y-88131009D02*
X172214285Y-88178628D01*
X172214285Y-88178628D02*
X172261904Y-88273866D01*
X172261904Y-88273866D02*
X172261904Y-88464342D01*
X172261904Y-88464342D02*
X172214285Y-88559580D01*
X172214285Y-88559580D02*
X172166666Y-88607200D01*
X172166666Y-88607200D02*
X172071428Y-88654819D01*
X172071428Y-88654819D02*
X171880952Y-88654819D01*
X171880952Y-88654819D02*
X171785714Y-88607200D01*
X171785714Y-88607200D02*
X171738095Y-88559580D01*
X171738095Y-88559580D02*
X171690476Y-88464342D01*
X171690476Y-88464342D02*
X171690476Y-88273866D01*
X171690476Y-88273866D02*
X171738095Y-88178628D01*
X171738095Y-88178628D02*
X171785714Y-88131009D01*
X171785714Y-88131009D02*
X171880952Y-88083390D01*
X170833333Y-87988152D02*
X170833333Y-88654819D01*
X171071428Y-87607200D02*
X171309523Y-88321485D01*
X171309523Y-88321485D02*
X170690476Y-88321485D01*
X166392857Y-120609580D02*
X166440476Y-120657200D01*
X166440476Y-120657200D02*
X166583333Y-120704819D01*
X166583333Y-120704819D02*
X166678571Y-120704819D01*
X166678571Y-120704819D02*
X166821428Y-120657200D01*
X166821428Y-120657200D02*
X166916666Y-120561961D01*
X166916666Y-120561961D02*
X166964285Y-120466723D01*
X166964285Y-120466723D02*
X167011904Y-120276247D01*
X167011904Y-120276247D02*
X167011904Y-120133390D01*
X167011904Y-120133390D02*
X166964285Y-119942914D01*
X166964285Y-119942914D02*
X166916666Y-119847676D01*
X166916666Y-119847676D02*
X166821428Y-119752438D01*
X166821428Y-119752438D02*
X166678571Y-119704819D01*
X166678571Y-119704819D02*
X166583333Y-119704819D01*
X166583333Y-119704819D02*
X166440476Y-119752438D01*
X166440476Y-119752438D02*
X166392857Y-119800057D01*
X166011904Y-119800057D02*
X165964285Y-119752438D01*
X165964285Y-119752438D02*
X165869047Y-119704819D01*
X165869047Y-119704819D02*
X165630952Y-119704819D01*
X165630952Y-119704819D02*
X165535714Y-119752438D01*
X165535714Y-119752438D02*
X165488095Y-119800057D01*
X165488095Y-119800057D02*
X165440476Y-119895295D01*
X165440476Y-119895295D02*
X165440476Y-119990533D01*
X165440476Y-119990533D02*
X165488095Y-120133390D01*
X165488095Y-120133390D02*
X166059523Y-120704819D01*
X166059523Y-120704819D02*
X165440476Y-120704819D01*
X165059523Y-119800057D02*
X165011904Y-119752438D01*
X165011904Y-119752438D02*
X164916666Y-119704819D01*
X164916666Y-119704819D02*
X164678571Y-119704819D01*
X164678571Y-119704819D02*
X164583333Y-119752438D01*
X164583333Y-119752438D02*
X164535714Y-119800057D01*
X164535714Y-119800057D02*
X164488095Y-119895295D01*
X164488095Y-119895295D02*
X164488095Y-119990533D01*
X164488095Y-119990533D02*
X164535714Y-120133390D01*
X164535714Y-120133390D02*
X165107142Y-120704819D01*
X165107142Y-120704819D02*
X164488095Y-120704819D01*
D13*
X111953365Y-103683571D02*
X112013842Y-103623095D01*
X112013842Y-103623095D02*
X112074318Y-103441666D01*
X112074318Y-103441666D02*
X112074318Y-103320714D01*
X112074318Y-103320714D02*
X112013842Y-103139285D01*
X112013842Y-103139285D02*
X111892889Y-103018333D01*
X111892889Y-103018333D02*
X111771937Y-102957856D01*
X111771937Y-102957856D02*
X111530032Y-102897380D01*
X111530032Y-102897380D02*
X111348603Y-102897380D01*
X111348603Y-102897380D02*
X111106699Y-102957856D01*
X111106699Y-102957856D02*
X110985746Y-103018333D01*
X110985746Y-103018333D02*
X110864794Y-103139285D01*
X110864794Y-103139285D02*
X110804318Y-103320714D01*
X110804318Y-103320714D02*
X110804318Y-103441666D01*
X110804318Y-103441666D02*
X110864794Y-103623095D01*
X110864794Y-103623095D02*
X110925270Y-103683571D01*
X111227651Y-104772142D02*
X112074318Y-104772142D01*
X110743842Y-104469761D02*
X111650984Y-104167380D01*
X111650984Y-104167380D02*
X111650984Y-104953571D01*
X110804318Y-105679285D02*
X110804318Y-105800238D01*
X110804318Y-105800238D02*
X110864794Y-105921190D01*
X110864794Y-105921190D02*
X110925270Y-105981666D01*
X110925270Y-105981666D02*
X111046222Y-106042142D01*
X111046222Y-106042142D02*
X111288127Y-106102619D01*
X111288127Y-106102619D02*
X111590508Y-106102619D01*
X111590508Y-106102619D02*
X111832413Y-106042142D01*
X111832413Y-106042142D02*
X111953365Y-105981666D01*
X111953365Y-105981666D02*
X112013842Y-105921190D01*
X112013842Y-105921190D02*
X112074318Y-105800238D01*
X112074318Y-105800238D02*
X112074318Y-105679285D01*
X112074318Y-105679285D02*
X112013842Y-105558333D01*
X112013842Y-105558333D02*
X111953365Y-105497857D01*
X111953365Y-105497857D02*
X111832413Y-105437380D01*
X111832413Y-105437380D02*
X111590508Y-105376904D01*
X111590508Y-105376904D02*
X111288127Y-105376904D01*
X111288127Y-105376904D02*
X111046222Y-105437380D01*
X111046222Y-105437380D02*
X110925270Y-105497857D01*
X110925270Y-105497857D02*
X110864794Y-105558333D01*
X110864794Y-105558333D02*
X110804318Y-105679285D01*
D14*
X117491466Y-98803884D02*
X117491466Y-99565789D01*
X117872419Y-99184836D02*
X117110514Y-99184836D01*
D12*
X173642857Y-101059580D02*
X173690476Y-101107200D01*
X173690476Y-101107200D02*
X173833333Y-101154819D01*
X173833333Y-101154819D02*
X173928571Y-101154819D01*
X173928571Y-101154819D02*
X174071428Y-101107200D01*
X174071428Y-101107200D02*
X174166666Y-101011961D01*
X174166666Y-101011961D02*
X174214285Y-100916723D01*
X174214285Y-100916723D02*
X174261904Y-100726247D01*
X174261904Y-100726247D02*
X174261904Y-100583390D01*
X174261904Y-100583390D02*
X174214285Y-100392914D01*
X174214285Y-100392914D02*
X174166666Y-100297676D01*
X174166666Y-100297676D02*
X174071428Y-100202438D01*
X174071428Y-100202438D02*
X173928571Y-100154819D01*
X173928571Y-100154819D02*
X173833333Y-100154819D01*
X173833333Y-100154819D02*
X173690476Y-100202438D01*
X173690476Y-100202438D02*
X173642857Y-100250057D01*
X173071428Y-100583390D02*
X173166666Y-100535771D01*
X173166666Y-100535771D02*
X173214285Y-100488152D01*
X173214285Y-100488152D02*
X173261904Y-100392914D01*
X173261904Y-100392914D02*
X173261904Y-100345295D01*
X173261904Y-100345295D02*
X173214285Y-100250057D01*
X173214285Y-100250057D02*
X173166666Y-100202438D01*
X173166666Y-100202438D02*
X173071428Y-100154819D01*
X173071428Y-100154819D02*
X172880952Y-100154819D01*
X172880952Y-100154819D02*
X172785714Y-100202438D01*
X172785714Y-100202438D02*
X172738095Y-100250057D01*
X172738095Y-100250057D02*
X172690476Y-100345295D01*
X172690476Y-100345295D02*
X172690476Y-100392914D01*
X172690476Y-100392914D02*
X172738095Y-100488152D01*
X172738095Y-100488152D02*
X172785714Y-100535771D01*
X172785714Y-100535771D02*
X172880952Y-100583390D01*
X172880952Y-100583390D02*
X173071428Y-100583390D01*
X173071428Y-100583390D02*
X173166666Y-100631009D01*
X173166666Y-100631009D02*
X173214285Y-100678628D01*
X173214285Y-100678628D02*
X173261904Y-100773866D01*
X173261904Y-100773866D02*
X173261904Y-100964342D01*
X173261904Y-100964342D02*
X173214285Y-101059580D01*
X173214285Y-101059580D02*
X173166666Y-101107200D01*
X173166666Y-101107200D02*
X173071428Y-101154819D01*
X173071428Y-101154819D02*
X172880952Y-101154819D01*
X172880952Y-101154819D02*
X172785714Y-101107200D01*
X172785714Y-101107200D02*
X172738095Y-101059580D01*
X172738095Y-101059580D02*
X172690476Y-100964342D01*
X172690476Y-100964342D02*
X172690476Y-100773866D01*
X172690476Y-100773866D02*
X172738095Y-100678628D01*
X172738095Y-100678628D02*
X172785714Y-100631009D01*
X172785714Y-100631009D02*
X172880952Y-100583390D01*
X172309523Y-100250057D02*
X172261904Y-100202438D01*
X172261904Y-100202438D02*
X172166666Y-100154819D01*
X172166666Y-100154819D02*
X171928571Y-100154819D01*
X171928571Y-100154819D02*
X171833333Y-100202438D01*
X171833333Y-100202438D02*
X171785714Y-100250057D01*
X171785714Y-100250057D02*
X171738095Y-100345295D01*
X171738095Y-100345295D02*
X171738095Y-100440533D01*
X171738095Y-100440533D02*
X171785714Y-100583390D01*
X171785714Y-100583390D02*
X172357142Y-101154819D01*
X172357142Y-101154819D02*
X171738095Y-101154819D01*
D13*
X98702143Y-112074318D02*
X98702143Y-110804318D01*
X98702143Y-110804318D02*
X98218333Y-110804318D01*
X98218333Y-110804318D02*
X98097381Y-110864794D01*
X98097381Y-110864794D02*
X98036904Y-110925270D01*
X98036904Y-110925270D02*
X97976428Y-111046222D01*
X97976428Y-111046222D02*
X97976428Y-111227651D01*
X97976428Y-111227651D02*
X98036904Y-111348603D01*
X98036904Y-111348603D02*
X98097381Y-111409080D01*
X98097381Y-111409080D02*
X98218333Y-111469556D01*
X98218333Y-111469556D02*
X98702143Y-111469556D01*
X97492619Y-112013842D02*
X97311190Y-112074318D01*
X97311190Y-112074318D02*
X97008809Y-112074318D01*
X97008809Y-112074318D02*
X96887857Y-112013842D01*
X96887857Y-112013842D02*
X96827381Y-111953365D01*
X96827381Y-111953365D02*
X96766904Y-111832413D01*
X96766904Y-111832413D02*
X96766904Y-111711461D01*
X96766904Y-111711461D02*
X96827381Y-111590508D01*
X96827381Y-111590508D02*
X96887857Y-111530032D01*
X96887857Y-111530032D02*
X97008809Y-111469556D01*
X97008809Y-111469556D02*
X97250714Y-111409080D01*
X97250714Y-111409080D02*
X97371666Y-111348603D01*
X97371666Y-111348603D02*
X97432143Y-111288127D01*
X97432143Y-111288127D02*
X97492619Y-111167175D01*
X97492619Y-111167175D02*
X97492619Y-111046222D01*
X97492619Y-111046222D02*
X97432143Y-110925270D01*
X97432143Y-110925270D02*
X97371666Y-110864794D01*
X97371666Y-110864794D02*
X97250714Y-110804318D01*
X97250714Y-110804318D02*
X96948333Y-110804318D01*
X96948333Y-110804318D02*
X96766904Y-110864794D01*
X96343571Y-110804318D02*
X95557380Y-110804318D01*
X95557380Y-110804318D02*
X95980714Y-111288127D01*
X95980714Y-111288127D02*
X95799285Y-111288127D01*
X95799285Y-111288127D02*
X95678333Y-111348603D01*
X95678333Y-111348603D02*
X95617857Y-111409080D01*
X95617857Y-111409080D02*
X95557380Y-111530032D01*
X95557380Y-111530032D02*
X95557380Y-111832413D01*
X95557380Y-111832413D02*
X95617857Y-111953365D01*
X95617857Y-111953365D02*
X95678333Y-112013842D01*
X95678333Y-112013842D02*
X95799285Y-112074318D01*
X95799285Y-112074318D02*
X96162142Y-112074318D01*
X96162142Y-112074318D02*
X96283095Y-112013842D01*
X96283095Y-112013842D02*
X96343571Y-111953365D01*
D15*
%TO.C,C26*%
X148711252Y-95640000D02*
X147288748Y-95640000D01*
X148711252Y-98360000D02*
X147288748Y-98360000D01*
D16*
%TO.C,C39*%
X161125000Y-153000000D02*
G75*
G02*
X150875000Y-153000000I-5125000J0D01*
G01*
X150875000Y-153000000D02*
G75*
G02*
X161125000Y-153000000I5125000J0D01*
G01*
%TO.C,C56*%
X110125000Y-116000000D02*
G75*
G02*
X99875000Y-116000000I-5125000J0D01*
G01*
X99875000Y-116000000D02*
G75*
G02*
X110125000Y-116000000I5125000J0D01*
G01*
D15*
%TO.C,C63*%
X155961252Y-105640000D02*
X154538748Y-105640000D01*
X155961252Y-108360000D02*
X154538748Y-108360000D01*
%TO.C,C77*%
X150851248Y-121640000D02*
X152273752Y-121640000D01*
X150851248Y-124360000D02*
X152273752Y-124360000D01*
D16*
%TO.C,C42*%
X122625000Y-93500000D02*
G75*
G02*
X112375000Y-93500000I-5125000J0D01*
G01*
X112375000Y-93500000D02*
G75*
G02*
X122625000Y-93500000I5125000J0D01*
G01*
D14*
%TO.C,PS4*%
X128720000Y-101675000D02*
X128720000Y-101675000D01*
X128720000Y-101675000D02*
X128720000Y-101675000D01*
X128720000Y-101675000D02*
X128720000Y-121325000D01*
X128720000Y-101675000D02*
X135770000Y-101675000D01*
X128720000Y-121325000D02*
X128720000Y-101675000D01*
X128720000Y-121325000D02*
X128720000Y-121325000D01*
X128720000Y-121325000D02*
X128720000Y-121325000D01*
X128720000Y-121325000D02*
X135770000Y-121325000D01*
X135770000Y-101675000D02*
X128720000Y-101675000D01*
X135770000Y-101675000D02*
X135770000Y-101675000D01*
X135770000Y-101675000D02*
X135770000Y-101675000D01*
X135770000Y-101675000D02*
X135770000Y-102575000D01*
X135770000Y-102575000D02*
X135770000Y-101675000D01*
X135770000Y-102575000D02*
X135770000Y-102575000D01*
X135770000Y-105575000D02*
X135770000Y-105575000D01*
X135770000Y-105575000D02*
X135770000Y-107575000D01*
X135770000Y-107575000D02*
X135770000Y-105575000D01*
X135770000Y-107575000D02*
X135770000Y-107575000D01*
X135770000Y-110575000D02*
X135770000Y-110575000D01*
X135770000Y-110575000D02*
X135770000Y-115325000D01*
X135770000Y-115325000D02*
X135770000Y-110575000D01*
X135770000Y-115325000D02*
X135770000Y-115325000D01*
X135770000Y-120825000D02*
X135770000Y-120825000D01*
X135770000Y-120825000D02*
X135770000Y-121325000D01*
X135770000Y-121325000D02*
X128720000Y-121325000D01*
X135770000Y-121325000D02*
X135770000Y-120825000D01*
X135770000Y-121325000D02*
X135770000Y-121325000D01*
X135770000Y-121325000D02*
X135770000Y-121325000D01*
D16*
X136900000Y-119325000D02*
X136900000Y-119325000D01*
X137000000Y-119325000D02*
X137000000Y-119325000D01*
X137000000Y-119325000D02*
X137000000Y-119325000D01*
X136900000Y-119325000D02*
G75*
G02*
X137000000Y-119325000I50000J0D01*
G01*
X137000000Y-119325000D02*
G75*
G02*
X136900000Y-119325000I-50000J0D01*
G01*
X137000000Y-119325000D02*
G75*
G02*
X136900000Y-119325000I-50000J0D01*
G01*
D15*
%TO.C,C88*%
X163890000Y-105288748D02*
X163890000Y-106711252D01*
X166610000Y-105288748D02*
X166610000Y-106711252D01*
%TO.C,C87*%
X162461252Y-115390000D02*
X161038748Y-115390000D01*
X162461252Y-118110000D02*
X161038748Y-118110000D01*
D16*
%TO.C,C38*%
X172625000Y-153000000D02*
G75*
G02*
X162375000Y-153000000I-5125000J0D01*
G01*
X162375000Y-153000000D02*
G75*
G02*
X172625000Y-153000000I5125000J0D01*
G01*
%TO.C,C41*%
X122625000Y-116500000D02*
G75*
G02*
X112375000Y-116500000I-5125000J0D01*
G01*
X112375000Y-116500000D02*
G75*
G02*
X122625000Y-116500000I5125000J0D01*
G01*
D15*
%TO.C,C27*%
X148711252Y-100140000D02*
X147288748Y-100140000D01*
X148711252Y-102860000D02*
X147288748Y-102860000D01*
D13*
%TO.C,J4*%
X170429610Y-115488500D02*
X185429610Y-115488500D01*
X170429610Y-146388500D02*
X170429610Y-115488500D01*
X185429610Y-115488500D02*
X185429610Y-146388500D01*
X185429610Y-146388500D02*
X170429610Y-146388500D01*
X169611830Y-137115500D02*
G75*
G02*
X169447390Y-137115500I-82220J0D01*
G01*
X169447390Y-137115500D02*
G75*
G02*
X169611830Y-137115500I82220J0D01*
G01*
D16*
%TO.C,C55*%
X122625000Y-128000000D02*
G75*
G02*
X112375000Y-128000000I-5125000J0D01*
G01*
X112375000Y-128000000D02*
G75*
G02*
X122625000Y-128000000I5125000J0D01*
G01*
D15*
%TO.C,R31*%
X150826263Y-118145000D02*
X152273737Y-118145000D01*
X150826263Y-120855000D02*
X152273737Y-120855000D01*
D16*
%TO.C,C37*%
X149625000Y-152500000D02*
G75*
G02*
X139375000Y-152500000I-5125000J0D01*
G01*
X139375000Y-152500000D02*
G75*
G02*
X149625000Y-152500000I5125000J0D01*
G01*
D15*
%TO.C,R23*%
X147273737Y-118145000D02*
X145826263Y-118145000D01*
X147273737Y-120855000D02*
X145826263Y-120855000D01*
D17*
%TO.C,G\u002A\u002A\u002A*%
G36*
X152947743Y-139358731D02*
G01*
X152956462Y-139396614D01*
X152952447Y-139417792D01*
X152936923Y-139423615D01*
X152926104Y-139410345D01*
X152917385Y-139372463D01*
X152921400Y-139351284D01*
X152936923Y-139345461D01*
X152947743Y-139358731D01*
G37*
G36*
X153082681Y-139573460D02*
G01*
X153093231Y-139599461D01*
X153091027Y-139612944D01*
X153073692Y-139628769D01*
X153064704Y-139625462D01*
X153054154Y-139599461D01*
X153056358Y-139585979D01*
X153073692Y-139570154D01*
X153082681Y-139573460D01*
G37*
G36*
X155142787Y-136815798D02*
G01*
X155163699Y-136831927D01*
X155151813Y-136860289D01*
X155143679Y-136865240D01*
X155118620Y-136859130D01*
X155105692Y-136833616D01*
X155108990Y-136825169D01*
X155135000Y-136815231D01*
X155142787Y-136815798D01*
G37*
G36*
X155266890Y-140961784D02*
G01*
X155281539Y-140985259D01*
X155274421Y-141003588D01*
X155240834Y-141016000D01*
X155229146Y-141014921D01*
X155209120Y-140999728D01*
X155216397Y-140977153D01*
X155248965Y-140960836D01*
X155266890Y-140961784D01*
G37*
G36*
X152468895Y-139766987D02*
G01*
X152475077Y-139780331D01*
X152475327Y-139808567D01*
X152469986Y-139815533D01*
X152444286Y-139821947D01*
X152422098Y-139795472D01*
X152421172Y-139792847D01*
X152423873Y-139762809D01*
X152444913Y-139751065D01*
X152468895Y-139766987D01*
G37*
G36*
X155116180Y-137931036D02*
G01*
X155131278Y-137954092D01*
X155133671Y-137993726D01*
X155127837Y-138005800D01*
X155109138Y-138017064D01*
X155093015Y-137997512D01*
X155086154Y-137952891D01*
X155086930Y-137927120D01*
X155094553Y-137913719D01*
X155116180Y-137931036D01*
G37*
G36*
X155183892Y-141014334D02*
G01*
X155170821Y-141042051D01*
X155158153Y-141048966D01*
X155120346Y-141055077D01*
X155101037Y-141051750D01*
X155090564Y-141034963D01*
X155105468Y-141013932D01*
X155141415Y-140999987D01*
X155163898Y-140999640D01*
X155183892Y-141014334D01*
G37*
G36*
X152865463Y-140392307D02*
G01*
X152883236Y-140426784D01*
X152884891Y-140454539D01*
X152884706Y-140454826D01*
X152864624Y-140455368D01*
X152832735Y-140432034D01*
X152830787Y-140430067D01*
X152805909Y-140394975D01*
X152813307Y-140369801D01*
X152813981Y-140369139D01*
X152837206Y-140363465D01*
X152865463Y-140392307D01*
G37*
G36*
X154963651Y-136765939D02*
G01*
X154985397Y-136770182D01*
X155037751Y-136783713D01*
X155059215Y-136798042D01*
X155056012Y-136816581D01*
X155053454Y-136820003D01*
X155020572Y-136832993D01*
X154973544Y-136828525D01*
X154928521Y-136810240D01*
X154901652Y-136781778D01*
X154899287Y-136765568D01*
X154916664Y-136759458D01*
X154963651Y-136765939D01*
G37*
G36*
X155252499Y-136856101D02*
G01*
X155294054Y-136870519D01*
X155324261Y-136892553D01*
X155329779Y-136913903D01*
X155327671Y-136917289D01*
X155315947Y-136929850D01*
X155295920Y-136928587D01*
X155253503Y-136913406D01*
X155238731Y-136906903D01*
X155209015Y-136883719D01*
X155206433Y-136863169D01*
X155233977Y-136854307D01*
X155252499Y-136856101D01*
G37*
G36*
X156465833Y-139885998D02*
G01*
X156454207Y-139930005D01*
X156426039Y-139992382D01*
X156401921Y-140035351D01*
X156370756Y-140076385D01*
X156350418Y-140080233D01*
X156344322Y-140069207D01*
X156347302Y-140026752D01*
X156371653Y-139968180D01*
X156414109Y-139902599D01*
X156441961Y-139871898D01*
X156461543Y-139865062D01*
X156465833Y-139885998D01*
G37*
G36*
X156673338Y-138829895D02*
G01*
X156684033Y-138857635D01*
X156688308Y-138906999D01*
X156687942Y-138924162D01*
X156681597Y-138965436D01*
X156668769Y-138974231D01*
X156667046Y-138972904D01*
X156654408Y-138943590D01*
X156649231Y-138894924D01*
X156649369Y-138886940D01*
X156655767Y-138844847D01*
X156668769Y-138827692D01*
X156673338Y-138829895D01*
G37*
G36*
X152556310Y-138951870D02*
G01*
X152585956Y-138975496D01*
X152612687Y-139007497D01*
X152624308Y-139035874D01*
X152622609Y-139046560D01*
X152604769Y-139062154D01*
X152596588Y-139059665D01*
X152585231Y-139035238D01*
X152580541Y-139016893D01*
X152555451Y-138983608D01*
X152540083Y-138967405D01*
X152535793Y-138948771D01*
X152535946Y-138948623D01*
X152556310Y-138951870D01*
G37*
G36*
X155813184Y-137164098D02*
G01*
X155864980Y-137205145D01*
X155883006Y-137221895D01*
X155912063Y-137258324D01*
X155917509Y-137282583D01*
X155916674Y-137283721D01*
X155893881Y-137284707D01*
X155856563Y-137266010D01*
X155815975Y-137235885D01*
X155783370Y-137202588D01*
X155770000Y-137174373D01*
X155771110Y-137161572D01*
X155783443Y-137150076D01*
X155813184Y-137164098D01*
G37*
G36*
X152945402Y-140475447D02*
G01*
X152980479Y-140504091D01*
X153024195Y-140546597D01*
X153067109Y-140593096D01*
X153099781Y-140633722D01*
X153112769Y-140658606D01*
X153108998Y-140677650D01*
X153091254Y-140679511D01*
X153055905Y-140654227D01*
X152999607Y-140600068D01*
X152966467Y-140564298D01*
X152928755Y-140514137D01*
X152916296Y-140480933D01*
X152931299Y-140468923D01*
X152945402Y-140475447D01*
G37*
G36*
X153233100Y-139940880D02*
G01*
X153260869Y-139980908D01*
X153272601Y-140000619D01*
X153270483Y-140036801D01*
X153263296Y-140057838D01*
X153264666Y-140102471D01*
X153266691Y-140129466D01*
X153247617Y-140132957D01*
X153237525Y-140125343D01*
X153223117Y-140084721D01*
X153216300Y-140008225D01*
X153215806Y-139956792D01*
X153218422Y-139923497D01*
X153223734Y-139921846D01*
X153233100Y-139940880D01*
G37*
G36*
X155923916Y-140595032D02*
G01*
X155919060Y-140615629D01*
X155891228Y-140645305D01*
X155835771Y-140690539D01*
X155819121Y-140703195D01*
X155759819Y-140740608D01*
X155723631Y-140748269D01*
X155711385Y-140725940D01*
X155724568Y-140707396D01*
X155759874Y-140676363D01*
X155806924Y-140640751D01*
X155855310Y-140607996D01*
X155894624Y-140585539D01*
X155914457Y-140580816D01*
X155923916Y-140595032D01*
G37*
G36*
X156084416Y-140423831D02*
G01*
X156087304Y-140429249D01*
X156077527Y-140459650D01*
X156041318Y-140504190D01*
X156001804Y-140543583D01*
X155977281Y-140562342D01*
X155967287Y-140556334D01*
X155965385Y-140527538D01*
X155970824Y-140504750D01*
X155994692Y-140488461D01*
X156008335Y-140485204D01*
X156024000Y-140460307D01*
X156030790Y-140434899D01*
X156055715Y-140415502D01*
X156084416Y-140423831D01*
G37*
G36*
X151347717Y-138599209D02*
G01*
X151388883Y-138617894D01*
X151438543Y-138642546D01*
X151482715Y-138666188D01*
X151507420Y-138681840D01*
X151506085Y-138693115D01*
X151492461Y-138731398D01*
X151468822Y-138786252D01*
X151423651Y-138884716D01*
X151401070Y-138812242D01*
X151399416Y-138807005D01*
X151374487Y-138736155D01*
X151346598Y-138666500D01*
X151339133Y-138648246D01*
X151327364Y-138608910D01*
X151329912Y-138593231D01*
X151347717Y-138599209D01*
G37*
G36*
X156627794Y-139450181D02*
G01*
X156624201Y-139491435D01*
X156602192Y-139554837D01*
X156597721Y-139565639D01*
X156573728Y-139632145D01*
X156552561Y-139702038D01*
X156548823Y-139715113D01*
X156526027Y-139766567D01*
X156500592Y-139785077D01*
X156481348Y-139777074D01*
X156483677Y-139744353D01*
X156526351Y-139614716D01*
X156561414Y-139519232D01*
X156588105Y-139460480D01*
X156606690Y-139437795D01*
X156612763Y-139436490D01*
X156627794Y-139450181D01*
G37*
G36*
X156670651Y-139082411D02*
G01*
X156682855Y-139094932D01*
X156685465Y-139129401D01*
X156679629Y-139194038D01*
X156673501Y-139241798D01*
X156663958Y-139303610D01*
X156655899Y-139342543D01*
X156643917Y-139369755D01*
X156632605Y-139367511D01*
X156624615Y-139336968D01*
X156621337Y-139283775D01*
X156624161Y-139213577D01*
X156625409Y-139199146D01*
X156634367Y-139129894D01*
X156646604Y-139092742D01*
X156663926Y-139081692D01*
X156670651Y-139082411D01*
G37*
G36*
X153304454Y-137050481D02*
G01*
X153309662Y-137066426D01*
X153287055Y-137099891D01*
X153239879Y-137146925D01*
X153171385Y-137203578D01*
X153137180Y-137229727D01*
X153076649Y-137273940D01*
X153039282Y-137296700D01*
X153020338Y-137300572D01*
X153015077Y-137288119D01*
X153023893Y-137270704D01*
X153057074Y-137233608D01*
X153106807Y-137186877D01*
X153164428Y-137137815D01*
X153221269Y-137093728D01*
X153268665Y-137061918D01*
X153297949Y-137049692D01*
X153304454Y-137050481D01*
G37*
G36*
X152274093Y-138847411D02*
G01*
X152286941Y-138867507D01*
X152292293Y-138910731D01*
X152293760Y-138954777D01*
X152298325Y-139027322D01*
X152304888Y-139106115D01*
X152309000Y-139164102D01*
X152307459Y-139219241D01*
X152297070Y-139238000D01*
X152285534Y-139233963D01*
X152264937Y-139207094D01*
X152258541Y-139175840D01*
X152254220Y-139118717D01*
X152252861Y-139048684D01*
X152254243Y-138976131D01*
X152258144Y-138911445D01*
X152264342Y-138865016D01*
X152272616Y-138847231D01*
X152274093Y-138847411D01*
G37*
G36*
X153605506Y-140921854D02*
G01*
X153633285Y-140936359D01*
X153693181Y-140961118D01*
X153762423Y-140984935D01*
X153801473Y-140998232D01*
X153855889Y-141024752D01*
X153874769Y-141049216D01*
X153871450Y-141062681D01*
X153849973Y-141069281D01*
X153849087Y-141068943D01*
X153817281Y-141057537D01*
X153760820Y-141037811D01*
X153691319Y-141013827D01*
X153645669Y-140997045D01*
X153575519Y-140963175D01*
X153543249Y-140932381D01*
X153549361Y-140905049D01*
X153569017Y-140904747D01*
X153605506Y-140921854D01*
G37*
G36*
X154011289Y-136767985D02*
G01*
X154011539Y-136784227D01*
X154001320Y-136799699D01*
X153958864Y-136824446D01*
X153889423Y-136850549D01*
X153888917Y-136850710D01*
X153814453Y-136874088D01*
X153769679Y-136886479D01*
X153747046Y-136888595D01*
X153739003Y-136881152D01*
X153738000Y-136864862D01*
X153747385Y-136849425D01*
X153791089Y-136824076D01*
X153867058Y-136796477D01*
X153876107Y-136793680D01*
X153945532Y-136772343D01*
X153986037Y-136761386D01*
X154005372Y-136760153D01*
X154011289Y-136767985D01*
G37*
G36*
X156316839Y-140126852D02*
G01*
X156319284Y-140128630D01*
X156324654Y-140148918D01*
X156308974Y-140186182D01*
X156270197Y-140244118D01*
X156206275Y-140326421D01*
X156183139Y-140353572D01*
X156140008Y-140391280D01*
X156108301Y-140396445D01*
X156095261Y-140390663D01*
X156089518Y-140377432D01*
X156114334Y-140353332D01*
X156120699Y-140347718D01*
X156157970Y-140306154D01*
X156195494Y-140254000D01*
X156238294Y-140189005D01*
X156273087Y-140144102D01*
X156297795Y-140124928D01*
X156316839Y-140126852D01*
G37*
G36*
X157594842Y-138611200D02*
G01*
X157580481Y-138652629D01*
X157556875Y-138710461D01*
X157537338Y-138759034D01*
X157517386Y-138818279D01*
X157509097Y-138857000D01*
X157504621Y-138867087D01*
X157487740Y-138849621D01*
X157459645Y-138798384D01*
X157440207Y-138757686D01*
X157419515Y-138710608D01*
X157411410Y-138686527D01*
X157414272Y-138681904D01*
X157441097Y-138663297D01*
X157485697Y-138639238D01*
X157535164Y-138615968D01*
X157576591Y-138599729D01*
X157597069Y-138596760D01*
X157594842Y-138611200D01*
G37*
G36*
X153649001Y-136877157D02*
G01*
X153659846Y-136903154D01*
X153659730Y-136906331D01*
X153641462Y-136932067D01*
X153595077Y-136934352D01*
X153590280Y-136934890D01*
X153559772Y-136950341D01*
X153516924Y-136980668D01*
X153485283Y-137002651D01*
X153436455Y-137025322D01*
X153400384Y-137028783D01*
X153386308Y-137010896D01*
X153386344Y-137010437D01*
X153403723Y-136993036D01*
X153445444Y-136965702D01*
X153500708Y-136934275D01*
X153558715Y-136904597D01*
X153608662Y-136882507D01*
X153639751Y-136873846D01*
X153649001Y-136877157D01*
G37*
G36*
X152510909Y-139866239D02*
G01*
X152526616Y-139889405D01*
X152536039Y-139913553D01*
X152563279Y-139963344D01*
X152604038Y-140030900D01*
X152653996Y-140108784D01*
X152697907Y-140177977D01*
X152739205Y-140249922D01*
X152764460Y-140303038D01*
X152770293Y-140330873D01*
X152756261Y-140340296D01*
X152730174Y-140321752D01*
X152690808Y-140273216D01*
X152636809Y-140193012D01*
X152566821Y-140079467D01*
X152517455Y-139994757D01*
X152484536Y-139930668D01*
X152471140Y-139890293D01*
X152475865Y-139869269D01*
X152497308Y-139863231D01*
X152510909Y-139866239D01*
G37*
G36*
X153219491Y-140702187D02*
G01*
X153235035Y-140716414D01*
X153276674Y-140745388D01*
X153332990Y-140779996D01*
X153338819Y-140783389D01*
X153410285Y-140825452D01*
X153453952Y-140853112D01*
X153475559Y-140871066D01*
X153480845Y-140884009D01*
X153475548Y-140896637D01*
X153475484Y-140896741D01*
X153464032Y-140906841D01*
X153444154Y-140905666D01*
X153409849Y-140890583D01*
X153355118Y-140858958D01*
X153273962Y-140808158D01*
X153226920Y-140774941D01*
X153186808Y-140738736D01*
X153171385Y-140713396D01*
X153174410Y-140697517D01*
X153194628Y-140684313D01*
X153219491Y-140702187D01*
G37*
G36*
X155459660Y-136946495D02*
G01*
X155530654Y-136983140D01*
X155599098Y-137021070D01*
X155672457Y-137063526D01*
X155718965Y-137093728D01*
X155743381Y-137114857D01*
X155750462Y-137130093D01*
X155742576Y-137144578D01*
X155712281Y-137146332D01*
X155669509Y-137130057D01*
X155625308Y-137098538D01*
X155617919Y-137091843D01*
X155579801Y-137061869D01*
X155555187Y-137049692D01*
X155540052Y-137046850D01*
X155497999Y-137027119D01*
X155451653Y-136996406D01*
X155414186Y-136964012D01*
X155398769Y-136939239D01*
X155399725Y-136934380D01*
X155417248Y-136930651D01*
X155459660Y-136946495D01*
G37*
G36*
X155094672Y-137022932D02*
G01*
X155172650Y-137049680D01*
X155267359Y-137090507D01*
X155371902Y-137141887D01*
X155479381Y-137200295D01*
X155582899Y-137262203D01*
X155675558Y-137324088D01*
X155750462Y-137382422D01*
X155786659Y-137414650D01*
X155818736Y-137446653D01*
X155821028Y-137455894D01*
X155794500Y-137442708D01*
X155740116Y-137407433D01*
X155658841Y-137350407D01*
X155621024Y-137323784D01*
X155380017Y-137178675D01*
X155125231Y-137067256D01*
X155116838Y-137064166D01*
X155061954Y-137041350D01*
X155031223Y-137023656D01*
X155031108Y-137014692D01*
X155040323Y-137013789D01*
X155094672Y-137022932D01*
G37*
G36*
X155659129Y-140780082D02*
G01*
X155667408Y-140790003D01*
X155671005Y-140807043D01*
X155670340Y-140807558D01*
X155635702Y-140829980D01*
X155584527Y-140858808D01*
X155529376Y-140887501D01*
X155482811Y-140909515D01*
X155457395Y-140918307D01*
X155439436Y-140923552D01*
X155405747Y-140947615D01*
X155383325Y-140965089D01*
X155341468Y-140975824D01*
X155310593Y-140956975D01*
X155309505Y-140952507D01*
X155325928Y-140931256D01*
X155366631Y-140908462D01*
X155400678Y-140892890D01*
X155467988Y-140858414D01*
X155536891Y-140819818D01*
X155581002Y-140795460D01*
X155632033Y-140775640D01*
X155659129Y-140780082D01*
G37*
G36*
X152327176Y-139330626D02*
G01*
X152346004Y-139374738D01*
X152361003Y-139442754D01*
X152362370Y-139451036D01*
X152378432Y-139520082D01*
X152398866Y-139579923D01*
X152420143Y-139632196D01*
X152437836Y-139682500D01*
X152441693Y-139715612D01*
X152421986Y-139726461D01*
X152410995Y-139721635D01*
X152387489Y-139691462D01*
X152366334Y-139646836D01*
X152354176Y-139603272D01*
X152357661Y-139576288D01*
X152358884Y-139565117D01*
X152341232Y-139538286D01*
X152325162Y-139510415D01*
X152308962Y-139458890D01*
X152297657Y-139400355D01*
X152293971Y-139349422D01*
X152300632Y-139320701D01*
X152307637Y-139316716D01*
X152327176Y-139330626D01*
G37*
G36*
X157232885Y-136523284D02*
G01*
X157260956Y-136557062D01*
X157302281Y-136625657D01*
X157335445Y-136689465D01*
X157369301Y-136769765D01*
X157387314Y-136834481D01*
X157387987Y-136877684D01*
X157369826Y-136893445D01*
X157341922Y-136900686D01*
X157289589Y-136921289D01*
X157225616Y-136950563D01*
X157166374Y-136979358D01*
X157122729Y-137000498D01*
X157104729Y-137009117D01*
X157102896Y-137007296D01*
X157104524Y-136979823D01*
X157113556Y-136926256D01*
X157128079Y-136854940D01*
X157146177Y-136774220D01*
X157165934Y-136692443D01*
X157185436Y-136617954D01*
X157202767Y-136559098D01*
X157216011Y-136524221D01*
X157216819Y-136522852D01*
X157232885Y-136523284D01*
G37*
G36*
X151700363Y-136510605D02*
G01*
X151713175Y-136542176D01*
X151731189Y-136599814D01*
X151751702Y-136673469D01*
X151772016Y-136753095D01*
X151789430Y-136828645D01*
X151801244Y-136890069D01*
X151807917Y-136930750D01*
X151811050Y-136965835D01*
X151802135Y-136981692D01*
X151774991Y-136979823D01*
X151723437Y-136961727D01*
X151641293Y-136928905D01*
X151624673Y-136922253D01*
X151569936Y-136898489D01*
X151542304Y-136878781D01*
X151534107Y-136854988D01*
X151537673Y-136818973D01*
X151546036Y-136788438D01*
X151567445Y-136734530D01*
X151596679Y-136671510D01*
X151629078Y-136608378D01*
X151659979Y-136554130D01*
X151684720Y-136517764D01*
X151698639Y-136508280D01*
X151700363Y-136510605D01*
G37*
G36*
X153912528Y-137015109D02*
G01*
X153898092Y-137029610D01*
X153854752Y-137051567D01*
X153786846Y-137078337D01*
X153695145Y-137115192D01*
X153543504Y-137189283D01*
X153392679Y-137276760D01*
X153259308Y-137368473D01*
X153230951Y-137389752D01*
X153173453Y-137430616D01*
X153131541Y-137457195D01*
X153112769Y-137464540D01*
X153112797Y-137457543D01*
X153134956Y-137430879D01*
X153180615Y-137390380D01*
X153243789Y-137340871D01*
X153318489Y-137287175D01*
X153398729Y-137234117D01*
X153449324Y-137204284D01*
X153530514Y-137161303D01*
X153620712Y-137117421D01*
X153711234Y-137076524D01*
X153793399Y-137042499D01*
X153858526Y-137019234D01*
X153897933Y-137010615D01*
X153912528Y-137015109D01*
G37*
G36*
X155422366Y-136434075D02*
G01*
X155462361Y-136442275D01*
X155513862Y-136461186D01*
X155584542Y-136493335D01*
X155682077Y-136541248D01*
X155892276Y-136657824D01*
X156152243Y-136839474D01*
X156385462Y-137048769D01*
X156410323Y-137074214D01*
X156463893Y-137131712D01*
X156493241Y-137169561D01*
X156501780Y-137192768D01*
X156492923Y-137206338D01*
X156476392Y-137215486D01*
X156446715Y-137225239D01*
X156428763Y-137214269D01*
X156388171Y-137181178D01*
X156331620Y-137131260D01*
X156265375Y-137069883D01*
X156179929Y-136992954D01*
X155985510Y-136840878D01*
X155776009Y-136703723D01*
X155562188Y-136588210D01*
X155354808Y-136501062D01*
X155339332Y-136495311D01*
X155298086Y-136476252D01*
X155281539Y-136462186D01*
X155284557Y-136458255D01*
X155313971Y-136447007D01*
X155364577Y-136436707D01*
X155386198Y-136434058D01*
X155422366Y-136434075D01*
G37*
G36*
X153568141Y-136436742D02*
G01*
X153600962Y-136442317D01*
X153638403Y-136453206D01*
X153646294Y-136463352D01*
X153639685Y-136467493D01*
X153602463Y-136485290D01*
X153542056Y-136511327D01*
X153467720Y-136541551D01*
X153354127Y-136591137D01*
X153153744Y-136698037D01*
X152954135Y-136826648D01*
X152767349Y-136968929D01*
X152605437Y-137116842D01*
X152564108Y-137158222D01*
X152517274Y-137200383D01*
X152484160Y-137219734D01*
X152457224Y-137220044D01*
X152428923Y-137205084D01*
X152427586Y-137204110D01*
X152421740Y-137190673D01*
X152431964Y-137167695D01*
X152461532Y-137131059D01*
X152513718Y-137076650D01*
X152591797Y-137000351D01*
X152623037Y-136970677D01*
X152831273Y-136792950D01*
X153048844Y-136643579D01*
X153288617Y-136513576D01*
X153370623Y-136474841D01*
X153433228Y-136448797D01*
X153480421Y-136435578D01*
X153522095Y-136432466D01*
X153568141Y-136436742D01*
G37*
G36*
X154097028Y-136533365D02*
G01*
X154104018Y-136547596D01*
X154091278Y-136557757D01*
X154047125Y-136577166D01*
X153979467Y-136600506D01*
X153896550Y-136624711D01*
X153704808Y-136683012D01*
X153482123Y-136772140D01*
X153269077Y-136883908D01*
X153201651Y-136926103D01*
X153104758Y-136992756D01*
X153002935Y-137067938D01*
X152905705Y-137144349D01*
X152822593Y-137214692D01*
X152763122Y-137271666D01*
X152735875Y-137296431D01*
X152705279Y-137310710D01*
X152691569Y-137300176D01*
X152701960Y-137265552D01*
X152709822Y-137253990D01*
X152747628Y-137212943D01*
X152806832Y-137157345D01*
X152880371Y-137093248D01*
X152961183Y-137026702D01*
X153042206Y-136963761D01*
X153116375Y-136910474D01*
X153217909Y-136847143D01*
X153375678Y-136763687D01*
X153547719Y-136686242D01*
X153722809Y-136619378D01*
X153889727Y-136567661D01*
X154037250Y-136535659D01*
X154058958Y-136532761D01*
X154097028Y-136533365D01*
G37*
G36*
X154916015Y-136537965D02*
G01*
X155014653Y-136559366D01*
X155144769Y-136593868D01*
X155165480Y-136599963D01*
X155281665Y-136640880D01*
X155414169Y-136696260D01*
X155552267Y-136760882D01*
X155685235Y-136829526D01*
X155802347Y-136896972D01*
X155892881Y-136958000D01*
X155918643Y-136977837D01*
X155997938Y-137041328D01*
X156076022Y-137106960D01*
X156147005Y-137169459D01*
X156204999Y-137223551D01*
X156244115Y-137263961D01*
X156258462Y-137285415D01*
X156254042Y-137299876D01*
X156234709Y-137299811D01*
X156197034Y-137278229D01*
X156137808Y-137233207D01*
X156053820Y-137162822D01*
X156024033Y-137137530D01*
X155792101Y-136961502D01*
X155554718Y-136819686D01*
X155303996Y-136707908D01*
X155032046Y-136621993D01*
X154961560Y-136602351D01*
X154888783Y-136578888D01*
X154837835Y-136558635D01*
X154816810Y-136544505D01*
X154818844Y-136535321D01*
X154850273Y-136529879D01*
X154916015Y-136537965D01*
G37*
G36*
X156483276Y-139091461D02*
G01*
X156474648Y-139212863D01*
X156428091Y-139476076D01*
X156344643Y-139729121D01*
X156225422Y-139969553D01*
X156071544Y-140194926D01*
X155884126Y-140402795D01*
X155860730Y-140425297D01*
X155684856Y-140576747D01*
X155502631Y-140700346D01*
X155303474Y-140802472D01*
X155076805Y-140889505D01*
X155066154Y-140893067D01*
X155001215Y-140914726D01*
X154954224Y-140930300D01*
X154934731Y-140936623D01*
X154933830Y-140936537D01*
X154929846Y-140919694D01*
X154941889Y-140908072D01*
X154982623Y-140889116D01*
X155042192Y-140869172D01*
X155124479Y-140843244D01*
X155365319Y-140741001D01*
X155592179Y-140605329D01*
X155800983Y-140439756D01*
X155987654Y-140247814D01*
X156148115Y-140033030D01*
X156278291Y-139798935D01*
X156335442Y-139665090D01*
X156390312Y-139498529D01*
X156431867Y-139317188D01*
X156463283Y-139109231D01*
X156491597Y-138876538D01*
X156483276Y-139091461D01*
G37*
G36*
X152459384Y-138942749D02*
G01*
X152465758Y-138983328D01*
X152475527Y-139060586D01*
X152489082Y-139175609D01*
X152501584Y-139266131D01*
X152563841Y-139536718D01*
X152660188Y-139791727D01*
X152788504Y-140028527D01*
X152946668Y-140244483D01*
X153132559Y-140436963D01*
X153344057Y-140603333D01*
X153579039Y-140740959D01*
X153835386Y-140847208D01*
X153845383Y-140850599D01*
X153912831Y-140874866D01*
X153963811Y-140895520D01*
X153987953Y-140908402D01*
X153990902Y-140913115D01*
X153976282Y-140916596D01*
X153933826Y-140908172D01*
X153869747Y-140889572D01*
X153790258Y-140862523D01*
X153701575Y-140828755D01*
X153481807Y-140723911D01*
X153269885Y-140585242D01*
X153067542Y-140411796D01*
X152966399Y-140307820D01*
X152794088Y-140091391D01*
X152656135Y-139859294D01*
X152553575Y-139613775D01*
X152487444Y-139357082D01*
X152458780Y-139091461D01*
X152456719Y-139030209D01*
X152455256Y-138967276D01*
X152456014Y-138937761D01*
X152459384Y-138942749D01*
G37*
G36*
X152705012Y-139473027D02*
G01*
X152721598Y-139489993D01*
X152734885Y-139477346D01*
X152748688Y-139457600D01*
X152770232Y-139457607D01*
X152780616Y-139488481D01*
X152782536Y-139499665D01*
X152803123Y-139541693D01*
X152838998Y-139589431D01*
X152840506Y-139591139D01*
X152879275Y-139643088D01*
X152924511Y-139714816D01*
X152966733Y-139791337D01*
X152977282Y-139812464D01*
X153002617Y-139867601D01*
X153014676Y-139901569D01*
X153010927Y-139907701D01*
X152988009Y-139893435D01*
X152941808Y-139874074D01*
X152907730Y-139870323D01*
X152897846Y-139891222D01*
X152897382Y-139899526D01*
X152884789Y-139920469D01*
X152862529Y-139912146D01*
X152840783Y-139877081D01*
X152824781Y-139845646D01*
X152793537Y-139807231D01*
X152776815Y-139783527D01*
X152752769Y-139733152D01*
X152726649Y-139667557D01*
X152701995Y-139596949D01*
X152682343Y-139531537D01*
X152671232Y-139481529D01*
X152672199Y-139457134D01*
X152682467Y-139454811D01*
X152705012Y-139473027D01*
G37*
G36*
X156946050Y-140342968D02*
G01*
X156960116Y-140396609D01*
X156979863Y-140494557D01*
X156992464Y-140586154D01*
X156995854Y-140623141D01*
X157003588Y-140693536D01*
X157013628Y-140732995D01*
X157030637Y-140747218D01*
X157059277Y-140741905D01*
X157104212Y-140722756D01*
X157147829Y-140705138D01*
X157239911Y-140675730D01*
X157333505Y-140653916D01*
X157416156Y-140642347D01*
X157475412Y-140643678D01*
X157529823Y-140654538D01*
X157423390Y-140782581D01*
X157375015Y-140838191D01*
X157263007Y-140944748D01*
X157150821Y-141017552D01*
X157032786Y-141059788D01*
X156903231Y-141074639D01*
X156863070Y-141076757D01*
X156791039Y-141086732D01*
X156737154Y-141101725D01*
X156701630Y-141114678D01*
X156676997Y-141111868D01*
X156673138Y-141082629D01*
X156686959Y-141022049D01*
X156696269Y-140974310D01*
X156704518Y-140896707D01*
X156707737Y-140815114D01*
X156718179Y-140690894D01*
X156765142Y-140516367D01*
X156849410Y-140336437D01*
X156911295Y-140226783D01*
X156946050Y-140342968D01*
G37*
G36*
X154465648Y-135122992D02*
G01*
X154475409Y-135161522D01*
X154487122Y-135225248D01*
X154499137Y-135305884D01*
X154504062Y-135339752D01*
X154519632Y-135433827D01*
X154540925Y-135552292D01*
X154566134Y-135685852D01*
X154593452Y-135825209D01*
X154621073Y-135961070D01*
X154647191Y-136084137D01*
X154669998Y-136185115D01*
X154672982Y-136200185D01*
X154670276Y-136214179D01*
X154654126Y-136222718D01*
X154618122Y-136227149D01*
X154555856Y-136228819D01*
X154460922Y-136229077D01*
X154384648Y-136228960D01*
X154315495Y-136227754D01*
X154274158Y-136224115D01*
X154254278Y-136216693D01*
X154249496Y-136204143D01*
X154253452Y-136185115D01*
X154264530Y-136139803D01*
X154282479Y-136057609D01*
X154304191Y-135952207D01*
X154328072Y-135831878D01*
X154352532Y-135704901D01*
X154375978Y-135579557D01*
X154396821Y-135464124D01*
X154413467Y-135366884D01*
X154424326Y-135296115D01*
X154430737Y-135251679D01*
X154442672Y-135181632D01*
X154453399Y-135133364D01*
X154461182Y-135115384D01*
X154465648Y-135122992D01*
G37*
G36*
X152075233Y-140341391D02*
G01*
X152113361Y-140411802D01*
X152155035Y-140503272D01*
X152183258Y-140592785D01*
X152202027Y-140694010D01*
X152215337Y-140820615D01*
X152220697Y-140881134D01*
X152229620Y-140968214D01*
X152238281Y-141038789D01*
X152245386Y-141081623D01*
X152252218Y-141117184D01*
X152244059Y-141127338D01*
X152212076Y-141112662D01*
X152206371Y-141109993D01*
X152158788Y-141096287D01*
X152087963Y-141083247D01*
X152006975Y-141073379D01*
X151900343Y-141058177D01*
X151785295Y-141023102D01*
X151683130Y-140965611D01*
X151585542Y-140880783D01*
X151484227Y-140763697D01*
X151390792Y-140644769D01*
X151487723Y-140644769D01*
X151522003Y-140646726D01*
X151597592Y-140658157D01*
X151682992Y-140677049D01*
X151766071Y-140700225D01*
X151834695Y-140724504D01*
X151876731Y-140746707D01*
X151888777Y-140754400D01*
X151902102Y-140751205D01*
X151911984Y-140725846D01*
X151920242Y-140672702D01*
X151928696Y-140586154D01*
X151935553Y-140529246D01*
X151953334Y-140430382D01*
X151975155Y-140342968D01*
X152010552Y-140226783D01*
X152075233Y-140341391D01*
G37*
G36*
X150953799Y-138523695D02*
G01*
X150998017Y-138576048D01*
X151055913Y-138645927D01*
X151122158Y-138726770D01*
X151191418Y-138812016D01*
X151258364Y-138895101D01*
X151317662Y-138969464D01*
X151363983Y-139028543D01*
X151391994Y-139065775D01*
X151456810Y-139157319D01*
X151540499Y-139046236D01*
X151587053Y-138986914D01*
X151636747Y-138928136D01*
X151674864Y-138887786D01*
X151725539Y-138840419D01*
X151725539Y-138913351D01*
X151717249Y-139054145D01*
X151675960Y-139242304D01*
X151599774Y-139413846D01*
X151588472Y-139433937D01*
X151548881Y-139510158D01*
X151517845Y-139578662D01*
X151501292Y-139626646D01*
X151486759Y-139692908D01*
X151405880Y-139597355D01*
X151369581Y-139556073D01*
X151302740Y-139485091D01*
X151241191Y-139424810D01*
X151191269Y-139371226D01*
X151119325Y-139261308D01*
X151054020Y-139117573D01*
X150994073Y-138937496D01*
X150988441Y-138917259D01*
X150970427Y-138842508D01*
X150953673Y-138759748D01*
X150939319Y-138676686D01*
X150928504Y-138601028D01*
X150922369Y-138540480D01*
X150922054Y-138502748D01*
X150928699Y-138495538D01*
X150953799Y-138523695D01*
G37*
G36*
X155174918Y-137297111D02*
G01*
X155226803Y-137322768D01*
X155285913Y-137359162D01*
X155342734Y-137400668D01*
X155387757Y-137441658D01*
X155387899Y-137441812D01*
X155451590Y-137498375D01*
X155504117Y-137518043D01*
X155546285Y-137501118D01*
X155561941Y-137494659D01*
X155599806Y-137498175D01*
X155636380Y-137513887D01*
X155652769Y-137535667D01*
X155647709Y-137544989D01*
X155617718Y-137571657D01*
X155569731Y-137603891D01*
X155534489Y-137626763D01*
X155464187Y-137678351D01*
X155398769Y-137732442D01*
X155357858Y-137767672D01*
X155317481Y-137799143D01*
X155296192Y-137811387D01*
X155294268Y-137810836D01*
X155285219Y-137788429D01*
X155281539Y-137743307D01*
X155279404Y-137704216D01*
X155266338Y-137680348D01*
X155234390Y-137674923D01*
X155205013Y-137672465D01*
X155196626Y-137657084D01*
X155208975Y-137617343D01*
X155217173Y-137589376D01*
X155217829Y-137551644D01*
X155205140Y-137502171D01*
X155177135Y-137429306D01*
X155174031Y-137421699D01*
X155149798Y-137358204D01*
X155134744Y-137311204D01*
X155132018Y-137290392D01*
X155139766Y-137287816D01*
X155174918Y-137297111D01*
G37*
G36*
X157170598Y-139553350D02*
G01*
X157185850Y-139576442D01*
X157210669Y-139624056D01*
X157241120Y-139687599D01*
X157273271Y-139758479D01*
X157303189Y-139828102D01*
X157326939Y-139887874D01*
X157340590Y-139929204D01*
X157354601Y-139985407D01*
X157397570Y-139946788D01*
X157408656Y-139937190D01*
X157476756Y-139887248D01*
X157561378Y-139835398D01*
X157652841Y-139786540D01*
X157741463Y-139745575D01*
X157817564Y-139717403D01*
X157871462Y-139706923D01*
X157877041Y-139707869D01*
X157884598Y-139722746D01*
X157879709Y-139760904D01*
X157861847Y-139829038D01*
X157827063Y-139932242D01*
X157747314Y-140091965D01*
X157645260Y-140221490D01*
X157522084Y-140319456D01*
X157378969Y-140384501D01*
X157340323Y-140398574D01*
X157267332Y-140433430D01*
X157210823Y-140470359D01*
X157147594Y-140523145D01*
X157093259Y-140305534D01*
X157071508Y-140210198D01*
X157050403Y-140068969D01*
X157049388Y-139943812D01*
X157068748Y-139823587D01*
X157108767Y-139697154D01*
X157112940Y-139686170D01*
X157138326Y-139621134D01*
X157158086Y-139573408D01*
X157168242Y-139552656D01*
X157170598Y-139553350D01*
G37*
G36*
X157990223Y-138624898D02*
G01*
X157987123Y-138654413D01*
X157964634Y-138785524D01*
X157928610Y-138931667D01*
X157883193Y-139077535D01*
X157832523Y-139207820D01*
X157816202Y-139240844D01*
X157750948Y-139339664D01*
X157663339Y-139439574D01*
X157648514Y-139454594D01*
X157586038Y-139520015D01*
X157530405Y-139581288D01*
X157492183Y-139626850D01*
X157441146Y-139693316D01*
X157418597Y-139617081D01*
X157417644Y-139613960D01*
X157395061Y-139557192D01*
X157359419Y-139483599D01*
X157317990Y-139408277D01*
X157253166Y-139266030D01*
X157210876Y-139095801D01*
X157196308Y-138911411D01*
X157196308Y-138840419D01*
X157246983Y-138887786D01*
X157281059Y-138923564D01*
X157330184Y-138981219D01*
X157380396Y-139044971D01*
X157463134Y-139154788D01*
X157573425Y-139005894D01*
X157596603Y-138974870D01*
X157650466Y-138904603D01*
X157697695Y-138845304D01*
X157730137Y-138807305D01*
X157751489Y-138783340D01*
X157797624Y-138728013D01*
X157845023Y-138667916D01*
X157873127Y-138631934D01*
X157920476Y-138574256D01*
X157957946Y-138531995D01*
X158002403Y-138485769D01*
X157990223Y-138624898D01*
G37*
G36*
X151754341Y-139553642D02*
G01*
X151766120Y-139578981D01*
X151786850Y-139629864D01*
X151812558Y-139696591D01*
X151825381Y-139731633D01*
X151857635Y-139837360D01*
X151873990Y-139934557D01*
X151874801Y-140034431D01*
X151860421Y-140148188D01*
X151831205Y-140287032D01*
X151775746Y-140522623D01*
X151706681Y-140468597D01*
X151694839Y-140459799D01*
X151627146Y-140419382D01*
X151559462Y-140390733D01*
X151468635Y-140356035D01*
X151332807Y-140271785D01*
X151218935Y-140156088D01*
X151128176Y-140010234D01*
X151061686Y-139835514D01*
X151052453Y-139802304D01*
X151039329Y-139745031D01*
X151038827Y-139715379D01*
X151050384Y-139706923D01*
X151059193Y-139707395D01*
X151118454Y-139721918D01*
X151197924Y-139753124D01*
X151287922Y-139796115D01*
X151378768Y-139845989D01*
X151460780Y-139897847D01*
X151524276Y-139946788D01*
X151567245Y-139985407D01*
X151581256Y-139929204D01*
X151584652Y-139917331D01*
X151602298Y-139868548D01*
X151628662Y-139804338D01*
X151659811Y-139733295D01*
X151691814Y-139664012D01*
X151720735Y-139605082D01*
X151742643Y-139565099D01*
X151753604Y-139552656D01*
X151754341Y-139553642D01*
G37*
G36*
X152461679Y-140835147D02*
G01*
X152491562Y-140859193D01*
X152572576Y-140931381D01*
X152629732Y-140998401D01*
X152670982Y-141070881D01*
X152704273Y-141159446D01*
X152730942Y-141238357D01*
X152763401Y-141326372D01*
X152792186Y-141397000D01*
X152818814Y-141457375D01*
X152843696Y-141519620D01*
X152850575Y-141556938D01*
X152837906Y-141575851D01*
X152804143Y-141582880D01*
X152747740Y-141584547D01*
X152707067Y-141585895D01*
X152612329Y-141592242D01*
X152526616Y-141601505D01*
X152477213Y-141607394D01*
X152383727Y-141608817D01*
X152299006Y-141591541D01*
X152204011Y-141552686D01*
X152170487Y-141534514D01*
X152111677Y-141496096D01*
X152048812Y-141449513D01*
X151989163Y-141400798D01*
X151939999Y-141355984D01*
X151908589Y-141321105D01*
X151902204Y-141302195D01*
X151926493Y-141292657D01*
X151980447Y-141280180D01*
X152054163Y-141266534D01*
X152137951Y-141253253D01*
X152222121Y-141241869D01*
X152296982Y-141233915D01*
X152352845Y-141230923D01*
X152447495Y-141230923D01*
X152426953Y-141177192D01*
X152423237Y-141165293D01*
X152412461Y-141110565D01*
X152402448Y-141034026D01*
X152394969Y-140948355D01*
X152383525Y-140773248D01*
X152461679Y-140835147D01*
G37*
G36*
X152081094Y-138783528D02*
G01*
X152089443Y-138829839D01*
X152097489Y-138900449D01*
X152104163Y-138987545D01*
X152111277Y-139081009D01*
X152157468Y-139391738D01*
X152237650Y-139683941D01*
X152352506Y-139959346D01*
X152502720Y-140219682D01*
X152688975Y-140466676D01*
X152695006Y-140473743D01*
X152878246Y-140660523D01*
X153090196Y-140830010D01*
X153322641Y-140976988D01*
X153567366Y-141096237D01*
X153816154Y-141182540D01*
X153855315Y-141193357D01*
X153955124Y-141222032D01*
X154022996Y-141243992D01*
X154063526Y-141261066D01*
X154081313Y-141275083D01*
X154080953Y-141287872D01*
X154076980Y-141291700D01*
X154041530Y-141296384D01*
X153978118Y-141287324D01*
X153892745Y-141266446D01*
X153791412Y-141235675D01*
X153680119Y-141196938D01*
X153564868Y-141152161D01*
X153451658Y-141103267D01*
X153346493Y-141052185D01*
X153137881Y-140929887D01*
X152900211Y-140751683D01*
X152688073Y-140547242D01*
X152503365Y-140319669D01*
X152347984Y-140072069D01*
X152223828Y-139807548D01*
X152132796Y-139529211D01*
X152076785Y-139240163D01*
X152057692Y-138943509D01*
X152058092Y-138905501D01*
X152061278Y-138835544D01*
X152066956Y-138787152D01*
X152074294Y-138769077D01*
X152081094Y-138783528D01*
G37*
G36*
X156615879Y-135770205D02*
G01*
X156630027Y-135815819D01*
X156648779Y-135896923D01*
X156669361Y-135964158D01*
X156704905Y-136050432D01*
X156746220Y-136131384D01*
X156807368Y-136247444D01*
X156879005Y-136423582D01*
X156925093Y-136596117D01*
X156943952Y-136758146D01*
X156933901Y-136902763D01*
X156922944Y-136947236D01*
X156906601Y-136966049D01*
X156877556Y-136962878D01*
X156854290Y-136957014D01*
X156795926Y-136944890D01*
X156727385Y-136932625D01*
X156649565Y-136918281D01*
X156529423Y-136886299D01*
X156435909Y-136844206D01*
X156361032Y-136787937D01*
X156296803Y-136713422D01*
X156292383Y-136707379D01*
X156178592Y-136583964D01*
X156043968Y-136492886D01*
X155976014Y-136457927D01*
X156024430Y-136439364D01*
X156041244Y-136435286D01*
X156097639Y-136430305D01*
X156175043Y-136429045D01*
X156261633Y-136431120D01*
X156345582Y-136436146D01*
X156415069Y-136443735D01*
X156458267Y-136453504D01*
X156466618Y-136456444D01*
X156479695Y-136454469D01*
X156485615Y-136434782D01*
X156485502Y-136390321D01*
X156480479Y-136314027D01*
X156477677Y-136187081D01*
X156501242Y-136000192D01*
X156558679Y-135831084D01*
X156564159Y-135819345D01*
X156586635Y-135774664D01*
X156602645Y-135757386D01*
X156615879Y-135770205D01*
G37*
G36*
X156526878Y-140948355D02*
G01*
X156524595Y-140979377D01*
X156516002Y-141063227D01*
X156505511Y-141133392D01*
X156494893Y-141177192D01*
X156474352Y-141230923D01*
X156569001Y-141230923D01*
X156570226Y-141230926D01*
X156624459Y-141234005D01*
X156698141Y-141241864D01*
X156781555Y-141253002D01*
X156864986Y-141265917D01*
X156938718Y-141279109D01*
X156993034Y-141291077D01*
X157018218Y-141300320D01*
X157020043Y-141311442D01*
X156999748Y-141342424D01*
X156956166Y-141384790D01*
X156895957Y-141433596D01*
X156825781Y-141483900D01*
X156752297Y-141530757D01*
X156682166Y-141569226D01*
X156622048Y-141594363D01*
X156604618Y-141599439D01*
X156544835Y-141610931D01*
X156500344Y-141611290D01*
X156481649Y-141608466D01*
X156426239Y-141602623D01*
X156349019Y-141596044D01*
X156260621Y-141589687D01*
X156256169Y-141589397D01*
X156164228Y-141583500D01*
X156106581Y-141575564D01*
X156078945Y-141558779D01*
X156077034Y-141526335D01*
X156096565Y-141471422D01*
X156133253Y-141387231D01*
X156155895Y-141331604D01*
X156189736Y-141239683D01*
X156218628Y-141152133D01*
X156224797Y-141132615D01*
X156257796Y-141052143D01*
X156303112Y-140982188D01*
X156368113Y-140913080D01*
X156460168Y-140835147D01*
X156538321Y-140773248D01*
X156526878Y-140948355D01*
G37*
G36*
X156867283Y-138769084D02*
G01*
X156875651Y-138787897D01*
X156880898Y-138837523D01*
X156883092Y-138909985D01*
X156882304Y-138997301D01*
X156878603Y-139091494D01*
X156872058Y-139184583D01*
X156862739Y-139268590D01*
X156829433Y-139446786D01*
X156754623Y-139701652D01*
X156649404Y-139955897D01*
X156503056Y-140221027D01*
X156324966Y-140466354D01*
X156119543Y-140684669D01*
X155888405Y-140874646D01*
X155633166Y-141034962D01*
X155355441Y-141164292D01*
X155056846Y-141261312D01*
X155022567Y-141270203D01*
X154936000Y-141291766D01*
X154879702Y-141303493D01*
X154848093Y-141306006D01*
X154835596Y-141299925D01*
X154836632Y-141285875D01*
X154838856Y-141279933D01*
X154845700Y-141270615D01*
X154861141Y-141261328D01*
X154890997Y-141249996D01*
X154941086Y-141234548D01*
X155017225Y-141212908D01*
X155125231Y-141183004D01*
X155361047Y-141102923D01*
X155620013Y-140978201D01*
X155862197Y-140821720D01*
X156084331Y-140636602D01*
X156283148Y-140425968D01*
X156455377Y-140192941D01*
X156597752Y-139940642D01*
X156707003Y-139672193D01*
X156722527Y-139624310D01*
X156778937Y-139417718D01*
X156815972Y-139211756D01*
X156837222Y-138987545D01*
X156843054Y-138909602D01*
X156850998Y-138836740D01*
X156859367Y-138787294D01*
X156867091Y-138769077D01*
X156867283Y-138769084D01*
G37*
G36*
X152338992Y-135781348D02*
G01*
X152363167Y-135831084D01*
X152403119Y-135935047D01*
X152439534Y-136115672D01*
X152442622Y-136313534D01*
X152440655Y-136344119D01*
X152437876Y-136408490D01*
X152440238Y-136443415D01*
X152448862Y-136455915D01*
X152464866Y-136453010D01*
X152482979Y-136447797D01*
X152540828Y-136439284D01*
X152618925Y-136433116D01*
X152705453Y-136429667D01*
X152788591Y-136429310D01*
X152856518Y-136432418D01*
X152897417Y-136439364D01*
X152945833Y-136457927D01*
X152877878Y-136492886D01*
X152871925Y-136495986D01*
X152738281Y-136588273D01*
X152626023Y-136712070D01*
X152605343Y-136738853D01*
X152557662Y-136791574D01*
X152516074Y-136827303D01*
X152493432Y-136840497D01*
X152420991Y-136872815D01*
X152334990Y-136902508D01*
X152251488Y-136924406D01*
X152186544Y-136933343D01*
X152130429Y-136940554D01*
X152067462Y-136959433D01*
X152027450Y-136973997D01*
X152006808Y-136967453D01*
X151993022Y-136934129D01*
X151990044Y-136920203D01*
X151985546Y-136865372D01*
X151984649Y-136788822D01*
X151987634Y-136702593D01*
X152003729Y-136561195D01*
X152038021Y-136425011D01*
X152094079Y-136285513D01*
X152175626Y-136131384D01*
X152213823Y-136057187D01*
X152250112Y-135970618D01*
X152273068Y-135896923D01*
X152277281Y-135878101D01*
X152294839Y-135804166D01*
X152308517Y-135765193D01*
X152322005Y-135758486D01*
X152338992Y-135781348D01*
G37*
G36*
X157139620Y-138730019D02*
G01*
X157148339Y-138749391D01*
X157153935Y-138800167D01*
X157156532Y-138875042D01*
X157156252Y-138966712D01*
X157153218Y-139067870D01*
X157147551Y-139171213D01*
X157139375Y-139269435D01*
X157128811Y-139355231D01*
X157103345Y-139496928D01*
X157020776Y-139801907D01*
X156904119Y-140092061D01*
X156755658Y-140364973D01*
X156577676Y-140618225D01*
X156372459Y-140849399D01*
X156142289Y-141056079D01*
X155889451Y-141235847D01*
X155616229Y-141386286D01*
X155324907Y-141504978D01*
X155017769Y-141589506D01*
X154995700Y-141594151D01*
X154905303Y-141611728D01*
X154845912Y-141619285D01*
X154811809Y-141616553D01*
X154797278Y-141603265D01*
X154796603Y-141579154D01*
X154797101Y-141576141D01*
X154806910Y-141554346D01*
X154832084Y-141537305D01*
X154880368Y-141521398D01*
X154959506Y-141503005D01*
X155185145Y-141445041D01*
X155487167Y-141334915D01*
X155768146Y-141193376D01*
X156026433Y-141022269D01*
X156260378Y-140823440D01*
X156468331Y-140598735D01*
X156648645Y-140350000D01*
X156799669Y-140079080D01*
X156919754Y-139787820D01*
X157007252Y-139478068D01*
X157060512Y-139151668D01*
X157066533Y-139086359D01*
X157072391Y-138989255D01*
X157074033Y-138904853D01*
X157071012Y-138846172D01*
X157068350Y-138822382D01*
X157070744Y-138766531D01*
X157093060Y-138738001D01*
X157139291Y-138730000D01*
X157139620Y-138730019D01*
G37*
G36*
X151792245Y-138730385D02*
G01*
X151818059Y-138737155D01*
X151835622Y-138758912D01*
X151846561Y-138801669D01*
X151852506Y-138871437D01*
X151855083Y-138974231D01*
X151863296Y-139148660D01*
X151907098Y-139452688D01*
X151986541Y-139748020D01*
X152099570Y-140031490D01*
X152244130Y-140299929D01*
X152418166Y-140550171D01*
X152619622Y-140779047D01*
X152846443Y-140983390D01*
X153096574Y-141160033D01*
X153367960Y-141305809D01*
X153390266Y-141315996D01*
X153524696Y-141373743D01*
X153649177Y-141419181D01*
X153779983Y-141457754D01*
X153933385Y-141494902D01*
X153986959Y-141507255D01*
X154055443Y-141525319D01*
X154096591Y-141541249D01*
X154117494Y-141558159D01*
X154125244Y-141579164D01*
X154126488Y-141589744D01*
X154123797Y-141609268D01*
X154107797Y-141618801D01*
X154072285Y-141618696D01*
X154011056Y-141609308D01*
X153917907Y-141590988D01*
X153746677Y-141549335D01*
X153474596Y-141457066D01*
X153208779Y-141335764D01*
X152956483Y-141186560D01*
X152703878Y-140995136D01*
X152476982Y-140776482D01*
X152277659Y-140533193D01*
X152107775Y-140267864D01*
X151969192Y-139983090D01*
X151863775Y-139681464D01*
X151793389Y-139365582D01*
X151781635Y-139276829D01*
X151772615Y-139174276D01*
X151766873Y-139068054D01*
X151764458Y-138965259D01*
X151765419Y-138872989D01*
X151769803Y-138798341D01*
X151777660Y-138748412D01*
X151789039Y-138730299D01*
X151792245Y-138730385D01*
G37*
G36*
X155249955Y-141987188D02*
G01*
X155390420Y-142011935D01*
X155560159Y-142050240D01*
X155634234Y-142068058D01*
X155737742Y-142092524D01*
X155825959Y-142112868D01*
X155891332Y-142127359D01*
X155926308Y-142134262D01*
X155943511Y-142137330D01*
X155954412Y-142144691D01*
X155936883Y-142158429D01*
X155887231Y-142183168D01*
X155853786Y-142198970D01*
X155728642Y-142255833D01*
X155625586Y-142297127D01*
X155534785Y-142325534D01*
X155446405Y-142343731D01*
X155350614Y-142354401D01*
X155237577Y-142360221D01*
X155222900Y-142360754D01*
X155131319Y-142365502D01*
X155056836Y-142371752D01*
X155006776Y-142378754D01*
X154988462Y-142385757D01*
X154992519Y-142393700D01*
X155020678Y-142419798D01*
X155066826Y-142452210D01*
X155078836Y-142459975D01*
X155172396Y-142529806D01*
X155273204Y-142618069D01*
X155368236Y-142712711D01*
X155444468Y-142801680D01*
X155519475Y-142900240D01*
X155435184Y-142972116D01*
X155350894Y-143043992D01*
X155274546Y-142904342D01*
X155245694Y-142857031D01*
X155171941Y-142758190D01*
X155079458Y-142652687D01*
X154977365Y-142550007D01*
X154874785Y-142459631D01*
X154780837Y-142391043D01*
X154734091Y-142360298D01*
X154706263Y-142333435D01*
X154698271Y-142303078D01*
X154702837Y-142256692D01*
X154705998Y-142235061D01*
X154721527Y-142146723D01*
X154740175Y-142087648D01*
X154767244Y-142049758D01*
X154808036Y-142024970D01*
X154867853Y-142005204D01*
X154932211Y-141989610D01*
X155028049Y-141976494D01*
X155131564Y-141975530D01*
X155249955Y-141987188D01*
G37*
G36*
X153958526Y-141983939D02*
G01*
X154053095Y-142004951D01*
X154110016Y-142023586D01*
X154155213Y-142049929D01*
X154184346Y-142089689D01*
X154203318Y-142151408D01*
X154218031Y-142243628D01*
X154230063Y-142334846D01*
X154138583Y-142392520D01*
X154053982Y-142454275D01*
X153957909Y-142538417D01*
X153860171Y-142635261D01*
X153769167Y-142736003D01*
X153693301Y-142831839D01*
X153640972Y-142913965D01*
X153573252Y-143043699D01*
X153489947Y-142975437D01*
X153459757Y-142950037D01*
X153427930Y-142917360D01*
X153419422Y-142892330D01*
X153428851Y-142865241D01*
X153443357Y-142842752D01*
X153488333Y-142787697D01*
X153551378Y-142719660D01*
X153624781Y-142646245D01*
X153700829Y-142575054D01*
X153771813Y-142513689D01*
X153830019Y-142469752D01*
X153879038Y-142435267D01*
X153918322Y-142403343D01*
X153933385Y-142384958D01*
X153932954Y-142383989D01*
X153909439Y-142377233D01*
X153855270Y-142370534D01*
X153777773Y-142364621D01*
X153684269Y-142360221D01*
X153655823Y-142359155D01*
X153547692Y-142352442D01*
X153454510Y-142340256D01*
X153366445Y-142319915D01*
X153273663Y-142288740D01*
X153166331Y-142244051D01*
X153034616Y-142183168D01*
X153002561Y-142167649D01*
X152971402Y-142149656D01*
X152970293Y-142140068D01*
X152995539Y-142134262D01*
X153015217Y-142130566D01*
X153071376Y-142118392D01*
X153152876Y-142099791D01*
X153252164Y-142076496D01*
X153361688Y-142050240D01*
X153478535Y-142023159D01*
X153628132Y-141993924D01*
X153753216Y-141977956D01*
X153860957Y-141974784D01*
X153958526Y-141983939D01*
G37*
G36*
X156021397Y-141310800D02*
G01*
X156017780Y-141333978D01*
X155998417Y-141377293D01*
X155968391Y-141431904D01*
X155932789Y-141488970D01*
X155896697Y-141539650D01*
X155865199Y-141575103D01*
X155860222Y-141579647D01*
X155846470Y-141595131D01*
X155848741Y-141606550D01*
X155872656Y-141616586D01*
X155923833Y-141627925D01*
X156007893Y-141643249D01*
X156043626Y-141649876D01*
X156144852Y-141671210D01*
X156243866Y-141695306D01*
X156333448Y-141720081D01*
X156406376Y-141743448D01*
X156455429Y-141763324D01*
X156473385Y-141777624D01*
X156468072Y-141787441D01*
X156439192Y-141803413D01*
X156429666Y-141806729D01*
X156385511Y-141824328D01*
X156320278Y-141851853D01*
X156244328Y-141884966D01*
X156227156Y-141892427D01*
X156133512Y-141929455D01*
X156038760Y-141962018D01*
X155961021Y-141983796D01*
X155870532Y-141999399D01*
X155757148Y-142001955D01*
X155637919Y-141983181D01*
X155500207Y-141941929D01*
X155415912Y-141915507D01*
X155311978Y-141895327D01*
X155199149Y-141889715D01*
X155154367Y-141889894D01*
X155103672Y-141888860D01*
X155078209Y-141883111D01*
X155079340Y-141869114D01*
X155108423Y-141843336D01*
X155166819Y-141802244D01*
X155255887Y-141742305D01*
X155327251Y-141690849D01*
X155414058Y-141622198D01*
X155490349Y-141556194D01*
X155495998Y-141551014D01*
X155560843Y-141495368D01*
X155623531Y-141447349D01*
X155671219Y-141416854D01*
X155698487Y-141404426D01*
X155762076Y-141380227D01*
X155838070Y-141354795D01*
X155914243Y-141331927D01*
X155978368Y-141315422D01*
X156018219Y-141309077D01*
X156021397Y-141310800D01*
G37*
G36*
X152924126Y-141311485D02*
G01*
X152980106Y-141324424D01*
X153052973Y-141345227D01*
X153130499Y-141370098D01*
X153200460Y-141395240D01*
X153250628Y-141416854D01*
X153254063Y-141418673D01*
X153303676Y-141451203D01*
X153367102Y-141500342D01*
X153431498Y-141556194D01*
X153500267Y-141615973D01*
X153586947Y-141685032D01*
X153665959Y-141742305D01*
X153726265Y-141782818D01*
X153795655Y-141830354D01*
X153835239Y-141861291D01*
X153846374Y-141879162D01*
X153830423Y-141887501D01*
X153788744Y-141889840D01*
X153722698Y-141889715D01*
X153661878Y-141891095D01*
X153545972Y-141905658D01*
X153425385Y-141939668D01*
X153411959Y-141944262D01*
X153337942Y-141969107D01*
X153276490Y-141988980D01*
X153239769Y-141999932D01*
X153207967Y-142004350D01*
X153133635Y-142003588D01*
X153042544Y-141994276D01*
X152947545Y-141977906D01*
X152861491Y-141955974D01*
X152813295Y-141939745D01*
X152736282Y-141910822D01*
X152654845Y-141877693D01*
X152577183Y-141843952D01*
X152511494Y-141813196D01*
X152465979Y-141789020D01*
X152448834Y-141775018D01*
X152453266Y-141769361D01*
X152487122Y-141753120D01*
X152548090Y-141732151D01*
X152628713Y-141708567D01*
X152721536Y-141684481D01*
X152819101Y-141662004D01*
X152913953Y-141643249D01*
X152937077Y-141639127D01*
X153012862Y-141624986D01*
X153057091Y-141614198D01*
X153075385Y-141604077D01*
X153073364Y-141591940D01*
X153056648Y-141575103D01*
X153046961Y-141565510D01*
X153013365Y-141523993D01*
X152976870Y-141470199D01*
X152942564Y-141412970D01*
X152915531Y-141361145D01*
X152900857Y-141323567D01*
X152903627Y-141309077D01*
X152924126Y-141311485D01*
G37*
G36*
X156206125Y-139091639D02*
G01*
X156234069Y-139144202D01*
X156252080Y-139225416D01*
X156258462Y-139331125D01*
X156258242Y-139359172D01*
X156253614Y-139431170D01*
X156240933Y-139480416D01*
X156217515Y-139519247D01*
X156207764Y-139532837D01*
X156188552Y-139580116D01*
X156195781Y-139615102D01*
X156228541Y-139628769D01*
X156241364Y-139631685D01*
X156256904Y-139658881D01*
X156254106Y-139709254D01*
X156235156Y-139776166D01*
X156202235Y-139852980D01*
X156157526Y-139933060D01*
X156103214Y-140009769D01*
X156043176Y-140069153D01*
X155978541Y-140100005D01*
X155899885Y-140112252D01*
X155846678Y-140112459D01*
X155828616Y-140099009D01*
X155823382Y-140084630D01*
X155793418Y-140069530D01*
X155749735Y-140069705D01*
X155707242Y-140086671D01*
X155681885Y-140100211D01*
X155634215Y-140113644D01*
X155587505Y-140117195D01*
X155553907Y-140110403D01*
X155545574Y-140092807D01*
X155541006Y-140061611D01*
X155517496Y-140020501D01*
X155502724Y-140002608D01*
X155476975Y-139985333D01*
X155451935Y-139996415D01*
X155449086Y-139998632D01*
X155410710Y-140010301D01*
X155375268Y-139998775D01*
X155359692Y-139969074D01*
X155366294Y-139941368D01*
X155394727Y-139887510D01*
X155439014Y-139824238D01*
X155491931Y-139760116D01*
X155546255Y-139703710D01*
X155594762Y-139663586D01*
X155630228Y-139648307D01*
X155638091Y-139647534D01*
X155676226Y-139629524D01*
X155713278Y-139596329D01*
X155738347Y-139559558D01*
X155740534Y-139530821D01*
X155729010Y-139519166D01*
X155705272Y-139529374D01*
X155695861Y-139536379D01*
X155662316Y-139548249D01*
X155628875Y-139550390D01*
X155613692Y-139540581D01*
X155615941Y-139530858D01*
X155634834Y-139492883D01*
X155666147Y-139443774D01*
X155701616Y-139397026D01*
X155716489Y-139381873D01*
X155763766Y-139341583D01*
X155829809Y-139290263D01*
X155906388Y-139233797D01*
X155985269Y-139178068D01*
X156058220Y-139128960D01*
X156117011Y-139092356D01*
X156153407Y-139074139D01*
X156169948Y-139071881D01*
X156206125Y-139091639D01*
G37*
G36*
X153823766Y-139737314D02*
G01*
X153794053Y-139764545D01*
X153740401Y-139802789D01*
X153703878Y-139811623D01*
X153687330Y-139811031D01*
X153665320Y-139831028D01*
X153644720Y-139883024D01*
X153643199Y-139887964D01*
X153630423Y-139940858D01*
X153634280Y-139977355D01*
X153656386Y-140015859D01*
X153656793Y-140016446D01*
X153689238Y-140073486D01*
X153695116Y-140087315D01*
X153716138Y-140136769D01*
X153720834Y-140149586D01*
X153750953Y-140214788D01*
X153787807Y-140278452D01*
X153798415Y-140295220D01*
X153846625Y-140387024D01*
X153890447Y-140492422D01*
X153921187Y-140591038D01*
X153921880Y-140593975D01*
X153925500Y-140627432D01*
X153913810Y-140640713D01*
X153882899Y-140632901D01*
X153828856Y-140603076D01*
X153747769Y-140550321D01*
X153684500Y-140505962D01*
X153638416Y-140467042D01*
X153614055Y-140434081D01*
X153604791Y-140400115D01*
X153590448Y-140353046D01*
X153559786Y-140311745D01*
X153550439Y-140304016D01*
X153531455Y-140273709D01*
X153540144Y-140231192D01*
X153547305Y-140209634D01*
X153544577Y-140180320D01*
X153511879Y-140159212D01*
X153474436Y-140126355D01*
X153467103Y-140087315D01*
X153565741Y-140087315D01*
X153567950Y-140124301D01*
X153591462Y-140136769D01*
X153613997Y-140126177D01*
X153617183Y-140087315D01*
X153608199Y-140054649D01*
X153591462Y-140037862D01*
X153577005Y-140050264D01*
X153565741Y-140087315D01*
X153467103Y-140087315D01*
X153466187Y-140082439D01*
X153490550Y-140041749D01*
X153496815Y-140035180D01*
X153520508Y-139995502D01*
X153542852Y-139940667D01*
X153553266Y-139906116D01*
X153558427Y-139864544D01*
X153549294Y-139821241D01*
X153524159Y-139759656D01*
X153511718Y-139729952D01*
X153649278Y-139729952D01*
X153653680Y-139765292D01*
X153675053Y-139769219D01*
X153705788Y-139737921D01*
X153714442Y-139724543D01*
X153734438Y-139687535D01*
X153730205Y-139671391D01*
X153701202Y-139667846D01*
X153676850Y-139675788D01*
X153652996Y-139711470D01*
X153649278Y-139729952D01*
X153511718Y-139729952D01*
X153506790Y-139718186D01*
X153483156Y-139653751D01*
X153470016Y-139606918D01*
X153466969Y-139578859D01*
X153476511Y-139561923D01*
X153507702Y-139552979D01*
X153569214Y-139546767D01*
X153605596Y-139542197D01*
X153729068Y-139502452D01*
X153839632Y-139428884D01*
X153930976Y-139325353D01*
X153996951Y-139228231D01*
X153987383Y-139325923D01*
X153984150Y-139355485D01*
X153952647Y-139512559D01*
X153899487Y-139639079D01*
X153862136Y-139687535D01*
X153823766Y-139737314D01*
G37*
G36*
X154353770Y-135431362D02*
G01*
X154373912Y-135437310D01*
X154380809Y-135448164D01*
X154379382Y-135464430D01*
X154374553Y-135486615D01*
X154364665Y-135537806D01*
X154351909Y-135603846D01*
X154345297Y-135631630D01*
X154330649Y-135652621D01*
X154299098Y-135660995D01*
X154239563Y-135662540D01*
X154200605Y-135663811D01*
X154103588Y-135672492D01*
X153988838Y-135687640D01*
X153869617Y-135707188D01*
X153759188Y-135729068D01*
X153670814Y-135751212D01*
X153635676Y-135762058D01*
X153515324Y-135808493D01*
X153431559Y-135858055D01*
X153384879Y-135909945D01*
X153375779Y-135963361D01*
X153404754Y-136017505D01*
X153472301Y-136071576D01*
X153495776Y-136085314D01*
X153621664Y-136140040D01*
X153779885Y-136182247D01*
X153971676Y-136212140D01*
X154198276Y-136229925D01*
X154460923Y-136235808D01*
X154634746Y-136234216D01*
X154790994Y-136228378D01*
X154925162Y-136217298D01*
X155045959Y-136199991D01*
X155162093Y-136175469D01*
X155282274Y-136142745D01*
X155338003Y-136124521D01*
X155440716Y-136078440D01*
X155509680Y-136027551D01*
X155543921Y-135974007D01*
X155542465Y-135919965D01*
X155504338Y-135867579D01*
X155428567Y-135819006D01*
X155367977Y-135793189D01*
X155245271Y-135753038D01*
X155103167Y-135717343D01*
X154953846Y-135688659D01*
X154809491Y-135669540D01*
X154682283Y-135662540D01*
X154634259Y-135661780D01*
X154596907Y-135655604D01*
X154579160Y-135638222D01*
X154569937Y-135603846D01*
X154560050Y-135552655D01*
X154547294Y-135486615D01*
X154546047Y-135480544D01*
X154541572Y-135459938D01*
X154541659Y-135445095D01*
X154551230Y-135435497D01*
X154575209Y-135430627D01*
X154618517Y-135429966D01*
X154686076Y-135432997D01*
X154782809Y-135439200D01*
X154913638Y-135448059D01*
X155012492Y-135455570D01*
X155248105Y-135480875D01*
X155469752Y-135515041D01*
X155673850Y-135557037D01*
X155856817Y-135605833D01*
X156015072Y-135660400D01*
X156145030Y-135719706D01*
X156243112Y-135782721D01*
X156305733Y-135848416D01*
X156333151Y-135917379D01*
X156327676Y-135996263D01*
X156285632Y-136071746D01*
X156233211Y-136120320D01*
X156133830Y-136181715D01*
X156002994Y-136240098D01*
X155845006Y-136294200D01*
X155664165Y-136342755D01*
X155464773Y-136384496D01*
X155251131Y-136418155D01*
X155027539Y-136442464D01*
X155001027Y-136444581D01*
X154842479Y-136453473D01*
X154659909Y-136458687D01*
X154465814Y-136460219D01*
X154272689Y-136458066D01*
X154093030Y-136452227D01*
X153939334Y-136442697D01*
X153791128Y-136428503D01*
X153552320Y-136397045D01*
X153335985Y-136357445D01*
X153143967Y-136310543D01*
X152978111Y-136257180D01*
X152840260Y-136198198D01*
X152732260Y-136134437D01*
X152655954Y-136066737D01*
X152613188Y-135995940D01*
X152605806Y-135922886D01*
X152635652Y-135848416D01*
X152652623Y-135825978D01*
X152727614Y-135761031D01*
X152836817Y-135699069D01*
X152976620Y-135641143D01*
X153143410Y-135588305D01*
X153333577Y-135541607D01*
X153543507Y-135502099D01*
X153769588Y-135470834D01*
X154008208Y-135448863D01*
X154042314Y-135446476D01*
X154164655Y-135437876D01*
X154254063Y-135432152D01*
X154315461Y-135429811D01*
X154353770Y-135431362D01*
G37*
G36*
X151581477Y-137305934D02*
G01*
X151595964Y-137310205D01*
X151673281Y-137333000D01*
X151774500Y-137362842D01*
X151957976Y-137419116D01*
X152127198Y-137473205D01*
X152277456Y-137523562D01*
X152404043Y-137568637D01*
X152502251Y-137606881D01*
X152567373Y-137636745D01*
X152595616Y-137647990D01*
X152628970Y-137650574D01*
X152630489Y-137648908D01*
X152612999Y-137636264D01*
X152565495Y-137614077D01*
X152493410Y-137584364D01*
X152402178Y-137549141D01*
X152297229Y-137510426D01*
X152183998Y-137470235D01*
X152067916Y-137430585D01*
X151954416Y-137393493D01*
X151848931Y-137360977D01*
X151564782Y-137275833D01*
X151307963Y-137196783D01*
X151073850Y-137122121D01*
X150854814Y-137049250D01*
X150643225Y-136975572D01*
X150431454Y-136898491D01*
X150211871Y-136815410D01*
X149976846Y-136723732D01*
X149900381Y-136693393D01*
X149722646Y-136621289D01*
X149577509Y-136559562D01*
X149461779Y-136506618D01*
X149372261Y-136460865D01*
X149305764Y-136420713D01*
X149259096Y-136384568D01*
X149229062Y-136350839D01*
X149200286Y-136306498D01*
X149153921Y-136228753D01*
X149100847Y-136134699D01*
X149044312Y-136030623D01*
X148987565Y-135922814D01*
X148933853Y-135817558D01*
X148886424Y-135721144D01*
X148848524Y-135639860D01*
X148823403Y-135579993D01*
X148814308Y-135547832D01*
X148814903Y-135545437D01*
X148832507Y-135549457D01*
X148869598Y-135575665D01*
X148919497Y-135619507D01*
X148968981Y-135663731D01*
X149111178Y-135772350D01*
X149290595Y-135888575D01*
X149506538Y-136012000D01*
X149758314Y-136142218D01*
X150045231Y-136278824D01*
X150207745Y-136352615D01*
X150499768Y-136481774D01*
X150804423Y-136612658D01*
X151112241Y-136741332D01*
X151413756Y-136863860D01*
X151699498Y-136976306D01*
X151960000Y-137074735D01*
X152207647Y-137166328D01*
X152431012Y-137249920D01*
X152623005Y-137323002D01*
X152786462Y-137386716D01*
X152924216Y-137442205D01*
X153039101Y-137490610D01*
X153133952Y-137533075D01*
X153211603Y-137570741D01*
X153274887Y-137604751D01*
X153427236Y-137691715D01*
X153348157Y-137612636D01*
X153300331Y-137560737D01*
X153273966Y-137517797D01*
X153277979Y-137489834D01*
X153311367Y-137473037D01*
X153320620Y-137470430D01*
X153341613Y-137456781D01*
X153329468Y-137432832D01*
X153319616Y-137411830D01*
X153334436Y-137392202D01*
X153379986Y-137366514D01*
X153432906Y-137339533D01*
X153516489Y-137292325D01*
X153565511Y-137256315D01*
X153581569Y-137230423D01*
X153584828Y-137215506D01*
X153606313Y-137206489D01*
X153640051Y-137222180D01*
X153676791Y-137259731D01*
X153683653Y-137268967D01*
X153709915Y-137298191D01*
X153734867Y-137300720D01*
X153776112Y-137280178D01*
X153784265Y-137275692D01*
X153820834Y-137257673D01*
X153835692Y-137254163D01*
X153834986Y-137256679D01*
X153822927Y-137285015D01*
X153799025Y-137337108D01*
X153767308Y-137404126D01*
X153758386Y-137422924D01*
X153728109Y-137489761D01*
X153706909Y-137541405D01*
X153698923Y-137567946D01*
X153702864Y-137580831D01*
X153724486Y-137620006D01*
X153758671Y-137670315D01*
X153776351Y-137696196D01*
X153821833Y-137775293D01*
X153870308Y-137873396D01*
X153918155Y-137981622D01*
X153961752Y-138091087D01*
X153997481Y-138192907D01*
X154021719Y-138278200D01*
X154030845Y-138338081D01*
X154030737Y-138339547D01*
X154020088Y-138335089D01*
X153995415Y-138303469D01*
X153961545Y-138250770D01*
X153937205Y-138211337D01*
X153884527Y-138133355D01*
X153824005Y-138054680D01*
X153748751Y-137966634D01*
X153651878Y-137860538D01*
X153636330Y-137843619D01*
X153588573Y-137788320D01*
X153555187Y-137744447D01*
X153542623Y-137720280D01*
X153542869Y-137716897D01*
X153559680Y-137683255D01*
X153591475Y-137650545D01*
X153622165Y-137635846D01*
X153630498Y-137632550D01*
X153640308Y-137606538D01*
X153634673Y-137584754D01*
X153610824Y-137578875D01*
X153574299Y-137599883D01*
X153531667Y-137645425D01*
X153516376Y-137663843D01*
X153481549Y-137694726D01*
X153457403Y-137701171D01*
X153458999Y-137705502D01*
X153483365Y-137731064D01*
X153527626Y-137774281D01*
X153578238Y-137822104D01*
X153586966Y-137830351D01*
X153598248Y-137841000D01*
X153612719Y-137854660D01*
X153645123Y-137888574D01*
X153655673Y-137899615D01*
X153674343Y-137919154D01*
X153768604Y-138017804D01*
X153897007Y-138185109D01*
X154007066Y-138368277D01*
X154020360Y-138392959D01*
X154040697Y-138430717D01*
X154066482Y-138475385D01*
X154079514Y-138490906D01*
X154082565Y-138480326D01*
X154078406Y-138446692D01*
X154048434Y-138296602D01*
X153985958Y-138087006D01*
X153903733Y-137887767D01*
X153806853Y-137712650D01*
X153721363Y-137580496D01*
X153815275Y-137368825D01*
X153824942Y-137346829D01*
X153869648Y-137241537D01*
X153920750Y-137116801D01*
X153972669Y-136986391D01*
X154019824Y-136864077D01*
X154042456Y-136804220D01*
X154079790Y-136705890D01*
X154111879Y-136621887D01*
X154135884Y-136559628D01*
X154148968Y-136526528D01*
X154154232Y-136514817D01*
X154164640Y-136501277D01*
X154183343Y-136492347D01*
X154216496Y-136487261D01*
X154270253Y-136485259D01*
X154350769Y-136485577D01*
X154464199Y-136487451D01*
X154760925Y-136492846D01*
X154871634Y-136785923D01*
X154879524Y-136806732D01*
X154930260Y-136937878D01*
X154986452Y-137079518D01*
X155041803Y-137215920D01*
X155090014Y-137331358D01*
X155197686Y-137583716D01*
X155141750Y-137666598D01*
X155093026Y-137744913D01*
X155009330Y-137908681D01*
X154936292Y-138088300D01*
X154879519Y-138269229D01*
X154844622Y-138436923D01*
X154843276Y-138446473D01*
X154838941Y-138482600D01*
X154840994Y-138495756D01*
X154852418Y-138483055D01*
X154876197Y-138441611D01*
X154903452Y-138390697D01*
X157023918Y-138390697D01*
X157040000Y-138397846D01*
X157050344Y-138396436D01*
X157053026Y-138384820D01*
X157050162Y-138382482D01*
X157026975Y-138384820D01*
X157023918Y-138390697D01*
X154903452Y-138390697D01*
X154913911Y-138371159D01*
X157082533Y-138371159D01*
X157098616Y-138378307D01*
X157108959Y-138376897D01*
X157111641Y-138365282D01*
X157108778Y-138362943D01*
X157085590Y-138365282D01*
X157082533Y-138371159D01*
X154913911Y-138371159D01*
X154915314Y-138368538D01*
X154983516Y-138248036D01*
X155076561Y-138109976D01*
X155183360Y-137982103D01*
X155246171Y-137919154D01*
X155750462Y-137919154D01*
X155760231Y-137928923D01*
X155767380Y-137921774D01*
X157473302Y-137921774D01*
X157489385Y-137928923D01*
X157499728Y-137927513D01*
X157502410Y-137915897D01*
X157499547Y-137913559D01*
X157476359Y-137915897D01*
X157474665Y-137919154D01*
X157473302Y-137921774D01*
X155767380Y-137921774D01*
X155770000Y-137919154D01*
X155760231Y-137909384D01*
X155750462Y-137919154D01*
X155246171Y-137919154D01*
X155265667Y-137899615D01*
X155789539Y-137899615D01*
X155799308Y-137909384D01*
X155809077Y-137899615D01*
X155799308Y-137889846D01*
X155789539Y-137899615D01*
X155265667Y-137899615D01*
X155284011Y-137881230D01*
X155828616Y-137881230D01*
X155828806Y-137883961D01*
X155840116Y-137888264D01*
X155859789Y-137867289D01*
X155864543Y-137856370D01*
X155851173Y-137858672D01*
X155842493Y-137864704D01*
X155828616Y-137881230D01*
X155284011Y-137881230D01*
X155314536Y-137850638D01*
X155324944Y-137841000D01*
X155887231Y-137841000D01*
X155897000Y-137850769D01*
X155906769Y-137841000D01*
X155897000Y-137831231D01*
X155887231Y-137841000D01*
X155324944Y-137841000D01*
X155340918Y-137826208D01*
X155925921Y-137826208D01*
X155928044Y-137828679D01*
X155939186Y-137825281D01*
X155965914Y-137813281D01*
X156014792Y-137789945D01*
X156092385Y-137752539D01*
X156128067Y-137734987D01*
X156184796Y-137705096D01*
X156218826Y-137684223D01*
X156223782Y-137676079D01*
X156207189Y-137679927D01*
X156163530Y-137697051D01*
X156105116Y-137723383D01*
X156042067Y-137753969D01*
X155984503Y-137783854D01*
X155942543Y-137808085D01*
X155926308Y-137821707D01*
X155925921Y-137826208D01*
X155340918Y-137826208D01*
X155346602Y-137820945D01*
X155407365Y-137767544D01*
X155468945Y-137718398D01*
X155534619Y-137671940D01*
X155607662Y-137626605D01*
X155691353Y-137580826D01*
X155788967Y-137533037D01*
X155903781Y-137481672D01*
X156039072Y-137425163D01*
X156198117Y-137361946D01*
X156384191Y-137290452D01*
X156600573Y-137209117D01*
X156850537Y-137116373D01*
X156878148Y-137106150D01*
X157270767Y-136956654D01*
X157680763Y-136793452D01*
X158094297Y-136622266D01*
X158497528Y-136448816D01*
X158876616Y-136278824D01*
X159004128Y-136219385D01*
X159276035Y-136085473D01*
X159512503Y-135958124D01*
X159712840Y-135837742D01*
X159876353Y-135724735D01*
X160002349Y-135619507D01*
X160006760Y-135615349D01*
X160063549Y-135565440D01*
X160096742Y-135544858D01*
X160107539Y-135552843D01*
X160107526Y-135553312D01*
X160097989Y-135582952D01*
X160072751Y-135640611D01*
X160034841Y-135720285D01*
X159987290Y-135815974D01*
X159933127Y-135921676D01*
X159875381Y-136031390D01*
X159817082Y-136139114D01*
X159761259Y-136238846D01*
X159728656Y-136291681D01*
X159666377Y-136373522D01*
X159607121Y-136428760D01*
X159602336Y-136432044D01*
X159531188Y-136473352D01*
X159426913Y-136524477D01*
X159293401Y-136583974D01*
X159134543Y-136650398D01*
X158954228Y-136722301D01*
X158756346Y-136798238D01*
X158544789Y-136876763D01*
X158323444Y-136956430D01*
X158096204Y-137035793D01*
X157866956Y-137113406D01*
X157639593Y-137187823D01*
X157418003Y-137257598D01*
X157206077Y-137321284D01*
X157079606Y-137359063D01*
X156900032Y-137415424D01*
X156731092Y-137471543D01*
X156579593Y-137525069D01*
X156452345Y-137573649D01*
X156356154Y-137614930D01*
X156330055Y-137627453D01*
X156300932Y-137643250D01*
X156303450Y-137646439D01*
X156338575Y-137636733D01*
X156407270Y-137613845D01*
X156510500Y-137577485D01*
X156649231Y-137527365D01*
X156685402Y-137514419D01*
X156806762Y-137473025D01*
X156951513Y-137425910D01*
X157109142Y-137376396D01*
X157252036Y-137333000D01*
X158231846Y-137333000D01*
X158241616Y-137342769D01*
X158251385Y-137333000D01*
X158241616Y-137323231D01*
X158231846Y-137333000D01*
X157252036Y-137333000D01*
X157269142Y-137327805D01*
X157309284Y-137316082D01*
X158293918Y-137316082D01*
X158310000Y-137323231D01*
X158320344Y-137321820D01*
X158323026Y-137310205D01*
X158320162Y-137307866D01*
X158296975Y-137310205D01*
X158293918Y-137316082D01*
X157309284Y-137316082D01*
X157392130Y-137291888D01*
X158354369Y-137291888D01*
X158354671Y-137298557D01*
X158380013Y-137302150D01*
X158399218Y-137299021D01*
X158391817Y-137290345D01*
X158380519Y-137287223D01*
X158354369Y-137291888D01*
X157392130Y-137291888D01*
X157421000Y-137283457D01*
X157497636Y-137261410D01*
X158123148Y-137065463D01*
X158723899Y-136848329D01*
X159294811Y-136611829D01*
X159351741Y-136587713D01*
X159396720Y-136570918D01*
X159416180Y-136566744D01*
X159412443Y-136580117D01*
X159392606Y-136620783D01*
X159359992Y-136681337D01*
X159318857Y-136754450D01*
X159273460Y-136832790D01*
X159228059Y-136909028D01*
X159186911Y-136975835D01*
X159154273Y-137025880D01*
X159134405Y-137051834D01*
X159111808Y-137064340D01*
X159055982Y-137086358D01*
X158974973Y-137114105D01*
X158875581Y-137145270D01*
X158764604Y-137177541D01*
X158665135Y-137205754D01*
X158571256Y-137233175D01*
X158497607Y-137255565D01*
X158450005Y-137271152D01*
X158434268Y-137278164D01*
X158444045Y-137278343D01*
X158485157Y-137272712D01*
X158550450Y-137261216D01*
X158631468Y-137245265D01*
X158719662Y-137227081D01*
X158800316Y-137212284D01*
X158848469Y-137209658D01*
X158867469Y-137222194D01*
X158860664Y-137252884D01*
X158834618Y-137299021D01*
X158831401Y-137304720D01*
X158827909Y-137310205D01*
X158813395Y-137333000D01*
X158783028Y-137380692D01*
X158749535Y-137433729D01*
X158718795Y-137480394D01*
X158689994Y-137516208D01*
X158657482Y-137544243D01*
X158615614Y-137567572D01*
X158558740Y-137589269D01*
X158481214Y-137612407D01*
X158377389Y-137640058D01*
X158241616Y-137675295D01*
X158238685Y-137676079D01*
X158179616Y-137691878D01*
X158074634Y-137721392D01*
X157964261Y-137753820D01*
X157854636Y-137787213D01*
X157751896Y-137819623D01*
X157686832Y-137841000D01*
X157662179Y-137849100D01*
X157641325Y-137856370D01*
X157591624Y-137873696D01*
X157546368Y-137891461D01*
X157533827Y-137899615D01*
X157532549Y-137900446D01*
X157550585Y-137898244D01*
X157598668Y-137885871D01*
X157669031Y-137865229D01*
X157754035Y-137838459D01*
X157784910Y-137828602D01*
X157882354Y-137798942D01*
X157992422Y-137767071D01*
X158107956Y-137734891D01*
X158221801Y-137704301D01*
X158326800Y-137677202D01*
X158415798Y-137655493D01*
X158481638Y-137641074D01*
X158517164Y-137635846D01*
X158521467Y-137639477D01*
X158513995Y-137666660D01*
X158488208Y-137715275D01*
X158448084Y-137779164D01*
X158397596Y-137852172D01*
X158349887Y-137915897D01*
X158340720Y-137928142D01*
X158281431Y-138000918D01*
X158258046Y-138027013D01*
X158215339Y-138063460D01*
X158164845Y-138086174D01*
X158090978Y-138103553D01*
X158074789Y-138106740D01*
X157988833Y-138125101D01*
X157887076Y-138148655D01*
X157774895Y-138175961D01*
X157657666Y-138205577D01*
X157540768Y-138236062D01*
X157429578Y-138265973D01*
X157329474Y-138293870D01*
X157245832Y-138318311D01*
X157184032Y-138337854D01*
X157149449Y-138351058D01*
X157147462Y-138356481D01*
X157153693Y-138355728D01*
X157192501Y-138347666D01*
X157260919Y-138331897D01*
X157353225Y-138309782D01*
X157463696Y-138282683D01*
X157586609Y-138251962D01*
X157644159Y-138237532D01*
X157760641Y-138208844D01*
X157861260Y-138184763D01*
X157940520Y-138166564D01*
X157992923Y-138155525D01*
X158012974Y-138152922D01*
X158009371Y-138165112D01*
X157983088Y-138199064D01*
X157938067Y-138248124D01*
X157880361Y-138306383D01*
X157818796Y-138365282D01*
X157816022Y-138367936D01*
X157797425Y-138384820D01*
X157751102Y-138426875D01*
X157691656Y-138477292D01*
X157643735Y-138513280D01*
X157643151Y-138513670D01*
X157551203Y-138568123D01*
X157451020Y-138612544D01*
X157334891Y-138649382D01*
X157195107Y-138681085D01*
X157023957Y-138710103D01*
X157018291Y-138710959D01*
X156909791Y-138728578D01*
X156804892Y-138747663D01*
X156715302Y-138765970D01*
X156652726Y-138781256D01*
X156623068Y-138790408D01*
X156488932Y-138842986D01*
X156337822Y-138916909D01*
X156178264Y-139007132D01*
X156018783Y-139108604D01*
X155867907Y-139216279D01*
X155734161Y-139325107D01*
X155677998Y-139373303D01*
X155600490Y-139432487D01*
X155533313Y-139470849D01*
X155466665Y-139493547D01*
X155390744Y-139505734D01*
X155324922Y-139508695D01*
X155263099Y-139497634D01*
X155192673Y-139467131D01*
X155155626Y-139446903D01*
X155097936Y-139409826D01*
X155059873Y-139378174D01*
X155059799Y-139378092D01*
X155012562Y-139301098D01*
X154981022Y-139196100D01*
X154967830Y-139071923D01*
X154965021Y-138954692D01*
X154926342Y-139071923D01*
X154925437Y-139074674D01*
X154906156Y-139140427D01*
X154897616Y-139196177D01*
X154898750Y-139258038D01*
X154908497Y-139342127D01*
X154916934Y-139394705D01*
X154966263Y-139567744D01*
X155045351Y-139715581D01*
X155154313Y-139838452D01*
X155260671Y-139933247D01*
X155173464Y-140101231D01*
X155083821Y-140296551D01*
X154995505Y-140539121D01*
X154913626Y-140818513D01*
X154838314Y-141133820D01*
X154769702Y-141484139D01*
X154707919Y-141868563D01*
X154653097Y-142286188D01*
X154605367Y-142736109D01*
X154564858Y-143217422D01*
X154531703Y-143729220D01*
X154506033Y-144270599D01*
X154487977Y-144840654D01*
X154487334Y-144866483D01*
X154483303Y-145006745D01*
X154478803Y-145132537D01*
X154474073Y-145238941D01*
X154469356Y-145321035D01*
X154464892Y-145373900D01*
X154460923Y-145392615D01*
X154460271Y-145392014D01*
X154456196Y-145366928D01*
X154451667Y-145308559D01*
X154446926Y-145221826D01*
X154442213Y-145111651D01*
X154437771Y-144982954D01*
X154433841Y-144840654D01*
X154433100Y-144810708D01*
X154414835Y-144248736D01*
X154389045Y-143714240D01*
X154355878Y-143208234D01*
X154315481Y-142731732D01*
X154267998Y-142285747D01*
X154213578Y-141871293D01*
X154152366Y-141489384D01*
X154084509Y-141141033D01*
X154010152Y-140827255D01*
X153929444Y-140549062D01*
X153842529Y-140307469D01*
X153749555Y-140103490D01*
X153661176Y-139933247D01*
X153767534Y-139838452D01*
X153800810Y-139806807D01*
X153901461Y-139677023D01*
X153972269Y-139522208D01*
X154013350Y-139342127D01*
X154013837Y-139338539D01*
X154023292Y-139255528D01*
X154024098Y-139194165D01*
X154015190Y-139138335D01*
X153995504Y-139071923D01*
X153956825Y-138954692D01*
X153954017Y-139071923D01*
X153954012Y-139072101D01*
X153940793Y-139196259D01*
X153909230Y-139301224D01*
X153861973Y-139378174D01*
X153842615Y-139395730D01*
X153790961Y-139431897D01*
X153729174Y-139467131D01*
X153665742Y-139495283D01*
X153604069Y-139508290D01*
X153531103Y-139505734D01*
X153483428Y-139499314D01*
X153414298Y-139481371D01*
X153348500Y-139449793D01*
X153276230Y-139399424D01*
X153187685Y-139325107D01*
X153137633Y-139282387D01*
X152979384Y-139160939D01*
X152806300Y-139045010D01*
X152628438Y-138940646D01*
X152455857Y-138853891D01*
X152298614Y-138790791D01*
X152290334Y-138788118D01*
X152221537Y-138770042D01*
X152127217Y-138749808D01*
X152018716Y-138729700D01*
X151907374Y-138712003D01*
X151820585Y-138698660D01*
X151646158Y-138664606D01*
X151499751Y-138622831D01*
X151373725Y-138569765D01*
X151260440Y-138501835D01*
X151152259Y-138415467D01*
X151100683Y-138364982D01*
X151810979Y-138364982D01*
X151833000Y-138378307D01*
X151846600Y-138383857D01*
X151882986Y-138394809D01*
X151897192Y-138392959D01*
X151881846Y-138378307D01*
X151864941Y-138369668D01*
X151823231Y-138360441D01*
X151810979Y-138364982D01*
X151100683Y-138364982D01*
X151041541Y-138307090D01*
X150998160Y-138260634D01*
X150950141Y-138206863D01*
X150918787Y-138168723D01*
X150909387Y-138152407D01*
X150914309Y-138152367D01*
X150950065Y-138158840D01*
X151015613Y-138173267D01*
X151105443Y-138194370D01*
X151214044Y-138220868D01*
X151335907Y-138251481D01*
X151390993Y-138265449D01*
X151509013Y-138294983D01*
X151612084Y-138320245D01*
X151694485Y-138339861D01*
X151750493Y-138352460D01*
X151774385Y-138356669D01*
X151776715Y-138356278D01*
X151767827Y-138349133D01*
X151727372Y-138334491D01*
X151660732Y-138313795D01*
X151573290Y-138288488D01*
X151470428Y-138260015D01*
X151357530Y-138229821D01*
X151239976Y-138199348D01*
X151123151Y-138170041D01*
X151012436Y-138143343D01*
X150913214Y-138120699D01*
X150830868Y-138103553D01*
X150789918Y-138094977D01*
X150729724Y-138075972D01*
X150685085Y-138047418D01*
X150640416Y-138000918D01*
X150611006Y-137965667D01*
X150576774Y-137921774D01*
X151416379Y-137921774D01*
X151432462Y-137928923D01*
X151442805Y-137927513D01*
X151444735Y-137919154D01*
X153151846Y-137919154D01*
X153161616Y-137928923D01*
X153171385Y-137919154D01*
X153161616Y-137909384D01*
X153155103Y-137915897D01*
X153151846Y-137919154D01*
X151444735Y-137919154D01*
X151445487Y-137915897D01*
X151442624Y-137913559D01*
X151419436Y-137915897D01*
X151416379Y-137921774D01*
X150576774Y-137921774D01*
X150561537Y-137902236D01*
X151357764Y-137902236D01*
X151373846Y-137909384D01*
X151384190Y-137907974D01*
X151386120Y-137899615D01*
X153112769Y-137899615D01*
X153122539Y-137909384D01*
X153132308Y-137899615D01*
X153122539Y-137889846D01*
X153116025Y-137896359D01*
X153112769Y-137899615D01*
X151386120Y-137899615D01*
X151386872Y-137896359D01*
X151384008Y-137894020D01*
X151360821Y-137896359D01*
X151357764Y-137902236D01*
X150561537Y-137902236D01*
X150552415Y-137890540D01*
X150498205Y-137815267D01*
X150452352Y-137746005D01*
X150418830Y-137688910D01*
X150401615Y-137650138D01*
X150404683Y-137635846D01*
X150412836Y-137636512D01*
X150458487Y-137645035D01*
X150531715Y-137661854D01*
X150625168Y-137685037D01*
X150731495Y-137712651D01*
X150843346Y-137742762D01*
X150953369Y-137773440D01*
X151054213Y-137802751D01*
X151138528Y-137828763D01*
X151191143Y-137845314D01*
X151260930Y-137865802D01*
X151310227Y-137878393D01*
X151330749Y-137880841D01*
X151330884Y-137880668D01*
X151315883Y-137871193D01*
X151269639Y-137853210D01*
X151266242Y-137852041D01*
X153058944Y-137852041D01*
X153063923Y-137870307D01*
X153067937Y-137876091D01*
X153085768Y-137889846D01*
X153088441Y-137888574D01*
X153083462Y-137870307D01*
X153079448Y-137864524D01*
X153061617Y-137850769D01*
X153058944Y-137852041D01*
X151266242Y-137852041D01*
X151234154Y-137841000D01*
X153015077Y-137841000D01*
X153024846Y-137850769D01*
X153034616Y-137841000D01*
X153024846Y-137831231D01*
X153015077Y-137841000D01*
X151234154Y-137841000D01*
X151198298Y-137828662D01*
X151108005Y-137799488D01*
X151004906Y-137767630D01*
X150895147Y-137735030D01*
X150784873Y-137703628D01*
X150724288Y-137687265D01*
X152707159Y-137687265D01*
X152728574Y-137704157D01*
X152772731Y-137725715D01*
X152779476Y-137728549D01*
X152852347Y-137761055D01*
X152922269Y-137794753D01*
X152941613Y-137804240D01*
X152980198Y-137820357D01*
X152995539Y-137822104D01*
X152984601Y-137811496D01*
X152946887Y-137788750D01*
X152892055Y-137759942D01*
X152830388Y-137730025D01*
X152772172Y-137703955D01*
X152727691Y-137686689D01*
X152707229Y-137683182D01*
X152707159Y-137687265D01*
X150724288Y-137687265D01*
X150680231Y-137675366D01*
X150557474Y-137643476D01*
X150450471Y-137615127D01*
X150370378Y-137591637D01*
X150311550Y-137569934D01*
X150268343Y-137546946D01*
X150235111Y-137519600D01*
X150206210Y-137484824D01*
X150175994Y-137439545D01*
X150138819Y-137380692D01*
X150108347Y-137333000D01*
X150670462Y-137333000D01*
X150680231Y-137342769D01*
X150690000Y-137333000D01*
X150680231Y-137323231D01*
X150670462Y-137333000D01*
X150108347Y-137333000D01*
X150099371Y-137318951D01*
X150097670Y-137316082D01*
X150595764Y-137316082D01*
X150611846Y-137323231D01*
X150622190Y-137321820D01*
X150624872Y-137310205D01*
X150622008Y-137307866D01*
X150598821Y-137310205D01*
X150595764Y-137316082D01*
X150097670Y-137316082D01*
X150086086Y-137296543D01*
X150517610Y-137296543D01*
X150533692Y-137303692D01*
X150544036Y-137302282D01*
X150546718Y-137290666D01*
X150543854Y-137288328D01*
X150520667Y-137290666D01*
X150517610Y-137296543D01*
X150086086Y-137296543D01*
X150065706Y-137262166D01*
X150053777Y-137227171D01*
X150066932Y-137210975D01*
X150108519Y-137210587D01*
X150181885Y-137223014D01*
X150290379Y-137245265D01*
X150345089Y-137256202D01*
X150416699Y-137269377D01*
X150467014Y-137277168D01*
X150487579Y-137278164D01*
X150474288Y-137272030D01*
X150428960Y-137257047D01*
X150357131Y-137235123D01*
X150264620Y-137208030D01*
X150157242Y-137177541D01*
X150062128Y-137150033D01*
X149960593Y-137118559D01*
X149876434Y-137090160D01*
X149816451Y-137067148D01*
X149787442Y-137051834D01*
X149772090Y-137032200D01*
X149741524Y-136985909D01*
X149701605Y-136921604D01*
X149656606Y-136846608D01*
X149610798Y-136768242D01*
X149568451Y-136693828D01*
X149533838Y-136630687D01*
X149511229Y-136586142D01*
X149504897Y-136567513D01*
X149512153Y-136569015D01*
X149549394Y-136582335D01*
X149612655Y-136607069D01*
X149695712Y-136640760D01*
X149792343Y-136680952D01*
X150070052Y-136795692D01*
X150358057Y-136909228D01*
X150629475Y-137009619D01*
X150893504Y-137100132D01*
X151159342Y-137184031D01*
X151436185Y-137264582D01*
X151527832Y-137290666D01*
X151581477Y-137305934D01*
G37*
D16*
%TO.C,C47*%
X126625000Y-152500000D02*
G75*
G02*
X116375000Y-152500000I-5125000J0D01*
G01*
X116375000Y-152500000D02*
G75*
G02*
X126625000Y-152500000I5125000J0D01*
G01*
%TO.C,C48*%
X138125000Y-152500000D02*
G75*
G02*
X127875000Y-152500000I-5125000J0D01*
G01*
X127875000Y-152500000D02*
G75*
G02*
X138125000Y-152500000I5125000J0D01*
G01*
D15*
%TO.C,R32*%
X155895000Y-114776263D02*
X155895000Y-116223737D01*
X158605000Y-114776263D02*
X158605000Y-116223737D01*
D16*
%TO.C,PS2*%
X84460000Y-55300000D02*
X84460000Y-80700000D01*
X84460000Y-80700000D02*
X109860000Y-80700000D01*
X109860000Y-55300000D02*
X84460000Y-55300000D01*
X109860000Y-80700000D02*
X109860000Y-55300000D01*
D15*
%TO.C,C23*%
X159390000Y-105288748D02*
X159390000Y-106711252D01*
X162110000Y-105288748D02*
X162110000Y-106711252D01*
%TO.C,C62*%
X148711252Y-91140000D02*
X147288748Y-91140000D01*
X148711252Y-93860000D02*
X147288748Y-93860000D01*
%TO.C,R43*%
X172645000Y-108223737D02*
X172645000Y-106776263D01*
X175355000Y-108223737D02*
X175355000Y-106776263D01*
D16*
%TO.C,C46*%
X115225000Y-152500000D02*
G75*
G02*
X104975000Y-152500000I-5125000J0D01*
G01*
X104975000Y-152500000D02*
G75*
G02*
X115225000Y-152500000I5125000J0D01*
G01*
D15*
%TO.C,R36*%
X168145000Y-95723737D02*
X168145000Y-94276263D01*
X170855000Y-95723737D02*
X170855000Y-94276263D01*
D16*
%TO.C,C57*%
X110125000Y-127500000D02*
G75*
G02*
X99875000Y-127500000I-5125000J0D01*
G01*
X99875000Y-127500000D02*
G75*
G02*
X110125000Y-127500000I5125000J0D01*
G01*
D15*
%TO.C,R37*%
X172645000Y-95723737D02*
X172645000Y-94276263D01*
X175355000Y-95723737D02*
X175355000Y-94276263D01*
%TO.C,R38*%
X168145000Y-108223737D02*
X168145000Y-106776263D01*
X170855000Y-108223737D02*
X170855000Y-106776263D01*
%TO.C,C61*%
X150461252Y-105390000D02*
X149038748Y-105390000D01*
X150461252Y-108110000D02*
X149038748Y-108110000D01*
D14*
%TO.C,PS1*%
X128635000Y-123675000D02*
X128635000Y-143325000D01*
X128635000Y-143325000D02*
X135685000Y-143325000D01*
X135685000Y-123675000D02*
X128635000Y-123675000D01*
X135685000Y-143325000D02*
X135685000Y-123675000D01*
D16*
X136315000Y-141225000D02*
X136315000Y-141225000D01*
X136315000Y-141325000D02*
X136315000Y-141325000D01*
X136315000Y-141325000D02*
X136315000Y-141325000D01*
X136315000Y-141225000D02*
G75*
G02*
X136315000Y-141325000I0J-50000D01*
G01*
X136315000Y-141325000D02*
G75*
G02*
X136315000Y-141225000I0J50000D01*
G01*
X136315000Y-141325000D02*
G75*
G02*
X136315000Y-141225000I0J50000D01*
G01*
D15*
%TO.C,C84*%
X172711252Y-89140000D02*
X171288748Y-89140000D01*
X172711252Y-91860000D02*
X171288748Y-91860000D01*
%TO.C,C22*%
X162461252Y-119140000D02*
X161038748Y-119140000D01*
X162461252Y-121860000D02*
X161038748Y-121860000D01*
D16*
%TO.C,C40*%
X122625000Y-105000000D02*
G75*
G02*
X112375000Y-105000000I-5125000J0D01*
G01*
X112375000Y-105000000D02*
G75*
G02*
X122625000Y-105000000I5125000J0D01*
G01*
D15*
%TO.C,C82*%
X173711252Y-101640000D02*
X172288748Y-101640000D01*
X173711252Y-104360000D02*
X172288748Y-104360000D01*
D16*
%TO.C,PS3*%
X84460000Y-83300000D02*
X84460000Y-108700000D01*
X84460000Y-108700000D02*
X109860000Y-108700000D01*
X109860000Y-83300000D02*
X84460000Y-83300000D01*
X109860000Y-108700000D02*
X109860000Y-83300000D01*
%TD*%
D18*
%TO.C,PS4*%
X134500000Y-119325000D03*
X134500000Y-116785000D03*
X134500000Y-109165000D03*
X134500000Y-104085000D03*
%TD*%
D19*
%TO.C,PS2*%
X87000000Y-65460000D03*
D20*
X87000000Y-70540000D03*
X87000000Y-78160000D03*
X107320000Y-78160000D03*
X107320000Y-68000000D03*
X107320000Y-57840000D03*
%TD*%
D19*
%TO.C,PS3*%
X87000000Y-93460000D03*
D20*
X87000000Y-98540000D03*
X87000000Y-106160000D03*
X107320000Y-106160000D03*
X107320000Y-96000000D03*
X107320000Y-85840000D03*
%TD*%
M02*
