%TF.GenerationSoftware,KiCad,Pcbnew,8.0.8-8.0.8-0~ubuntu22.04.1*%
%TF.CreationDate,2025-02-20T20:21:32-08:00*%
%TF.ProjectId,InverterBoostConverter,496e7665-7274-4657-9242-6f6f7374436f,rev?*%
%TF.SameCoordinates,Original*%
%TF.FileFunction,Paste,Bot*%
%TF.FilePolarity,Positive*%
%FSLAX46Y46*%
G04 Gerber Fmt 4.6, Leading zero omitted, Abs format (unit mm)*
G04 Created by KiCad (PCBNEW 8.0.8-8.0.8-0~ubuntu22.04.1) date 2025-02-20 20:21:32*
%MOMM*%
%LPD*%
G01*
G04 APERTURE LIST*
G04 Aperture macros list*
%AMRoundRect*
0 Rectangle with rounded corners*
0 $1 Rounding radius*
0 $2 $3 $4 $5 $6 $7 $8 $9 X,Y pos of 4 corners*
0 Add a 4 corners polygon primitive as box body*
4,1,4,$2,$3,$4,$5,$6,$7,$8,$9,$2,$3,0*
0 Add four circle primitives for the rounded corners*
1,1,$1+$1,$2,$3*
1,1,$1+$1,$4,$5*
1,1,$1+$1,$6,$7*
1,1,$1+$1,$8,$9*
0 Add four rect primitives between the rounded corners*
20,1,$1+$1,$2,$3,$4,$5,0*
20,1,$1+$1,$4,$5,$6,$7,0*
20,1,$1+$1,$6,$7,$8,$9,0*
20,1,$1+$1,$8,$9,$2,$3,0*%
G04 Aperture macros list end*
%ADD10C,0.000000*%
%ADD11R,3.050000X2.030000*%
%ADD12R,8.380000X10.660000*%
%ADD13RoundRect,0.150000X0.150000X-0.825000X0.150000X0.825000X-0.150000X0.825000X-0.150000X-0.825000X0*%
%ADD14R,4.600000X0.700000*%
%ADD15RoundRect,0.250000X-1.100000X0.412500X-1.100000X-0.412500X1.100000X-0.412500X1.100000X0.412500X0*%
G04 APERTURE END LIST*
D10*
%TO.C,Q1*%
G36*
X251195000Y-116350000D02*
G01*
X247845000Y-116350000D01*
X247845000Y-111150000D01*
X251195000Y-111150000D01*
X251195000Y-116350000D01*
G37*
G36*
X251195000Y-121850000D02*
G01*
X247845000Y-121850000D01*
X247845000Y-116650000D01*
X251195000Y-116650000D01*
X251195000Y-121850000D01*
G37*
G36*
X254845000Y-116350000D02*
G01*
X251495000Y-116350000D01*
X251495000Y-111150000D01*
X254845000Y-111150000D01*
X254845000Y-116350000D01*
G37*
G36*
X254845000Y-121850000D02*
G01*
X251495000Y-121850000D01*
X251495000Y-116650000D01*
X254845000Y-116650000D01*
X254845000Y-121850000D01*
G37*
%TO.C,Q4*%
G36*
X251195000Y-88600000D02*
G01*
X247845000Y-88600000D01*
X247845000Y-83400000D01*
X251195000Y-83400000D01*
X251195000Y-88600000D01*
G37*
G36*
X251195000Y-94100000D02*
G01*
X247845000Y-94100000D01*
X247845000Y-88900000D01*
X251195000Y-88900000D01*
X251195000Y-94100000D01*
G37*
G36*
X254845000Y-88600000D02*
G01*
X251495000Y-88600000D01*
X251495000Y-83400000D01*
X254845000Y-83400000D01*
X254845000Y-88600000D01*
G37*
G36*
X254845000Y-94100000D02*
G01*
X251495000Y-94100000D01*
X251495000Y-88900000D01*
X254845000Y-88900000D01*
X254845000Y-94100000D01*
G37*
%TO.C,Q2*%
G36*
X251345000Y-36350000D02*
G01*
X247995000Y-36350000D01*
X247995000Y-31150000D01*
X251345000Y-31150000D01*
X251345000Y-36350000D01*
G37*
G36*
X251345000Y-41850000D02*
G01*
X247995000Y-41850000D01*
X247995000Y-36650000D01*
X251345000Y-36650000D01*
X251345000Y-41850000D01*
G37*
G36*
X254995000Y-36350000D02*
G01*
X251645000Y-36350000D01*
X251645000Y-31150000D01*
X254995000Y-31150000D01*
X254995000Y-36350000D01*
G37*
G36*
X254995000Y-41850000D02*
G01*
X251645000Y-41850000D01*
X251645000Y-36650000D01*
X254995000Y-36650000D01*
X254995000Y-41850000D01*
G37*
%TO.C,Q5*%
G36*
X251345000Y-61350000D02*
G01*
X247995000Y-61350000D01*
X247995000Y-56150000D01*
X251345000Y-56150000D01*
X251345000Y-61350000D01*
G37*
G36*
X251345000Y-66850000D02*
G01*
X247995000Y-66850000D01*
X247995000Y-61650000D01*
X251345000Y-61650000D01*
X251345000Y-66850000D01*
G37*
G36*
X254995000Y-61350000D02*
G01*
X251645000Y-61350000D01*
X251645000Y-56150000D01*
X254995000Y-56150000D01*
X254995000Y-61350000D01*
G37*
G36*
X254995000Y-66850000D02*
G01*
X251645000Y-66850000D01*
X251645000Y-61650000D01*
X254995000Y-61650000D01*
X254995000Y-66850000D01*
G37*
%TD*%
D11*
%TO.C,D12*%
X93411280Y-65540000D03*
X93411280Y-60460000D03*
D12*
X102027280Y-63000000D03*
%TD*%
D11*
%TO.C,D2*%
X93411280Y-116040000D03*
X93411280Y-110960000D03*
D12*
X102027280Y-113500000D03*
%TD*%
D11*
%TO.C,D1*%
X93384000Y-129290000D03*
X93384000Y-124210000D03*
D12*
X102000000Y-126750000D03*
%TD*%
D13*
%TO.C,U5*%
X245000000Y-104475000D03*
X243730000Y-104475000D03*
X242460000Y-104475000D03*
X241190000Y-104475000D03*
X241190000Y-99525000D03*
X242460000Y-99525000D03*
X243730000Y-99525000D03*
X245000000Y-99525000D03*
%TD*%
D14*
%TO.C,Q1*%
X240650000Y-120310000D03*
X240650000Y-119040000D03*
X240650000Y-117770000D03*
X240650000Y-116500000D03*
X240650000Y-115230000D03*
X240650000Y-113960000D03*
X240650000Y-112690000D03*
%TD*%
D11*
%TO.C,D17*%
X259384000Y-50500000D03*
X259384000Y-45420000D03*
D12*
X268000000Y-47960000D03*
%TD*%
D11*
%TO.C,D4*%
X93411280Y-39540000D03*
X93411280Y-34460000D03*
D12*
X102027280Y-37000000D03*
%TD*%
D11*
%TO.C,D19*%
X93411280Y-89540000D03*
X93411280Y-84460000D03*
D12*
X102027280Y-87000000D03*
%TD*%
D15*
%TO.C,C5*%
X237500000Y-47375000D03*
X237500000Y-50500000D03*
%TD*%
D11*
%TO.C,D13*%
X259352000Y-63540000D03*
X259352000Y-58460000D03*
D12*
X267968000Y-61000000D03*
%TD*%
D11*
%TO.C,D14*%
X291226000Y-58460000D03*
X291226000Y-63540000D03*
D12*
X282610000Y-61000000D03*
%TD*%
D14*
%TO.C,Q4*%
X240650000Y-92560000D03*
X240650000Y-91290000D03*
X240650000Y-90020000D03*
X240650000Y-88750000D03*
X240650000Y-87480000D03*
X240650000Y-86210000D03*
X240650000Y-84940000D03*
%TD*%
D15*
%TO.C,C4*%
X238000000Y-102375000D03*
X238000000Y-105500000D03*
%TD*%
D11*
%TO.C,D7*%
X259384000Y-132040000D03*
X259384000Y-126960000D03*
D12*
X268000000Y-129500000D03*
%TD*%
D11*
%TO.C,D9*%
X259384000Y-105040000D03*
X259384000Y-99960000D03*
D12*
X268000000Y-102500000D03*
%TD*%
D11*
%TO.C,D3*%
X93411280Y-26540000D03*
X93411280Y-21460000D03*
D12*
X102027280Y-24000000D03*
%TD*%
D11*
%TO.C,D16*%
X259384000Y-24040000D03*
X259384000Y-18960000D03*
D12*
X268000000Y-21500000D03*
%TD*%
D14*
%TO.C,Q2*%
X240800000Y-40310000D03*
X240800000Y-39040000D03*
X240800000Y-37770000D03*
X240800000Y-36500000D03*
X240800000Y-35230000D03*
X240800000Y-33960000D03*
X240800000Y-32690000D03*
%TD*%
D11*
%TO.C,D8*%
X259384000Y-91615000D03*
X259384000Y-86535000D03*
D12*
X268000000Y-89075000D03*
%TD*%
D13*
%TO.C,U4*%
X244905000Y-51000000D03*
X243635000Y-51000000D03*
X242365000Y-51000000D03*
X241095000Y-51000000D03*
X241095000Y-46050000D03*
X242365000Y-46050000D03*
X243635000Y-46050000D03*
X244905000Y-46050000D03*
%TD*%
D11*
%TO.C,D5*%
X290616000Y-127220000D03*
X290616000Y-132300000D03*
D12*
X282000000Y-129760000D03*
%TD*%
D11*
%TO.C,D18*%
X93384000Y-102790000D03*
X93384000Y-97710000D03*
D12*
X102000000Y-100250000D03*
%TD*%
D11*
%TO.C,D20*%
X259352000Y-37290000D03*
X259352000Y-32210000D03*
D12*
X267968000Y-34750000D03*
%TD*%
D11*
%TO.C,D10*%
X259384000Y-118540000D03*
X259384000Y-113460000D03*
D12*
X268000000Y-116000000D03*
%TD*%
D11*
%TO.C,D6*%
X290616000Y-113460000D03*
X290616000Y-118540000D03*
D12*
X282000000Y-116000000D03*
%TD*%
D11*
%TO.C,D11*%
X93411280Y-52540000D03*
X93411280Y-47460000D03*
D12*
X102027280Y-50000000D03*
%TD*%
D11*
%TO.C,D15*%
X291276000Y-45460000D03*
X291276000Y-50540000D03*
D12*
X282660000Y-48000000D03*
%TD*%
D14*
%TO.C,Q5*%
X240800000Y-65310000D03*
X240800000Y-64040000D03*
X240800000Y-62770000D03*
X240800000Y-61500000D03*
X240800000Y-60230000D03*
X240800000Y-58960000D03*
X240800000Y-57690000D03*
%TD*%
M02*
