%TF.GenerationSoftware,KiCad,Pcbnew,9.0.0*%
%TF.CreationDate,2025-04-01T22:49:05-07:00*%
%TF.ProjectId,DynamicBrakeGrid,44796e61-6d69-4634-9272-616b65477269,rev?*%
%TF.SameCoordinates,Original*%
%TF.FileFunction,Paste,Top*%
%TF.FilePolarity,Positive*%
%FSLAX46Y46*%
G04 Gerber Fmt 4.6, Leading zero omitted, Abs format (unit mm)*
G04 Created by KiCad (PCBNEW 9.0.0) date 2025-04-01 22:49:05*
%MOMM*%
%LPD*%
G01*
G04 APERTURE LIST*
G04 Aperture macros list*
%AMRoundRect*
0 Rectangle with rounded corners*
0 $1 Rounding radius*
0 $2 $3 $4 $5 $6 $7 $8 $9 X,Y pos of 4 corners*
0 Add a 4 corners polygon primitive as box body*
4,1,4,$2,$3,$4,$5,$6,$7,$8,$9,$2,$3,0*
0 Add four circle primitives for the rounded corners*
1,1,$1+$1,$2,$3*
1,1,$1+$1,$4,$5*
1,1,$1+$1,$6,$7*
1,1,$1+$1,$8,$9*
0 Add four rect primitives between the rounded corners*
20,1,$1+$1,$2,$3,$4,$5,0*
20,1,$1+$1,$4,$5,$6,$7,0*
20,1,$1+$1,$6,$7,$8,$9,0*
20,1,$1+$1,$8,$9,$2,$3,0*%
G04 Aperture macros list end*
%ADD10RoundRect,0.250000X1.100000X-0.412500X1.100000X0.412500X-1.100000X0.412500X-1.100000X-0.412500X0*%
%ADD11R,3.300000X1.200000*%
%ADD12RoundRect,0.250000X-0.412500X-1.100000X0.412500X-1.100000X0.412500X1.100000X-0.412500X1.100000X0*%
%ADD13RoundRect,0.250000X-1.075000X0.400000X-1.075000X-0.400000X1.075000X-0.400000X1.075000X0.400000X0*%
%ADD14RoundRect,0.250000X-1.100000X0.412500X-1.100000X-0.412500X1.100000X-0.412500X1.100000X0.412500X0*%
%ADD15RoundRect,0.250000X-0.400000X-1.075000X0.400000X-1.075000X0.400000X1.075000X-0.400000X1.075000X0*%
%ADD16RoundRect,0.250000X0.400000X1.075000X-0.400000X1.075000X-0.400000X-1.075000X0.400000X-1.075000X0*%
%ADD17RoundRect,0.250000X0.412500X1.100000X-0.412500X1.100000X-0.412500X-1.100000X0.412500X-1.100000X0*%
%ADD18R,1.475000X0.450000*%
%ADD19RoundRect,0.250000X1.075000X-0.400000X1.075000X0.400000X-1.075000X0.400000X-1.075000X-0.400000X0*%
%ADD20R,1.750000X1.000000*%
%ADD21R,2.720000X2.290000*%
%ADD22R,4.900000X3.000000*%
%ADD23R,1.050000X0.850000*%
%ADD24R,0.950000X1.000000*%
%ADD25R,1.528000X0.650000*%
%ADD26R,1.850000X0.650000*%
%ADD27R,1.350000X0.900000*%
%ADD28R,0.650000X1.528000*%
G04 APERTURE END LIST*
D10*
%TO.C,C79*%
X119500000Y-139125000D03*
X119500000Y-136000000D03*
%TD*%
D11*
%TO.C,R68*%
X235000000Y-61500000D03*
X235000000Y-67500000D03*
%TD*%
D12*
%TO.C,C26*%
X181437500Y-45000000D03*
X184562500Y-45000000D03*
%TD*%
D13*
%TO.C,R72*%
X209000000Y-76350000D03*
X209000000Y-79450000D03*
%TD*%
D10*
%TO.C,C65*%
X76500000Y-130062500D03*
X76500000Y-126937500D03*
%TD*%
D12*
%TO.C,C34*%
X187937500Y-45000000D03*
X191062500Y-45000000D03*
%TD*%
D10*
%TO.C,C59*%
X93000000Y-87062500D03*
X93000000Y-83937500D03*
%TD*%
D12*
%TO.C,C32*%
X187875000Y-50000000D03*
X191000000Y-50000000D03*
%TD*%
D14*
%TO.C,C62*%
X92000000Y-78437500D03*
X92000000Y-81562500D03*
%TD*%
D15*
%TO.C,R60*%
X35500000Y-124750000D03*
X38600000Y-124750000D03*
%TD*%
D12*
%TO.C,C63*%
X218875000Y-66900000D03*
X222000000Y-66900000D03*
%TD*%
D10*
%TO.C,C89*%
X66000000Y-125812500D03*
X66000000Y-122687500D03*
%TD*%
D16*
%TO.C,R58*%
X170050000Y-97500000D03*
X166950000Y-97500000D03*
%TD*%
D12*
%TO.C,C95*%
X40000000Y-135000000D03*
X43125000Y-135000000D03*
%TD*%
D17*
%TO.C,C77*%
X119562500Y-132000000D03*
X116437500Y-132000000D03*
%TD*%
%TO.C,C82*%
X228562500Y-68900000D03*
X225437500Y-68900000D03*
%TD*%
D10*
%TO.C,C36*%
X157500000Y-86062500D03*
X157500000Y-82937500D03*
%TD*%
D12*
%TO.C,C28*%
X175000000Y-45000000D03*
X178125000Y-45000000D03*
%TD*%
D14*
%TO.C,C75*%
X130500000Y-129937500D03*
X130500000Y-133062500D03*
%TD*%
D13*
%TO.C,R62*%
X87000000Y-136950000D03*
X87000000Y-140050000D03*
%TD*%
D10*
%TO.C,C84*%
X88000000Y-95500000D03*
X88000000Y-92375000D03*
%TD*%
D13*
%TO.C,R71*%
X227500000Y-84000000D03*
X227500000Y-87100000D03*
%TD*%
D12*
%TO.C,C38*%
X161437500Y-118000000D03*
X164562500Y-118000000D03*
%TD*%
D10*
%TO.C,C73*%
X108000000Y-95562500D03*
X108000000Y-92437500D03*
%TD*%
D18*
%TO.C,IC6*%
X66000000Y-130450000D03*
X66000000Y-131100000D03*
X66000000Y-131750000D03*
X66000000Y-132400000D03*
X66000000Y-133050000D03*
X66000000Y-133700000D03*
X66000000Y-134350000D03*
X66000000Y-135000000D03*
X66000000Y-135650000D03*
X66000000Y-136300000D03*
X71876000Y-136300000D03*
X71876000Y-135650000D03*
X71876000Y-135000000D03*
X71876000Y-134350000D03*
X71876000Y-133700000D03*
X71876000Y-133050000D03*
X71876000Y-132400000D03*
X71876000Y-131750000D03*
X71876000Y-131100000D03*
X71876000Y-130450000D03*
%TD*%
D19*
%TO.C,R50*%
X160000000Y-102100000D03*
X160000000Y-99000000D03*
%TD*%
D20*
%TO.C,LED1*%
X87000000Y-146500000D03*
X87000000Y-143500000D03*
%TD*%
%TO.C,LED2*%
X92500000Y-146500000D03*
X92500000Y-143500000D03*
%TD*%
D16*
%TO.C,R4*%
X153550000Y-89000000D03*
X150450000Y-89000000D03*
%TD*%
D14*
%TO.C,C69*%
X223000000Y-83937500D03*
X223000000Y-87062500D03*
%TD*%
D11*
%TO.C,R67*%
X235000000Y-75500000D03*
X235000000Y-69500000D03*
%TD*%
D16*
%TO.C,R3*%
X153550000Y-95000000D03*
X150450000Y-95000000D03*
%TD*%
D21*
%TO.C,Z1*%
X196000000Y-45000000D03*
X196000000Y-49050000D03*
%TD*%
D14*
%TO.C,C74*%
X135000000Y-129937500D03*
X135000000Y-133062500D03*
%TD*%
D13*
%TO.C,R2*%
X92500000Y-46900000D03*
X92500000Y-50000000D03*
%TD*%
D14*
%TO.C,C76*%
X123000000Y-136000000D03*
X123000000Y-139125000D03*
%TD*%
D22*
%TO.C,Y1*%
X64350000Y-141500000D03*
X71650000Y-141500000D03*
%TD*%
D11*
%TO.C,R65*%
X235000000Y-91500000D03*
X235000000Y-85500000D03*
%TD*%
D23*
%TO.C,Z3*%
X209800000Y-71900000D03*
X206200000Y-71900000D03*
%TD*%
D12*
%TO.C,C85*%
X77187500Y-146000000D03*
X80312500Y-146000000D03*
%TD*%
D10*
%TO.C,C71*%
X108000000Y-68562500D03*
X108000000Y-65437500D03*
%TD*%
%TO.C,C70*%
X108000000Y-55062500D03*
X108000000Y-51937500D03*
%TD*%
D17*
%TO.C,C93*%
X44125000Y-123000000D03*
X41000000Y-123000000D03*
%TD*%
D24*
%TO.C,FB3*%
X167400000Y-70000000D03*
X169000000Y-70000000D03*
%TD*%
D11*
%TO.C,R69*%
X235000000Y-59500000D03*
X235000000Y-53500000D03*
%TD*%
D25*
%TO.C,IC5*%
X213991500Y-75090000D03*
X213991500Y-76360000D03*
X213991500Y-77630000D03*
X213991500Y-78900000D03*
X219413500Y-78900000D03*
X219413500Y-77630000D03*
X219413500Y-76360000D03*
X219413500Y-75090000D03*
%TD*%
D12*
%TO.C,C94*%
X48000000Y-135000000D03*
X51125000Y-135000000D03*
%TD*%
D15*
%TO.C,R39*%
X133400000Y-137500000D03*
X136500000Y-137500000D03*
%TD*%
D16*
%TO.C,R52*%
X159100000Y-112000000D03*
X156000000Y-112000000D03*
%TD*%
D12*
%TO.C,C64*%
X218875000Y-71900000D03*
X222000000Y-71900000D03*
%TD*%
D26*
%TO.C,IC1*%
X62325000Y-129905000D03*
X62325000Y-128635000D03*
X62325000Y-127365000D03*
X62325000Y-126095000D03*
X51675000Y-126095000D03*
X51675000Y-127365000D03*
X51675000Y-128635000D03*
X51675000Y-129905000D03*
%TD*%
D12*
%TO.C,C81*%
X210000000Y-67900000D03*
X213125000Y-67900000D03*
%TD*%
D27*
%TO.C,FL1*%
X48275000Y-129250000D03*
X48275000Y-126750000D03*
X43725000Y-126750000D03*
X43725000Y-129250000D03*
%TD*%
D15*
%TO.C,R59*%
X77950000Y-134000000D03*
X81050000Y-134000000D03*
%TD*%
D14*
%TO.C,C61*%
X87000000Y-78375000D03*
X87000000Y-81500000D03*
%TD*%
D16*
%TO.C,R55*%
X165050000Y-70500000D03*
X161950000Y-70500000D03*
%TD*%
%TO.C,R73*%
X112612500Y-131500000D03*
X109512500Y-131500000D03*
%TD*%
D12*
%TO.C,C29*%
X175000000Y-50000000D03*
X178125000Y-50000000D03*
%TD*%
D17*
%TO.C,C83*%
X78125000Y-92000000D03*
X75000000Y-92000000D03*
%TD*%
D13*
%TO.C,R1*%
X92500000Y-53450000D03*
X92500000Y-56550000D03*
%TD*%
D14*
%TO.C,C90*%
X69750000Y-122625000D03*
X69750000Y-125750000D03*
%TD*%
D11*
%TO.C,R66*%
X235000000Y-77500000D03*
X235000000Y-83500000D03*
%TD*%
D10*
%TO.C,C37*%
X162500000Y-86062500D03*
X162500000Y-82937500D03*
%TD*%
D12*
%TO.C,C92*%
X46937500Y-123000000D03*
X50062500Y-123000000D03*
%TD*%
D10*
%TO.C,C66*%
X81500000Y-130125000D03*
X81500000Y-127000000D03*
%TD*%
D12*
%TO.C,C27*%
X181437500Y-50000000D03*
X184562500Y-50000000D03*
%TD*%
D10*
%TO.C,C72*%
X108000000Y-82562500D03*
X108000000Y-79437500D03*
%TD*%
D13*
%TO.C,R63*%
X92500000Y-136950000D03*
X92500000Y-140050000D03*
%TD*%
D17*
%TO.C,C78*%
X119562500Y-127000000D03*
X116437500Y-127000000D03*
%TD*%
D12*
%TO.C,C47*%
X162937500Y-77000000D03*
X166062500Y-77000000D03*
%TD*%
%TO.C,C86*%
X77187500Y-141500000D03*
X80312500Y-141500000D03*
%TD*%
D11*
%TO.C,R70*%
X235000000Y-45500000D03*
X235000000Y-51500000D03*
%TD*%
D17*
%TO.C,C80*%
X112562500Y-127000000D03*
X109437500Y-127000000D03*
%TD*%
%TO.C,C67*%
X71812500Y-146250000D03*
X68687500Y-146250000D03*
%TD*%
D12*
%TO.C,C68*%
X63437500Y-146250000D03*
X66562500Y-146250000D03*
%TD*%
D13*
%TO.C,R56*%
X158500000Y-72950000D03*
X158500000Y-76050000D03*
%TD*%
D16*
%TO.C,R51*%
X164600000Y-112000000D03*
X161500000Y-112000000D03*
%TD*%
D28*
%TO.C,IC3*%
X161095000Y-94711000D03*
X162365000Y-94711000D03*
X163635000Y-94711000D03*
X164905000Y-94711000D03*
X164905000Y-89289000D03*
X163635000Y-89289000D03*
X162365000Y-89289000D03*
X161095000Y-89289000D03*
%TD*%
D24*
%TO.C,FB1*%
X167400000Y-115000000D03*
X169000000Y-115000000D03*
%TD*%
D10*
%TO.C,C60*%
X88000000Y-87125000D03*
X88000000Y-84000000D03*
%TD*%
D25*
%TO.C,IC8*%
X109289000Y-137095000D03*
X109289000Y-138365000D03*
X109289000Y-139635000D03*
X109289000Y-140905000D03*
X114711000Y-140905000D03*
X114711000Y-139635000D03*
X114711000Y-138365000D03*
X114711000Y-137095000D03*
%TD*%
D12*
%TO.C,C91*%
X52437500Y-123000000D03*
X55562500Y-123000000D03*
%TD*%
M02*
