%TF.GenerationSoftware,KiCad,Pcbnew,9.0.0*%
%TF.CreationDate,2025-03-25T18:07:07-07:00*%
%TF.ProjectId,DynamicBrakeGrid,44796e61-6d69-4634-9272-616b65477269,rev?*%
%TF.SameCoordinates,Original*%
%TF.FileFunction,Soldermask,Bot*%
%TF.FilePolarity,Negative*%
%FSLAX46Y46*%
G04 Gerber Fmt 4.6, Leading zero omitted, Abs format (unit mm)*
G04 Created by KiCad (PCBNEW 9.0.0) date 2025-03-25 18:07:07*
%MOMM*%
%LPD*%
G01*
G04 APERTURE LIST*
G04 Aperture macros list*
%AMHorizOval*
0 Thick line with rounded ends*
0 $1 width*
0 $2 $3 position (X,Y) of the first rounded end (center of the circle)*
0 $4 $5 position (X,Y) of the second rounded end (center of the circle)*
0 Add line between two ends*
20,1,$1,$2,$3,$4,$5,0*
0 Add two circle primitives to create the rounded ends*
1,1,$1,$2,$3*
1,1,$1,$4,$5*%
G04 Aperture macros list end*
%ADD10R,1.950000X1.950000*%
%ADD11C,1.950000*%
%ADD12C,9.500000*%
%ADD13R,1.200000X1.200000*%
%ADD14C,1.200000*%
%ADD15C,3.900000*%
%ADD16C,2.430000*%
%ADD17R,2.430000X2.430000*%
%ADD18R,1.650000X1.650000*%
%ADD19C,1.650000*%
%ADD20R,1.500000X1.500000*%
%ADD21C,1.500000*%
%ADD22HorizOval,0.800000X0.000000X0.000000X0.000000X0.000000X0*%
%ADD23HorizOval,0.800000X0.000000X0.000000X0.000000X0.000000X0*%
%ADD24C,0.800000*%
%ADD25O,6.000000X9.000000*%
%ADD26C,1.100000*%
%ADD27R,2.030000X1.730000*%
%ADD28O,2.030000X1.730000*%
%ADD29R,1.700000X1.700000*%
%ADD30O,1.700000X1.700000*%
%ADD31C,5.940000*%
%ADD32R,3.000000X3.000000*%
%ADD33C,3.000000*%
%ADD34R,1.600000X1.600000*%
%ADD35O,1.600000X1.600000*%
G04 APERTURE END LIST*
D10*
%TO.C,J1*%
X218000000Y-55000000D03*
D11*
X223000000Y-55000000D03*
%TD*%
%TO.C,J2*%
X209900000Y-55000000D03*
D10*
X204900000Y-55000000D03*
%TD*%
D12*
%TO.C,H2*%
X205000000Y-89000000D03*
%TD*%
D13*
%TO.C,C2*%
X135000000Y-102500000D03*
D14*
X130000000Y-102500000D03*
%TD*%
%TO.C,C3*%
X164000000Y-47000000D03*
D13*
X169000000Y-47000000D03*
%TD*%
D14*
%TO.C,C4*%
X152660000Y-59300000D03*
D13*
X157660000Y-59300000D03*
%TD*%
D14*
%TO.C,C5*%
X152660000Y-46800000D03*
D13*
X157660000Y-46800000D03*
%TD*%
D15*
%TO.C,H5*%
X185000000Y-107600000D03*
X185000000Y-133000000D03*
%TD*%
%TO.C,H6*%
X185000000Y-62600000D03*
X185000000Y-88000000D03*
%TD*%
D16*
%TO.C,Q2*%
X181710000Y-80680000D03*
X181710000Y-75240000D03*
D17*
X181710000Y-69800000D03*
%TD*%
D16*
%TO.C,Q1*%
X182000000Y-125740000D03*
X182000000Y-120300000D03*
D17*
X182000000Y-114860000D03*
%TD*%
D14*
%TO.C,C6*%
X141210000Y-46800000D03*
D13*
X146210000Y-46800000D03*
%TD*%
D18*
%TO.C,J8*%
X100000000Y-72300000D03*
D19*
X100000000Y-75800000D03*
X100000000Y-79300000D03*
%TD*%
D18*
%TO.C,J24*%
X100000000Y-99300000D03*
D19*
X100000000Y-102800000D03*
X100000000Y-106300000D03*
%TD*%
D18*
%TO.C,J5*%
X100000000Y-45300000D03*
D19*
X100000000Y-48800000D03*
X100000000Y-52300000D03*
%TD*%
D14*
%TO.C,C7*%
X141210000Y-84300000D03*
D13*
X146210000Y-84300000D03*
%TD*%
D14*
%TO.C,C8*%
X141210000Y-71800000D03*
D13*
X146210000Y-71800000D03*
%TD*%
D14*
%TO.C,C9*%
X141210000Y-59300000D03*
D13*
X146210000Y-59300000D03*
%TD*%
D18*
%TO.C,J9*%
X100000000Y-85800000D03*
D19*
X100000000Y-89300000D03*
X100000000Y-92800000D03*
%TD*%
D18*
%TO.C,J7*%
X100000000Y-58800000D03*
D19*
X100000000Y-62300000D03*
X100000000Y-65800000D03*
%TD*%
D12*
%TO.C,H4*%
X237500000Y-127500000D03*
%TD*%
%TO.C,H3*%
X103000000Y-153000000D03*
%TD*%
%TO.C,H1*%
X62000000Y-50000000D03*
%TD*%
D11*
%TO.C,J16*%
X181000000Y-150500000D03*
X175920000Y-150500000D03*
D10*
X170840000Y-150500000D03*
%TD*%
D11*
%TO.C,J17*%
X200080000Y-150500000D03*
X195000000Y-150500000D03*
D10*
X189920000Y-150500000D03*
%TD*%
D20*
%TO.C,U6*%
X139175000Y-131600000D03*
D21*
X139175000Y-133510000D03*
X139175000Y-135420000D03*
D22*
X161205000Y-134560000D03*
D23*
X159945000Y-134560000D03*
D24*
X162235000Y-135310000D03*
X158915000Y-135310000D03*
X162625000Y-136510000D03*
X158525000Y-136510000D03*
X162625000Y-137840000D03*
X158525000Y-137840000D03*
D25*
X160575000Y-138510000D03*
D24*
X162625000Y-139180000D03*
X158525000Y-139180000D03*
X162625000Y-140510000D03*
X158525000Y-140510000D03*
X162235000Y-141710000D03*
X158915000Y-141710000D03*
X161205000Y-142460000D03*
X159945000Y-142460000D03*
X161205000Y-124560000D03*
X159945000Y-124560000D03*
X162235000Y-125310000D03*
X158915000Y-125310000D03*
X162625000Y-126510000D03*
X158525000Y-126510000D03*
X162625000Y-127840000D03*
X158525000Y-127840000D03*
D25*
X160575000Y-128510000D03*
D24*
X162625000Y-129180000D03*
X158525000Y-129180000D03*
X162625000Y-130510000D03*
X158525000Y-130510000D03*
X162235000Y-131710000D03*
X158915000Y-131710000D03*
D23*
X161205000Y-132460000D03*
D22*
X159945000Y-132460000D03*
%TD*%
D26*
%TO.C,M8*%
X130000000Y-46720000D03*
D27*
X132160000Y-51800000D03*
D28*
X132160000Y-49260000D03*
X132160000Y-46720000D03*
X132160000Y-44180000D03*
%TD*%
D26*
%TO.C,M3*%
X130000000Y-60720000D03*
D27*
X132160000Y-65800000D03*
D28*
X132160000Y-63260000D03*
X132160000Y-60720000D03*
X132160000Y-58180000D03*
%TD*%
D26*
%TO.C,M2*%
X130000000Y-75000000D03*
D27*
X132160000Y-80080000D03*
D28*
X132160000Y-77540000D03*
X132160000Y-75000000D03*
X132160000Y-72460000D03*
%TD*%
D26*
%TO.C,M1*%
X130000000Y-89000000D03*
D27*
X132160000Y-94080000D03*
D28*
X132160000Y-91540000D03*
X132160000Y-89000000D03*
X132160000Y-86460000D03*
%TD*%
D29*
%TO.C,JP1*%
X38500000Y-127500000D03*
D30*
X38500000Y-130040000D03*
%TD*%
D18*
%TO.C,J25*%
X115000000Y-52800000D03*
D19*
X115000000Y-49300000D03*
X115000000Y-45800000D03*
%TD*%
D10*
%TO.C,J23*%
X150205000Y-150525000D03*
D11*
X155285000Y-150525000D03*
X160365000Y-150525000D03*
%TD*%
D10*
%TO.C,J22*%
X131410000Y-150525000D03*
D11*
X136490000Y-150525000D03*
X141570000Y-150525000D03*
%TD*%
D31*
%TO.C,J13*%
X248650000Y-60000000D03*
X261350000Y-73000000D03*
%TD*%
D18*
%TO.C,J12*%
X115000000Y-66300000D03*
D19*
X115000000Y-62800000D03*
X115000000Y-59300000D03*
%TD*%
D18*
%TO.C,J11*%
X115000000Y-79800000D03*
D19*
X115000000Y-76300000D03*
X115000000Y-72800000D03*
%TD*%
D18*
%TO.C,J10*%
X115000000Y-93300000D03*
D19*
X115000000Y-89800000D03*
X115000000Y-86300000D03*
%TD*%
D18*
%TO.C,J6*%
X115000000Y-106800000D03*
D19*
X115000000Y-103300000D03*
X115000000Y-99800000D03*
%TD*%
D10*
%TO.C,J4*%
X48000000Y-143000000D03*
D11*
X53000000Y-143000000D03*
%TD*%
D10*
%TO.C,J3*%
X34900000Y-143000000D03*
D11*
X39900000Y-143000000D03*
%TD*%
D32*
%TO.C,C15*%
X248500000Y-143500000D03*
D33*
X258500000Y-143500000D03*
%TD*%
D32*
%TO.C,C14*%
X248500000Y-111000000D03*
D33*
X258500000Y-111000000D03*
%TD*%
D32*
%TO.C,C13*%
X216000000Y-143500000D03*
D33*
X226000000Y-143500000D03*
%TD*%
D32*
%TO.C,C12*%
X216000000Y-111000000D03*
D33*
X226000000Y-111000000D03*
%TD*%
D34*
%TO.C,A1*%
X82130000Y-68825000D03*
D35*
X82130000Y-71365000D03*
X82130000Y-73905000D03*
X82130000Y-76445000D03*
X82130000Y-78985000D03*
X82130000Y-81525000D03*
X82130000Y-84065000D03*
X82130000Y-86605000D03*
X82130000Y-91685000D03*
X82130000Y-94225000D03*
X82130000Y-96765000D03*
X82130000Y-99305000D03*
X82130000Y-101845000D03*
X82130000Y-104385000D03*
X33870000Y-104385000D03*
X33870000Y-101845000D03*
X33870000Y-99305000D03*
X33870000Y-96765000D03*
X33870000Y-94225000D03*
X33870000Y-91685000D03*
X33870000Y-89145000D03*
X33870000Y-86605000D03*
X33870000Y-82545000D03*
X33870000Y-80005000D03*
X33870000Y-77465000D03*
X33870000Y-74925000D03*
X33870000Y-72385000D03*
X33870000Y-69845000D03*
X33870000Y-67305000D03*
X33870000Y-64765000D03*
X33870000Y-62225000D03*
X33870000Y-59685000D03*
%TD*%
M02*
