%TF.GenerationSoftware,KiCad,Pcbnew,9.0.0*%
%TF.CreationDate,2025-03-25T18:07:07-07:00*%
%TF.ProjectId,DynamicBrakeGrid,44796e61-6d69-4634-9272-616b65477269,rev?*%
%TF.SameCoordinates,Original*%
%TF.FileFunction,Soldermask,Top*%
%TF.FilePolarity,Negative*%
%FSLAX46Y46*%
G04 Gerber Fmt 4.6, Leading zero omitted, Abs format (unit mm)*
G04 Created by KiCad (PCBNEW 9.0.0) date 2025-03-25 18:07:07*
%MOMM*%
%LPD*%
G01*
G04 APERTURE LIST*
G04 Aperture macros list*
%AMRoundRect*
0 Rectangle with rounded corners*
0 $1 Rounding radius*
0 $2 $3 $4 $5 $6 $7 $8 $9 X,Y pos of 4 corners*
0 Add a 4 corners polygon primitive as box body*
4,1,4,$2,$3,$4,$5,$6,$7,$8,$9,$2,$3,0*
0 Add four circle primitives for the rounded corners*
1,1,$1+$1,$2,$3*
1,1,$1+$1,$4,$5*
1,1,$1+$1,$6,$7*
1,1,$1+$1,$8,$9*
0 Add four rect primitives between the rounded corners*
20,1,$1+$1,$2,$3,$4,$5,0*
20,1,$1+$1,$4,$5,$6,$7,0*
20,1,$1+$1,$6,$7,$8,$9,0*
20,1,$1+$1,$8,$9,$2,$3,0*%
%AMHorizOval*
0 Thick line with rounded ends*
0 $1 width*
0 $2 $3 position (X,Y) of the first rounded end (center of the circle)*
0 $4 $5 position (X,Y) of the second rounded end (center of the circle)*
0 Add line between two ends*
20,1,$1,$2,$3,$4,$5,0*
0 Add two circle primitives to create the rounded ends*
1,1,$1,$2,$3*
1,1,$1,$4,$5*%
G04 Aperture macros list end*
%ADD10RoundRect,0.250000X-1.075000X0.400000X-1.075000X-0.400000X1.075000X-0.400000X1.075000X0.400000X0*%
%ADD11R,1.750000X1.000000*%
%ADD12RoundRect,0.250000X-0.412500X-1.100000X0.412500X-1.100000X0.412500X1.100000X-0.412500X1.100000X0*%
%ADD13R,1.950000X1.950000*%
%ADD14C,1.950000*%
%ADD15C,9.500000*%
%ADD16RoundRect,0.250000X0.412500X1.100000X-0.412500X1.100000X-0.412500X-1.100000X0.412500X-1.100000X0*%
%ADD17R,1.528000X0.650000*%
%ADD18R,1.050000X0.850000*%
%ADD19R,3.300000X1.200000*%
%ADD20R,1.200000X1.200000*%
%ADD21C,1.200000*%
%ADD22C,3.900000*%
%ADD23C,2.430000*%
%ADD24R,2.430000X2.430000*%
%ADD25R,1.650000X1.650000*%
%ADD26C,1.650000*%
%ADD27R,2.720000X2.290000*%
%ADD28R,4.900000X3.000000*%
%ADD29R,1.500000X1.500000*%
%ADD30C,1.500000*%
%ADD31HorizOval,0.800000X0.000000X0.000000X0.000000X0.000000X0*%
%ADD32HorizOval,0.800000X0.000000X0.000000X0.000000X0.000000X0*%
%ADD33C,0.800000*%
%ADD34O,6.000000X9.000000*%
%ADD35RoundRect,0.250000X0.400000X1.075000X-0.400000X1.075000X-0.400000X-1.075000X0.400000X-1.075000X0*%
%ADD36RoundRect,0.250000X1.075000X-0.400000X1.075000X0.400000X-1.075000X0.400000X-1.075000X-0.400000X0*%
%ADD37RoundRect,0.250000X-0.400000X-1.075000X0.400000X-1.075000X0.400000X1.075000X-0.400000X1.075000X0*%
%ADD38C,1.100000*%
%ADD39R,2.030000X1.730000*%
%ADD40O,2.030000X1.730000*%
%ADD41R,1.700000X1.700000*%
%ADD42O,1.700000X1.700000*%
%ADD43C,5.940000*%
%ADD44R,1.475000X0.450000*%
%ADD45R,0.650000X1.528000*%
%ADD46R,0.950000X1.000000*%
%ADD47RoundRect,0.250000X1.100000X-0.412500X1.100000X0.412500X-1.100000X0.412500X-1.100000X-0.412500X0*%
%ADD48RoundRect,0.250000X-1.100000X0.412500X-1.100000X-0.412500X1.100000X-0.412500X1.100000X0.412500X0*%
%ADD49R,3.000000X3.000000*%
%ADD50C,3.000000*%
%ADD51R,1.600000X1.600000*%
%ADD52O,1.600000X1.600000*%
G04 APERTURE END LIST*
D10*
%TO.C,R62*%
X87000000Y-136950000D03*
X87000000Y-140050000D03*
%TD*%
D11*
%TO.C,LED1*%
X87000000Y-146500000D03*
X87000000Y-143500000D03*
%TD*%
D10*
%TO.C,R63*%
X92500000Y-140050000D03*
X92500000Y-136950000D03*
%TD*%
D11*
%TO.C,LED2*%
X92500000Y-143500000D03*
X92500000Y-146500000D03*
%TD*%
D12*
%TO.C,C34*%
X191062500Y-45000000D03*
X187937500Y-45000000D03*
%TD*%
%TO.C,C32*%
X191000000Y-50000000D03*
X187875000Y-50000000D03*
%TD*%
D13*
%TO.C,J1*%
X218000000Y-55000000D03*
D14*
X223000000Y-55000000D03*
%TD*%
%TO.C,J2*%
X209900000Y-55000000D03*
D13*
X204900000Y-55000000D03*
%TD*%
D15*
%TO.C,H2*%
X205000000Y-89000000D03*
%TD*%
D12*
%TO.C,C64*%
X222000000Y-71900000D03*
X218875000Y-71900000D03*
%TD*%
%TO.C,C81*%
X213125000Y-67900000D03*
X210000000Y-67900000D03*
%TD*%
D16*
%TO.C,C82*%
X225437500Y-68900000D03*
X228562500Y-68900000D03*
%TD*%
D10*
%TO.C,R72*%
X209000000Y-79450000D03*
X209000000Y-76350000D03*
%TD*%
D17*
%TO.C,IC5*%
X219413500Y-75090000D03*
X219413500Y-76360000D03*
X219413500Y-77630000D03*
X219413500Y-78900000D03*
X213991500Y-78900000D03*
X213991500Y-77630000D03*
X213991500Y-76360000D03*
X213991500Y-75090000D03*
%TD*%
D18*
%TO.C,Z3*%
X206200000Y-71900000D03*
X209800000Y-71900000D03*
%TD*%
D12*
%TO.C,C63*%
X222000000Y-66900000D03*
X218875000Y-66900000D03*
%TD*%
D19*
%TO.C,R67*%
X235000000Y-69500000D03*
X235000000Y-75500000D03*
%TD*%
%TO.C,R69*%
X235000000Y-53500000D03*
X235000000Y-59500000D03*
%TD*%
%TO.C,R66*%
X235000000Y-83500000D03*
X235000000Y-77500000D03*
%TD*%
%TO.C,R70*%
X235000000Y-45500000D03*
X235000000Y-51500000D03*
%TD*%
%TO.C,R68*%
X235000000Y-67500000D03*
X235000000Y-61500000D03*
%TD*%
%TO.C,R65*%
X235000000Y-85500000D03*
X235000000Y-91500000D03*
%TD*%
D20*
%TO.C,C2*%
X135000000Y-102500000D03*
D21*
X130000000Y-102500000D03*
%TD*%
%TO.C,C3*%
X164000000Y-47000000D03*
D20*
X169000000Y-47000000D03*
%TD*%
D21*
%TO.C,C4*%
X152660000Y-59300000D03*
D20*
X157660000Y-59300000D03*
%TD*%
D21*
%TO.C,C5*%
X152660000Y-46800000D03*
D20*
X157660000Y-46800000D03*
%TD*%
D22*
%TO.C,H5*%
X185000000Y-107600000D03*
X185000000Y-133000000D03*
%TD*%
%TO.C,H6*%
X185000000Y-62600000D03*
X185000000Y-88000000D03*
%TD*%
D23*
%TO.C,Q2*%
X181710000Y-80680000D03*
X181710000Y-75240000D03*
D24*
X181710000Y-69800000D03*
%TD*%
D23*
%TO.C,Q1*%
X182000000Y-125740000D03*
X182000000Y-120300000D03*
D24*
X182000000Y-114860000D03*
%TD*%
D21*
%TO.C,C6*%
X141210000Y-46800000D03*
D20*
X146210000Y-46800000D03*
%TD*%
D25*
%TO.C,J8*%
X100000000Y-72300000D03*
D26*
X100000000Y-75800000D03*
X100000000Y-79300000D03*
%TD*%
D25*
%TO.C,J24*%
X100000000Y-99300000D03*
D26*
X100000000Y-102800000D03*
X100000000Y-106300000D03*
%TD*%
D25*
%TO.C,J5*%
X100000000Y-45300000D03*
D26*
X100000000Y-48800000D03*
X100000000Y-52300000D03*
%TD*%
D21*
%TO.C,C7*%
X141210000Y-84300000D03*
D20*
X146210000Y-84300000D03*
%TD*%
D21*
%TO.C,C8*%
X141210000Y-71800000D03*
D20*
X146210000Y-71800000D03*
%TD*%
D21*
%TO.C,C9*%
X141210000Y-59300000D03*
D20*
X146210000Y-59300000D03*
%TD*%
D25*
%TO.C,J9*%
X100000000Y-85800000D03*
D26*
X100000000Y-89300000D03*
X100000000Y-92800000D03*
%TD*%
D25*
%TO.C,J7*%
X100000000Y-58800000D03*
D26*
X100000000Y-62300000D03*
X100000000Y-65800000D03*
%TD*%
D15*
%TO.C,H4*%
X237500000Y-127500000D03*
%TD*%
%TO.C,H3*%
X103000000Y-153000000D03*
%TD*%
%TO.C,H1*%
X62000000Y-50000000D03*
%TD*%
D14*
%TO.C,J16*%
X181000000Y-150500000D03*
X175920000Y-150500000D03*
D13*
X170840000Y-150500000D03*
%TD*%
D14*
%TO.C,J17*%
X200080000Y-150500000D03*
X195000000Y-150500000D03*
D13*
X189920000Y-150500000D03*
%TD*%
D27*
%TO.C,Z1*%
X196000000Y-45000000D03*
X196000000Y-49050000D03*
%TD*%
D28*
%TO.C,Y1*%
X62850000Y-144000000D03*
X70150000Y-144000000D03*
%TD*%
D29*
%TO.C,U6*%
X139175000Y-131600000D03*
D30*
X139175000Y-133510000D03*
X139175000Y-135420000D03*
D31*
X161205000Y-134560000D03*
D32*
X159945000Y-134560000D03*
D33*
X162235000Y-135310000D03*
X158915000Y-135310000D03*
X162625000Y-136510000D03*
X158525000Y-136510000D03*
X162625000Y-137840000D03*
X158525000Y-137840000D03*
D34*
X160575000Y-138510000D03*
D33*
X162625000Y-139180000D03*
X158525000Y-139180000D03*
X162625000Y-140510000D03*
X158525000Y-140510000D03*
X162235000Y-141710000D03*
X158915000Y-141710000D03*
X161205000Y-142460000D03*
X159945000Y-142460000D03*
X161205000Y-124560000D03*
X159945000Y-124560000D03*
X162235000Y-125310000D03*
X158915000Y-125310000D03*
X162625000Y-126510000D03*
X158525000Y-126510000D03*
X162625000Y-127840000D03*
X158525000Y-127840000D03*
D34*
X160575000Y-128510000D03*
D33*
X162625000Y-129180000D03*
X158525000Y-129180000D03*
X162625000Y-130510000D03*
X158525000Y-130510000D03*
X162235000Y-131710000D03*
X158915000Y-131710000D03*
D32*
X161205000Y-132460000D03*
D31*
X159945000Y-132460000D03*
%TD*%
D35*
%TO.C,R73*%
X112612500Y-131500000D03*
X109512500Y-131500000D03*
%TD*%
D10*
%TO.C,R71*%
X227500000Y-84000000D03*
X227500000Y-87100000D03*
%TD*%
D36*
%TO.C,R60*%
X38500000Y-123100000D03*
X38500000Y-120000000D03*
%TD*%
D37*
%TO.C,R59*%
X77950000Y-134000000D03*
X81050000Y-134000000D03*
%TD*%
D35*
%TO.C,R58*%
X170050000Y-97500000D03*
X166950000Y-97500000D03*
%TD*%
D10*
%TO.C,R56*%
X158500000Y-72950000D03*
X158500000Y-76050000D03*
%TD*%
D35*
%TO.C,R55*%
X165050000Y-70500000D03*
X161950000Y-70500000D03*
%TD*%
%TO.C,R52*%
X159100000Y-112000000D03*
X156000000Y-112000000D03*
%TD*%
%TO.C,R51*%
X164600000Y-112000000D03*
X161500000Y-112000000D03*
%TD*%
D36*
%TO.C,R50*%
X160000000Y-102100000D03*
X160000000Y-99000000D03*
%TD*%
D37*
%TO.C,R39*%
X133400000Y-137500000D03*
X136500000Y-137500000D03*
%TD*%
D35*
%TO.C,R4*%
X153550000Y-89000000D03*
X150450000Y-89000000D03*
%TD*%
%TO.C,R3*%
X153550000Y-95000000D03*
X150450000Y-95000000D03*
%TD*%
D10*
%TO.C,R2*%
X92500000Y-46900000D03*
X92500000Y-50000000D03*
%TD*%
%TO.C,R1*%
X92500000Y-53450000D03*
X92500000Y-56550000D03*
%TD*%
D38*
%TO.C,M8*%
X130000000Y-46720000D03*
D39*
X132160000Y-51800000D03*
D40*
X132160000Y-49260000D03*
X132160000Y-46720000D03*
X132160000Y-44180000D03*
%TD*%
D38*
%TO.C,M3*%
X130000000Y-60720000D03*
D39*
X132160000Y-65800000D03*
D40*
X132160000Y-63260000D03*
X132160000Y-60720000D03*
X132160000Y-58180000D03*
%TD*%
D38*
%TO.C,M2*%
X130000000Y-75000000D03*
D39*
X132160000Y-80080000D03*
D40*
X132160000Y-77540000D03*
X132160000Y-75000000D03*
X132160000Y-72460000D03*
%TD*%
D38*
%TO.C,M1*%
X130000000Y-89000000D03*
D39*
X132160000Y-94080000D03*
D40*
X132160000Y-91540000D03*
X132160000Y-89000000D03*
X132160000Y-86460000D03*
%TD*%
D41*
%TO.C,JP1*%
X38500000Y-127500000D03*
D42*
X38500000Y-130040000D03*
%TD*%
D25*
%TO.C,J25*%
X115000000Y-52800000D03*
D26*
X115000000Y-49300000D03*
X115000000Y-45800000D03*
%TD*%
D13*
%TO.C,J23*%
X150205000Y-150525000D03*
D14*
X155285000Y-150525000D03*
X160365000Y-150525000D03*
%TD*%
D13*
%TO.C,J22*%
X131410000Y-150525000D03*
D14*
X136490000Y-150525000D03*
X141570000Y-150525000D03*
%TD*%
D43*
%TO.C,J13*%
X248650000Y-60000000D03*
X261350000Y-73000000D03*
%TD*%
D25*
%TO.C,J12*%
X115000000Y-66300000D03*
D26*
X115000000Y-62800000D03*
X115000000Y-59300000D03*
%TD*%
D25*
%TO.C,J11*%
X115000000Y-79800000D03*
D26*
X115000000Y-76300000D03*
X115000000Y-72800000D03*
%TD*%
D25*
%TO.C,J10*%
X115000000Y-93300000D03*
D26*
X115000000Y-89800000D03*
X115000000Y-86300000D03*
%TD*%
D25*
%TO.C,J6*%
X115000000Y-106800000D03*
D26*
X115000000Y-103300000D03*
X115000000Y-99800000D03*
%TD*%
D13*
%TO.C,J4*%
X48000000Y-143000000D03*
D14*
X53000000Y-143000000D03*
%TD*%
D13*
%TO.C,J3*%
X34900000Y-143000000D03*
D14*
X39900000Y-143000000D03*
%TD*%
D17*
%TO.C,IC8*%
X109289000Y-137095000D03*
X109289000Y-138365000D03*
X109289000Y-139635000D03*
X109289000Y-140905000D03*
X114711000Y-140905000D03*
X114711000Y-139635000D03*
X114711000Y-138365000D03*
X114711000Y-137095000D03*
%TD*%
%TO.C,IC7*%
X61711000Y-129905000D03*
X61711000Y-128635000D03*
X61711000Y-127365000D03*
X61711000Y-126095000D03*
X56289000Y-126095000D03*
X56289000Y-127365000D03*
X56289000Y-128635000D03*
X56289000Y-129905000D03*
%TD*%
D44*
%TO.C,IC6*%
X66000000Y-130450000D03*
X66000000Y-131100000D03*
X66000000Y-131750000D03*
X66000000Y-132400000D03*
X66000000Y-133050000D03*
X66000000Y-133700000D03*
X66000000Y-134350000D03*
X66000000Y-135000000D03*
X66000000Y-135650000D03*
X66000000Y-136300000D03*
X71876000Y-136300000D03*
X71876000Y-135650000D03*
X71876000Y-135000000D03*
X71876000Y-134350000D03*
X71876000Y-133700000D03*
X71876000Y-133050000D03*
X71876000Y-132400000D03*
X71876000Y-131750000D03*
X71876000Y-131100000D03*
X71876000Y-130450000D03*
%TD*%
D45*
%TO.C,IC3*%
X161095000Y-94711000D03*
X162365000Y-94711000D03*
X163635000Y-94711000D03*
X164905000Y-94711000D03*
X164905000Y-89289000D03*
X163635000Y-89289000D03*
X162365000Y-89289000D03*
X161095000Y-89289000D03*
%TD*%
D46*
%TO.C,FB3*%
X167400000Y-70000000D03*
X169000000Y-70000000D03*
%TD*%
%TO.C,FB1*%
X167400000Y-115000000D03*
X169000000Y-115000000D03*
%TD*%
D47*
%TO.C,C84*%
X88000000Y-95500000D03*
X88000000Y-92375000D03*
%TD*%
D16*
%TO.C,C83*%
X78125000Y-92000000D03*
X75000000Y-92000000D03*
%TD*%
%TO.C,C80*%
X112562500Y-127000000D03*
X109437500Y-127000000D03*
%TD*%
D48*
%TO.C,C79*%
X117000000Y-144437500D03*
X117000000Y-147562500D03*
%TD*%
D16*
%TO.C,C78*%
X119562500Y-127000000D03*
X116437500Y-127000000D03*
%TD*%
%TO.C,C77*%
X119562500Y-132000000D03*
X116437500Y-132000000D03*
%TD*%
D47*
%TO.C,C76*%
X124000000Y-147562500D03*
X124000000Y-144437500D03*
%TD*%
D48*
%TO.C,C75*%
X130500000Y-129937500D03*
X130500000Y-133062500D03*
%TD*%
%TO.C,C74*%
X135000000Y-129937500D03*
X135000000Y-133062500D03*
%TD*%
D47*
%TO.C,C73*%
X108000000Y-95562500D03*
X108000000Y-92437500D03*
%TD*%
%TO.C,C72*%
X108000000Y-82562500D03*
X108000000Y-79437500D03*
%TD*%
%TO.C,C71*%
X108000000Y-68562500D03*
X108000000Y-65437500D03*
%TD*%
%TO.C,C70*%
X108000000Y-55062500D03*
X108000000Y-51937500D03*
%TD*%
D48*
%TO.C,C69*%
X223000000Y-83937500D03*
X223000000Y-87062500D03*
%TD*%
%TO.C,C68*%
X63000000Y-148375000D03*
X63000000Y-151500000D03*
%TD*%
%TO.C,C67*%
X70000000Y-148437500D03*
X70000000Y-151562500D03*
%TD*%
D47*
%TO.C,C66*%
X81500000Y-130125000D03*
X81500000Y-127000000D03*
%TD*%
%TO.C,C65*%
X76500000Y-130062500D03*
X76500000Y-126937500D03*
%TD*%
D48*
%TO.C,C62*%
X92000000Y-78437500D03*
X92000000Y-81562500D03*
%TD*%
%TO.C,C61*%
X87000000Y-78375000D03*
X87000000Y-81500000D03*
%TD*%
D47*
%TO.C,C60*%
X88000000Y-87125000D03*
X88000000Y-84000000D03*
%TD*%
%TO.C,C59*%
X93000000Y-87062500D03*
X93000000Y-83937500D03*
%TD*%
D12*
%TO.C,C47*%
X162937500Y-77000000D03*
X166062500Y-77000000D03*
%TD*%
%TO.C,C38*%
X161437500Y-118000000D03*
X164562500Y-118000000D03*
%TD*%
D47*
%TO.C,C37*%
X162500000Y-86062500D03*
X162500000Y-82937500D03*
%TD*%
%TO.C,C36*%
X157500000Y-86062500D03*
X157500000Y-82937500D03*
%TD*%
D12*
%TO.C,C29*%
X175000000Y-50000000D03*
X178125000Y-50000000D03*
%TD*%
%TO.C,C28*%
X175000000Y-45000000D03*
X178125000Y-45000000D03*
%TD*%
%TO.C,C27*%
X181437500Y-50000000D03*
X184562500Y-50000000D03*
%TD*%
%TO.C,C26*%
X181437500Y-45000000D03*
X184562500Y-45000000D03*
%TD*%
D49*
%TO.C,C15*%
X248500000Y-143500000D03*
D50*
X258500000Y-143500000D03*
%TD*%
D49*
%TO.C,C14*%
X248500000Y-111000000D03*
D50*
X258500000Y-111000000D03*
%TD*%
D49*
%TO.C,C13*%
X216000000Y-143500000D03*
D50*
X226000000Y-143500000D03*
%TD*%
D49*
%TO.C,C12*%
X216000000Y-111000000D03*
D50*
X226000000Y-111000000D03*
%TD*%
D51*
%TO.C,A1*%
X82130000Y-68825000D03*
D52*
X82130000Y-71365000D03*
X82130000Y-73905000D03*
X82130000Y-76445000D03*
X82130000Y-78985000D03*
X82130000Y-81525000D03*
X82130000Y-84065000D03*
X82130000Y-86605000D03*
X82130000Y-91685000D03*
X82130000Y-94225000D03*
X82130000Y-96765000D03*
X82130000Y-99305000D03*
X82130000Y-101845000D03*
X82130000Y-104385000D03*
X33870000Y-104385000D03*
X33870000Y-101845000D03*
X33870000Y-99305000D03*
X33870000Y-96765000D03*
X33870000Y-94225000D03*
X33870000Y-91685000D03*
X33870000Y-89145000D03*
X33870000Y-86605000D03*
X33870000Y-82545000D03*
X33870000Y-80005000D03*
X33870000Y-77465000D03*
X33870000Y-74925000D03*
X33870000Y-72385000D03*
X33870000Y-69845000D03*
X33870000Y-67305000D03*
X33870000Y-64765000D03*
X33870000Y-62225000D03*
X33870000Y-59685000D03*
%TD*%
M02*
