M48
; DRILL file {KiCad 9.0.0} date 2025-04-01T22:49:01-0700
; FORMAT={-:-/ absolute / metric / decimal}
; #@! TF.CreationDate,2025-04-01T22:49:01-07:00
; #@! TF.GenerationSoftware,Kicad,Pcbnew,9.0.0
; #@! TF.FileFunction,Plated,1,4,PTH
FMAT,2
METRIC
; #@! TA.AperFunction,Plated,PTH,ViaDrill
T1C0.300
; #@! TA.AperFunction,Plated,PTH,ViaDrill
T2C0.500
; #@! TA.AperFunction,Plated,PTH,ComponentDrill
T3C0.500
; #@! TA.AperFunction,Plated,PTH,ViaDrill
T4C0.600
; #@! TA.AperFunction,Plated,PTH,ComponentDrill
T5C0.800
; #@! TA.AperFunction,Plated,PTH,ComponentDrill
T6C1.000
; #@! TA.AperFunction,Plated,PTH,ComponentDrill
T7C1.020
; #@! TA.AperFunction,Plated,PTH,ComponentDrill
T8C1.100
; #@! TA.AperFunction,Plated,PTH,ComponentDrill
T9C1.150
; #@! TA.AperFunction,Plated,PTH,ComponentDrill
T10C1.300
; #@! TA.AperFunction,Plated,PTH,ComponentDrill
T11C1.620
; #@! TA.AperFunction,Plated,PTH,ComponentDrill
T12C2.000
; #@! TA.AperFunction,Plated,PTH,ComponentDrill
T13C2.600
; #@! TA.AperFunction,Plated,PTH,ComponentDrill
T14C3.960
; #@! TA.AperFunction,Plated,PTH,ComponentDrill
T15C5.300
%
G90
G05
T1
X50.0Y-130.0
X51.5Y-124.5
X62.0Y-135.5
X63.75Y-129.75
X64.233Y-126.232
X66.0Y-137.5
X71.75Y-125.75
X71.75Y-129.5
X73.5Y-77.5
X73.5Y-132.0
X74.5Y-72.5
X74.5Y-133.0
X75.5Y-75.0
X75.5Y-134.0
X76.5Y-70.0
X76.5Y-135.0
X77.5Y-99.5
X77.5Y-136.0
X88.0Y-97.0
X88.0Y-110.0
X216.5Y-72.5
X217.0Y-81.0
T2
X39.0Y-94.5
X39.0Y-115.0
X40.5Y-92.0
X40.5Y-113.5
X79.5Y-114.0
X93.0Y-90.5
X93.0Y-117.5
X96.5Y-120.872
X96.5Y-130.0
X102.0Y-119.499
X102.0Y-130.0
X112.5Y-114.0
X114.5Y-126.0
X119.0Y-123.5
X135.0Y-112.0
X175.0Y-42.5
X181.438Y-42.5
X187.938Y-42.5
X200.0Y-45.0
X206.0Y-74.9
X211.0Y-78.9
X212.0Y-72.9
X216.2Y-76.43
X224.0Y-73.9
X224.0Y-80.9
T3
X158.525Y-126.51
X158.525Y-127.84
X158.525Y-129.18
X158.525Y-130.51
X158.525Y-136.51
X158.525Y-137.84
X158.525Y-139.18
X158.525Y-140.51
X158.915Y-125.31
X158.915Y-131.71
X158.915Y-135.31
X158.915Y-141.71
X159.945Y-124.56
X159.945Y-132.46
X159.945Y-134.56
X159.945Y-142.46
X161.205Y-124.56
X161.205Y-132.46
X161.205Y-134.56
X161.205Y-142.46
X162.235Y-125.31
X162.235Y-131.71
X162.235Y-135.31
X162.235Y-141.71
X162.625Y-126.51
X162.625Y-127.84
X162.625Y-129.18
X162.625Y-130.51
X162.625Y-136.51
X162.625Y-137.84
X162.625Y-139.18
X162.625Y-140.51
T4
X31.0Y-41.0
X31.0Y-42.0
X31.0Y-43.0
X31.0Y-44.0
X31.0Y-45.0
X31.0Y-46.0
X31.0Y-47.0
X31.0Y-48.0
X31.0Y-49.0
X31.0Y-50.0
X31.0Y-51.0
X31.0Y-52.0
X31.0Y-53.0
X31.0Y-54.0
X31.0Y-55.0
X31.0Y-56.0
X31.0Y-57.0
X31.0Y-58.0
X31.0Y-59.0
X31.0Y-60.0
X31.0Y-61.0
X31.0Y-62.0
X31.0Y-63.0
X31.0Y-64.0
X31.0Y-65.0
X31.0Y-66.0
X31.0Y-67.0
X31.0Y-68.0
X31.0Y-69.0
X31.0Y-70.0
X31.0Y-71.0
X31.0Y-72.0
X31.0Y-73.0
X31.0Y-74.0
X31.0Y-75.0
X31.0Y-76.0
X31.0Y-77.0
X31.0Y-78.0
X31.0Y-79.0
X31.0Y-80.0
X31.0Y-81.0
X31.0Y-82.0
X31.0Y-83.0
X31.0Y-84.0
X31.0Y-85.0
X31.0Y-86.0
X31.0Y-87.0
X31.0Y-88.0
X31.0Y-89.0
X31.0Y-90.0
X31.0Y-91.0
X31.0Y-92.0
X31.0Y-93.0
X31.0Y-94.0
X31.0Y-95.0
X31.0Y-96.0
X31.0Y-97.0
X31.0Y-98.0
X31.0Y-99.0
X31.0Y-100.0
X31.0Y-101.0
X31.0Y-102.0
X31.0Y-103.0
X31.0Y-104.0
X31.0Y-105.0
X31.0Y-106.0
X31.0Y-107.0
X31.0Y-108.0
X31.0Y-109.0
X31.0Y-110.0
X31.0Y-111.0
X31.0Y-112.0
X31.0Y-113.0
X31.0Y-114.0
X31.0Y-115.0
X31.0Y-120.0
X31.0Y-121.0
X31.0Y-122.0
X31.0Y-123.0
X31.0Y-124.0
X31.0Y-125.0
X31.0Y-126.0
X31.0Y-127.0
X31.0Y-128.0
X31.0Y-129.0
X31.0Y-130.0
X31.0Y-131.0
X31.0Y-132.0
X31.0Y-133.0
X31.0Y-134.0
X31.0Y-135.0
X31.0Y-136.0
X31.0Y-137.0
X31.0Y-138.0
X31.0Y-139.0
X31.0Y-140.0
X31.0Y-141.0
X31.0Y-142.0
X31.0Y-143.0
X31.0Y-144.0
X31.0Y-145.0
X31.0Y-146.0
X31.0Y-147.0
X31.0Y-148.0
X31.0Y-149.0
X31.0Y-150.0
X31.0Y-151.0
X31.0Y-152.0
X31.0Y-153.0
X31.0Y-154.0
X31.0Y-155.0
X31.0Y-156.0
X31.0Y-157.0
X31.0Y-158.0
X31.0Y-159.0
X32.0Y-41.0
X32.0Y-115.0
X32.0Y-120.0
X32.0Y-159.0
X33.0Y-41.0
X33.0Y-115.0
X33.0Y-120.0
X33.0Y-159.0
X34.0Y-41.0
X34.0Y-115.0
X34.0Y-120.0
X34.0Y-159.0
X35.0Y-41.0
X35.0Y-115.0
X35.0Y-120.0
X35.0Y-159.0
X36.0Y-41.0
X36.0Y-115.0
X36.0Y-120.0
X36.0Y-159.0
X37.0Y-41.0
X37.0Y-120.0
X37.0Y-159.0
X38.0Y-41.0
X38.0Y-120.0
X38.0Y-159.0
X39.0Y-41.0
X39.0Y-59.0
X39.0Y-120.0
X39.0Y-159.0
X40.0Y-41.0
X40.0Y-120.0
X40.0Y-159.0
X41.0Y-41.0
X41.0Y-57.0
X41.0Y-89.0
X41.0Y-120.0
X41.0Y-159.0
X42.0Y-41.0
X42.0Y-112.0
X42.0Y-120.0
X42.0Y-159.0
X43.0Y-41.0
X43.0Y-120.0
X43.0Y-159.0
X44.0Y-41.0
X44.0Y-110.0
X44.0Y-120.0
X44.0Y-159.0
X45.0Y-41.0
X45.0Y-110.0
X45.0Y-120.0
X45.0Y-159.0
X46.0Y-41.0
X46.0Y-110.0
X46.0Y-120.0
X46.0Y-159.0
X47.0Y-41.0
X47.0Y-110.0
X47.0Y-120.0
X47.0Y-159.0
X48.0Y-41.0
X48.0Y-110.0
X48.0Y-120.0
X48.0Y-159.0
X49.0Y-41.0
X49.0Y-110.0
X49.0Y-120.0
X49.0Y-159.0
X50.0Y-41.0
X50.0Y-110.0
X50.0Y-120.0
X50.0Y-159.0
X51.0Y-41.0
X51.0Y-110.0
X51.0Y-120.0
X51.0Y-159.0
X52.0Y-41.0
X52.0Y-110.0
X52.0Y-120.0
X52.0Y-159.0
X53.0Y-41.0
X53.0Y-110.0
X53.0Y-120.0
X53.0Y-159.0
X54.0Y-41.0
X54.0Y-110.0
X54.0Y-120.0
X54.0Y-159.0
X55.0Y-41.0
X55.0Y-110.0
X55.0Y-120.0
X55.0Y-159.0
X56.0Y-41.0
X56.0Y-110.0
X56.0Y-120.0
X56.0Y-159.0
X57.0Y-41.0
X57.0Y-110.0
X57.0Y-120.0
X57.0Y-121.0
X57.0Y-122.0
X57.0Y-123.0
X57.0Y-124.0
X57.0Y-134.0
X57.0Y-135.0
X57.0Y-136.0
X57.0Y-137.0
X57.0Y-138.0
X57.0Y-139.0
X57.0Y-140.0
X57.0Y-141.0
X57.0Y-142.0
X57.0Y-143.0
X57.0Y-144.0
X57.0Y-145.0
X57.0Y-146.0
X57.0Y-147.0
X57.0Y-148.0
X57.0Y-149.0
X57.0Y-150.0
X57.0Y-151.0
X57.0Y-152.0
X57.0Y-153.0
X57.0Y-154.0
X57.0Y-155.0
X57.0Y-159.0
X58.0Y-41.0
X58.0Y-110.0
X58.0Y-159.0
X59.0Y-41.0
X59.0Y-110.0
X59.0Y-159.0
X60.0Y-41.0
X60.0Y-110.0
X60.0Y-159.0
X61.0Y-41.0
X61.0Y-110.0
X61.0Y-159.0
X62.0Y-41.0
X62.0Y-110.0
X62.0Y-159.0
X62.75Y-122.5
X62.75Y-133.5
X63.0Y-41.0
X63.0Y-110.0
X63.0Y-159.0
X64.0Y-41.0
X64.0Y-110.0
X64.0Y-159.0
X65.0Y-41.0
X65.0Y-110.0
X65.0Y-120.0
X65.0Y-159.0
X66.0Y-41.0
X66.0Y-110.0
X66.0Y-159.0
X67.0Y-41.0
X67.0Y-110.0
X67.0Y-159.0
X68.0Y-41.0
X68.0Y-110.0
X68.0Y-139.5
X68.938Y-133.375
X69.0Y-41.0
X69.0Y-110.0
X70.0Y-41.0
X70.0Y-110.0
X70.5Y-127.75
X71.0Y-41.0
X71.0Y-110.0
X71.25Y-122.25
X72.0Y-41.0
X72.0Y-110.0
X73.0Y-41.0
X73.0Y-150.0
X73.0Y-151.0
X73.0Y-152.0
X73.0Y-153.0
X73.0Y-154.0
X73.0Y-155.0
X73.0Y-156.0
X73.0Y-157.0
X73.0Y-158.0
X73.0Y-159.0
X74.0Y-41.0
X74.0Y-159.0
X74.75Y-144.5
X74.75Y-146.25
X74.75Y-148.25
X75.0Y-41.0
X75.0Y-138.25
X75.0Y-159.0
X76.0Y-41.0
X76.0Y-159.0
X77.0Y-41.0
X77.0Y-159.0
X78.0Y-41.0
X78.0Y-159.0
X78.5Y-65.0
X78.5Y-86.5
X79.0Y-41.0
X79.0Y-159.0
X79.5Y-125.25
X80.0Y-41.0
X80.0Y-159.0
X80.75Y-125.242
X81.0Y-41.0
X81.0Y-159.0
X82.0Y-41.0
X82.0Y-110.0
X82.0Y-125.25
X82.0Y-159.0
X82.5Y-140.0
X82.5Y-145.0
X82.5Y-150.0
X82.5Y-155.0
X83.0Y-41.0
X83.0Y-110.0
X83.0Y-159.0
X83.962Y-102.076
X83.967Y-49.08
X83.981Y-82.09
X83.981Y-100.027
X83.981Y-101.042
X84.0Y-41.0
X84.0Y-42.0
X84.0Y-43.0
X84.0Y-44.0
X84.0Y-45.0
X84.0Y-46.0
X84.0Y-47.0
X84.0Y-48.0
X84.0Y-50.0
X84.0Y-51.0
X84.0Y-52.0
X84.0Y-61.0
X84.0Y-62.0
X84.0Y-63.0
X84.0Y-67.0
X84.0Y-68.0
X84.0Y-69.0
X84.0Y-70.0
X84.0Y-71.0
X84.0Y-72.0
X84.0Y-73.0
X84.0Y-74.0
X84.0Y-75.0
X84.0Y-76.0
X84.0Y-81.0
X84.0Y-83.0
X84.0Y-84.081
X84.0Y-85.0
X84.0Y-89.0
X84.0Y-90.0
X84.0Y-91.0
X84.0Y-92.0
X84.0Y-93.0
X84.0Y-94.0
X84.0Y-95.0
X84.0Y-99.0
X84.0Y-103.0
X84.0Y-104.0
X84.0Y-105.0
X84.0Y-106.0
X84.0Y-107.0
X84.0Y-108.0
X84.0Y-109.0
X84.0Y-110.0
X84.0Y-125.0
X84.0Y-159.0
X85.0Y-60.0
X85.0Y-110.0
X85.0Y-117.5
X85.0Y-133.0
X85.0Y-159.0
X86.0Y-110.0
X86.0Y-159.0
X87.0Y-133.0
X87.0Y-159.0
X88.0Y-159.0
X89.0Y-159.0
X90.0Y-140.0
X90.0Y-159.0
X91.0Y-125.0
X91.0Y-159.0
X92.0Y-159.0
X92.5Y-65.0
X93.0Y-130.5
X93.0Y-159.0
X94.0Y-76.5
X94.0Y-159.0
X95.0Y-159.0
X95.8Y-56.0
X96.0Y-48.0
X96.0Y-159.0
X97.0Y-159.0
X97.5Y-145.0
X98.0Y-159.0
X99.0Y-128.0
X99.0Y-159.0
X100.0Y-159.0
X101.0Y-159.0
X102.0Y-159.0
X102.5Y-145.0
X103.0Y-159.0
X104.0Y-159.0
X105.0Y-125.0
X105.0Y-130.0
X105.0Y-159.0
X106.0Y-159.0
X107.0Y-159.0
X107.5Y-132.5
X107.5Y-140.0
X107.5Y-145.0
X108.0Y-57.0
X108.0Y-72.0
X108.0Y-84.5
X108.0Y-97.5
X108.0Y-159.0
X109.0Y-159.0
X110.0Y-159.0
X111.0Y-159.0
X112.0Y-159.0
X112.5Y-142.5
X113.0Y-159.0
X114.0Y-159.0
X115.0Y-159.0
X116.0Y-159.0
X117.0Y-159.0
X117.5Y-142.5
X118.0Y-159.0
X119.0Y-159.0
X120.0Y-159.0
X121.0Y-134.0
X121.0Y-159.0
X122.0Y-131.0
X122.0Y-159.0
X122.5Y-142.5
X123.0Y-159.0
X124.0Y-145.0
X124.0Y-146.0
X124.0Y-147.0
X124.0Y-148.0
X124.0Y-149.0
X124.0Y-150.0
X124.0Y-151.0
X124.0Y-152.0
X124.0Y-153.0
X124.0Y-154.0
X124.0Y-155.0
X124.0Y-156.0
X124.0Y-157.0
X124.0Y-158.0
X124.0Y-159.0
X125.0Y-115.0
X125.0Y-125.0
X125.0Y-144.0
X126.0Y-143.0
X127.0Y-142.0
X128.0Y-130.0
X128.0Y-142.0
X129.0Y-142.0
X130.0Y-142.0
X131.0Y-142.0
X132.0Y-142.0
X132.5Y-125.0
X133.0Y-142.0
X134.0Y-142.0
X135.0Y-120.0
X135.0Y-142.0
X136.0Y-142.0
X137.0Y-142.0
X138.0Y-142.0
X139.0Y-142.0
X140.0Y-125.0
X140.0Y-142.0
X141.0Y-141.0
X142.0Y-140.0
X143.0Y-139.0
X144.0Y-138.0
X145.0Y-137.0
X146.0Y-136.0
X147.0Y-135.0
X147.5Y-125.0
X148.023Y-133.947
X149.015Y-132.954
X150.0Y-80.0
X150.0Y-83.0
X150.0Y-102.5
X150.0Y-107.5
X150.0Y-132.0
X151.0Y-131.0
X152.0Y-122.0
X152.0Y-123.0
X152.0Y-124.0
X152.0Y-125.0
X152.0Y-126.0
X152.0Y-127.0
X152.0Y-128.0
X152.0Y-129.0
X152.0Y-130.0
X152.5Y-77.5
X153.0Y-121.0
X154.0Y-120.0
X155.0Y-80.0
X155.0Y-102.5
X155.0Y-115.0
X155.0Y-119.0
X156.0Y-119.0
X157.0Y-119.0
X157.5Y-92.5
X158.0Y-119.0
X159.0Y-119.0
X160.0Y-80.0
X160.0Y-105.0
X165.0Y-65.0
X165.0Y-80.0
X165.0Y-92.5
X165.0Y-102.5
X167.0Y-71.399
X167.0Y-89.289
X167.0Y-91.0
X167.0Y-112.0
X167.5Y-62.5
X170.0Y-62.5
X170.0Y-80.0
X170.0Y-85.0
X170.0Y-110.0
X172.5Y-62.5
X172.5Y-65.0
X172.5Y-67.5
X172.5Y-117.5
X174.0Y-67.0
X174.0Y-73.0
X174.0Y-74.0
X174.0Y-75.0
X174.0Y-76.0
X174.0Y-77.0
X174.0Y-78.0
X174.0Y-79.0
X174.0Y-80.0
X174.0Y-81.0
X174.0Y-82.0
X174.0Y-83.0
X174.0Y-84.0
X174.0Y-85.0
X174.0Y-86.0
X174.0Y-87.0
X174.0Y-88.0
X174.0Y-89.0
X174.0Y-90.0
X174.0Y-91.0
X174.0Y-92.0
X174.0Y-103.0
X174.0Y-104.0
X174.0Y-105.0
X174.0Y-106.0
X174.0Y-107.0
X174.0Y-108.0
X174.0Y-109.0
X174.0Y-110.0
X174.0Y-111.0
X174.0Y-112.0
X174.0Y-113.0
X219.0Y-62.9
X238.0Y-91.5
T5
X130.0Y-102.5
X135.0Y-102.5
X139.175Y-131.6
X139.175Y-133.51
X139.175Y-135.42
X141.21Y-46.8
X141.21Y-59.3
X141.21Y-71.8
X141.21Y-84.3
X146.21Y-46.8
X146.21Y-59.3
X146.21Y-71.8
X146.21Y-84.3
X152.66Y-46.8
X152.66Y-59.3
X157.66Y-46.8
X157.66Y-59.3
X164.0Y-47.0
X169.0Y-47.0
T6
X33.87Y-59.685
X33.87Y-62.225
X33.87Y-64.765
X33.87Y-67.305
X33.87Y-69.845
X33.87Y-72.385
X33.87Y-74.925
X33.87Y-77.465
X33.87Y-80.005
X33.87Y-82.545
X33.87Y-86.605
X33.87Y-89.145
X33.87Y-91.685
X33.87Y-94.225
X33.87Y-96.765
X33.87Y-99.305
X33.87Y-101.845
X33.87Y-104.385
X35.5Y-130.975
X35.5Y-133.515
X82.13Y-68.825
X82.13Y-71.365
X82.13Y-73.905
X82.13Y-76.445
X82.13Y-78.985
X82.13Y-81.525
X82.13Y-84.065
X82.13Y-86.605
X82.13Y-91.685
X82.13Y-94.225
X82.13Y-96.765
X82.13Y-99.305
X82.13Y-101.845
X82.13Y-104.385
T7
X132.16Y-44.18
X132.16Y-46.72
X132.16Y-49.26
X132.16Y-51.8
X132.16Y-58.18
X132.16Y-60.72
X132.16Y-63.26
X132.16Y-65.8
X132.16Y-72.46
X132.16Y-75.0
X132.16Y-77.54
X132.16Y-80.08
X132.16Y-86.46
X132.16Y-89.0
X132.16Y-91.54
X132.16Y-94.08
T8
X35.0Y-146.5
X38.5Y-146.5
X42.0Y-146.5
X48.5Y-146.5
X52.0Y-146.5
X55.5Y-146.5
X100.0Y-45.3
X100.0Y-48.8
X100.0Y-52.3
X100.0Y-58.8
X100.0Y-62.3
X100.0Y-65.8
X100.0Y-72.3
X100.0Y-75.8
X100.0Y-79.3
X100.0Y-85.8
X100.0Y-89.3
X100.0Y-92.8
X100.0Y-99.3
X100.0Y-102.8
X100.0Y-106.3
X115.0Y-45.8
X115.0Y-49.3
X115.0Y-52.8
X115.0Y-59.3
X115.0Y-62.8
X115.0Y-66.3
X115.0Y-72.8
X115.0Y-76.3
X115.0Y-79.8
X115.0Y-86.3
X115.0Y-89.8
X115.0Y-93.3
X115.0Y-99.8
X115.0Y-103.3
X115.0Y-106.8
T9
X61.835Y-156.115
X66.915Y-156.115
X74.535Y-156.115
X77.075Y-156.115
T10
X131.41Y-150.525
X136.49Y-150.525
X141.57Y-150.525
X150.205Y-150.525
X155.285Y-150.525
X160.365Y-150.525
X170.84Y-150.5
X175.92Y-150.5
X181.0Y-150.5
X189.92Y-150.5
X195.0Y-150.5
X200.08Y-150.5
X204.9Y-55.0
X209.9Y-55.0
X218.0Y-55.0
X223.0Y-55.0
T11
X181.71Y-69.8
X181.71Y-75.24
X181.71Y-80.68
X182.0Y-114.86
X182.0Y-120.3
X182.0Y-125.74
T12
X216.0Y-111.0
X216.0Y-143.5
X226.0Y-111.0
X226.0Y-143.5
X248.5Y-111.0
X248.5Y-143.5
X258.5Y-111.0
X258.5Y-143.5
T13
X185.0Y-62.6
X185.0Y-88.0
X185.0Y-107.6
X185.0Y-133.0
T14
X248.65Y-60.0
X261.35Y-73.0
T15
X50.0Y-92.5
X62.0Y-50.0
X103.0Y-153.0
X145.0Y-115.0
X205.0Y-89.0
X237.5Y-127.5
T12
G00X160.575Y-126.51
M15
G01X160.575Y-130.51
M16
G05
G00X160.575Y-136.51
M15
G01X160.575Y-140.51
M16
G05
M30
