M48
; DRILL file {KiCad 8.0.8-8.0.8-0~ubuntu22.04.1} date 2025-02-20T20:21:28-0800
; FORMAT={-:-/ absolute / inch / decimal}
; #@! TF.CreationDate,2025-02-20T20:21:28-08:00
; #@! TF.GenerationSoftware,Kicad,Pcbnew,8.0.8-8.0.8-0~ubuntu22.04.1
; #@! TF.FileFunction,Plated,1,2,PTH
FMAT,2
INCH
; #@! TA.AperFunction,Plated,PTH,ViaDrill
T1C0.0118
; #@! TA.AperFunction,Plated,PTH,ViaDrill
T2C0.0197
; #@! TA.AperFunction,Plated,PTH,ComponentDrill
T3C0.0197
; #@! TA.AperFunction,Plated,PTH,ViaDrill
T4C0.0236
; #@! TA.AperFunction,Plated,PTH,ViaDrill
T5C0.0315
; #@! TA.AperFunction,Plated,PTH,ComponentDrill
T6C0.0315
; #@! TA.AperFunction,Plated,PTH,ViaDrill
T7C0.0394
; #@! TA.AperFunction,Plated,PTH,ComponentDrill
T8C0.0394
; #@! TA.AperFunction,Plated,PTH,ComponentDrill
T9C0.0402
; #@! TA.AperFunction,Plated,PTH,ComponentDrill
T10C0.0512
; #@! TA.AperFunction,Plated,PTH,ComponentDrill
T11C0.0591
; #@! TA.AperFunction,Plated,PTH,ComponentDrill
T12C0.0669
; #@! TA.AperFunction,Plated,PTH,ComponentDrill
T13C0.0787
; #@! TA.AperFunction,Plated,PTH,ComponentDrill
T14C0.0827
; #@! TA.AperFunction,Plated,PTH,ComponentDrill
T15C0.1260
; #@! TA.AperFunction,Plated,PTH,ComponentDrill
T16C0.1839
; #@! TA.AperFunction,Plated,PTH,ComponentDrill
T17C0.1969
; #@! TA.AperFunction,Plated,PTH,ComponentDrill
T18C0.2087
%
G90
G05
T1
X3.3071Y-5.748
X3.622Y-5.4331
X3.622Y-5.7087
X7.9528Y-0.748
X7.9528Y-0.7874
X7.9528Y-0.9843
X7.9528Y-1.0236
X7.9528Y-1.063
X7.9528Y-1.1024
X7.9528Y-1.1417
X7.9528Y-1.1811
X7.9528Y-1.2205
X7.9528Y-1.2598
X7.9528Y-1.2992
X7.9528Y-1.3386
X7.9528Y-1.378
X7.9528Y-1.4173
X7.9528Y-1.4567
X7.9528Y-1.4961
X7.9528Y-1.5354
X7.9528Y-1.5748
X7.9528Y-1.6142
X7.9528Y-1.6535
X7.9528Y-1.6929
X7.9528Y-1.7323
X7.9528Y-1.7717
X7.9528Y-1.811
X7.9528Y-1.8504
X7.9528Y-1.8898
X7.9528Y-1.9291
X7.9528Y-1.9685
X7.9528Y-2.0079
X7.9528Y-2.0472
X7.9528Y-2.0866
X7.9528Y-3.1102
X7.9528Y-3.1496
X7.9528Y-3.189
X7.9528Y-3.2283
X7.9528Y-3.2677
X7.9528Y-3.3071
X7.9528Y-3.3465
X7.9528Y-3.3858
X7.9528Y-3.4252
X7.9528Y-3.4646
X7.9528Y-3.5039
X7.9528Y-3.5433
X7.9528Y-3.5827
X7.9528Y-3.622
X7.9528Y-3.6614
X7.9528Y-3.7008
X7.9528Y-3.7402
X7.9528Y-3.7795
X7.9528Y-3.8189
X7.9528Y-3.8583
X7.9528Y-3.8976
X7.9528Y-3.937
X7.9528Y-3.9764
X7.9528Y-4.0157
X7.9528Y-4.0551
X7.9528Y-4.0945
X7.9528Y-4.1339
X7.9528Y-4.1732
X7.9528Y-4.2126
X7.9528Y-4.252
X7.9528Y-4.2913
X7.9528Y-4.3307
X7.9528Y-4.3701
X7.9528Y-4.4094
X7.9528Y-4.4488
X7.9528Y-4.4882
X7.9528Y-4.5276
X7.9528Y-4.5669
X7.9921Y-0.748
X7.9921Y-2.0866
X7.9921Y-3.1102
X7.9921Y-4.5669
X8.0315Y-2.0866
X8.0315Y-3.1102
X8.0315Y-4.5669
X8.0709Y-2.0866
X8.0709Y-3.1102
X8.0709Y-4.5669
X8.1102Y-2.0866
X8.1102Y-3.1102
X8.1102Y-4.5669
X8.1496Y-0.748
X8.1496Y-2.0866
X8.1496Y-3.1102
X8.1496Y-4.5669
X8.189Y-0.748
X8.189Y-2.0866
X8.189Y-3.1496
X8.189Y-4.5669
X8.2283Y-0.748
X8.2283Y-2.0866
X8.2283Y-3.189
X8.2283Y-3.6417
X8.2283Y-4.5669
X8.2677Y-0.748
X8.2677Y-1.4173
X8.2677Y-4.5669
X8.3018Y-3.214
X8.3071Y-0.748
X8.3071Y-3.6614
X8.3071Y-4.5669
X8.3465Y-0.748
X8.3465Y-4.5669
X8.3661Y-1.0039
X8.3661Y-2.0669
X8.3858Y-0.748
X8.3858Y-1.4173
X8.3858Y-4.5669
X8.4252Y-0.748
X8.4252Y-4.5669
X8.4449Y-4.1339
X8.4646Y-0.748
X8.4646Y-1.0039
X8.4646Y-2.1654
X8.4646Y-4.5669
X8.4843Y-3.248
X8.5039Y-0.748
X8.5039Y-4.5669
X8.5236Y-2.1654
X8.5433Y-0.748
X8.5433Y-4.5669
X8.5827Y-2.1654
X8.5827Y-4.5669
X8.6024Y-1.9685
X8.622Y-1.4567
X8.622Y-1.6535
X8.622Y-4.5669
X8.6614Y-1.4567
X8.6614Y-4.5669
X8.7008Y-1.4567
X8.7008Y-4.4488
X8.7008Y-4.4882
X8.7008Y-4.5276
X8.7008Y-4.5669
X8.7402Y-1.4567
X8.7402Y-4.4094
X8.7795Y-1.4567
X8.7795Y-4.3701
X8.8189Y-1.4173
X8.8583Y-0.9449
X8.8583Y-1.0236
X8.8583Y-1.063
X8.8583Y-1.1024
X8.8583Y-1.1417
X8.8583Y-1.1811
X8.8583Y-1.2205
X8.8583Y-1.2598
X8.8583Y-1.2992
X8.8583Y-1.3386
X8.8583Y-1.378
X8.8583Y-3.2283
X8.8976Y-1.0236
X8.8976Y-3.2283
X8.937Y-1.0236
X8.937Y-3.2283
X8.9567Y-4.4094
X8.9764Y-1.0236
X8.9764Y-3.2283
X8.9961Y-0.9449
X8.9961Y-2.5591
X9.0157Y-3.2283
X9.0157Y-4.1929
X9.0551Y-3.2283
X9.0748Y-3.6614
X9.0945Y-1.5945
X9.0945Y-4.2126
X9.1142Y-4.5472
X9.7343Y-1.9203
X9.7343Y-1.999
X9.7343Y-2.0778
X9.7441Y-3.9961
X9.7441Y-4.0551
X9.7441Y-4.1142
X9.8425Y-0.0394
X9.8425Y-0.0787
X9.8425Y-0.1181
X9.8425Y-0.1575
X9.8425Y-0.1969
X9.8425Y-0.2362
X9.8425Y-0.2756
X9.8425Y-0.315
X9.8425Y-0.3543
X9.8425Y-0.3937
X9.8425Y-0.5906
X9.8425Y-0.6496
X9.8425Y-0.7087
X9.8425Y-0.7677
X9.8425Y-0.8268
X9.8425Y-0.8858
X9.8425Y-0.9449
X9.8819Y-0.0394
X9.8819Y-0.3937
X9.9213Y-0.0394
X9.9213Y-0.3937
X9.9606Y-0.0394
X9.9606Y-0.3937
X10.0Y-0.0394
X10.0Y-0.3937
X10.0394Y-0.0394
X10.0394Y-0.3937
X10.0787Y-0.0394
X10.0787Y-0.3937
X10.1181Y-0.0394
X10.1181Y-0.3937
X10.1575Y-0.0394
X10.1575Y-0.3937
X10.1969Y-0.0394
X10.1969Y-0.3937
X10.2362Y-0.0394
X10.2362Y-0.3937
X10.2756Y-0.0394
X10.2756Y-0.3937
X10.315Y-0.0394
X10.315Y-0.3937
X10.3543Y-0.0394
X10.3543Y-0.3937
X10.3937Y-0.0394
X10.3937Y-0.3937
X10.4331Y-0.0394
X10.4331Y-0.3937
X10.4724Y-0.0394
X10.4724Y-0.3937
X10.5118Y-0.0394
X10.5118Y-0.3937
X10.5512Y-0.0394
X10.5512Y-0.3937
X10.5906Y-0.0394
X10.5906Y-0.3937
X10.6299Y-0.0394
X10.6299Y-0.3937
X10.6693Y-0.0394
X10.6693Y-0.3937
X10.7087Y-0.0394
X10.7087Y-0.3937
X10.748Y-0.0394
X10.748Y-0.3937
X10.7874Y-0.0394
X10.7874Y-0.3937
X10.8268Y-0.0394
X10.8268Y-0.3937
X10.8661Y-0.0394
X10.8661Y-0.3937
X10.9055Y-0.0394
X10.9055Y-0.4134
X10.9449Y-0.0394
X10.9449Y-0.3937
X10.9449Y-0.4331
X10.9449Y-0.8661
X10.9449Y-0.9055
X10.9449Y-0.9449
X10.9449Y-0.9843
X10.9449Y-1.0236
X10.9449Y-1.063
X10.9449Y-1.1024
X10.9449Y-1.1417
X10.9449Y-1.1811
X10.9449Y-1.2205
X10.9449Y-1.2598
X10.9449Y-1.2992
X10.9449Y-1.3386
X10.9449Y-1.378
X10.9449Y-1.4173
X10.9843Y-0.0394
X10.9843Y-1.4173
X11.0236Y-0.0394
X11.0236Y-1.4173
X11.063Y-0.0394
X11.063Y-1.4173
X11.1024Y-0.0394
X11.1024Y-1.4173
X11.122Y-0.0984
X11.1417Y-0.0394
X11.1417Y-1.4173
X11.1811Y-0.0394
X11.1811Y-1.4173
X11.2205Y-0.0394
X11.2205Y-1.4173
X11.2598Y-0.0394
X11.2598Y-1.4173
X11.2992Y-0.0394
X11.2992Y-1.4173
X11.3189Y-0.0984
X11.3386Y-0.0394
X11.3386Y-1.4173
X11.378Y-0.0394
X11.378Y-1.4173
X11.4173Y-0.0394
X11.4173Y-0.7874
X11.4173Y-1.4173
X11.4567Y-0.0394
X11.4567Y-1.4173
X11.4961Y-0.0394
X11.4961Y-0.4134
X11.4961Y-1.4173
X11.5354Y-0.0394
X11.5354Y-1.4173
X11.5748Y-1.4173
X11.6142Y-1.4173
X11.6535Y-1.4173
X11.6929Y-1.4173
X11.7323Y-1.4173
X11.7323Y-5.6299
X11.752Y-1.1811
X11.7717Y-0.5709
X11.811Y-0.3937
X11.8504Y-1.4961
X11.8504Y-1.5354
X11.8504Y-1.5748
X11.8504Y-1.6142
X11.8504Y-1.6535
X11.8504Y-1.6929
X11.8504Y-1.7323
X11.8504Y-1.7717
X11.8504Y-1.811
X11.8504Y-1.8504
X11.8504Y-1.8898
X11.8504Y-1.9291
X11.8504Y-1.9685
X11.8504Y-2.0079
X11.8504Y-2.0472
X11.8504Y-2.0866
X11.8504Y-2.126
X11.8504Y-2.1654
X11.8504Y-2.2047
X11.8504Y-2.2441
X11.8504Y-2.2835
X11.8504Y-2.3228
X11.8504Y-2.3622
X11.8504Y-4.0945
X11.8898Y-0.1181
X11.9291Y-0.1181
X11.9291Y-4.0945
X11.9685Y-0.1181
X11.9685Y-1.4764
X12.0079Y-0.1181
X12.0079Y-4.0945
X12.0472Y-0.1181
X12.0866Y-0.1181
X12.0866Y-5.4528
X12.126Y-0.1181
X12.1654Y-0.1181
X12.1654Y-5.4528
X12.2047Y-0.1181
X12.2047Y-0.7874
X12.2047Y-1.1811
X12.2441Y-0.1181
X12.2441Y-5.4528
X12.2835Y-0.1181
X12.2835Y-3.189
X12.3228Y-0.1181
X12.3622Y-0.1181
X12.4016Y-0.1181
X12.4409Y-0.1181
X12.4803Y-0.1181
X12.5197Y-0.1181
X12.5591Y-0.1181
X12.5984Y-0.1181
X12.5984Y-0.3937
X12.5984Y-0.7874
X12.5984Y-1.1811
X12.5984Y-2.0669
X12.6378Y-0.1181
X12.6772Y-0.1181
X12.7165Y-0.1181
X12.7559Y-0.1181
X12.7559Y-2.3622
X12.7559Y-2.4409
X12.7559Y-2.5197
X12.7559Y-2.6772
X12.7559Y-2.7756
X12.7559Y-2.9921
X12.7943Y-0.6352
X12.7953Y-0.1181
X12.7953Y-1.8701
X12.8346Y-0.1181
X12.8346Y-2.5984
X12.84Y-2.2638
X12.8543Y-2.7165
X12.8543Y-2.8346
X12.874Y-0.1181
X12.8937Y-2.4016
X12.9134Y-0.1181
X12.9528Y-0.1181
X12.9921Y-0.1181
X12.9921Y-1.8701
X13.0315Y-0.1181
X13.0315Y-0.1575
X13.0315Y-0.1969
X13.0315Y-0.2362
X13.0315Y-0.2756
X13.0315Y-0.315
X13.0315Y-0.3543
X13.0315Y-0.3937
X13.0315Y-0.4331
X13.0315Y-0.4724
X13.0315Y-0.5118
X13.0315Y-0.5512
X13.0315Y-0.5906
X13.2283Y-0.0591
X13.2874Y-1.1811
X13.4252Y-3.1102
X13.4646Y-2.3228
X13.4843Y-1.5157
X13.5039Y-2.3228
X13.5433Y-2.3228
X13.5827Y-2.3228
X13.622Y-2.3228
X13.6614Y-2.3228
X13.7008Y-2.3622
X13.7402Y-2.4016
X13.7795Y-2.4409
X13.8189Y-2.4409
X13.8583Y-2.4409
X13.8976Y-2.4409
X13.937Y-2.4409
X13.9764Y-2.4409
X14.0157Y-2.4409
X14.0551Y-1.6339
X14.0551Y-1.7126
X14.0551Y-2.4409
X14.0945Y-2.4409
X14.1339Y-2.4409
X14.1535Y-1.4764
X14.1732Y-2.4409
X14.2126Y-2.4409
X14.252Y-2.4409
X14.2913Y-2.4409
X14.3307Y-2.4409
X14.3701Y-2.4409
X14.4094Y-2.4409
X14.4488Y-2.4803
X14.4882Y-2.5197
X14.6654Y-1.4764
X14.685Y-0.3543
X14.7441Y-1.6339
X14.8031Y-2.4016
X15.0197Y-1.6339
X15.1181Y-0.0394
X15.1181Y-1.1811
X15.1181Y-1.2402
X15.1575Y-0.0394
X15.1969Y-0.0394
X15.1969Y-0.9843
X15.2362Y-0.0394
X15.2362Y-0.9843
X15.2756Y-0.0394
X15.2756Y-0.9843
X15.315Y-0.0394
X15.315Y-0.9843
X15.3346Y-2.9331
X15.3543Y-0.0394
X15.3543Y-0.9843
X15.3937Y-0.0394
X15.3937Y-0.9843
X15.4331Y-0.0394
X15.4331Y-0.9843
X15.4331Y-1.1417
X15.4724Y-0.0394
X15.4724Y-0.9843
X15.4724Y-1.1024
X15.5118Y-0.0394
X15.5118Y-0.9843
X15.5512Y-0.7087
X15.5512Y-0.748
X15.5512Y-0.7874
X15.5512Y-0.8268
X15.5512Y-0.8661
X15.5512Y-0.9055
X15.5512Y-0.9449
X15.5512Y-0.9843
X15.6693Y-0.1181
X15.6693Y-0.1575
X15.6693Y-0.1969
X15.6693Y-0.3937
X15.6693Y-0.4331
X15.6693Y-0.4724
X15.6693Y-0.5118
X15.6693Y-0.5512
X15.6693Y-0.5906
X15.6693Y-0.6299
X15.7087Y-0.1181
X15.748Y-0.1181
X15.748Y-0.7874
X15.748Y-2.3622
X15.7874Y-0.1181
X15.8268Y-0.1181
X15.8661Y-0.1181
X15.887Y-0.5908
X15.9055Y-0.1181
X15.9055Y-2.2441
X15.9055Y-2.7953
X15.9055Y-2.8543
X15.9449Y-0.1181
X15.9843Y-0.1181
X16.0039Y-1.1811
X16.0039Y-1.3976
X16.006Y-1.492
X16.0236Y-0.1181
X16.0236Y-1.2795
X16.0433Y-0.5709
X16.063Y-0.1181
X16.1024Y-0.1181
X16.1024Y-2.6575
X16.1367Y-1.8512
X16.1417Y-0.1181
X16.1417Y-0.3937
X16.1417Y-2.3622
X16.1811Y-0.1181
X16.2205Y-0.1181
X16.2598Y-0.1181
X16.2795Y-2.815
X16.2992Y-0.1181
X16.3386Y-0.1181
X16.378Y-0.1181
X16.378Y-0.9252
X16.378Y-2.5984
X16.378Y-2.6969
X16.3976Y-0.8858
X16.4173Y-0.1181
X16.4567Y-0.1181
X16.4961Y-0.1181
X16.5354Y-0.1181
X16.5354Y-0.3937
X16.5354Y-1.1811
X16.5354Y-1.9685
X16.5354Y-2.3622
X16.5748Y-0.1181
X16.6142Y-0.1181
X16.6535Y-0.1181
X16.6929Y-0.1181
X16.7323Y-0.1181
X16.7717Y-0.1181
X16.811Y-0.1181
X16.8504Y-0.1181
X16.8898Y-0.1181
X16.9291Y-0.1181
X16.9291Y-0.3937
X16.9291Y-0.7874
X16.9291Y-1.1811
X16.9291Y-1.9685
X16.9685Y-0.1181
X17.0079Y-0.1181
X17.0472Y-0.1181
X17.0866Y-0.1181
X17.126Y-0.1181
X17.1654Y-0.1181
X17.2047Y-0.1181
X17.2441Y-0.1181
X17.2835Y-0.1181
X17.3228Y-0.1181
X17.3228Y-0.7874
X17.3228Y-1.1811
X17.3228Y-2.3622
X17.3622Y-0.1181
X17.4016Y-0.1181
X17.4409Y-0.1181
X17.4803Y-0.1181
X17.4803Y-1.1024
X17.4803Y-1.1417
X17.4803Y-1.1811
X17.4803Y-1.2205
X17.4803Y-1.2598
X17.4803Y-1.2992
X17.4803Y-1.3386
X17.4803Y-1.378
X17.4803Y-1.4173
X17.4803Y-1.4567
X17.4803Y-1.4961
X17.5197Y-0.1575
X17.5197Y-1.063
X17.5591Y-0.1969
X17.5591Y-0.2362
X17.5591Y-0.2756
X17.5591Y-0.315
X17.5591Y-0.3543
X17.5591Y-0.3937
X17.5591Y-0.4331
X17.5591Y-0.4724
X17.5591Y-0.5118
X17.5591Y-0.5512
X17.5591Y-0.5906
X17.5591Y-0.6299
X17.5591Y-0.6693
X17.5591Y-0.7087
X17.5591Y-0.748
X17.5591Y-0.7874
X17.5591Y-0.8268
X17.5591Y-0.8661
X17.5591Y-0.9055
X17.5591Y-0.9449
X17.5591Y-0.9843
X17.5591Y-1.0236
T2
X10.9055Y-0.4921
X10.9646Y-0.5906
X11.0236Y-0.8661
X11.0827Y-0.8465
X11.1024Y-0.689
X11.3386Y-0.5512
X11.3391Y-0.671
X12.4016Y-2.185
X12.6772Y-2.2638
X12.7362Y-1.2992
X12.7362Y-1.8701
X12.7559Y-1.4961
X12.8567Y-1.8717
X12.874Y-1.2205
X12.874Y-1.437
X12.8937Y-2.3228
X13.0315Y-1.5354
X13.0315Y-2.4213
X13.1102Y-1.7913
X13.1693Y-2.2835
X13.8386Y-1.6535
X13.8386Y-1.7126
X15.0197Y-1.0433
X15.0197Y-1.9094
X15.0197Y-2.5
X15.5512Y-2.6969
X16.0236Y-1.7717
X16.3189Y-1.8701
T3
X7.8756Y-2.7341
X7.8756Y-2.7837
X7.8756Y-4.9978
X7.8756Y-5.0474
X7.9051Y-2.6935
X7.9051Y-2.8242
X7.9051Y-4.9573
X7.9051Y-5.088
X7.9524Y-2.6781
X7.9524Y-2.8396
X7.9524Y-4.9419
X7.9524Y-5.1033
X8.0047Y-2.6781
X8.0047Y-2.8396
X8.0047Y-4.9419
X8.0047Y-5.1033
X8.0575Y-2.6781
X8.0575Y-2.8396
X8.0575Y-4.9419
X8.0575Y-5.1033
X8.1098Y-2.6781
X8.1098Y-2.8396
X8.1098Y-4.9419
X8.1098Y-5.1033
X8.1571Y-2.6935
X8.1571Y-2.8242
X8.1571Y-4.9573
X8.1571Y-5.088
X8.1866Y-2.7341
X8.1866Y-2.7837
X8.1866Y-4.9978
X8.1866Y-5.0474
X8.2693Y-2.7341
X8.2693Y-2.7837
X8.2693Y-4.9978
X8.2693Y-5.0474
X8.2988Y-2.6935
X8.2988Y-2.8242
X8.2988Y-4.9573
X8.2988Y-5.088
X8.3461Y-2.6781
X8.3461Y-2.8396
X8.3461Y-4.9419
X8.3461Y-5.1033
X8.3984Y-2.6781
X8.3984Y-2.8396
X8.3984Y-4.9419
X8.3984Y-5.1033
X8.4512Y-2.6781
X8.4512Y-2.8396
X8.4512Y-4.9419
X8.4512Y-5.1033
X8.5035Y-2.6781
X8.5035Y-2.8396
X8.5035Y-4.9419
X8.5035Y-5.1033
X8.5508Y-2.6935
X8.5508Y-2.8242
X8.5508Y-4.9573
X8.5508Y-5.088
X8.5803Y-2.7341
X8.5803Y-2.7837
X8.5803Y-4.9978
X8.5803Y-5.0474
T4
X9.0945Y-1.7717
X9.0945Y-3.8189
X9.7441Y-1.811
X9.7441Y-3.7992
T5
X9.2815Y-1.1909
X9.2815Y-1.2598
X9.2815Y-1.3287
X9.2815Y-1.3976
X9.2815Y-1.4665
X9.2815Y-2.1752
X9.2815Y-2.2441
X9.2815Y-2.313
X9.2815Y-2.3819
X9.2815Y-2.4508
X9.2815Y-3.248
X9.2815Y-3.3169
X9.2815Y-3.3858
X9.2815Y-3.4547
X9.2815Y-3.5236
X9.2815Y-4.3307
X9.2815Y-4.3996
X9.2815Y-4.4685
X9.2815Y-4.5374
X9.2815Y-4.6063
X9.3406Y-1.1713
X9.3406Y-1.2894
X9.3406Y-1.3583
X9.3406Y-1.4272
X9.3406Y-1.4961
X9.3406Y-2.1555
X9.3406Y-2.2736
X9.3406Y-2.3425
X9.3406Y-2.4114
X9.3406Y-2.4803
X9.3406Y-3.2283
X9.3406Y-3.3465
X9.3406Y-3.4154
X9.3406Y-3.4843
X9.3406Y-3.5531
X9.3406Y-4.311
X9.3406Y-4.4291
X9.3406Y-4.498
X9.3406Y-4.5669
X9.3406Y-4.6358
X9.3701Y-1.2303
X9.3701Y-2.2146
X9.3701Y-3.2874
X9.3701Y-4.3701
X9.4094Y-1.1713
X9.4094Y-2.1555
X9.4094Y-3.2283
X9.4094Y-4.311
X9.439Y-1.2303
X9.439Y-2.2146
X9.439Y-3.2874
X9.439Y-4.3701
X9.4783Y-1.1713
X9.4783Y-2.1555
X9.4783Y-3.2283
X9.4783Y-4.311
X9.5079Y-1.2303
X9.5079Y-2.2146
X9.5079Y-3.2874
X9.5079Y-4.3701
X9.5472Y-1.1713
X9.5472Y-2.1555
X9.5472Y-3.2283
X9.5472Y-4.311
X9.5768Y-1.2303
X9.5768Y-2.2146
X9.5768Y-3.2874
X9.5768Y-4.3701
X9.6161Y-1.1713
X9.6161Y-1.2894
X9.6161Y-1.3583
X9.6161Y-1.4272
X9.6161Y-1.4961
X9.6161Y-2.1555
X9.6161Y-2.2736
X9.6161Y-2.3425
X9.6161Y-2.4114
X9.6161Y-2.4803
X9.6161Y-3.2283
X9.6161Y-3.3465
X9.6161Y-3.4154
X9.6161Y-3.4843
X9.6161Y-3.5531
X9.6161Y-4.311
X9.6161Y-4.4291
X9.6161Y-4.498
X9.6161Y-4.5669
X9.6161Y-4.6358
X10.1969Y-2.7165
X10.1969Y-2.7953
X10.1969Y-2.874
X10.1969Y-2.9528
X10.2559Y-2.7559
X10.2559Y-2.8346
X10.2559Y-2.9134
X10.2559Y-2.9921
X10.315Y-2.7165
X10.315Y-2.7953
X10.315Y-2.874
X10.315Y-2.9528
X10.374Y-2.7559
X10.374Y-2.8346
X10.374Y-2.9134
X10.374Y-2.9921
X10.4331Y-2.7165
X10.4331Y-2.7953
X10.4331Y-2.874
X10.4331Y-2.9528
X10.4921Y-2.7559
X10.4921Y-2.8346
X10.4921Y-2.9134
X10.4921Y-2.9921
X11.5748Y-1.7717
X11.5748Y-1.8504
X11.5748Y-1.9291
X11.5748Y-2.0079
X11.5748Y-2.0866
X11.5748Y-2.1654
X11.5748Y-2.2441
X11.5748Y-2.3228
X11.6339Y-1.811
X11.6339Y-1.8898
X11.6339Y-1.9685
X11.6339Y-2.0472
X11.6339Y-2.126
X11.6339Y-2.2047
X11.6339Y-2.2835
X11.6339Y-2.3622
T6
X8.1528Y-1.9163
X8.1528Y-4.1801
X8.228Y-1.9163
X8.228Y-4.1801
X8.3031Y-1.9163
X8.3031Y-4.1801
X14.0551Y-0.7874
X14.0551Y-0.9843
X14.4488Y-0.5512
X14.4488Y-0.748
X14.8819Y-0.5512
X14.8819Y-0.748
T7
X0.0748Y-3.7008
X0.0748Y-3.8583
X0.0748Y-5.0787
X0.0748Y-5.2362
X0.1339Y-3.622
X0.1339Y-3.7795
X0.1339Y-5.0
X0.1339Y-5.1575
X0.1929Y-3.7008
X0.1929Y-3.8583
X0.1929Y-5.0787
X0.252Y-3.622
X0.252Y-3.7795
X0.252Y-5.0
X0.252Y-5.1575
X0.311Y-3.7008
X0.311Y-3.8583
X0.311Y-5.0787
X0.3701Y-3.622
X0.3701Y-3.7795
X0.3701Y-5.0
X0.3701Y-5.1575
X0.4291Y-3.7008
X0.4291Y-3.8583
X0.4291Y-5.0787
X0.4882Y-3.622
X0.4882Y-3.7795
X0.4882Y-5.0
X0.4882Y-5.1575
X0.5472Y-3.7008
X0.5472Y-3.8583
X0.5472Y-5.0787
X0.6063Y-3.622
X0.6063Y-3.7795
X0.6063Y-5.0
X0.6063Y-5.1575
X0.6693Y-3.7008
X0.6693Y-3.8583
X0.6693Y-5.0787
X0.6693Y-5.2362
X0.7283Y-3.622
X0.7283Y-3.7795
X0.7283Y-5.0
X0.7283Y-5.1575
X0.7874Y-3.7008
X0.7874Y-3.8583
X0.7874Y-5.0787
X0.7874Y-5.2362
X0.8465Y-3.622
X0.8465Y-3.7795
X0.8465Y-5.0
X0.8465Y-5.1575
X0.9055Y-3.7008
X0.9055Y-3.8583
X0.9055Y-5.0787
X0.9055Y-5.2362
X0.9646Y-3.622
X0.9646Y-3.7795
X0.9646Y-5.0
X0.9646Y-5.1575
X1.0236Y-3.7008
X1.0236Y-3.8583
X1.0236Y-5.0787
X1.0236Y-5.2362
X1.0827Y-3.622
X1.0827Y-3.7795
X1.0827Y-5.0
X1.0827Y-5.1575
X3.2283Y-0.8465
X3.2283Y-0.9646
X3.2283Y-1.0827
X3.2283Y-1.2008
X3.2283Y-1.3189
X3.2283Y-1.437
X3.2283Y-1.5551
X3.2283Y-1.6732
X3.2283Y-1.7913
X3.2283Y-3.3957
X3.2283Y-3.5138
X3.2283Y-3.6319
X3.2283Y-3.75
X3.2283Y-3.8681
X3.2283Y-3.9862
X3.2283Y-4.1043
X3.2283Y-4.2224
X3.2283Y-4.3406
X3.3071Y-0.9055
X3.3071Y-1.0236
X3.3071Y-1.1417
X3.3071Y-1.2598
X3.3071Y-1.378
X3.3071Y-1.4961
X3.3071Y-1.6142
X3.3071Y-1.7323
X3.3071Y-1.8504
X3.3071Y-3.4547
X3.3071Y-3.5728
X3.3071Y-3.6909
X3.3071Y-3.8091
X3.3071Y-3.9272
X3.3071Y-4.0453
X3.3071Y-4.1634
X3.3071Y-4.2815
X3.3071Y-4.3996
X3.3858Y-0.8465
X3.3858Y-0.9646
X3.3858Y-1.0827
X3.3858Y-1.2008
X3.3858Y-1.3189
X3.3858Y-1.437
X3.3858Y-1.5551
X3.3858Y-1.6732
X3.3858Y-1.7913
X3.3858Y-3.3957
X3.3858Y-3.5138
X3.3858Y-3.6319
X3.3858Y-3.75
X3.3858Y-3.8681
X3.3858Y-3.9862
X3.3858Y-4.1043
X3.3858Y-4.2224
X3.3858Y-4.3406
X3.4646Y-0.9055
X3.4646Y-1.0236
X3.4646Y-1.1417
X3.4646Y-1.2598
X3.4646Y-1.378
X3.4646Y-1.4961
X3.4646Y-1.6142
X3.4646Y-1.7323
X3.4646Y-1.8504
X3.4646Y-3.4547
X3.4646Y-3.5728
X3.4646Y-3.6909
X3.4646Y-3.8091
X3.4646Y-3.9272
X3.4646Y-4.0453
X3.4646Y-4.1634
X3.4646Y-4.2815
X3.4646Y-4.3996
X9.6654Y-4.9803
X9.6654Y-5.0984
X9.6654Y-5.2165
X9.6654Y-5.3346
X9.7441Y-4.9213
X9.7441Y-5.0394
X9.7441Y-5.1575
X9.7441Y-5.2756
X9.8228Y-4.9803
X9.8228Y-5.0984
X9.8228Y-5.2165
X9.8228Y-5.3346
X9.9016Y-4.9213
X9.9016Y-5.0394
X9.9016Y-5.1575
X9.9016Y-5.2756
X9.9803Y-4.9803
X9.9803Y-5.0984
X9.9803Y-5.2165
X9.9803Y-5.3346
X11.5551Y-4.9803
X11.5551Y-5.0984
X11.5551Y-5.2165
X11.5551Y-5.3346
X11.6339Y-4.9213
X11.6339Y-5.0394
X11.6339Y-5.1575
X11.6339Y-5.2756
X11.7126Y-4.9803
X11.7126Y-5.0984
X11.7126Y-5.2165
X11.7126Y-5.3346
X11.7913Y-4.9213
X11.7913Y-5.0394
X11.7913Y-5.1575
X11.7913Y-5.2756
X13.7795Y-0.6299
X16.8314Y-5.7878
X16.8708Y-4.528
X16.8806Y-5.6992
X16.92Y-4.4394
X16.9299Y-5.7878
X16.9692Y-4.528
X16.9791Y-5.6992
X17.0184Y-4.4394
X17.0283Y-5.7878
X17.0677Y-4.528
X17.0775Y-5.6992
X17.1169Y-4.4394
X17.1267Y-5.7878
X17.1661Y-4.528
X17.1759Y-5.6992
X17.2153Y-4.4394
X17.2251Y-5.7878
X17.2645Y-4.528
X17.2743Y-5.6992
X17.3137Y-4.4394
X17.3224Y-5.7874
X17.3618Y-4.5276
X17.3716Y-5.6988
X17.411Y-4.439
X17.422Y-5.7878
X17.4614Y-4.528
X17.4712Y-5.6992
X17.5106Y-4.4394
X17.5197Y-5.7874
X17.5591Y-4.5276
X17.5689Y-5.6988
X17.6083Y-4.439
T8
X14.9213Y-0.2953
X15.0213Y-0.2953
X15.2543Y-0.2953
X15.3543Y-0.2953
X15.6693Y-0.7947
X15.6693Y-0.8947
X15.6693Y-0.9947
X15.6693Y-1.0947
X15.6693Y-1.1947
X15.6693Y-1.2947
X15.6693Y-1.3947
X15.6693Y-1.4947
X15.6693Y-1.5947
X15.6693Y-1.6947
X15.6693Y-1.8545
X15.6693Y-1.9545
X15.6693Y-2.0545
X15.6693Y-2.1545
X15.6693Y-2.2545
X15.6693Y-2.3545
X15.6693Y-2.4545
X15.6693Y-2.5545
X17.5693Y-1.1545
X17.5693Y-1.2545
X17.5693Y-1.3545
X17.5693Y-1.4545
X17.5693Y-1.5545
X17.5693Y-1.6545
X17.5693Y-1.7545
X17.5693Y-1.8545
X17.5693Y-2.0545
X17.5693Y-2.1545
X17.5693Y-2.2545
X17.5693Y-2.3545
X17.5693Y-2.4545
X17.5693Y-2.5545
T9
X14.3685Y-0.2047
X14.4685Y-0.2047
X14.5685Y-0.2047
X14.6685Y-0.2047
T10
X13.3961Y-0.3543
X13.5929Y-0.3543
X13.8882Y-0.3543
X14.085Y-0.3543
T11
X12.1063Y-0.2953
X12.7953Y-0.2953
X15.2953Y-0.7283
T12
X12.0063Y-0.1953
X12.0063Y-0.3953
X12.2063Y-0.1953
X12.2063Y-0.3953
X12.6953Y-0.1953
X12.6953Y-0.3953
X12.8953Y-0.1953
X12.8953Y-0.3953
X15.1953Y-0.6283
X15.1953Y-0.8283
X15.3953Y-0.6283
X15.3953Y-0.8283
T13
X13.5039Y-3.5433
X13.5039Y-3.937
X13.5039Y-4.8425
X13.5039Y-5.2362
X14.8031Y-3.5433
X14.8031Y-3.937
X14.8031Y-4.8425
X14.8031Y-5.2362
X16.1024Y-3.5433
X16.1024Y-3.937
X16.1024Y-4.8425
X16.1024Y-5.2362
T14
X1.6929Y-0.748
X1.6929Y-1.1417
X1.6929Y-1.7717
X1.6929Y-2.1654
X1.6929Y-2.7953
X1.6929Y-3.189
X1.6929Y-3.8189
X1.6929Y-4.2126
X1.6929Y-4.8425
X1.6929Y-5.2362
X2.6772Y-0.748
X2.6772Y-1.1417
X2.6772Y-1.7717
X2.6772Y-2.1654
X2.6772Y-2.7953
X2.6772Y-3.189
X2.6772Y-3.8189
X2.6772Y-4.2126
X2.6772Y-4.8425
X2.6772Y-5.2362
T15
X0.9843Y-5.7087
X8.0709Y-0.8858
X11.2205Y-0.1969
X12.0079Y-5.7087
T16
X4.626Y-4.5472
X4.6278Y-3.4744
X4.6457Y-0.9252
X4.6457Y-1.9882
X5.2756Y-4.9937
X5.2774Y-3.9209
X5.2953Y-1.3717
X5.2953Y-2.4346
X5.7677Y-4.5518
X5.7695Y-3.4762
X5.7874Y-0.9252
X5.7874Y-1.9882
X6.4173Y-4.9982
X6.4191Y-3.9226
X6.437Y-1.3717
X6.437Y-2.4346
X6.9211Y-3.4762
X6.9291Y-4.549
X6.9407Y-0.9252
X6.9407Y-1.9882
X7.5707Y-3.9226
X7.5787Y-4.9955
X7.5904Y-1.3717
X7.5904Y-2.4346
T17
X0.5118Y-1.4764
X0.5118Y-4.4291
X17.2047Y-3.5433
X17.2047Y-5.1181
T18
X0.3937Y-0.3937
X0.3937Y-5.5118
X3.3465Y-2.9528
X7.2835Y-2.9528
X8.8583Y-1.9685
X8.8583Y-3.937
X12.5984Y-5.5118
X15.4528Y-5.6102
X16.9291Y-2.5591
X17.3228Y-0.3937
T13
G00X8.1098Y-2.7589
M15
G01X7.9524Y-2.7589
M16
G05
G00X8.1098Y-5.0226
M15
G01X7.9524Y-5.0226
M16
G05
G00X8.5035Y-2.7589
M15
G01X8.3461Y-2.7589
M16
G05
G00X8.5035Y-5.0226
M15
G01X8.3461Y-5.0226
M16
G05
M30
