%TF.GenerationSoftware,KiCad,Pcbnew,8.0.8-8.0.8-0~ubuntu22.04.1*%
%TF.CreationDate,2025-02-20T20:21:32-08:00*%
%TF.ProjectId,InverterBoostConverter,496e7665-7274-4657-9242-6f6f7374436f,rev?*%
%TF.SameCoordinates,Original*%
%TF.FileFunction,Paste,Top*%
%TF.FilePolarity,Positive*%
%FSLAX46Y46*%
G04 Gerber Fmt 4.6, Leading zero omitted, Abs format (unit mm)*
G04 Created by KiCad (PCBNEW 8.0.8-8.0.8-0~ubuntu22.04.1) date 2025-02-20 20:21:32*
%MOMM*%
%LPD*%
G01*
G04 APERTURE LIST*
G04 Aperture macros list*
%AMRoundRect*
0 Rectangle with rounded corners*
0 $1 Rounding radius*
0 $2 $3 $4 $5 $6 $7 $8 $9 X,Y pos of 4 corners*
0 Add a 4 corners polygon primitive as box body*
4,1,4,$2,$3,$4,$5,$6,$7,$8,$9,$2,$3,0*
0 Add four circle primitives for the rounded corners*
1,1,$1+$1,$2,$3*
1,1,$1+$1,$4,$5*
1,1,$1+$1,$6,$7*
1,1,$1+$1,$8,$9*
0 Add four rect primitives between the rounded corners*
20,1,$1+$1,$2,$3,$4,$5,0*
20,1,$1+$1,$4,$5,$6,$7,0*
20,1,$1+$1,$6,$7,$8,$9,0*
20,1,$1+$1,$8,$9,$2,$3,0*%
G04 Aperture macros list end*
%ADD10RoundRect,0.250000X-0.412500X-1.100000X0.412500X-1.100000X0.412500X1.100000X-0.412500X1.100000X0*%
%ADD11R,2.290000X2.720000*%
%ADD12R,1.528000X0.650000*%
%ADD13RoundRect,0.250000X0.400000X1.075000X-0.400000X1.075000X-0.400000X-1.075000X0.400000X-1.075000X0*%
%ADD14R,1.200000X3.300000*%
%ADD15R,1.000000X1.750000*%
%ADD16RoundRect,0.250000X0.412500X1.100000X-0.412500X1.100000X-0.412500X-1.100000X0.412500X-1.100000X0*%
%ADD17R,0.950000X1.000000*%
%ADD18RoundRect,0.250000X1.100000X-0.412500X1.100000X0.412500X-1.100000X0.412500X-1.100000X-0.412500X0*%
%ADD19RoundRect,0.250000X-1.075000X0.400000X-1.075000X-0.400000X1.075000X-0.400000X1.075000X0.400000X0*%
%ADD20R,1.000000X0.950000*%
%ADD21R,1.397000X2.286000*%
%ADD22R,5.690000X6.180000*%
%ADD23RoundRect,0.250000X1.075000X-0.400000X1.075000X0.400000X-1.075000X0.400000X-1.075000X-0.400000X0*%
%ADD24RoundRect,0.250000X-1.100000X0.412500X-1.100000X-0.412500X1.100000X-0.412500X1.100000X0.412500X0*%
%ADD25R,1.475000X0.450000*%
%ADD26R,1.550000X0.600000*%
%ADD27R,3.300000X1.200000*%
%ADD28R,1.050000X0.850000*%
%ADD29R,0.650000X1.528000*%
%ADD30R,0.850000X1.050000*%
%ADD31R,1.250000X0.600000*%
%ADD32RoundRect,0.250000X-0.400000X-1.075000X0.400000X-1.075000X0.400000X1.075000X-0.400000X1.075000X0*%
%ADD33R,4.900000X3.000000*%
G04 APERTURE END LIST*
D10*
%TO.C,C24*%
X327437500Y-24500000D03*
X330562500Y-24500000D03*
%TD*%
D11*
%TO.C,Z1*%
X349500000Y-19500000D03*
X345450000Y-19500000D03*
%TD*%
D12*
%TO.C,IC5*%
X407789000Y-66095000D03*
X407789000Y-67365000D03*
X407789000Y-68635000D03*
X407789000Y-69905000D03*
X413211000Y-69905000D03*
X413211000Y-68635000D03*
X413211000Y-67365000D03*
X413211000Y-66095000D03*
%TD*%
D13*
%TO.C,R19*%
X360850000Y-51635000D03*
X357750000Y-51635000D03*
%TD*%
D14*
%TO.C,R14*%
X356500000Y-68500000D03*
X350500000Y-68500000D03*
%TD*%
D15*
%TO.C,LED1*%
X383500000Y-53800000D03*
X386500000Y-53800000D03*
%TD*%
D16*
%TO.C,C20*%
X348262500Y-44635000D03*
X345137500Y-44635000D03*
%TD*%
D13*
%TO.C,R45*%
X225500000Y-39000000D03*
X222400000Y-39000000D03*
%TD*%
D17*
%TO.C,FB1*%
X228400000Y-115500000D03*
X230000000Y-115500000D03*
%TD*%
D13*
%TO.C,R55*%
X227000000Y-91500000D03*
X223900000Y-91500000D03*
%TD*%
D10*
%TO.C,C75*%
X215000000Y-97000000D03*
X218125000Y-97000000D03*
%TD*%
%TO.C,C57*%
X296500000Y-3500000D03*
X299625000Y-3500000D03*
%TD*%
D14*
%TO.C,R74*%
X359500000Y-75000000D03*
X365500000Y-75000000D03*
%TD*%
%TO.C,R15*%
X359500000Y-68500000D03*
X365500000Y-68500000D03*
%TD*%
%TO.C,R5*%
X135000000Y-145000000D03*
X141000000Y-145000000D03*
%TD*%
D18*
%TO.C,C68*%
X426500000Y-20562500D03*
X426500000Y-17437500D03*
%TD*%
%TO.C,C28*%
X307512500Y-53625000D03*
X307512500Y-50500000D03*
%TD*%
D19*
%TO.C,R32*%
X334000000Y-33950000D03*
X334000000Y-37050000D03*
%TD*%
D20*
%TO.C,FB4*%
X230000000Y-65500000D03*
X230000000Y-67100000D03*
%TD*%
D10*
%TO.C,C34*%
X335875000Y-45000000D03*
X339000000Y-45000000D03*
%TD*%
D14*
%TO.C,R68*%
X131000000Y-138000000D03*
X125000000Y-138000000D03*
%TD*%
D10*
%TO.C,C79*%
X218875000Y-28000000D03*
X222000000Y-28000000D03*
%TD*%
D21*
%TO.C,Q3*%
X374214000Y-60291000D03*
X378786000Y-60291000D03*
D22*
X376500000Y-53892000D03*
%TD*%
D15*
%TO.C,LED2*%
X383550000Y-48500000D03*
X386550000Y-48500000D03*
%TD*%
D23*
%TO.C,R43*%
X296000000Y-33550000D03*
X296000000Y-30450000D03*
%TD*%
D14*
%TO.C,R65*%
X95000000Y-138000000D03*
X101000000Y-138000000D03*
%TD*%
%TO.C,R1*%
X95000000Y-145000000D03*
X101000000Y-145000000D03*
%TD*%
D24*
%TO.C,C47*%
X230000000Y-84375000D03*
X230000000Y-87500000D03*
%TD*%
D13*
%TO.C,R63*%
X392600000Y-48500000D03*
X389500000Y-48500000D03*
%TD*%
%TO.C,R34*%
X330550000Y-33500000D03*
X327450000Y-33500000D03*
%TD*%
D25*
%TO.C,IC6*%
X417938000Y-23925000D03*
X417938000Y-23275000D03*
X417938000Y-22625000D03*
X417938000Y-21975000D03*
X417938000Y-21325000D03*
X417938000Y-20675000D03*
X417938000Y-20025000D03*
X417938000Y-19375000D03*
X417938000Y-18725000D03*
X417938000Y-18075000D03*
X412062000Y-18075000D03*
X412062000Y-18725000D03*
X412062000Y-19375000D03*
X412062000Y-20025000D03*
X412062000Y-20675000D03*
X412062000Y-21325000D03*
X412062000Y-21975000D03*
X412062000Y-22625000D03*
X412062000Y-23275000D03*
X412062000Y-23925000D03*
%TD*%
D10*
%TO.C,C76*%
X215875000Y-39000000D03*
X219000000Y-39000000D03*
%TD*%
D13*
%TO.C,R30*%
X319550000Y-47500000D03*
X316450000Y-47500000D03*
%TD*%
D19*
%TO.C,R80*%
X369500000Y-52450000D03*
X369500000Y-55550000D03*
%TD*%
D13*
%TO.C,R51*%
X226500000Y-115000000D03*
X223400000Y-115000000D03*
%TD*%
D17*
%TO.C,FB2*%
X228200000Y-40500000D03*
X229800000Y-40500000D03*
%TD*%
D16*
%TO.C,C32*%
X292000000Y-29500000D03*
X288875000Y-29500000D03*
%TD*%
D10*
%TO.C,C73*%
X215000000Y-102000000D03*
X218125000Y-102000000D03*
%TD*%
D12*
%TO.C,IC4*%
X290289000Y-9595000D03*
X290289000Y-10865000D03*
X290289000Y-12135000D03*
X290289000Y-13405000D03*
X295711000Y-13405000D03*
X295711000Y-12135000D03*
X295711000Y-10865000D03*
X295711000Y-9595000D03*
%TD*%
D14*
%TO.C,R66*%
X111000000Y-138000000D03*
X105000000Y-138000000D03*
%TD*%
D26*
%TO.C,IC1*%
X358700000Y-47445000D03*
X358700000Y-46175000D03*
X358700000Y-44905000D03*
X358700000Y-43635000D03*
X358700000Y-42365000D03*
X358700000Y-41095000D03*
X358700000Y-39825000D03*
X358700000Y-38555000D03*
X353300000Y-38555000D03*
X353300000Y-39825000D03*
X353300000Y-41095000D03*
X353300000Y-42365000D03*
X353300000Y-43635000D03*
X353300000Y-44905000D03*
X353300000Y-46175000D03*
X353300000Y-47445000D03*
%TD*%
D10*
%TO.C,C23*%
X327375000Y-29000000D03*
X330500000Y-29000000D03*
%TD*%
D14*
%TO.C,R75*%
X374500000Y-75000000D03*
X368500000Y-75000000D03*
%TD*%
D10*
%TO.C,C74*%
X217375000Y-85000000D03*
X220500000Y-85000000D03*
%TD*%
D13*
%TO.C,R20*%
X355250000Y-56635000D03*
X352150000Y-56635000D03*
%TD*%
D19*
%TO.C,R29*%
X312012500Y-44512500D03*
X312012500Y-47612500D03*
%TD*%
D13*
%TO.C,R40*%
X230050000Y-29500000D03*
X226950000Y-29500000D03*
%TD*%
D14*
%TO.C,R16*%
X374500000Y-68500000D03*
X368500000Y-68500000D03*
%TD*%
D10*
%TO.C,C77*%
X227437500Y-62500000D03*
X230562500Y-62500000D03*
%TD*%
D14*
%TO.C,R6*%
X151000000Y-145000000D03*
X145000000Y-145000000D03*
%TD*%
%TO.C,R13*%
X341500000Y-68500000D03*
X347500000Y-68500000D03*
%TD*%
D16*
%TO.C,C22*%
X357762500Y-33635000D03*
X354637500Y-33635000D03*
%TD*%
D19*
%TO.C,R48*%
X369500000Y-57900000D03*
X369500000Y-61000000D03*
%TD*%
D24*
%TO.C,C18*%
X365000000Y-45000000D03*
X365000000Y-48125000D03*
%TD*%
D23*
%TO.C,R41*%
X301000000Y-33500000D03*
X301000000Y-30400000D03*
%TD*%
D27*
%TO.C,R12*%
X312000000Y-101000000D03*
X312000000Y-107000000D03*
%TD*%
D10*
%TO.C,C21*%
X364437500Y-35562500D03*
X367562500Y-35562500D03*
%TD*%
D19*
%TO.C,R33*%
X330500000Y-41000000D03*
X330500000Y-44100000D03*
%TD*%
D27*
%TO.C,R9*%
X84000000Y-125000000D03*
X84000000Y-119000000D03*
%TD*%
D14*
%TO.C,R72*%
X341500000Y-75000000D03*
X347500000Y-75000000D03*
%TD*%
D28*
%TO.C,Z5*%
X438300000Y-50000000D03*
X434700000Y-50000000D03*
%TD*%
%TO.C,Z3*%
X408200000Y-61500000D03*
X411800000Y-61500000D03*
%TD*%
D18*
%TO.C,C71*%
X206000000Y-97125000D03*
X206000000Y-94000000D03*
%TD*%
D10*
%TO.C,C63*%
X413937500Y-56500000D03*
X417062500Y-56500000D03*
%TD*%
D13*
%TO.C,R38*%
X340500000Y-57500000D03*
X337400000Y-57500000D03*
%TD*%
D24*
%TO.C,C35*%
X230500000Y-109000000D03*
X230500000Y-112125000D03*
%TD*%
D27*
%TO.C,R8*%
X84000000Y-128000000D03*
X84000000Y-134000000D03*
%TD*%
D14*
%TO.C,R67*%
X115000000Y-138000000D03*
X121000000Y-138000000D03*
%TD*%
D23*
%TO.C,R78*%
X405000000Y-68600000D03*
X405000000Y-65500000D03*
%TD*%
D18*
%TO.C,C59*%
X435500000Y-47125000D03*
X435500000Y-44000000D03*
%TD*%
D19*
%TO.C,R31*%
X338500000Y-33950000D03*
X338500000Y-37050000D03*
%TD*%
D16*
%TO.C,C29*%
X324562500Y-45000000D03*
X321437500Y-45000000D03*
%TD*%
D23*
%TO.C,R23*%
X346700000Y-35635000D03*
X346700000Y-32535000D03*
%TD*%
D29*
%TO.C,IC3*%
X327405000Y-49289000D03*
X326135000Y-49289000D03*
X324865000Y-49289000D03*
X323595000Y-49289000D03*
X323595000Y-54711000D03*
X324865000Y-54711000D03*
X326135000Y-54711000D03*
X327405000Y-54711000D03*
%TD*%
D14*
%TO.C,R70*%
X151000000Y-138000000D03*
X145000000Y-138000000D03*
%TD*%
D13*
%TO.C,R21*%
X349750000Y-51635000D03*
X346650000Y-51635000D03*
%TD*%
D27*
%TO.C,R10*%
X312000000Y-83000000D03*
X312000000Y-89000000D03*
%TD*%
%TO.C,R11*%
X312000000Y-98000000D03*
X312000000Y-92000000D03*
%TD*%
D29*
%TO.C,IC7*%
X403595000Y-13211000D03*
X404865000Y-13211000D03*
X406135000Y-13211000D03*
X407405000Y-13211000D03*
X407405000Y-7789000D03*
X406135000Y-7789000D03*
X404865000Y-7789000D03*
X403595000Y-7789000D03*
%TD*%
D30*
%TO.C,Z4*%
X419000000Y-66300000D03*
X419000000Y-62700000D03*
%TD*%
D13*
%TO.C,R46*%
X229050000Y-57500000D03*
X225950000Y-57500000D03*
%TD*%
%TO.C,R62*%
X392600000Y-54000000D03*
X389500000Y-54000000D03*
%TD*%
D14*
%TO.C,R3*%
X115000000Y-145000000D03*
X121000000Y-145000000D03*
%TD*%
D18*
%TO.C,C62*%
X435500000Y-38625000D03*
X435500000Y-35500000D03*
%TD*%
D10*
%TO.C,C31*%
X303937500Y-30500000D03*
X307062500Y-30500000D03*
%TD*%
D18*
%TO.C,C78*%
X207000000Y-39562500D03*
X207000000Y-36437500D03*
%TD*%
D24*
%TO.C,C25*%
X317500000Y-32437500D03*
X317500000Y-35562500D03*
%TD*%
D31*
%TO.C,U2*%
X309062500Y-46512500D03*
X309062500Y-44612500D03*
X306962500Y-45562500D03*
%TD*%
D32*
%TO.C,R58*%
X247500000Y-91500000D03*
X250600000Y-91500000D03*
%TD*%
D29*
%TO.C,IC9*%
X214905000Y-28289000D03*
X213635000Y-28289000D03*
X212365000Y-28289000D03*
X211095000Y-28289000D03*
X211095000Y-33711000D03*
X212365000Y-33711000D03*
X213635000Y-33711000D03*
X214905000Y-33711000D03*
%TD*%
D28*
%TO.C,Z2*%
X438300000Y-55000000D03*
X434700000Y-55000000D03*
%TD*%
D19*
%TO.C,R49*%
X330500000Y-54950000D03*
X330500000Y-58050000D03*
%TD*%
D23*
%TO.C,R71*%
X392000000Y-63050000D03*
X392000000Y-59950000D03*
%TD*%
D19*
%TO.C,R50*%
X331500000Y-49450000D03*
X331500000Y-52550000D03*
%TD*%
D10*
%TO.C,C36*%
X226937500Y-35500000D03*
X230062500Y-35500000D03*
%TD*%
D12*
%TO.C,IC2*%
X321789000Y-38095000D03*
X321789000Y-39365000D03*
X321789000Y-40635000D03*
X321789000Y-41905000D03*
X327211000Y-41905000D03*
X327211000Y-40635000D03*
X327211000Y-39365000D03*
X327211000Y-38095000D03*
%TD*%
D29*
%TO.C,IC8*%
X213405000Y-85000000D03*
X212135000Y-85000000D03*
X210865000Y-85000000D03*
X209595000Y-85000000D03*
X209595000Y-90422000D03*
X210865000Y-90422000D03*
X212135000Y-90422000D03*
X213405000Y-90422000D03*
%TD*%
D13*
%TO.C,R22*%
X355300000Y-51635000D03*
X352200000Y-51635000D03*
%TD*%
%TO.C,R60*%
X382100000Y-2500000D03*
X379000000Y-2500000D03*
%TD*%
D14*
%TO.C,R4*%
X131000000Y-145000000D03*
X125000000Y-145000000D03*
%TD*%
D10*
%TO.C,C33*%
X335875000Y-40750000D03*
X339000000Y-40750000D03*
%TD*%
%TO.C,C48*%
X215937500Y-44500000D03*
X219062500Y-44500000D03*
%TD*%
D19*
%TO.C,R37*%
X335500000Y-60400000D03*
X335500000Y-63500000D03*
%TD*%
D23*
%TO.C,R54*%
X207000000Y-45000000D03*
X207000000Y-41900000D03*
%TD*%
D19*
%TO.C,R35*%
X333000000Y-27900000D03*
X333000000Y-31000000D03*
%TD*%
D13*
%TO.C,R79*%
X392600000Y-37500000D03*
X389500000Y-37500000D03*
%TD*%
D19*
%TO.C,R42*%
X299500000Y-20450000D03*
X299500000Y-23550000D03*
%TD*%
D14*
%TO.C,R18*%
X392500000Y-68500000D03*
X386500000Y-68500000D03*
%TD*%
D18*
%TO.C,C67*%
X435500000Y-20625000D03*
X435500000Y-17500000D03*
%TD*%
D13*
%TO.C,R52*%
X226600000Y-108500000D03*
X223500000Y-108500000D03*
%TD*%
D24*
%TO.C,C70*%
X401000000Y-68937500D03*
X401000000Y-72062500D03*
%TD*%
D10*
%TO.C,C65*%
X414937500Y-9500000D03*
X418062500Y-9500000D03*
%TD*%
D23*
%TO.C,R39*%
X206000000Y-103000000D03*
X206000000Y-99900000D03*
%TD*%
D16*
%TO.C,C27*%
X319062500Y-42500000D03*
X315937500Y-42500000D03*
%TD*%
D24*
%TO.C,C26*%
X313000000Y-32500000D03*
X313000000Y-35625000D03*
%TD*%
D14*
%TO.C,R76*%
X377500000Y-75000000D03*
X383500000Y-75000000D03*
%TD*%
D15*
%TO.C,LED3*%
X383500000Y-43000000D03*
X386500000Y-43000000D03*
%TD*%
D10*
%TO.C,C64*%
X413937500Y-60000000D03*
X417062500Y-60000000D03*
%TD*%
D19*
%TO.C,R27*%
X311512500Y-50512500D03*
X311512500Y-53612500D03*
%TD*%
D14*
%TO.C,R77*%
X392500000Y-75000000D03*
X386500000Y-75000000D03*
%TD*%
D13*
%TO.C,R53*%
X224050000Y-57500000D03*
X220950000Y-57500000D03*
%TD*%
%TO.C,R64*%
X392550000Y-43000000D03*
X389450000Y-43000000D03*
%TD*%
D19*
%TO.C,R24*%
X346700000Y-37950000D03*
X346700000Y-41050000D03*
%TD*%
D17*
%TO.C,FB3*%
X228900000Y-91000000D03*
X230500000Y-91000000D03*
%TD*%
D15*
%TO.C,LED4*%
X383550000Y-37500000D03*
X386550000Y-37500000D03*
%TD*%
D32*
%TO.C,R28*%
X305962500Y-41562500D03*
X309062500Y-41562500D03*
%TD*%
D13*
%TO.C,R36*%
X340500000Y-53500000D03*
X337400000Y-53500000D03*
%TD*%
D23*
%TO.C,R47*%
X376500000Y-47050000D03*
X376500000Y-43950000D03*
%TD*%
D14*
%TO.C,R69*%
X135000000Y-138000000D03*
X141000000Y-138000000D03*
%TD*%
D19*
%TO.C,R59*%
X410500000Y-27500000D03*
X410500000Y-30600000D03*
%TD*%
D18*
%TO.C,C60*%
X441000000Y-47000000D03*
X441000000Y-43875000D03*
%TD*%
D10*
%TO.C,C72*%
X217375000Y-90000000D03*
X220500000Y-90000000D03*
%TD*%
D24*
%TO.C,C19*%
X370000000Y-44937500D03*
X370000000Y-48062500D03*
%TD*%
D32*
%TO.C,R61*%
X246900000Y-27000000D03*
X250000000Y-27000000D03*
%TD*%
D10*
%TO.C,C58*%
X296437500Y-7000000D03*
X299562500Y-7000000D03*
%TD*%
D32*
%TO.C,R57*%
X321950000Y-33500000D03*
X325050000Y-33500000D03*
%TD*%
D19*
%TO.C,R44*%
X295000000Y-20450000D03*
X295000000Y-23550000D03*
%TD*%
D10*
%TO.C,C80*%
X218875000Y-33000000D03*
X222000000Y-33000000D03*
%TD*%
D32*
%TO.C,R25*%
X364450000Y-40562500D03*
X367550000Y-40562500D03*
%TD*%
D19*
%TO.C,R26*%
X313000000Y-37450000D03*
X313000000Y-40550000D03*
%TD*%
D14*
%TO.C,R17*%
X377500000Y-68500000D03*
X383500000Y-68500000D03*
%TD*%
D10*
%TO.C,C30*%
X337400000Y-49500000D03*
X340525000Y-49500000D03*
%TD*%
D13*
%TO.C,R56*%
X227000000Y-86500000D03*
X223900000Y-86500000D03*
%TD*%
D10*
%TO.C,C66*%
X414937500Y-14500000D03*
X418062500Y-14500000D03*
%TD*%
D18*
%TO.C,C69*%
X387500000Y-63062500D03*
X387500000Y-59937500D03*
%TD*%
D14*
%TO.C,R2*%
X111000000Y-145000000D03*
X105000000Y-145000000D03*
%TD*%
D33*
%TO.C,Y1*%
X427200000Y-24500000D03*
X434500000Y-24500000D03*
%TD*%
D27*
%TO.C,R7*%
X84000000Y-143000000D03*
X84000000Y-137000000D03*
%TD*%
D14*
%TO.C,R73*%
X356500000Y-75000000D03*
X350500000Y-75000000D03*
%TD*%
D18*
%TO.C,C61*%
X440500000Y-38625000D03*
X440500000Y-35500000D03*
%TD*%
M02*
