M48
; DRILL file {KiCad 9.0.0} date 2025-04-30T17:51:37-0700
; FORMAT={-:-/ absolute / metric / decimal}
; #@! TF.CreationDate,2025-04-30T17:51:37-07:00
; #@! TF.GenerationSoftware,Kicad,Pcbnew,9.0.0
; #@! TF.FileFunction,Plated,1,4,PTH
FMAT,2
METRIC
; #@! TA.AperFunction,Plated,PTH,ViaDrill
T1C0.300
; #@! TA.AperFunction,Plated,PTH,ViaDrill
T2C0.400
; #@! TA.AperFunction,Plated,PTH,ViaDrill
T3C0.500
; #@! TA.AperFunction,Plated,PTH,ComponentDrill
T4C0.800
; #@! TA.AperFunction,Plated,PTH,ComponentDrill
T5C1.000
; #@! TA.AperFunction,Plated,PTH,ComponentDrill
T6C1.110
; #@! TA.AperFunction,Plated,PTH,ComponentDrill
T7C1.500
; #@! TA.AperFunction,Plated,PTH,ComponentDrill
T8C5.300
%
G90
G05
T1
X107.0Y-110.0
X107.0Y-133.5
X108.5Y-105.0
X108.5Y-115.0
X110.0Y-96.0
X110.0Y-100.0
X111.5Y-76.5
X111.5Y-92.5
X128.0Y-74.0
X128.0Y-94.0
X128.0Y-111.0
X128.0Y-113.0
X128.0Y-129.0
X128.0Y-131.0
X128.5Y-72.0
X129.0Y-91.0
X143.0Y-86.0
X143.0Y-111.0
X143.0Y-115.0
X143.0Y-124.438
X143.0Y-129.0
X143.0Y-133.0
X143.028Y-91.0
X143.495Y-106.0
X144.0Y-67.14
X144.0Y-71.0
X144.0Y-75.0
X144.0Y-76.5
X144.0Y-94.188
X144.0Y-96.0
X144.0Y-114.0
X144.0Y-132.125
X157.0Y-69.0
X157.0Y-72.0
X157.0Y-88.0
X157.0Y-92.0
X157.0Y-96.0
X157.0Y-108.0
X157.0Y-112.0
X157.0Y-116.0
X157.0Y-126.0
X157.0Y-130.0
X157.0Y-135.0
X158.0Y-76.0
X159.0Y-96.0
X159.0Y-136.0
X160.0Y-75.0
X160.0Y-116.0
X161.0Y-86.5
X161.0Y-106.5
X161.0Y-126.5
X172.0Y-77.0
X172.0Y-96.0
X172.0Y-115.0
X173.0Y-135.0
X184.0Y-103.0
X185.0Y-67.5
X185.0Y-87.0
X185.0Y-125.5
X186.0Y-111.0
X186.566Y-131.934
X188.089Y-92.5
X190.0Y-107.5
X192.0Y-74.0
X192.5Y-102.5
T2
X161.0Y-63.0
T3
X89.0Y-59.0
X89.0Y-60.0
X89.0Y-61.0
X89.0Y-62.0
X89.0Y-63.0
X89.0Y-64.0
X89.0Y-65.0
X89.0Y-66.0
X89.0Y-67.0
X89.0Y-68.0
X89.0Y-69.0
X89.0Y-70.0
X89.0Y-71.0
X89.0Y-72.0
X89.0Y-73.0
X89.0Y-74.0
X89.0Y-75.0
X89.0Y-76.0
X89.0Y-77.0
X89.0Y-78.0
X89.0Y-79.0
X89.0Y-80.0
X89.0Y-81.0
X89.0Y-82.0
X89.0Y-83.0
X89.0Y-84.0
X89.0Y-85.0
X89.0Y-86.0
X89.0Y-87.0
X89.0Y-88.0
X89.0Y-89.0
X89.0Y-90.0
X89.0Y-91.0
X89.0Y-92.0
X89.0Y-93.0
X89.0Y-94.0
X89.0Y-95.0
X89.0Y-96.0
X89.0Y-97.0
X89.0Y-98.0
X89.0Y-99.0
X89.0Y-100.0
X89.0Y-101.0
X89.0Y-102.0
X89.0Y-103.0
X89.0Y-104.0
X89.0Y-105.0
X89.0Y-106.0
X89.0Y-107.0
X89.0Y-108.0
X89.0Y-109.0
X89.0Y-110.0
X89.0Y-111.0
X89.0Y-112.0
X89.0Y-113.0
X89.0Y-114.0
X89.0Y-115.0
X89.0Y-116.0
X89.0Y-117.0
X89.0Y-118.0
X89.0Y-119.0
X89.0Y-120.0
X89.0Y-121.0
X89.0Y-122.0
X89.0Y-123.0
X89.0Y-124.0
X89.0Y-125.0
X89.0Y-126.0
X89.0Y-127.0
X89.0Y-128.0
X89.0Y-129.0
X89.0Y-130.0
X89.0Y-131.0
X89.0Y-132.0
X89.0Y-133.0
X89.0Y-134.0
X89.0Y-135.0
X89.0Y-136.0
X89.0Y-137.0
X89.0Y-138.0
X89.0Y-139.0
X89.0Y-140.0
X89.0Y-141.0
X90.0Y-59.0
X90.0Y-141.0
X91.0Y-59.0
X91.0Y-141.0
X92.0Y-59.0
X92.0Y-141.0
X93.0Y-59.0
X93.0Y-141.0
X94.0Y-59.0
X94.0Y-141.0
X95.0Y-59.0
X95.0Y-75.0
X95.0Y-80.0
X95.0Y-85.0
X95.0Y-90.0
X95.0Y-92.5
X95.0Y-97.5
X95.0Y-102.5
X95.0Y-107.5
X95.0Y-115.0
X95.0Y-120.0
X95.0Y-125.0
X95.0Y-141.0
X96.0Y-59.0
X96.0Y-141.0
X97.0Y-59.0
X97.0Y-141.0
X98.0Y-59.0
X98.0Y-141.0
X99.0Y-59.0
X99.0Y-141.0
X100.0Y-59.0
X100.0Y-70.0
X100.0Y-75.0
X100.0Y-80.0
X100.0Y-85.0
X100.0Y-115.0
X100.0Y-120.0
X100.0Y-125.0
X100.0Y-130.0
X100.0Y-141.0
X101.0Y-59.0
X101.0Y-141.0
X102.0Y-59.0
X102.0Y-141.0
X103.0Y-59.0
X103.0Y-141.0
X104.0Y-59.0
X104.0Y-141.0
X105.0Y-59.0
X105.0Y-65.0
X105.0Y-70.0
X105.0Y-75.0
X105.0Y-80.0
X105.0Y-85.0
X105.0Y-90.0
X105.0Y-92.5
X105.0Y-97.5
X105.0Y-102.5
X105.0Y-107.023
X105.0Y-115.0
X105.0Y-120.0
X105.0Y-125.0
X105.0Y-130.0
X105.0Y-135.0
X105.0Y-141.0
X106.0Y-59.0
X106.0Y-141.0
X107.0Y-59.0
X107.0Y-141.0
X108.0Y-59.0
X108.0Y-141.0
X109.0Y-59.0
X109.0Y-141.0
X110.0Y-59.0
X110.0Y-65.0
X110.0Y-70.0
X110.0Y-80.0
X110.0Y-85.0
X110.0Y-120.0
X110.0Y-125.0
X110.0Y-130.0
X110.0Y-141.0
X111.0Y-59.0
X111.0Y-141.0
X112.0Y-59.0
X112.0Y-141.0
X113.0Y-59.0
X113.0Y-141.0
X114.0Y-59.0
X114.0Y-141.0
X115.0Y-59.0
X115.0Y-65.0
X115.0Y-70.0
X115.0Y-80.0
X115.0Y-85.0
X115.0Y-90.0
X115.0Y-100.0
X115.0Y-105.0
X115.0Y-110.0
X115.0Y-120.0
X115.0Y-125.0
X115.0Y-130.0
X115.0Y-135.0
X115.0Y-141.0
X116.0Y-59.0
X116.0Y-141.0
X117.0Y-59.0
X117.0Y-141.0
X118.0Y-59.0
X118.0Y-141.0
X119.0Y-59.0
X119.0Y-141.0
X120.0Y-59.0
X120.0Y-65.0
X120.0Y-75.0
X120.0Y-80.0
X120.0Y-85.0
X120.0Y-90.0
X120.0Y-130.0
X120.0Y-141.0
X121.0Y-59.0
X121.0Y-141.0
X122.0Y-59.0
X122.0Y-141.0
X123.0Y-59.0
X123.0Y-141.0
X124.0Y-59.0
X124.0Y-141.0
X125.0Y-59.0
X125.0Y-65.0
X125.0Y-85.0
X125.0Y-100.0
X125.0Y-105.0
X125.0Y-120.0
X125.0Y-125.0
X125.0Y-141.0
X126.0Y-59.0
X126.0Y-141.0
X127.0Y-59.0
X127.0Y-141.0
X128.0Y-59.0
X128.0Y-141.0
X129.0Y-59.0
X129.0Y-141.0
X130.0Y-59.0
X130.0Y-65.0
X130.0Y-80.0
X130.0Y-100.0
X130.0Y-120.0
X130.0Y-141.0
X131.0Y-59.0
X131.0Y-141.0
X132.0Y-59.0
X132.0Y-141.0
X133.0Y-59.0
X133.0Y-141.0
X134.0Y-59.0
X134.0Y-141.0
X135.0Y-59.0
X135.0Y-80.0
X135.0Y-100.0
X135.0Y-120.0
X135.0Y-141.0
X136.0Y-59.0
X136.0Y-141.0
X137.0Y-59.0
X137.0Y-141.0
X138.0Y-59.0
X138.0Y-141.0
X139.0Y-59.0
X139.0Y-141.0
X140.0Y-59.0
X140.0Y-80.0
X140.0Y-100.0
X140.0Y-120.0
X140.0Y-141.0
X141.0Y-59.0
X141.0Y-141.0
X142.0Y-59.0
X142.0Y-141.0
X143.0Y-59.0
X143.0Y-141.0
X144.0Y-59.0
X144.0Y-141.0
X145.0Y-59.0
X145.0Y-80.0
X145.0Y-100.0
X145.0Y-141.0
X146.0Y-59.0
X146.0Y-141.0
X147.0Y-59.0
X147.0Y-60.0
X147.0Y-61.0
X147.0Y-62.0
X147.0Y-78.0
X147.0Y-79.0
X147.0Y-80.0
X147.0Y-81.0
X147.0Y-97.0
X147.0Y-98.0
X147.0Y-99.0
X147.0Y-100.0
X147.0Y-101.0
X147.0Y-117.0
X147.0Y-118.0
X147.0Y-119.0
X147.0Y-136.0
X147.0Y-137.0
X147.0Y-138.0
X147.0Y-139.0
X147.0Y-140.0
X147.0Y-141.0
X153.987Y-78.854
X154.0Y-59.0
X154.0Y-60.0
X154.0Y-61.0
X154.0Y-62.0
X154.0Y-80.0
X154.0Y-81.0
X154.0Y-98.0
X154.0Y-99.0
X154.0Y-100.0
X154.0Y-118.0
X154.0Y-119.0
X154.0Y-120.0
X154.0Y-137.0
X154.0Y-138.0
X154.0Y-139.0
X154.0Y-140.0
X154.0Y-141.0
X155.0Y-59.0
X155.0Y-141.0
X156.0Y-59.0
X156.0Y-141.0
X157.0Y-59.0
X157.0Y-141.0
X158.0Y-59.0
X158.0Y-141.0
X159.0Y-59.0
X159.0Y-141.0
X160.0Y-59.0
X160.0Y-141.0
X161.0Y-59.0
X161.0Y-141.0
X162.0Y-59.0
X162.0Y-141.0
X163.0Y-59.0
X163.0Y-141.0
X164.0Y-59.0
X164.0Y-141.0
X165.0Y-59.0
X165.0Y-65.0
X165.0Y-70.0
X165.0Y-80.0
X165.0Y-85.0
X165.0Y-90.0
X165.0Y-100.0
X165.0Y-105.0
X165.0Y-110.0
X165.0Y-120.0
X165.0Y-125.0
X165.0Y-141.0
X166.0Y-59.0
X166.0Y-141.0
X167.0Y-59.0
X167.0Y-141.0
X168.0Y-59.0
X168.0Y-141.0
X169.0Y-59.0
X169.0Y-141.0
X170.0Y-59.0
X170.0Y-65.0
X170.0Y-80.0
X170.0Y-85.0
X170.0Y-95.0
X170.0Y-100.0
X170.0Y-115.0
X170.0Y-120.0
X170.0Y-135.0
X170.0Y-141.0
X171.0Y-59.0
X171.0Y-141.0
X172.0Y-59.0
X172.0Y-141.0
X173.0Y-59.0
X173.0Y-141.0
X174.0Y-59.0
X174.0Y-141.0
X175.0Y-59.0
X175.0Y-65.0
X175.0Y-80.0
X175.0Y-85.0
X175.0Y-105.0
X176.0Y-59.0
X177.0Y-59.0
X178.0Y-59.0
X179.0Y-59.0
X180.0Y-59.0
X180.0Y-65.0
X180.0Y-120.0
X180.0Y-141.0
X181.0Y-59.0
X181.0Y-141.0
X182.0Y-59.0
X182.0Y-141.0
X183.0Y-59.0
X183.0Y-141.0
X184.0Y-59.0
X184.0Y-141.0
X184.901Y-89.996
X185.0Y-59.0
X185.0Y-65.0
X185.0Y-75.0
X185.0Y-80.0
X185.0Y-85.0
X185.0Y-95.0
X185.0Y-100.0
X185.0Y-110.0
X185.0Y-115.0
X185.0Y-120.0
X185.0Y-135.0
X185.0Y-141.0
X185.113Y-70.0
X186.0Y-59.0
X186.0Y-141.0
X187.0Y-59.0
X187.0Y-141.0
X188.0Y-59.0
X188.0Y-141.0
X189.0Y-59.0
X189.0Y-141.0
X190.0Y-59.0
X190.0Y-65.0
X190.0Y-70.0
X190.0Y-75.0
X190.0Y-85.0
X190.0Y-90.0
X190.0Y-120.0
X190.0Y-125.0
X190.0Y-135.0
X190.0Y-141.0
X191.0Y-59.0
X191.0Y-141.0
X192.0Y-59.0
X192.0Y-141.0
X193.0Y-59.0
X193.0Y-141.0
X194.0Y-59.0
X194.0Y-141.0
X195.0Y-59.0
X195.0Y-65.0
X195.0Y-70.0
X195.0Y-75.0
X195.0Y-85.0
X195.0Y-90.0
X195.0Y-115.0
X195.0Y-120.0
X195.0Y-135.0
X195.0Y-141.0
X196.0Y-59.0
X196.0Y-141.0
X197.0Y-59.0
X197.0Y-141.0
X198.0Y-59.0
X198.0Y-141.0
X199.0Y-59.0
X199.0Y-141.0
X199.989Y-89.969
X200.0Y-59.0
X200.0Y-70.0
X200.0Y-115.0
X200.0Y-120.0
X200.0Y-125.0
X200.0Y-130.0
X200.0Y-141.0
X201.0Y-59.0
X201.0Y-141.0
X202.0Y-59.0
X202.0Y-141.0
X203.0Y-59.0
X203.0Y-141.0
X204.0Y-141.0
X205.0Y-70.0
X205.0Y-90.0
X205.0Y-115.0
X205.0Y-120.0
X205.0Y-141.0
X206.0Y-141.0
X207.0Y-59.0
X207.0Y-141.0
X208.0Y-59.0
X208.0Y-141.0
X209.0Y-59.0
X209.0Y-141.0
X210.0Y-59.0
X210.0Y-141.0
X211.0Y-59.0
X211.0Y-60.0
X211.0Y-61.0
X211.0Y-62.0
X211.0Y-63.0
X211.0Y-64.0
X211.0Y-65.0
X211.0Y-66.0
X211.0Y-67.0
X211.0Y-68.0
X211.0Y-69.0
X211.0Y-70.0
X211.0Y-71.0
X211.0Y-72.0
X211.0Y-73.0
X211.0Y-74.0
X211.0Y-75.0
X211.0Y-76.0
X211.0Y-77.0
X211.0Y-78.0
X211.0Y-79.0
X211.0Y-80.0
X211.0Y-81.0
X211.0Y-82.0
X211.0Y-83.0
X211.0Y-84.0
X211.0Y-85.0
X211.0Y-86.0
X211.0Y-87.0
X211.0Y-88.0
X211.0Y-89.0
X211.0Y-90.0
X211.0Y-91.0
X211.0Y-92.0
X211.0Y-93.0
X211.0Y-94.0
X211.0Y-95.0
X211.0Y-96.0
X211.0Y-97.0
X211.0Y-98.0
X211.0Y-99.0
X211.0Y-100.0
X211.0Y-101.0
X211.0Y-102.0
X211.0Y-103.0
X211.0Y-104.0
X211.0Y-105.0
X211.0Y-106.0
X211.0Y-107.0
X211.0Y-108.0
X211.0Y-109.0
X211.0Y-110.0
X211.0Y-111.0
X211.0Y-112.0
X211.0Y-113.0
X211.0Y-114.0
X211.0Y-115.0
X211.0Y-116.0
X211.0Y-117.0
X211.0Y-118.0
X211.0Y-119.0
X211.0Y-120.0
X211.0Y-121.0
X211.0Y-122.0
X211.0Y-123.0
X211.0Y-124.0
X211.0Y-125.0
X211.0Y-126.0
X211.0Y-127.0
X211.0Y-128.0
X211.0Y-129.0
X211.0Y-130.0
X211.0Y-131.0
X211.0Y-132.0
X211.0Y-133.0
X211.0Y-134.0
X211.0Y-135.0
X211.0Y-136.0
X211.0Y-137.0
X211.0Y-138.0
X211.0Y-139.0
X211.0Y-140.0
X211.0Y-141.0
T4
X191.0Y-132.0
X196.0Y-132.0
X207.0Y-120.5
X207.0Y-125.5
T5
X92.5Y-90.0
X92.5Y-92.54
X92.5Y-95.08
X92.5Y-97.62
X92.5Y-100.16
X92.5Y-102.7
X92.5Y-105.24
X92.5Y-107.78
X92.5Y-110.32
X92.5Y-112.86
X207.5Y-90.0
X207.5Y-92.54
X207.5Y-95.08
X207.5Y-97.62
X207.5Y-100.16
X207.5Y-102.7
X207.5Y-105.24
X207.5Y-107.78
X207.5Y-110.32
X207.5Y-112.86
T6
X191.96Y-122.275
X194.5Y-122.275
X197.04Y-122.275
T7
X125.0Y-77.5
X125.5Y-97.0
X125.5Y-116.0
X125.5Y-135.0
X145.0Y-64.0
X145.0Y-83.0
X145.0Y-103.0
X145.0Y-121.0
X155.5Y-64.0
X155.5Y-83.0
X155.5Y-103.0
X155.5Y-121.5
X171.0Y-68.0
X171.5Y-87.0
X172.0Y-105.0
X172.0Y-125.0
X177.0Y-101.0
X177.0Y-120.0
X177.0Y-140.0
X177.5Y-82.0
X195.0Y-107.5
X196.0Y-97.5
X200.0Y-92.5
X200.0Y-102.5
T8
X95.0Y-65.0
X95.0Y-135.0
X205.0Y-64.35
X205.0Y-135.0
M30
