%TF.GenerationSoftware,KiCad,Pcbnew,9.0.0*%
%TF.CreationDate,2025-04-30T17:51:34-07:00*%
%TF.ProjectId,IsolatedVoltageSensor,49736f6c-6174-4656-9456-6f6c74616765,rev?*%
%TF.SameCoordinates,Original*%
%TF.FileFunction,Paste,Top*%
%TF.FilePolarity,Positive*%
%FSLAX46Y46*%
G04 Gerber Fmt 4.6, Leading zero omitted, Abs format (unit mm)*
G04 Created by KiCad (PCBNEW 9.0.0) date 2025-04-30 17:51:34*
%MOMM*%
%LPD*%
G01*
G04 APERTURE LIST*
G04 Aperture macros list*
%AMRoundRect*
0 Rectangle with rounded corners*
0 $1 Rounding radius*
0 $2 $3 $4 $5 $6 $7 $8 $9 X,Y pos of 4 corners*
0 Add a 4 corners polygon primitive as box body*
4,1,4,$2,$3,$4,$5,$6,$7,$8,$9,$2,$3,0*
0 Add four circle primitives for the rounded corners*
1,1,$1+$1,$2,$3*
1,1,$1+$1,$4,$5*
1,1,$1+$1,$6,$7*
1,1,$1+$1,$8,$9*
0 Add four rect primitives between the rounded corners*
20,1,$1+$1,$2,$3,$4,$5,0*
20,1,$1+$1,$4,$5,$6,$7,0*
20,1,$1+$1,$6,$7,$8,$9,0*
20,1,$1+$1,$8,$9,$2,$3,0*%
G04 Aperture macros list end*
%ADD10RoundRect,0.250000X-0.400000X-1.075000X0.400000X-1.075000X0.400000X1.075000X-0.400000X1.075000X0*%
%ADD11RoundRect,0.250000X1.100000X-0.412500X1.100000X0.412500X-1.100000X0.412500X-1.100000X-0.412500X0*%
%ADD12RoundRect,0.250000X0.400000X1.075000X-0.400000X1.075000X-0.400000X-1.075000X0.400000X-1.075000X0*%
%ADD13R,0.850000X1.050000*%
%ADD14RoundRect,0.250000X-0.412500X-1.100000X0.412500X-1.100000X0.412500X1.100000X-0.412500X1.100000X0*%
%ADD15R,1.200000X0.400000*%
%ADD16RoundRect,0.250000X0.412500X1.100000X-0.412500X1.100000X-0.412500X-1.100000X0.412500X-1.100000X0*%
%ADD17R,0.950000X1.000000*%
%ADD18RoundRect,0.250000X1.075000X-0.400000X1.075000X0.400000X-1.075000X0.400000X-1.075000X-0.400000X0*%
%ADD19RoundRect,0.250000X-1.100000X0.412500X-1.100000X-0.412500X1.100000X-0.412500X1.100000X0.412500X0*%
%ADD20R,1.950000X0.650000*%
G04 APERTURE END LIST*
D10*
%TO.C,R49*%
X119000000Y-88000000D03*
X122100000Y-88000000D03*
%TD*%
D11*
%TO.C,C76*%
X140500000Y-69625000D03*
X140500000Y-66500000D03*
%TD*%
D12*
%TO.C,R51*%
X177100000Y-96000000D03*
X174000000Y-96000000D03*
%TD*%
D13*
%TO.C,Z2*%
X120000000Y-116700000D03*
X120000000Y-120300000D03*
%TD*%
D14*
%TO.C,C35*%
X159937500Y-124000000D03*
X163062500Y-124000000D03*
%TD*%
D15*
%TO.C,IC11*%
X180600000Y-92500000D03*
X180600000Y-93150000D03*
X180600000Y-93800000D03*
X182500000Y-93800000D03*
X182500000Y-92500000D03*
%TD*%
D16*
%TO.C,C83*%
X182625000Y-67000000D03*
X179500000Y-67000000D03*
%TD*%
D12*
%TO.C,R46*%
X173100000Y-110000000D03*
X170000000Y-110000000D03*
%TD*%
D13*
%TO.C,Z3*%
X120500000Y-97700000D03*
X120500000Y-101300000D03*
%TD*%
D17*
%TO.C,FB3*%
X117700000Y-96000000D03*
X119300000Y-96000000D03*
%TD*%
D10*
%TO.C,R38*%
X118950000Y-126000000D03*
X122050000Y-126000000D03*
%TD*%
D12*
%TO.C,R58*%
X172500000Y-73000000D03*
X169400000Y-73000000D03*
%TD*%
D18*
%TO.C,R47*%
X177000000Y-109500000D03*
X177000000Y-106400000D03*
%TD*%
D16*
%TO.C,C80*%
X162562500Y-71000000D03*
X159437500Y-71000000D03*
%TD*%
D17*
%TO.C,FB1*%
X116700000Y-133500000D03*
X118300000Y-133500000D03*
%TD*%
D10*
%TO.C,R43*%
X118950000Y-107000000D03*
X122050000Y-107000000D03*
%TD*%
D19*
%TO.C,C62*%
X135500000Y-93437500D03*
X135500000Y-96562500D03*
%TD*%
D12*
%TO.C,R48*%
X183000000Y-116500000D03*
X179900000Y-116500000D03*
%TD*%
D11*
%TO.C,C46*%
X125500000Y-131562500D03*
X125500000Y-128437500D03*
%TD*%
%TO.C,C42*%
X140000000Y-127562500D03*
X140000000Y-124437500D03*
%TD*%
D16*
%TO.C,C41*%
X163062500Y-132500000D03*
X159937500Y-132500000D03*
%TD*%
D19*
%TO.C,C74*%
X135500000Y-74437500D03*
X135500000Y-77562500D03*
%TD*%
D18*
%TO.C,R59*%
X176500000Y-71500000D03*
X176500000Y-68400000D03*
%TD*%
D16*
%TO.C,C47*%
X183000000Y-125500000D03*
X179875000Y-125500000D03*
%TD*%
D19*
%TO.C,C50*%
X135500000Y-112937500D03*
X135500000Y-116062500D03*
%TD*%
%TO.C,C66*%
X131000000Y-93437500D03*
X131000000Y-96562500D03*
%TD*%
%TO.C,C54*%
X131000000Y-112937500D03*
X131000000Y-116062500D03*
%TD*%
D13*
%TO.C,Z4*%
X120000000Y-78200000D03*
X120000000Y-81800000D03*
%TD*%
D11*
%TO.C,C75*%
X131000000Y-69625000D03*
X131000000Y-66500000D03*
%TD*%
D14*
%TO.C,C58*%
X159937500Y-109000000D03*
X163062500Y-109000000D03*
%TD*%
D19*
%TO.C,C43*%
X139500000Y-131375000D03*
X139500000Y-134500000D03*
%TD*%
%TO.C,C77*%
X134500000Y-66375000D03*
X134500000Y-69500000D03*
%TD*%
D14*
%TO.C,C81*%
X159500000Y-63000000D03*
X162625000Y-63000000D03*
%TD*%
D15*
%TO.C,IC1*%
X180600000Y-131200000D03*
X180600000Y-131850000D03*
X180600000Y-132500000D03*
X182500000Y-132500000D03*
X182500000Y-131200000D03*
%TD*%
D12*
%TO.C,R37*%
X113050000Y-133500000D03*
X109950000Y-133500000D03*
%TD*%
%TO.C,R57*%
X177050000Y-77000000D03*
X173950000Y-77000000D03*
%TD*%
D16*
%TO.C,C56*%
X163062500Y-112500000D03*
X159937500Y-112500000D03*
%TD*%
D11*
%TO.C,C67*%
X161500000Y-99562500D03*
X161500000Y-96437500D03*
%TD*%
D17*
%TO.C,FB2*%
X116400000Y-115000000D03*
X118000000Y-115000000D03*
%TD*%
D12*
%TO.C,R44*%
X113550000Y-115000000D03*
X110450000Y-115000000D03*
%TD*%
D20*
%TO.C,AT1*%
X145550000Y-126110000D03*
X145550000Y-127380000D03*
X145550000Y-128650000D03*
X145550000Y-129920000D03*
X145550000Y-131190000D03*
X145550000Y-132460000D03*
X145550000Y-133730000D03*
X145550000Y-135000000D03*
X155000000Y-135000000D03*
X155000000Y-133730000D03*
X155000000Y-132460000D03*
X155000000Y-131190000D03*
X155000000Y-129920000D03*
X155000000Y-128650000D03*
X155000000Y-127380000D03*
X155000000Y-126110000D03*
%TD*%
D12*
%TO.C,R39*%
X173000000Y-130000000D03*
X169900000Y-130000000D03*
%TD*%
D19*
%TO.C,C53*%
X134500000Y-105937500D03*
X134500000Y-109062500D03*
%TD*%
D16*
%TO.C,C68*%
X163125000Y-92500000D03*
X160000000Y-92500000D03*
%TD*%
D19*
%TO.C,C48*%
X140000000Y-112937500D03*
X140000000Y-116062500D03*
%TD*%
D13*
%TO.C,Z1*%
X120000000Y-135700000D03*
X120000000Y-139300000D03*
%TD*%
D20*
%TO.C,AT4*%
X145550000Y-68690000D03*
X145550000Y-69960000D03*
X145550000Y-71230000D03*
X145550000Y-72500000D03*
X145550000Y-73770000D03*
X145550000Y-75040000D03*
X145550000Y-76310000D03*
X145550000Y-77580000D03*
X155000000Y-77580000D03*
X155000000Y-76310000D03*
X155000000Y-75040000D03*
X155000000Y-73770000D03*
X155000000Y-72500000D03*
X155000000Y-71230000D03*
X155000000Y-69960000D03*
X155000000Y-68690000D03*
%TD*%
D16*
%TO.C,C59*%
X183000000Y-105500000D03*
X179875000Y-105500000D03*
%TD*%
D18*
%TO.C,R53*%
X177000000Y-91000000D03*
X177000000Y-87900000D03*
%TD*%
D11*
%TO.C,C40*%
X130500000Y-127562500D03*
X130500000Y-124437500D03*
%TD*%
D12*
%TO.C,R40*%
X177500000Y-135000000D03*
X174400000Y-135000000D03*
%TD*%
D11*
%TO.C,C79*%
X162000000Y-78562500D03*
X162000000Y-75437500D03*
%TD*%
D19*
%TO.C,C60*%
X140000000Y-93437500D03*
X140000000Y-96562500D03*
%TD*%
D18*
%TO.C,R41*%
X177000000Y-129500000D03*
X177000000Y-126400000D03*
%TD*%
D11*
%TO.C,C52*%
X140500000Y-109125000D03*
X140500000Y-106000000D03*
%TD*%
D14*
%TO.C,C57*%
X159937500Y-104000000D03*
X163062500Y-104000000D03*
%TD*%
D19*
%TO.C,C39*%
X134000000Y-124437500D03*
X134000000Y-127562500D03*
%TD*%
D12*
%TO.C,R42*%
X183000000Y-136500000D03*
X179900000Y-136500000D03*
%TD*%
D14*
%TO.C,C70*%
X160000000Y-89000000D03*
X163125000Y-89000000D03*
%TD*%
D19*
%TO.C,C78*%
X131000000Y-74437500D03*
X131000000Y-77562500D03*
%TD*%
D16*
%TO.C,C71*%
X183125000Y-87000000D03*
X180000000Y-87000000D03*
%TD*%
D12*
%TO.C,R54*%
X183000000Y-98000000D03*
X179900000Y-98000000D03*
%TD*%
D14*
%TO.C,C36*%
X159937500Y-129000000D03*
X163062500Y-129000000D03*
%TD*%
D10*
%TO.C,R55*%
X118450000Y-68500000D03*
X121550000Y-68500000D03*
%TD*%
D12*
%TO.C,R50*%
X115050000Y-96000000D03*
X111950000Y-96000000D03*
%TD*%
D14*
%TO.C,C82*%
X159437500Y-67500000D03*
X162562500Y-67500000D03*
%TD*%
D11*
%TO.C,C38*%
X161500000Y-139562500D03*
X161500000Y-136437500D03*
%TD*%
D15*
%TO.C,IC2*%
X180600000Y-111200000D03*
X180600000Y-111850000D03*
X180600000Y-112500000D03*
X182500000Y-112500000D03*
X182500000Y-111200000D03*
%TD*%
D11*
%TO.C,C51*%
X131000000Y-109125000D03*
X131000000Y-106000000D03*
%TD*%
D15*
%TO.C,IC12*%
X180100000Y-72500000D03*
X180100000Y-73150000D03*
X180100000Y-73800000D03*
X182000000Y-73800000D03*
X182000000Y-72500000D03*
%TD*%
D20*
%TO.C,AT2*%
X145550000Y-108055000D03*
X145550000Y-109325000D03*
X145550000Y-110595000D03*
X145550000Y-111865000D03*
X145550000Y-113135000D03*
X145550000Y-114405000D03*
X145550000Y-115675000D03*
X145550000Y-116945000D03*
X155000000Y-116945000D03*
X155000000Y-115675000D03*
X155000000Y-114405000D03*
X155000000Y-113135000D03*
X155000000Y-111865000D03*
X155000000Y-110595000D03*
X155000000Y-109325000D03*
X155000000Y-108055000D03*
%TD*%
D11*
%TO.C,C63*%
X131000000Y-89062500D03*
X131000000Y-85937500D03*
%TD*%
%TO.C,C64*%
X140500000Y-89062500D03*
X140500000Y-85937500D03*
%TD*%
D19*
%TO.C,C45*%
X130500000Y-131375000D03*
X130500000Y-134500000D03*
%TD*%
D12*
%TO.C,R52*%
X173000000Y-92000000D03*
X169900000Y-92000000D03*
%TD*%
D11*
%TO.C,C49*%
X125500000Y-112562500D03*
X125500000Y-109437500D03*
%TD*%
D12*
%TO.C,R60*%
X182600000Y-78000000D03*
X179500000Y-78000000D03*
%TD*%
D11*
%TO.C,C61*%
X125500000Y-93625000D03*
X125500000Y-90500000D03*
%TD*%
D17*
%TO.C,FB4*%
X116400000Y-76500000D03*
X118000000Y-76500000D03*
%TD*%
D12*
%TO.C,R56*%
X113550000Y-76500000D03*
X110450000Y-76500000D03*
%TD*%
D19*
%TO.C,C72*%
X140000000Y-74437500D03*
X140000000Y-77562500D03*
%TD*%
%TO.C,C44*%
X135000000Y-131437500D03*
X135000000Y-134562500D03*
%TD*%
D12*
%TO.C,R45*%
X177000000Y-115000000D03*
X173900000Y-115000000D03*
%TD*%
D19*
%TO.C,C65*%
X134500000Y-85937500D03*
X134500000Y-89062500D03*
%TD*%
D11*
%TO.C,C73*%
X125500000Y-74000000D03*
X125500000Y-70875000D03*
%TD*%
D14*
%TO.C,C69*%
X160000000Y-84000000D03*
X163125000Y-84000000D03*
%TD*%
D20*
%TO.C,AT3*%
X145550000Y-88055000D03*
X145550000Y-89325000D03*
X145550000Y-90595000D03*
X145550000Y-91865000D03*
X145550000Y-93135000D03*
X145550000Y-94405000D03*
X145550000Y-95675000D03*
X145550000Y-96945000D03*
X155000000Y-96945000D03*
X155000000Y-95675000D03*
X155000000Y-94405000D03*
X155000000Y-93135000D03*
X155000000Y-91865000D03*
X155000000Y-90595000D03*
X155000000Y-89325000D03*
X155000000Y-88055000D03*
%TD*%
D11*
%TO.C,C55*%
X161500000Y-119625000D03*
X161500000Y-116500000D03*
%TD*%
M02*
