%TF.GenerationSoftware,KiCad,Pcbnew,9.0.0*%
%TF.CreationDate,2025-04-28T14:26:37-07:00*%
%TF.ProjectId,IsolatedVoltageSensor,49736f6c-6174-4656-9456-6f6c74616765,rev?*%
%TF.SameCoordinates,Original*%
%TF.FileFunction,Copper,L2,Inr*%
%TF.FilePolarity,Positive*%
%FSLAX46Y46*%
G04 Gerber Fmt 4.6, Leading zero omitted, Abs format (unit mm)*
G04 Created by KiCad (PCBNEW 9.0.0) date 2025-04-28 14:26:37*
%MOMM*%
%LPD*%
G01*
G04 APERTURE LIST*
%TA.AperFunction,ComponentPad*%
%ADD10R,1.665000X1.665000*%
%TD*%
%TA.AperFunction,ComponentPad*%
%ADD11C,1.665000*%
%TD*%
%TA.AperFunction,ComponentPad*%
%ADD12C,9.500000*%
%TD*%
%TA.AperFunction,ComponentPad*%
%ADD13C,3.000000*%
%TD*%
%TA.AperFunction,ComponentPad*%
%ADD14R,1.200000X1.200000*%
%TD*%
%TA.AperFunction,ComponentPad*%
%ADD15C,1.200000*%
%TD*%
%TA.AperFunction,ComponentPad*%
%ADD16R,1.700000X1.700000*%
%TD*%
%TA.AperFunction,ComponentPad*%
%ADD17O,1.700000X1.700000*%
%TD*%
%TA.AperFunction,ViaPad*%
%ADD18C,0.600000*%
%TD*%
%TA.AperFunction,ViaPad*%
%ADD19C,1.000000*%
%TD*%
%TA.AperFunction,ViaPad*%
%ADD20C,0.800000*%
%TD*%
%TA.AperFunction,Conductor*%
%ADD21C,0.500000*%
%TD*%
%TA.AperFunction,Conductor*%
%ADD22C,1.000000*%
%TD*%
G04 APERTURE END LIST*
D10*
%TO.N,+5V*%
%TO.C,PS1*%
X191960000Y-122275000D03*
D11*
%TO.N,GND*%
X194500000Y-122275000D03*
%TO.N,+3.3V*%
X197040000Y-122275000D03*
%TD*%
D12*
%TO.N,unconnected-(H4-Pad1)*%
%TO.C,H4*%
X95000000Y-135000000D03*
%TD*%
D13*
%TO.N,Net-(AT4-OUTP)*%
%TO.C,TP18*%
X171000000Y-68000000D03*
%TD*%
%TO.N,GND*%
%TO.C,TP22*%
X155500000Y-103000000D03*
%TD*%
%TO.N,GNDPWR*%
%TO.C,TP11*%
X145000000Y-103000000D03*
%TD*%
%TO.N,Net-(IC2--IN)*%
%TO.C,TP10*%
X177000000Y-120000000D03*
%TD*%
%TO.N,Net-(AT2-OUTP)*%
%TO.C,TP8*%
X172000000Y-105000000D03*
%TD*%
%TO.N,Net-(IC1--IN)*%
%TO.C,TP5*%
X177000000Y-140000000D03*
%TD*%
%TO.N,Net-(AT1-OUTP)*%
%TO.C,TP3*%
X172000000Y-125000000D03*
%TD*%
%TO.N,Net-(AT1-INP)*%
%TO.C,TP2*%
X125500000Y-135000000D03*
%TD*%
%TO.N,PHASE_V_ISOLATED_VSENSE*%
%TO.C,TP14*%
X196000000Y-105500000D03*
%TD*%
D14*
%TO.N,+5V*%
%TO.C,C1*%
X191000000Y-132000000D03*
D15*
%TO.N,GND*%
X196000000Y-132000000D03*
%TD*%
D13*
%TO.N,GNDPWR*%
%TO.C,TP1*%
X145000000Y-64000000D03*
%TD*%
%TO.N,GNDPWR*%
%TO.C,TP16*%
X145000000Y-121000000D03*
%TD*%
%TO.N,Net-(AT4-INP)*%
%TO.C,TP17*%
X125000000Y-77500000D03*
%TD*%
%TO.N,Net-(IC11--IN)*%
%TO.C,TP15*%
X177000000Y-101000000D03*
%TD*%
%TO.N,GNDPWR*%
%TO.C,TP6*%
X145000000Y-83000000D03*
%TD*%
%TO.N,GND*%
%TO.C,TP23*%
X155500000Y-83000000D03*
%TD*%
D12*
%TO.N,unconnected-(H2-Pad1)*%
%TO.C,H2*%
X205000000Y-135000000D03*
%TD*%
D13*
%TO.N,GND*%
%TO.C,TP24*%
X155500000Y-64000000D03*
%TD*%
%TO.N,Net-(IC12--IN)*%
%TO.C,TP20*%
X177500000Y-82000000D03*
%TD*%
D12*
%TO.N,unconnected-(H3-Pad1)*%
%TO.C,H3*%
X95000000Y-65000000D03*
%TD*%
D13*
%TO.N,GND*%
%TO.C,TP21*%
X155500000Y-121500000D03*
%TD*%
%TO.N,DC_LINK_BUS_ISOLATED_VSENSE*%
%TO.C,TP4*%
X196000000Y-95000000D03*
%TD*%
%TO.N,Net-(AT2-INP)*%
%TO.C,TP7*%
X125500000Y-116000000D03*
%TD*%
D12*
%TO.N,unconnected-(H1-Pad1)*%
%TO.C,H1*%
X205000000Y-64350000D03*
%TD*%
D13*
%TO.N,Net-(AT3-INP)*%
%TO.C,TP12*%
X125500000Y-97000000D03*
%TD*%
%TO.N,Net-(AT3-OUTP)*%
%TO.C,TP13*%
X171500000Y-87000000D03*
%TD*%
D14*
%TO.N,+3.3V*%
%TO.C,C4*%
X207000000Y-125500000D03*
D15*
%TO.N,GND*%
X207000000Y-120500000D03*
%TD*%
D13*
%TO.N,PHASE_U_ISOLATED_VSENSE*%
%TO.C,TP9*%
X200500000Y-110000000D03*
%TD*%
%TO.N,PHASE_W_ISOLATED_VSENSE*%
%TO.C,TP19*%
X200000000Y-100000000D03*
%TD*%
D16*
%TO.N,GNDPWR*%
%TO.C,J1*%
X92500000Y-90000000D03*
D17*
%TO.N,DC_LINK_BUS_VSENSE*%
X92500000Y-92540000D03*
%TO.N,GNDPWR*%
X92500000Y-95080000D03*
%TO.N,PHASE_U_VSENSE*%
X92500000Y-97620000D03*
%TO.N,GNDPWR*%
X92500000Y-100160000D03*
%TO.N,PHASE_V_VSENSE*%
X92500000Y-102700000D03*
%TO.N,GNDPWR*%
X92500000Y-105240000D03*
%TO.N,PHASE_W_VSENSE*%
X92500000Y-107780000D03*
%TO.N,GNDPWR*%
X92500000Y-110320000D03*
X92500000Y-112860000D03*
%TD*%
D16*
%TO.N,+5V*%
%TO.C,J2*%
X207500000Y-90000000D03*
D17*
%TO.N,GND*%
X207500000Y-92540000D03*
%TO.N,DC_LINK_BUS_ISOLATED_VSENSE*%
X207500000Y-95080000D03*
%TO.N,GND*%
X207500000Y-97620000D03*
%TO.N,PHASE_W_ISOLATED_VSENSE*%
X207500000Y-100160000D03*
%TO.N,GND*%
X207500000Y-102700000D03*
%TO.N,PHASE_V_ISOLATED_VSENSE*%
X207500000Y-105240000D03*
%TO.N,GND*%
X207500000Y-107780000D03*
%TO.N,PHASE_U_ISOLATED_VSENSE*%
X207500000Y-110320000D03*
%TO.N,GND*%
X207500000Y-112860000D03*
%TD*%
D18*
%TO.N,+5V*%
X185000000Y-67500000D03*
X185000000Y-87000000D03*
X185000000Y-125500000D03*
X184000000Y-103000000D03*
%TO.N,Net-(AT1-DCDC_IN)*%
X157000000Y-130000000D03*
X159000000Y-136000000D03*
X157000000Y-126000000D03*
D19*
%TO.N,GNDPWR*%
X93000000Y-59000000D03*
X90000000Y-141000000D03*
X89000000Y-136000000D03*
X125000000Y-125000000D03*
X132000000Y-59000000D03*
X118000000Y-59000000D03*
X97000000Y-59000000D03*
X110000000Y-125000000D03*
X89000000Y-111000000D03*
X89000000Y-120000000D03*
X134000000Y-141000000D03*
X120000000Y-141000000D03*
X89000000Y-63000000D03*
X109000000Y-141000000D03*
X89000000Y-82000000D03*
X147000000Y-100000000D03*
X89000000Y-98000000D03*
X89000000Y-85000000D03*
X89000000Y-81000000D03*
X117000000Y-141000000D03*
X89000000Y-121000000D03*
X89000000Y-126000000D03*
X95000000Y-120000000D03*
X89000000Y-115000000D03*
X135000000Y-100000000D03*
X101000000Y-141000000D03*
X146000000Y-59000000D03*
X125000000Y-105000000D03*
X95000000Y-141000000D03*
X89000000Y-140000000D03*
X121000000Y-141000000D03*
X95000000Y-115000000D03*
X89000000Y-124000000D03*
X120000000Y-130000000D03*
X110000000Y-59000000D03*
X147000000Y-99000000D03*
X143000000Y-59000000D03*
X128000000Y-59000000D03*
X145000000Y-80000000D03*
X110000000Y-80000000D03*
X115000000Y-59000000D03*
X89000000Y-125000000D03*
X105000000Y-85000000D03*
X147000000Y-101000000D03*
X115000000Y-125000000D03*
X100000000Y-85000000D03*
X89000000Y-117000000D03*
X147000000Y-62000000D03*
X89000000Y-118000000D03*
X89000000Y-130000000D03*
X132000000Y-141000000D03*
X140000000Y-59000000D03*
X105000000Y-90000000D03*
X147000000Y-117000000D03*
X110000000Y-120000000D03*
X89000000Y-138000000D03*
X107000000Y-141000000D03*
X147000000Y-98000000D03*
X127000000Y-59000000D03*
X89000000Y-92000000D03*
X115000000Y-85000000D03*
X103000000Y-141000000D03*
X104000000Y-59000000D03*
X108000000Y-141000000D03*
X125000000Y-120000000D03*
X120000000Y-85000000D03*
X95000000Y-105000000D03*
X105000000Y-70000000D03*
X115000000Y-105000000D03*
X96000000Y-141000000D03*
X147000000Y-59000000D03*
X89000000Y-89000000D03*
X89000000Y-62000000D03*
X95000000Y-85000000D03*
X94000000Y-59000000D03*
X113000000Y-141000000D03*
X105000000Y-65000000D03*
X89000000Y-107000000D03*
X125000000Y-100000000D03*
X110000000Y-130000000D03*
X142000000Y-141000000D03*
X89000000Y-103000000D03*
X94000000Y-141000000D03*
X100000000Y-100000000D03*
X111000000Y-141000000D03*
X89000000Y-78000000D03*
X124000000Y-59000000D03*
X122000000Y-141000000D03*
X89000000Y-106000000D03*
X89000000Y-116000000D03*
X89000000Y-87000000D03*
X95000000Y-125000000D03*
X109000000Y-59000000D03*
X121000000Y-59000000D03*
X100000000Y-115000000D03*
X135000000Y-59000000D03*
X89000000Y-69000000D03*
X105000000Y-59000000D03*
X106000000Y-141000000D03*
X147000000Y-119000000D03*
X141000000Y-141000000D03*
X93000000Y-141000000D03*
X129000000Y-141000000D03*
X115000000Y-80000000D03*
X110000000Y-110000000D03*
X100000000Y-59000000D03*
X120000000Y-65000000D03*
X95000000Y-100000000D03*
X89000000Y-73000000D03*
X111000000Y-59000000D03*
X115000000Y-141000000D03*
X147000000Y-137000000D03*
X108000000Y-59000000D03*
X147000000Y-80000000D03*
X89000000Y-105000000D03*
X91000000Y-141000000D03*
X128000000Y-141000000D03*
X101000000Y-59000000D03*
X147000000Y-118000000D03*
X89000000Y-100000000D03*
X92000000Y-59000000D03*
X123000000Y-141000000D03*
X89000000Y-59000000D03*
X118000000Y-141000000D03*
X120000000Y-59000000D03*
X89000000Y-64000000D03*
X137000000Y-59000000D03*
X110000000Y-90000000D03*
X89000000Y-97000000D03*
X122000000Y-59000000D03*
X126000000Y-59000000D03*
X89000000Y-132000000D03*
X89000000Y-108000000D03*
X89000000Y-75000000D03*
X102000000Y-59000000D03*
X125000000Y-141000000D03*
X104000000Y-141000000D03*
X100000000Y-105000000D03*
X147000000Y-78000000D03*
X146000000Y-141000000D03*
X89000000Y-102000000D03*
X142000000Y-59000000D03*
X105000000Y-105000000D03*
X89000000Y-86000000D03*
X89000000Y-65000000D03*
X100000000Y-110000000D03*
X133000000Y-59000000D03*
X145000000Y-100000000D03*
X89000000Y-61000000D03*
X115000000Y-120000000D03*
X147000000Y-81000000D03*
X89000000Y-137000000D03*
X130000000Y-120000000D03*
X113000000Y-59000000D03*
X129000000Y-59000000D03*
X110000000Y-65000000D03*
X89000000Y-84000000D03*
X115000000Y-110000000D03*
X147000000Y-97000000D03*
X136000000Y-141000000D03*
X89000000Y-95000000D03*
X89000000Y-93000000D03*
X145000000Y-59000000D03*
X105000000Y-100000000D03*
X89000000Y-94000000D03*
X95000000Y-80000000D03*
X130000000Y-141000000D03*
X89000000Y-80000000D03*
X95000000Y-110000000D03*
X89000000Y-88000000D03*
X115000000Y-65000000D03*
X89000000Y-134000000D03*
X103000000Y-59000000D03*
X95000000Y-95000000D03*
X100000000Y-120000000D03*
X125000000Y-65000000D03*
X105000000Y-130000000D03*
X95000000Y-90000000D03*
X115000000Y-130000000D03*
X89000000Y-128000000D03*
X130000000Y-80000000D03*
X125000000Y-59000000D03*
X115000000Y-135000000D03*
X110000000Y-70000000D03*
X105000000Y-135000000D03*
X89000000Y-133000000D03*
X147000000Y-138000000D03*
X105000000Y-95000000D03*
X136000000Y-59000000D03*
X89000000Y-60000000D03*
X115000000Y-100000000D03*
X102000000Y-141000000D03*
X112000000Y-141000000D03*
X110000000Y-141000000D03*
X135000000Y-141000000D03*
X124000000Y-141000000D03*
X115000000Y-70000000D03*
X140000000Y-100000000D03*
X89000000Y-91000000D03*
X89000000Y-68000000D03*
X119000000Y-59000000D03*
X144000000Y-59000000D03*
X90000000Y-59000000D03*
X89000000Y-101000000D03*
X130000000Y-59000000D03*
X133000000Y-141000000D03*
X100000000Y-141000000D03*
X145000000Y-141000000D03*
X89000000Y-74000000D03*
X105000000Y-125000000D03*
X140000000Y-141000000D03*
X100000000Y-130000000D03*
X126000000Y-141000000D03*
X147000000Y-60000000D03*
X89000000Y-127000000D03*
X89000000Y-71000000D03*
X89000000Y-123000000D03*
X99000000Y-141000000D03*
X89000000Y-135000000D03*
X91000000Y-59000000D03*
X105000000Y-110000000D03*
X140000000Y-80000000D03*
X147000000Y-136000000D03*
X89000000Y-90000000D03*
X130000000Y-65000000D03*
X100000000Y-70000000D03*
X114000000Y-59000000D03*
X89000000Y-96000000D03*
X131000000Y-141000000D03*
X110000000Y-105000000D03*
X89000000Y-139000000D03*
X89000000Y-114000000D03*
X96000000Y-59000000D03*
X139000000Y-59000000D03*
X105000000Y-120000000D03*
X89000000Y-119000000D03*
X147000000Y-139000000D03*
X89000000Y-129000000D03*
X116000000Y-59000000D03*
X120000000Y-75000000D03*
X99000000Y-59000000D03*
X147000000Y-61000000D03*
X141000000Y-59000000D03*
X110000000Y-85000000D03*
X139000000Y-141000000D03*
X95000000Y-75000000D03*
X89000000Y-76000000D03*
X98000000Y-141000000D03*
X97000000Y-141000000D03*
X106000000Y-59000000D03*
X105000000Y-115000000D03*
X125000000Y-85000000D03*
X100000000Y-80000000D03*
X89000000Y-131000000D03*
X147000000Y-141000000D03*
X89000000Y-122000000D03*
X135000000Y-120000000D03*
X143000000Y-141000000D03*
X89000000Y-77000000D03*
X119000000Y-141000000D03*
X137000000Y-141000000D03*
X89000000Y-113000000D03*
X89000000Y-104000000D03*
X98000000Y-59000000D03*
X135000000Y-80000000D03*
X130000000Y-100000000D03*
X89000000Y-112000000D03*
X120000000Y-90000000D03*
X89000000Y-79000000D03*
X147000000Y-79000000D03*
X134000000Y-59000000D03*
X120000000Y-80000000D03*
X105000000Y-80000000D03*
X144000000Y-141000000D03*
X89000000Y-110000000D03*
X100000000Y-125000000D03*
X123000000Y-59000000D03*
X131000000Y-59000000D03*
X89000000Y-70000000D03*
X89000000Y-66000000D03*
X100000000Y-95000000D03*
X95000000Y-59000000D03*
X105000000Y-141000000D03*
X89000000Y-67000000D03*
X112000000Y-59000000D03*
X89000000Y-109000000D03*
X147000000Y-140000000D03*
X115000000Y-90000000D03*
X92000000Y-141000000D03*
X138000000Y-141000000D03*
X89000000Y-83000000D03*
X140000000Y-120000000D03*
X117000000Y-59000000D03*
X89000000Y-72000000D03*
X138000000Y-59000000D03*
X107000000Y-59000000D03*
X116000000Y-141000000D03*
X89000000Y-141000000D03*
X89000000Y-99000000D03*
X127000000Y-141000000D03*
X105000000Y-75000000D03*
X100000000Y-90000000D03*
X100000000Y-75000000D03*
X114000000Y-141000000D03*
D18*
%TO.N,Net-(AT1-INN)*%
X143000000Y-133000000D03*
X128000000Y-129000000D03*
%TO.N,Net-(AT1-OUTN)*%
X173000000Y-135000000D03*
X157000000Y-135000000D03*
D19*
%TO.N,GND*%
X195000000Y-59000000D03*
X179000000Y-59000000D03*
X211000000Y-121000000D03*
X211000000Y-76000000D03*
X185000000Y-80000000D03*
X190000000Y-85000000D03*
X191000000Y-141000000D03*
X190000000Y-120000000D03*
X175000000Y-59000000D03*
X165000000Y-105000000D03*
X200000000Y-120000000D03*
X190000000Y-75000000D03*
X175000000Y-80000000D03*
X185000000Y-95000000D03*
X211000000Y-72000000D03*
X155000000Y-141000000D03*
X167000000Y-141000000D03*
X165000000Y-100000000D03*
X171000000Y-141000000D03*
X154000000Y-141000000D03*
X154000000Y-98000000D03*
X154000000Y-119000000D03*
X202000000Y-59000000D03*
X211000000Y-109000000D03*
X211000000Y-64000000D03*
X184901431Y-89995688D03*
X173000000Y-59000000D03*
X170000000Y-65000000D03*
X207000000Y-59000000D03*
X211000000Y-99000000D03*
X195000000Y-90000000D03*
X211000000Y-132000000D03*
X211000000Y-68000000D03*
X166000000Y-59000000D03*
X170000000Y-135000000D03*
X175000000Y-85000000D03*
X205000000Y-90000000D03*
X208000000Y-141000000D03*
X184000000Y-59000000D03*
X170000000Y-141000000D03*
X211000000Y-85000000D03*
X154000000Y-140000000D03*
X165000000Y-70000000D03*
X195000000Y-65000000D03*
X211000000Y-117000000D03*
X154000000Y-80000000D03*
X211000000Y-123000000D03*
X211000000Y-124000000D03*
X211000000Y-138000000D03*
X205000000Y-120000000D03*
X165000000Y-110000000D03*
X174000000Y-59000000D03*
X195000000Y-85000000D03*
X208000000Y-59000000D03*
X190000000Y-135000000D03*
X211000000Y-128000000D03*
X211000000Y-94000000D03*
X182000000Y-59000000D03*
X187000000Y-59000000D03*
X185000000Y-59000000D03*
X207000000Y-141000000D03*
X185000000Y-100000000D03*
X185000000Y-141000000D03*
X165000000Y-59000000D03*
X201000000Y-59000000D03*
X211000000Y-136000000D03*
X154000000Y-62000000D03*
X168000000Y-141000000D03*
X211000000Y-111000000D03*
X211000000Y-114000000D03*
X160000000Y-141000000D03*
X194000000Y-59000000D03*
X165000000Y-120000000D03*
X203000000Y-59000000D03*
X211000000Y-82000000D03*
X162000000Y-59000000D03*
X211000000Y-96000000D03*
X197000000Y-141000000D03*
X199988756Y-89968890D03*
X198000000Y-141000000D03*
X154000000Y-61000000D03*
X211000000Y-86000000D03*
X211000000Y-118000000D03*
X154000000Y-100000000D03*
X175000000Y-65000000D03*
X210000000Y-141000000D03*
X185000000Y-110000000D03*
X190000000Y-70000000D03*
X154000000Y-60000000D03*
X195000000Y-70000000D03*
X211000000Y-60000000D03*
X211000000Y-90000000D03*
X170000000Y-100000000D03*
X157000000Y-141000000D03*
X204000000Y-141000000D03*
X200000000Y-141000000D03*
X211000000Y-125000000D03*
X169000000Y-141000000D03*
X165000000Y-90000000D03*
X200000000Y-115000000D03*
X154000000Y-138000000D03*
X165000000Y-80000000D03*
X189000000Y-141000000D03*
X158000000Y-141000000D03*
X176000000Y-59000000D03*
X154000000Y-139000000D03*
X185000000Y-115000000D03*
X200000000Y-59000000D03*
X211000000Y-61000000D03*
X185000000Y-75000000D03*
X202000000Y-141000000D03*
X185000000Y-120000000D03*
X192000000Y-141000000D03*
X154000000Y-59000000D03*
X180000000Y-141000000D03*
X173000000Y-141000000D03*
X200000000Y-125000000D03*
X211000000Y-103000000D03*
X186000000Y-141000000D03*
X211000000Y-78000000D03*
X211000000Y-135000000D03*
X205000000Y-115000000D03*
X154000000Y-120000000D03*
X211000000Y-77000000D03*
X163000000Y-141000000D03*
X211000000Y-84000000D03*
X211000000Y-75000000D03*
X188000000Y-141000000D03*
X211000000Y-95000000D03*
X183000000Y-141000000D03*
X170000000Y-120000000D03*
X165000000Y-65000000D03*
X156000000Y-141000000D03*
X196000000Y-141000000D03*
X181000000Y-59000000D03*
X161000000Y-141000000D03*
X187000000Y-141000000D03*
X165000000Y-125000000D03*
X159000000Y-59000000D03*
X211000000Y-97000000D03*
X195000000Y-115000000D03*
X211000000Y-141000000D03*
X172000000Y-59000000D03*
X211000000Y-120000000D03*
X163000000Y-59000000D03*
X209000000Y-141000000D03*
X184000000Y-141000000D03*
X211000000Y-88000000D03*
X211000000Y-116000000D03*
X211000000Y-106000000D03*
X158000000Y-59000000D03*
X155000000Y-59000000D03*
X211000000Y-80000000D03*
X185000000Y-65000000D03*
X200000000Y-130000000D03*
X211000000Y-79000000D03*
X211000000Y-89000000D03*
X211000000Y-100000000D03*
X211000000Y-83000000D03*
X211000000Y-129000000D03*
X186000000Y-59000000D03*
X211000000Y-69000000D03*
X185000000Y-135000000D03*
X200000000Y-70000000D03*
X170000000Y-59000000D03*
X174000000Y-141000000D03*
X203000000Y-141000000D03*
X165000000Y-85000000D03*
X195000000Y-120000000D03*
X190000000Y-90000000D03*
X175000000Y-105000000D03*
X160000000Y-59000000D03*
X211000000Y-107000000D03*
X195000000Y-141000000D03*
X211000000Y-127000000D03*
X211000000Y-87000000D03*
X185113075Y-69999999D03*
X195000000Y-135000000D03*
X211000000Y-65000000D03*
X211000000Y-62000000D03*
X171000000Y-59000000D03*
X199000000Y-141000000D03*
X195000000Y-75000000D03*
X199000000Y-59000000D03*
X211000000Y-92000000D03*
X153987076Y-78853828D03*
X154000000Y-118000000D03*
X211000000Y-140000000D03*
X211000000Y-70000000D03*
X210000000Y-59000000D03*
X211000000Y-108000000D03*
X211000000Y-73000000D03*
X194000000Y-141000000D03*
X185000000Y-85000000D03*
X211000000Y-67000000D03*
X157000000Y-59000000D03*
X211000000Y-131000000D03*
X190000000Y-59000000D03*
X165000000Y-141000000D03*
X156000000Y-59000000D03*
X190000000Y-65000000D03*
X166000000Y-141000000D03*
X211000000Y-59000000D03*
X154000000Y-81000000D03*
X201000000Y-141000000D03*
X180000000Y-120000000D03*
X211000000Y-98000000D03*
X170000000Y-115000000D03*
X193000000Y-141000000D03*
X170000000Y-95000000D03*
X211000000Y-104000000D03*
X211000000Y-66000000D03*
X205000000Y-70000000D03*
X177000000Y-59000000D03*
X211000000Y-113000000D03*
X211000000Y-122000000D03*
X211000000Y-130000000D03*
X190000000Y-141000000D03*
X211000000Y-134000000D03*
X162000000Y-141000000D03*
X211000000Y-102000000D03*
X154000000Y-99000000D03*
X181000000Y-141000000D03*
X211000000Y-74000000D03*
X205000000Y-141000000D03*
X170000000Y-85000000D03*
X211000000Y-133000000D03*
X164000000Y-141000000D03*
X211000000Y-119000000D03*
X197000000Y-59000000D03*
X192000000Y-59000000D03*
X211000000Y-110000000D03*
X183000000Y-59000000D03*
X211000000Y-112000000D03*
X211000000Y-126000000D03*
X172000000Y-141000000D03*
X211000000Y-115000000D03*
X182000000Y-141000000D03*
X209000000Y-59000000D03*
X211000000Y-101000000D03*
X198000000Y-59000000D03*
X180000000Y-59000000D03*
X188000000Y-59000000D03*
X167000000Y-59000000D03*
X211000000Y-91000000D03*
X154000000Y-137000000D03*
X211000000Y-71000000D03*
X164000000Y-59000000D03*
X180000000Y-65000000D03*
X170000000Y-80000000D03*
X191000000Y-59000000D03*
X211000000Y-139000000D03*
X196000000Y-59000000D03*
X193000000Y-59000000D03*
X211000000Y-81000000D03*
X168000000Y-59000000D03*
X211000000Y-105000000D03*
X159000000Y-141000000D03*
X161000000Y-59000000D03*
X206000000Y-141000000D03*
X211000000Y-63000000D03*
X189000000Y-59000000D03*
X169000000Y-59000000D03*
X190000000Y-125000000D03*
X178000000Y-59000000D03*
X211000000Y-137000000D03*
X211000000Y-93000000D03*
D18*
%TO.N,Net-(AT1-DCDC_OUT)*%
X143000000Y-129000000D03*
X143000000Y-124437500D03*
%TO.N,Net-(AT1-INP)*%
X144000000Y-132125000D03*
X128000000Y-131000000D03*
%TO.N,Net-(AT2-INN)*%
X128000000Y-111000000D03*
X143000000Y-115000000D03*
%TO.N,Net-(AT2-DCDC_IN)*%
X157000000Y-108000000D03*
X157000000Y-112000000D03*
X160000000Y-116000000D03*
%TO.N,Net-(AT2-INP)*%
X128000000Y-113000000D03*
X144000000Y-114000000D03*
%TO.N,Net-(AT2-OUTN)*%
X172000000Y-115000000D03*
X157000000Y-116000000D03*
%TO.N,Net-(AT2-DCDC_OUT)*%
X143495000Y-106000000D03*
X143000000Y-111000000D03*
%TO.N,Net-(AT3-INP)*%
X144000000Y-94187500D03*
X128000000Y-94000000D03*
%TO.N,Net-(AT3-DCDC_IN)*%
X157000000Y-92000000D03*
X159000000Y-96000000D03*
X157000000Y-88000000D03*
%TO.N,Net-(AT3-DCDC_OUT)*%
X143027781Y-91000000D03*
X143000000Y-86000000D03*
%TO.N,Net-(AT3-INN)*%
X144000000Y-96000000D03*
X129000000Y-91000000D03*
%TO.N,Net-(AT3-OUTN)*%
X157000000Y-96000000D03*
X172000000Y-96000000D03*
%TO.N,Net-(AT4-INP)*%
X128000000Y-74000000D03*
X144000000Y-75000000D03*
%TO.N,Net-(AT4-OUTN)*%
X158000000Y-76000000D03*
X172000000Y-77000000D03*
%TO.N,Net-(AT4-DCDC_OUT)*%
X144000000Y-67140000D03*
X144000000Y-71000000D03*
%TO.N,Net-(AT4-DCDC_IN)*%
X160000000Y-75000000D03*
X157000000Y-69000000D03*
X157000000Y-72000000D03*
%TO.N,Net-(AT4-INN)*%
X144000000Y-76500000D03*
X128500000Y-72000000D03*
%TO.N,DC_LINK_BUS_ISOLATED_VSENSE*%
X186565557Y-131934443D03*
X190000000Y-95000000D03*
%TO.N,PHASE_U_ISOLATED_VSENSE*%
X188000000Y-110000000D03*
X186000000Y-111000000D03*
%TO.N,PHASE_V_ISOLATED_VSENSE*%
X186000000Y-99000000D03*
X186000000Y-106000000D03*
%TO.N,PHASE_W_ISOLATED_VSENSE*%
X192000000Y-74000000D03*
X192000000Y-100000000D03*
%TO.N,PHASE_V_VSENSE*%
X110000000Y-96000000D03*
X110000000Y-102500000D03*
%TO.N,PHASE_U_VSENSE*%
X108500000Y-115000000D03*
X108500000Y-97500000D03*
%TO.N,DC_LINK_BUS_VSENSE*%
X107000000Y-92500000D03*
X107000000Y-133500000D03*
%TO.N,PHASE_W_VSENSE*%
X111500000Y-107500000D03*
X111500000Y-76500000D03*
D20*
%TO.N,+3.3V*%
X161000000Y-63000000D03*
D18*
X161000000Y-86500000D03*
X161000000Y-106500000D03*
X161000000Y-126500000D03*
%TD*%
D21*
%TO.N,+5V*%
X191960000Y-122275000D02*
X191960000Y-131040000D01*
X191960000Y-131040000D02*
X191000000Y-132000000D01*
%TO.N,Net-(AT1-DCDC_IN)*%
X159000000Y-136000000D02*
X159000000Y-132000000D01*
X157000000Y-130000000D02*
X157000000Y-126000000D01*
X159000000Y-132000000D02*
X157000000Y-130000000D01*
%TO.N,Net-(AT1-INN)*%
X139000000Y-129000000D02*
X143000000Y-133000000D01*
X128000000Y-129000000D02*
X139000000Y-129000000D01*
%TO.N,Net-(AT1-OUTN)*%
X157000000Y-136000000D02*
X159000000Y-138000000D01*
X157000000Y-135000000D02*
X157000000Y-136000000D01*
X159000000Y-138000000D02*
X170000000Y-138000000D01*
X170000000Y-138000000D02*
X173000000Y-135000000D01*
%TO.N,Net-(AT1-DCDC_OUT)*%
X143000000Y-129000000D02*
X143000000Y-124437500D01*
%TO.N,Net-(AT2-INN)*%
X143000000Y-115000000D02*
X139000000Y-111000000D01*
X139000000Y-111000000D02*
X128000000Y-111000000D01*
%TO.N,Net-(AT2-DCDC_IN)*%
X157000000Y-113000000D02*
X157000000Y-112000000D01*
X160000000Y-116000000D02*
X157000000Y-113000000D01*
X157000000Y-112000000D02*
X157000000Y-108000000D01*
%TO.N,Net-(AT2-OUTN)*%
X172000000Y-115000000D02*
X170000000Y-117000000D01*
X170000000Y-117000000D02*
X158000000Y-117000000D01*
X158000000Y-117000000D02*
X157000000Y-116000000D01*
%TO.N,Net-(AT2-DCDC_OUT)*%
X143000000Y-111000000D02*
X143500000Y-110500000D01*
X143500000Y-110500000D02*
X143500000Y-106005000D01*
X143500000Y-106005000D02*
X143495000Y-106000000D01*
%TO.N,Net-(AT3-DCDC_IN)*%
X157000000Y-92000000D02*
X157000000Y-88000000D01*
X159000000Y-94000000D02*
X157000000Y-92000000D01*
X159000000Y-96000000D02*
X159000000Y-94000000D01*
%TO.N,Net-(AT3-DCDC_OUT)*%
X143027781Y-91000000D02*
X143000000Y-90972219D01*
X143000000Y-90972219D02*
X143000000Y-86000000D01*
%TO.N,Net-(AT3-INN)*%
X129000000Y-91000000D02*
X139000000Y-91000000D01*
X139000000Y-91000000D02*
X144000000Y-96000000D01*
%TO.N,Net-(AT3-OUTN)*%
X170000000Y-97000000D02*
X171000000Y-97000000D01*
X169000000Y-98000000D02*
X170000000Y-97000000D01*
X157000000Y-96000000D02*
X159000000Y-98000000D01*
X159000000Y-98000000D02*
X169000000Y-98000000D01*
X171000000Y-97000000D02*
X172000000Y-96000000D01*
%TO.N,Net-(AT4-OUTN)*%
X159000000Y-77000000D02*
X158000000Y-76000000D01*
X172000000Y-77000000D02*
X159000000Y-77000000D01*
%TO.N,Net-(AT4-DCDC_OUT)*%
X144000000Y-71000000D02*
X144000000Y-67140000D01*
%TO.N,Net-(AT4-DCDC_IN)*%
X157000000Y-72000000D02*
X157000000Y-69000000D01*
X160000000Y-75000000D02*
X157000000Y-72000000D01*
%TO.N,Net-(AT4-INN)*%
X128500000Y-72000000D02*
X139500000Y-72000000D01*
X139500000Y-72000000D02*
X144000000Y-76500000D01*
%TO.N,DC_LINK_BUS_ISOLATED_VSENSE*%
X187000000Y-116500000D02*
X190000000Y-113500000D01*
X187000000Y-131500000D02*
X187000000Y-116500000D01*
X186565557Y-131934443D02*
X187000000Y-131500000D01*
X190000000Y-113500000D02*
X190000000Y-95000000D01*
%TO.N,PHASE_U_ISOLATED_VSENSE*%
X186000000Y-111000000D02*
X187000000Y-111000000D01*
X187000000Y-111000000D02*
X188000000Y-110000000D01*
%TO.N,PHASE_V_ISOLATED_VSENSE*%
X186000000Y-99000000D02*
X186000000Y-106000000D01*
%TO.N,PHASE_W_ISOLATED_VSENSE*%
X192000000Y-74000000D02*
X192000000Y-100000000D01*
%TO.N,PHASE_V_VSENSE*%
X110000000Y-96000000D02*
X110000000Y-102500000D01*
%TO.N,PHASE_U_VSENSE*%
X108500000Y-97500000D02*
X108500000Y-115000000D01*
%TO.N,DC_LINK_BUS_VSENSE*%
X107000000Y-133500000D02*
X107000000Y-92500000D01*
%TO.N,PHASE_W_VSENSE*%
X111500000Y-76500000D02*
X111500000Y-107500000D01*
D22*
%TO.N,+3.3V*%
X203775000Y-122275000D02*
X207000000Y-125500000D01*
X197040000Y-122275000D02*
X203775000Y-122275000D01*
%TD*%
%TA.AperFunction,Conductor*%
%TO.N,GND*%
G36*
X211942539Y-58020185D02*
G01*
X211988294Y-58072989D01*
X211999500Y-58124500D01*
X211999500Y-141875500D01*
X211979815Y-141942539D01*
X211927011Y-141988294D01*
X211875500Y-141999500D01*
X178000538Y-141999500D01*
X177933499Y-141979815D01*
X177887744Y-141927011D01*
X177877800Y-141857853D01*
X177906825Y-141794297D01*
X177938538Y-141768113D01*
X178113803Y-141666924D01*
X178321851Y-141507282D01*
X178321855Y-141507277D01*
X178321860Y-141507274D01*
X178507274Y-141321860D01*
X178507277Y-141321855D01*
X178507282Y-141321851D01*
X178666924Y-141113803D01*
X178798043Y-140886697D01*
X178898398Y-140644419D01*
X178966270Y-140391116D01*
X179000500Y-140131120D01*
X179000500Y-139868880D01*
X178966270Y-139608884D01*
X178898398Y-139355581D01*
X178898394Y-139355571D01*
X178798046Y-139113309D01*
X178798041Y-139113299D01*
X178666924Y-138886196D01*
X178507281Y-138678148D01*
X178507274Y-138678140D01*
X178321860Y-138492726D01*
X178321851Y-138492718D01*
X178113803Y-138333075D01*
X177886700Y-138201958D01*
X177886690Y-138201953D01*
X177644428Y-138101605D01*
X177644421Y-138101603D01*
X177644419Y-138101602D01*
X177391116Y-138033730D01*
X177333339Y-138026123D01*
X177131127Y-137999500D01*
X177131120Y-137999500D01*
X176868880Y-137999500D01*
X176868872Y-137999500D01*
X176637772Y-138029926D01*
X176608884Y-138033730D01*
X176355581Y-138101602D01*
X176355571Y-138101605D01*
X176113309Y-138201953D01*
X176113299Y-138201958D01*
X175886196Y-138333075D01*
X175678148Y-138492718D01*
X175492718Y-138678148D01*
X175333075Y-138886196D01*
X175201958Y-139113299D01*
X175201953Y-139113309D01*
X175101605Y-139355571D01*
X175101602Y-139355581D01*
X175081007Y-139432445D01*
X175033730Y-139608885D01*
X174999500Y-139868872D01*
X174999500Y-140131127D01*
X175009956Y-140210540D01*
X175033730Y-140391116D01*
X175101602Y-140644418D01*
X175101605Y-140644428D01*
X175201953Y-140886690D01*
X175201958Y-140886700D01*
X175333075Y-141113803D01*
X175492718Y-141321851D01*
X175492726Y-141321860D01*
X175678140Y-141507274D01*
X175678148Y-141507281D01*
X175886196Y-141666924D01*
X176061462Y-141768113D01*
X176109677Y-141818680D01*
X176122901Y-141887287D01*
X176096933Y-141952151D01*
X176040019Y-141992680D01*
X175999462Y-141999500D01*
X153124000Y-141999500D01*
X153056961Y-141979815D01*
X153011206Y-141927011D01*
X153000000Y-141875500D01*
X153000000Y-125921153D01*
X156199500Y-125921153D01*
X156199500Y-126078846D01*
X156230261Y-126233489D01*
X156230263Y-126233497D01*
X156240061Y-126257151D01*
X156249500Y-126304604D01*
X156249500Y-129695396D01*
X156240062Y-129742844D01*
X156237306Y-129749500D01*
X156230262Y-129766506D01*
X156230260Y-129766511D01*
X156199500Y-129921153D01*
X156199500Y-130078846D01*
X156230261Y-130233489D01*
X156230264Y-130233501D01*
X156290602Y-130379172D01*
X156290609Y-130379185D01*
X156378210Y-130510288D01*
X156378213Y-130510292D01*
X156489710Y-130621789D01*
X156573491Y-130677769D01*
X156620821Y-130709394D01*
X156644475Y-130719191D01*
X156684703Y-130746071D01*
X157457053Y-131518421D01*
X158213181Y-132274548D01*
X158246666Y-132335871D01*
X158249500Y-132362229D01*
X158249500Y-135695396D01*
X158245870Y-135725181D01*
X158243631Y-135734228D01*
X158230263Y-135766503D01*
X158208203Y-135877400D01*
X158207512Y-135880197D01*
X158191293Y-135907992D01*
X158176374Y-135936515D01*
X158173794Y-135937983D01*
X158172300Y-135940545D01*
X158143640Y-135955154D01*
X158115658Y-135971089D01*
X158112694Y-135970930D01*
X158110052Y-135972277D01*
X158078024Y-135969071D01*
X158045888Y-135967348D01*
X158043069Y-135965572D01*
X158040530Y-135965318D01*
X158032307Y-135958790D01*
X157999461Y-135938093D01*
X157786819Y-135725451D01*
X157753334Y-135664128D01*
X157750500Y-135637770D01*
X157750500Y-135304604D01*
X157759939Y-135257151D01*
X157769737Y-135233497D01*
X157800500Y-135078842D01*
X157800500Y-134921158D01*
X157800500Y-134921155D01*
X157800499Y-134921153D01*
X157769738Y-134766510D01*
X157769737Y-134766503D01*
X157735855Y-134684704D01*
X157709397Y-134620827D01*
X157709390Y-134620814D01*
X157621789Y-134489711D01*
X157621786Y-134489707D01*
X157510292Y-134378213D01*
X157510288Y-134378210D01*
X157379185Y-134290609D01*
X157379172Y-134290602D01*
X157233501Y-134230264D01*
X157233489Y-134230261D01*
X157078845Y-134199500D01*
X157078842Y-134199500D01*
X156921158Y-134199500D01*
X156921155Y-134199500D01*
X156766510Y-134230261D01*
X156766498Y-134230264D01*
X156620827Y-134290602D01*
X156620814Y-134290609D01*
X156489711Y-134378210D01*
X156489707Y-134378213D01*
X156378213Y-134489707D01*
X156378210Y-134489711D01*
X156290609Y-134620814D01*
X156290602Y-134620827D01*
X156230264Y-134766498D01*
X156230261Y-134766510D01*
X156199500Y-134921153D01*
X156199500Y-135078846D01*
X156230261Y-135233489D01*
X156230263Y-135233497D01*
X156240061Y-135257151D01*
X156249500Y-135304604D01*
X156249500Y-136073918D01*
X156249500Y-136073920D01*
X156249499Y-136073920D01*
X156278340Y-136218907D01*
X156278343Y-136218917D01*
X156334914Y-136355491D01*
X156334916Y-136355495D01*
X156350741Y-136379179D01*
X156350740Y-136379179D01*
X156417046Y-136478414D01*
X156417052Y-136478421D01*
X158417049Y-138478416D01*
X158489199Y-138550566D01*
X158521585Y-138582952D01*
X158644498Y-138665080D01*
X158644511Y-138665087D01*
X158781082Y-138721656D01*
X158781087Y-138721658D01*
X158781091Y-138721658D01*
X158781092Y-138721659D01*
X158926079Y-138750500D01*
X158926082Y-138750500D01*
X170073920Y-138750500D01*
X170171462Y-138731096D01*
X170218913Y-138721658D01*
X170355495Y-138665084D01*
X170404729Y-138632186D01*
X170478416Y-138582952D01*
X173315295Y-135746070D01*
X173355519Y-135719193D01*
X173379179Y-135709394D01*
X173510289Y-135621789D01*
X173621789Y-135510289D01*
X173709394Y-135379179D01*
X173769737Y-135233497D01*
X173800500Y-135078842D01*
X173800500Y-134921158D01*
X173800500Y-134921155D01*
X173800499Y-134921153D01*
X173774858Y-134792243D01*
X173770583Y-134770756D01*
X199749500Y-134770756D01*
X199749500Y-135229243D01*
X199789460Y-135685985D01*
X199789460Y-135685987D01*
X199858732Y-136078846D01*
X199869074Y-136137499D01*
X199987739Y-136580360D01*
X199987742Y-136580370D01*
X199987743Y-136580371D01*
X200144546Y-137011189D01*
X200144550Y-137011199D01*
X200338308Y-137426711D01*
X200338313Y-137426721D01*
X200567555Y-137823779D01*
X200567559Y-137823785D01*
X200567566Y-137823796D01*
X200830530Y-138199348D01*
X201043544Y-138453208D01*
X201125237Y-138550566D01*
X201449434Y-138874763D01*
X201463061Y-138886197D01*
X201800651Y-139169469D01*
X202176203Y-139432433D01*
X202176210Y-139432437D01*
X202176221Y-139432445D01*
X202573279Y-139661687D01*
X202573288Y-139661691D01*
X202988800Y-139855449D01*
X202988810Y-139855453D01*
X203188060Y-139927973D01*
X203419640Y-140012261D01*
X203862501Y-140130926D01*
X204314019Y-140210540D01*
X204770756Y-140250499D01*
X204770757Y-140250500D01*
X204770758Y-140250500D01*
X205229243Y-140250500D01*
X205229243Y-140250499D01*
X205685981Y-140210540D01*
X206137499Y-140130926D01*
X206580360Y-140012261D01*
X206945218Y-139879464D01*
X207011189Y-139855453D01*
X207011199Y-139855449D01*
X207149703Y-139790863D01*
X207426721Y-139661687D01*
X207823779Y-139432445D01*
X208199347Y-139169470D01*
X208550566Y-138874763D01*
X208874763Y-138550566D01*
X209169470Y-138199347D01*
X209432445Y-137823779D01*
X209661687Y-137426721D01*
X209855451Y-137011194D01*
X209859330Y-137000538D01*
X209907015Y-136869523D01*
X210012261Y-136580360D01*
X210130926Y-136137499D01*
X210210540Y-135685981D01*
X210250500Y-135229242D01*
X210250500Y-134770758D01*
X210210540Y-134314019D01*
X210130926Y-133862501D01*
X210012261Y-133419640D01*
X209896104Y-133100499D01*
X209855453Y-132988810D01*
X209855449Y-132988800D01*
X209661691Y-132573288D01*
X209661683Y-132573272D01*
X209587470Y-132444732D01*
X209432445Y-132176221D01*
X209432437Y-132176210D01*
X209432433Y-132176203D01*
X209169469Y-131800651D01*
X208963559Y-131555257D01*
X208874763Y-131449434D01*
X208550566Y-131125237D01*
X208451906Y-131042452D01*
X208199348Y-130830530D01*
X207823796Y-130567566D01*
X207823785Y-130567559D01*
X207823779Y-130567555D01*
X207705810Y-130499445D01*
X207426727Y-130338316D01*
X207426711Y-130338308D01*
X207011199Y-130144550D01*
X207011189Y-130144546D01*
X206580371Y-129987743D01*
X206580370Y-129987742D01*
X206580360Y-129987739D01*
X206256165Y-129900870D01*
X206137500Y-129869074D01*
X206137489Y-129869072D01*
X205685986Y-129789460D01*
X205229243Y-129749500D01*
X205229242Y-129749500D01*
X204770758Y-129749500D01*
X204770757Y-129749500D01*
X204314014Y-129789460D01*
X204314012Y-129789460D01*
X203862510Y-129869072D01*
X203862499Y-129869074D01*
X203668122Y-129921158D01*
X203419640Y-129987739D01*
X203419633Y-129987741D01*
X203419628Y-129987743D01*
X202988810Y-130144546D01*
X202988800Y-130144550D01*
X202573288Y-130338308D01*
X202573272Y-130338316D01*
X202176229Y-130567550D01*
X202176203Y-130567566D01*
X201800651Y-130830530D01*
X201449431Y-131125239D01*
X201125239Y-131449431D01*
X200830530Y-131800651D01*
X200567566Y-132176203D01*
X200567550Y-132176229D01*
X200338316Y-132573272D01*
X200338308Y-132573288D01*
X200144550Y-132988800D01*
X200144546Y-132988810D01*
X199987743Y-133419628D01*
X199987740Y-133419638D01*
X199869074Y-133862499D01*
X199869072Y-133862510D01*
X199789460Y-134314012D01*
X199789460Y-134314014D01*
X199749500Y-134770756D01*
X173770583Y-134770756D01*
X173769738Y-134766507D01*
X173769735Y-134766498D01*
X173709397Y-134620827D01*
X173709390Y-134620814D01*
X173621789Y-134489711D01*
X173621786Y-134489707D01*
X173510292Y-134378213D01*
X173510288Y-134378210D01*
X173379185Y-134290609D01*
X173379172Y-134290602D01*
X173233501Y-134230264D01*
X173233489Y-134230261D01*
X173078845Y-134199500D01*
X173078842Y-134199500D01*
X172921158Y-134199500D01*
X172921155Y-134199500D01*
X172766510Y-134230261D01*
X172766498Y-134230264D01*
X172620827Y-134290602D01*
X172620814Y-134290609D01*
X172489711Y-134378210D01*
X172489707Y-134378213D01*
X172378213Y-134489707D01*
X172378207Y-134489715D01*
X172290607Y-134620818D01*
X172290605Y-134620822D01*
X172280805Y-134644480D01*
X172253927Y-134684704D01*
X169725451Y-137213181D01*
X169664128Y-137246666D01*
X169637770Y-137249500D01*
X159362229Y-137249500D01*
X159295190Y-137229815D01*
X159274548Y-137213181D01*
X159061904Y-137000536D01*
X159028420Y-136939215D01*
X159033404Y-136869523D01*
X159075276Y-136813590D01*
X159125395Y-136791240D01*
X159130613Y-136790201D01*
X159233497Y-136769737D01*
X159379179Y-136709394D01*
X159510289Y-136621789D01*
X159621789Y-136510289D01*
X159709394Y-136379179D01*
X159769737Y-136233497D01*
X159800500Y-136078842D01*
X159800500Y-135921158D01*
X159800500Y-135921155D01*
X159800499Y-135921153D01*
X159769739Y-135766511D01*
X159769738Y-135766508D01*
X159769737Y-135766503D01*
X159759937Y-135742844D01*
X159750500Y-135695396D01*
X159750500Y-131926079D01*
X159740081Y-131873701D01*
X159736480Y-131855596D01*
X185765057Y-131855596D01*
X185765057Y-132013289D01*
X185795818Y-132167932D01*
X185795821Y-132167944D01*
X185856159Y-132313615D01*
X185856166Y-132313628D01*
X185943767Y-132444731D01*
X185943770Y-132444735D01*
X186055264Y-132556229D01*
X186055268Y-132556232D01*
X186186371Y-132643833D01*
X186186384Y-132643840D01*
X186332055Y-132704178D01*
X186332060Y-132704180D01*
X186486710Y-132734942D01*
X186486713Y-132734943D01*
X186486715Y-132734943D01*
X186644401Y-132734943D01*
X186644402Y-132734942D01*
X186799054Y-132704180D01*
X186934995Y-132647872D01*
X186944729Y-132643840D01*
X186944729Y-132643839D01*
X186944736Y-132643837D01*
X187075846Y-132556232D01*
X187187346Y-132444732D01*
X187274951Y-132313622D01*
X187284749Y-132289964D01*
X187311624Y-132249741D01*
X187582951Y-131978416D01*
X187665084Y-131855495D01*
X187721658Y-131718913D01*
X187736459Y-131644505D01*
X187750500Y-131573920D01*
X187750500Y-131352135D01*
X189899500Y-131352135D01*
X189899500Y-132647870D01*
X189899501Y-132647876D01*
X189905908Y-132707483D01*
X189956202Y-132842328D01*
X189956206Y-132842335D01*
X190042452Y-132957544D01*
X190042455Y-132957547D01*
X190157664Y-133043793D01*
X190157671Y-133043797D01*
X190292517Y-133094091D01*
X190292516Y-133094091D01*
X190299444Y-133094835D01*
X190352127Y-133100500D01*
X191647872Y-133100499D01*
X191707483Y-133094091D01*
X191842331Y-133043796D01*
X191957546Y-132957546D01*
X192043796Y-132842331D01*
X192094091Y-132707483D01*
X192100500Y-132647873D01*
X192100499Y-132012229D01*
X192120183Y-131945191D01*
X192136818Y-131924549D01*
X192542947Y-131518421D01*
X192542950Y-131518418D01*
X192542950Y-131518417D01*
X192542952Y-131518416D01*
X192604646Y-131426083D01*
X192625084Y-131395495D01*
X192681658Y-131258913D01*
X192708248Y-131125239D01*
X192710500Y-131113920D01*
X192710500Y-123731999D01*
X192730185Y-123664960D01*
X192782989Y-123619205D01*
X192834500Y-123607999D01*
X192840371Y-123607999D01*
X192840372Y-123607999D01*
X192899983Y-123601591D01*
X193034831Y-123551296D01*
X193150046Y-123465046D01*
X193236296Y-123349831D01*
X193286591Y-123214983D01*
X193293000Y-123155373D01*
X193292999Y-122170091D01*
X195707000Y-122170091D01*
X195707000Y-122379908D01*
X195739823Y-122587146D01*
X195804658Y-122786691D01*
X195804659Y-122786694D01*
X195899918Y-122973647D01*
X196023238Y-123143384D01*
X196023242Y-123143389D01*
X196171610Y-123291757D01*
X196171615Y-123291761D01*
X196251548Y-123349835D01*
X196341356Y-123415084D01*
X196439408Y-123465044D01*
X196528305Y-123510340D01*
X196528308Y-123510341D01*
X196628080Y-123542758D01*
X196727855Y-123575177D01*
X196935091Y-123608000D01*
X196935092Y-123608000D01*
X197144908Y-123608000D01*
X197144909Y-123608000D01*
X197352145Y-123575177D01*
X197551694Y-123510340D01*
X197738644Y-123415084D01*
X197828457Y-123349831D01*
X197898171Y-123299182D01*
X197963977Y-123275702D01*
X197971056Y-123275500D01*
X203309218Y-123275500D01*
X203376257Y-123295185D01*
X203396899Y-123311819D01*
X205863181Y-125778102D01*
X205896666Y-125839425D01*
X205899500Y-125865783D01*
X205899500Y-126147869D01*
X205899501Y-126147876D01*
X205905908Y-126207483D01*
X205956202Y-126342328D01*
X205956206Y-126342335D01*
X206042452Y-126457544D01*
X206042455Y-126457547D01*
X206157664Y-126543793D01*
X206157671Y-126543797D01*
X206292517Y-126594091D01*
X206292516Y-126594091D01*
X206299444Y-126594835D01*
X206352127Y-126600500D01*
X207647872Y-126600499D01*
X207707483Y-126594091D01*
X207842331Y-126543796D01*
X207957546Y-126457546D01*
X208043796Y-126342331D01*
X208094091Y-126207483D01*
X208100500Y-126147873D01*
X208100499Y-124852128D01*
X208094091Y-124792517D01*
X208093379Y-124790609D01*
X208043797Y-124657671D01*
X208043793Y-124657664D01*
X207957547Y-124542455D01*
X207957544Y-124542452D01*
X207842335Y-124456206D01*
X207842328Y-124456202D01*
X207707482Y-124405908D01*
X207707483Y-124405908D01*
X207647883Y-124399501D01*
X207647881Y-124399500D01*
X207647873Y-124399500D01*
X207647865Y-124399500D01*
X207365783Y-124399500D01*
X207298744Y-124379815D01*
X207278102Y-124363181D01*
X204559209Y-121644289D01*
X204559206Y-121644285D01*
X204559206Y-121644286D01*
X204552140Y-121637220D01*
X204552139Y-121637218D01*
X204412782Y-121497861D01*
X204276214Y-121406609D01*
X204248919Y-121388371D01*
X204248916Y-121388369D01*
X204248914Y-121388368D01*
X204248911Y-121388366D01*
X204248906Y-121388364D01*
X204127022Y-121337879D01*
X204127020Y-121337878D01*
X204120112Y-121335017D01*
X204066836Y-121312949D01*
X203970188Y-121293724D01*
X203965570Y-121292805D01*
X203965565Y-121292804D01*
X203873544Y-121274500D01*
X203873541Y-121274500D01*
X197971056Y-121274500D01*
X197904017Y-121254815D01*
X197898171Y-121250818D01*
X197738647Y-121134918D01*
X197738646Y-121134917D01*
X197738644Y-121134916D01*
X197678750Y-121104398D01*
X197551694Y-121039659D01*
X197551691Y-121039658D01*
X197352146Y-120974823D01*
X197248527Y-120958411D01*
X197144909Y-120942000D01*
X196935091Y-120942000D01*
X196866012Y-120952941D01*
X196727853Y-120974823D01*
X196528308Y-121039658D01*
X196528305Y-121039659D01*
X196341352Y-121134918D01*
X196171615Y-121258238D01*
X196171610Y-121258242D01*
X196023242Y-121406610D01*
X196023238Y-121406615D01*
X195899918Y-121576352D01*
X195804659Y-121763305D01*
X195804658Y-121763308D01*
X195739823Y-121962853D01*
X195707000Y-122170091D01*
X193292999Y-122170091D01*
X193292999Y-121394628D01*
X193286591Y-121335017D01*
X193281680Y-121321851D01*
X193236297Y-121200171D01*
X193236293Y-121200164D01*
X193150047Y-121084955D01*
X193150044Y-121084952D01*
X193034835Y-120998706D01*
X193034828Y-120998702D01*
X192899982Y-120948408D01*
X192899983Y-120948408D01*
X192840383Y-120942001D01*
X192840381Y-120942000D01*
X192840373Y-120942000D01*
X192840364Y-120942000D01*
X191079629Y-120942000D01*
X191079623Y-120942001D01*
X191020016Y-120948408D01*
X190885171Y-120998702D01*
X190885164Y-120998706D01*
X190769955Y-121084952D01*
X190769952Y-121084955D01*
X190683706Y-121200164D01*
X190683702Y-121200171D01*
X190633408Y-121335017D01*
X190627001Y-121394616D01*
X190627001Y-121394623D01*
X190627000Y-121394635D01*
X190627000Y-123155370D01*
X190627001Y-123155376D01*
X190633408Y-123214983D01*
X190683702Y-123349828D01*
X190683706Y-123349835D01*
X190769952Y-123465044D01*
X190769955Y-123465047D01*
X190885164Y-123551293D01*
X190885171Y-123551297D01*
X191020016Y-123601591D01*
X191079616Y-123607999D01*
X191079618Y-123607999D01*
X191079627Y-123608000D01*
X191085490Y-123607999D01*
X191152528Y-123627676D01*
X191198289Y-123680475D01*
X191209500Y-123731999D01*
X191209500Y-130677769D01*
X191200855Y-130707209D01*
X191194332Y-130737196D01*
X191190577Y-130742211D01*
X191189815Y-130744808D01*
X191173181Y-130765450D01*
X191075450Y-130863181D01*
X191014127Y-130896666D01*
X190987769Y-130899500D01*
X190352129Y-130899500D01*
X190352123Y-130899501D01*
X190292516Y-130905908D01*
X190157671Y-130956202D01*
X190157664Y-130956206D01*
X190042455Y-131042452D01*
X190042452Y-131042455D01*
X189956206Y-131157664D01*
X189956202Y-131157671D01*
X189905908Y-131292517D01*
X189899501Y-131352116D01*
X189899500Y-131352135D01*
X187750500Y-131352135D01*
X187750500Y-116862229D01*
X187770185Y-116795190D01*
X187786819Y-116774548D01*
X189183157Y-115378210D01*
X190582952Y-113978415D01*
X190610205Y-113937627D01*
X190665084Y-113855495D01*
X190688518Y-113798920D01*
X190721659Y-113718912D01*
X190750500Y-113573917D01*
X190750500Y-113426082D01*
X190750500Y-109868872D01*
X198499500Y-109868872D01*
X198499500Y-110131127D01*
X198526123Y-110333339D01*
X198533730Y-110391116D01*
X198601602Y-110644418D01*
X198601605Y-110644428D01*
X198701953Y-110886690D01*
X198701958Y-110886700D01*
X198833075Y-111113803D01*
X198992718Y-111321851D01*
X198992726Y-111321860D01*
X199178140Y-111507274D01*
X199178148Y-111507281D01*
X199178149Y-111507282D01*
X199182068Y-111510289D01*
X199386196Y-111666924D01*
X199613299Y-111798041D01*
X199613309Y-111798046D01*
X199855571Y-111898394D01*
X199855581Y-111898398D01*
X200108884Y-111966270D01*
X200368880Y-112000500D01*
X200368887Y-112000500D01*
X200631113Y-112000500D01*
X200631120Y-112000500D01*
X200891116Y-111966270D01*
X201144419Y-111898398D01*
X201321340Y-111825114D01*
X201386690Y-111798046D01*
X201386691Y-111798045D01*
X201386697Y-111798043D01*
X201613803Y-111666924D01*
X201821851Y-111507282D01*
X201821855Y-111507277D01*
X201821860Y-111507274D01*
X202007274Y-111321860D01*
X202007277Y-111321855D01*
X202007282Y-111321851D01*
X202166924Y-111113803D01*
X202298043Y-110886697D01*
X202398398Y-110644419D01*
X202466270Y-110391116D01*
X202487021Y-110233501D01*
X202489626Y-110213713D01*
X206149500Y-110213713D01*
X206149500Y-110426286D01*
X206180464Y-110621789D01*
X206182754Y-110636243D01*
X206225078Y-110766503D01*
X206248444Y-110838414D01*
X206344951Y-111027820D01*
X206469890Y-111199786D01*
X206620213Y-111350109D01*
X206792179Y-111475048D01*
X206792181Y-111475049D01*
X206792184Y-111475051D01*
X206981588Y-111571557D01*
X207183757Y-111637246D01*
X207393713Y-111670500D01*
X207393714Y-111670500D01*
X207606286Y-111670500D01*
X207606287Y-111670500D01*
X207816243Y-111637246D01*
X208018412Y-111571557D01*
X208207816Y-111475051D01*
X208229789Y-111459086D01*
X208379786Y-111350109D01*
X208379788Y-111350106D01*
X208379792Y-111350104D01*
X208530104Y-111199792D01*
X208530106Y-111199788D01*
X208530109Y-111199786D01*
X208655048Y-111027820D01*
X208655047Y-111027820D01*
X208655051Y-111027816D01*
X208751557Y-110838412D01*
X208817246Y-110636243D01*
X208850500Y-110426287D01*
X208850500Y-110213713D01*
X208817246Y-110003757D01*
X208751557Y-109801588D01*
X208655051Y-109612184D01*
X208655049Y-109612181D01*
X208655048Y-109612179D01*
X208530109Y-109440213D01*
X208379786Y-109289890D01*
X208207820Y-109164951D01*
X208018414Y-109068444D01*
X208018413Y-109068443D01*
X208018412Y-109068443D01*
X207816243Y-109002754D01*
X207816241Y-109002753D01*
X207816240Y-109002753D01*
X207654957Y-108977208D01*
X207606287Y-108969500D01*
X207393713Y-108969500D01*
X207345042Y-108977208D01*
X207183760Y-109002753D01*
X206981585Y-109068444D01*
X206792179Y-109164951D01*
X206620213Y-109289890D01*
X206469890Y-109440213D01*
X206344951Y-109612179D01*
X206248444Y-109801585D01*
X206182753Y-110003760D01*
X206149500Y-110213713D01*
X202489626Y-110213713D01*
X202492399Y-110192655D01*
X202492399Y-110192654D01*
X202494939Y-110173353D01*
X202500500Y-110131120D01*
X202500500Y-109868880D01*
X202466270Y-109608884D01*
X202398398Y-109355581D01*
X202371486Y-109290609D01*
X202298046Y-109113309D01*
X202298041Y-109113299D01*
X202166924Y-108886196D01*
X202007281Y-108678148D01*
X202007274Y-108678140D01*
X201821860Y-108492726D01*
X201821851Y-108492718D01*
X201613803Y-108333075D01*
X201386700Y-108201958D01*
X201386690Y-108201953D01*
X201144428Y-108101605D01*
X201144421Y-108101603D01*
X201144419Y-108101602D01*
X200891116Y-108033730D01*
X200833339Y-108026123D01*
X200631127Y-107999500D01*
X200631120Y-107999500D01*
X200368880Y-107999500D01*
X200368872Y-107999500D01*
X200137772Y-108029926D01*
X200108884Y-108033730D01*
X199940508Y-108078846D01*
X199855581Y-108101602D01*
X199855571Y-108101605D01*
X199613309Y-108201953D01*
X199613299Y-108201958D01*
X199386196Y-108333075D01*
X199178148Y-108492718D01*
X198992718Y-108678148D01*
X198833075Y-108886196D01*
X198701958Y-109113299D01*
X198701953Y-109113309D01*
X198601605Y-109355571D01*
X198601602Y-109355581D01*
X198533730Y-109608884D01*
X198532158Y-109620827D01*
X198499500Y-109868872D01*
X190750500Y-109868872D01*
X190750500Y-105368872D01*
X193999500Y-105368872D01*
X193999500Y-105631127D01*
X194026123Y-105833339D01*
X194033730Y-105891116D01*
X194095277Y-106120814D01*
X194101602Y-106144418D01*
X194101605Y-106144428D01*
X194201953Y-106386690D01*
X194201958Y-106386700D01*
X194333075Y-106613803D01*
X194492718Y-106821851D01*
X194492726Y-106821860D01*
X194678140Y-107007274D01*
X194678148Y-107007281D01*
X194678149Y-107007282D01*
X194682068Y-107010289D01*
X194886196Y-107166924D01*
X195113299Y-107298041D01*
X195113309Y-107298046D01*
X195306845Y-107378211D01*
X195355581Y-107398398D01*
X195608884Y-107466270D01*
X195868880Y-107500500D01*
X195868887Y-107500500D01*
X196131113Y-107500500D01*
X196131120Y-107500500D01*
X196391116Y-107466270D01*
X196644419Y-107398398D01*
X196821340Y-107325114D01*
X196886690Y-107298046D01*
X196886691Y-107298045D01*
X196886697Y-107298043D01*
X197113803Y-107166924D01*
X197321851Y-107007282D01*
X197321855Y-107007277D01*
X197321860Y-107007274D01*
X197507274Y-106821860D01*
X197507277Y-106821855D01*
X197507282Y-106821851D01*
X197666924Y-106613803D01*
X197798043Y-106386697D01*
X197898398Y-106144419D01*
X197966270Y-105891116D01*
X198000500Y-105631120D01*
X198000500Y-105368880D01*
X197997525Y-105346287D01*
X197971028Y-105145027D01*
X197971028Y-105145026D01*
X197969538Y-105133713D01*
X206149500Y-105133713D01*
X206149500Y-105346287D01*
X206182754Y-105556243D01*
X206229301Y-105699500D01*
X206248444Y-105758414D01*
X206344951Y-105947820D01*
X206469890Y-106119786D01*
X206620213Y-106270109D01*
X206792179Y-106395048D01*
X206792181Y-106395049D01*
X206792184Y-106395051D01*
X206981588Y-106491557D01*
X207183757Y-106557246D01*
X207393713Y-106590500D01*
X207393714Y-106590500D01*
X207606286Y-106590500D01*
X207606287Y-106590500D01*
X207816243Y-106557246D01*
X208018412Y-106491557D01*
X208207816Y-106395051D01*
X208229789Y-106379086D01*
X208379786Y-106270109D01*
X208379788Y-106270106D01*
X208379792Y-106270104D01*
X208530104Y-106119792D01*
X208530106Y-106119788D01*
X208530109Y-106119786D01*
X208655048Y-105947820D01*
X208655047Y-105947820D01*
X208655051Y-105947816D01*
X208751557Y-105758412D01*
X208817246Y-105556243D01*
X208850500Y-105346287D01*
X208850500Y-105133713D01*
X208817246Y-104923757D01*
X208751557Y-104721588D01*
X208655051Y-104532184D01*
X208655049Y-104532181D01*
X208655048Y-104532179D01*
X208530109Y-104360213D01*
X208379786Y-104209890D01*
X208207820Y-104084951D01*
X208018414Y-103988444D01*
X208018413Y-103988443D01*
X208018412Y-103988443D01*
X207816243Y-103922754D01*
X207816241Y-103922753D01*
X207816240Y-103922753D01*
X207654957Y-103897208D01*
X207606287Y-103889500D01*
X207393713Y-103889500D01*
X207345042Y-103897208D01*
X207183760Y-103922753D01*
X206981585Y-103988444D01*
X206792179Y-104084951D01*
X206620213Y-104209890D01*
X206469890Y-104360213D01*
X206344951Y-104532179D01*
X206248444Y-104721585D01*
X206182753Y-104923760D01*
X206153432Y-105108885D01*
X206149500Y-105133713D01*
X197969538Y-105133713D01*
X197969196Y-105131113D01*
X197966270Y-105108884D01*
X197898398Y-104855581D01*
X197898394Y-104855571D01*
X197798046Y-104613309D01*
X197798041Y-104613299D01*
X197666924Y-104386196D01*
X197544424Y-104226554D01*
X197507282Y-104178149D01*
X197507281Y-104178148D01*
X197507274Y-104178140D01*
X197321860Y-103992726D01*
X197321851Y-103992718D01*
X197113803Y-103833075D01*
X196886700Y-103701958D01*
X196886690Y-103701953D01*
X196644428Y-103601605D01*
X196644421Y-103601603D01*
X196644419Y-103601602D01*
X196391116Y-103533730D01*
X196333339Y-103526123D01*
X196131127Y-103499500D01*
X196131120Y-103499500D01*
X195868880Y-103499500D01*
X195868872Y-103499500D01*
X195637772Y-103529926D01*
X195608884Y-103533730D01*
X195355581Y-103601602D01*
X195355571Y-103601605D01*
X195113309Y-103701953D01*
X195113299Y-103701958D01*
X194886196Y-103833075D01*
X194678148Y-103992718D01*
X194492718Y-104178148D01*
X194333075Y-104386196D01*
X194201958Y-104613299D01*
X194201953Y-104613309D01*
X194101605Y-104855571D01*
X194101602Y-104855581D01*
X194033730Y-105108885D01*
X193999500Y-105368872D01*
X190750500Y-105368872D01*
X190750500Y-95304604D01*
X190759939Y-95257151D01*
X190769737Y-95233497D01*
X190800500Y-95078842D01*
X190800500Y-94921158D01*
X190800500Y-94921155D01*
X190800499Y-94921153D01*
X190790101Y-94868880D01*
X190769737Y-94766503D01*
X190768600Y-94763757D01*
X190709397Y-94620827D01*
X190709390Y-94620814D01*
X190621789Y-94489711D01*
X190621786Y-94489707D01*
X190510292Y-94378213D01*
X190510288Y-94378210D01*
X190379185Y-94290609D01*
X190379172Y-94290602D01*
X190233501Y-94230264D01*
X190233489Y-94230261D01*
X190078845Y-94199500D01*
X190078842Y-94199500D01*
X189921158Y-94199500D01*
X189921155Y-94199500D01*
X189766510Y-94230261D01*
X189766498Y-94230264D01*
X189620827Y-94290602D01*
X189620814Y-94290609D01*
X189489711Y-94378210D01*
X189489707Y-94378213D01*
X189378213Y-94489707D01*
X189378210Y-94489711D01*
X189290609Y-94620814D01*
X189290602Y-94620827D01*
X189230264Y-94766498D01*
X189230261Y-94766510D01*
X189199500Y-94921153D01*
X189199500Y-95078846D01*
X189230261Y-95233489D01*
X189230263Y-95233497D01*
X189240061Y-95257151D01*
X189249500Y-95304604D01*
X189249500Y-113137769D01*
X189229815Y-113204808D01*
X189213181Y-113225450D01*
X186417050Y-116021580D01*
X186417044Y-116021588D01*
X186367812Y-116095268D01*
X186367813Y-116095269D01*
X186334921Y-116144496D01*
X186334914Y-116144508D01*
X186278342Y-116281086D01*
X186278340Y-116281092D01*
X186249500Y-116426079D01*
X186249500Y-131116986D01*
X186229815Y-131184025D01*
X186190521Y-131220285D01*
X186191443Y-131221664D01*
X186055268Y-131312653D01*
X186055264Y-131312656D01*
X185943770Y-131424150D01*
X185943767Y-131424154D01*
X185856166Y-131555257D01*
X185856159Y-131555270D01*
X185795821Y-131700941D01*
X185795818Y-131700953D01*
X185765057Y-131855596D01*
X159736480Y-131855596D01*
X159721659Y-131781092D01*
X159721658Y-131781091D01*
X159721658Y-131781087D01*
X159721656Y-131781082D01*
X159665087Y-131644511D01*
X159665080Y-131644498D01*
X159582952Y-131521585D01*
X159579783Y-131518416D01*
X159478416Y-131417049D01*
X158683156Y-130621789D01*
X157786819Y-129725451D01*
X157753334Y-129664128D01*
X157750500Y-129637770D01*
X157750500Y-126421153D01*
X160199500Y-126421153D01*
X160199500Y-126578846D01*
X160230261Y-126733489D01*
X160230264Y-126733501D01*
X160290602Y-126879172D01*
X160290609Y-126879185D01*
X160378210Y-127010288D01*
X160378213Y-127010292D01*
X160489707Y-127121786D01*
X160489711Y-127121789D01*
X160620814Y-127209390D01*
X160620827Y-127209397D01*
X160766498Y-127269735D01*
X160766503Y-127269737D01*
X160921153Y-127300499D01*
X160921156Y-127300500D01*
X160921158Y-127300500D01*
X161078844Y-127300500D01*
X161078845Y-127300499D01*
X161233497Y-127269737D01*
X161379179Y-127209394D01*
X161510289Y-127121789D01*
X161621789Y-127010289D01*
X161709394Y-126879179D01*
X161769737Y-126733497D01*
X161800500Y-126578842D01*
X161800500Y-126421158D01*
X161800500Y-126421155D01*
X161800499Y-126421153D01*
X161784820Y-126342331D01*
X161769737Y-126266503D01*
X161746080Y-126209390D01*
X161709397Y-126120827D01*
X161709390Y-126120814D01*
X161621789Y-125989711D01*
X161621786Y-125989707D01*
X161510292Y-125878213D01*
X161510288Y-125878210D01*
X161379185Y-125790609D01*
X161379172Y-125790602D01*
X161233501Y-125730264D01*
X161233489Y-125730261D01*
X161078845Y-125699500D01*
X161078842Y-125699500D01*
X160921158Y-125699500D01*
X160921155Y-125699500D01*
X160766510Y-125730261D01*
X160766498Y-125730264D01*
X160620827Y-125790602D01*
X160620814Y-125790609D01*
X160489711Y-125878210D01*
X160489707Y-125878213D01*
X160378213Y-125989707D01*
X160378210Y-125989711D01*
X160290609Y-126120814D01*
X160290602Y-126120827D01*
X160230264Y-126266498D01*
X160230261Y-126266510D01*
X160199500Y-126421153D01*
X157750500Y-126421153D01*
X157750500Y-126304604D01*
X157759939Y-126257151D01*
X157769737Y-126233497D01*
X157800500Y-126078842D01*
X157800500Y-125921158D01*
X157800500Y-125921155D01*
X157800499Y-125921153D01*
X157784242Y-125839425D01*
X157769737Y-125766503D01*
X157756062Y-125733489D01*
X157709397Y-125620827D01*
X157709390Y-125620814D01*
X157621789Y-125489711D01*
X157621786Y-125489707D01*
X157510292Y-125378213D01*
X157510288Y-125378210D01*
X157379185Y-125290609D01*
X157379172Y-125290602D01*
X157233501Y-125230264D01*
X157233489Y-125230261D01*
X157078845Y-125199500D01*
X157078842Y-125199500D01*
X156921158Y-125199500D01*
X156921155Y-125199500D01*
X156766510Y-125230261D01*
X156766498Y-125230264D01*
X156620827Y-125290602D01*
X156620814Y-125290609D01*
X156489711Y-125378210D01*
X156489707Y-125378213D01*
X156378213Y-125489707D01*
X156378210Y-125489711D01*
X156290609Y-125620814D01*
X156290602Y-125620827D01*
X156230264Y-125766498D01*
X156230261Y-125766510D01*
X156199500Y-125921153D01*
X153000000Y-125921153D01*
X153000000Y-124868872D01*
X169999500Y-124868872D01*
X169999500Y-125131127D01*
X170026123Y-125333339D01*
X170033730Y-125391116D01*
X170084032Y-125578846D01*
X170101602Y-125644418D01*
X170101605Y-125644428D01*
X170201953Y-125886690D01*
X170201958Y-125886700D01*
X170333075Y-126113803D01*
X170492718Y-126321851D01*
X170492726Y-126321860D01*
X170678140Y-126507274D01*
X170678148Y-126507281D01*
X170886196Y-126666924D01*
X171113299Y-126798041D01*
X171113309Y-126798046D01*
X171355571Y-126898394D01*
X171355581Y-126898398D01*
X171608884Y-126966270D01*
X171868880Y-127000500D01*
X171868887Y-127000500D01*
X172131113Y-127000500D01*
X172131120Y-127000500D01*
X172391116Y-126966270D01*
X172644419Y-126898398D01*
X172886697Y-126798043D01*
X173113803Y-126666924D01*
X173321851Y-126507282D01*
X173321855Y-126507277D01*
X173321860Y-126507274D01*
X173507274Y-126321860D01*
X173507277Y-126321855D01*
X173507282Y-126321851D01*
X173666924Y-126113803D01*
X173798043Y-125886697D01*
X173801559Y-125878210D01*
X173861499Y-125733501D01*
X173898398Y-125644419D01*
X173958222Y-125421153D01*
X184199500Y-125421153D01*
X184199500Y-125578846D01*
X184230261Y-125733489D01*
X184230264Y-125733501D01*
X184290602Y-125879172D01*
X184290609Y-125879185D01*
X184378210Y-126010288D01*
X184378213Y-126010292D01*
X184489707Y-126121786D01*
X184489711Y-126121789D01*
X184620814Y-126209390D01*
X184620827Y-126209397D01*
X184736117Y-126257151D01*
X184766503Y-126269737D01*
X184921153Y-126300499D01*
X184921156Y-126300500D01*
X184921158Y-126300500D01*
X185078844Y-126300500D01*
X185078845Y-126300499D01*
X185233497Y-126269737D01*
X185379179Y-126209394D01*
X185510289Y-126121789D01*
X185621789Y-126010289D01*
X185709394Y-125879179D01*
X185769737Y-125733497D01*
X185800500Y-125578842D01*
X185800500Y-125421158D01*
X185800500Y-125421155D01*
X185800499Y-125421153D01*
X185774531Y-125290606D01*
X185769737Y-125266503D01*
X185769735Y-125266498D01*
X185709397Y-125120827D01*
X185709390Y-125120814D01*
X185621789Y-124989711D01*
X185621786Y-124989707D01*
X185510292Y-124878213D01*
X185510288Y-124878210D01*
X185379185Y-124790609D01*
X185379172Y-124790602D01*
X185233501Y-124730264D01*
X185233489Y-124730261D01*
X185078845Y-124699500D01*
X185078842Y-124699500D01*
X184921158Y-124699500D01*
X184921155Y-124699500D01*
X184766510Y-124730261D01*
X184766498Y-124730264D01*
X184620827Y-124790602D01*
X184620814Y-124790609D01*
X184489711Y-124878210D01*
X184489707Y-124878213D01*
X184378213Y-124989707D01*
X184378210Y-124989711D01*
X184290609Y-125120814D01*
X184290602Y-125120827D01*
X184230264Y-125266498D01*
X184230261Y-125266510D01*
X184199500Y-125421153D01*
X173958222Y-125421153D01*
X173966270Y-125391116D01*
X174000500Y-125131120D01*
X174000500Y-124868880D01*
X173966270Y-124608884D01*
X173898398Y-124355581D01*
X173898394Y-124355571D01*
X173798046Y-124113309D01*
X173798041Y-124113299D01*
X173666924Y-123886196D01*
X173507281Y-123678148D01*
X173507274Y-123678140D01*
X173321860Y-123492726D01*
X173321851Y-123492718D01*
X173113803Y-123333075D01*
X172886700Y-123201958D01*
X172886690Y-123201953D01*
X172644428Y-123101605D01*
X172644421Y-123101603D01*
X172644419Y-123101602D01*
X172391116Y-123033730D01*
X172333339Y-123026123D01*
X172131127Y-122999500D01*
X172131120Y-122999500D01*
X171868880Y-122999500D01*
X171868872Y-122999500D01*
X171637772Y-123029926D01*
X171608884Y-123033730D01*
X171355581Y-123101602D01*
X171355571Y-123101605D01*
X171113309Y-123201953D01*
X171113299Y-123201958D01*
X170886196Y-123333075D01*
X170678148Y-123492718D01*
X170492718Y-123678148D01*
X170333075Y-123886196D01*
X170201958Y-124113299D01*
X170201953Y-124113309D01*
X170101605Y-124355571D01*
X170101602Y-124355581D01*
X170051531Y-124542452D01*
X170033730Y-124608885D01*
X169999500Y-124868872D01*
X153000000Y-124868872D01*
X153000000Y-119868872D01*
X174999500Y-119868872D01*
X174999500Y-120131127D01*
X175026123Y-120333339D01*
X175033730Y-120391116D01*
X175101602Y-120644418D01*
X175101605Y-120644428D01*
X175201953Y-120886690D01*
X175201958Y-120886700D01*
X175333075Y-121113803D01*
X175492718Y-121321851D01*
X175492726Y-121321860D01*
X175678140Y-121507274D01*
X175678148Y-121507281D01*
X175886196Y-121666924D01*
X176113299Y-121798041D01*
X176113309Y-121798046D01*
X176355571Y-121898394D01*
X176355581Y-121898398D01*
X176608884Y-121966270D01*
X176868880Y-122000500D01*
X176868887Y-122000500D01*
X177131113Y-122000500D01*
X177131120Y-122000500D01*
X177391116Y-121966270D01*
X177644419Y-121898398D01*
X177886697Y-121798043D01*
X178113803Y-121666924D01*
X178321851Y-121507282D01*
X178321855Y-121507277D01*
X178321860Y-121507274D01*
X178507274Y-121321860D01*
X178507277Y-121321855D01*
X178507282Y-121321851D01*
X178666924Y-121113803D01*
X178798043Y-120886697D01*
X178898398Y-120644419D01*
X178966270Y-120391116D01*
X179000500Y-120131120D01*
X179000500Y-119868880D01*
X178966270Y-119608884D01*
X178898398Y-119355581D01*
X178898394Y-119355571D01*
X178798046Y-119113309D01*
X178798041Y-119113299D01*
X178666924Y-118886196D01*
X178507281Y-118678148D01*
X178507274Y-118678140D01*
X178321860Y-118492726D01*
X178321851Y-118492718D01*
X178113803Y-118333075D01*
X177886700Y-118201958D01*
X177886690Y-118201953D01*
X177644428Y-118101605D01*
X177644421Y-118101603D01*
X177644419Y-118101602D01*
X177391116Y-118033730D01*
X177333339Y-118026123D01*
X177131127Y-117999500D01*
X177131120Y-117999500D01*
X176868880Y-117999500D01*
X176868872Y-117999500D01*
X176637772Y-118029926D01*
X176608884Y-118033730D01*
X176355581Y-118101602D01*
X176355571Y-118101605D01*
X176113309Y-118201953D01*
X176113299Y-118201958D01*
X175886196Y-118333075D01*
X175678148Y-118492718D01*
X175492718Y-118678148D01*
X175333075Y-118886196D01*
X175201958Y-119113299D01*
X175201953Y-119113309D01*
X175101605Y-119355571D01*
X175101602Y-119355581D01*
X175033730Y-119608885D01*
X174999500Y-119868872D01*
X153000000Y-119868872D01*
X153000000Y-107921153D01*
X156199500Y-107921153D01*
X156199500Y-108078846D01*
X156230261Y-108233489D01*
X156230263Y-108233497D01*
X156240061Y-108257151D01*
X156249500Y-108304604D01*
X156249500Y-111695396D01*
X156240062Y-111742844D01*
X156230263Y-111766503D01*
X156230262Y-111766506D01*
X156230260Y-111766511D01*
X156199500Y-111921153D01*
X156199500Y-112078846D01*
X156230261Y-112233489D01*
X156230263Y-112233497D01*
X156240061Y-112257151D01*
X156249500Y-112304604D01*
X156249500Y-113073918D01*
X156249500Y-113073920D01*
X156249499Y-113073920D01*
X156278340Y-113218907D01*
X156278343Y-113218917D01*
X156334914Y-113355492D01*
X156367812Y-113404727D01*
X156367813Y-113404730D01*
X156417046Y-113478414D01*
X156417052Y-113478421D01*
X158976452Y-116037819D01*
X159009937Y-116099142D01*
X159004953Y-116168834D01*
X158963081Y-116224767D01*
X158897617Y-116249184D01*
X158888771Y-116249500D01*
X158362229Y-116249500D01*
X158295190Y-116229815D01*
X158274548Y-116213181D01*
X157746071Y-115684703D01*
X157719191Y-115644475D01*
X157709394Y-115620821D01*
X157635539Y-115510289D01*
X157621789Y-115489710D01*
X157510292Y-115378213D01*
X157510288Y-115378210D01*
X157379185Y-115290609D01*
X157379172Y-115290602D01*
X157233501Y-115230264D01*
X157233489Y-115230261D01*
X157078845Y-115199500D01*
X157078842Y-115199500D01*
X156921158Y-115199500D01*
X156921155Y-115199500D01*
X156766510Y-115230261D01*
X156766498Y-115230264D01*
X156620827Y-115290602D01*
X156620814Y-115290609D01*
X156489711Y-115378210D01*
X156489707Y-115378213D01*
X156378213Y-115489707D01*
X156378210Y-115489711D01*
X156290609Y-115620814D01*
X156290602Y-115620827D01*
X156230264Y-115766498D01*
X156230261Y-115766510D01*
X156199500Y-115921153D01*
X156199500Y-116078846D01*
X156230261Y-116233489D01*
X156230264Y-116233501D01*
X156290602Y-116379172D01*
X156290609Y-116379185D01*
X156378210Y-116510288D01*
X156378213Y-116510292D01*
X156489710Y-116621789D01*
X156620815Y-116709390D01*
X156620821Y-116709394D01*
X156644475Y-116719191D01*
X156684703Y-116746071D01*
X157417049Y-117478416D01*
X157521584Y-117582951D01*
X157521587Y-117582953D01*
X157521588Y-117582954D01*
X157644503Y-117665083D01*
X157644506Y-117665085D01*
X157694665Y-117685861D01*
X157701080Y-117688518D01*
X157781088Y-117721659D01*
X157897241Y-117744763D01*
X157920380Y-117749365D01*
X157926081Y-117750500D01*
X157926082Y-117750500D01*
X170073920Y-117750500D01*
X170171462Y-117731096D01*
X170218913Y-117721658D01*
X170355495Y-117665084D01*
X170404729Y-117632186D01*
X170478416Y-117582952D01*
X172315295Y-115746070D01*
X172355519Y-115719193D01*
X172379179Y-115709394D01*
X172510289Y-115621789D01*
X172621789Y-115510289D01*
X172709394Y-115379179D01*
X172769737Y-115233497D01*
X172800500Y-115078842D01*
X172800500Y-114921158D01*
X172800500Y-114921155D01*
X172800499Y-114921153D01*
X172769738Y-114766510D01*
X172769737Y-114766503D01*
X172735855Y-114684704D01*
X172709397Y-114620827D01*
X172709390Y-114620814D01*
X172621789Y-114489711D01*
X172621786Y-114489707D01*
X172510292Y-114378213D01*
X172510288Y-114378210D01*
X172379185Y-114290609D01*
X172379172Y-114290602D01*
X172233501Y-114230264D01*
X172233489Y-114230261D01*
X172078845Y-114199500D01*
X172078842Y-114199500D01*
X171921158Y-114199500D01*
X171921155Y-114199500D01*
X171766510Y-114230261D01*
X171766498Y-114230264D01*
X171620827Y-114290602D01*
X171620814Y-114290609D01*
X171489711Y-114378210D01*
X171489707Y-114378213D01*
X171378213Y-114489707D01*
X171378207Y-114489715D01*
X171290607Y-114620818D01*
X171290605Y-114620822D01*
X171280805Y-114644480D01*
X171253927Y-114684704D01*
X169725451Y-116213181D01*
X169664128Y-116246666D01*
X169637770Y-116249500D01*
X160917649Y-116249500D01*
X160850610Y-116229815D01*
X160804855Y-116177011D01*
X160794911Y-116107853D01*
X160796031Y-116101310D01*
X160800500Y-116078841D01*
X160800500Y-115921155D01*
X160800499Y-115921153D01*
X160769738Y-115766510D01*
X160769737Y-115766503D01*
X160754050Y-115728631D01*
X160709397Y-115620827D01*
X160709390Y-115620814D01*
X160621789Y-115489711D01*
X160621786Y-115489707D01*
X160510292Y-115378213D01*
X160510288Y-115378210D01*
X160379185Y-115290609D01*
X160379180Y-115290607D01*
X160379179Y-115290606D01*
X160355519Y-115280805D01*
X160315293Y-115253926D01*
X157786819Y-112725451D01*
X157753334Y-112664128D01*
X157750500Y-112637770D01*
X157750500Y-112304604D01*
X157759939Y-112257151D01*
X157769737Y-112233497D01*
X157800500Y-112078842D01*
X157800500Y-111921158D01*
X157800500Y-111921155D01*
X157800499Y-111921153D01*
X157769739Y-111766511D01*
X157769738Y-111766508D01*
X157769737Y-111766503D01*
X157759937Y-111742844D01*
X157750500Y-111695396D01*
X157750500Y-110921153D01*
X185199500Y-110921153D01*
X185199500Y-111078846D01*
X185230261Y-111233489D01*
X185230264Y-111233501D01*
X185290602Y-111379172D01*
X185290609Y-111379185D01*
X185378210Y-111510288D01*
X185378213Y-111510292D01*
X185489707Y-111621786D01*
X185489711Y-111621789D01*
X185620814Y-111709390D01*
X185620827Y-111709397D01*
X185766498Y-111769735D01*
X185766503Y-111769737D01*
X185908796Y-111798041D01*
X185921153Y-111800499D01*
X185921156Y-111800500D01*
X185921158Y-111800500D01*
X186078844Y-111800500D01*
X186078845Y-111800499D01*
X186155152Y-111785320D01*
X186233488Y-111769739D01*
X186233489Y-111769738D01*
X186233497Y-111769737D01*
X186257155Y-111759937D01*
X186304604Y-111750500D01*
X187073920Y-111750500D01*
X187171462Y-111731096D01*
X187218913Y-111721658D01*
X187355495Y-111665084D01*
X187420291Y-111621789D01*
X187420294Y-111621786D01*
X187420296Y-111621786D01*
X187449547Y-111602240D01*
X187478416Y-111582952D01*
X188315297Y-110746069D01*
X188355522Y-110719192D01*
X188379179Y-110709394D01*
X188510289Y-110621789D01*
X188621789Y-110510289D01*
X188709394Y-110379179D01*
X188769737Y-110233497D01*
X188800500Y-110078842D01*
X188800500Y-109921158D01*
X188800500Y-109921155D01*
X188800499Y-109921153D01*
X188790101Y-109868880D01*
X188769737Y-109766503D01*
X188719194Y-109644480D01*
X188709397Y-109620827D01*
X188709390Y-109620814D01*
X188621789Y-109489711D01*
X188621786Y-109489707D01*
X188510292Y-109378213D01*
X188510288Y-109378210D01*
X188379185Y-109290609D01*
X188379172Y-109290602D01*
X188233501Y-109230264D01*
X188233489Y-109230261D01*
X188078845Y-109199500D01*
X188078842Y-109199500D01*
X187921158Y-109199500D01*
X187921155Y-109199500D01*
X187766510Y-109230261D01*
X187766498Y-109230264D01*
X187620827Y-109290602D01*
X187620814Y-109290609D01*
X187489711Y-109378210D01*
X187489707Y-109378213D01*
X187378213Y-109489707D01*
X187378207Y-109489715D01*
X187290607Y-109620818D01*
X187290606Y-109620819D01*
X187280805Y-109644480D01*
X187253927Y-109684703D01*
X186725451Y-110213181D01*
X186664128Y-110246666D01*
X186637770Y-110249500D01*
X186304604Y-110249500D01*
X186257155Y-110240062D01*
X186233497Y-110230263D01*
X186233493Y-110230262D01*
X186233488Y-110230260D01*
X186078845Y-110199500D01*
X186078842Y-110199500D01*
X185921158Y-110199500D01*
X185921155Y-110199500D01*
X185766510Y-110230261D01*
X185766498Y-110230264D01*
X185620827Y-110290602D01*
X185620814Y-110290609D01*
X185489711Y-110378210D01*
X185489707Y-110378213D01*
X185378213Y-110489707D01*
X185378210Y-110489711D01*
X185290609Y-110620814D01*
X185290602Y-110620827D01*
X185230264Y-110766498D01*
X185230261Y-110766510D01*
X185199500Y-110921153D01*
X157750500Y-110921153D01*
X157750500Y-108304604D01*
X157759939Y-108257151D01*
X157769737Y-108233497D01*
X157800500Y-108078842D01*
X157800500Y-107921158D01*
X157800500Y-107921155D01*
X157800499Y-107921153D01*
X157769738Y-107766510D01*
X157769737Y-107766503D01*
X157769735Y-107766498D01*
X157709397Y-107620827D01*
X157709390Y-107620814D01*
X157621789Y-107489711D01*
X157621786Y-107489707D01*
X157510292Y-107378213D01*
X157510288Y-107378210D01*
X157379185Y-107290609D01*
X157379172Y-107290602D01*
X157233501Y-107230264D01*
X157233489Y-107230261D01*
X157078845Y-107199500D01*
X157078842Y-107199500D01*
X156921158Y-107199500D01*
X156921155Y-107199500D01*
X156766510Y-107230261D01*
X156766498Y-107230264D01*
X156620827Y-107290602D01*
X156620814Y-107290609D01*
X156489711Y-107378210D01*
X156489707Y-107378213D01*
X156378213Y-107489707D01*
X156378210Y-107489711D01*
X156290609Y-107620814D01*
X156290602Y-107620827D01*
X156230264Y-107766498D01*
X156230261Y-107766510D01*
X156199500Y-107921153D01*
X153000000Y-107921153D01*
X153000000Y-106421153D01*
X160199500Y-106421153D01*
X160199500Y-106578846D01*
X160230261Y-106733489D01*
X160230264Y-106733501D01*
X160290602Y-106879172D01*
X160290609Y-106879185D01*
X160378210Y-107010288D01*
X160378213Y-107010292D01*
X160489707Y-107121786D01*
X160489711Y-107121789D01*
X160620814Y-107209390D01*
X160620827Y-107209397D01*
X160766498Y-107269735D01*
X160766503Y-107269737D01*
X160908796Y-107298041D01*
X160921153Y-107300499D01*
X160921156Y-107300500D01*
X160921158Y-107300500D01*
X161078844Y-107300500D01*
X161078845Y-107300499D01*
X161233497Y-107269737D01*
X161379179Y-107209394D01*
X161510289Y-107121789D01*
X161621789Y-107010289D01*
X161709394Y-106879179D01*
X161769737Y-106733497D01*
X161800500Y-106578842D01*
X161800500Y-106421158D01*
X161800500Y-106421155D01*
X161800499Y-106421153D01*
X161769738Y-106266510D01*
X161769737Y-106266503D01*
X161756062Y-106233489D01*
X161709397Y-106120827D01*
X161709390Y-106120814D01*
X161621789Y-105989711D01*
X161621786Y-105989707D01*
X161510292Y-105878213D01*
X161510288Y-105878210D01*
X161379185Y-105790609D01*
X161379172Y-105790602D01*
X161233501Y-105730264D01*
X161233489Y-105730261D01*
X161078845Y-105699500D01*
X161078842Y-105699500D01*
X160921158Y-105699500D01*
X160921155Y-105699500D01*
X160766510Y-105730261D01*
X160766498Y-105730264D01*
X160620827Y-105790602D01*
X160620814Y-105790609D01*
X160489711Y-105878210D01*
X160489707Y-105878213D01*
X160378213Y-105989707D01*
X160378210Y-105989711D01*
X160290609Y-106120814D01*
X160290602Y-106120827D01*
X160230264Y-106266498D01*
X160230261Y-106266510D01*
X160199500Y-106421153D01*
X153000000Y-106421153D01*
X153000000Y-104868872D01*
X169999500Y-104868872D01*
X169999500Y-105131127D01*
X170026123Y-105333339D01*
X170033730Y-105391116D01*
X170101602Y-105644418D01*
X170101605Y-105644428D01*
X170201953Y-105886690D01*
X170201958Y-105886700D01*
X170333075Y-106113803D01*
X170492718Y-106321851D01*
X170492726Y-106321860D01*
X170678140Y-106507274D01*
X170678148Y-106507281D01*
X170678149Y-106507282D01*
X170682068Y-106510289D01*
X170886196Y-106666924D01*
X171113299Y-106798041D01*
X171113309Y-106798046D01*
X171355571Y-106898394D01*
X171355581Y-106898398D01*
X171608884Y-106966270D01*
X171868880Y-107000500D01*
X171868887Y-107000500D01*
X172131113Y-107000500D01*
X172131120Y-107000500D01*
X172391116Y-106966270D01*
X172644419Y-106898398D01*
X172829198Y-106821860D01*
X172886690Y-106798046D01*
X172886691Y-106798045D01*
X172886697Y-106798043D01*
X173113803Y-106666924D01*
X173321851Y-106507282D01*
X173321855Y-106507277D01*
X173321860Y-106507274D01*
X173507274Y-106321860D01*
X173507277Y-106321855D01*
X173507282Y-106321851D01*
X173666924Y-106113803D01*
X173798043Y-105886697D01*
X173801559Y-105878210D01*
X173867066Y-105720060D01*
X173898398Y-105644419D01*
X173966270Y-105391116D01*
X174000500Y-105131120D01*
X174000500Y-104868880D01*
X173966270Y-104608884D01*
X173898398Y-104355581D01*
X173898394Y-104355571D01*
X173798046Y-104113309D01*
X173798041Y-104113299D01*
X173666924Y-103886196D01*
X173525551Y-103701957D01*
X173507282Y-103678149D01*
X173507281Y-103678148D01*
X173507274Y-103678140D01*
X173321860Y-103492726D01*
X173321851Y-103492718D01*
X173113803Y-103333075D01*
X172886700Y-103201958D01*
X172886690Y-103201953D01*
X172644428Y-103101605D01*
X172644421Y-103101603D01*
X172644419Y-103101602D01*
X172391116Y-103033730D01*
X172333339Y-103026123D01*
X172131127Y-102999500D01*
X172131120Y-102999500D01*
X171868880Y-102999500D01*
X171868872Y-102999500D01*
X171637772Y-103029926D01*
X171608884Y-103033730D01*
X171440508Y-103078846D01*
X171355581Y-103101602D01*
X171355571Y-103101605D01*
X171113309Y-103201953D01*
X171113299Y-103201958D01*
X170886196Y-103333075D01*
X170678148Y-103492718D01*
X170492718Y-103678148D01*
X170333075Y-103886196D01*
X170201958Y-104113299D01*
X170201953Y-104113309D01*
X170101605Y-104355571D01*
X170101602Y-104355581D01*
X170033730Y-104608884D01*
X170029926Y-104637772D01*
X169999500Y-104868872D01*
X153000000Y-104868872D01*
X153000000Y-100868872D01*
X174999500Y-100868872D01*
X174999500Y-101131127D01*
X175007266Y-101190109D01*
X175033730Y-101391116D01*
X175065719Y-101510500D01*
X175101602Y-101644418D01*
X175101605Y-101644428D01*
X175201953Y-101886690D01*
X175201958Y-101886700D01*
X175333075Y-102113803D01*
X175492718Y-102321851D01*
X175492726Y-102321860D01*
X175678140Y-102507274D01*
X175678148Y-102507281D01*
X175886196Y-102666924D01*
X176113299Y-102798041D01*
X176113309Y-102798046D01*
X176355571Y-102898394D01*
X176355581Y-102898398D01*
X176608884Y-102966270D01*
X176868880Y-103000500D01*
X176868887Y-103000500D01*
X177131113Y-103000500D01*
X177131120Y-103000500D01*
X177391116Y-102966270D01*
X177559496Y-102921153D01*
X183199500Y-102921153D01*
X183199500Y-103078846D01*
X183230261Y-103233489D01*
X183230264Y-103233501D01*
X183290602Y-103379172D01*
X183290609Y-103379185D01*
X183378210Y-103510288D01*
X183378213Y-103510292D01*
X183489707Y-103621786D01*
X183489711Y-103621789D01*
X183620814Y-103709390D01*
X183620827Y-103709397D01*
X183766498Y-103769735D01*
X183766503Y-103769737D01*
X183921153Y-103800499D01*
X183921156Y-103800500D01*
X183921158Y-103800500D01*
X184078844Y-103800500D01*
X184078845Y-103800499D01*
X184233497Y-103769737D01*
X184379179Y-103709394D01*
X184510289Y-103621789D01*
X184621789Y-103510289D01*
X184709394Y-103379179D01*
X184769737Y-103233497D01*
X184800500Y-103078842D01*
X184800500Y-102921158D01*
X184800500Y-102921155D01*
X184800499Y-102921153D01*
X184795973Y-102898398D01*
X184769737Y-102766503D01*
X184769735Y-102766498D01*
X184709397Y-102620827D01*
X184709390Y-102620814D01*
X184621789Y-102489711D01*
X184621786Y-102489707D01*
X184510292Y-102378213D01*
X184510288Y-102378210D01*
X184379185Y-102290609D01*
X184379172Y-102290602D01*
X184233501Y-102230264D01*
X184233489Y-102230261D01*
X184078845Y-102199500D01*
X184078842Y-102199500D01*
X183921158Y-102199500D01*
X183921155Y-102199500D01*
X183766510Y-102230261D01*
X183766498Y-102230264D01*
X183620827Y-102290602D01*
X183620814Y-102290609D01*
X183489711Y-102378210D01*
X183489707Y-102378213D01*
X183378213Y-102489707D01*
X183378210Y-102489711D01*
X183290609Y-102620814D01*
X183290602Y-102620827D01*
X183230264Y-102766498D01*
X183230261Y-102766510D01*
X183199500Y-102921153D01*
X177559496Y-102921153D01*
X177644419Y-102898398D01*
X177752167Y-102853766D01*
X177880754Y-102800505D01*
X177886690Y-102798046D01*
X177886691Y-102798045D01*
X177886697Y-102798043D01*
X178113803Y-102666924D01*
X178321851Y-102507282D01*
X178321855Y-102507277D01*
X178321860Y-102507274D01*
X178507274Y-102321860D01*
X178507277Y-102321855D01*
X178507282Y-102321851D01*
X178666924Y-102113803D01*
X178798043Y-101886697D01*
X178898398Y-101644419D01*
X178966270Y-101391116D01*
X179000500Y-101131120D01*
X179000500Y-100868880D01*
X178966270Y-100608884D01*
X178898398Y-100355581D01*
X178805426Y-100131127D01*
X178798046Y-100113309D01*
X178798041Y-100113299D01*
X178666924Y-99886196D01*
X178507281Y-99678148D01*
X178507274Y-99678140D01*
X178321860Y-99492726D01*
X178321851Y-99492718D01*
X178113803Y-99333075D01*
X177886700Y-99201958D01*
X177886690Y-99201953D01*
X177644428Y-99101605D01*
X177644421Y-99101603D01*
X177644419Y-99101602D01*
X177391116Y-99033730D01*
X177333339Y-99026123D01*
X177131127Y-98999500D01*
X177131120Y-98999500D01*
X176868880Y-98999500D01*
X176868872Y-98999500D01*
X176637772Y-99029926D01*
X176608884Y-99033730D01*
X176440508Y-99078846D01*
X176355581Y-99101602D01*
X176355571Y-99101605D01*
X176113309Y-99201953D01*
X176113299Y-99201958D01*
X175886196Y-99333075D01*
X175678148Y-99492718D01*
X175492718Y-99678148D01*
X175333075Y-99886196D01*
X175201958Y-100113299D01*
X175201953Y-100113309D01*
X175101605Y-100355571D01*
X175101602Y-100355581D01*
X175092081Y-100391116D01*
X175033730Y-100608885D01*
X174999500Y-100868872D01*
X153000000Y-100868872D01*
X153000000Y-98921153D01*
X185199500Y-98921153D01*
X185199500Y-99078846D01*
X185230261Y-99233489D01*
X185230263Y-99233497D01*
X185240061Y-99257151D01*
X185249500Y-99304604D01*
X185249500Y-105695396D01*
X185240062Y-105742844D01*
X185233614Y-105758414D01*
X185230262Y-105766506D01*
X185230260Y-105766511D01*
X185199500Y-105921153D01*
X185199500Y-106078846D01*
X185230261Y-106233489D01*
X185230264Y-106233501D01*
X185290602Y-106379172D01*
X185290609Y-106379185D01*
X185378210Y-106510288D01*
X185378213Y-106510292D01*
X185489707Y-106621786D01*
X185489711Y-106621789D01*
X185620814Y-106709390D01*
X185620827Y-106709397D01*
X185766498Y-106769735D01*
X185766503Y-106769737D01*
X185908796Y-106798041D01*
X185921153Y-106800499D01*
X185921156Y-106800500D01*
X185921158Y-106800500D01*
X186078844Y-106800500D01*
X186078845Y-106800499D01*
X186233497Y-106769737D01*
X186379179Y-106709394D01*
X186510289Y-106621789D01*
X186621789Y-106510289D01*
X186709394Y-106379179D01*
X186769737Y-106233497D01*
X186800500Y-106078842D01*
X186800500Y-105921158D01*
X186800500Y-105921155D01*
X186800499Y-105921153D01*
X186769739Y-105766511D01*
X186769738Y-105766508D01*
X186769737Y-105766503D01*
X186759937Y-105742844D01*
X186750500Y-105695396D01*
X186750500Y-99304604D01*
X186759939Y-99257151D01*
X186769737Y-99233497D01*
X186800500Y-99078842D01*
X186800500Y-98921158D01*
X186800500Y-98921155D01*
X186800499Y-98921153D01*
X186793546Y-98886197D01*
X186769737Y-98766503D01*
X186769735Y-98766498D01*
X186709397Y-98620827D01*
X186709390Y-98620814D01*
X186621789Y-98489711D01*
X186621786Y-98489707D01*
X186510292Y-98378213D01*
X186510288Y-98378210D01*
X186379185Y-98290609D01*
X186379172Y-98290602D01*
X186233501Y-98230264D01*
X186233489Y-98230261D01*
X186078845Y-98199500D01*
X186078842Y-98199500D01*
X185921158Y-98199500D01*
X185921155Y-98199500D01*
X185766510Y-98230261D01*
X185766498Y-98230264D01*
X185620827Y-98290602D01*
X185620814Y-98290609D01*
X185489711Y-98378210D01*
X185489707Y-98378213D01*
X185378213Y-98489707D01*
X185378210Y-98489711D01*
X185290609Y-98620814D01*
X185290602Y-98620827D01*
X185230264Y-98766498D01*
X185230261Y-98766510D01*
X185199500Y-98921153D01*
X153000000Y-98921153D01*
X153000000Y-87921153D01*
X156199500Y-87921153D01*
X156199500Y-88078846D01*
X156230261Y-88233489D01*
X156230263Y-88233497D01*
X156240061Y-88257151D01*
X156249500Y-88304604D01*
X156249500Y-91695396D01*
X156240062Y-91742844D01*
X156230263Y-91766503D01*
X156230262Y-91766506D01*
X156230260Y-91766511D01*
X156199500Y-91921153D01*
X156199500Y-92078846D01*
X156230261Y-92233489D01*
X156230264Y-92233501D01*
X156290602Y-92379172D01*
X156290609Y-92379185D01*
X156378210Y-92510288D01*
X156378213Y-92510292D01*
X156489710Y-92621789D01*
X156620815Y-92709390D01*
X156620821Y-92709394D01*
X156644475Y-92719191D01*
X156684703Y-92746071D01*
X158213181Y-94274548D01*
X158246666Y-94335871D01*
X158249500Y-94362229D01*
X158249500Y-95695396D01*
X158245870Y-95725181D01*
X158243631Y-95734228D01*
X158230263Y-95766503D01*
X158208203Y-95877400D01*
X158207512Y-95880197D01*
X158191293Y-95907992D01*
X158176374Y-95936515D01*
X158173794Y-95937983D01*
X158172300Y-95940545D01*
X158143640Y-95955154D01*
X158115658Y-95971089D01*
X158112694Y-95970930D01*
X158110052Y-95972277D01*
X158078024Y-95969071D01*
X158045888Y-95967348D01*
X158043069Y-95965572D01*
X158040530Y-95965318D01*
X158032307Y-95958790D01*
X157999461Y-95938093D01*
X157746071Y-95684703D01*
X157719191Y-95644475D01*
X157709394Y-95620821D01*
X157621792Y-95489715D01*
X157621789Y-95489710D01*
X157510292Y-95378213D01*
X157510288Y-95378210D01*
X157379185Y-95290609D01*
X157379172Y-95290602D01*
X157233501Y-95230264D01*
X157233489Y-95230261D01*
X157078845Y-95199500D01*
X157078842Y-95199500D01*
X156921158Y-95199500D01*
X156921155Y-95199500D01*
X156766510Y-95230261D01*
X156766498Y-95230264D01*
X156620827Y-95290602D01*
X156620814Y-95290609D01*
X156489711Y-95378210D01*
X156489707Y-95378213D01*
X156378213Y-95489707D01*
X156378210Y-95489711D01*
X156290609Y-95620814D01*
X156290602Y-95620827D01*
X156230264Y-95766498D01*
X156230261Y-95766510D01*
X156199500Y-95921153D01*
X156199500Y-96078846D01*
X156230261Y-96233489D01*
X156230264Y-96233501D01*
X156290602Y-96379172D01*
X156290609Y-96379185D01*
X156378210Y-96510288D01*
X156378213Y-96510292D01*
X156489710Y-96621789D01*
X156557260Y-96666924D01*
X156620821Y-96709394D01*
X156644475Y-96719191D01*
X156684703Y-96746071D01*
X158417049Y-98478416D01*
X158521583Y-98582950D01*
X158521585Y-98582952D01*
X158644498Y-98665080D01*
X158644511Y-98665087D01*
X158781082Y-98721656D01*
X158781087Y-98721658D01*
X158781091Y-98721658D01*
X158781092Y-98721659D01*
X158926079Y-98750500D01*
X158926082Y-98750500D01*
X169073920Y-98750500D01*
X169171462Y-98731096D01*
X169218913Y-98721658D01*
X169355495Y-98665084D01*
X169404729Y-98632186D01*
X169478416Y-98582952D01*
X170274548Y-97786818D01*
X170335871Y-97753334D01*
X170362229Y-97750500D01*
X171073920Y-97750500D01*
X171171462Y-97731096D01*
X171218913Y-97721658D01*
X171355495Y-97665084D01*
X171404729Y-97632186D01*
X171478416Y-97582952D01*
X172315297Y-96746069D01*
X172355522Y-96719192D01*
X172379179Y-96709394D01*
X172510289Y-96621789D01*
X172621789Y-96510289D01*
X172709394Y-96379179D01*
X172769737Y-96233497D01*
X172800500Y-96078842D01*
X172800500Y-95921158D01*
X172800500Y-95921155D01*
X172800499Y-95921153D01*
X172773976Y-95787816D01*
X172769737Y-95766503D01*
X172769735Y-95766498D01*
X172709397Y-95620827D01*
X172709390Y-95620814D01*
X172621789Y-95489711D01*
X172621786Y-95489707D01*
X172510292Y-95378213D01*
X172510288Y-95378210D01*
X172379185Y-95290609D01*
X172379172Y-95290602D01*
X172233501Y-95230264D01*
X172233489Y-95230261D01*
X172078845Y-95199500D01*
X172078842Y-95199500D01*
X171921158Y-95199500D01*
X171921155Y-95199500D01*
X171766510Y-95230261D01*
X171766498Y-95230264D01*
X171620827Y-95290602D01*
X171620814Y-95290609D01*
X171489711Y-95378210D01*
X171489707Y-95378213D01*
X171378213Y-95489707D01*
X171378207Y-95489715D01*
X171290607Y-95620818D01*
X171290606Y-95620819D01*
X171280805Y-95644480D01*
X171253927Y-95684703D01*
X170725451Y-96213181D01*
X170664128Y-96246666D01*
X170637770Y-96249500D01*
X169926076Y-96249500D01*
X169897242Y-96255234D01*
X169897243Y-96255235D01*
X169781093Y-96278339D01*
X169781083Y-96278342D01*
X169701081Y-96311479D01*
X169701082Y-96311480D01*
X169652619Y-96331555D01*
X169644505Y-96334916D01*
X169578271Y-96379172D01*
X169578261Y-96379179D01*
X169521582Y-96417049D01*
X169521579Y-96417052D01*
X168725451Y-97213181D01*
X168664128Y-97246666D01*
X168637770Y-97249500D01*
X159362229Y-97249500D01*
X159295190Y-97229815D01*
X159274548Y-97213181D01*
X159061904Y-97000536D01*
X159028420Y-96939215D01*
X159033404Y-96869523D01*
X159075276Y-96813590D01*
X159125395Y-96791240D01*
X159130613Y-96790201D01*
X159233497Y-96769737D01*
X159379179Y-96709394D01*
X159510289Y-96621789D01*
X159621789Y-96510289D01*
X159709394Y-96379179D01*
X159769737Y-96233497D01*
X159800500Y-96078842D01*
X159800500Y-95921158D01*
X159800500Y-95921155D01*
X159800499Y-95921153D01*
X159769739Y-95766511D01*
X159769738Y-95766508D01*
X159769737Y-95766503D01*
X159759937Y-95742844D01*
X159750500Y-95695396D01*
X159750500Y-93926079D01*
X159721659Y-93781092D01*
X159721658Y-93781091D01*
X159721658Y-93781087D01*
X159679020Y-93678149D01*
X159665087Y-93644511D01*
X159665080Y-93644498D01*
X159582952Y-93521585D01*
X159554085Y-93492718D01*
X159478416Y-93417049D01*
X157786819Y-91725451D01*
X157753334Y-91664128D01*
X157750500Y-91637770D01*
X157750500Y-88304604D01*
X157759939Y-88257151D01*
X157769737Y-88233497D01*
X157800500Y-88078842D01*
X157800500Y-87921158D01*
X157800500Y-87921155D01*
X157800499Y-87921153D01*
X157769738Y-87766510D01*
X157769737Y-87766503D01*
X157746080Y-87709390D01*
X157709397Y-87620827D01*
X157709390Y-87620814D01*
X157621789Y-87489711D01*
X157621786Y-87489707D01*
X157510292Y-87378213D01*
X157510288Y-87378210D01*
X157379185Y-87290609D01*
X157379172Y-87290602D01*
X157233501Y-87230264D01*
X157233489Y-87230261D01*
X157078845Y-87199500D01*
X157078842Y-87199500D01*
X156921158Y-87199500D01*
X156921155Y-87199500D01*
X156766510Y-87230261D01*
X156766498Y-87230264D01*
X156620827Y-87290602D01*
X156620814Y-87290609D01*
X156489711Y-87378210D01*
X156489707Y-87378213D01*
X156378213Y-87489707D01*
X156378210Y-87489711D01*
X156290609Y-87620814D01*
X156290602Y-87620827D01*
X156230264Y-87766498D01*
X156230261Y-87766510D01*
X156199500Y-87921153D01*
X153000000Y-87921153D01*
X153000000Y-86421153D01*
X160199500Y-86421153D01*
X160199500Y-86578846D01*
X160230261Y-86733489D01*
X160230264Y-86733501D01*
X160290602Y-86879172D01*
X160290609Y-86879185D01*
X160378210Y-87010288D01*
X160378213Y-87010292D01*
X160489707Y-87121786D01*
X160489711Y-87121789D01*
X160620814Y-87209390D01*
X160620827Y-87209397D01*
X160766498Y-87269735D01*
X160766503Y-87269737D01*
X160921153Y-87300499D01*
X160921156Y-87300500D01*
X160921158Y-87300500D01*
X161078844Y-87300500D01*
X161078845Y-87300499D01*
X161233497Y-87269737D01*
X161379179Y-87209394D01*
X161510289Y-87121789D01*
X161621789Y-87010289D01*
X161709394Y-86879179D01*
X161713663Y-86868872D01*
X169499500Y-86868872D01*
X169499500Y-87131127D01*
X169521800Y-87300499D01*
X169533730Y-87391116D01*
X169601602Y-87644418D01*
X169601605Y-87644428D01*
X169701953Y-87886690D01*
X169701958Y-87886700D01*
X169833075Y-88113803D01*
X169992718Y-88321851D01*
X169992726Y-88321860D01*
X170178140Y-88507274D01*
X170178148Y-88507281D01*
X170386196Y-88666924D01*
X170613299Y-88798041D01*
X170613309Y-88798046D01*
X170855571Y-88898394D01*
X170855581Y-88898398D01*
X171108884Y-88966270D01*
X171368880Y-89000500D01*
X171368887Y-89000500D01*
X171631113Y-89000500D01*
X171631120Y-89000500D01*
X171891116Y-88966270D01*
X172144419Y-88898398D01*
X172386697Y-88798043D01*
X172613803Y-88666924D01*
X172821851Y-88507282D01*
X172821855Y-88507277D01*
X172821860Y-88507274D01*
X173007274Y-88321860D01*
X173007277Y-88321855D01*
X173007282Y-88321851D01*
X173166924Y-88113803D01*
X173298043Y-87886697D01*
X173398398Y-87644419D01*
X173466270Y-87391116D01*
X173500500Y-87131120D01*
X173500500Y-86921153D01*
X184199500Y-86921153D01*
X184199500Y-87078846D01*
X184230261Y-87233489D01*
X184230264Y-87233501D01*
X184290602Y-87379172D01*
X184290609Y-87379185D01*
X184378210Y-87510288D01*
X184378213Y-87510292D01*
X184489707Y-87621786D01*
X184489711Y-87621789D01*
X184620814Y-87709390D01*
X184620827Y-87709397D01*
X184758683Y-87766498D01*
X184766503Y-87769737D01*
X184921153Y-87800499D01*
X184921156Y-87800500D01*
X184921158Y-87800500D01*
X185078844Y-87800500D01*
X185078845Y-87800499D01*
X185233497Y-87769737D01*
X185379179Y-87709394D01*
X185510289Y-87621789D01*
X185621789Y-87510289D01*
X185709394Y-87379179D01*
X185769737Y-87233497D01*
X185800500Y-87078842D01*
X185800500Y-86921158D01*
X185800500Y-86921155D01*
X185800499Y-86921153D01*
X185790101Y-86868880D01*
X185769737Y-86766503D01*
X185756062Y-86733489D01*
X185709397Y-86620827D01*
X185709390Y-86620814D01*
X185621789Y-86489711D01*
X185621786Y-86489707D01*
X185510292Y-86378213D01*
X185510288Y-86378210D01*
X185379185Y-86290609D01*
X185379172Y-86290602D01*
X185233501Y-86230264D01*
X185233489Y-86230261D01*
X185078845Y-86199500D01*
X185078842Y-86199500D01*
X184921158Y-86199500D01*
X184921155Y-86199500D01*
X184766510Y-86230261D01*
X184766498Y-86230264D01*
X184620827Y-86290602D01*
X184620814Y-86290609D01*
X184489711Y-86378210D01*
X184489707Y-86378213D01*
X184378213Y-86489707D01*
X184378210Y-86489711D01*
X184290609Y-86620814D01*
X184290602Y-86620827D01*
X184230264Y-86766498D01*
X184230261Y-86766510D01*
X184199500Y-86921153D01*
X173500500Y-86921153D01*
X173500500Y-86868880D01*
X173466270Y-86608884D01*
X173398398Y-86355581D01*
X173371486Y-86290609D01*
X173298046Y-86113309D01*
X173298041Y-86113299D01*
X173166924Y-85886196D01*
X173007281Y-85678148D01*
X173007274Y-85678140D01*
X172821860Y-85492726D01*
X172821851Y-85492718D01*
X172613803Y-85333075D01*
X172386700Y-85201958D01*
X172386690Y-85201953D01*
X172144428Y-85101605D01*
X172144421Y-85101603D01*
X172144419Y-85101602D01*
X171891116Y-85033730D01*
X171833339Y-85026123D01*
X171631127Y-84999500D01*
X171631120Y-84999500D01*
X171368880Y-84999500D01*
X171368872Y-84999500D01*
X171137772Y-85029926D01*
X171108884Y-85033730D01*
X170855581Y-85101602D01*
X170855571Y-85101605D01*
X170613309Y-85201953D01*
X170613299Y-85201958D01*
X170386196Y-85333075D01*
X170178148Y-85492718D01*
X169992718Y-85678148D01*
X169833075Y-85886196D01*
X169701958Y-86113299D01*
X169701953Y-86113309D01*
X169601605Y-86355571D01*
X169601602Y-86355581D01*
X169533730Y-86608884D01*
X169532158Y-86620827D01*
X169499500Y-86868872D01*
X161713663Y-86868872D01*
X161769737Y-86733497D01*
X161800500Y-86578842D01*
X161800500Y-86421158D01*
X161800500Y-86421155D01*
X161800499Y-86421153D01*
X161774531Y-86290606D01*
X161769737Y-86266503D01*
X161769735Y-86266498D01*
X161709397Y-86120827D01*
X161709390Y-86120814D01*
X161621789Y-85989711D01*
X161621786Y-85989707D01*
X161510292Y-85878213D01*
X161510288Y-85878210D01*
X161379185Y-85790609D01*
X161379172Y-85790602D01*
X161233501Y-85730264D01*
X161233489Y-85730261D01*
X161078845Y-85699500D01*
X161078842Y-85699500D01*
X160921158Y-85699500D01*
X160921155Y-85699500D01*
X160766510Y-85730261D01*
X160766498Y-85730264D01*
X160620827Y-85790602D01*
X160620814Y-85790609D01*
X160489711Y-85878210D01*
X160489707Y-85878213D01*
X160378213Y-85989707D01*
X160378210Y-85989711D01*
X160290609Y-86120814D01*
X160290602Y-86120827D01*
X160230264Y-86266498D01*
X160230261Y-86266510D01*
X160199500Y-86421153D01*
X153000000Y-86421153D01*
X153000000Y-81868872D01*
X175499500Y-81868872D01*
X175499500Y-82131127D01*
X175526123Y-82333339D01*
X175533730Y-82391116D01*
X175601602Y-82644418D01*
X175601605Y-82644428D01*
X175701953Y-82886690D01*
X175701958Y-82886700D01*
X175833075Y-83113803D01*
X175992718Y-83321851D01*
X175992726Y-83321860D01*
X176178140Y-83507274D01*
X176178148Y-83507281D01*
X176386196Y-83666924D01*
X176613299Y-83798041D01*
X176613309Y-83798046D01*
X176855571Y-83898394D01*
X176855581Y-83898398D01*
X177108884Y-83966270D01*
X177368880Y-84000500D01*
X177368887Y-84000500D01*
X177631113Y-84000500D01*
X177631120Y-84000500D01*
X177891116Y-83966270D01*
X178144419Y-83898398D01*
X178386697Y-83798043D01*
X178613803Y-83666924D01*
X178821851Y-83507282D01*
X178821855Y-83507277D01*
X178821860Y-83507274D01*
X179007274Y-83321860D01*
X179007277Y-83321855D01*
X179007282Y-83321851D01*
X179166924Y-83113803D01*
X179298043Y-82886697D01*
X179398398Y-82644419D01*
X179466270Y-82391116D01*
X179500500Y-82131120D01*
X179500500Y-81868880D01*
X179466270Y-81608884D01*
X179398398Y-81355581D01*
X179398394Y-81355571D01*
X179298046Y-81113309D01*
X179298041Y-81113299D01*
X179166924Y-80886196D01*
X179007281Y-80678148D01*
X179007274Y-80678140D01*
X178821860Y-80492726D01*
X178821851Y-80492718D01*
X178613803Y-80333075D01*
X178386700Y-80201958D01*
X178386690Y-80201953D01*
X178144428Y-80101605D01*
X178144421Y-80101603D01*
X178144419Y-80101602D01*
X177891116Y-80033730D01*
X177833339Y-80026123D01*
X177631127Y-79999500D01*
X177631120Y-79999500D01*
X177368880Y-79999500D01*
X177368872Y-79999500D01*
X177137772Y-80029926D01*
X177108884Y-80033730D01*
X176855581Y-80101602D01*
X176855571Y-80101605D01*
X176613309Y-80201953D01*
X176613299Y-80201958D01*
X176386196Y-80333075D01*
X176178148Y-80492718D01*
X175992718Y-80678148D01*
X175833075Y-80886196D01*
X175701958Y-81113299D01*
X175701953Y-81113309D01*
X175601605Y-81355571D01*
X175601602Y-81355581D01*
X175533730Y-81608885D01*
X175499500Y-81868872D01*
X153000000Y-81868872D01*
X153000000Y-75921153D01*
X157199500Y-75921153D01*
X157199500Y-76078846D01*
X157230261Y-76233489D01*
X157230264Y-76233501D01*
X157290602Y-76379172D01*
X157290609Y-76379185D01*
X157378210Y-76510288D01*
X157378213Y-76510292D01*
X157489710Y-76621789D01*
X157620815Y-76709390D01*
X157620821Y-76709394D01*
X157644475Y-76719191D01*
X157684703Y-76746071D01*
X158417049Y-77478416D01*
X158521584Y-77582951D01*
X158521587Y-77582953D01*
X158521588Y-77582954D01*
X158644503Y-77665083D01*
X158644506Y-77665085D01*
X158694665Y-77685861D01*
X158701080Y-77688518D01*
X158781088Y-77721659D01*
X158897241Y-77744763D01*
X158920380Y-77749365D01*
X158926081Y-77750500D01*
X158926082Y-77750500D01*
X158926083Y-77750500D01*
X159073918Y-77750500D01*
X171695396Y-77750500D01*
X171742844Y-77759937D01*
X171766503Y-77769737D01*
X171766508Y-77769738D01*
X171766511Y-77769739D01*
X171921153Y-77800499D01*
X171921156Y-77800500D01*
X171921158Y-77800500D01*
X172078844Y-77800500D01*
X172078845Y-77800499D01*
X172233497Y-77769737D01*
X172379179Y-77709394D01*
X172510289Y-77621789D01*
X172621789Y-77510289D01*
X172709394Y-77379179D01*
X172769737Y-77233497D01*
X172800500Y-77078842D01*
X172800500Y-76921158D01*
X172800500Y-76921155D01*
X172800499Y-76921153D01*
X172769738Y-76766510D01*
X172769737Y-76766503D01*
X172754050Y-76728630D01*
X172709397Y-76620827D01*
X172709390Y-76620814D01*
X172621789Y-76489711D01*
X172621786Y-76489707D01*
X172510292Y-76378213D01*
X172510288Y-76378210D01*
X172379185Y-76290609D01*
X172379172Y-76290602D01*
X172233501Y-76230264D01*
X172233489Y-76230261D01*
X172078845Y-76199500D01*
X172078842Y-76199500D01*
X171921158Y-76199500D01*
X171921155Y-76199500D01*
X171766511Y-76230260D01*
X171766506Y-76230262D01*
X171766504Y-76230262D01*
X171766503Y-76230263D01*
X171742844Y-76240062D01*
X171695396Y-76249500D01*
X159362229Y-76249500D01*
X159295190Y-76229815D01*
X159274548Y-76213181D01*
X158746071Y-75684703D01*
X158719191Y-75644475D01*
X158709394Y-75620821D01*
X158635539Y-75510289D01*
X158621789Y-75489710D01*
X158510292Y-75378213D01*
X158510288Y-75378210D01*
X158379185Y-75290609D01*
X158379172Y-75290602D01*
X158233501Y-75230264D01*
X158233489Y-75230261D01*
X158078845Y-75199500D01*
X158078842Y-75199500D01*
X157921158Y-75199500D01*
X157921155Y-75199500D01*
X157766510Y-75230261D01*
X157766498Y-75230264D01*
X157620827Y-75290602D01*
X157620814Y-75290609D01*
X157489711Y-75378210D01*
X157489707Y-75378213D01*
X157378213Y-75489707D01*
X157378210Y-75489711D01*
X157290609Y-75620814D01*
X157290602Y-75620827D01*
X157230264Y-75766498D01*
X157230261Y-75766510D01*
X157199500Y-75921153D01*
X153000000Y-75921153D01*
X153000000Y-68921153D01*
X156199500Y-68921153D01*
X156199500Y-69078846D01*
X156230261Y-69233489D01*
X156230263Y-69233497D01*
X156240061Y-69257151D01*
X156249500Y-69304604D01*
X156249500Y-71695396D01*
X156240062Y-71742844D01*
X156230263Y-71766503D01*
X156230262Y-71766506D01*
X156230260Y-71766511D01*
X156199500Y-71921153D01*
X156199500Y-72078846D01*
X156230261Y-72233489D01*
X156230264Y-72233501D01*
X156290602Y-72379172D01*
X156290609Y-72379185D01*
X156378210Y-72510288D01*
X156378213Y-72510292D01*
X156489710Y-72621789D01*
X156620815Y-72709390D01*
X156620821Y-72709394D01*
X156644475Y-72719191D01*
X156684703Y-72746071D01*
X159253926Y-75315293D01*
X159280805Y-75355519D01*
X159290603Y-75379172D01*
X159290606Y-75379178D01*
X159290609Y-75379185D01*
X159378210Y-75510288D01*
X159378213Y-75510292D01*
X159489707Y-75621786D01*
X159489711Y-75621789D01*
X159620814Y-75709390D01*
X159620827Y-75709397D01*
X159758683Y-75766498D01*
X159766503Y-75769737D01*
X159921153Y-75800499D01*
X159921156Y-75800500D01*
X159921158Y-75800500D01*
X160078844Y-75800500D01*
X160078845Y-75800499D01*
X160233497Y-75769737D01*
X160379179Y-75709394D01*
X160510289Y-75621789D01*
X160621789Y-75510289D01*
X160709394Y-75379179D01*
X160769737Y-75233497D01*
X160800500Y-75078842D01*
X160800500Y-74921158D01*
X160800500Y-74921155D01*
X160800499Y-74921153D01*
X160769738Y-74766510D01*
X160769737Y-74766503D01*
X160769735Y-74766498D01*
X160709397Y-74620827D01*
X160709390Y-74620814D01*
X160621789Y-74489711D01*
X160621786Y-74489707D01*
X160510292Y-74378213D01*
X160510288Y-74378210D01*
X160379185Y-74290609D01*
X160379180Y-74290607D01*
X160379179Y-74290606D01*
X160355519Y-74280805D01*
X160315293Y-74253926D01*
X160064114Y-74002747D01*
X159982520Y-73921153D01*
X191199500Y-73921153D01*
X191199500Y-74078846D01*
X191230261Y-74233489D01*
X191230263Y-74233497D01*
X191240061Y-74257151D01*
X191249500Y-74304604D01*
X191249500Y-99695396D01*
X191240062Y-99742844D01*
X191230263Y-99766503D01*
X191230262Y-99766506D01*
X191230260Y-99766511D01*
X191199500Y-99921153D01*
X191199500Y-100078846D01*
X191230261Y-100233489D01*
X191230264Y-100233501D01*
X191290602Y-100379172D01*
X191290609Y-100379185D01*
X191378210Y-100510288D01*
X191378213Y-100510292D01*
X191489707Y-100621786D01*
X191489711Y-100621789D01*
X191620814Y-100709390D01*
X191620827Y-100709397D01*
X191766498Y-100769735D01*
X191766503Y-100769737D01*
X191921153Y-100800499D01*
X191921156Y-100800500D01*
X191921158Y-100800500D01*
X192078844Y-100800500D01*
X192078845Y-100800499D01*
X192233497Y-100769737D01*
X192379179Y-100709394D01*
X192510289Y-100621789D01*
X192621789Y-100510289D01*
X192709394Y-100379179D01*
X192769737Y-100233497D01*
X192800500Y-100078842D01*
X192800500Y-99921158D01*
X192790100Y-99868872D01*
X197999500Y-99868872D01*
X197999500Y-100131127D01*
X198026123Y-100333339D01*
X198033730Y-100391116D01*
X198101602Y-100644418D01*
X198101605Y-100644428D01*
X198201953Y-100886690D01*
X198201958Y-100886700D01*
X198333075Y-101113803D01*
X198492718Y-101321851D01*
X198492726Y-101321860D01*
X198678140Y-101507274D01*
X198678148Y-101507281D01*
X198886196Y-101666924D01*
X199113299Y-101798041D01*
X199113309Y-101798046D01*
X199355571Y-101898394D01*
X199355581Y-101898398D01*
X199608884Y-101966270D01*
X199868880Y-102000500D01*
X199868887Y-102000500D01*
X200131113Y-102000500D01*
X200131120Y-102000500D01*
X200391116Y-101966270D01*
X200644419Y-101898398D01*
X200886697Y-101798043D01*
X201113803Y-101666924D01*
X201321851Y-101507282D01*
X201321855Y-101507277D01*
X201321860Y-101507274D01*
X201507274Y-101321860D01*
X201507277Y-101321855D01*
X201507282Y-101321851D01*
X201666924Y-101113803D01*
X201798043Y-100886697D01*
X201898398Y-100644419D01*
X201966270Y-100391116D01*
X202000500Y-100131120D01*
X202000500Y-100053713D01*
X206149500Y-100053713D01*
X206149500Y-100266287D01*
X206182754Y-100476243D01*
X206225852Y-100608885D01*
X206248444Y-100678414D01*
X206344951Y-100867820D01*
X206469890Y-101039786D01*
X206620213Y-101190109D01*
X206792179Y-101315048D01*
X206792181Y-101315049D01*
X206792184Y-101315051D01*
X206981588Y-101411557D01*
X207183757Y-101477246D01*
X207393713Y-101510500D01*
X207393714Y-101510500D01*
X207606286Y-101510500D01*
X207606287Y-101510500D01*
X207816243Y-101477246D01*
X208018412Y-101411557D01*
X208207816Y-101315051D01*
X208229789Y-101299086D01*
X208379786Y-101190109D01*
X208379788Y-101190106D01*
X208379792Y-101190104D01*
X208530104Y-101039792D01*
X208530106Y-101039788D01*
X208530109Y-101039786D01*
X208655048Y-100867820D01*
X208655047Y-100867820D01*
X208655051Y-100867816D01*
X208751557Y-100678412D01*
X208817246Y-100476243D01*
X208850500Y-100266287D01*
X208850500Y-100053713D01*
X208817246Y-99843757D01*
X208751557Y-99641588D01*
X208655051Y-99452184D01*
X208655049Y-99452181D01*
X208655048Y-99452179D01*
X208530109Y-99280213D01*
X208379786Y-99129890D01*
X208207820Y-99004951D01*
X208018414Y-98908444D01*
X208018413Y-98908443D01*
X208018412Y-98908443D01*
X207816243Y-98842754D01*
X207816241Y-98842753D01*
X207816240Y-98842753D01*
X207654957Y-98817208D01*
X207606287Y-98809500D01*
X207393713Y-98809500D01*
X207345042Y-98817208D01*
X207183760Y-98842753D01*
X206981585Y-98908444D01*
X206792179Y-99004951D01*
X206620213Y-99129890D01*
X206469890Y-99280213D01*
X206344951Y-99452179D01*
X206248444Y-99641585D01*
X206182753Y-99843760D01*
X206149500Y-100053713D01*
X202000500Y-100053713D01*
X202000500Y-99868880D01*
X201966270Y-99608884D01*
X201898398Y-99355581D01*
X201867180Y-99280213D01*
X201798046Y-99113309D01*
X201798041Y-99113299D01*
X201666924Y-98886196D01*
X201507281Y-98678148D01*
X201507274Y-98678140D01*
X201321860Y-98492726D01*
X201321851Y-98492718D01*
X201113803Y-98333075D01*
X200886700Y-98201958D01*
X200886690Y-98201953D01*
X200644428Y-98101605D01*
X200644421Y-98101603D01*
X200644419Y-98101602D01*
X200391116Y-98033730D01*
X200333339Y-98026123D01*
X200131127Y-97999500D01*
X200131120Y-97999500D01*
X199868880Y-97999500D01*
X199868872Y-97999500D01*
X199637772Y-98029926D01*
X199608884Y-98033730D01*
X199355581Y-98101602D01*
X199355571Y-98101605D01*
X199113309Y-98201953D01*
X199113299Y-98201958D01*
X198886196Y-98333075D01*
X198678148Y-98492718D01*
X198492718Y-98678148D01*
X198333075Y-98886196D01*
X198201958Y-99113299D01*
X198201953Y-99113309D01*
X198101605Y-99355571D01*
X198101602Y-99355581D01*
X198064857Y-99492718D01*
X198033730Y-99608885D01*
X197999500Y-99868872D01*
X192790100Y-99868872D01*
X192769737Y-99766503D01*
X192756276Y-99734006D01*
X192754015Y-99724711D01*
X192754457Y-99715292D01*
X192750500Y-99695396D01*
X192750500Y-94868872D01*
X193999500Y-94868872D01*
X193999500Y-95131127D01*
X194022340Y-95304604D01*
X194033730Y-95391116D01*
X194095281Y-95620827D01*
X194101602Y-95644418D01*
X194101605Y-95644428D01*
X194201953Y-95886690D01*
X194201958Y-95886700D01*
X194333075Y-96113803D01*
X194492718Y-96321851D01*
X194492726Y-96321860D01*
X194678140Y-96507274D01*
X194678148Y-96507281D01*
X194678149Y-96507282D01*
X194682068Y-96510289D01*
X194886196Y-96666924D01*
X195113299Y-96798041D01*
X195113309Y-96798046D01*
X195355571Y-96898394D01*
X195355581Y-96898398D01*
X195608884Y-96966270D01*
X195868880Y-97000500D01*
X195868887Y-97000500D01*
X196131113Y-97000500D01*
X196131120Y-97000500D01*
X196391116Y-96966270D01*
X196644419Y-96898398D01*
X196849163Y-96813590D01*
X196886690Y-96798046D01*
X196886691Y-96798045D01*
X196886697Y-96798043D01*
X197113803Y-96666924D01*
X197321851Y-96507282D01*
X197321855Y-96507277D01*
X197321860Y-96507274D01*
X197507274Y-96321860D01*
X197507277Y-96321855D01*
X197507282Y-96321851D01*
X197666924Y-96113803D01*
X197798043Y-95886697D01*
X197898398Y-95644419D01*
X197966270Y-95391116D01*
X198000500Y-95131120D01*
X198000500Y-94973713D01*
X206149500Y-94973713D01*
X206149500Y-95186286D01*
X206181941Y-95391114D01*
X206182754Y-95396243D01*
X206213123Y-95489710D01*
X206248444Y-95598414D01*
X206344951Y-95787820D01*
X206469890Y-95959786D01*
X206620213Y-96110109D01*
X206792179Y-96235048D01*
X206792181Y-96235049D01*
X206792184Y-96235051D01*
X206981588Y-96331557D01*
X207183757Y-96397246D01*
X207393713Y-96430500D01*
X207393714Y-96430500D01*
X207606286Y-96430500D01*
X207606287Y-96430500D01*
X207816243Y-96397246D01*
X208018412Y-96331557D01*
X208207816Y-96235051D01*
X208237918Y-96213181D01*
X208379786Y-96110109D01*
X208379788Y-96110106D01*
X208379792Y-96110104D01*
X208530104Y-95959792D01*
X208530106Y-95959788D01*
X208530109Y-95959786D01*
X208655048Y-95787820D01*
X208655047Y-95787820D01*
X208655051Y-95787816D01*
X208751557Y-95598412D01*
X208817246Y-95396243D01*
X208850500Y-95186287D01*
X208850500Y-94973713D01*
X208817246Y-94763757D01*
X208751557Y-94561588D01*
X208655051Y-94372184D01*
X208655049Y-94372181D01*
X208655048Y-94372179D01*
X208530109Y-94200213D01*
X208379786Y-94049890D01*
X208207820Y-93924951D01*
X208018414Y-93828444D01*
X208018413Y-93828443D01*
X208018412Y-93828443D01*
X207816243Y-93762754D01*
X207816241Y-93762753D01*
X207816240Y-93762753D01*
X207654957Y-93737208D01*
X207606287Y-93729500D01*
X207393713Y-93729500D01*
X207345042Y-93737208D01*
X207183760Y-93762753D01*
X206981585Y-93828444D01*
X206792179Y-93924951D01*
X206620213Y-94049890D01*
X206469890Y-94200213D01*
X206344951Y-94372179D01*
X206248444Y-94561585D01*
X206182753Y-94763760D01*
X206149500Y-94973713D01*
X198000500Y-94973713D01*
X198000500Y-94868880D01*
X197966270Y-94608884D01*
X197898398Y-94355581D01*
X197871486Y-94290609D01*
X197798046Y-94113309D01*
X197798041Y-94113299D01*
X197666924Y-93886196D01*
X197507281Y-93678148D01*
X197507274Y-93678140D01*
X197321860Y-93492726D01*
X197321851Y-93492718D01*
X197113803Y-93333075D01*
X196886700Y-93201958D01*
X196886690Y-93201953D01*
X196644428Y-93101605D01*
X196644421Y-93101603D01*
X196644419Y-93101602D01*
X196391116Y-93033730D01*
X196333339Y-93026123D01*
X196131127Y-92999500D01*
X196131120Y-92999500D01*
X195868880Y-92999500D01*
X195868872Y-92999500D01*
X195637772Y-93029926D01*
X195608884Y-93033730D01*
X195355581Y-93101602D01*
X195355571Y-93101605D01*
X195113309Y-93201953D01*
X195113299Y-93201958D01*
X194886196Y-93333075D01*
X194678148Y-93492718D01*
X194492718Y-93678148D01*
X194333075Y-93886196D01*
X194201958Y-94113299D01*
X194201953Y-94113309D01*
X194101605Y-94355571D01*
X194101602Y-94355581D01*
X194033730Y-94608884D01*
X194032158Y-94620827D01*
X193999500Y-94868872D01*
X192750500Y-94868872D01*
X192750500Y-89102135D01*
X206149500Y-89102135D01*
X206149500Y-90897870D01*
X206149501Y-90897876D01*
X206155908Y-90957483D01*
X206206202Y-91092328D01*
X206206206Y-91092335D01*
X206292452Y-91207544D01*
X206292455Y-91207547D01*
X206407664Y-91293793D01*
X206407671Y-91293797D01*
X206542517Y-91344091D01*
X206542516Y-91344091D01*
X206549444Y-91344835D01*
X206602127Y-91350500D01*
X208397872Y-91350499D01*
X208457483Y-91344091D01*
X208592331Y-91293796D01*
X208707546Y-91207546D01*
X208793796Y-91092331D01*
X208844091Y-90957483D01*
X208850500Y-90897873D01*
X208850499Y-89102128D01*
X208844091Y-89042517D01*
X208828419Y-89000499D01*
X208793797Y-88907671D01*
X208793793Y-88907664D01*
X208707547Y-88792455D01*
X208707544Y-88792452D01*
X208592335Y-88706206D01*
X208592328Y-88706202D01*
X208457482Y-88655908D01*
X208457483Y-88655908D01*
X208397883Y-88649501D01*
X208397881Y-88649500D01*
X208397873Y-88649500D01*
X208397864Y-88649500D01*
X206602129Y-88649500D01*
X206602123Y-88649501D01*
X206542516Y-88655908D01*
X206407671Y-88706202D01*
X206407664Y-88706206D01*
X206292455Y-88792452D01*
X206292452Y-88792455D01*
X206206206Y-88907664D01*
X206206202Y-88907671D01*
X206155908Y-89042517D01*
X206149501Y-89102116D01*
X206149501Y-89102123D01*
X206149500Y-89102135D01*
X192750500Y-89102135D01*
X192750500Y-74304604D01*
X192759939Y-74257151D01*
X192761275Y-74253926D01*
X192769737Y-74233497D01*
X192800500Y-74078842D01*
X192800500Y-73921158D01*
X192800500Y-73921155D01*
X192800499Y-73921153D01*
X192769738Y-73766510D01*
X192769737Y-73766503D01*
X192769735Y-73766498D01*
X192709397Y-73620827D01*
X192709390Y-73620814D01*
X192621789Y-73489711D01*
X192621786Y-73489707D01*
X192510292Y-73378213D01*
X192510288Y-73378210D01*
X192379185Y-73290609D01*
X192379172Y-73290602D01*
X192233501Y-73230264D01*
X192233489Y-73230261D01*
X192078845Y-73199500D01*
X192078842Y-73199500D01*
X191921158Y-73199500D01*
X191921155Y-73199500D01*
X191766510Y-73230261D01*
X191766498Y-73230264D01*
X191620827Y-73290602D01*
X191620814Y-73290609D01*
X191489711Y-73378210D01*
X191489707Y-73378213D01*
X191378213Y-73489707D01*
X191378210Y-73489711D01*
X191290609Y-73620814D01*
X191290602Y-73620827D01*
X191230264Y-73766498D01*
X191230261Y-73766510D01*
X191199500Y-73921153D01*
X159982520Y-73921153D01*
X157786819Y-71725451D01*
X157753334Y-71664128D01*
X157750500Y-71637770D01*
X157750500Y-69304604D01*
X157759939Y-69257151D01*
X157769737Y-69233497D01*
X157800500Y-69078842D01*
X157800500Y-68921158D01*
X157800500Y-68921155D01*
X157800499Y-68921153D01*
X157772908Y-68782445D01*
X157769737Y-68766503D01*
X157769735Y-68766498D01*
X157709397Y-68620827D01*
X157709390Y-68620814D01*
X157621789Y-68489711D01*
X157621786Y-68489707D01*
X157510292Y-68378213D01*
X157510288Y-68378210D01*
X157379185Y-68290609D01*
X157379172Y-68290602D01*
X157233501Y-68230264D01*
X157233489Y-68230261D01*
X157078845Y-68199500D01*
X157078842Y-68199500D01*
X156921158Y-68199500D01*
X156921155Y-68199500D01*
X156766510Y-68230261D01*
X156766498Y-68230264D01*
X156620827Y-68290602D01*
X156620814Y-68290609D01*
X156489711Y-68378210D01*
X156489707Y-68378213D01*
X156378213Y-68489707D01*
X156378210Y-68489711D01*
X156290609Y-68620814D01*
X156290602Y-68620827D01*
X156230264Y-68766498D01*
X156230261Y-68766510D01*
X156199500Y-68921153D01*
X153000000Y-68921153D01*
X153000000Y-67868872D01*
X168999500Y-67868872D01*
X168999500Y-68131127D01*
X169021800Y-68300499D01*
X169033730Y-68391116D01*
X169095277Y-68620814D01*
X169101602Y-68644418D01*
X169101605Y-68644428D01*
X169201953Y-68886690D01*
X169201958Y-68886700D01*
X169333075Y-69113803D01*
X169492718Y-69321851D01*
X169492726Y-69321860D01*
X169678140Y-69507274D01*
X169678148Y-69507281D01*
X169886196Y-69666924D01*
X170113299Y-69798041D01*
X170113309Y-69798046D01*
X170355571Y-69898394D01*
X170355581Y-69898398D01*
X170608884Y-69966270D01*
X170868880Y-70000500D01*
X170868887Y-70000500D01*
X171131113Y-70000500D01*
X171131120Y-70000500D01*
X171391116Y-69966270D01*
X171644419Y-69898398D01*
X171886697Y-69798043D01*
X172113803Y-69666924D01*
X172321851Y-69507282D01*
X172321855Y-69507277D01*
X172321860Y-69507274D01*
X172507274Y-69321860D01*
X172507277Y-69321855D01*
X172507282Y-69321851D01*
X172666924Y-69113803D01*
X172798043Y-68886697D01*
X172898398Y-68644419D01*
X172966270Y-68391116D01*
X173000500Y-68131120D01*
X173000500Y-67868880D01*
X172966270Y-67608884D01*
X172915968Y-67421153D01*
X184199500Y-67421153D01*
X184199500Y-67578846D01*
X184230261Y-67733489D01*
X184230264Y-67733501D01*
X184290602Y-67879172D01*
X184290609Y-67879185D01*
X184378210Y-68010288D01*
X184378213Y-68010292D01*
X184489707Y-68121786D01*
X184489711Y-68121789D01*
X184620814Y-68209390D01*
X184620827Y-68209397D01*
X184766498Y-68269735D01*
X184766503Y-68269737D01*
X184921153Y-68300499D01*
X184921156Y-68300500D01*
X184921158Y-68300500D01*
X185078844Y-68300500D01*
X185078845Y-68300499D01*
X185233497Y-68269737D01*
X185379179Y-68209394D01*
X185510289Y-68121789D01*
X185621789Y-68010289D01*
X185709394Y-67879179D01*
X185713658Y-67868886D01*
X185769735Y-67733501D01*
X185769737Y-67733497D01*
X185800500Y-67578842D01*
X185800500Y-67421158D01*
X185800500Y-67421155D01*
X185800499Y-67421153D01*
X185769738Y-67266510D01*
X185769737Y-67266503D01*
X185731326Y-67173770D01*
X185709397Y-67120827D01*
X185709390Y-67120814D01*
X185621789Y-66989711D01*
X185621786Y-66989707D01*
X185510292Y-66878213D01*
X185510288Y-66878210D01*
X185379185Y-66790609D01*
X185379172Y-66790602D01*
X185233501Y-66730264D01*
X185233489Y-66730261D01*
X185078845Y-66699500D01*
X185078842Y-66699500D01*
X184921158Y-66699500D01*
X184921155Y-66699500D01*
X184766510Y-66730261D01*
X184766498Y-66730264D01*
X184620827Y-66790602D01*
X184620814Y-66790609D01*
X184489711Y-66878210D01*
X184489707Y-66878213D01*
X184378213Y-66989707D01*
X184378210Y-66989711D01*
X184290609Y-67120814D01*
X184290602Y-67120827D01*
X184230264Y-67266498D01*
X184230261Y-67266510D01*
X184199500Y-67421153D01*
X172915968Y-67421153D01*
X172898398Y-67355581D01*
X172823093Y-67173779D01*
X172798046Y-67113309D01*
X172798041Y-67113299D01*
X172666924Y-66886196D01*
X172507281Y-66678148D01*
X172507274Y-66678140D01*
X172321860Y-66492726D01*
X172321851Y-66492718D01*
X172113803Y-66333075D01*
X171886700Y-66201958D01*
X171886690Y-66201953D01*
X171644428Y-66101605D01*
X171644421Y-66101603D01*
X171644419Y-66101602D01*
X171391116Y-66033730D01*
X171333339Y-66026123D01*
X171131127Y-65999500D01*
X171131120Y-65999500D01*
X170868880Y-65999500D01*
X170868872Y-65999500D01*
X170637772Y-66029926D01*
X170608884Y-66033730D01*
X170355581Y-66101602D01*
X170355571Y-66101605D01*
X170113309Y-66201953D01*
X170113299Y-66201958D01*
X169886196Y-66333075D01*
X169678148Y-66492718D01*
X169492718Y-66678148D01*
X169333075Y-66886196D01*
X169201958Y-67113299D01*
X169201953Y-67113309D01*
X169101605Y-67355571D01*
X169101602Y-67355581D01*
X169033730Y-67608885D01*
X168999500Y-67868872D01*
X153000000Y-67868872D01*
X153000000Y-64120756D01*
X199749500Y-64120756D01*
X199749500Y-64579243D01*
X199789460Y-65035985D01*
X199789460Y-65035987D01*
X199869072Y-65487489D01*
X199869074Y-65487499D01*
X199987739Y-65930360D01*
X199987742Y-65930370D01*
X199987743Y-65930371D01*
X200144546Y-66361189D01*
X200144550Y-66361199D01*
X200338308Y-66776711D01*
X200338316Y-66776727D01*
X200401519Y-66886197D01*
X200567555Y-67173779D01*
X200567559Y-67173785D01*
X200567566Y-67173796D01*
X200830530Y-67549348D01*
X200880487Y-67608884D01*
X201125237Y-67900566D01*
X201449434Y-68224763D01*
X201539693Y-68300499D01*
X201800651Y-68519469D01*
X202176203Y-68782433D01*
X202176210Y-68782437D01*
X202176221Y-68782445D01*
X202573279Y-69011687D01*
X202573288Y-69011691D01*
X202988800Y-69205449D01*
X202988810Y-69205453D01*
X203130851Y-69257151D01*
X203419640Y-69362261D01*
X203862501Y-69480926D01*
X204314019Y-69560540D01*
X204770756Y-69600499D01*
X204770757Y-69600500D01*
X204770758Y-69600500D01*
X205229243Y-69600500D01*
X205229243Y-69600499D01*
X205685981Y-69560540D01*
X206137499Y-69480926D01*
X206580360Y-69362261D01*
X207011194Y-69205451D01*
X207011199Y-69205449D01*
X207282698Y-69078846D01*
X207426721Y-69011687D01*
X207823779Y-68782445D01*
X208199347Y-68519470D01*
X208550566Y-68224763D01*
X208874763Y-67900566D01*
X209169470Y-67549347D01*
X209432445Y-67173779D01*
X209661687Y-66776721D01*
X209855451Y-66361194D01*
X209865686Y-66333075D01*
X209913408Y-66201957D01*
X210012261Y-65930360D01*
X210130926Y-65487499D01*
X210210540Y-65035981D01*
X210250500Y-64579242D01*
X210250500Y-64120758D01*
X210210540Y-63664019D01*
X210130926Y-63212501D01*
X210012261Y-62769640D01*
X209887173Y-62425961D01*
X209855453Y-62338810D01*
X209855449Y-62338800D01*
X209661691Y-61923288D01*
X209661683Y-61923272D01*
X209647288Y-61898340D01*
X209432445Y-61526221D01*
X209432437Y-61526210D01*
X209432433Y-61526203D01*
X209169469Y-61150651D01*
X208874760Y-60799431D01*
X208550568Y-60475239D01*
X208199348Y-60180530D01*
X207823796Y-59917566D01*
X207823785Y-59917559D01*
X207823779Y-59917555D01*
X207705810Y-59849445D01*
X207426727Y-59688316D01*
X207426711Y-59688308D01*
X207011199Y-59494550D01*
X207011189Y-59494546D01*
X206580371Y-59337743D01*
X206580370Y-59337742D01*
X206580360Y-59337739D01*
X206256165Y-59250870D01*
X206137500Y-59219074D01*
X206137489Y-59219072D01*
X205685986Y-59139460D01*
X205229243Y-59099500D01*
X205229242Y-59099500D01*
X204770758Y-59099500D01*
X204770757Y-59099500D01*
X204314014Y-59139460D01*
X204314012Y-59139460D01*
X203862510Y-59219072D01*
X203862499Y-59219074D01*
X203625169Y-59282667D01*
X203419640Y-59337739D01*
X203419633Y-59337741D01*
X203419628Y-59337743D01*
X202988810Y-59494546D01*
X202988800Y-59494550D01*
X202573288Y-59688308D01*
X202573272Y-59688316D01*
X202176229Y-59917550D01*
X202176203Y-59917566D01*
X201800651Y-60180530D01*
X201449431Y-60475239D01*
X201125239Y-60799431D01*
X200830530Y-61150651D01*
X200567566Y-61526203D01*
X200567550Y-61526229D01*
X200338316Y-61923272D01*
X200338308Y-61923288D01*
X200144550Y-62338800D01*
X200144546Y-62338810D01*
X199987743Y-62769628D01*
X199987739Y-62769640D01*
X199949779Y-62911309D01*
X199869074Y-63212499D01*
X199869072Y-63212510D01*
X199789460Y-63664012D01*
X199789460Y-63664014D01*
X199749500Y-64120756D01*
X153000000Y-64120756D01*
X153000000Y-62911304D01*
X160099500Y-62911304D01*
X160099500Y-63088695D01*
X160134103Y-63262658D01*
X160134106Y-63262667D01*
X160201983Y-63426540D01*
X160201990Y-63426553D01*
X160300535Y-63574034D01*
X160300538Y-63574038D01*
X160425961Y-63699461D01*
X160425965Y-63699464D01*
X160573446Y-63798009D01*
X160573459Y-63798016D01*
X160696363Y-63848923D01*
X160737334Y-63865894D01*
X160737336Y-63865894D01*
X160737341Y-63865896D01*
X160911304Y-63900499D01*
X160911307Y-63900500D01*
X160911309Y-63900500D01*
X161088693Y-63900500D01*
X161088694Y-63900499D01*
X161146682Y-63888964D01*
X161262658Y-63865896D01*
X161262661Y-63865894D01*
X161262666Y-63865894D01*
X161426547Y-63798013D01*
X161574035Y-63699464D01*
X161699464Y-63574035D01*
X161798013Y-63426547D01*
X161865894Y-63262666D01*
X161900500Y-63088691D01*
X161900500Y-62911309D01*
X161900500Y-62911306D01*
X161900499Y-62911304D01*
X161865896Y-62737341D01*
X161865893Y-62737332D01*
X161798016Y-62573459D01*
X161798009Y-62573446D01*
X161699464Y-62425965D01*
X161699461Y-62425961D01*
X161574038Y-62300538D01*
X161574034Y-62300535D01*
X161426553Y-62201990D01*
X161426540Y-62201983D01*
X161262667Y-62134106D01*
X161262658Y-62134103D01*
X161088694Y-62099500D01*
X161088691Y-62099500D01*
X160911309Y-62099500D01*
X160911306Y-62099500D01*
X160737341Y-62134103D01*
X160737332Y-62134106D01*
X160573459Y-62201983D01*
X160573446Y-62201990D01*
X160425965Y-62300535D01*
X160425961Y-62300538D01*
X160300538Y-62425961D01*
X160300535Y-62425965D01*
X160201990Y-62573446D01*
X160201983Y-62573459D01*
X160134106Y-62737332D01*
X160134103Y-62737341D01*
X160099500Y-62911304D01*
X153000000Y-62911304D01*
X153000000Y-58124500D01*
X153019685Y-58057461D01*
X153072489Y-58011706D01*
X153124000Y-58000500D01*
X211875500Y-58000500D01*
X211942539Y-58020185D01*
G37*
%TD.AperFunction*%
%TD*%
%TA.AperFunction,Conductor*%
%TO.N,GNDPWR*%
G36*
X147443039Y-58020185D02*
G01*
X147488794Y-58072989D01*
X147500000Y-58124500D01*
X147500000Y-141875500D01*
X147480315Y-141942539D01*
X147427511Y-141988294D01*
X147376000Y-141999500D01*
X88124500Y-141999500D01*
X88057461Y-141979815D01*
X88011706Y-141927011D01*
X88000500Y-141875500D01*
X88000500Y-134770756D01*
X89749500Y-134770756D01*
X89749500Y-135229243D01*
X89789460Y-135685985D01*
X89789460Y-135685987D01*
X89864896Y-136113803D01*
X89869074Y-136137499D01*
X89987739Y-136580360D01*
X89987742Y-136580370D01*
X89987743Y-136580371D01*
X90144546Y-137011189D01*
X90144550Y-137011199D01*
X90338308Y-137426711D01*
X90338313Y-137426721D01*
X90567555Y-137823779D01*
X90567559Y-137823785D01*
X90567566Y-137823796D01*
X90830530Y-138199348D01*
X91043544Y-138453208D01*
X91125237Y-138550566D01*
X91449434Y-138874763D01*
X91595469Y-138997301D01*
X91800651Y-139169469D01*
X92176203Y-139432433D01*
X92176210Y-139432437D01*
X92176221Y-139432445D01*
X92573279Y-139661687D01*
X92573288Y-139661691D01*
X92988800Y-139855449D01*
X92988810Y-139855453D01*
X93188060Y-139927973D01*
X93419640Y-140012261D01*
X93862501Y-140130926D01*
X94314019Y-140210540D01*
X94770756Y-140250499D01*
X94770757Y-140250500D01*
X94770758Y-140250500D01*
X95229243Y-140250500D01*
X95229243Y-140250499D01*
X95685981Y-140210540D01*
X96137499Y-140130926D01*
X96580360Y-140012261D01*
X97011194Y-139855451D01*
X97011199Y-139855449D01*
X97149703Y-139790863D01*
X97426721Y-139661687D01*
X97823779Y-139432445D01*
X98199347Y-139169470D01*
X98550566Y-138874763D01*
X98874763Y-138550566D01*
X99169470Y-138199347D01*
X99432445Y-137823779D01*
X99661687Y-137426721D01*
X99855451Y-137011194D01*
X100012261Y-136580360D01*
X100130926Y-136137499D01*
X100210540Y-135685981D01*
X100250500Y-135229242D01*
X100250500Y-134868872D01*
X123499500Y-134868872D01*
X123499500Y-135131127D01*
X123512418Y-135229242D01*
X123533730Y-135391116D01*
X123601602Y-135644418D01*
X123601605Y-135644428D01*
X123701953Y-135886690D01*
X123701958Y-135886700D01*
X123833075Y-136113803D01*
X123992718Y-136321851D01*
X123992726Y-136321860D01*
X124178140Y-136507274D01*
X124178148Y-136507281D01*
X124386196Y-136666924D01*
X124613299Y-136798041D01*
X124613309Y-136798046D01*
X124855571Y-136898394D01*
X124855581Y-136898398D01*
X125108884Y-136966270D01*
X125368880Y-137000500D01*
X125368887Y-137000500D01*
X125631113Y-137000500D01*
X125631120Y-137000500D01*
X125891116Y-136966270D01*
X126144419Y-136898398D01*
X126386697Y-136798043D01*
X126613803Y-136666924D01*
X126821851Y-136507282D01*
X126821855Y-136507277D01*
X126821860Y-136507274D01*
X127007274Y-136321860D01*
X127007277Y-136321855D01*
X127007282Y-136321851D01*
X127166924Y-136113803D01*
X127298043Y-135886697D01*
X127398398Y-135644419D01*
X127466270Y-135391116D01*
X127500500Y-135131120D01*
X127500500Y-134868880D01*
X127466270Y-134608884D01*
X127398398Y-134355581D01*
X127398394Y-134355571D01*
X127298046Y-134113309D01*
X127298041Y-134113299D01*
X127166924Y-133886196D01*
X127007281Y-133678148D01*
X127007274Y-133678140D01*
X126821860Y-133492726D01*
X126821851Y-133492718D01*
X126613803Y-133333075D01*
X126386700Y-133201958D01*
X126386690Y-133201953D01*
X126144428Y-133101605D01*
X126144421Y-133101603D01*
X126144419Y-133101602D01*
X125891116Y-133033730D01*
X125833339Y-133026123D01*
X125631127Y-132999500D01*
X125631120Y-132999500D01*
X125368880Y-132999500D01*
X125368872Y-132999500D01*
X125137772Y-133029926D01*
X125108884Y-133033730D01*
X124940508Y-133078846D01*
X124855581Y-133101602D01*
X124855571Y-133101605D01*
X124613309Y-133201953D01*
X124613299Y-133201958D01*
X124386196Y-133333075D01*
X124178148Y-133492718D01*
X123992718Y-133678148D01*
X123833075Y-133886196D01*
X123701958Y-134113299D01*
X123701953Y-134113309D01*
X123601605Y-134355571D01*
X123601602Y-134355581D01*
X123533730Y-134608885D01*
X123499500Y-134868872D01*
X100250500Y-134868872D01*
X100250500Y-134770758D01*
X100210540Y-134314019D01*
X100130926Y-133862501D01*
X100012261Y-133419640D01*
X99927973Y-133188060D01*
X99855453Y-132988810D01*
X99855449Y-132988800D01*
X99661691Y-132573288D01*
X99661683Y-132573272D01*
X99621788Y-132504172D01*
X99432445Y-132176221D01*
X99432437Y-132176210D01*
X99432433Y-132176203D01*
X99169469Y-131800651D01*
X98874760Y-131449431D01*
X98550568Y-131125239D01*
X98199348Y-130830530D01*
X97823796Y-130567566D01*
X97823785Y-130567559D01*
X97823779Y-130567555D01*
X97495830Y-130378213D01*
X97426727Y-130338316D01*
X97426711Y-130338308D01*
X97011199Y-130144550D01*
X97011189Y-130144546D01*
X96580371Y-129987743D01*
X96580370Y-129987742D01*
X96580360Y-129987739D01*
X96256165Y-129900870D01*
X96137500Y-129869074D01*
X96137489Y-129869072D01*
X95685986Y-129789460D01*
X95229243Y-129749500D01*
X95229242Y-129749500D01*
X94770758Y-129749500D01*
X94770757Y-129749500D01*
X94314014Y-129789460D01*
X94314012Y-129789460D01*
X93862510Y-129869072D01*
X93862499Y-129869074D01*
X93625169Y-129932667D01*
X93419640Y-129987739D01*
X93419633Y-129987741D01*
X93419628Y-129987743D01*
X92988810Y-130144546D01*
X92988800Y-130144550D01*
X92573288Y-130338308D01*
X92573272Y-130338316D01*
X92176229Y-130567550D01*
X92176203Y-130567566D01*
X91800651Y-130830530D01*
X91449431Y-131125239D01*
X91125239Y-131449431D01*
X90830530Y-131800651D01*
X90567566Y-132176203D01*
X90567550Y-132176229D01*
X90338316Y-132573272D01*
X90338308Y-132573288D01*
X90144550Y-132988800D01*
X90144546Y-132988810D01*
X90002463Y-133379185D01*
X89987739Y-133419640D01*
X89968158Y-133492718D01*
X89869074Y-133862499D01*
X89869072Y-133862510D01*
X89789460Y-134314012D01*
X89789460Y-134314014D01*
X89749500Y-134770756D01*
X88000500Y-134770756D01*
X88000500Y-107673713D01*
X91149500Y-107673713D01*
X91149500Y-107886286D01*
X91169140Y-108010292D01*
X91182754Y-108096243D01*
X91239126Y-108269738D01*
X91248444Y-108298414D01*
X91344951Y-108487820D01*
X91469890Y-108659786D01*
X91620213Y-108810109D01*
X91792179Y-108935048D01*
X91792181Y-108935049D01*
X91792184Y-108935051D01*
X91981588Y-109031557D01*
X92183757Y-109097246D01*
X92393713Y-109130500D01*
X92393714Y-109130500D01*
X92606286Y-109130500D01*
X92606287Y-109130500D01*
X92816243Y-109097246D01*
X93018412Y-109031557D01*
X93207816Y-108935051D01*
X93229789Y-108919086D01*
X93379786Y-108810109D01*
X93379788Y-108810106D01*
X93379792Y-108810104D01*
X93530104Y-108659792D01*
X93530106Y-108659788D01*
X93530109Y-108659786D01*
X93655048Y-108487820D01*
X93655047Y-108487820D01*
X93655051Y-108487816D01*
X93751557Y-108298412D01*
X93817246Y-108096243D01*
X93850500Y-107886287D01*
X93850500Y-107673713D01*
X93817246Y-107463757D01*
X93751557Y-107261588D01*
X93655051Y-107072184D01*
X93655049Y-107072181D01*
X93655048Y-107072179D01*
X93530109Y-106900213D01*
X93379786Y-106749890D01*
X93207820Y-106624951D01*
X93018414Y-106528444D01*
X93018413Y-106528443D01*
X93018412Y-106528443D01*
X92816243Y-106462754D01*
X92816241Y-106462753D01*
X92816240Y-106462753D01*
X92654957Y-106437208D01*
X92606287Y-106429500D01*
X92393713Y-106429500D01*
X92345042Y-106437208D01*
X92183760Y-106462753D01*
X91981585Y-106528444D01*
X91792179Y-106624951D01*
X91620213Y-106749890D01*
X91469890Y-106900213D01*
X91344951Y-107072179D01*
X91248444Y-107261585D01*
X91182753Y-107463760D01*
X91149500Y-107673713D01*
X88000500Y-107673713D01*
X88000500Y-102593713D01*
X91149500Y-102593713D01*
X91149500Y-102806287D01*
X91182754Y-103016243D01*
X91214810Y-103114902D01*
X91248444Y-103218414D01*
X91344951Y-103407820D01*
X91469890Y-103579786D01*
X91620213Y-103730109D01*
X91792179Y-103855048D01*
X91792181Y-103855049D01*
X91792184Y-103855051D01*
X91981588Y-103951557D01*
X92183757Y-104017246D01*
X92393713Y-104050500D01*
X92393714Y-104050500D01*
X92606286Y-104050500D01*
X92606287Y-104050500D01*
X92816243Y-104017246D01*
X93018412Y-103951557D01*
X93207816Y-103855051D01*
X93229789Y-103839086D01*
X93379786Y-103730109D01*
X93379788Y-103730106D01*
X93379792Y-103730104D01*
X93530104Y-103579792D01*
X93530106Y-103579788D01*
X93530109Y-103579786D01*
X93655048Y-103407820D01*
X93655047Y-103407820D01*
X93655051Y-103407816D01*
X93751557Y-103218412D01*
X93817246Y-103016243D01*
X93850500Y-102806287D01*
X93850500Y-102593713D01*
X93817246Y-102383757D01*
X93751557Y-102181588D01*
X93655051Y-101992184D01*
X93655049Y-101992181D01*
X93655048Y-101992179D01*
X93530109Y-101820213D01*
X93379786Y-101669890D01*
X93207820Y-101544951D01*
X93018414Y-101448444D01*
X93018413Y-101448443D01*
X93018412Y-101448443D01*
X92816243Y-101382754D01*
X92816241Y-101382753D01*
X92816240Y-101382753D01*
X92654957Y-101357208D01*
X92606287Y-101349500D01*
X92393713Y-101349500D01*
X92345042Y-101357208D01*
X92183760Y-101382753D01*
X91981585Y-101448444D01*
X91792179Y-101544951D01*
X91620213Y-101669890D01*
X91469890Y-101820213D01*
X91344951Y-101992179D01*
X91248444Y-102181585D01*
X91182753Y-102383760D01*
X91149500Y-102593713D01*
X88000500Y-102593713D01*
X88000500Y-97513713D01*
X91149500Y-97513713D01*
X91149500Y-97726286D01*
X91182753Y-97936239D01*
X91248444Y-98138414D01*
X91344951Y-98327820D01*
X91469890Y-98499786D01*
X91620213Y-98650109D01*
X91792179Y-98775048D01*
X91792181Y-98775049D01*
X91792184Y-98775051D01*
X91981588Y-98871557D01*
X92183757Y-98937246D01*
X92393713Y-98970500D01*
X92393714Y-98970500D01*
X92606286Y-98970500D01*
X92606287Y-98970500D01*
X92816243Y-98937246D01*
X93018412Y-98871557D01*
X93207816Y-98775051D01*
X93229789Y-98759086D01*
X93379786Y-98650109D01*
X93379788Y-98650106D01*
X93379792Y-98650104D01*
X93530104Y-98499792D01*
X93530106Y-98499788D01*
X93530109Y-98499786D01*
X93655048Y-98327820D01*
X93655047Y-98327820D01*
X93655051Y-98327816D01*
X93751557Y-98138412D01*
X93817246Y-97936243D01*
X93850500Y-97726287D01*
X93850500Y-97513713D01*
X93817246Y-97303757D01*
X93751557Y-97101588D01*
X93655051Y-96912184D01*
X93655049Y-96912181D01*
X93655048Y-96912179D01*
X93530109Y-96740213D01*
X93379786Y-96589890D01*
X93207820Y-96464951D01*
X93018414Y-96368444D01*
X93018413Y-96368443D01*
X93018412Y-96368443D01*
X92816243Y-96302754D01*
X92816241Y-96302753D01*
X92816240Y-96302753D01*
X92654957Y-96277208D01*
X92606287Y-96269500D01*
X92393713Y-96269500D01*
X92345042Y-96277208D01*
X92183760Y-96302753D01*
X92183757Y-96302754D01*
X92021352Y-96355523D01*
X91981585Y-96368444D01*
X91792179Y-96464951D01*
X91620213Y-96589890D01*
X91469890Y-96740213D01*
X91344951Y-96912179D01*
X91248444Y-97101585D01*
X91182753Y-97303760D01*
X91149500Y-97513713D01*
X88000500Y-97513713D01*
X88000500Y-92433713D01*
X91149500Y-92433713D01*
X91149500Y-92646286D01*
X91182753Y-92856239D01*
X91248444Y-93058414D01*
X91344951Y-93247820D01*
X91469890Y-93419786D01*
X91620213Y-93570109D01*
X91792179Y-93695048D01*
X91792181Y-93695049D01*
X91792184Y-93695051D01*
X91981588Y-93791557D01*
X92183757Y-93857246D01*
X92393713Y-93890500D01*
X92393714Y-93890500D01*
X92606286Y-93890500D01*
X92606287Y-93890500D01*
X92816243Y-93857246D01*
X93018412Y-93791557D01*
X93207816Y-93695051D01*
X93232376Y-93677207D01*
X93379786Y-93570109D01*
X93379788Y-93570106D01*
X93379792Y-93570104D01*
X93530104Y-93419792D01*
X93530106Y-93419788D01*
X93530109Y-93419786D01*
X93655048Y-93247820D01*
X93655047Y-93247820D01*
X93655051Y-93247816D01*
X93751557Y-93058412D01*
X93817246Y-92856243D01*
X93850500Y-92646287D01*
X93850500Y-92433713D01*
X93848511Y-92421158D01*
X93848510Y-92421153D01*
X106199500Y-92421153D01*
X106199500Y-92578846D01*
X106230261Y-92733489D01*
X106230263Y-92733497D01*
X106240061Y-92757151D01*
X106249500Y-92804604D01*
X106249500Y-133195396D01*
X106240062Y-133242844D01*
X106230263Y-133266503D01*
X106230262Y-133266506D01*
X106230260Y-133266511D01*
X106199500Y-133421153D01*
X106199500Y-133578846D01*
X106230261Y-133733489D01*
X106230264Y-133733501D01*
X106290602Y-133879172D01*
X106290609Y-133879185D01*
X106378210Y-134010288D01*
X106378213Y-134010292D01*
X106489707Y-134121786D01*
X106489711Y-134121789D01*
X106620814Y-134209390D01*
X106620827Y-134209397D01*
X106766498Y-134269735D01*
X106766503Y-134269737D01*
X106921153Y-134300499D01*
X106921156Y-134300500D01*
X106921158Y-134300500D01*
X107078844Y-134300500D01*
X107078845Y-134300499D01*
X107233497Y-134269737D01*
X107379179Y-134209394D01*
X107510289Y-134121789D01*
X107621789Y-134010289D01*
X107709394Y-133879179D01*
X107716299Y-133862510D01*
X107741984Y-133800499D01*
X107769737Y-133733497D01*
X107800500Y-133578842D01*
X107800500Y-133421158D01*
X107800500Y-133421155D01*
X107800499Y-133421153D01*
X107769739Y-133266511D01*
X107769738Y-133266508D01*
X107769737Y-133266503D01*
X107759937Y-133242844D01*
X107750500Y-133195396D01*
X107750500Y-130921153D01*
X127199500Y-130921153D01*
X127199500Y-131078846D01*
X127230261Y-131233489D01*
X127230264Y-131233501D01*
X127290602Y-131379172D01*
X127290609Y-131379185D01*
X127378210Y-131510288D01*
X127378213Y-131510292D01*
X127489707Y-131621786D01*
X127489711Y-131621789D01*
X127620814Y-131709390D01*
X127620827Y-131709397D01*
X127766498Y-131769735D01*
X127766503Y-131769737D01*
X127921153Y-131800499D01*
X127921156Y-131800500D01*
X127921158Y-131800500D01*
X128078844Y-131800500D01*
X128078845Y-131800499D01*
X128233497Y-131769737D01*
X128379179Y-131709394D01*
X128510289Y-131621789D01*
X128621789Y-131510289D01*
X128709394Y-131379179D01*
X128769737Y-131233497D01*
X128800500Y-131078842D01*
X128800500Y-130921158D01*
X128800500Y-130921155D01*
X128800499Y-130921153D01*
X128769738Y-130766510D01*
X128769737Y-130766503D01*
X128769735Y-130766498D01*
X128709397Y-130620827D01*
X128709390Y-130620814D01*
X128621789Y-130489711D01*
X128621786Y-130489707D01*
X128510292Y-130378213D01*
X128510288Y-130378210D01*
X128379185Y-130290609D01*
X128379172Y-130290602D01*
X128233501Y-130230264D01*
X128233489Y-130230261D01*
X128078845Y-130199500D01*
X128078842Y-130199500D01*
X127921158Y-130199500D01*
X127921155Y-130199500D01*
X127766510Y-130230261D01*
X127766498Y-130230264D01*
X127620827Y-130290602D01*
X127620814Y-130290609D01*
X127489711Y-130378210D01*
X127489707Y-130378213D01*
X127378213Y-130489707D01*
X127378210Y-130489711D01*
X127290609Y-130620814D01*
X127290602Y-130620827D01*
X127230264Y-130766498D01*
X127230261Y-130766510D01*
X127199500Y-130921153D01*
X107750500Y-130921153D01*
X107750500Y-128921153D01*
X127199500Y-128921153D01*
X127199500Y-129078846D01*
X127230261Y-129233489D01*
X127230264Y-129233501D01*
X127290602Y-129379172D01*
X127290609Y-129379185D01*
X127378210Y-129510288D01*
X127378213Y-129510292D01*
X127489707Y-129621786D01*
X127489711Y-129621789D01*
X127620814Y-129709390D01*
X127620827Y-129709397D01*
X127717646Y-129749500D01*
X127766503Y-129769737D01*
X127865657Y-129789460D01*
X127921153Y-129800499D01*
X127921156Y-129800500D01*
X127921158Y-129800500D01*
X128078844Y-129800500D01*
X128078845Y-129800499D01*
X128155152Y-129785320D01*
X128233488Y-129769739D01*
X128233489Y-129769738D01*
X128233497Y-129769737D01*
X128257155Y-129759937D01*
X128304604Y-129750500D01*
X138637770Y-129750500D01*
X138704809Y-129770185D01*
X138725451Y-129786819D01*
X142253926Y-133315293D01*
X142280805Y-133355519D01*
X142290603Y-133379172D01*
X142290606Y-133379178D01*
X142290609Y-133379185D01*
X142378210Y-133510288D01*
X142378213Y-133510292D01*
X142489707Y-133621786D01*
X142489711Y-133621789D01*
X142620814Y-133709390D01*
X142620827Y-133709397D01*
X142766498Y-133769735D01*
X142766503Y-133769737D01*
X142921153Y-133800499D01*
X142921156Y-133800500D01*
X142921158Y-133800500D01*
X143078844Y-133800500D01*
X143078845Y-133800499D01*
X143233497Y-133769737D01*
X143379179Y-133709394D01*
X143510289Y-133621789D01*
X143621789Y-133510289D01*
X143709394Y-133379179D01*
X143769737Y-133233497D01*
X143800500Y-133078842D01*
X143800500Y-133049500D01*
X143820185Y-132982461D01*
X143872989Y-132936706D01*
X143924500Y-132925500D01*
X144078844Y-132925500D01*
X144078845Y-132925499D01*
X144233497Y-132894737D01*
X144379179Y-132834394D01*
X144510289Y-132746789D01*
X144621789Y-132635289D01*
X144709394Y-132504179D01*
X144769737Y-132358497D01*
X144800500Y-132203842D01*
X144800500Y-132046158D01*
X144800500Y-132046155D01*
X144800499Y-132046153D01*
X144788948Y-131988084D01*
X144769737Y-131891503D01*
X144732106Y-131800653D01*
X144709397Y-131745827D01*
X144709390Y-131745814D01*
X144621789Y-131614711D01*
X144621786Y-131614707D01*
X144510292Y-131503213D01*
X144510288Y-131503210D01*
X144379185Y-131415609D01*
X144379172Y-131415602D01*
X144233501Y-131355264D01*
X144233489Y-131355261D01*
X144078845Y-131324500D01*
X144078842Y-131324500D01*
X143921158Y-131324500D01*
X143921155Y-131324500D01*
X143766510Y-131355261D01*
X143766498Y-131355264D01*
X143620827Y-131415602D01*
X143620814Y-131415609D01*
X143489711Y-131503210D01*
X143489707Y-131503213D01*
X143378213Y-131614707D01*
X143378210Y-131614711D01*
X143290609Y-131745814D01*
X143290602Y-131745827D01*
X143230264Y-131891498D01*
X143230260Y-131891513D01*
X143229496Y-131895353D01*
X143228542Y-131897175D01*
X143228494Y-131897335D01*
X143228463Y-131897325D01*
X143197106Y-131957261D01*
X143136387Y-131991830D01*
X143066618Y-131988084D01*
X143020200Y-131958832D01*
X139478421Y-128417052D01*
X139478414Y-128417046D01*
X139404729Y-128367812D01*
X139404729Y-128367813D01*
X139355491Y-128334913D01*
X139218917Y-128278343D01*
X139218907Y-128278340D01*
X139073920Y-128249500D01*
X139073918Y-128249500D01*
X128304604Y-128249500D01*
X128257155Y-128240062D01*
X128233497Y-128230263D01*
X128233493Y-128230262D01*
X128233488Y-128230260D01*
X128078845Y-128199500D01*
X128078842Y-128199500D01*
X127921158Y-128199500D01*
X127921155Y-128199500D01*
X127766510Y-128230261D01*
X127766498Y-128230264D01*
X127620827Y-128290602D01*
X127620814Y-128290609D01*
X127489711Y-128378210D01*
X127489707Y-128378213D01*
X127378213Y-128489707D01*
X127378210Y-128489711D01*
X127290609Y-128620814D01*
X127290602Y-128620827D01*
X127230264Y-128766498D01*
X127230261Y-128766510D01*
X127199500Y-128921153D01*
X107750500Y-128921153D01*
X107750500Y-124358653D01*
X142199500Y-124358653D01*
X142199500Y-124516346D01*
X142230261Y-124670989D01*
X142230263Y-124670997D01*
X142240061Y-124694651D01*
X142249500Y-124742104D01*
X142249500Y-128695396D01*
X142240062Y-128742844D01*
X142230265Y-128766498D01*
X142230262Y-128766506D01*
X142230260Y-128766511D01*
X142199500Y-128921153D01*
X142199500Y-129078846D01*
X142230261Y-129233489D01*
X142230264Y-129233501D01*
X142290602Y-129379172D01*
X142290609Y-129379185D01*
X142378210Y-129510288D01*
X142378213Y-129510292D01*
X142489707Y-129621786D01*
X142489711Y-129621789D01*
X142620814Y-129709390D01*
X142620827Y-129709397D01*
X142717646Y-129749500D01*
X142766503Y-129769737D01*
X142865657Y-129789460D01*
X142921153Y-129800499D01*
X142921156Y-129800500D01*
X142921158Y-129800500D01*
X143078844Y-129800500D01*
X143078845Y-129800499D01*
X143233497Y-129769737D01*
X143379179Y-129709394D01*
X143510289Y-129621789D01*
X143621789Y-129510289D01*
X143709394Y-129379179D01*
X143769737Y-129233497D01*
X143800500Y-129078842D01*
X143800500Y-128921158D01*
X143800500Y-128921155D01*
X143800499Y-128921153D01*
X143769739Y-128766511D01*
X143769738Y-128766508D01*
X143769737Y-128766503D01*
X143759937Y-128742844D01*
X143750500Y-128695396D01*
X143750500Y-124742104D01*
X143759939Y-124694651D01*
X143769737Y-124670997D01*
X143800500Y-124516342D01*
X143800500Y-124358658D01*
X143800500Y-124358655D01*
X143800499Y-124358653D01*
X143769738Y-124204010D01*
X143769737Y-124204003D01*
X143769735Y-124203998D01*
X143709397Y-124058327D01*
X143709390Y-124058314D01*
X143621789Y-123927211D01*
X143621786Y-123927207D01*
X143510292Y-123815713D01*
X143510288Y-123815710D01*
X143379185Y-123728109D01*
X143379172Y-123728102D01*
X143233501Y-123667764D01*
X143233489Y-123667761D01*
X143078845Y-123637000D01*
X143078842Y-123637000D01*
X142921158Y-123637000D01*
X142921155Y-123637000D01*
X142766510Y-123667761D01*
X142766498Y-123667764D01*
X142620827Y-123728102D01*
X142620814Y-123728109D01*
X142489711Y-123815710D01*
X142489707Y-123815713D01*
X142378213Y-123927207D01*
X142378210Y-123927211D01*
X142290609Y-124058314D01*
X142290602Y-124058327D01*
X142230264Y-124203998D01*
X142230261Y-124204010D01*
X142199500Y-124358653D01*
X107750500Y-124358653D01*
X107750500Y-115868872D01*
X123499500Y-115868872D01*
X123499500Y-116131127D01*
X123526123Y-116333339D01*
X123533730Y-116391116D01*
X123601602Y-116644418D01*
X123601605Y-116644428D01*
X123701953Y-116886690D01*
X123701958Y-116886700D01*
X123833075Y-117113803D01*
X123992718Y-117321851D01*
X123992726Y-117321860D01*
X124178140Y-117507274D01*
X124178148Y-117507281D01*
X124386196Y-117666924D01*
X124613299Y-117798041D01*
X124613309Y-117798046D01*
X124855571Y-117898394D01*
X124855581Y-117898398D01*
X125108884Y-117966270D01*
X125368880Y-118000500D01*
X125368887Y-118000500D01*
X125631113Y-118000500D01*
X125631120Y-118000500D01*
X125891116Y-117966270D01*
X126144419Y-117898398D01*
X126386697Y-117798043D01*
X126613803Y-117666924D01*
X126821851Y-117507282D01*
X126821855Y-117507277D01*
X126821860Y-117507274D01*
X127007274Y-117321860D01*
X127007277Y-117321855D01*
X127007282Y-117321851D01*
X127166924Y-117113803D01*
X127298043Y-116886697D01*
X127398398Y-116644419D01*
X127466270Y-116391116D01*
X127500500Y-116131120D01*
X127500500Y-115868880D01*
X127466270Y-115608884D01*
X127398398Y-115355581D01*
X127347826Y-115233489D01*
X127298046Y-115113309D01*
X127298041Y-115113299D01*
X127166924Y-114886196D01*
X127007281Y-114678148D01*
X127007274Y-114678140D01*
X126821860Y-114492726D01*
X126821851Y-114492718D01*
X126613803Y-114333075D01*
X126386700Y-114201958D01*
X126386690Y-114201953D01*
X126144428Y-114101605D01*
X126144421Y-114101603D01*
X126144419Y-114101602D01*
X125891116Y-114033730D01*
X125833339Y-114026123D01*
X125631127Y-113999500D01*
X125631120Y-113999500D01*
X125368880Y-113999500D01*
X125368872Y-113999500D01*
X125137772Y-114029926D01*
X125108884Y-114033730D01*
X124940508Y-114078846D01*
X124855581Y-114101602D01*
X124855571Y-114101605D01*
X124613309Y-114201953D01*
X124613299Y-114201958D01*
X124386196Y-114333075D01*
X124178148Y-114492718D01*
X123992718Y-114678148D01*
X123833075Y-114886196D01*
X123701958Y-115113299D01*
X123701953Y-115113309D01*
X123601605Y-115355571D01*
X123601602Y-115355581D01*
X123537649Y-115594260D01*
X123533730Y-115608885D01*
X123499500Y-115868872D01*
X107750500Y-115868872D01*
X107750500Y-115681941D01*
X107770185Y-115614902D01*
X107822989Y-115569147D01*
X107892147Y-115559203D01*
X107955703Y-115588228D01*
X107962181Y-115594260D01*
X107989707Y-115621786D01*
X107989711Y-115621789D01*
X108120814Y-115709390D01*
X108120827Y-115709397D01*
X108266498Y-115769735D01*
X108266503Y-115769737D01*
X108421153Y-115800499D01*
X108421156Y-115800500D01*
X108421158Y-115800500D01*
X108578844Y-115800500D01*
X108578845Y-115800499D01*
X108733497Y-115769737D01*
X108754760Y-115760929D01*
X108780520Y-115750260D01*
X108879172Y-115709397D01*
X108879172Y-115709396D01*
X108879179Y-115709394D01*
X109010289Y-115621789D01*
X109121789Y-115510289D01*
X109209394Y-115379179D01*
X109269737Y-115233497D01*
X109300500Y-115078842D01*
X109300500Y-114921158D01*
X109300500Y-114921155D01*
X109300499Y-114921153D01*
X109269739Y-114766511D01*
X109269738Y-114766508D01*
X109269737Y-114766503D01*
X109259937Y-114742844D01*
X109250500Y-114695396D01*
X109250500Y-112921153D01*
X127199500Y-112921153D01*
X127199500Y-113078846D01*
X127230261Y-113233489D01*
X127230264Y-113233501D01*
X127290602Y-113379172D01*
X127290609Y-113379185D01*
X127378210Y-113510288D01*
X127378213Y-113510292D01*
X127489707Y-113621786D01*
X127489711Y-113621789D01*
X127620814Y-113709390D01*
X127620827Y-113709397D01*
X127758683Y-113766498D01*
X127766503Y-113769737D01*
X127921153Y-113800499D01*
X127921156Y-113800500D01*
X127921158Y-113800500D01*
X128078844Y-113800500D01*
X128078845Y-113800499D01*
X128233497Y-113769737D01*
X128379179Y-113709394D01*
X128510289Y-113621789D01*
X128621789Y-113510289D01*
X128709394Y-113379179D01*
X128769737Y-113233497D01*
X128800500Y-113078842D01*
X128800500Y-112921158D01*
X128800500Y-112921155D01*
X128800499Y-112921153D01*
X128769738Y-112766510D01*
X128769737Y-112766503D01*
X128769735Y-112766498D01*
X128709397Y-112620827D01*
X128709390Y-112620814D01*
X128621789Y-112489711D01*
X128621786Y-112489707D01*
X128510292Y-112378213D01*
X128510288Y-112378210D01*
X128379185Y-112290609D01*
X128379172Y-112290602D01*
X128233501Y-112230264D01*
X128233489Y-112230261D01*
X128078845Y-112199500D01*
X128078842Y-112199500D01*
X127921158Y-112199500D01*
X127921155Y-112199500D01*
X127766510Y-112230261D01*
X127766498Y-112230264D01*
X127620827Y-112290602D01*
X127620814Y-112290609D01*
X127489711Y-112378210D01*
X127489707Y-112378213D01*
X127378213Y-112489707D01*
X127378210Y-112489711D01*
X127290609Y-112620814D01*
X127290602Y-112620827D01*
X127230264Y-112766498D01*
X127230261Y-112766510D01*
X127199500Y-112921153D01*
X109250500Y-112921153D01*
X109250500Y-110921153D01*
X127199500Y-110921153D01*
X127199500Y-111078846D01*
X127230261Y-111233489D01*
X127230264Y-111233501D01*
X127290602Y-111379172D01*
X127290609Y-111379185D01*
X127378210Y-111510288D01*
X127378213Y-111510292D01*
X127489707Y-111621786D01*
X127489711Y-111621789D01*
X127620814Y-111709390D01*
X127620827Y-111709397D01*
X127720060Y-111750500D01*
X127766503Y-111769737D01*
X127921153Y-111800499D01*
X127921156Y-111800500D01*
X127921158Y-111800500D01*
X128078844Y-111800500D01*
X128078845Y-111800499D01*
X128155152Y-111785320D01*
X128233488Y-111769739D01*
X128233489Y-111769738D01*
X128233497Y-111769737D01*
X128257155Y-111759937D01*
X128304604Y-111750500D01*
X138637770Y-111750500D01*
X138704809Y-111770185D01*
X138725451Y-111786819D01*
X142253926Y-115315293D01*
X142280805Y-115355519D01*
X142290603Y-115379172D01*
X142290606Y-115379178D01*
X142290609Y-115379185D01*
X142378210Y-115510288D01*
X142378213Y-115510292D01*
X142489707Y-115621786D01*
X142489711Y-115621789D01*
X142620814Y-115709390D01*
X142620827Y-115709397D01*
X142766498Y-115769735D01*
X142766503Y-115769737D01*
X142921153Y-115800499D01*
X142921156Y-115800500D01*
X142921158Y-115800500D01*
X143078844Y-115800500D01*
X143078845Y-115800499D01*
X143233497Y-115769737D01*
X143379179Y-115709394D01*
X143510289Y-115621789D01*
X143621789Y-115510289D01*
X143709394Y-115379179D01*
X143769737Y-115233497D01*
X143800500Y-115078842D01*
X143800500Y-114924500D01*
X143820185Y-114857461D01*
X143872989Y-114811706D01*
X143924500Y-114800500D01*
X144078844Y-114800500D01*
X144078845Y-114800499D01*
X144233497Y-114769737D01*
X144379179Y-114709394D01*
X144510289Y-114621789D01*
X144621789Y-114510289D01*
X144709394Y-114379179D01*
X144769737Y-114233497D01*
X144800500Y-114078842D01*
X144800500Y-113921158D01*
X144800500Y-113921155D01*
X144800499Y-113921153D01*
X144769738Y-113766510D01*
X144769738Y-113766508D01*
X144769737Y-113766503D01*
X144709794Y-113621786D01*
X144709397Y-113620827D01*
X144709390Y-113620814D01*
X144621789Y-113489711D01*
X144621786Y-113489707D01*
X144510292Y-113378213D01*
X144510288Y-113378210D01*
X144379185Y-113290609D01*
X144379172Y-113290602D01*
X144233501Y-113230264D01*
X144233489Y-113230261D01*
X144078845Y-113199500D01*
X144078842Y-113199500D01*
X143921158Y-113199500D01*
X143921155Y-113199500D01*
X143766510Y-113230261D01*
X143766498Y-113230264D01*
X143620827Y-113290602D01*
X143620814Y-113290609D01*
X143489711Y-113378210D01*
X143489707Y-113378213D01*
X143378213Y-113489707D01*
X143378210Y-113489711D01*
X143290609Y-113620814D01*
X143290602Y-113620827D01*
X143230264Y-113766498D01*
X143230261Y-113766508D01*
X143208759Y-113874605D01*
X143176374Y-113936516D01*
X143115658Y-113971090D01*
X143045888Y-113967349D01*
X142999461Y-113938094D01*
X140064116Y-111002747D01*
X139982522Y-110921153D01*
X142199500Y-110921153D01*
X142199500Y-111078846D01*
X142230261Y-111233489D01*
X142230264Y-111233501D01*
X142290602Y-111379172D01*
X142290609Y-111379185D01*
X142378210Y-111510288D01*
X142378213Y-111510292D01*
X142489707Y-111621786D01*
X142489711Y-111621789D01*
X142620814Y-111709390D01*
X142620827Y-111709397D01*
X142720060Y-111750500D01*
X142766503Y-111769737D01*
X142921153Y-111800499D01*
X142921156Y-111800500D01*
X142921158Y-111800500D01*
X143078844Y-111800500D01*
X143078845Y-111800499D01*
X143233497Y-111769737D01*
X143379179Y-111709394D01*
X143510289Y-111621789D01*
X143621789Y-111510289D01*
X143709394Y-111379179D01*
X143719191Y-111355524D01*
X143746069Y-111315297D01*
X144082952Y-110978416D01*
X144132186Y-110904729D01*
X144165084Y-110855495D01*
X144221658Y-110718913D01*
X144250500Y-110573918D01*
X144250500Y-106292533D01*
X144259939Y-106245080D01*
X144264737Y-106233497D01*
X144295500Y-106078842D01*
X144295500Y-105921158D01*
X144295500Y-105921155D01*
X144295499Y-105921153D01*
X144264738Y-105766510D01*
X144264737Y-105766503D01*
X144264735Y-105766498D01*
X144204397Y-105620827D01*
X144204390Y-105620814D01*
X144116789Y-105489711D01*
X144116786Y-105489707D01*
X144005292Y-105378213D01*
X144005288Y-105378210D01*
X143874185Y-105290609D01*
X143874172Y-105290602D01*
X143728501Y-105230264D01*
X143728489Y-105230261D01*
X143573845Y-105199500D01*
X143573842Y-105199500D01*
X143416158Y-105199500D01*
X143416155Y-105199500D01*
X143261510Y-105230261D01*
X143261498Y-105230264D01*
X143115827Y-105290602D01*
X143115814Y-105290609D01*
X142984711Y-105378210D01*
X142984707Y-105378213D01*
X142873213Y-105489707D01*
X142873210Y-105489711D01*
X142785609Y-105620814D01*
X142785602Y-105620827D01*
X142725264Y-105766498D01*
X142725261Y-105766510D01*
X142694500Y-105921153D01*
X142694500Y-106078846D01*
X142725261Y-106233489D01*
X142725263Y-106233497D01*
X142740061Y-106269222D01*
X142749500Y-106316675D01*
X142749500Y-110137768D01*
X142740854Y-110167210D01*
X142734331Y-110197197D01*
X142730577Y-110202211D01*
X142729815Y-110204807D01*
X142713180Y-110225451D01*
X142684700Y-110253930D01*
X142644477Y-110280806D01*
X142620823Y-110290604D01*
X142620818Y-110290607D01*
X142489715Y-110378207D01*
X142489707Y-110378213D01*
X142378213Y-110489707D01*
X142378210Y-110489711D01*
X142290609Y-110620814D01*
X142290602Y-110620827D01*
X142230264Y-110766498D01*
X142230261Y-110766510D01*
X142199500Y-110921153D01*
X139982522Y-110921153D01*
X139478421Y-110417052D01*
X139478414Y-110417046D01*
X139404729Y-110367812D01*
X139404729Y-110367813D01*
X139355491Y-110334913D01*
X139218917Y-110278343D01*
X139218907Y-110278340D01*
X139073920Y-110249500D01*
X139073918Y-110249500D01*
X128304604Y-110249500D01*
X128257155Y-110240062D01*
X128233497Y-110230263D01*
X128233493Y-110230262D01*
X128233488Y-110230260D01*
X128078845Y-110199500D01*
X128078842Y-110199500D01*
X127921158Y-110199500D01*
X127921155Y-110199500D01*
X127766510Y-110230261D01*
X127766498Y-110230264D01*
X127620827Y-110290602D01*
X127620814Y-110290609D01*
X127489711Y-110378210D01*
X127489707Y-110378213D01*
X127378213Y-110489707D01*
X127378210Y-110489711D01*
X127290609Y-110620814D01*
X127290602Y-110620827D01*
X127230264Y-110766498D01*
X127230261Y-110766510D01*
X127199500Y-110921153D01*
X109250500Y-110921153D01*
X109250500Y-103181941D01*
X109270185Y-103114902D01*
X109322989Y-103069147D01*
X109392147Y-103059203D01*
X109455703Y-103088228D01*
X109462181Y-103094260D01*
X109489707Y-103121786D01*
X109489711Y-103121789D01*
X109620814Y-103209390D01*
X109620827Y-103209397D01*
X109766498Y-103269735D01*
X109766503Y-103269737D01*
X109921153Y-103300499D01*
X109921156Y-103300500D01*
X109921158Y-103300500D01*
X110078844Y-103300500D01*
X110078845Y-103300499D01*
X110233497Y-103269737D01*
X110357403Y-103218414D01*
X110379172Y-103209397D01*
X110379172Y-103209396D01*
X110379179Y-103209394D01*
X110510289Y-103121789D01*
X110517176Y-103114902D01*
X110537819Y-103094260D01*
X110599142Y-103060775D01*
X110668834Y-103065759D01*
X110724767Y-103107631D01*
X110749184Y-103173095D01*
X110749500Y-103181941D01*
X110749500Y-107195396D01*
X110740062Y-107242844D01*
X110732300Y-107261585D01*
X110730262Y-107266506D01*
X110730260Y-107266511D01*
X110699500Y-107421153D01*
X110699500Y-107578846D01*
X110730261Y-107733489D01*
X110730264Y-107733501D01*
X110790602Y-107879172D01*
X110790609Y-107879185D01*
X110878210Y-108010288D01*
X110878213Y-108010292D01*
X110989707Y-108121786D01*
X110989711Y-108121789D01*
X111120814Y-108209390D01*
X111120827Y-108209397D01*
X111266498Y-108269735D01*
X111266503Y-108269737D01*
X111410661Y-108298412D01*
X111421153Y-108300499D01*
X111421156Y-108300500D01*
X111421158Y-108300500D01*
X111578844Y-108300500D01*
X111578845Y-108300499D01*
X111733497Y-108269737D01*
X111879179Y-108209394D01*
X112010289Y-108121789D01*
X112121789Y-108010289D01*
X112209394Y-107879179D01*
X112269737Y-107733497D01*
X112300500Y-107578842D01*
X112300500Y-107421158D01*
X112300500Y-107421155D01*
X112300499Y-107421153D01*
X112269739Y-107266511D01*
X112269738Y-107266508D01*
X112269737Y-107266503D01*
X112259937Y-107242844D01*
X112250500Y-107195396D01*
X112250500Y-96868872D01*
X123499500Y-96868872D01*
X123499500Y-97131127D01*
X123522229Y-97303757D01*
X123533730Y-97391116D01*
X123566580Y-97513713D01*
X123601602Y-97644418D01*
X123601605Y-97644428D01*
X123701953Y-97886690D01*
X123701958Y-97886700D01*
X123833075Y-98113803D01*
X123992718Y-98321851D01*
X123992726Y-98321860D01*
X124178140Y-98507274D01*
X124178148Y-98507281D01*
X124386196Y-98666924D01*
X124613299Y-98798041D01*
X124613309Y-98798046D01*
X124790776Y-98871555D01*
X124855581Y-98898398D01*
X125108884Y-98966270D01*
X125368880Y-99000500D01*
X125368887Y-99000500D01*
X125631113Y-99000500D01*
X125631120Y-99000500D01*
X125891116Y-98966270D01*
X126144419Y-98898398D01*
X126386697Y-98798043D01*
X126613803Y-98666924D01*
X126821851Y-98507282D01*
X126821855Y-98507277D01*
X126821860Y-98507274D01*
X127007274Y-98321860D01*
X127007277Y-98321855D01*
X127007282Y-98321851D01*
X127166924Y-98113803D01*
X127298043Y-97886697D01*
X127398398Y-97644419D01*
X127466270Y-97391116D01*
X127500500Y-97131120D01*
X127500500Y-96868880D01*
X127466270Y-96608884D01*
X127398398Y-96355581D01*
X127377283Y-96304604D01*
X127298046Y-96113309D01*
X127298041Y-96113299D01*
X127166924Y-95886196D01*
X127007281Y-95678148D01*
X127007274Y-95678140D01*
X126821860Y-95492726D01*
X126821851Y-95492718D01*
X126613803Y-95333075D01*
X126386700Y-95201958D01*
X126386690Y-95201953D01*
X126144428Y-95101605D01*
X126144421Y-95101603D01*
X126144419Y-95101602D01*
X125891116Y-95033730D01*
X125833339Y-95026123D01*
X125631127Y-94999500D01*
X125631120Y-94999500D01*
X125368880Y-94999500D01*
X125368872Y-94999500D01*
X125137772Y-95029926D01*
X125108884Y-95033730D01*
X124855581Y-95101602D01*
X124855571Y-95101605D01*
X124613309Y-95201953D01*
X124613299Y-95201958D01*
X124386196Y-95333075D01*
X124178148Y-95492718D01*
X123992718Y-95678148D01*
X123833075Y-95886196D01*
X123701958Y-96113299D01*
X123701953Y-96113309D01*
X123601605Y-96355571D01*
X123601602Y-96355581D01*
X123538820Y-96589890D01*
X123533730Y-96608885D01*
X123499500Y-96868872D01*
X112250500Y-96868872D01*
X112250500Y-93921153D01*
X127199500Y-93921153D01*
X127199500Y-94078846D01*
X127230261Y-94233489D01*
X127230264Y-94233501D01*
X127290602Y-94379172D01*
X127290609Y-94379185D01*
X127378210Y-94510288D01*
X127378213Y-94510292D01*
X127489707Y-94621786D01*
X127489711Y-94621789D01*
X127620814Y-94709390D01*
X127620827Y-94709397D01*
X127766498Y-94769735D01*
X127766503Y-94769737D01*
X127921153Y-94800499D01*
X127921156Y-94800500D01*
X127921158Y-94800500D01*
X128078844Y-94800500D01*
X128078845Y-94800499D01*
X128233497Y-94769737D01*
X128379179Y-94709394D01*
X128510289Y-94621789D01*
X128621789Y-94510289D01*
X128709394Y-94379179D01*
X128769737Y-94233497D01*
X128800500Y-94078842D01*
X128800500Y-93921158D01*
X128800500Y-93921155D01*
X128800499Y-93921153D01*
X128778056Y-93808327D01*
X128769737Y-93766503D01*
X128740140Y-93695048D01*
X128709397Y-93620827D01*
X128709390Y-93620814D01*
X128621789Y-93489711D01*
X128621786Y-93489707D01*
X128510292Y-93378213D01*
X128510288Y-93378210D01*
X128379185Y-93290609D01*
X128379172Y-93290602D01*
X128233501Y-93230264D01*
X128233489Y-93230261D01*
X128078845Y-93199500D01*
X128078842Y-93199500D01*
X127921158Y-93199500D01*
X127921155Y-93199500D01*
X127766510Y-93230261D01*
X127766498Y-93230264D01*
X127620827Y-93290602D01*
X127620814Y-93290609D01*
X127489711Y-93378210D01*
X127489707Y-93378213D01*
X127378213Y-93489707D01*
X127378210Y-93489711D01*
X127290609Y-93620814D01*
X127290602Y-93620827D01*
X127230264Y-93766498D01*
X127230261Y-93766510D01*
X127199500Y-93921153D01*
X112250500Y-93921153D01*
X112250500Y-90921153D01*
X128199500Y-90921153D01*
X128199500Y-91078846D01*
X128230261Y-91233489D01*
X128230264Y-91233501D01*
X128290602Y-91379172D01*
X128290609Y-91379185D01*
X128378210Y-91510288D01*
X128378213Y-91510292D01*
X128489707Y-91621786D01*
X128489711Y-91621789D01*
X128620814Y-91709390D01*
X128620827Y-91709397D01*
X128720060Y-91750500D01*
X128766503Y-91769737D01*
X128921153Y-91800499D01*
X128921156Y-91800500D01*
X128921158Y-91800500D01*
X129078844Y-91800500D01*
X129078845Y-91800499D01*
X129155152Y-91785320D01*
X129233488Y-91769739D01*
X129233489Y-91769738D01*
X129233497Y-91769737D01*
X129257155Y-91759937D01*
X129304604Y-91750500D01*
X138637770Y-91750500D01*
X138704809Y-91770185D01*
X138725451Y-91786819D01*
X143253927Y-96315295D01*
X143280807Y-96355523D01*
X143290604Y-96379175D01*
X143290609Y-96379185D01*
X143378210Y-96510288D01*
X143378213Y-96510292D01*
X143489707Y-96621786D01*
X143489711Y-96621789D01*
X143620814Y-96709390D01*
X143620827Y-96709397D01*
X143695225Y-96740213D01*
X143766503Y-96769737D01*
X143921153Y-96800499D01*
X143921156Y-96800500D01*
X143921158Y-96800500D01*
X144078844Y-96800500D01*
X144078845Y-96800499D01*
X144233497Y-96769737D01*
X144379179Y-96709394D01*
X144510289Y-96621789D01*
X144621789Y-96510289D01*
X144709394Y-96379179D01*
X144769737Y-96233497D01*
X144800500Y-96078842D01*
X144800500Y-95921158D01*
X144800500Y-95921155D01*
X144800499Y-95921153D01*
X144793546Y-95886197D01*
X144769737Y-95766503D01*
X144733140Y-95678149D01*
X144709397Y-95620827D01*
X144709390Y-95620814D01*
X144621789Y-95489711D01*
X144621786Y-95489707D01*
X144510292Y-95378213D01*
X144510288Y-95378210D01*
X144379185Y-95290609D01*
X144379175Y-95290604D01*
X144355523Y-95280807D01*
X144348590Y-95276174D01*
X144343549Y-95275078D01*
X144315295Y-95253927D01*
X144212769Y-95151401D01*
X144179284Y-95090078D01*
X144184268Y-95020386D01*
X144226140Y-94964453D01*
X144252988Y-94949163D01*
X144379179Y-94896894D01*
X144510289Y-94809289D01*
X144621789Y-94697789D01*
X144709394Y-94566679D01*
X144769737Y-94420997D01*
X144800500Y-94266342D01*
X144800500Y-94108658D01*
X144800500Y-94108655D01*
X144800499Y-94108653D01*
X144794569Y-94078842D01*
X144769737Y-93954003D01*
X144769735Y-93953998D01*
X144709397Y-93808327D01*
X144709390Y-93808314D01*
X144621789Y-93677211D01*
X144621786Y-93677207D01*
X144510292Y-93565713D01*
X144510288Y-93565710D01*
X144379185Y-93478109D01*
X144379172Y-93478102D01*
X144233501Y-93417764D01*
X144233489Y-93417761D01*
X144078845Y-93387000D01*
X144078842Y-93387000D01*
X143921158Y-93387000D01*
X143921155Y-93387000D01*
X143766510Y-93417761D01*
X143766498Y-93417764D01*
X143620827Y-93478102D01*
X143620814Y-93478109D01*
X143489711Y-93565710D01*
X143489707Y-93565713D01*
X143378213Y-93677207D01*
X143378210Y-93677211D01*
X143290609Y-93808314D01*
X143290604Y-93808323D01*
X143238340Y-93934502D01*
X143194499Y-93988905D01*
X143128205Y-94010970D01*
X143060506Y-93993691D01*
X143036098Y-93974730D01*
X139478421Y-90417052D01*
X139478414Y-90417046D01*
X139404729Y-90367812D01*
X139404729Y-90367813D01*
X139355491Y-90334913D01*
X139218917Y-90278343D01*
X139218907Y-90278340D01*
X139073920Y-90249500D01*
X139073918Y-90249500D01*
X129304604Y-90249500D01*
X129257155Y-90240062D01*
X129233497Y-90230263D01*
X129233493Y-90230262D01*
X129233488Y-90230260D01*
X129078845Y-90199500D01*
X129078842Y-90199500D01*
X128921158Y-90199500D01*
X128921155Y-90199500D01*
X128766510Y-90230261D01*
X128766498Y-90230264D01*
X128620827Y-90290602D01*
X128620814Y-90290609D01*
X128489711Y-90378210D01*
X128489707Y-90378213D01*
X128378213Y-90489707D01*
X128378210Y-90489711D01*
X128290609Y-90620814D01*
X128290602Y-90620827D01*
X128230264Y-90766498D01*
X128230261Y-90766510D01*
X128199500Y-90921153D01*
X112250500Y-90921153D01*
X112250500Y-85921153D01*
X142199500Y-85921153D01*
X142199500Y-86078846D01*
X142230261Y-86233489D01*
X142230263Y-86233497D01*
X142240061Y-86257151D01*
X142249500Y-86304604D01*
X142249500Y-90797244D01*
X142247117Y-90821436D01*
X142227281Y-90921155D01*
X142227281Y-91078846D01*
X142258042Y-91233489D01*
X142258045Y-91233501D01*
X142318383Y-91379172D01*
X142318390Y-91379185D01*
X142405991Y-91510288D01*
X142405994Y-91510292D01*
X142517488Y-91621786D01*
X142517492Y-91621789D01*
X142648595Y-91709390D01*
X142648608Y-91709397D01*
X142747841Y-91750500D01*
X142794284Y-91769737D01*
X142948934Y-91800499D01*
X142948937Y-91800500D01*
X142948939Y-91800500D01*
X143106625Y-91800500D01*
X143106626Y-91800499D01*
X143261278Y-91769737D01*
X143406960Y-91709394D01*
X143538070Y-91621789D01*
X143649570Y-91510289D01*
X143737175Y-91379179D01*
X143797518Y-91233497D01*
X143828281Y-91078842D01*
X143828281Y-90921158D01*
X143828281Y-90921155D01*
X143828280Y-90921153D01*
X143797520Y-90766511D01*
X143797517Y-90766501D01*
X143759939Y-90675778D01*
X143750500Y-90628326D01*
X143750500Y-86304604D01*
X143759939Y-86257151D01*
X143769737Y-86233497D01*
X143800500Y-86078842D01*
X143800500Y-85921158D01*
X143800500Y-85921155D01*
X143800499Y-85921153D01*
X143769738Y-85766510D01*
X143769737Y-85766503D01*
X143769735Y-85766498D01*
X143709397Y-85620827D01*
X143709390Y-85620814D01*
X143621789Y-85489711D01*
X143621786Y-85489707D01*
X143510292Y-85378213D01*
X143510288Y-85378210D01*
X143379185Y-85290609D01*
X143379172Y-85290602D01*
X143233501Y-85230264D01*
X143233489Y-85230261D01*
X143078845Y-85199500D01*
X143078842Y-85199500D01*
X142921158Y-85199500D01*
X142921155Y-85199500D01*
X142766510Y-85230261D01*
X142766498Y-85230264D01*
X142620827Y-85290602D01*
X142620814Y-85290609D01*
X142489711Y-85378210D01*
X142489707Y-85378213D01*
X142378213Y-85489707D01*
X142378210Y-85489711D01*
X142290609Y-85620814D01*
X142290602Y-85620827D01*
X142230264Y-85766498D01*
X142230261Y-85766510D01*
X142199500Y-85921153D01*
X112250500Y-85921153D01*
X112250500Y-77368872D01*
X122999500Y-77368872D01*
X122999500Y-77631127D01*
X123026123Y-77833339D01*
X123033730Y-77891116D01*
X123101602Y-78144418D01*
X123101605Y-78144428D01*
X123201953Y-78386690D01*
X123201958Y-78386700D01*
X123333075Y-78613803D01*
X123492718Y-78821851D01*
X123492726Y-78821860D01*
X123678140Y-79007274D01*
X123678148Y-79007281D01*
X123886196Y-79166924D01*
X124113299Y-79298041D01*
X124113309Y-79298046D01*
X124355571Y-79398394D01*
X124355581Y-79398398D01*
X124608884Y-79466270D01*
X124868880Y-79500500D01*
X124868887Y-79500500D01*
X125131113Y-79500500D01*
X125131120Y-79500500D01*
X125391116Y-79466270D01*
X125644419Y-79398398D01*
X125886697Y-79298043D01*
X126113803Y-79166924D01*
X126321851Y-79007282D01*
X126321855Y-79007277D01*
X126321860Y-79007274D01*
X126507274Y-78821860D01*
X126507277Y-78821855D01*
X126507282Y-78821851D01*
X126666924Y-78613803D01*
X126798043Y-78386697D01*
X126898398Y-78144419D01*
X126966270Y-77891116D01*
X127000500Y-77631120D01*
X127000500Y-77368880D01*
X126966270Y-77108884D01*
X126898398Y-76855581D01*
X126847826Y-76733489D01*
X126798046Y-76613309D01*
X126798041Y-76613299D01*
X126666924Y-76386196D01*
X126507281Y-76178148D01*
X126507274Y-76178140D01*
X126321860Y-75992726D01*
X126321851Y-75992718D01*
X126113803Y-75833075D01*
X125886700Y-75701958D01*
X125886690Y-75701953D01*
X125644428Y-75601605D01*
X125644421Y-75601603D01*
X125644419Y-75601602D01*
X125391116Y-75533730D01*
X125333339Y-75526123D01*
X125131127Y-75499500D01*
X125131120Y-75499500D01*
X124868880Y-75499500D01*
X124868872Y-75499500D01*
X124637772Y-75529926D01*
X124608884Y-75533730D01*
X124355581Y-75601602D01*
X124355571Y-75601605D01*
X124113309Y-75701953D01*
X124113299Y-75701958D01*
X123886196Y-75833075D01*
X123678148Y-75992718D01*
X123492718Y-76178148D01*
X123333075Y-76386196D01*
X123201958Y-76613299D01*
X123201953Y-76613309D01*
X123101605Y-76855571D01*
X123101602Y-76855581D01*
X123033730Y-77108885D01*
X122999500Y-77368872D01*
X112250500Y-77368872D01*
X112250500Y-76804604D01*
X112259939Y-76757151D01*
X112269737Y-76733497D01*
X112300500Y-76578842D01*
X112300500Y-76421158D01*
X112300500Y-76421155D01*
X112300499Y-76421153D01*
X112293546Y-76386197D01*
X112269737Y-76266503D01*
X112233140Y-76178149D01*
X112209397Y-76120827D01*
X112209390Y-76120814D01*
X112121789Y-75989711D01*
X112121786Y-75989707D01*
X112010292Y-75878213D01*
X112010288Y-75878210D01*
X111879185Y-75790609D01*
X111879172Y-75790602D01*
X111733501Y-75730264D01*
X111733489Y-75730261D01*
X111578845Y-75699500D01*
X111578842Y-75699500D01*
X111421158Y-75699500D01*
X111421155Y-75699500D01*
X111266510Y-75730261D01*
X111266498Y-75730264D01*
X111120827Y-75790602D01*
X111120814Y-75790609D01*
X110989711Y-75878210D01*
X110989707Y-75878213D01*
X110878213Y-75989707D01*
X110878210Y-75989711D01*
X110790609Y-76120814D01*
X110790602Y-76120827D01*
X110730264Y-76266498D01*
X110730261Y-76266510D01*
X110699500Y-76421153D01*
X110699500Y-76578846D01*
X110730261Y-76733489D01*
X110730263Y-76733497D01*
X110740061Y-76757151D01*
X110749500Y-76804604D01*
X110749500Y-95318059D01*
X110729815Y-95385098D01*
X110677011Y-95430853D01*
X110607853Y-95440797D01*
X110544297Y-95411772D01*
X110537819Y-95405740D01*
X110510292Y-95378213D01*
X110510288Y-95378210D01*
X110379185Y-95290609D01*
X110379172Y-95290602D01*
X110233501Y-95230264D01*
X110233489Y-95230261D01*
X110078845Y-95199500D01*
X110078842Y-95199500D01*
X109921158Y-95199500D01*
X109921155Y-95199500D01*
X109766510Y-95230261D01*
X109766498Y-95230264D01*
X109620827Y-95290602D01*
X109620814Y-95290609D01*
X109489711Y-95378210D01*
X109489707Y-95378213D01*
X109378213Y-95489707D01*
X109378210Y-95489711D01*
X109290609Y-95620814D01*
X109290602Y-95620827D01*
X109230264Y-95766498D01*
X109230261Y-95766510D01*
X109199500Y-95921153D01*
X109199500Y-96078846D01*
X109230261Y-96233489D01*
X109230263Y-96233497D01*
X109240061Y-96257151D01*
X109249500Y-96304604D01*
X109249500Y-96818059D01*
X109229815Y-96885098D01*
X109177011Y-96930853D01*
X109107853Y-96940797D01*
X109044297Y-96911772D01*
X109037819Y-96905740D01*
X109010292Y-96878213D01*
X109010288Y-96878210D01*
X108879185Y-96790609D01*
X108879172Y-96790602D01*
X108733501Y-96730264D01*
X108733489Y-96730261D01*
X108578845Y-96699500D01*
X108578842Y-96699500D01*
X108421158Y-96699500D01*
X108421155Y-96699500D01*
X108266510Y-96730261D01*
X108266498Y-96730264D01*
X108120827Y-96790602D01*
X108120814Y-96790609D01*
X107989711Y-96878210D01*
X107989707Y-96878213D01*
X107962181Y-96905740D01*
X107900858Y-96939225D01*
X107831166Y-96934241D01*
X107775233Y-96892369D01*
X107750816Y-96826905D01*
X107750500Y-96818059D01*
X107750500Y-92804604D01*
X107759939Y-92757151D01*
X107769737Y-92733497D01*
X107800500Y-92578842D01*
X107800500Y-92421158D01*
X107800500Y-92421155D01*
X107800499Y-92421153D01*
X107769738Y-92266510D01*
X107769737Y-92266503D01*
X107769735Y-92266498D01*
X107709397Y-92120827D01*
X107709390Y-92120814D01*
X107621789Y-91989711D01*
X107621786Y-91989707D01*
X107510292Y-91878213D01*
X107510288Y-91878210D01*
X107379185Y-91790609D01*
X107379172Y-91790602D01*
X107233501Y-91730264D01*
X107233489Y-91730261D01*
X107078845Y-91699500D01*
X107078842Y-91699500D01*
X106921158Y-91699500D01*
X106921155Y-91699500D01*
X106766510Y-91730261D01*
X106766498Y-91730264D01*
X106620827Y-91790602D01*
X106620814Y-91790609D01*
X106489711Y-91878210D01*
X106489707Y-91878213D01*
X106378213Y-91989707D01*
X106378210Y-91989711D01*
X106290609Y-92120814D01*
X106290602Y-92120827D01*
X106230264Y-92266498D01*
X106230261Y-92266510D01*
X106199500Y-92421153D01*
X93848510Y-92421153D01*
X93824016Y-92266503D01*
X93817246Y-92223757D01*
X93751557Y-92021588D01*
X93655051Y-91832184D01*
X93655049Y-91832181D01*
X93655048Y-91832179D01*
X93530109Y-91660213D01*
X93379786Y-91509890D01*
X93207820Y-91384951D01*
X93018414Y-91288444D01*
X93018413Y-91288443D01*
X93018412Y-91288443D01*
X92816243Y-91222754D01*
X92816241Y-91222753D01*
X92816240Y-91222753D01*
X92654957Y-91197208D01*
X92606287Y-91189500D01*
X92393713Y-91189500D01*
X92345042Y-91197208D01*
X92183760Y-91222753D01*
X91981585Y-91288444D01*
X91792179Y-91384951D01*
X91620213Y-91509890D01*
X91469890Y-91660213D01*
X91344951Y-91832179D01*
X91248444Y-92021585D01*
X91182753Y-92223760D01*
X91149500Y-92433713D01*
X88000500Y-92433713D01*
X88000500Y-73921153D01*
X127199500Y-73921153D01*
X127199500Y-74078846D01*
X127230261Y-74233489D01*
X127230264Y-74233501D01*
X127290602Y-74379172D01*
X127290609Y-74379185D01*
X127378210Y-74510288D01*
X127378213Y-74510292D01*
X127489707Y-74621786D01*
X127489711Y-74621789D01*
X127620814Y-74709390D01*
X127620827Y-74709397D01*
X127758683Y-74766498D01*
X127766503Y-74769737D01*
X127921153Y-74800499D01*
X127921156Y-74800500D01*
X127921158Y-74800500D01*
X128078844Y-74800500D01*
X128078845Y-74800499D01*
X128233497Y-74769737D01*
X128379179Y-74709394D01*
X128510289Y-74621789D01*
X128621789Y-74510289D01*
X128709394Y-74379179D01*
X128769737Y-74233497D01*
X128800500Y-74078842D01*
X128800500Y-73921158D01*
X128800500Y-73921155D01*
X128800499Y-73921153D01*
X128769738Y-73766510D01*
X128769737Y-73766503D01*
X128769735Y-73766498D01*
X128709397Y-73620827D01*
X128709390Y-73620814D01*
X128621789Y-73489711D01*
X128621786Y-73489707D01*
X128510292Y-73378213D01*
X128510288Y-73378210D01*
X128379185Y-73290609D01*
X128379172Y-73290602D01*
X128233501Y-73230264D01*
X128233489Y-73230261D01*
X128078845Y-73199500D01*
X128078842Y-73199500D01*
X127921158Y-73199500D01*
X127921155Y-73199500D01*
X127766510Y-73230261D01*
X127766498Y-73230264D01*
X127620827Y-73290602D01*
X127620814Y-73290609D01*
X127489711Y-73378210D01*
X127489707Y-73378213D01*
X127378213Y-73489707D01*
X127378210Y-73489711D01*
X127290609Y-73620814D01*
X127290602Y-73620827D01*
X127230264Y-73766498D01*
X127230261Y-73766510D01*
X127199500Y-73921153D01*
X88000500Y-73921153D01*
X88000500Y-71921153D01*
X127699500Y-71921153D01*
X127699500Y-72078846D01*
X127730261Y-72233489D01*
X127730264Y-72233501D01*
X127790602Y-72379172D01*
X127790609Y-72379185D01*
X127878210Y-72510288D01*
X127878213Y-72510292D01*
X127989707Y-72621786D01*
X127989711Y-72621789D01*
X128120814Y-72709390D01*
X128120827Y-72709397D01*
X128220060Y-72750500D01*
X128266503Y-72769737D01*
X128421153Y-72800499D01*
X128421156Y-72800500D01*
X128421158Y-72800500D01*
X128578844Y-72800500D01*
X128578845Y-72800499D01*
X128655152Y-72785320D01*
X128733488Y-72769739D01*
X128733489Y-72769738D01*
X128733497Y-72769737D01*
X128757155Y-72759937D01*
X128804604Y-72750500D01*
X139137770Y-72750500D01*
X139204809Y-72770185D01*
X139225451Y-72786819D01*
X143253927Y-76815295D01*
X143280807Y-76855523D01*
X143290604Y-76879175D01*
X143290609Y-76879185D01*
X143378210Y-77010288D01*
X143378213Y-77010292D01*
X143489707Y-77121786D01*
X143489711Y-77121789D01*
X143620814Y-77209390D01*
X143620827Y-77209397D01*
X143766498Y-77269735D01*
X143766503Y-77269737D01*
X143921153Y-77300499D01*
X143921156Y-77300500D01*
X143921158Y-77300500D01*
X144078844Y-77300500D01*
X144078845Y-77300499D01*
X144233497Y-77269737D01*
X144379179Y-77209394D01*
X144510289Y-77121789D01*
X144621789Y-77010289D01*
X144709394Y-76879179D01*
X144769737Y-76733497D01*
X144800500Y-76578842D01*
X144800500Y-76421158D01*
X144800500Y-76421155D01*
X144800499Y-76421153D01*
X144793546Y-76386197D01*
X144769737Y-76266503D01*
X144733140Y-76178149D01*
X144709397Y-76120827D01*
X144709390Y-76120814D01*
X144621789Y-75989711D01*
X144621786Y-75989707D01*
X144510292Y-75878213D01*
X144510286Y-75878208D01*
X144472710Y-75853100D01*
X144427905Y-75799487D01*
X144419199Y-75730162D01*
X144449355Y-75667135D01*
X144472705Y-75646901D01*
X144510289Y-75621789D01*
X144621789Y-75510289D01*
X144709394Y-75379179D01*
X144769737Y-75233497D01*
X144800500Y-75078842D01*
X144800500Y-74921158D01*
X144800500Y-74921155D01*
X144800499Y-74921153D01*
X144769738Y-74766510D01*
X144769737Y-74766503D01*
X144709794Y-74621786D01*
X144709397Y-74620827D01*
X144709390Y-74620814D01*
X144621789Y-74489711D01*
X144621786Y-74489707D01*
X144510292Y-74378213D01*
X144510288Y-74378210D01*
X144379185Y-74290609D01*
X144379172Y-74290602D01*
X144233501Y-74230264D01*
X144233489Y-74230261D01*
X144078845Y-74199500D01*
X144078842Y-74199500D01*
X143921158Y-74199500D01*
X143921155Y-74199500D01*
X143766510Y-74230261D01*
X143766498Y-74230264D01*
X143620827Y-74290602D01*
X143620814Y-74290609D01*
X143489711Y-74378210D01*
X143489707Y-74378213D01*
X143378213Y-74489707D01*
X143378210Y-74489711D01*
X143331123Y-74560182D01*
X143277511Y-74604987D01*
X143208186Y-74613694D01*
X143145158Y-74583539D01*
X143140340Y-74578972D01*
X139978421Y-71417052D01*
X139978414Y-71417046D01*
X139904729Y-71367812D01*
X139904729Y-71367813D01*
X139855491Y-71334913D01*
X139718917Y-71278343D01*
X139718907Y-71278340D01*
X139573920Y-71249500D01*
X139573918Y-71249500D01*
X128804604Y-71249500D01*
X128757155Y-71240062D01*
X128733497Y-71230263D01*
X128733493Y-71230262D01*
X128733488Y-71230260D01*
X128578845Y-71199500D01*
X128578842Y-71199500D01*
X128421158Y-71199500D01*
X128421155Y-71199500D01*
X128266510Y-71230261D01*
X128266498Y-71230264D01*
X128120827Y-71290602D01*
X128120814Y-71290609D01*
X127989711Y-71378210D01*
X127989707Y-71378213D01*
X127878213Y-71489707D01*
X127878210Y-71489711D01*
X127790609Y-71620814D01*
X127790602Y-71620827D01*
X127730264Y-71766498D01*
X127730261Y-71766510D01*
X127699500Y-71921153D01*
X88000500Y-71921153D01*
X88000500Y-64770756D01*
X89749500Y-64770756D01*
X89749500Y-65229243D01*
X89789460Y-65685985D01*
X89789460Y-65685987D01*
X89869072Y-66137489D01*
X89869074Y-66137499D01*
X89987739Y-66580360D01*
X89987742Y-66580370D01*
X89987743Y-66580371D01*
X90144546Y-67011189D01*
X90144550Y-67011199D01*
X90338308Y-67426711D01*
X90338316Y-67426727D01*
X90499445Y-67705810D01*
X90567555Y-67823779D01*
X90567559Y-67823785D01*
X90567566Y-67823796D01*
X90830530Y-68199348D01*
X91043544Y-68453208D01*
X91125237Y-68550566D01*
X91449434Y-68874763D01*
X91595469Y-68997301D01*
X91800651Y-69169469D01*
X92176203Y-69432433D01*
X92176210Y-69432437D01*
X92176221Y-69432445D01*
X92573279Y-69661687D01*
X92573288Y-69661691D01*
X92988800Y-69855449D01*
X92988810Y-69855453D01*
X93188060Y-69927973D01*
X93419640Y-70012261D01*
X93862501Y-70130926D01*
X94314019Y-70210540D01*
X94770756Y-70250499D01*
X94770757Y-70250500D01*
X94770758Y-70250500D01*
X95229243Y-70250500D01*
X95229243Y-70250499D01*
X95685981Y-70210540D01*
X96137499Y-70130926D01*
X96580360Y-70012261D01*
X97011194Y-69855451D01*
X97011199Y-69855449D01*
X97149703Y-69790863D01*
X97426721Y-69661687D01*
X97823779Y-69432445D01*
X98199347Y-69169470D01*
X98550566Y-68874763D01*
X98874763Y-68550566D01*
X99169470Y-68199347D01*
X99432445Y-67823779D01*
X99661687Y-67426721D01*
X99790863Y-67149703D01*
X99832155Y-67061153D01*
X143199500Y-67061153D01*
X143199500Y-67218846D01*
X143230261Y-67373489D01*
X143230263Y-67373497D01*
X143240061Y-67397151D01*
X143249500Y-67444604D01*
X143249500Y-70695396D01*
X143240062Y-70742844D01*
X143230263Y-70766503D01*
X143230262Y-70766506D01*
X143230260Y-70766511D01*
X143199500Y-70921153D01*
X143199500Y-71078846D01*
X143230261Y-71233489D01*
X143230264Y-71233501D01*
X143290602Y-71379172D01*
X143290609Y-71379185D01*
X143378210Y-71510288D01*
X143378213Y-71510292D01*
X143489707Y-71621786D01*
X143489711Y-71621789D01*
X143620814Y-71709390D01*
X143620827Y-71709397D01*
X143758683Y-71766498D01*
X143766503Y-71769737D01*
X143921153Y-71800499D01*
X143921156Y-71800500D01*
X143921158Y-71800500D01*
X144078844Y-71800500D01*
X144078845Y-71800499D01*
X144233497Y-71769737D01*
X144379179Y-71709394D01*
X144510289Y-71621789D01*
X144621789Y-71510289D01*
X144709394Y-71379179D01*
X144769737Y-71233497D01*
X144800500Y-71078842D01*
X144800500Y-70921158D01*
X144800500Y-70921155D01*
X144800499Y-70921153D01*
X144769739Y-70766511D01*
X144769738Y-70766508D01*
X144769737Y-70766503D01*
X144759937Y-70742844D01*
X144750500Y-70695396D01*
X144750500Y-67444604D01*
X144759939Y-67397151D01*
X144769737Y-67373497D01*
X144800500Y-67218842D01*
X144800500Y-67061158D01*
X144800500Y-67061155D01*
X144800499Y-67061153D01*
X144769738Y-66906510D01*
X144769737Y-66906503D01*
X144769735Y-66906498D01*
X144709397Y-66760827D01*
X144709390Y-66760814D01*
X144621789Y-66629711D01*
X144621786Y-66629707D01*
X144510292Y-66518213D01*
X144510288Y-66518210D01*
X144379185Y-66430609D01*
X144379172Y-66430602D01*
X144233501Y-66370264D01*
X144233489Y-66370261D01*
X144078845Y-66339500D01*
X144078842Y-66339500D01*
X143921158Y-66339500D01*
X143921155Y-66339500D01*
X143766510Y-66370261D01*
X143766498Y-66370264D01*
X143620827Y-66430602D01*
X143620814Y-66430609D01*
X143489711Y-66518210D01*
X143489707Y-66518213D01*
X143378213Y-66629707D01*
X143378210Y-66629711D01*
X143290609Y-66760814D01*
X143290602Y-66760827D01*
X143230264Y-66906498D01*
X143230261Y-66906510D01*
X143199500Y-67061153D01*
X99832155Y-67061153D01*
X99855449Y-67011199D01*
X99855449Y-67011198D01*
X99855451Y-67011194D01*
X100012261Y-66580360D01*
X100130926Y-66137499D01*
X100210540Y-65685981D01*
X100250500Y-65229242D01*
X100250500Y-64770758D01*
X100210540Y-64314019D01*
X100130926Y-63862501D01*
X100012261Y-63419640D01*
X99927973Y-63188060D01*
X99855453Y-62988810D01*
X99855449Y-62988800D01*
X99661691Y-62573288D01*
X99661683Y-62573272D01*
X99647288Y-62548340D01*
X99432445Y-62176221D01*
X99432437Y-62176210D01*
X99432433Y-62176203D01*
X99169469Y-61800651D01*
X98874760Y-61449431D01*
X98550568Y-61125239D01*
X98199348Y-60830530D01*
X97823796Y-60567566D01*
X97823785Y-60567559D01*
X97823779Y-60567555D01*
X97705810Y-60499445D01*
X97426727Y-60338316D01*
X97426711Y-60338308D01*
X97011199Y-60144550D01*
X97011189Y-60144546D01*
X96580371Y-59987743D01*
X96580370Y-59987742D01*
X96580360Y-59987739D01*
X96256165Y-59900870D01*
X96137500Y-59869074D01*
X96137489Y-59869072D01*
X95685986Y-59789460D01*
X95229243Y-59749500D01*
X95229242Y-59749500D01*
X94770758Y-59749500D01*
X94770757Y-59749500D01*
X94314014Y-59789460D01*
X94314012Y-59789460D01*
X93862510Y-59869072D01*
X93862499Y-59869074D01*
X93625169Y-59932667D01*
X93419640Y-59987739D01*
X93419633Y-59987741D01*
X93419628Y-59987743D01*
X92988810Y-60144546D01*
X92988800Y-60144550D01*
X92573288Y-60338308D01*
X92573272Y-60338316D01*
X92176229Y-60567550D01*
X92176203Y-60567566D01*
X91800651Y-60830530D01*
X91449431Y-61125239D01*
X91125239Y-61449431D01*
X90830530Y-61800651D01*
X90567566Y-62176203D01*
X90567550Y-62176229D01*
X90338316Y-62573272D01*
X90338308Y-62573288D01*
X90144550Y-62988800D01*
X90144546Y-62988810D01*
X89987743Y-63419628D01*
X89987740Y-63419638D01*
X89869074Y-63862499D01*
X89869072Y-63862510D01*
X89789460Y-64314012D01*
X89789460Y-64314014D01*
X89749500Y-64770756D01*
X88000500Y-64770756D01*
X88000500Y-58124500D01*
X88020185Y-58057461D01*
X88072989Y-58011706D01*
X88124500Y-58000500D01*
X147376000Y-58000500D01*
X147443039Y-58020185D01*
G37*
%TD.AperFunction*%
%TD*%
M02*
