%TF.GenerationSoftware,KiCad,Pcbnew,9.0.0*%
%TF.CreationDate,2025-04-28T14:26:38-07:00*%
%TF.ProjectId,IsolatedVoltageSensor,49736f6c-6174-4656-9456-6f6c74616765,rev?*%
%TF.SameCoordinates,Original*%
%TF.FileFunction,Soldermask,Bot*%
%TF.FilePolarity,Negative*%
%FSLAX46Y46*%
G04 Gerber Fmt 4.6, Leading zero omitted, Abs format (unit mm)*
G04 Created by KiCad (PCBNEW 9.0.0) date 2025-04-28 14:26:38*
%MOMM*%
%LPD*%
G01*
G04 APERTURE LIST*
%ADD10R,1.665000X1.665000*%
%ADD11C,1.665000*%
%ADD12C,9.500000*%
%ADD13C,3.000000*%
%ADD14R,1.200000X1.200000*%
%ADD15C,1.200000*%
%ADD16R,1.700000X1.700000*%
%ADD17O,1.700000X1.700000*%
G04 APERTURE END LIST*
D10*
%TO.C,PS1*%
X191960000Y-122275000D03*
D11*
X194500000Y-122275000D03*
X197040000Y-122275000D03*
%TD*%
D12*
%TO.C,H4*%
X95000000Y-135000000D03*
%TD*%
D13*
%TO.C,TP18*%
X171000000Y-68000000D03*
%TD*%
%TO.C,TP22*%
X155500000Y-103000000D03*
%TD*%
%TO.C,TP11*%
X145000000Y-103000000D03*
%TD*%
%TO.C,TP10*%
X177000000Y-120000000D03*
%TD*%
%TO.C,TP8*%
X172000000Y-105000000D03*
%TD*%
%TO.C,TP5*%
X177000000Y-140000000D03*
%TD*%
%TO.C,TP3*%
X172000000Y-125000000D03*
%TD*%
%TO.C,TP2*%
X125500000Y-135000000D03*
%TD*%
%TO.C,TP14*%
X196000000Y-105500000D03*
%TD*%
D14*
%TO.C,C1*%
X191000000Y-132000000D03*
D15*
X196000000Y-132000000D03*
%TD*%
D13*
%TO.C,TP1*%
X145000000Y-64000000D03*
%TD*%
%TO.C,TP16*%
X145000000Y-121000000D03*
%TD*%
%TO.C,TP17*%
X125000000Y-77500000D03*
%TD*%
%TO.C,TP15*%
X177000000Y-101000000D03*
%TD*%
%TO.C,TP6*%
X145000000Y-83000000D03*
%TD*%
%TO.C,TP23*%
X155500000Y-83000000D03*
%TD*%
D12*
%TO.C,H2*%
X205000000Y-135000000D03*
%TD*%
D13*
%TO.C,TP24*%
X155500000Y-64000000D03*
%TD*%
%TO.C,TP20*%
X177500000Y-82000000D03*
%TD*%
D12*
%TO.C,H3*%
X95000000Y-65000000D03*
%TD*%
D13*
%TO.C,TP21*%
X155500000Y-121500000D03*
%TD*%
%TO.C,TP4*%
X196000000Y-95000000D03*
%TD*%
%TO.C,TP7*%
X125500000Y-116000000D03*
%TD*%
D12*
%TO.C,H1*%
X205000000Y-64350000D03*
%TD*%
D13*
%TO.C,TP12*%
X125500000Y-97000000D03*
%TD*%
%TO.C,TP13*%
X171500000Y-87000000D03*
%TD*%
D14*
%TO.C,C4*%
X207000000Y-125500000D03*
D15*
X207000000Y-120500000D03*
%TD*%
D13*
%TO.C,TP9*%
X200500000Y-110000000D03*
%TD*%
%TO.C,TP19*%
X200000000Y-100000000D03*
%TD*%
D16*
%TO.C,J1*%
X92500000Y-90000000D03*
D17*
X92500000Y-92540000D03*
X92500000Y-95080000D03*
X92500000Y-97620000D03*
X92500000Y-100160000D03*
X92500000Y-102700000D03*
X92500000Y-105240000D03*
X92500000Y-107780000D03*
X92500000Y-110320000D03*
X92500000Y-112860000D03*
%TD*%
D16*
%TO.C,J2*%
X207500000Y-90000000D03*
D17*
X207500000Y-92540000D03*
X207500000Y-95080000D03*
X207500000Y-97620000D03*
X207500000Y-100160000D03*
X207500000Y-102700000D03*
X207500000Y-105240000D03*
X207500000Y-107780000D03*
X207500000Y-110320000D03*
X207500000Y-112860000D03*
%TD*%
M02*
