M48
; DRILL file {KiCad 9.0.0} date 2025-04-23T18:39:50-0700
; FORMAT={-:-/ absolute / metric / decimal}
; #@! TF.CreationDate,2025-04-23T18:39:50-07:00
; #@! TF.GenerationSoftware,Kicad,Pcbnew,9.0.0
; #@! TF.FileFunction,Plated,1,4,PTH
FMAT,2
METRIC
; #@! TA.AperFunction,Plated,PTH,ViaDrill
T1C0.300
; #@! TA.AperFunction,Plated,PTH,ComponentDrill
T2C0.500
; #@! TA.AperFunction,Plated,PTH,ComponentDrill
T3C0.800
; #@! TA.AperFunction,Plated,PTH,ComponentDrill
T4C1.000
; #@! TA.AperFunction,Plated,PTH,ComponentDrill
T5C1.050
; #@! TA.AperFunction,Plated,PTH,ComponentDrill
T6C1.150
; #@! TA.AperFunction,Plated,PTH,ComponentDrill
T7C1.400
; #@! TA.AperFunction,Plated,PTH,ComponentDrill
T8C2.000
; #@! TA.AperFunction,Plated,PTH,ComponentDrill
T9C3.100
; #@! TA.AperFunction,Plated,PTH,ComponentDrill
T10C5.300
; #@! TA.AperFunction,Plated,PTH,ComponentDrill
T11C5.500
; #@! TA.AperFunction,Plated,PTH,ComponentDrill
T12C9.000
%
G90
G05
T1
X-102.5Y-127.5
X-100.0Y-110.0
X-90.0Y-135.0
X-88.0Y-140.0
X-87.5Y-30.0
X-85.0Y-105.0
X-83.719Y-34.281
X-82.5Y-27.5
X-82.5Y-110.0
X-75.0Y-29.0
X-72.5Y-142.5
X-71.0Y-170.0
X-71.0Y-180.0
X-71.0Y-190.0
X-71.0Y-200.0
X-65.0Y-147.5
X-65.0Y-172.0
X-65.0Y-183.0
X-65.0Y-192.0
X-57.5Y-152.5
X-50.0Y-122.5
X-32.0Y-48.0
X-29.0Y-46.0
X-27.0Y-37.0
X-22.5Y-195.0
X-20.0Y-190.0
X-15.0Y-120.0
X52.0Y-156.0
X53.0Y-88.0
X53.0Y-138.0
X55.0Y-140.0
X55.01Y-151.0
X56.0Y-85.0
X59.0Y-80.0
X59.0Y-154.0
X59.0Y-160.0
X107.5Y-180.0
X168.0Y-88.0
X168.0Y-137.0
X170.0Y-140.0
X172.5Y-85.0
X173.0Y-152.0
X173.0Y-160.0
X175.0Y-80.0
X282.0Y-88.0
X283.0Y-138.0
X285.0Y-85.0
X285.0Y-140.0
X287.0Y-153.0
X290.0Y-80.0
T2
X-67.475Y-33.06
X-67.475Y-34.39
X-67.475Y-35.73
X-67.475Y-37.06
X-67.475Y-43.06
X-67.475Y-44.39
X-67.475Y-45.73
X-67.475Y-47.06
X-67.085Y-31.86
X-67.085Y-38.26
X-67.085Y-41.86
X-67.085Y-48.26
X-66.055Y-31.11
X-66.055Y-39.01
X-66.055Y-41.11
X-66.055Y-49.01
X-64.795Y-31.11
X-64.795Y-39.01
X-64.795Y-41.11
X-64.795Y-49.01
X-63.765Y-31.86
X-63.765Y-38.26
X-63.765Y-41.86
X-63.765Y-48.26
X-63.375Y-33.06
X-63.375Y-34.39
X-63.375Y-35.73
X-63.375Y-37.06
X-63.375Y-43.06
X-63.375Y-44.39
X-63.375Y-45.73
X-63.375Y-47.06
X-57.88Y-32.99
X-57.88Y-34.32
X-57.88Y-35.66
X-57.88Y-36.99
X-57.88Y-42.99
X-57.88Y-44.32
X-57.88Y-45.66
X-57.88Y-46.99
X-57.49Y-31.79
X-57.49Y-38.19
X-57.49Y-41.79
X-57.49Y-48.19
X-56.46Y-31.04
X-56.46Y-38.94
X-56.46Y-41.04
X-56.46Y-48.94
X-55.2Y-31.04
X-55.2Y-38.94
X-55.2Y-41.04
X-55.2Y-48.94
X-54.17Y-31.79
X-54.17Y-38.19
X-54.17Y-41.79
X-54.17Y-48.19
X-53.78Y-32.99
X-53.78Y-34.32
X-53.78Y-35.66
X-53.78Y-36.99
X-53.78Y-42.99
X-53.78Y-44.32
X-53.78Y-45.66
X-53.78Y-46.99
X46.05Y-115.37
X46.05Y-116.63
X46.06Y-122.555
X46.06Y-123.815
X46.8Y-114.34
X46.8Y-117.66
X46.81Y-121.525
X46.81Y-124.845
X48.0Y-113.95
X48.0Y-118.05
X48.01Y-121.135
X48.01Y-125.235
X49.33Y-113.95
X49.33Y-118.05
X49.34Y-121.135
X49.34Y-125.235
X50.67Y-113.95
X50.67Y-118.05
X50.68Y-121.135
X50.68Y-125.235
X52.0Y-113.95
X52.0Y-118.05
X52.01Y-121.135
X52.01Y-125.235
X53.2Y-114.34
X53.2Y-117.66
X53.21Y-121.525
X53.21Y-124.845
X53.95Y-115.37
X53.95Y-116.63
X53.96Y-122.555
X53.96Y-123.815
X56.05Y-115.37
X56.05Y-116.63
X56.06Y-122.555
X56.06Y-123.815
X56.8Y-114.34
X56.8Y-117.66
X56.81Y-121.525
X56.81Y-124.845
X58.0Y-113.95
X58.0Y-118.05
X58.01Y-121.135
X58.01Y-125.235
X59.33Y-113.95
X59.33Y-118.05
X59.34Y-121.135
X59.34Y-125.235
X60.67Y-113.95
X60.67Y-118.05
X60.68Y-121.135
X60.68Y-125.235
X62.0Y-113.95
X62.0Y-118.05
X62.01Y-121.135
X62.01Y-125.235
X63.2Y-114.34
X63.2Y-117.66
X63.21Y-121.525
X63.21Y-124.845
X63.95Y-115.37
X63.95Y-116.63
X63.96Y-122.555
X63.96Y-123.815
X161.05Y-115.37
X161.05Y-116.63
X161.06Y-122.555
X161.06Y-123.815
X161.8Y-114.34
X161.8Y-117.66
X161.81Y-121.525
X161.81Y-124.845
X163.0Y-113.95
X163.0Y-118.05
X163.01Y-121.135
X163.01Y-125.235
X164.33Y-113.95
X164.33Y-118.05
X164.34Y-121.135
X164.34Y-125.235
X165.67Y-113.95
X165.67Y-118.05
X165.68Y-121.135
X165.68Y-125.235
X167.0Y-113.95
X167.0Y-118.05
X167.01Y-121.135
X167.01Y-125.235
X168.2Y-114.34
X168.2Y-117.66
X168.21Y-121.525
X168.21Y-124.845
X168.95Y-115.37
X168.95Y-116.63
X168.96Y-122.555
X168.96Y-123.815
X171.05Y-115.37
X171.05Y-116.63
X171.06Y-122.555
X171.06Y-123.815
X171.8Y-114.34
X171.8Y-117.66
X171.81Y-121.525
X171.81Y-124.845
X173.0Y-113.95
X173.0Y-118.05
X173.01Y-121.135
X173.01Y-125.235
X174.33Y-113.95
X174.33Y-118.05
X174.34Y-121.135
X174.34Y-125.235
X175.67Y-113.95
X175.67Y-118.05
X175.68Y-121.135
X175.68Y-125.235
X177.0Y-113.95
X177.0Y-118.05
X177.01Y-121.135
X177.01Y-125.235
X178.2Y-114.34
X178.2Y-117.66
X178.21Y-121.525
X178.21Y-124.845
X178.95Y-115.37
X178.95Y-116.63
X178.96Y-122.555
X178.96Y-123.815
X276.05Y-115.37
X276.05Y-116.63
X276.08Y-122.555
X276.08Y-123.815
X276.8Y-114.34
X276.8Y-117.66
X276.83Y-121.525
X276.83Y-124.845
X278.0Y-113.95
X278.0Y-118.05
X278.03Y-121.135
X278.03Y-125.235
X279.33Y-113.95
X279.33Y-118.05
X279.36Y-121.135
X279.36Y-125.235
X280.67Y-113.95
X280.67Y-118.05
X280.7Y-121.135
X280.7Y-125.235
X282.0Y-113.95
X282.0Y-118.05
X282.03Y-121.135
X282.03Y-125.235
X283.2Y-114.34
X283.2Y-117.66
X283.23Y-121.525
X283.23Y-124.845
X283.95Y-115.37
X283.95Y-116.63
X283.98Y-122.555
X283.98Y-123.815
X286.05Y-115.37
X286.05Y-116.63
X286.08Y-122.555
X286.08Y-123.815
X286.8Y-114.34
X286.8Y-117.66
X286.83Y-121.525
X286.83Y-124.845
X288.0Y-113.95
X288.0Y-118.05
X288.03Y-121.135
X288.03Y-125.235
X289.33Y-113.95
X289.33Y-118.05
X289.36Y-121.135
X289.36Y-125.235
X290.67Y-113.95
X290.67Y-118.05
X290.7Y-121.135
X290.7Y-125.235
X292.0Y-113.95
X292.0Y-118.05
X292.03Y-121.135
X292.03Y-125.235
X293.2Y-114.34
X293.2Y-117.66
X293.23Y-121.525
X293.23Y-124.845
X293.95Y-115.37
X293.95Y-116.63
X293.98Y-122.555
X293.98Y-123.815
T3
X-86.825Y-38.15
X-86.825Y-40.06
X-86.825Y-41.97
X-34.43Y-38.08
X-34.43Y-39.99
X-34.43Y-41.9
X53.09Y-94.6
X53.1Y-144.585
X55.0Y-94.6
X55.01Y-144.585
X56.91Y-94.6
X56.92Y-144.585
X168.09Y-94.6
X168.1Y-144.585
X170.0Y-94.6
X170.01Y-144.585
X171.91Y-94.6
X171.92Y-144.585
X283.09Y-94.6
X283.12Y-144.585
X285.0Y-94.6
X285.03Y-144.585
X286.91Y-94.6
X286.94Y-144.585
T4
X-68.5Y-100.0
X-68.5Y-215.0
X-65.96Y-100.0
X-65.96Y-215.0
X-63.42Y-100.0
X-63.42Y-215.0
X-60.88Y-100.0
X-60.88Y-215.0
X-58.34Y-100.0
X-58.34Y-215.0
X-55.8Y-100.0
X-55.8Y-215.0
X-53.26Y-100.0
X-53.26Y-215.0
X-50.72Y-100.0
X-50.72Y-215.0
X-48.18Y-100.0
X-48.18Y-215.0
X-45.64Y-100.0
X-45.64Y-215.0
X-6.0Y-32.0
X-6.0Y-59.5
X-6.0Y-201.125
X-6.0Y-228.625
X7.0Y-31.0
X7.0Y-46.0
X7.0Y-214.275
X7.0Y-229.275
X51.0Y-32.0
X51.0Y-47.0
X51.0Y-214.0
X51.0Y-229.0
X110.0Y-33.0
X110.0Y-60.5
X110.0Y-201.125
X110.0Y-228.625
X123.0Y-32.0
X123.0Y-47.0
X123.0Y-214.275
X123.0Y-229.275
X166.0Y-32.0
X166.0Y-47.0
X166.0Y-214.275
X166.0Y-229.275
X224.0Y-33.0
X224.0Y-60.5
X224.0Y-201.125
X224.0Y-228.625
X237.0Y-32.275
X237.0Y-47.275
X237.0Y-214.275
X237.0Y-229.275
X281.0Y-32.275
X281.0Y-47.275
X281.0Y-214.275
X281.0Y-229.275
T5
X-97.84Y-123.615
X-97.84Y-126.385
X-97.84Y-129.155
X-97.84Y-131.925
X-97.84Y-134.695
X-97.84Y-137.465
X-97.84Y-140.235
X-97.84Y-143.005
X-97.84Y-145.775
X-97.84Y-148.545
X-97.84Y-151.315
X-97.84Y-154.085
X-95.0Y-122.23
X-95.0Y-125.0
X-95.0Y-127.77
X-95.0Y-130.54
X-95.0Y-133.31
X-95.0Y-136.08
X-95.0Y-138.85
X-95.0Y-141.62
X-95.0Y-144.39
X-95.0Y-147.16
X-95.0Y-149.93
X-95.0Y-152.7
X-95.0Y-155.47
T6
X-8.915Y-87.085
X-8.915Y-92.165
X-8.915Y-99.785
X-8.915Y-102.325
T7
X62.85Y-191.5
X62.85Y-229.0
X63.0Y-33.0
X63.0Y-70.5
X83.15Y-191.5
X83.15Y-229.0
X83.3Y-33.0
X83.3Y-70.5
X178.0Y-32.5
X178.0Y-70.0
X178.0Y-191.5
X178.0Y-229.0
X198.3Y-32.5
X198.3Y-70.0
X198.3Y-191.5
X198.3Y-229.0
X292.85Y-191.5
X292.85Y-229.0
X293.0Y-33.0
X293.0Y-70.5
X313.15Y-191.5
X313.15Y-229.0
X313.3Y-33.0
X313.3Y-70.5
T8
X-65.0Y43.1
X-65.0Y33.1
X-65.0Y10.0
X-65.0Y0.0
X-31.9Y43.1
X-31.9Y33.1
X-31.9Y10.0
X-31.9Y0.0
X1.2Y43.1
X1.2Y33.1
X1.2Y10.0
X1.2Y0.0
X34.3Y43.1
X34.3Y33.1
X34.3Y10.0
X34.3Y0.0
X67.4Y43.1
X67.4Y33.1
X67.4Y10.0
X67.4Y0.0
X100.5Y43.1
X100.5Y33.1
X100.5Y10.0
X100.5Y0.0
X133.8Y43.1
X133.8Y33.1
X133.8Y10.0
X133.8Y0.0
X166.9Y43.1
X166.9Y33.1
X166.9Y10.0
X166.9Y0.0
X200.0Y43.1
X200.0Y33.1
X200.0Y10.0
X200.0Y0.0
X233.1Y43.1
X233.1Y33.1
X233.1Y10.0
X233.1Y0.0
X266.2Y43.1
X266.2Y33.1
X266.2Y10.0
X266.2Y0.0
X299.3Y43.1
X299.3Y33.1
X299.3Y10.0
X299.3Y0.0
T9
X-96.42Y-115.33
X-96.42Y-162.37
T10
X-100.0Y45.0
X-100.0Y-245.0
X-94.15Y-102.5
X-93.5Y-212.5
X-81.5Y21.5
X-48.5Y22.0
X-23.5Y-102.5
X-23.5Y-212.5
X-15.5Y22.0
X-15.0Y-10.0
X7.0Y-202.0
X17.5Y21.5
X50.5Y21.5
X84.0Y21.5
X117.0Y21.5
X117.5Y-10.55
X123.0Y-202.0
X150.5Y21.5
X183.5Y21.5
X216.5Y21.0
X217.5Y-10.0
X237.0Y-202.0
X249.5Y21.5
X282.5Y22.5
X310.0Y-245.0
T11
X-62.5Y-72.5
X-40.5Y-241.75
X77.0Y-120.0
X192.0Y-120.0
X307.0Y-120.0
T12
X30.0Y-21.0
X30.0Y-50.0
X30.0Y-211.0
X30.0Y-240.0
X145.0Y-21.0
X145.0Y-50.0
X145.0Y-211.0
X145.0Y-240.0
X260.0Y-21.0
X260.0Y-50.0
X260.0Y-211.0
X260.0Y-240.0
T8
G00X-65.425Y-33.06
M15
G01X-65.425Y-37.06
M16
G05
G00X-65.425Y-43.06
M15
G01X-65.425Y-47.06
M16
G05
G00X-55.83Y-36.99
M15
G01X-55.83Y-32.99
M16
G05
G00X-55.83Y-46.99
M15
G01X-55.83Y-42.99
M16
G05
G00X52.0Y-116.0
M15
G01X48.0Y-116.0
M16
G05
G00X48.01Y-123.185
M15
G01X52.01Y-123.185
M16
G05
G00X62.0Y-116.0
M15
G01X58.0Y-116.0
M16
G05
G00X58.01Y-123.185
M15
G01X62.01Y-123.185
M16
G05
G00X167.0Y-116.0
M15
G01X163.0Y-116.0
M16
G05
G00X163.01Y-123.185
M15
G01X167.01Y-123.185
M16
G05
G00X177.0Y-116.0
M15
G01X173.0Y-116.0
M16
G05
G00X173.01Y-123.185
M15
G01X177.01Y-123.185
M16
G05
G00X282.0Y-116.0
M15
G01X278.0Y-116.0
M16
G05
G00X278.03Y-123.185
M15
G01X282.03Y-123.185
M16
G05
G00X292.0Y-116.0
M15
G01X288.0Y-116.0
M16
G05
G00X288.03Y-123.185
M15
G01X292.03Y-123.185
M16
G05
M30
