%TF.GenerationSoftware,KiCad,Pcbnew,9.0.0*%
%TF.CreationDate,2025-04-23T18:39:58-07:00*%
%TF.ProjectId,PowerBoard,506f7765-7242-46f6-9172-642e6b696361,rev?*%
%TF.SameCoordinates,Original*%
%TF.FileFunction,Soldermask,Bot*%
%TF.FilePolarity,Negative*%
%FSLAX46Y46*%
G04 Gerber Fmt 4.6, Leading zero omitted, Abs format (unit mm)*
G04 Created by KiCad (PCBNEW 9.0.0) date 2025-04-23 18:39:58*
%MOMM*%
%LPD*%
G01*
G04 APERTURE LIST*
G04 Aperture macros list*
%AMRoundRect*
0 Rectangle with rounded corners*
0 $1 Rounding radius*
0 $2 $3 $4 $5 $6 $7 $8 $9 X,Y pos of 4 corners*
0 Add a 4 corners polygon primitive as box body*
4,1,4,$2,$3,$4,$5,$6,$7,$8,$9,$2,$3,0*
0 Add four circle primitives for the rounded corners*
1,1,$1+$1,$2,$3*
1,1,$1+$1,$4,$5*
1,1,$1+$1,$6,$7*
1,1,$1+$1,$8,$9*
0 Add four rect primitives between the rounded corners*
20,1,$1+$1,$2,$3,$4,$5,0*
20,1,$1+$1,$4,$5,$6,$7,0*
20,1,$1+$1,$6,$7,$8,$9,0*
20,1,$1+$1,$8,$9,$2,$3,0*%
%AMHorizOval*
0 Thick line with rounded ends*
0 $1 width*
0 $2 $3 position (X,Y) of the first rounded end (center of the circle)*
0 $4 $5 position (X,Y) of the second rounded end (center of the circle)*
0 Add line between two ends*
20,1,$1,$2,$3,$4,$5,0*
0 Add two circle primitives to create the rounded ends*
1,1,$1,$2,$3*
1,1,$1,$4,$5*%
G04 Aperture macros list end*
%ADD10R,50.000000X25.000000*%
%ADD11C,9.500000*%
%ADD12R,3.000000X3.000000*%
%ADD13C,3.000000*%
%ADD14RoundRect,0.900000X11.600000X-8.100000X11.600000X8.100000X-11.600000X8.100000X-11.600000X-8.100000X0*%
%ADD15R,25.000000X50.000000*%
%ADD16R,1.500000X1.500000*%
%ADD17C,1.500000*%
%ADD18HorizOval,0.800000X0.000000X0.000000X0.000000X0.000000X0*%
%ADD19HorizOval,0.800000X0.000000X0.000000X0.000000X0.000000X0*%
%ADD20C,0.800000*%
%ADD21O,9.000000X6.000000*%
%ADD22R,2.100000X2.100000*%
%ADD23C,2.100000*%
%ADD24HorizOval,0.800000X0.000000X0.000000X0.000000X0.000000X0*%
%ADD25HorizOval,0.800000X0.000000X0.000000X0.000000X0.000000X0*%
%ADD26O,6.000000X9.000000*%
%ADD27HorizOval,0.800000X0.000000X0.000000X0.000000X0.000000X0*%
%ADD28HorizOval,0.800000X0.000000X0.000000X0.000000X0.000000X0*%
%ADD29C,1.725000*%
%ADD30R,1.700000X1.700000*%
%ADD31C,1.700000*%
%ADD32HorizOval,0.800000X0.000000X0.000000X0.000000X0.000000X0*%
%ADD33HorizOval,0.800000X0.000000X0.000000X0.000000X0.000000X0*%
%ADD34C,1.575000*%
%ADD35C,4.650000*%
G04 APERTURE END LIST*
D10*
%TO.C,J2*%
X-62500000Y-72500000D03*
%TD*%
D11*
%TO.C,H22*%
X7000000Y-202000000D03*
%TD*%
D12*
%TO.C,C16*%
X34300000Y33100000D03*
D13*
X34300000Y43100000D03*
%TD*%
D12*
%TO.C,C14*%
X-31900000Y33100000D03*
D13*
X-31900000Y43100000D03*
%TD*%
D12*
%TO.C,C5*%
X266200000Y0D03*
D13*
X266200000Y10000000D03*
%TD*%
D12*
%TO.C,C1*%
X133800000Y0D03*
D13*
X133800000Y10000000D03*
%TD*%
D11*
%TO.C,H4*%
X-23500000Y-212500000D03*
%TD*%
D14*
%TO.C,Q4*%
X145000000Y-240000000D03*
X145000000Y-211000000D03*
%TD*%
D15*
%TO.C,J4*%
X192000000Y-120000000D03*
%TD*%
D11*
%TO.C,H9*%
X249500000Y21500000D03*
%TD*%
D12*
%TO.C,C101*%
X133800000Y33100000D03*
D13*
X133800000Y43100000D03*
%TD*%
D14*
%TO.C,Q2*%
X30000000Y-240000000D03*
X30000000Y-211000000D03*
%TD*%
D11*
%TO.C,H16*%
X17500000Y21500000D03*
%TD*%
D16*
%TO.C,C100*%
X224000000Y-60500000D03*
D17*
X224000000Y-33000000D03*
%TD*%
D14*
%TO.C,Q3*%
X145000000Y-50000000D03*
X145000000Y-21000000D03*
%TD*%
D12*
%TO.C,C6*%
X299300000Y0D03*
D13*
X299300000Y10000000D03*
%TD*%
D14*
%TO.C,Q5*%
X260000000Y-50000000D03*
X260000000Y-21000000D03*
%TD*%
D11*
%TO.C,H14*%
X84000000Y21500000D03*
%TD*%
D16*
%TO.C,IC9*%
X283120000Y-144585000D03*
D17*
X285030000Y-144585000D03*
X286940000Y-144585000D03*
D18*
X286080000Y-122555000D03*
D19*
X286080000Y-123815000D03*
D20*
X286830000Y-121525000D03*
X286830000Y-124845000D03*
X288030000Y-121135000D03*
X288030000Y-125235000D03*
X289360000Y-121135000D03*
X289360000Y-125235000D03*
D21*
X290030000Y-123185000D03*
D20*
X290700000Y-121135000D03*
X290700000Y-125235000D03*
X292030000Y-121135000D03*
X292030000Y-125235000D03*
X293230000Y-121525000D03*
X293230000Y-124845000D03*
X293980000Y-122555000D03*
X293980000Y-123815000D03*
X276080000Y-122555000D03*
X276080000Y-123815000D03*
X276830000Y-121525000D03*
X276830000Y-124845000D03*
X278030000Y-121135000D03*
X278030000Y-125235000D03*
X279360000Y-121135000D03*
X279360000Y-125235000D03*
D21*
X280030000Y-123185000D03*
D20*
X280700000Y-121135000D03*
X280700000Y-125235000D03*
X282030000Y-121135000D03*
X282030000Y-125235000D03*
X283230000Y-121525000D03*
X283230000Y-124845000D03*
D19*
X283980000Y-122555000D03*
D18*
X283980000Y-123815000D03*
%TD*%
D11*
%TO.C,H1*%
X-94150000Y-102500000D03*
%TD*%
D12*
%TO.C,C12*%
X100500000Y0D03*
D13*
X100500000Y10000000D03*
%TD*%
D22*
%TO.C,C97*%
X313150000Y-229000000D03*
D23*
X313150000Y-191500000D03*
X292850000Y-229000000D03*
X292850000Y-191500000D03*
%TD*%
D14*
%TO.C,Q6*%
X260000000Y-240000000D03*
X260000000Y-211000000D03*
%TD*%
D16*
%TO.C,C99*%
X281000000Y-47275000D03*
D17*
X281000000Y-32275000D03*
%TD*%
D12*
%TO.C,C17*%
X67400000Y33100000D03*
D13*
X67400000Y43100000D03*
%TD*%
D12*
%TO.C,C11*%
X67400000Y0D03*
D13*
X67400000Y10000000D03*
%TD*%
D11*
%TO.C,H7*%
X310000000Y-245000000D03*
%TD*%
D16*
%TO.C,C110*%
X110000000Y-228625000D03*
D17*
X110000000Y-201125000D03*
%TD*%
D22*
%TO.C,C87*%
X83150000Y-229000000D03*
D23*
X83150000Y-191500000D03*
X62850000Y-229000000D03*
X62850000Y-191500000D03*
%TD*%
D12*
%TO.C,C3*%
X200000000Y0D03*
D13*
X200000000Y10000000D03*
%TD*%
D16*
%TO.C,C98*%
X237000000Y-47275000D03*
D17*
X237000000Y-32275000D03*
%TD*%
D16*
%TO.C,IC3*%
X-86825000Y-38150000D03*
D17*
X-86825000Y-40060000D03*
X-86825000Y-41970000D03*
D24*
X-64795000Y-41110000D03*
D25*
X-66055000Y-41110000D03*
D20*
X-63765000Y-41860000D03*
X-67085000Y-41860000D03*
X-63375000Y-43060000D03*
X-67475000Y-43060000D03*
X-63375000Y-44390000D03*
X-67475000Y-44390000D03*
D26*
X-65425000Y-45060000D03*
D20*
X-63375000Y-45730000D03*
X-67475000Y-45730000D03*
X-63375000Y-47060000D03*
X-67475000Y-47060000D03*
X-63765000Y-48260000D03*
X-67085000Y-48260000D03*
X-64795000Y-49010000D03*
X-66055000Y-49010000D03*
X-64795000Y-31110000D03*
X-66055000Y-31110000D03*
X-63765000Y-31860000D03*
X-67085000Y-31860000D03*
X-63375000Y-33060000D03*
X-67475000Y-33060000D03*
X-63375000Y-34390000D03*
X-67475000Y-34390000D03*
D26*
X-65425000Y-35060000D03*
D20*
X-63375000Y-35730000D03*
X-67475000Y-35730000D03*
X-63375000Y-37060000D03*
X-67475000Y-37060000D03*
X-63765000Y-38260000D03*
X-67085000Y-38260000D03*
D25*
X-64795000Y-39010000D03*
D24*
X-66055000Y-39010000D03*
%TD*%
D16*
%TO.C,C103*%
X237000000Y-229275000D03*
D17*
X237000000Y-214275000D03*
%TD*%
D11*
%TO.C,H23*%
X123000000Y-202000000D03*
%TD*%
%TO.C,H10*%
X216500000Y21000000D03*
%TD*%
D16*
%TO.C,IC6*%
X56910000Y-94600000D03*
D17*
X55000000Y-94600000D03*
X53090000Y-94600000D03*
D27*
X53950000Y-116630000D03*
D28*
X53950000Y-115370000D03*
D20*
X53200000Y-117660000D03*
X53200000Y-114340000D03*
X52000000Y-118050000D03*
X52000000Y-113950000D03*
X50670000Y-118050000D03*
X50670000Y-113950000D03*
D21*
X50000000Y-116000000D03*
D20*
X49330000Y-118050000D03*
X49330000Y-113950000D03*
X48000000Y-118050000D03*
X48000000Y-113950000D03*
X46800000Y-117660000D03*
X46800000Y-114340000D03*
X46050000Y-116630000D03*
X46050000Y-115370000D03*
X63950000Y-116630000D03*
X63950000Y-115370000D03*
X63200000Y-117660000D03*
X63200000Y-114340000D03*
X62000000Y-118050000D03*
X62000000Y-113950000D03*
X60670000Y-118050000D03*
X60670000Y-113950000D03*
D21*
X60000000Y-116000000D03*
D20*
X59330000Y-118050000D03*
X59330000Y-113950000D03*
X58000000Y-118050000D03*
X58000000Y-113950000D03*
X56800000Y-117660000D03*
X56800000Y-114340000D03*
D28*
X56050000Y-116630000D03*
D27*
X56050000Y-115370000D03*
%TD*%
D16*
%TO.C,C20*%
X7000000Y-46000000D03*
D17*
X7000000Y-31000000D03*
%TD*%
D12*
%TO.C,C18*%
X100500000Y33100000D03*
D13*
X100500000Y43100000D03*
%TD*%
D11*
%TO.C,H8*%
X282500000Y22500000D03*
%TD*%
D12*
%TO.C,C111*%
X266200000Y33100000D03*
D13*
X266200000Y43100000D03*
%TD*%
D14*
%TO.C,Q1*%
X30000000Y-50000000D03*
X30000000Y-21000000D03*
%TD*%
D11*
%TO.C,H6*%
X-100000000Y-245000000D03*
%TD*%
%TO.C,H24*%
X237000000Y-202000000D03*
%TD*%
D29*
%TO.C,PS1*%
X-8915000Y-102325000D03*
X-8915000Y-99785000D03*
X-8915000Y-92165000D03*
X-8915000Y-87085000D03*
%TD*%
D16*
%TO.C,C88*%
X51000000Y-229000000D03*
D17*
X51000000Y-214000000D03*
%TD*%
D11*
%TO.C,H21*%
X217500000Y-10000000D03*
%TD*%
D12*
%TO.C,C9*%
X1200000Y0D03*
D13*
X1200000Y10000000D03*
%TD*%
D30*
%TO.C,J8*%
X-68500000Y-215000000D03*
D31*
X-65960000Y-215000000D03*
X-63420000Y-215000000D03*
X-60880000Y-215000000D03*
X-58340000Y-215000000D03*
X-55800000Y-215000000D03*
X-53260000Y-215000000D03*
X-50720000Y-215000000D03*
X-48180000Y-215000000D03*
X-45640000Y-215000000D03*
%TD*%
D12*
%TO.C,C15*%
X1200000Y33100000D03*
D13*
X1200000Y43100000D03*
%TD*%
D16*
%TO.C,C94*%
X166000000Y-47000000D03*
D17*
X166000000Y-32000000D03*
%TD*%
D11*
%TO.C,H13*%
X117000000Y21500000D03*
%TD*%
D16*
%TO.C,IC5*%
X53100000Y-144585000D03*
D17*
X55010000Y-144585000D03*
X56920000Y-144585000D03*
D18*
X56060000Y-122555000D03*
D19*
X56060000Y-123815000D03*
D20*
X56810000Y-121525000D03*
X56810000Y-124845000D03*
X58010000Y-121135000D03*
X58010000Y-125235000D03*
X59340000Y-121135000D03*
X59340000Y-125235000D03*
D21*
X60010000Y-123185000D03*
D20*
X60680000Y-121135000D03*
X60680000Y-125235000D03*
X62010000Y-121135000D03*
X62010000Y-125235000D03*
X63210000Y-121525000D03*
X63210000Y-124845000D03*
X63960000Y-122555000D03*
X63960000Y-123815000D03*
X46060000Y-122555000D03*
X46060000Y-123815000D03*
X46810000Y-121525000D03*
X46810000Y-124845000D03*
X48010000Y-121135000D03*
X48010000Y-125235000D03*
X49340000Y-121135000D03*
X49340000Y-125235000D03*
D21*
X50010000Y-123185000D03*
D20*
X50680000Y-121135000D03*
X50680000Y-125235000D03*
X52010000Y-121135000D03*
X52010000Y-125235000D03*
X53210000Y-121525000D03*
X53210000Y-124845000D03*
D19*
X53960000Y-122555000D03*
D18*
X53960000Y-123815000D03*
%TD*%
D22*
%TO.C,C96*%
X313300000Y-70500000D03*
D23*
X313300000Y-33000000D03*
X293000000Y-70500000D03*
X293000000Y-33000000D03*
%TD*%
D12*
%TO.C,C2*%
X166900000Y0D03*
D13*
X166900000Y10000000D03*
%TD*%
D16*
%TO.C,C108*%
X123000000Y-229275000D03*
D17*
X123000000Y-214275000D03*
%TD*%
D15*
%TO.C,J5*%
X307000000Y-120000000D03*
%TD*%
D12*
%TO.C,C13*%
X-65000000Y33100000D03*
D13*
X-65000000Y43100000D03*
%TD*%
D11*
%TO.C,H15*%
X50500000Y21500000D03*
%TD*%
%TO.C,H17*%
X-15500000Y22000000D03*
%TD*%
%TO.C,H19*%
X-81500000Y21500000D03*
%TD*%
%TO.C,H18*%
X-48500000Y22000000D03*
%TD*%
D16*
%TO.C,C90*%
X-6000000Y-228625000D03*
D17*
X-6000000Y-201125000D03*
%TD*%
D16*
%TO.C,C104*%
X281000000Y-229275000D03*
D17*
X281000000Y-214275000D03*
%TD*%
D12*
%TO.C,C8*%
X-31900000Y0D03*
D13*
X-31900000Y10000000D03*
%TD*%
D16*
%TO.C,IC4*%
X-34430000Y-41900000D03*
D17*
X-34430000Y-39990000D03*
X-34430000Y-38080000D03*
D32*
X-56460000Y-38940000D03*
D33*
X-55200000Y-38940000D03*
D20*
X-57490000Y-38190000D03*
X-54170000Y-38190000D03*
X-57880000Y-36990000D03*
X-53780000Y-36990000D03*
X-57880000Y-35660000D03*
X-53780000Y-35660000D03*
D26*
X-55830000Y-34990000D03*
D20*
X-57880000Y-34320000D03*
X-53780000Y-34320000D03*
X-57880000Y-32990000D03*
X-53780000Y-32990000D03*
X-57490000Y-31790000D03*
X-54170000Y-31790000D03*
X-56460000Y-31040000D03*
X-55200000Y-31040000D03*
X-56460000Y-48940000D03*
X-55200000Y-48940000D03*
X-57490000Y-48190000D03*
X-54170000Y-48190000D03*
X-57880000Y-46990000D03*
X-53780000Y-46990000D03*
X-57880000Y-45660000D03*
X-53780000Y-45660000D03*
D26*
X-55830000Y-44990000D03*
D20*
X-57880000Y-44320000D03*
X-53780000Y-44320000D03*
X-57880000Y-42990000D03*
X-53780000Y-42990000D03*
X-57490000Y-41790000D03*
X-54170000Y-41790000D03*
D33*
X-56460000Y-41040000D03*
D32*
X-55200000Y-41040000D03*
%TD*%
D12*
%TO.C,C10*%
X34300000Y0D03*
D13*
X34300000Y10000000D03*
%TD*%
D22*
%TO.C,C86*%
X83300000Y-70500000D03*
D23*
X83300000Y-33000000D03*
X63000000Y-70500000D03*
X63000000Y-33000000D03*
%TD*%
D16*
%TO.C,C95*%
X110000000Y-60500000D03*
D17*
X110000000Y-33000000D03*
%TD*%
D16*
%TO.C,C93*%
X123000000Y-47000000D03*
D17*
X123000000Y-32000000D03*
%TD*%
D12*
%TO.C,C7*%
X-65000000Y0D03*
D13*
X-65000000Y10000000D03*
%TD*%
D16*
%TO.C,C84*%
X51000000Y-47000000D03*
D17*
X51000000Y-32000000D03*
%TD*%
D16*
%TO.C,C85*%
X-6000000Y-59500000D03*
D17*
X-6000000Y-32000000D03*
%TD*%
D22*
%TO.C,C91*%
X198300000Y-70000000D03*
D23*
X198300000Y-32500000D03*
X178000000Y-70000000D03*
X178000000Y-32500000D03*
%TD*%
D30*
%TO.C,J9*%
X-68500000Y-100000000D03*
D31*
X-65960000Y-100000000D03*
X-63420000Y-100000000D03*
X-60880000Y-100000000D03*
X-58340000Y-100000000D03*
X-55800000Y-100000000D03*
X-53260000Y-100000000D03*
X-50720000Y-100000000D03*
X-48180000Y-100000000D03*
X-45640000Y-100000000D03*
%TD*%
D12*
%TO.C,C106*%
X200000000Y33100000D03*
D13*
X200000000Y43100000D03*
%TD*%
D11*
%TO.C,H5*%
X-100000000Y45000000D03*
%TD*%
D16*
%TO.C,C89*%
X7000000Y-229275000D03*
D17*
X7000000Y-214275000D03*
%TD*%
D11*
%TO.C,H11*%
X183500000Y21500000D03*
%TD*%
D12*
%TO.C,C112*%
X299300000Y33100000D03*
D13*
X299300000Y43100000D03*
%TD*%
D12*
%TO.C,C107*%
X233100000Y33100000D03*
D13*
X233100000Y43100000D03*
%TD*%
D11*
%TO.C,H20*%
X117500000Y-10550000D03*
%TD*%
D12*
%TO.C,C4*%
X233100000Y0D03*
D13*
X233100000Y10000000D03*
%TD*%
D22*
%TO.C,C92*%
X198300000Y-229000000D03*
D23*
X198300000Y-191500000D03*
X178000000Y-229000000D03*
X178000000Y-191500000D03*
%TD*%
D10*
%TO.C,J1*%
X-40500000Y-241750000D03*
%TD*%
D11*
%TO.C,H19*%
X-15000000Y-10000000D03*
%TD*%
%TO.C,H3*%
X-93500000Y-212500000D03*
%TD*%
D16*
%TO.C,C109*%
X166000000Y-229275000D03*
D17*
X166000000Y-214275000D03*
%TD*%
D15*
%TO.C,J3*%
X77000000Y-120000000D03*
%TD*%
D16*
%TO.C,IC8*%
X171910000Y-94600000D03*
D17*
X170000000Y-94600000D03*
X168090000Y-94600000D03*
D27*
X168950000Y-116630000D03*
D28*
X168950000Y-115370000D03*
D20*
X168200000Y-117660000D03*
X168200000Y-114340000D03*
X167000000Y-118050000D03*
X167000000Y-113950000D03*
X165670000Y-118050000D03*
X165670000Y-113950000D03*
D21*
X165000000Y-116000000D03*
D20*
X164330000Y-118050000D03*
X164330000Y-113950000D03*
X163000000Y-118050000D03*
X163000000Y-113950000D03*
X161800000Y-117660000D03*
X161800000Y-114340000D03*
X161050000Y-116630000D03*
X161050000Y-115370000D03*
X178950000Y-116630000D03*
X178950000Y-115370000D03*
X178200000Y-117660000D03*
X178200000Y-114340000D03*
X177000000Y-118050000D03*
X177000000Y-113950000D03*
X175670000Y-118050000D03*
X175670000Y-113950000D03*
D21*
X175000000Y-116000000D03*
D20*
X174330000Y-118050000D03*
X174330000Y-113950000D03*
X173000000Y-118050000D03*
X173000000Y-113950000D03*
X171800000Y-117660000D03*
X171800000Y-114340000D03*
D28*
X171050000Y-116630000D03*
D27*
X171050000Y-115370000D03*
%TD*%
D11*
%TO.C,H12*%
X150500000Y21500000D03*
%TD*%
D16*
%TO.C,IC7*%
X168100000Y-144585000D03*
D17*
X170010000Y-144585000D03*
X171920000Y-144585000D03*
D18*
X171060000Y-122555000D03*
D19*
X171060000Y-123815000D03*
D20*
X171810000Y-121525000D03*
X171810000Y-124845000D03*
X173010000Y-121135000D03*
X173010000Y-125235000D03*
X174340000Y-121135000D03*
X174340000Y-125235000D03*
D21*
X175010000Y-123185000D03*
D20*
X175680000Y-121135000D03*
X175680000Y-125235000D03*
X177010000Y-121135000D03*
X177010000Y-125235000D03*
X178210000Y-121525000D03*
X178210000Y-124845000D03*
X178960000Y-122555000D03*
X178960000Y-123815000D03*
X161060000Y-122555000D03*
X161060000Y-123815000D03*
X161810000Y-121525000D03*
X161810000Y-124845000D03*
X163010000Y-121135000D03*
X163010000Y-125235000D03*
X164340000Y-121135000D03*
X164340000Y-125235000D03*
D21*
X165010000Y-123185000D03*
D20*
X165680000Y-121135000D03*
X165680000Y-125235000D03*
X167010000Y-121135000D03*
X167010000Y-125235000D03*
X168210000Y-121525000D03*
X168210000Y-124845000D03*
D19*
X168960000Y-122555000D03*
D18*
X168960000Y-123815000D03*
%TD*%
D16*
%TO.C,IC10*%
X286910000Y-94600000D03*
D17*
X285000000Y-94600000D03*
X283090000Y-94600000D03*
D27*
X283950000Y-116630000D03*
D28*
X283950000Y-115370000D03*
D20*
X283200000Y-117660000D03*
X283200000Y-114340000D03*
X282000000Y-118050000D03*
X282000000Y-113950000D03*
X280670000Y-118050000D03*
X280670000Y-113950000D03*
D21*
X280000000Y-116000000D03*
D20*
X279330000Y-118050000D03*
X279330000Y-113950000D03*
X278000000Y-118050000D03*
X278000000Y-113950000D03*
X276800000Y-117660000D03*
X276800000Y-114340000D03*
X276050000Y-116630000D03*
X276050000Y-115370000D03*
X293950000Y-116630000D03*
X293950000Y-115370000D03*
X293200000Y-117660000D03*
X293200000Y-114340000D03*
X292000000Y-118050000D03*
X292000000Y-113950000D03*
X290670000Y-118050000D03*
X290670000Y-113950000D03*
D21*
X290000000Y-116000000D03*
D20*
X289330000Y-118050000D03*
X289330000Y-113950000D03*
X288000000Y-118050000D03*
X288000000Y-113950000D03*
X286800000Y-117660000D03*
X286800000Y-114340000D03*
D28*
X286050000Y-116630000D03*
D27*
X286050000Y-115370000D03*
%TD*%
D12*
%TO.C,C102*%
X166900000Y33100000D03*
D13*
X166900000Y43100000D03*
%TD*%
D11*
%TO.C,H2*%
X-23500000Y-102500000D03*
%TD*%
D16*
%TO.C,C105*%
X224000000Y-228625000D03*
D17*
X224000000Y-201125000D03*
%TD*%
D34*
%TO.C,J6*%
X-95000000Y-122230000D03*
X-95000000Y-125000000D03*
X-95000000Y-127770000D03*
X-95000000Y-130540000D03*
X-95000000Y-133310000D03*
X-95000000Y-136080000D03*
X-95000000Y-138850000D03*
X-95000000Y-141620000D03*
X-95000000Y-144390000D03*
X-95000000Y-147160000D03*
X-95000000Y-149930000D03*
X-95000000Y-152700000D03*
X-95000000Y-155470000D03*
X-97840000Y-154085000D03*
X-97840000Y-151315000D03*
X-97840000Y-148545000D03*
X-97840000Y-145775000D03*
X-97840000Y-143005000D03*
X-97840000Y-140235000D03*
X-97840000Y-137465000D03*
X-97840000Y-134695000D03*
X-97840000Y-131925000D03*
X-97840000Y-129155000D03*
X-97840000Y-126385000D03*
X-97840000Y-123615000D03*
D35*
X-96420000Y-115330000D03*
X-96420000Y-162370000D03*
%TD*%
M02*
