%TF.GenerationSoftware,KiCad,Pcbnew,9.0.1*%
%TF.CreationDate,2025-04-13T16:26:26-07:00*%
%TF.ProjectId,HMI,484d492e-6b69-4636-9164-5f7063625858,rev?*%
%TF.SameCoordinates,Original*%
%TF.FileFunction,Soldermask,Top*%
%TF.FilePolarity,Negative*%
%FSLAX46Y46*%
G04 Gerber Fmt 4.6, Leading zero omitted, Abs format (unit mm)*
G04 Created by KiCad (PCBNEW 9.0.1) date 2025-04-13 16:26:26*
%MOMM*%
%LPD*%
G01*
G04 APERTURE LIST*
G04 Aperture macros list*
%AMRoundRect*
0 Rectangle with rounded corners*
0 $1 Rounding radius*
0 $2 $3 $4 $5 $6 $7 $8 $9 X,Y pos of 4 corners*
0 Add a 4 corners polygon primitive as box body*
4,1,4,$2,$3,$4,$5,$6,$7,$8,$9,$2,$3,0*
0 Add four circle primitives for the rounded corners*
1,1,$1+$1,$2,$3*
1,1,$1+$1,$4,$5*
1,1,$1+$1,$6,$7*
1,1,$1+$1,$8,$9*
0 Add four rect primitives between the rounded corners*
20,1,$1+$1,$2,$3,$4,$5,0*
20,1,$1+$1,$4,$5,$6,$7,0*
20,1,$1+$1,$6,$7,$8,$9,0*
20,1,$1+$1,$8,$9,$2,$3,0*%
G04 Aperture macros list end*
%ADD10R,0.650000X1.850000*%
%ADD11C,1.650000*%
%ADD12R,1.650000X1.650000*%
%ADD13R,1.050000X0.600000*%
%ADD14R,4.900000X3.000000*%
%ADD15RoundRect,0.250000X1.075000X-0.400000X1.075000X0.400000X-1.075000X0.400000X-1.075000X-0.400000X0*%
%ADD16RoundRect,0.250000X0.400000X1.075000X-0.400000X1.075000X-0.400000X-1.075000X0.400000X-1.075000X0*%
%ADD17RoundRect,0.250000X-0.400000X-1.075000X0.400000X-1.075000X0.400000X1.075000X-0.400000X1.075000X0*%
%ADD18C,1.725000*%
%ADD19R,1.700000X1.700000*%
%ADD20C,1.700000*%
%ADD21R,1.950000X1.950000*%
%ADD22C,1.950000*%
%ADD23R,0.450000X1.475000*%
%ADD24C,9.500000*%
%ADD25R,0.900000X1.350000*%
%ADD26RoundRect,0.250000X1.100000X-0.412500X1.100000X0.412500X-1.100000X0.412500X-1.100000X-0.412500X0*%
%ADD27RoundRect,0.250000X0.412500X1.100000X-0.412500X1.100000X-0.412500X-1.100000X0.412500X-1.100000X0*%
%ADD28RoundRect,0.250000X-1.100000X0.412500X-1.100000X-0.412500X1.100000X-0.412500X1.100000X0.412500X0*%
%ADD29RoundRect,0.250000X-0.412500X-1.100000X0.412500X-1.100000X0.412500X1.100000X-0.412500X1.100000X0*%
%ADD30C,3.200000*%
%ADD31O,1.727200X1.727200*%
%ADD32R,1.727200X1.727200*%
G04 APERTURE END LIST*
D10*
%TO.C,IC1*%
X59405000Y-140825000D03*
X58135000Y-140825000D03*
X56865000Y-140825000D03*
X55595000Y-140825000D03*
X55595000Y-130175000D03*
X56865000Y-130175000D03*
X58135000Y-130175000D03*
X59405000Y-130175000D03*
%TD*%
D11*
%TO.C,J7*%
X207500000Y-42500000D03*
X211000000Y-42500000D03*
D12*
X214500000Y-42500000D03*
%TD*%
D11*
%TO.C,J17*%
X72500000Y-42450000D03*
X76000000Y-42450000D03*
D12*
X79500000Y-42450000D03*
%TD*%
D11*
%TO.C,J9*%
X180500000Y-42450000D03*
X184000000Y-42450000D03*
D12*
X187500000Y-42450000D03*
%TD*%
D11*
%TO.C,J16*%
X86000000Y-42450000D03*
X89500000Y-42450000D03*
D12*
X93000000Y-42450000D03*
%TD*%
D11*
%TO.C,J21*%
X39000000Y-75000000D03*
X35500000Y-75000000D03*
D12*
X32000000Y-75000000D03*
%TD*%
D11*
%TO.C,J6*%
X221000000Y-42500000D03*
X224500000Y-42500000D03*
D12*
X228000000Y-42500000D03*
%TD*%
D11*
%TO.C,J25*%
X93000000Y-75000000D03*
X89500000Y-75000000D03*
D12*
X86000000Y-75000000D03*
%TD*%
D13*
%TO.C,Q2*%
X255000000Y-50500000D03*
X252800000Y-51450000D03*
X252800000Y-49550000D03*
%TD*%
D11*
%TO.C,J3*%
X261500000Y-42500000D03*
X265000000Y-42500000D03*
D12*
X268500000Y-42500000D03*
%TD*%
D13*
%TO.C,Q17*%
X52500000Y-50550000D03*
X50300000Y-51500000D03*
X50300000Y-49600000D03*
%TD*%
%TO.C,Q18*%
X39000000Y-50500000D03*
X36800000Y-51450000D03*
X36800000Y-49550000D03*
%TD*%
D11*
%TO.C,J5*%
X234500000Y-42500000D03*
X238000000Y-42500000D03*
D12*
X241500000Y-42500000D03*
%TD*%
D11*
%TO.C,J13*%
X126500000Y-42450000D03*
X130000000Y-42450000D03*
D12*
X133500000Y-42450000D03*
%TD*%
D13*
%TO.C,Q1*%
X268500000Y-50500000D03*
X266300000Y-51450000D03*
X266300000Y-49550000D03*
%TD*%
D11*
%TO.C,J24*%
X79500000Y-75050000D03*
X76000000Y-75050000D03*
D12*
X72500000Y-75050000D03*
%TD*%
D11*
%TO.C,J14*%
X113000000Y-42450000D03*
X116500000Y-42450000D03*
D12*
X120000000Y-42450000D03*
%TD*%
D13*
%TO.C,Q24*%
X99500000Y-66500000D03*
X101700000Y-65550000D03*
X101700000Y-67450000D03*
%TD*%
%TO.C,Q22*%
X72500000Y-66500000D03*
X74700000Y-65550000D03*
X74700000Y-67450000D03*
%TD*%
%TO.C,Q23*%
X86000000Y-66500000D03*
X88200000Y-65550000D03*
X88200000Y-67450000D03*
%TD*%
%TO.C,Q13*%
X106500000Y-50500000D03*
X104300000Y-51450000D03*
X104300000Y-49550000D03*
%TD*%
%TO.C,Q14*%
X93000000Y-50500000D03*
X90800000Y-51450000D03*
X90800000Y-49550000D03*
%TD*%
%TO.C,Q7*%
X187500000Y-50500000D03*
X185300000Y-51450000D03*
X185300000Y-49550000D03*
%TD*%
D11*
%TO.C,J10*%
X167000000Y-42450000D03*
X170500000Y-42450000D03*
D12*
X174000000Y-42450000D03*
%TD*%
D11*
%TO.C,J20*%
X32000000Y-42450000D03*
X35500000Y-42450000D03*
D12*
X39000000Y-42450000D03*
%TD*%
D11*
%TO.C,J18*%
X59000000Y-42450000D03*
X62500000Y-42450000D03*
D12*
X66000000Y-42450000D03*
%TD*%
D13*
%TO.C,Q19*%
X32000000Y-66550000D03*
X34200000Y-65600000D03*
X34200000Y-67500000D03*
%TD*%
%TO.C,Q20*%
X45500000Y-66500000D03*
X47700000Y-65550000D03*
X47700000Y-67450000D03*
%TD*%
%TO.C,Q21*%
X59000000Y-66500000D03*
X61200000Y-65550000D03*
X61200000Y-67450000D03*
%TD*%
%TO.C,Q15*%
X79500000Y-50500000D03*
X77300000Y-51450000D03*
X77300000Y-49550000D03*
%TD*%
%TO.C,Q16*%
X66000000Y-50500000D03*
X63800000Y-51450000D03*
X63800000Y-49550000D03*
%TD*%
%TO.C,Q3*%
X241500000Y-50500000D03*
X239300000Y-51450000D03*
X239300000Y-49550000D03*
%TD*%
%TO.C,Q4*%
X228000000Y-50500000D03*
X225800000Y-51450000D03*
X225800000Y-49550000D03*
%TD*%
D11*
%TO.C,J4*%
X248000000Y-42500000D03*
X251500000Y-42500000D03*
D12*
X255000000Y-42500000D03*
%TD*%
D11*
%TO.C,J15*%
X99500000Y-42450000D03*
X103000000Y-42450000D03*
D12*
X106500000Y-42450000D03*
%TD*%
D11*
%TO.C,J11*%
X153500000Y-42500000D03*
X157000000Y-42500000D03*
D12*
X160500000Y-42500000D03*
%TD*%
D11*
%TO.C,J23*%
X66000000Y-75000000D03*
X62500000Y-75000000D03*
D12*
X59000000Y-75000000D03*
%TD*%
D11*
%TO.C,J22*%
X52500000Y-75000000D03*
X49000000Y-75000000D03*
D12*
X45500000Y-75000000D03*
%TD*%
D13*
%TO.C,Q5*%
X214500000Y-50500000D03*
X212300000Y-51450000D03*
X212300000Y-49550000D03*
%TD*%
%TO.C,Q6*%
X201000000Y-50500000D03*
X198800000Y-51450000D03*
X198800000Y-49550000D03*
%TD*%
D11*
%TO.C,J12*%
X140000000Y-42500000D03*
X143500000Y-42500000D03*
D12*
X147000000Y-42500000D03*
%TD*%
D13*
%TO.C,Q12*%
X120000000Y-50500000D03*
X117800000Y-51450000D03*
X117800000Y-49550000D03*
%TD*%
D11*
%TO.C,J26*%
X106500000Y-75000000D03*
X103000000Y-75000000D03*
D12*
X99500000Y-75000000D03*
%TD*%
D13*
%TO.C,Q8*%
X174000000Y-50500000D03*
X171800000Y-51450000D03*
X171800000Y-49550000D03*
%TD*%
%TO.C,Q9*%
X160500000Y-50500000D03*
X158300000Y-51450000D03*
X158300000Y-49550000D03*
%TD*%
D11*
%TO.C,J19*%
X45500000Y-42500000D03*
X49000000Y-42500000D03*
D12*
X52500000Y-42500000D03*
%TD*%
D11*
%TO.C,J8*%
X194000000Y-42450000D03*
X197500000Y-42450000D03*
D12*
X201000000Y-42450000D03*
%TD*%
D13*
%TO.C,Q10*%
X147000000Y-50500000D03*
X144800000Y-51450000D03*
X144800000Y-49550000D03*
%TD*%
%TO.C,Q11*%
X133500000Y-50500000D03*
X131300000Y-51450000D03*
X131300000Y-49550000D03*
%TD*%
D14*
%TO.C,Y1*%
X73100000Y-137385000D03*
X80400000Y-137385000D03*
%TD*%
D15*
%TO.C,R60*%
X40885000Y-151135000D03*
X40885000Y-148035000D03*
%TD*%
D16*
%TO.C,R59*%
X71612500Y-119250000D03*
X68512500Y-119250000D03*
%TD*%
D17*
%TO.C,R38*%
X84900000Y-146500000D03*
X88000000Y-146500000D03*
%TD*%
%TO.C,R37*%
X98450000Y-146500000D03*
X101550000Y-146500000D03*
%TD*%
%TO.C,R36*%
X111900000Y-146500000D03*
X115000000Y-146500000D03*
%TD*%
%TO.C,R35*%
X125400000Y-146500000D03*
X128500000Y-146500000D03*
%TD*%
%TO.C,R34*%
X138900000Y-146500000D03*
X142000000Y-146500000D03*
%TD*%
%TO.C,R33*%
X152400000Y-146500000D03*
X155500000Y-146500000D03*
%TD*%
%TO.C,R32*%
X165900000Y-146500000D03*
X169000000Y-146500000D03*
%TD*%
%TO.C,R31*%
X179400000Y-146500000D03*
X182500000Y-146500000D03*
%TD*%
%TO.C,R30*%
X192900000Y-146500000D03*
X196000000Y-146500000D03*
%TD*%
%TO.C,R29*%
X206400000Y-146500000D03*
X209500000Y-146500000D03*
%TD*%
%TO.C,R28*%
X219900000Y-146500000D03*
X223000000Y-146500000D03*
%TD*%
%TO.C,R27*%
X233400000Y-146500000D03*
X236500000Y-146500000D03*
%TD*%
%TO.C,R26*%
X246900000Y-146500000D03*
X250000000Y-146500000D03*
%TD*%
%TO.C,R25*%
X260500000Y-146500000D03*
X263600000Y-146500000D03*
%TD*%
D16*
%TO.C,R24*%
X107100000Y-63000000D03*
X104000000Y-63000000D03*
%TD*%
%TO.C,R23*%
X93550000Y-63000000D03*
X90450000Y-63000000D03*
%TD*%
%TO.C,R22*%
X80100000Y-63000000D03*
X77000000Y-63000000D03*
%TD*%
%TO.C,R21*%
X66600000Y-62500000D03*
X63500000Y-62500000D03*
%TD*%
%TO.C,R20*%
X53000000Y-62500000D03*
X49900000Y-62500000D03*
%TD*%
%TO.C,R19*%
X39600000Y-62500000D03*
X36500000Y-62500000D03*
%TD*%
D17*
%TO.C,R18*%
X31500000Y-54450000D03*
X34600000Y-54450000D03*
%TD*%
%TO.C,R17*%
X44900000Y-54450000D03*
X48000000Y-54450000D03*
%TD*%
%TO.C,R16*%
X58500000Y-54450000D03*
X61600000Y-54450000D03*
%TD*%
%TO.C,R15*%
X71900000Y-54450000D03*
X75000000Y-54450000D03*
%TD*%
%TO.C,R14*%
X85500000Y-54450000D03*
X88600000Y-54450000D03*
%TD*%
%TO.C,R13*%
X99000000Y-54450000D03*
X102100000Y-54450000D03*
%TD*%
%TO.C,R12*%
X112450000Y-54450000D03*
X115550000Y-54450000D03*
%TD*%
%TO.C,R11*%
X126000000Y-54450000D03*
X129100000Y-54450000D03*
%TD*%
%TO.C,R10*%
X139450000Y-54450000D03*
X142550000Y-54450000D03*
%TD*%
%TO.C,R9*%
X152950000Y-54450000D03*
X156050000Y-54450000D03*
%TD*%
%TO.C,R8*%
X166450000Y-54450000D03*
X169550000Y-54450000D03*
%TD*%
%TO.C,R7*%
X179950000Y-54450000D03*
X183050000Y-54450000D03*
%TD*%
%TO.C,R6*%
X193450000Y-54450000D03*
X196550000Y-54450000D03*
%TD*%
%TO.C,R5*%
X206900000Y-54450000D03*
X210000000Y-54450000D03*
%TD*%
%TO.C,R4*%
X220450000Y-54450000D03*
X223550000Y-54450000D03*
%TD*%
%TO.C,R3*%
X233900000Y-54450000D03*
X237000000Y-54450000D03*
%TD*%
%TO.C,R2*%
X247450000Y-54450000D03*
X250550000Y-54450000D03*
%TD*%
%TO.C,R1*%
X260950000Y-54450000D03*
X264050000Y-54450000D03*
%TD*%
D18*
%TO.C,PS1*%
X41115000Y-125675000D03*
X41115000Y-128215000D03*
X41115000Y-135835000D03*
X41115000Y-140915000D03*
%TD*%
D19*
%TO.C,JP1*%
X45385000Y-151125000D03*
D20*
X45385000Y-148585000D03*
%TD*%
D12*
%TO.C,J58*%
X54885000Y-160585000D03*
D11*
X58385000Y-160585000D03*
X61885000Y-160585000D03*
%TD*%
D12*
%TO.C,J57*%
X41385000Y-160585000D03*
D11*
X44885000Y-160585000D03*
X48385000Y-160585000D03*
%TD*%
D12*
%TO.C,J56*%
X99000000Y-136000000D03*
D11*
X95500000Y-136000000D03*
X92000000Y-136000000D03*
%TD*%
D12*
%TO.C,J55*%
X112500000Y-136000000D03*
D11*
X109000000Y-136000000D03*
X105500000Y-136000000D03*
%TD*%
D12*
%TO.C,J54*%
X126000000Y-135950000D03*
D11*
X122500000Y-135950000D03*
X119000000Y-135950000D03*
%TD*%
D12*
%TO.C,J53*%
X139500000Y-136000000D03*
D11*
X136000000Y-136000000D03*
X132500000Y-136000000D03*
%TD*%
D12*
%TO.C,J52*%
X132500000Y-111500000D03*
D11*
X136000000Y-111500000D03*
X139500000Y-111500000D03*
%TD*%
D12*
%TO.C,J51*%
X119000000Y-111500000D03*
D11*
X122500000Y-111500000D03*
X126000000Y-111500000D03*
%TD*%
D12*
%TO.C,J50*%
X105500000Y-111500000D03*
D11*
X109000000Y-111500000D03*
X112500000Y-111500000D03*
%TD*%
D12*
%TO.C,J49*%
X92000000Y-111500000D03*
D11*
X95500000Y-111500000D03*
X99000000Y-111500000D03*
%TD*%
D12*
%TO.C,J48*%
X78500000Y-111500000D03*
D11*
X82000000Y-111500000D03*
X85500000Y-111500000D03*
%TD*%
D12*
%TO.C,J47*%
X85500000Y-98450000D03*
D11*
X82000000Y-98450000D03*
X78500000Y-98450000D03*
%TD*%
D12*
%TO.C,J46*%
X99000000Y-98450000D03*
D11*
X95500000Y-98450000D03*
X92000000Y-98450000D03*
%TD*%
D12*
%TO.C,J45*%
X112500000Y-98450000D03*
D11*
X109000000Y-98450000D03*
X105500000Y-98450000D03*
%TD*%
D12*
%TO.C,J44*%
X126000000Y-98450000D03*
D11*
X122500000Y-98450000D03*
X119000000Y-98450000D03*
%TD*%
D12*
%TO.C,J43*%
X139500000Y-98450000D03*
D11*
X136000000Y-98450000D03*
X132500000Y-98450000D03*
%TD*%
D12*
%TO.C,J42*%
X72000000Y-98500000D03*
D11*
X68500000Y-98500000D03*
X65000000Y-98500000D03*
%TD*%
D12*
%TO.C,J41*%
X58500000Y-98500000D03*
D11*
X55000000Y-98500000D03*
X51500000Y-98500000D03*
%TD*%
D12*
%TO.C,J40*%
X84500000Y-155000000D03*
D11*
X88000000Y-155000000D03*
X91500000Y-155000000D03*
%TD*%
D12*
%TO.C,J39*%
X98000000Y-155000000D03*
D11*
X101500000Y-155000000D03*
X105000000Y-155000000D03*
%TD*%
D12*
%TO.C,J38*%
X111500000Y-155050000D03*
D11*
X115000000Y-155050000D03*
X118500000Y-155050000D03*
%TD*%
D12*
%TO.C,J37*%
X125000000Y-155050000D03*
D11*
X128500000Y-155050000D03*
X132000000Y-155050000D03*
%TD*%
D12*
%TO.C,J36*%
X138500000Y-155050000D03*
D11*
X142000000Y-155050000D03*
X145500000Y-155050000D03*
%TD*%
D12*
%TO.C,J35*%
X152000000Y-155050000D03*
D11*
X155500000Y-155050000D03*
X159000000Y-155050000D03*
%TD*%
D12*
%TO.C,J34*%
X165500000Y-155000000D03*
D11*
X169000000Y-155000000D03*
X172500000Y-155000000D03*
%TD*%
D12*
%TO.C,J33*%
X179000000Y-155000000D03*
D11*
X182500000Y-155000000D03*
X186000000Y-155000000D03*
%TD*%
D12*
%TO.C,J32*%
X192500000Y-155000000D03*
D11*
X196000000Y-155000000D03*
X199500000Y-155000000D03*
%TD*%
D12*
%TO.C,J31*%
X206000000Y-155050000D03*
D11*
X209500000Y-155050000D03*
X213000000Y-155050000D03*
%TD*%
D12*
%TO.C,J30*%
X219500000Y-155000000D03*
D11*
X223000000Y-155000000D03*
X226500000Y-155000000D03*
%TD*%
D12*
%TO.C,J29*%
X233000000Y-155000000D03*
D11*
X236500000Y-155000000D03*
X240000000Y-155000000D03*
%TD*%
D12*
%TO.C,J28*%
X246500000Y-155000000D03*
D11*
X250000000Y-155000000D03*
X253500000Y-155000000D03*
%TD*%
D12*
%TO.C,J27*%
X260000000Y-155000000D03*
D11*
X263500000Y-155000000D03*
X267000000Y-155000000D03*
%TD*%
D21*
%TO.C,J2*%
X258500000Y-66000000D03*
D22*
X258500000Y-61000000D03*
%TD*%
D21*
%TO.C,J1*%
X39500000Y-97500000D03*
D22*
X39500000Y-102500000D03*
%TD*%
D23*
%TO.C,IC6*%
X71325000Y-131438000D03*
X71975000Y-131438000D03*
X72625000Y-131438000D03*
X73275000Y-131438000D03*
X73925000Y-131438000D03*
X74575000Y-131438000D03*
X75225000Y-131438000D03*
X75875000Y-131438000D03*
X76525000Y-131438000D03*
X77175000Y-131438000D03*
X77175000Y-125562000D03*
X76525000Y-125562000D03*
X75875000Y-125562000D03*
X75225000Y-125562000D03*
X74575000Y-125562000D03*
X73925000Y-125562000D03*
X73275000Y-125562000D03*
X72625000Y-125562000D03*
X71975000Y-125562000D03*
X71325000Y-125562000D03*
%TD*%
D24*
%TO.C,H8*%
X150000000Y-32500000D03*
%TD*%
%TO.C,H7*%
X32500000Y-87500000D03*
%TD*%
%TO.C,H6*%
X265000000Y-167500000D03*
%TD*%
%TO.C,H5*%
X32500000Y-32500000D03*
%TD*%
%TO.C,H4*%
X267500000Y-32500000D03*
%TD*%
%TO.C,H3*%
X265000000Y-100000000D03*
%TD*%
%TO.C,H2*%
X32500000Y-167500000D03*
%TD*%
%TO.C,H1*%
X150000000Y-167500000D03*
%TD*%
D25*
%TO.C,FL1*%
X55750000Y-144500000D03*
X53250000Y-144500000D03*
X53250000Y-149050000D03*
X55750000Y-149050000D03*
%TD*%
D26*
%TO.C,C95*%
X62500000Y-148085000D03*
X62500000Y-144960000D03*
%TD*%
D27*
%TO.C,C94*%
X52947500Y-152585000D03*
X49822500Y-152585000D03*
%TD*%
D26*
%TO.C,C93*%
X62500000Y-154147500D03*
X62500000Y-151022500D03*
%TD*%
D28*
%TO.C,C92*%
X51500000Y-137437500D03*
X51500000Y-140562500D03*
%TD*%
D26*
%TO.C,C91*%
X48000000Y-140562500D03*
X48000000Y-137437500D03*
%TD*%
D27*
%TO.C,C90*%
X67062500Y-135000000D03*
X63937500Y-135000000D03*
%TD*%
D29*
%TO.C,C89*%
X63937500Y-131000000D03*
X67062500Y-131000000D03*
%TD*%
D26*
%TO.C,C86*%
X54000000Y-126562500D03*
X54000000Y-123437500D03*
%TD*%
%TO.C,C85*%
X49000000Y-126562500D03*
X49000000Y-123437500D03*
%TD*%
D28*
%TO.C,C68*%
X72750000Y-141625000D03*
X72750000Y-144750000D03*
%TD*%
%TO.C,C67*%
X80750000Y-141687500D03*
X80750000Y-144812500D03*
%TD*%
D27*
%TO.C,C66*%
X66062500Y-119250000D03*
X62937500Y-119250000D03*
%TD*%
%TO.C,C65*%
X66000000Y-123750000D03*
X62875000Y-123750000D03*
%TD*%
D29*
%TO.C,C16*%
X91375000Y-146500000D03*
X94500000Y-146500000D03*
%TD*%
%TO.C,C15*%
X104875000Y-146500000D03*
X108000000Y-146500000D03*
%TD*%
%TO.C,C14*%
X118375000Y-146500000D03*
X121500000Y-146500000D03*
%TD*%
%TO.C,C13*%
X131875000Y-146500000D03*
X135000000Y-146500000D03*
%TD*%
%TO.C,C12*%
X145375000Y-146500000D03*
X148500000Y-146500000D03*
%TD*%
%TO.C,C11*%
X158875000Y-146500000D03*
X162000000Y-146500000D03*
%TD*%
%TO.C,C10*%
X172375000Y-146500000D03*
X175500000Y-146500000D03*
%TD*%
%TO.C,C9*%
X185875000Y-146500000D03*
X189000000Y-146500000D03*
%TD*%
%TO.C,C8*%
X199375000Y-146500000D03*
X202500000Y-146500000D03*
%TD*%
%TO.C,C7*%
X212875000Y-146500000D03*
X216000000Y-146500000D03*
%TD*%
%TO.C,C6*%
X226375000Y-146500000D03*
X229500000Y-146500000D03*
%TD*%
%TO.C,C5*%
X239875000Y-146500000D03*
X243000000Y-146500000D03*
%TD*%
%TO.C,C4*%
X253500000Y-146500000D03*
X256625000Y-146500000D03*
%TD*%
%TO.C,C3*%
X267437500Y-146500000D03*
X270562500Y-146500000D03*
%TD*%
%TO.C,C2*%
X210437500Y-112000000D03*
X213562500Y-112000000D03*
%TD*%
%TO.C,C1*%
X210437500Y-116500000D03*
X213562500Y-116500000D03*
%TD*%
D30*
%TO.C,A2*%
X242406000Y-121630000D03*
X190336000Y-116550000D03*
X241136000Y-73370000D03*
X159856000Y-121630000D03*
X190336000Y-88610000D03*
X166206000Y-73370000D03*
D31*
X228436000Y-121630000D03*
X220816000Y-121630000D03*
X218276000Y-121630000D03*
X190209000Y-93690000D03*
X162396000Y-73370000D03*
X159856000Y-73370000D03*
X205576000Y-121630000D03*
X203036000Y-121630000D03*
X200496000Y-121630000D03*
X197956000Y-121630000D03*
X195416000Y-121630000D03*
X192876000Y-121630000D03*
X190336000Y-121630000D03*
X187796000Y-121630000D03*
X182716000Y-121630000D03*
X180176000Y-121630000D03*
X177636000Y-121630000D03*
X175096000Y-121630000D03*
X172556000Y-121630000D03*
X170016000Y-121630000D03*
X167476000Y-121630000D03*
X164936000Y-121630000D03*
X232500000Y-73370000D03*
X192876000Y-73370000D03*
X195416000Y-73370000D03*
X197956000Y-73370000D03*
X200496000Y-73370000D03*
X203036000Y-73370000D03*
X205576000Y-73370000D03*
X208116000Y-73370000D03*
X210656000Y-73370000D03*
X214720000Y-73370000D03*
X217260000Y-73370000D03*
X219800000Y-73370000D03*
X222340000Y-73370000D03*
X224880000Y-73370000D03*
X227420000Y-73370000D03*
X187796000Y-73370000D03*
X185256000Y-73370000D03*
X182716000Y-73370000D03*
X180176000Y-73370000D03*
X177636000Y-73370000D03*
X175096000Y-73370000D03*
X172556000Y-73370000D03*
X170016000Y-73370000D03*
X162396000Y-75910000D03*
X159856000Y-75910000D03*
X162396000Y-78450000D03*
X159856000Y-78450000D03*
X162396000Y-80990000D03*
X159856000Y-80990000D03*
X162396000Y-83530000D03*
X159856000Y-83530000D03*
X162396000Y-86070000D03*
X159856000Y-86070000D03*
X162396000Y-88610000D03*
X159856000Y-88610000D03*
X162396000Y-91150000D03*
X159856000Y-91150000D03*
X162396000Y-93690000D03*
X159856000Y-93690000D03*
X162396000Y-96230000D03*
X159856000Y-96230000D03*
X162396000Y-98770000D03*
X159856000Y-98770000D03*
X162396000Y-101310000D03*
X159856000Y-101310000D03*
X162396000Y-103850000D03*
X159856000Y-103850000D03*
X162396000Y-106390000D03*
X159856000Y-106390000D03*
X162396000Y-108930000D03*
X159856000Y-108930000D03*
X162396000Y-111470000D03*
X159856000Y-111470000D03*
X162396000Y-114010000D03*
X159856000Y-114010000D03*
D32*
X229960000Y-73370000D03*
X215736000Y-121630000D03*
X213196000Y-121630000D03*
X190209000Y-98770000D03*
X162396000Y-116550000D03*
X159856000Y-116550000D03*
D31*
X225896000Y-121630000D03*
X192749000Y-93690000D03*
X190209000Y-96230000D03*
X223356000Y-121630000D03*
X192749000Y-98770000D03*
X192749000Y-96230000D03*
X237580000Y-73370000D03*
X235040000Y-73370000D03*
X210656000Y-121630000D03*
%TD*%
M02*
