%TF.GenerationSoftware,KiCad,Pcbnew,9.0.1*%
%TF.CreationDate,2025-04-13T16:26:25-07:00*%
%TF.ProjectId,HMI,484d492e-6b69-4636-9164-5f7063625858,rev?*%
%TF.SameCoordinates,Original*%
%TF.FileFunction,Paste,Top*%
%TF.FilePolarity,Positive*%
%FSLAX46Y46*%
G04 Gerber Fmt 4.6, Leading zero omitted, Abs format (unit mm)*
G04 Created by KiCad (PCBNEW 9.0.1) date 2025-04-13 16:26:25*
%MOMM*%
%LPD*%
G01*
G04 APERTURE LIST*
G04 Aperture macros list*
%AMRoundRect*
0 Rectangle with rounded corners*
0 $1 Rounding radius*
0 $2 $3 $4 $5 $6 $7 $8 $9 X,Y pos of 4 corners*
0 Add a 4 corners polygon primitive as box body*
4,1,4,$2,$3,$4,$5,$6,$7,$8,$9,$2,$3,0*
0 Add four circle primitives for the rounded corners*
1,1,$1+$1,$2,$3*
1,1,$1+$1,$4,$5*
1,1,$1+$1,$6,$7*
1,1,$1+$1,$8,$9*
0 Add four rect primitives between the rounded corners*
20,1,$1+$1,$2,$3,$4,$5,0*
20,1,$1+$1,$4,$5,$6,$7,0*
20,1,$1+$1,$6,$7,$8,$9,0*
20,1,$1+$1,$8,$9,$2,$3,0*%
G04 Aperture macros list end*
%ADD10R,0.650000X1.850000*%
%ADD11R,1.050000X0.600000*%
%ADD12R,4.900000X3.000000*%
%ADD13RoundRect,0.250000X1.075000X-0.400000X1.075000X0.400000X-1.075000X0.400000X-1.075000X-0.400000X0*%
%ADD14RoundRect,0.250000X0.400000X1.075000X-0.400000X1.075000X-0.400000X-1.075000X0.400000X-1.075000X0*%
%ADD15RoundRect,0.250000X-0.400000X-1.075000X0.400000X-1.075000X0.400000X1.075000X-0.400000X1.075000X0*%
%ADD16R,0.450000X1.475000*%
%ADD17R,0.900000X1.350000*%
%ADD18RoundRect,0.250000X1.100000X-0.412500X1.100000X0.412500X-1.100000X0.412500X-1.100000X-0.412500X0*%
%ADD19RoundRect,0.250000X0.412500X1.100000X-0.412500X1.100000X-0.412500X-1.100000X0.412500X-1.100000X0*%
%ADD20RoundRect,0.250000X-1.100000X0.412500X-1.100000X-0.412500X1.100000X-0.412500X1.100000X0.412500X0*%
%ADD21RoundRect,0.250000X-0.412500X-1.100000X0.412500X-1.100000X0.412500X1.100000X-0.412500X1.100000X0*%
G04 APERTURE END LIST*
D10*
%TO.C,IC1*%
X59405000Y-140825000D03*
X58135000Y-140825000D03*
X56865000Y-140825000D03*
X55595000Y-140825000D03*
X55595000Y-130175000D03*
X56865000Y-130175000D03*
X58135000Y-130175000D03*
X59405000Y-130175000D03*
%TD*%
D11*
%TO.C,Q2*%
X255000000Y-50500000D03*
X252800000Y-51450000D03*
X252800000Y-49550000D03*
%TD*%
%TO.C,Q17*%
X52500000Y-50550000D03*
X50300000Y-51500000D03*
X50300000Y-49600000D03*
%TD*%
%TO.C,Q18*%
X39000000Y-50500000D03*
X36800000Y-51450000D03*
X36800000Y-49550000D03*
%TD*%
%TO.C,Q1*%
X268500000Y-50500000D03*
X266300000Y-51450000D03*
X266300000Y-49550000D03*
%TD*%
%TO.C,Q24*%
X99500000Y-66500000D03*
X101700000Y-65550000D03*
X101700000Y-67450000D03*
%TD*%
%TO.C,Q22*%
X72500000Y-66500000D03*
X74700000Y-65550000D03*
X74700000Y-67450000D03*
%TD*%
%TO.C,Q23*%
X86000000Y-66500000D03*
X88200000Y-65550000D03*
X88200000Y-67450000D03*
%TD*%
%TO.C,Q13*%
X106500000Y-50500000D03*
X104300000Y-51450000D03*
X104300000Y-49550000D03*
%TD*%
%TO.C,Q14*%
X93000000Y-50500000D03*
X90800000Y-51450000D03*
X90800000Y-49550000D03*
%TD*%
%TO.C,Q7*%
X187500000Y-50500000D03*
X185300000Y-51450000D03*
X185300000Y-49550000D03*
%TD*%
%TO.C,Q19*%
X32000000Y-66550000D03*
X34200000Y-65600000D03*
X34200000Y-67500000D03*
%TD*%
%TO.C,Q20*%
X45500000Y-66500000D03*
X47700000Y-65550000D03*
X47700000Y-67450000D03*
%TD*%
%TO.C,Q21*%
X59000000Y-66500000D03*
X61200000Y-65550000D03*
X61200000Y-67450000D03*
%TD*%
%TO.C,Q15*%
X79500000Y-50500000D03*
X77300000Y-51450000D03*
X77300000Y-49550000D03*
%TD*%
%TO.C,Q16*%
X66000000Y-50500000D03*
X63800000Y-51450000D03*
X63800000Y-49550000D03*
%TD*%
%TO.C,Q3*%
X241500000Y-50500000D03*
X239300000Y-51450000D03*
X239300000Y-49550000D03*
%TD*%
%TO.C,Q4*%
X228000000Y-50500000D03*
X225800000Y-51450000D03*
X225800000Y-49550000D03*
%TD*%
%TO.C,Q5*%
X214500000Y-50500000D03*
X212300000Y-51450000D03*
X212300000Y-49550000D03*
%TD*%
%TO.C,Q6*%
X201000000Y-50500000D03*
X198800000Y-51450000D03*
X198800000Y-49550000D03*
%TD*%
%TO.C,Q12*%
X120000000Y-50500000D03*
X117800000Y-51450000D03*
X117800000Y-49550000D03*
%TD*%
%TO.C,Q8*%
X174000000Y-50500000D03*
X171800000Y-51450000D03*
X171800000Y-49550000D03*
%TD*%
%TO.C,Q9*%
X160500000Y-50500000D03*
X158300000Y-51450000D03*
X158300000Y-49550000D03*
%TD*%
%TO.C,Q10*%
X147000000Y-50500000D03*
X144800000Y-51450000D03*
X144800000Y-49550000D03*
%TD*%
%TO.C,Q11*%
X133500000Y-50500000D03*
X131300000Y-51450000D03*
X131300000Y-49550000D03*
%TD*%
D12*
%TO.C,Y1*%
X73100000Y-137385000D03*
X80400000Y-137385000D03*
%TD*%
D13*
%TO.C,R60*%
X40885000Y-151135000D03*
X40885000Y-148035000D03*
%TD*%
D14*
%TO.C,R59*%
X71612500Y-119250000D03*
X68512500Y-119250000D03*
%TD*%
D15*
%TO.C,R38*%
X84900000Y-146500000D03*
X88000000Y-146500000D03*
%TD*%
%TO.C,R37*%
X98450000Y-146500000D03*
X101550000Y-146500000D03*
%TD*%
%TO.C,R36*%
X111900000Y-146500000D03*
X115000000Y-146500000D03*
%TD*%
%TO.C,R35*%
X125400000Y-146500000D03*
X128500000Y-146500000D03*
%TD*%
%TO.C,R34*%
X138900000Y-146500000D03*
X142000000Y-146500000D03*
%TD*%
%TO.C,R33*%
X152400000Y-146500000D03*
X155500000Y-146500000D03*
%TD*%
%TO.C,R32*%
X165900000Y-146500000D03*
X169000000Y-146500000D03*
%TD*%
%TO.C,R31*%
X179400000Y-146500000D03*
X182500000Y-146500000D03*
%TD*%
%TO.C,R30*%
X192900000Y-146500000D03*
X196000000Y-146500000D03*
%TD*%
%TO.C,R29*%
X206400000Y-146500000D03*
X209500000Y-146500000D03*
%TD*%
%TO.C,R28*%
X219900000Y-146500000D03*
X223000000Y-146500000D03*
%TD*%
%TO.C,R27*%
X233400000Y-146500000D03*
X236500000Y-146500000D03*
%TD*%
%TO.C,R26*%
X246900000Y-146500000D03*
X250000000Y-146500000D03*
%TD*%
%TO.C,R25*%
X260500000Y-146500000D03*
X263600000Y-146500000D03*
%TD*%
D14*
%TO.C,R24*%
X107100000Y-63000000D03*
X104000000Y-63000000D03*
%TD*%
%TO.C,R23*%
X93550000Y-63000000D03*
X90450000Y-63000000D03*
%TD*%
%TO.C,R22*%
X80100000Y-63000000D03*
X77000000Y-63000000D03*
%TD*%
%TO.C,R21*%
X66600000Y-62500000D03*
X63500000Y-62500000D03*
%TD*%
%TO.C,R20*%
X53000000Y-62500000D03*
X49900000Y-62500000D03*
%TD*%
%TO.C,R19*%
X39600000Y-62500000D03*
X36500000Y-62500000D03*
%TD*%
D15*
%TO.C,R18*%
X31500000Y-54450000D03*
X34600000Y-54450000D03*
%TD*%
%TO.C,R17*%
X44900000Y-54450000D03*
X48000000Y-54450000D03*
%TD*%
%TO.C,R16*%
X58500000Y-54450000D03*
X61600000Y-54450000D03*
%TD*%
%TO.C,R15*%
X71900000Y-54450000D03*
X75000000Y-54450000D03*
%TD*%
%TO.C,R14*%
X85500000Y-54450000D03*
X88600000Y-54450000D03*
%TD*%
%TO.C,R13*%
X99000000Y-54450000D03*
X102100000Y-54450000D03*
%TD*%
%TO.C,R12*%
X112450000Y-54450000D03*
X115550000Y-54450000D03*
%TD*%
%TO.C,R11*%
X126000000Y-54450000D03*
X129100000Y-54450000D03*
%TD*%
%TO.C,R10*%
X139450000Y-54450000D03*
X142550000Y-54450000D03*
%TD*%
%TO.C,R9*%
X152950000Y-54450000D03*
X156050000Y-54450000D03*
%TD*%
%TO.C,R8*%
X166450000Y-54450000D03*
X169550000Y-54450000D03*
%TD*%
%TO.C,R7*%
X179950000Y-54450000D03*
X183050000Y-54450000D03*
%TD*%
%TO.C,R6*%
X193450000Y-54450000D03*
X196550000Y-54450000D03*
%TD*%
%TO.C,R5*%
X206900000Y-54450000D03*
X210000000Y-54450000D03*
%TD*%
%TO.C,R4*%
X220450000Y-54450000D03*
X223550000Y-54450000D03*
%TD*%
%TO.C,R3*%
X233900000Y-54450000D03*
X237000000Y-54450000D03*
%TD*%
%TO.C,R2*%
X247450000Y-54450000D03*
X250550000Y-54450000D03*
%TD*%
%TO.C,R1*%
X260950000Y-54450000D03*
X264050000Y-54450000D03*
%TD*%
D16*
%TO.C,IC6*%
X71325000Y-131438000D03*
X71975000Y-131438000D03*
X72625000Y-131438000D03*
X73275000Y-131438000D03*
X73925000Y-131438000D03*
X74575000Y-131438000D03*
X75225000Y-131438000D03*
X75875000Y-131438000D03*
X76525000Y-131438000D03*
X77175000Y-131438000D03*
X77175000Y-125562000D03*
X76525000Y-125562000D03*
X75875000Y-125562000D03*
X75225000Y-125562000D03*
X74575000Y-125562000D03*
X73925000Y-125562000D03*
X73275000Y-125562000D03*
X72625000Y-125562000D03*
X71975000Y-125562000D03*
X71325000Y-125562000D03*
%TD*%
D17*
%TO.C,FL1*%
X55750000Y-144500000D03*
X53250000Y-144500000D03*
X53250000Y-149050000D03*
X55750000Y-149050000D03*
%TD*%
D18*
%TO.C,C95*%
X62500000Y-148085000D03*
X62500000Y-144960000D03*
%TD*%
D19*
%TO.C,C94*%
X52947500Y-152585000D03*
X49822500Y-152585000D03*
%TD*%
D18*
%TO.C,C93*%
X62500000Y-154147500D03*
X62500000Y-151022500D03*
%TD*%
D20*
%TO.C,C92*%
X51500000Y-137437500D03*
X51500000Y-140562500D03*
%TD*%
D18*
%TO.C,C91*%
X48000000Y-140562500D03*
X48000000Y-137437500D03*
%TD*%
D19*
%TO.C,C90*%
X67062500Y-135000000D03*
X63937500Y-135000000D03*
%TD*%
D21*
%TO.C,C89*%
X63937500Y-131000000D03*
X67062500Y-131000000D03*
%TD*%
D18*
%TO.C,C86*%
X54000000Y-126562500D03*
X54000000Y-123437500D03*
%TD*%
%TO.C,C85*%
X49000000Y-126562500D03*
X49000000Y-123437500D03*
%TD*%
D20*
%TO.C,C68*%
X72750000Y-141625000D03*
X72750000Y-144750000D03*
%TD*%
%TO.C,C67*%
X80750000Y-141687500D03*
X80750000Y-144812500D03*
%TD*%
D19*
%TO.C,C66*%
X66062500Y-119250000D03*
X62937500Y-119250000D03*
%TD*%
%TO.C,C65*%
X66000000Y-123750000D03*
X62875000Y-123750000D03*
%TD*%
D21*
%TO.C,C16*%
X91375000Y-146500000D03*
X94500000Y-146500000D03*
%TD*%
%TO.C,C15*%
X104875000Y-146500000D03*
X108000000Y-146500000D03*
%TD*%
%TO.C,C14*%
X118375000Y-146500000D03*
X121500000Y-146500000D03*
%TD*%
%TO.C,C13*%
X131875000Y-146500000D03*
X135000000Y-146500000D03*
%TD*%
%TO.C,C12*%
X145375000Y-146500000D03*
X148500000Y-146500000D03*
%TD*%
%TO.C,C11*%
X158875000Y-146500000D03*
X162000000Y-146500000D03*
%TD*%
%TO.C,C10*%
X172375000Y-146500000D03*
X175500000Y-146500000D03*
%TD*%
%TO.C,C9*%
X185875000Y-146500000D03*
X189000000Y-146500000D03*
%TD*%
%TO.C,C8*%
X199375000Y-146500000D03*
X202500000Y-146500000D03*
%TD*%
%TO.C,C7*%
X212875000Y-146500000D03*
X216000000Y-146500000D03*
%TD*%
%TO.C,C6*%
X226375000Y-146500000D03*
X229500000Y-146500000D03*
%TD*%
%TO.C,C5*%
X239875000Y-146500000D03*
X243000000Y-146500000D03*
%TD*%
%TO.C,C4*%
X253500000Y-146500000D03*
X256625000Y-146500000D03*
%TD*%
%TO.C,C3*%
X267437500Y-146500000D03*
X270562500Y-146500000D03*
%TD*%
%TO.C,C2*%
X210437500Y-112000000D03*
X213562500Y-112000000D03*
%TD*%
%TO.C,C1*%
X210437500Y-116500000D03*
X213562500Y-116500000D03*
%TD*%
M02*
