M48
; DRILL file {KiCad 9.0.1} date 2025-04-13T16:26:16-0700
; FORMAT={-:-/ absolute / metric / decimal}
; #@! TF.CreationDate,2025-04-13T16:26:16-07:00
; #@! TF.GenerationSoftware,Kicad,Pcbnew,9.0.1
; #@! TF.FileFunction,Plated,1,2,PTH
FMAT,2
METRIC
; #@! TA.AperFunction,Plated,PTH,ViaDrill
T1C0.300
; #@! TA.AperFunction,Plated,PTH,ComponentDrill
T2C1.000
; #@! TA.AperFunction,Plated,PTH,ComponentDrill
T3C1.016
; #@! TA.AperFunction,Plated,PTH,ComponentDrill
T4C1.100
; #@! TA.AperFunction,Plated,PTH,ComponentDrill
T5C1.150
; #@! TA.AperFunction,Plated,PTH,ComponentDrill
T6C1.300
; #@! TA.AperFunction,Plated,PTH,ComponentDrill
T7C5.300
%
G90
G05
T1
X26.0Y-108.0
X26.0Y-109.0
X26.0Y-110.0
X26.0Y-111.0
X26.0Y-112.0
X26.0Y-113.0
X26.0Y-114.0
X26.0Y-115.0
X26.0Y-116.0
X26.0Y-117.0
X26.0Y-118.0
X26.0Y-119.0
X26.0Y-120.0
X26.0Y-121.0
X26.0Y-122.0
X26.0Y-123.0
X26.0Y-124.0
X26.0Y-125.0
X26.0Y-126.0
X26.0Y-127.0
X26.0Y-128.0
X26.0Y-129.0
X26.0Y-130.0
X26.0Y-131.0
X26.0Y-132.0
X26.0Y-138.0
X26.0Y-139.0
X26.0Y-140.0
X26.0Y-141.0
X26.0Y-142.0
X26.0Y-143.0
X26.0Y-144.0
X26.0Y-145.0
X26.0Y-146.0
X26.0Y-147.0
X26.0Y-148.0
X26.0Y-149.0
X26.0Y-150.0
X26.0Y-151.0
X26.0Y-152.0
X26.0Y-153.0
X26.0Y-154.0
X26.0Y-155.0
X26.0Y-156.0
X26.0Y-157.0
X26.0Y-158.0
X26.0Y-159.0
X26.0Y-160.0
X26.0Y-161.0
X26.0Y-162.0
X26.0Y-163.0
X26.0Y-164.0
X26.0Y-165.0
X26.0Y-166.0
X26.0Y-167.0
X26.0Y-168.0
X26.0Y-169.0
X26.0Y-170.0
X26.0Y-171.0
X26.0Y-172.0
X26.0Y-173.0
X26.0Y-174.0
X27.0Y-108.0
X27.0Y-132.0
X27.0Y-138.0
X27.0Y-174.0
X28.0Y-108.0
X28.0Y-132.0
X28.0Y-138.0
X28.0Y-174.0
X29.0Y-108.0
X29.0Y-132.0
X29.0Y-138.0
X29.0Y-174.0
X30.0Y-108.0
X30.0Y-132.0
X30.0Y-138.0
X30.0Y-140.0
X30.0Y-145.0
X30.0Y-150.0
X30.0Y-155.0
X30.0Y-160.0
X30.0Y-174.0
X31.0Y-108.0
X31.0Y-132.0
X31.0Y-138.0
X31.0Y-174.0
X32.0Y-108.0
X32.0Y-132.0
X32.0Y-138.0
X32.0Y-174.0
X33.0Y-108.0
X33.0Y-132.0
X33.0Y-138.0
X33.0Y-174.0
X34.0Y-108.0
X34.0Y-132.0
X34.0Y-138.0
X34.0Y-174.0
X35.0Y-108.0
X35.0Y-132.0
X35.0Y-138.0
X35.0Y-140.0
X35.0Y-145.0
X35.0Y-150.0
X35.0Y-155.0
X35.0Y-160.0
X35.0Y-174.0
X36.0Y-108.0
X36.0Y-132.0
X36.0Y-138.0
X36.0Y-174.0
X37.0Y-108.0
X37.0Y-132.0
X37.0Y-138.0
X37.0Y-174.0
X38.0Y-108.0
X38.0Y-132.0
X38.0Y-138.0
X38.0Y-174.0
X38.25Y-60.75
X39.0Y-52.0
X39.0Y-53.0
X39.0Y-54.0
X39.0Y-55.0
X39.0Y-108.0
X39.0Y-132.0
X39.0Y-138.0
X39.0Y-174.0
X39.5Y-57.0
X40.0Y-55.0
X40.0Y-108.0
X40.0Y-132.0
X40.0Y-138.0
X40.0Y-145.0
X40.0Y-165.0
X40.0Y-170.0
X40.0Y-174.0
X41.0Y-47.0
X41.0Y-55.0
X41.0Y-108.0
X41.0Y-132.0
X41.0Y-138.0
X41.0Y-174.0
X42.0Y-47.0
X42.0Y-55.0
X42.0Y-108.0
X42.0Y-132.0
X42.0Y-138.0
X42.0Y-174.0
X43.0Y-47.0
X43.0Y-55.0
X43.0Y-108.0
X43.0Y-132.0
X43.0Y-138.0
X43.0Y-174.0
X44.0Y-47.0
X44.0Y-108.0
X44.0Y-132.0
X44.0Y-138.0
X44.0Y-174.0
X45.0Y-47.0
X45.0Y-62.0
X45.0Y-108.0
X45.0Y-132.0
X45.0Y-138.0
X45.0Y-145.0
X45.0Y-155.0
X45.0Y-165.0
X45.0Y-170.0
X45.0Y-174.0
X46.0Y-47.0
X46.0Y-82.0
X46.0Y-83.0
X46.0Y-84.0
X46.0Y-85.0
X46.0Y-86.0
X46.0Y-87.0
X46.0Y-88.0
X46.0Y-89.0
X46.0Y-90.0
X46.0Y-91.0
X46.0Y-92.0
X46.0Y-93.0
X46.0Y-94.0
X46.0Y-95.0
X46.0Y-96.0
X46.0Y-97.0
X46.0Y-98.0
X46.0Y-99.0
X46.0Y-100.0
X46.0Y-101.0
X46.0Y-102.0
X46.0Y-103.0
X46.0Y-104.0
X46.0Y-105.0
X46.0Y-106.0
X46.0Y-107.0
X46.0Y-108.0
X46.0Y-132.0
X46.0Y-138.0
X46.0Y-174.0
X47.0Y-47.0
X47.0Y-82.0
X47.0Y-132.0
X47.0Y-174.0
X48.0Y-47.0
X48.0Y-82.0
X48.0Y-132.0
X48.0Y-174.0
X49.0Y-47.0
X49.0Y-55.0
X49.0Y-82.0
X49.0Y-132.0
X49.0Y-174.0
X50.0Y-47.0
X50.0Y-55.0
X50.0Y-82.0
X50.0Y-132.0
X50.0Y-145.0
X50.0Y-155.0
X50.0Y-160.0
X50.0Y-165.0
X50.0Y-170.0
X50.0Y-174.0
X51.0Y-47.0
X51.0Y-55.0
X51.0Y-82.0
X51.0Y-132.0
X51.0Y-174.0
X52.0Y-82.0
X52.0Y-132.0
X52.0Y-142.0
X52.0Y-174.0
X53.0Y-56.0
X53.0Y-82.0
X53.0Y-132.0
X53.0Y-174.0
X54.0Y-47.0
X54.0Y-82.0
X54.0Y-132.0
X54.0Y-138.0
X54.0Y-174.0
X55.0Y-47.0
X55.0Y-82.0
X55.0Y-89.5
X55.0Y-132.0
X55.0Y-138.0
X55.0Y-165.0
X55.0Y-170.0
X55.0Y-174.0
X56.0Y-47.0
X56.0Y-82.0
X56.0Y-132.0
X56.0Y-139.0
X56.0Y-174.0
X57.0Y-47.0
X57.0Y-82.0
X57.0Y-128.5
X57.0Y-133.0
X57.0Y-174.0
X58.0Y-47.0
X58.0Y-82.0
X58.0Y-128.5
X58.0Y-134.0
X58.0Y-174.0
X58.5Y-61.0
X59.0Y-47.0
X59.0Y-82.0
X59.0Y-135.0
X59.0Y-174.0
X59.5Y-143.0
X60.0Y-47.0
X60.0Y-82.0
X60.0Y-136.0
X60.0Y-155.0
X60.0Y-165.0
X60.0Y-170.0
X60.0Y-174.0
X61.0Y-47.0
X61.0Y-82.0
X61.0Y-137.0
X61.0Y-174.0
X62.0Y-47.0
X62.0Y-82.0
X62.0Y-138.0
X62.0Y-174.0
X63.0Y-47.0
X63.0Y-82.0
X63.0Y-139.0
X63.0Y-174.0
X64.0Y-47.0
X64.0Y-82.0
X64.0Y-137.5
X64.0Y-140.0
X64.0Y-156.0
X64.0Y-157.0
X64.0Y-158.0
X64.0Y-159.0
X64.0Y-160.0
X64.0Y-161.0
X64.0Y-162.0
X64.0Y-163.0
X64.0Y-164.0
X64.0Y-165.0
X64.0Y-166.0
X64.0Y-167.0
X64.0Y-168.0
X64.0Y-169.0
X64.0Y-170.0
X64.0Y-171.0
X64.0Y-172.0
X64.0Y-173.0
X64.0Y-174.0
X65.0Y-82.0
X65.0Y-141.0
X66.0Y-82.0
X66.0Y-142.0
X66.5Y-55.0
X67.0Y-82.0
X67.0Y-143.0
X68.0Y-47.0
X68.0Y-82.0
X68.0Y-144.0
X68.5Y-88.5
X69.0Y-47.0
X69.0Y-82.0
X69.0Y-145.0
X70.0Y-47.0
X70.0Y-82.0
X70.0Y-146.0
X70.0Y-147.0
X70.0Y-148.0
X70.0Y-149.0
X70.0Y-150.0
X70.0Y-151.0
X70.0Y-152.0
X70.0Y-153.0
X70.0Y-154.0
X70.0Y-155.0
X70.0Y-156.0
X70.0Y-157.0
X70.0Y-158.0
X70.0Y-159.0
X70.0Y-160.0
X70.0Y-161.0
X70.0Y-162.0
X70.0Y-163.0
X70.0Y-164.0
X70.0Y-165.0
X70.0Y-166.0
X70.0Y-167.0
X70.0Y-168.0
X70.0Y-169.0
X70.0Y-170.0
X70.0Y-171.0
X70.0Y-172.0
X70.0Y-173.0
X70.0Y-174.0
X71.0Y-47.0
X71.0Y-82.0
X71.0Y-133.35
X71.0Y-174.0
X72.0Y-47.0
X72.0Y-60.0
X72.0Y-82.0
X72.0Y-134.0
X72.0Y-174.0
X73.0Y-47.0
X73.0Y-82.0
X73.0Y-121.0
X73.0Y-174.0
X73.25Y-122.75
X74.0Y-47.0
X74.0Y-82.0
X74.0Y-124.0
X74.0Y-174.0
X75.0Y-47.0
X75.0Y-82.0
X75.0Y-174.0
X75.25Y-123.35
X76.0Y-47.0
X76.0Y-82.0
X76.0Y-121.75
X76.0Y-174.0
X77.0Y-47.0
X77.0Y-82.0
X77.0Y-174.0
X78.0Y-47.0
X78.0Y-82.0
X78.0Y-174.0
X79.0Y-82.0
X79.0Y-174.0
X80.0Y-82.0
X80.0Y-174.0
X81.0Y-47.0
X81.0Y-82.0
X81.0Y-174.0
X82.0Y-47.0
X82.0Y-82.0
X82.0Y-94.5
X82.0Y-174.0
X82.5Y-64.0
X83.0Y-47.0
X83.0Y-82.0
X83.0Y-125.473
X83.0Y-174.0
X84.0Y-47.0
X84.0Y-82.0
X84.0Y-174.0
X85.0Y-47.0
X85.0Y-82.0
X85.0Y-144.0
X85.0Y-174.0
X85.5Y-59.0
X86.0Y-47.0
X86.0Y-82.0
X86.0Y-174.0
X87.0Y-47.0
X87.0Y-82.0
X87.0Y-174.0
X88.0Y-47.0
X88.0Y-82.0
X88.0Y-141.0
X88.0Y-174.0
X89.0Y-47.0
X89.0Y-82.0
X89.0Y-174.0
X90.0Y-47.0
X90.0Y-82.0
X90.0Y-174.0
X91.0Y-47.0
X91.0Y-82.0
X91.0Y-174.0
X92.0Y-82.0
X92.0Y-174.0
X93.0Y-82.0
X93.0Y-174.0
X94.0Y-82.0
X94.0Y-174.0
X95.0Y-47.0
X95.0Y-65.0
X95.0Y-82.0
X95.0Y-142.5
X95.0Y-174.0
X95.5Y-93.5
X95.5Y-127.0
X95.5Y-132.0
X96.0Y-47.0
X96.0Y-82.0
X96.0Y-174.0
X97.0Y-47.0
X97.0Y-82.0
X97.0Y-174.0
X98.0Y-47.0
X98.0Y-82.0
X98.0Y-174.0
X99.0Y-47.0
X99.0Y-58.0
X99.0Y-82.0
X99.0Y-144.0
X99.0Y-174.0
X100.0Y-47.0
X100.0Y-82.0
X100.0Y-174.0
X101.0Y-47.0
X101.0Y-82.0
X101.0Y-174.0
X102.0Y-47.0
X102.0Y-82.0
X102.0Y-140.0
X102.0Y-174.0
X103.0Y-47.0
X103.0Y-82.0
X103.0Y-174.0
X104.0Y-47.0
X104.0Y-82.0
X104.0Y-174.0
X105.0Y-47.0
X105.0Y-82.0
X105.0Y-174.0
X106.0Y-82.0
X106.0Y-174.0
X107.0Y-82.0
X107.0Y-174.0
X108.0Y-47.0
X108.0Y-82.0
X108.0Y-174.0
X109.0Y-47.0
X109.0Y-82.0
X109.0Y-90.5
X109.0Y-127.0
X109.0Y-174.0
X109.25Y-131.0
X110.0Y-47.0
X110.0Y-82.0
X110.0Y-174.0
X111.0Y-47.0
X111.0Y-73.5
X111.0Y-82.0
X111.0Y-174.0
X112.0Y-47.0
X112.0Y-76.0
X112.0Y-77.0
X112.0Y-78.0
X112.0Y-79.0
X112.0Y-80.0
X112.0Y-81.0
X112.0Y-82.0
X112.0Y-144.0
X112.0Y-174.0
X112.5Y-64.5
X113.0Y-47.0
X113.0Y-76.0
X113.0Y-174.0
X114.0Y-47.0
X114.0Y-76.0
X114.0Y-174.0
X115.0Y-47.0
X115.0Y-76.0
X115.0Y-112.5
X115.0Y-139.0
X115.0Y-174.0
X116.0Y-47.0
X116.0Y-76.0
X116.0Y-174.0
X117.0Y-47.0
X117.0Y-76.0
X117.0Y-174.0
X118.0Y-47.0
X118.0Y-76.0
X118.0Y-174.0
X119.0Y-76.0
X119.0Y-174.0
X120.0Y-76.0
X120.0Y-174.0
X121.0Y-76.0
X121.0Y-174.0
X122.0Y-47.0
X122.0Y-76.0
X122.0Y-174.0
X122.5Y-91.5
X122.5Y-130.25
X122.5Y-142.5
X122.625Y-127.625
X123.0Y-47.0
X123.0Y-76.0
X123.0Y-174.0
X124.0Y-47.0
X124.0Y-76.0
X124.0Y-174.0
X125.0Y-47.0
X125.0Y-76.0
X125.0Y-144.0
X125.0Y-174.0
X126.0Y-47.0
X126.0Y-76.0
X126.0Y-174.0
X126.5Y-63.5
X127.0Y-47.0
X127.0Y-76.0
X127.0Y-174.0
X128.0Y-47.0
X128.0Y-76.0
X128.0Y-174.0
X129.0Y-47.0
X129.0Y-76.0
X129.0Y-138.0
X129.0Y-174.0
X130.0Y-47.0
X130.0Y-76.0
X130.0Y-112.5
X130.0Y-174.0
X131.0Y-47.0
X131.0Y-76.0
X131.0Y-174.0
X132.0Y-47.0
X132.0Y-76.0
X132.0Y-174.0
X132.5Y-142.5
X133.0Y-76.0
X133.0Y-174.0
X134.0Y-76.0
X134.0Y-174.0
X135.0Y-47.0
X135.0Y-76.0
X135.0Y-174.0
X136.0Y-47.0
X136.0Y-76.0
X136.0Y-92.5
X136.0Y-128.5
X136.0Y-129.5
X136.0Y-174.0
X137.0Y-47.0
X137.0Y-76.0
X137.0Y-174.0
X138.0Y-47.0
X138.0Y-76.0
X138.0Y-174.0
X139.0Y-47.0
X139.0Y-76.0
X139.0Y-144.0
X139.0Y-174.0
X140.0Y-47.0
X140.0Y-59.5
X140.0Y-76.0
X140.0Y-174.0
X141.0Y-47.0
X141.0Y-76.0
X141.0Y-174.0
X142.0Y-47.0
X142.0Y-76.0
X142.0Y-137.0
X142.0Y-174.0
X142.5Y-86.5
X142.5Y-122.75
X143.0Y-47.0
X143.0Y-76.0
X143.0Y-174.0
X144.0Y-47.0
X144.0Y-76.0
X144.0Y-174.0
X145.0Y-47.0
X145.0Y-76.0
X145.0Y-109.0
X145.0Y-121.5
X145.0Y-124.723
X145.0Y-132.5
X145.0Y-174.0
X145.75Y-124.25
X145.75Y-133.25
X146.0Y-76.0
X146.0Y-94.5
X146.0Y-122.0
X146.0Y-174.0
X146.5Y-123.75
X146.5Y-134.0
X147.0Y-76.0
X147.0Y-93.5
X147.0Y-174.0
X147.03Y-121.97
X148.0Y-76.0
X148.0Y-92.5
X148.0Y-119.5
X148.0Y-174.0
X149.0Y-47.0
X149.0Y-76.0
X149.0Y-91.5
X149.0Y-118.5
X149.0Y-174.0
X150.0Y-47.0
X150.0Y-90.5
X150.0Y-117.951
X150.0Y-174.0
X151.0Y-47.0
X151.0Y-89.5
X151.0Y-174.0
X152.0Y-47.0
X152.0Y-73.5
X152.0Y-88.5
X152.0Y-144.0
X152.0Y-174.0
X153.0Y-47.0
X153.0Y-57.5
X153.0Y-72.5
X153.0Y-174.0
X154.0Y-47.0
X154.0Y-71.5
X154.0Y-174.0
X154.5Y-104.5
X155.0Y-47.0
X155.0Y-56.5
X155.0Y-174.0
X155.5Y-104.0
X155.5Y-136.0
X156.0Y-47.0
X156.0Y-58.5
X156.0Y-109.0
X156.0Y-174.0
X156.5Y-102.5
X157.0Y-47.0
X157.0Y-60.5
X157.0Y-174.0
X157.5Y-86.5
X158.0Y-47.0
X158.0Y-62.5
X158.0Y-174.0
X158.75Y-71.5
X159.0Y-47.0
X159.0Y-57.5
X159.0Y-174.0
X160.0Y-174.0
X161.0Y-59.5
X161.0Y-174.0
X162.0Y-47.0
X162.0Y-174.0
X163.0Y-47.0
X163.0Y-174.0
X164.0Y-47.0
X164.0Y-174.0
X164.105Y-71.334
X165.0Y-47.0
X165.0Y-174.0
X165.5Y-103.0
X165.5Y-107.0
X166.0Y-47.0
X166.0Y-61.5
X166.0Y-84.5
X166.0Y-144.0
X166.0Y-174.0
X166.5Y-101.5
X166.5Y-106.0
X167.0Y-47.0
X167.0Y-174.0
X167.5Y-59.5
X167.5Y-76.0
X167.5Y-100.0
X167.5Y-105.0
X167.75Y-71.5
X168.0Y-47.0
X168.0Y-174.0
X168.5Y-57.5
X168.5Y-98.77
X168.5Y-104.0
X169.0Y-47.0
X169.0Y-135.0
X169.0Y-174.0
X169.5Y-97.5
X169.5Y-103.0
X169.5Y-119.5
X170.0Y-47.0
X170.0Y-174.0
X170.5Y-96.5
X170.5Y-102.0
X171.0Y-47.0
X171.0Y-118.75
X171.0Y-174.0
X171.5Y-95.0
X171.5Y-101.0
X171.5Y-118.0
X172.0Y-47.0
X172.0Y-174.0
X172.5Y-94.0
X172.5Y-100.0
X173.0Y-174.0
X174.0Y-92.0
X174.0Y-110.0
X174.0Y-174.0
X175.0Y-91.0
X175.0Y-111.0
X175.0Y-174.0
X176.0Y-47.0
X176.0Y-90.0
X176.0Y-112.0
X176.0Y-174.0
X177.0Y-47.0
X177.0Y-89.0
X177.0Y-113.0
X177.0Y-174.0
X177.5Y-124.0
X178.0Y-47.0
X178.0Y-174.0
X179.0Y-47.0
X179.0Y-144.0
X179.0Y-174.0
X179.5Y-62.5
X179.5Y-132.5
X180.0Y-47.0
X180.0Y-124.723
X180.0Y-174.0
X180.5Y-132.5
X181.0Y-47.0
X181.0Y-174.0
X181.5Y-132.5
X182.0Y-47.0
X182.0Y-174.0
X182.5Y-97.5
X182.5Y-134.0
X183.0Y-47.0
X183.0Y-125.424
X183.0Y-174.0
X184.0Y-47.0
X184.0Y-174.0
X185.0Y-47.0
X185.0Y-174.0
X186.0Y-47.0
X186.0Y-174.0
X187.0Y-174.0
X187.5Y-126.174
X188.0Y-174.0
X189.0Y-47.0
X189.0Y-174.0
X190.0Y-47.0
X190.0Y-174.0
X190.336Y-126.875
X191.0Y-47.0
X191.0Y-174.0
X192.0Y-47.0
X192.0Y-174.0
X192.875Y-127.625
X193.0Y-47.0
X193.0Y-61.5
X193.0Y-144.0
X193.0Y-174.0
X194.0Y-47.0
X194.0Y-174.0
X195.0Y-47.0
X195.0Y-174.0
X195.5Y-128.5
X196.0Y-47.0
X196.0Y-133.0
X196.0Y-174.0
X197.0Y-47.0
X197.0Y-174.0
X197.5Y-84.5
X198.0Y-47.0
X198.0Y-129.5
X198.0Y-174.0
X199.0Y-47.0
X199.0Y-174.0
X200.0Y-53.5
X200.0Y-174.0
X200.5Y-130.0
X201.0Y-174.0
X202.0Y-174.0
X202.5Y-54.5
X203.0Y-47.0
X203.0Y-131.25
X203.0Y-174.0
X204.0Y-47.0
X204.0Y-174.0
X205.0Y-47.0
X205.0Y-55.5
X205.0Y-174.0
X205.5Y-132.0
X206.0Y-47.0
X206.0Y-144.0
X206.0Y-174.0
X206.5Y-60.5
X207.0Y-47.0
X207.0Y-174.0
X208.0Y-47.0
X208.0Y-70.5
X208.0Y-174.0
X209.0Y-47.0
X209.0Y-174.0
X209.5Y-132.0
X210.0Y-47.0
X210.0Y-174.0
X210.5Y-69.5
X211.0Y-47.0
X211.0Y-80.0
X211.0Y-174.0
X212.0Y-47.0
X212.0Y-174.0
X213.0Y-47.0
X213.0Y-174.0
X214.0Y-174.0
X214.5Y-68.5
X215.0Y-174.0
X216.0Y-47.0
X216.0Y-174.0
X217.0Y-47.0
X217.0Y-67.5
X217.0Y-174.0
X218.0Y-47.0
X218.0Y-174.0
X218.276Y-142.0
X218.276Y-143.0
X219.0Y-47.0
X219.0Y-174.0
X219.5Y-66.5
X220.0Y-47.0
X220.0Y-59.5
X220.0Y-144.0
X220.0Y-174.0
X221.0Y-47.0
X221.0Y-174.0
X222.0Y-47.0
X222.0Y-65.5
X222.0Y-174.0
X223.0Y-47.0
X223.0Y-131.25
X223.0Y-174.0
X224.0Y-47.0
X224.0Y-174.0
X224.5Y-64.5
X225.0Y-47.0
X225.0Y-174.0
X226.0Y-47.0
X226.0Y-174.0
X227.0Y-63.5
X227.0Y-174.0
X228.0Y-174.0
X229.0Y-174.0
X230.0Y-47.0
X230.0Y-174.0
X231.0Y-47.0
X231.0Y-174.0
X232.0Y-47.0
X232.0Y-174.0
X233.0Y-47.0
X233.0Y-106.0
X233.0Y-131.25
X233.0Y-144.0
X233.0Y-174.0
X233.5Y-58.5
X234.0Y-47.0
X234.0Y-105.0
X234.0Y-132.0
X234.0Y-174.0
X235.0Y-47.0
X235.0Y-104.0
X235.0Y-133.0
X235.0Y-174.0
X236.0Y-47.0
X236.0Y-103.0
X236.0Y-134.0
X236.0Y-174.0
X237.0Y-47.0
X237.0Y-102.0
X237.0Y-135.0
X237.0Y-174.0
X238.0Y-47.0
X238.0Y-101.0
X238.0Y-136.0
X238.0Y-174.0
X239.0Y-47.0
X239.0Y-100.0
X239.0Y-137.0
X239.0Y-174.0
X240.0Y-47.0
X240.0Y-110.0
X240.0Y-138.0
X240.0Y-174.0
X241.0Y-174.0
X242.0Y-174.0
X243.0Y-47.0
X243.0Y-174.0
X244.0Y-47.0
X244.0Y-174.0
X245.0Y-47.0
X245.0Y-111.0
X245.0Y-139.0
X245.0Y-146.0
X245.0Y-174.0
X246.0Y-47.0
X246.0Y-112.0
X246.0Y-140.0
X246.0Y-174.0
X247.0Y-47.0
X247.0Y-57.5
X247.0Y-113.0
X247.0Y-141.0
X247.0Y-174.0
X248.0Y-47.0
X248.0Y-174.0
X249.0Y-47.0
X249.0Y-107.0
X249.0Y-174.0
X250.0Y-47.0
X250.0Y-108.0
X250.0Y-174.0
X251.0Y-47.0
X251.0Y-174.0
X252.0Y-47.0
X252.0Y-174.0
X253.0Y-47.0
X253.0Y-174.0
X254.0Y-174.0
X255.0Y-80.0
X255.0Y-174.0
X256.0Y-174.0
X257.0Y-47.0
X257.0Y-174.0
X258.0Y-47.0
X258.0Y-174.0
X259.0Y-47.0
X259.0Y-174.0
X260.0Y-47.0
X260.0Y-144.0
X260.0Y-174.0
X260.95Y-56.45
X261.0Y-47.0
X261.0Y-174.0
X262.0Y-47.0
X262.0Y-174.0
X262.93Y-108.93
X263.0Y-47.0
X263.0Y-174.0
X264.0Y-47.0
X264.0Y-174.0
X265.0Y-47.0
X265.0Y-174.0
X266.0Y-47.0
X266.0Y-174.0
X267.0Y-47.0
X267.0Y-174.0
X268.0Y-174.0
X269.0Y-174.0
X270.0Y-47.0
X270.0Y-174.0
X271.0Y-47.0
X271.0Y-174.0
X272.0Y-47.0
X272.0Y-174.0
X273.0Y-47.0
X273.0Y-174.0
X274.0Y-47.0
X274.0Y-48.0
X274.0Y-49.0
X274.0Y-50.0
X274.0Y-51.0
X274.0Y-52.0
X274.0Y-53.0
X274.0Y-54.0
X274.0Y-55.0
X274.0Y-56.0
X274.0Y-57.0
X274.0Y-58.0
X274.0Y-59.0
X274.0Y-60.0
X274.0Y-61.0
X274.0Y-62.0
X274.0Y-63.0
X274.0Y-64.0
X274.0Y-65.0
X274.0Y-66.0
X274.0Y-67.0
X274.0Y-68.0
X274.0Y-69.0
X274.0Y-70.0
X274.0Y-71.0
X274.0Y-72.0
X274.0Y-73.0
X274.0Y-74.0
X274.0Y-75.0
X274.0Y-76.0
X274.0Y-77.0
X274.0Y-78.0
X274.0Y-79.0
X274.0Y-80.0
X274.0Y-81.0
X274.0Y-82.0
X274.0Y-83.0
X274.0Y-84.0
X274.0Y-85.0
X274.0Y-86.0
X274.0Y-87.0
X274.0Y-88.0
X274.0Y-89.0
X274.0Y-90.0
X274.0Y-91.0
X274.0Y-92.0
X274.0Y-93.0
X274.0Y-94.0
X274.0Y-95.0
X274.0Y-96.0
X274.0Y-97.0
X274.0Y-98.0
X274.0Y-99.0
X274.0Y-100.0
X274.0Y-101.0
X274.0Y-102.0
X274.0Y-103.0
X274.0Y-104.0
X274.0Y-105.0
X274.0Y-106.0
X274.0Y-107.0
X274.0Y-108.0
X274.0Y-109.0
X274.0Y-110.0
X274.0Y-111.0
X274.0Y-112.0
X274.0Y-113.0
X274.0Y-114.0
X274.0Y-115.0
X274.0Y-116.0
X274.0Y-117.0
X274.0Y-118.0
X274.0Y-119.0
X274.0Y-120.0
X274.0Y-121.0
X274.0Y-122.0
X274.0Y-123.0
X274.0Y-124.0
X274.0Y-125.0
X274.0Y-126.0
X274.0Y-127.0
X274.0Y-128.0
X274.0Y-129.0
X274.0Y-130.0
X274.0Y-131.0
X274.0Y-132.0
X274.0Y-133.0
X274.0Y-134.0
X274.0Y-135.0
X274.0Y-136.0
X274.0Y-137.0
X274.0Y-138.0
X274.0Y-139.0
X274.0Y-140.0
X274.0Y-141.0
X274.0Y-142.0
X274.0Y-143.0
X274.0Y-144.0
X274.0Y-145.0
X274.0Y-146.0
X274.0Y-147.0
X274.0Y-148.0
X274.0Y-149.0
X274.0Y-150.0
X274.0Y-151.0
X274.0Y-152.0
X274.0Y-153.0
X274.0Y-154.0
X274.0Y-155.0
X274.0Y-156.0
X274.0Y-157.0
X274.0Y-158.0
X274.0Y-159.0
X274.0Y-160.0
X274.0Y-161.0
X274.0Y-162.0
X274.0Y-163.0
X274.0Y-164.0
X274.0Y-165.0
X274.0Y-166.0
X274.0Y-167.0
X274.0Y-168.0
X274.0Y-169.0
X274.0Y-170.0
X274.0Y-171.0
X274.0Y-172.0
X274.0Y-173.0
X274.0Y-174.0
T2
X45.385Y-148.585
X45.385Y-151.125
T3
X159.856Y-73.37
X159.856Y-75.91
X159.856Y-78.45
X159.856Y-80.99
X159.856Y-83.53
X159.856Y-86.07
X159.856Y-88.61
X159.856Y-91.15
X159.856Y-93.69
X159.856Y-96.23
X159.856Y-98.77
X159.856Y-101.31
X159.856Y-103.85
X159.856Y-106.39
X159.856Y-108.93
X159.856Y-111.47
X159.856Y-114.01
X159.856Y-116.55
X162.396Y-73.37
X162.396Y-75.91
X162.396Y-78.45
X162.396Y-80.99
X162.396Y-83.53
X162.396Y-86.07
X162.396Y-88.61
X162.396Y-91.15
X162.396Y-93.69
X162.396Y-96.23
X162.396Y-98.77
X162.396Y-101.31
X162.396Y-103.85
X162.396Y-106.39
X162.396Y-108.93
X162.396Y-111.47
X162.396Y-114.01
X162.396Y-116.55
X164.936Y-121.63
X167.476Y-121.63
X170.016Y-73.37
X170.016Y-121.63
X172.556Y-73.37
X172.556Y-121.63
X175.096Y-73.37
X175.096Y-121.63
X177.636Y-73.37
X177.636Y-121.63
X180.176Y-73.37
X180.176Y-121.63
X182.716Y-73.37
X182.716Y-121.63
X185.256Y-73.37
X187.796Y-73.37
X187.796Y-121.63
X190.209Y-93.69
X190.209Y-96.23
X190.209Y-98.77
X190.336Y-121.63
X192.749Y-93.69
X192.749Y-96.23
X192.749Y-98.77
X192.876Y-73.37
X192.876Y-121.63
X195.416Y-73.37
X195.416Y-121.63
X197.956Y-73.37
X197.956Y-121.63
X200.496Y-73.37
X200.496Y-121.63
X203.036Y-73.37
X203.036Y-121.63
X205.576Y-73.37
X205.576Y-121.63
X208.116Y-73.37
X210.656Y-73.37
X210.656Y-121.63
X213.196Y-121.63
X214.72Y-73.37
X215.736Y-121.63
X217.26Y-73.37
X218.276Y-121.63
X219.8Y-73.37
X220.816Y-121.63
X222.34Y-73.37
X223.356Y-121.63
X224.88Y-73.37
X225.896Y-121.63
X227.42Y-73.37
X228.436Y-121.63
X229.96Y-73.37
X232.5Y-73.37
X235.04Y-73.37
X237.58Y-73.37
T4
X32.0Y-42.45
X32.0Y-75.0
X35.5Y-42.45
X35.5Y-75.0
X39.0Y-42.45
X39.0Y-75.0
X41.385Y-160.585
X44.885Y-160.585
X45.5Y-42.5
X45.5Y-75.0
X48.385Y-160.585
X49.0Y-42.5
X49.0Y-75.0
X51.5Y-98.5
X52.5Y-42.5
X52.5Y-75.0
X54.885Y-160.585
X55.0Y-98.5
X58.385Y-160.585
X58.5Y-98.5
X59.0Y-42.45
X59.0Y-75.0
X61.885Y-160.585
X62.5Y-42.45
X62.5Y-75.0
X65.0Y-98.5
X66.0Y-42.45
X66.0Y-75.0
X68.5Y-98.5
X72.0Y-98.5
X72.5Y-42.45
X72.5Y-75.05
X76.0Y-42.45
X76.0Y-75.05
X78.5Y-98.45
X78.5Y-111.5
X79.5Y-42.45
X79.5Y-75.05
X82.0Y-98.45
X82.0Y-111.5
X84.5Y-155.0
X85.5Y-98.45
X85.5Y-111.5
X86.0Y-42.45
X86.0Y-75.0
X88.0Y-155.0
X89.5Y-42.45
X89.5Y-75.0
X91.5Y-155.0
X92.0Y-98.45
X92.0Y-111.5
X92.0Y-136.0
X93.0Y-42.45
X93.0Y-75.0
X95.5Y-98.45
X95.5Y-111.5
X95.5Y-136.0
X98.0Y-155.0
X99.0Y-98.45
X99.0Y-111.5
X99.0Y-136.0
X99.5Y-42.45
X99.5Y-75.0
X101.5Y-155.0
X103.0Y-42.45
X103.0Y-75.0
X105.0Y-155.0
X105.5Y-98.45
X105.5Y-111.5
X105.5Y-136.0
X106.5Y-42.45
X106.5Y-75.0
X109.0Y-98.45
X109.0Y-111.5
X109.0Y-136.0
X111.5Y-155.05
X112.5Y-98.45
X112.5Y-111.5
X112.5Y-136.0
X113.0Y-42.45
X115.0Y-155.05
X116.5Y-42.45
X118.5Y-155.05
X119.0Y-98.45
X119.0Y-111.5
X119.0Y-135.95
X120.0Y-42.45
X122.5Y-98.45
X122.5Y-111.5
X122.5Y-135.95
X125.0Y-155.05
X126.0Y-98.45
X126.0Y-111.5
X126.0Y-135.95
X126.5Y-42.45
X128.5Y-155.05
X130.0Y-42.45
X132.0Y-155.05
X132.5Y-98.45
X132.5Y-111.5
X132.5Y-136.0
X133.5Y-42.45
X136.0Y-98.45
X136.0Y-111.5
X136.0Y-136.0
X138.5Y-155.05
X139.5Y-98.45
X139.5Y-111.5
X139.5Y-136.0
X140.0Y-42.5
X142.0Y-155.05
X143.5Y-42.5
X145.5Y-155.05
X147.0Y-42.5
X152.0Y-155.05
X153.5Y-42.5
X155.5Y-155.05
X157.0Y-42.5
X159.0Y-155.05
X160.5Y-42.5
X165.5Y-155.0
X167.0Y-42.45
X169.0Y-155.0
X170.5Y-42.45
X172.5Y-155.0
X174.0Y-42.45
X179.0Y-155.0
X180.5Y-42.45
X182.5Y-155.0
X184.0Y-42.45
X186.0Y-155.0
X187.5Y-42.45
X192.5Y-155.0
X194.0Y-42.45
X196.0Y-155.0
X197.5Y-42.45
X199.5Y-155.0
X201.0Y-42.45
X206.0Y-155.05
X207.5Y-42.5
X209.5Y-155.05
X211.0Y-42.5
X213.0Y-155.05
X214.5Y-42.5
X219.5Y-155.0
X221.0Y-42.5
X223.0Y-155.0
X224.5Y-42.5
X226.5Y-155.0
X228.0Y-42.5
X233.0Y-155.0
X234.5Y-42.5
X236.5Y-155.0
X238.0Y-42.5
X240.0Y-155.0
X241.5Y-42.5
X246.5Y-155.0
X248.0Y-42.5
X250.0Y-155.0
X251.5Y-42.5
X253.5Y-155.0
X255.0Y-42.5
X260.0Y-155.0
X261.5Y-42.5
X263.5Y-155.0
X265.0Y-42.5
X267.0Y-155.0
X268.5Y-42.5
T5
X41.115Y-125.675
X41.115Y-128.215
X41.115Y-135.835
X41.115Y-140.915
T6
X39.5Y-97.5
X39.5Y-102.5
X258.5Y-61.0
X258.5Y-66.0
T7
X32.5Y-32.5
X32.5Y-87.5
X32.5Y-167.5
X150.0Y-32.5
X150.0Y-167.5
X265.0Y-100.0
X265.0Y-167.5
X267.5Y-32.5
M30
