%TF.GenerationSoftware,KiCad,Pcbnew,9.0.0*%
%TF.CreationDate,2025-04-28T16:55:08-07:00*%
%TF.ProjectId,DynamicBrakeGrid,44796e61-6d69-4634-9272-616b65477269,rev?*%
%TF.SameCoordinates,Original*%
%TF.FileFunction,Paste,Top*%
%TF.FilePolarity,Positive*%
%FSLAX46Y46*%
G04 Gerber Fmt 4.6, Leading zero omitted, Abs format (unit mm)*
G04 Created by KiCad (PCBNEW 9.0.0) date 2025-04-28 16:55:08*
%MOMM*%
%LPD*%
G01*
G04 APERTURE LIST*
G04 Aperture macros list*
%AMRoundRect*
0 Rectangle with rounded corners*
0 $1 Rounding radius*
0 $2 $3 $4 $5 $6 $7 $8 $9 X,Y pos of 4 corners*
0 Add a 4 corners polygon primitive as box body*
4,1,4,$2,$3,$4,$5,$6,$7,$8,$9,$2,$3,0*
0 Add four circle primitives for the rounded corners*
1,1,$1+$1,$2,$3*
1,1,$1+$1,$4,$5*
1,1,$1+$1,$6,$7*
1,1,$1+$1,$8,$9*
0 Add four rect primitives between the rounded corners*
20,1,$1+$1,$2,$3,$4,$5,0*
20,1,$1+$1,$4,$5,$6,$7,0*
20,1,$1+$1,$6,$7,$8,$9,0*
20,1,$1+$1,$8,$9,$2,$3,0*%
G04 Aperture macros list end*
%ADD10RoundRect,0.250000X1.100000X-0.412500X1.100000X0.412500X-1.100000X0.412500X-1.100000X-0.412500X0*%
%ADD11R,3.300000X1.200000*%
%ADD12RoundRect,0.250000X-0.412500X-1.100000X0.412500X-1.100000X0.412500X1.100000X-0.412500X1.100000X0*%
%ADD13RoundRect,0.250000X-0.400000X-1.075000X0.400000X-1.075000X0.400000X1.075000X-0.400000X1.075000X0*%
%ADD14RoundRect,0.250000X-1.100000X0.412500X-1.100000X-0.412500X1.100000X-0.412500X1.100000X0.412500X0*%
%ADD15R,2.720000X2.290000*%
%ADD16RoundRect,0.250000X-1.075000X0.400000X-1.075000X-0.400000X1.075000X-0.400000X1.075000X0.400000X0*%
%ADD17RoundRect,0.250000X0.412500X1.100000X-0.412500X1.100000X-0.412500X-1.100000X0.412500X-1.100000X0*%
%ADD18R,1.475000X0.450000*%
%ADD19R,1.750000X1.000000*%
%ADD20RoundRect,0.250000X1.075000X-0.400000X1.075000X0.400000X-1.075000X0.400000X-1.075000X-0.400000X0*%
%ADD21R,2.250000X2.150000*%
%ADD22R,0.850000X1.050000*%
%ADD23R,1.200000X3.300000*%
%ADD24R,0.650000X1.528000*%
%ADD25R,1.850000X0.650000*%
%ADD26R,1.350000X0.900000*%
%ADD27RoundRect,0.250000X0.400000X1.075000X-0.400000X1.075000X-0.400000X-1.075000X0.400000X-1.075000X0*%
%ADD28R,1.528000X0.650000*%
%ADD29R,1.000000X0.950000*%
G04 APERTURE END LIST*
D10*
%TO.C,C79*%
X89500000Y-119125000D03*
X89500000Y-116000000D03*
%TD*%
D11*
%TO.C,R68*%
X269000000Y-34000000D03*
X269000000Y-40000000D03*
%TD*%
D12*
%TO.C,C26*%
X157000000Y-30000000D03*
X160125000Y-30000000D03*
%TD*%
D13*
%TO.C,R72*%
X236085000Y-45557500D03*
X239185000Y-45557500D03*
%TD*%
D10*
%TO.C,C65*%
X46500000Y-115062500D03*
X46500000Y-111937500D03*
%TD*%
D12*
%TO.C,C34*%
X163000000Y-30000000D03*
X166125000Y-30000000D03*
%TD*%
D10*
%TO.C,C59*%
X63000000Y-72062500D03*
X63000000Y-68937500D03*
%TD*%
D12*
%TO.C,C32*%
X162937500Y-35000000D03*
X166062500Y-35000000D03*
%TD*%
D14*
%TO.C,C62*%
X62000000Y-63437500D03*
X62000000Y-66562500D03*
%TD*%
D13*
%TO.C,R60*%
X5500000Y-109750000D03*
X8600000Y-109750000D03*
%TD*%
D15*
%TO.C,Z10*%
X232280000Y-69975000D03*
X232280000Y-74025000D03*
%TD*%
D10*
%TO.C,C63*%
X226635000Y-35682500D03*
X226635000Y-32557500D03*
%TD*%
%TO.C,C89*%
X36000000Y-110812500D03*
X36000000Y-107687500D03*
%TD*%
D16*
%TO.C,R53*%
X212000000Y-63450000D03*
X212000000Y-66550000D03*
%TD*%
D12*
%TO.C,C95*%
X10000000Y-120000000D03*
X13125000Y-120000000D03*
%TD*%
D17*
%TO.C,C77*%
X89562500Y-112000000D03*
X86437500Y-112000000D03*
%TD*%
D14*
%TO.C,C82*%
X242000000Y-34000000D03*
X242000000Y-37125000D03*
%TD*%
D10*
%TO.C,C36*%
X212000000Y-53000000D03*
X212000000Y-49875000D03*
%TD*%
D12*
%TO.C,C28*%
X151000000Y-30000000D03*
X154125000Y-30000000D03*
%TD*%
D14*
%TO.C,C75*%
X100500000Y-109937500D03*
X100500000Y-113062500D03*
%TD*%
D16*
%TO.C,R62*%
X57000000Y-151450000D03*
X57000000Y-154550000D03*
%TD*%
D10*
%TO.C,C84*%
X58000000Y-80500000D03*
X58000000Y-77375000D03*
%TD*%
D16*
%TO.C,R71*%
X257000000Y-33900000D03*
X257000000Y-37000000D03*
%TD*%
D17*
%TO.C,C38*%
X218625000Y-64975000D03*
X215500000Y-64975000D03*
%TD*%
D10*
%TO.C,C73*%
X78000000Y-80562500D03*
X78000000Y-77437500D03*
%TD*%
D18*
%TO.C,IC6*%
X36000000Y-115450000D03*
X36000000Y-116100000D03*
X36000000Y-116750000D03*
X36000000Y-117400000D03*
X36000000Y-118050000D03*
X36000000Y-118700000D03*
X36000000Y-119350000D03*
X36000000Y-120000000D03*
X36000000Y-120650000D03*
X36000000Y-121300000D03*
X41876000Y-121300000D03*
X41876000Y-120650000D03*
X41876000Y-120000000D03*
X41876000Y-119350000D03*
X41876000Y-118700000D03*
X41876000Y-118050000D03*
X41876000Y-117400000D03*
X41876000Y-116750000D03*
X41876000Y-116100000D03*
X41876000Y-115450000D03*
%TD*%
D13*
%TO.C,R50*%
X205450000Y-62000000D03*
X208550000Y-62000000D03*
%TD*%
D19*
%TO.C,LED1*%
X57000000Y-161000000D03*
X57000000Y-158000000D03*
%TD*%
%TO.C,LED2*%
X62500000Y-161000000D03*
X62500000Y-158000000D03*
%TD*%
D15*
%TO.C,Z11*%
X239000000Y-69975000D03*
X239000000Y-74025000D03*
%TD*%
D20*
%TO.C,R4*%
X223000000Y-56550000D03*
X223000000Y-53450000D03*
%TD*%
D14*
%TO.C,C69*%
X252500000Y-33837500D03*
X252500000Y-36962500D03*
%TD*%
D11*
%TO.C,R67*%
X274000000Y-46000000D03*
X274000000Y-40000000D03*
%TD*%
D20*
%TO.C,R3*%
X208000000Y-57000000D03*
X208000000Y-53900000D03*
%TD*%
D15*
%TO.C,Z1*%
X170000000Y-30000000D03*
X170000000Y-34050000D03*
%TD*%
%TO.C,Z9*%
X225560000Y-69975000D03*
X225560000Y-74025000D03*
%TD*%
D14*
%TO.C,C74*%
X105000000Y-109937500D03*
X105000000Y-113062500D03*
%TD*%
D16*
%TO.C,R2*%
X62500000Y-31900000D03*
X62500000Y-35000000D03*
%TD*%
D14*
%TO.C,C76*%
X93000000Y-116000000D03*
X93000000Y-119125000D03*
%TD*%
D21*
%TO.C,Z2*%
X156800000Y-131500000D03*
X161200000Y-131500000D03*
%TD*%
D11*
%TO.C,R65*%
X274000000Y-58000000D03*
X274000000Y-52000000D03*
%TD*%
D22*
%TO.C,Z3*%
X231635000Y-44757500D03*
X231635000Y-48357500D03*
%TD*%
D12*
%TO.C,C85*%
X47187500Y-131000000D03*
X50312500Y-131000000D03*
%TD*%
D10*
%TO.C,C71*%
X78000000Y-53562500D03*
X78000000Y-50437500D03*
%TD*%
%TO.C,C70*%
X78000000Y-40062500D03*
X78000000Y-36937500D03*
%TD*%
D17*
%TO.C,C93*%
X14125000Y-108000000D03*
X11000000Y-108000000D03*
%TD*%
D23*
%TO.C,R69*%
X268000000Y-29000000D03*
X262000000Y-29000000D03*
%TD*%
D24*
%TO.C,IC5*%
X234825000Y-40566000D03*
X236095000Y-40566000D03*
X237365000Y-40566000D03*
X238635000Y-40566000D03*
X238635000Y-35144000D03*
X237365000Y-35144000D03*
X236095000Y-35144000D03*
X234825000Y-35144000D03*
%TD*%
D12*
%TO.C,C94*%
X18000000Y-120000000D03*
X21125000Y-120000000D03*
%TD*%
D13*
%TO.C,R39*%
X103400000Y-117500000D03*
X106500000Y-117500000D03*
%TD*%
%TO.C,R52*%
X226000000Y-65000000D03*
X229100000Y-65000000D03*
%TD*%
D10*
%TO.C,C64*%
X231635000Y-35682500D03*
X231635000Y-32557500D03*
%TD*%
D25*
%TO.C,IC1*%
X32325000Y-114905000D03*
X32325000Y-113635000D03*
X32325000Y-112365000D03*
X32325000Y-111095000D03*
X21675000Y-111095000D03*
X21675000Y-112365000D03*
X21675000Y-113635000D03*
X21675000Y-114905000D03*
%TD*%
D10*
%TO.C,C81*%
X227635000Y-44557500D03*
X227635000Y-41432500D03*
%TD*%
D26*
%TO.C,FL1*%
X18275000Y-114250000D03*
X18275000Y-111750000D03*
X13725000Y-111750000D03*
X13725000Y-114250000D03*
%TD*%
D13*
%TO.C,R59*%
X47950000Y-119000000D03*
X51050000Y-119000000D03*
%TD*%
D14*
%TO.C,C61*%
X57000000Y-63375000D03*
X57000000Y-66500000D03*
%TD*%
D27*
%TO.C,R73*%
X82612500Y-111500000D03*
X79512500Y-111500000D03*
%TD*%
D12*
%TO.C,C29*%
X151000000Y-35000000D03*
X154125000Y-35000000D03*
%TD*%
D17*
%TO.C,C83*%
X48125000Y-77000000D03*
X45000000Y-77000000D03*
%TD*%
D21*
%TO.C,Z4*%
X164500000Y-131500000D03*
X168900000Y-131500000D03*
%TD*%
D16*
%TO.C,R1*%
X62500000Y-38450000D03*
X62500000Y-41550000D03*
%TD*%
D14*
%TO.C,C90*%
X39750000Y-107625000D03*
X39750000Y-110750000D03*
%TD*%
D11*
%TO.C,R66*%
X269000000Y-46000000D03*
X269000000Y-52000000D03*
%TD*%
D10*
%TO.C,C37*%
X217000000Y-53000000D03*
X217000000Y-49875000D03*
%TD*%
D12*
%TO.C,C92*%
X16937500Y-108000000D03*
X20062500Y-108000000D03*
%TD*%
D10*
%TO.C,C66*%
X51500000Y-115125000D03*
X51500000Y-112000000D03*
%TD*%
D12*
%TO.C,C27*%
X157000000Y-35000000D03*
X160125000Y-35000000D03*
%TD*%
D10*
%TO.C,C72*%
X78000000Y-67562500D03*
X78000000Y-64437500D03*
%TD*%
D16*
%TO.C,R63*%
X62500000Y-151450000D03*
X62500000Y-154550000D03*
%TD*%
D17*
%TO.C,C78*%
X89562500Y-107000000D03*
X86437500Y-107000000D03*
%TD*%
D12*
%TO.C,C86*%
X47187500Y-126500000D03*
X50312500Y-126500000D03*
%TD*%
D23*
%TO.C,R70*%
X252000000Y-29000000D03*
X258000000Y-29000000D03*
%TD*%
D17*
%TO.C,C80*%
X82562500Y-107000000D03*
X79437500Y-107000000D03*
%TD*%
%TO.C,C67*%
X41812500Y-131250000D03*
X38687500Y-131250000D03*
%TD*%
D14*
%TO.C,C39*%
X212000000Y-68687500D03*
X212000000Y-71812500D03*
%TD*%
D12*
%TO.C,C68*%
X33437500Y-131250000D03*
X36562500Y-131250000D03*
%TD*%
D16*
%TO.C,R51*%
X222000000Y-62450000D03*
X222000000Y-65550000D03*
%TD*%
D28*
%TO.C,IC3*%
X211289000Y-57095000D03*
X211289000Y-58365000D03*
X211289000Y-59635000D03*
X211289000Y-60905000D03*
X216711000Y-60905000D03*
X216711000Y-59635000D03*
X216711000Y-58365000D03*
X216711000Y-57095000D03*
%TD*%
D29*
%TO.C,FB1*%
X215500000Y-69975000D03*
X215500000Y-71575000D03*
%TD*%
D10*
%TO.C,C60*%
X58000000Y-72125000D03*
X58000000Y-69000000D03*
%TD*%
D28*
%TO.C,IC8*%
X79289000Y-117095000D03*
X79289000Y-118365000D03*
X79289000Y-119635000D03*
X79289000Y-120905000D03*
X84711000Y-120905000D03*
X84711000Y-119635000D03*
X84711000Y-118365000D03*
X84711000Y-117095000D03*
%TD*%
D12*
%TO.C,C91*%
X22437500Y-108000000D03*
X25562500Y-108000000D03*
%TD*%
D21*
%TO.C,Z5*%
X172300000Y-131500000D03*
X176700000Y-131500000D03*
%TD*%
M02*
