%TF.GenerationSoftware,KiCad,Pcbnew,9.0.0*%
%TF.CreationDate,2025-04-28T16:55:08-07:00*%
%TF.ProjectId,DynamicBrakeGrid,44796e61-6d69-4634-9272-616b65477269,rev?*%
%TF.SameCoordinates,Original*%
%TF.FileFunction,Soldermask,Bot*%
%TF.FilePolarity,Negative*%
%FSLAX46Y46*%
G04 Gerber Fmt 4.6, Leading zero omitted, Abs format (unit mm)*
G04 Created by KiCad (PCBNEW 9.0.0) date 2025-04-28 16:55:08*
%MOMM*%
%LPD*%
G01*
G04 APERTURE LIST*
G04 Aperture macros list*
%AMRoundRect*
0 Rectangle with rounded corners*
0 $1 Rounding radius*
0 $2 $3 $4 $5 $6 $7 $8 $9 X,Y pos of 4 corners*
0 Add a 4 corners polygon primitive as box body*
4,1,4,$2,$3,$4,$5,$6,$7,$8,$9,$2,$3,0*
0 Add four circle primitives for the rounded corners*
1,1,$1+$1,$2,$3*
1,1,$1+$1,$4,$5*
1,1,$1+$1,$6,$7*
1,1,$1+$1,$8,$9*
0 Add four rect primitives between the rounded corners*
20,1,$1+$1,$2,$3,$4,$5,0*
20,1,$1+$1,$4,$5,$6,$7,0*
20,1,$1+$1,$6,$7,$8,$9,0*
20,1,$1+$1,$8,$9,$2,$3,0*%
%AMHorizOval*
0 Thick line with rounded ends*
0 $1 width*
0 $2 $3 position (X,Y) of the first rounded end (center of the circle)*
0 $4 $5 position (X,Y) of the second rounded end (center of the circle)*
0 Add line between two ends*
20,1,$1,$2,$3,$4,$5,0*
0 Add two circle primitives to create the rounded ends*
1,1,$1,$2,$3*
1,1,$1,$4,$5*%
G04 Aperture macros list end*
%ADD10C,0.200000*%
%ADD11C,5.940000*%
%ADD12C,1.100000*%
%ADD13R,2.030000X1.730000*%
%ADD14O,2.030000X1.730000*%
%ADD15R,1.950000X1.950000*%
%ADD16C,1.950000*%
%ADD17R,3.000000X3.000000*%
%ADD18C,3.000000*%
%ADD19C,9.500000*%
%ADD20R,1.500000X1.500000*%
%ADD21C,1.500000*%
%ADD22R,1.200000X1.200000*%
%ADD23C,1.200000*%
%ADD24RoundRect,1.000000X7.000000X9.000000X-7.000000X9.000000X-7.000000X-9.000000X7.000000X-9.000000X0*%
%ADD25RoundRect,0.500000X-3.500000X6.500000X-3.500000X-6.500000X3.500000X-6.500000X3.500000X6.500000X0*%
%ADD26R,1.650000X1.650000*%
%ADD27C,1.650000*%
%ADD28R,1.700000X1.700000*%
%ADD29O,1.700000X1.700000*%
%ADD30R,1.600000X1.600000*%
%ADD31O,1.600000X1.600000*%
%ADD32C,1.725000*%
%ADD33R,2.100000X2.100000*%
%ADD34C,2.100000*%
%ADD35HorizOval,0.800000X0.000000X0.000000X0.000000X0.000000X0*%
%ADD36HorizOval,0.800000X0.000000X0.000000X0.000000X0.000000X0*%
%ADD37C,0.800000*%
%ADD38O,6.000000X9.000000*%
G04 APERTURE END LIST*
D10*
X148750000Y-133000000D02*
X289250000Y-133000000D01*
X289250000Y-147000000D01*
X148750000Y-147000000D01*
X148750000Y-133000000D01*
G36*
X148750000Y-133000000D02*
G01*
X289250000Y-133000000D01*
X289250000Y-147000000D01*
X148750000Y-147000000D01*
X148750000Y-133000000D01*
G37*
X126000000Y-106000000D02*
X159000000Y-106000000D01*
X159000000Y-116000000D01*
X126000000Y-116000000D01*
X126000000Y-106000000D01*
G36*
X126000000Y-106000000D02*
G01*
X159000000Y-106000000D01*
X159000000Y-116000000D01*
X126000000Y-116000000D01*
X126000000Y-106000000D01*
G37*
X149000000Y-153000000D02*
X279500000Y-153000000D01*
X279500000Y-174500000D01*
X149000000Y-174500000D01*
X149000000Y-153000000D01*
G36*
X149000000Y-153000000D02*
G01*
X279500000Y-153000000D01*
X279500000Y-174500000D01*
X149000000Y-174500000D01*
X149000000Y-153000000D01*
G37*
D11*
%TO.C,J18*%
X310650000Y-57775000D03*
X297950000Y-44775000D03*
%TD*%
D12*
%TO.C,M2*%
X100000000Y-60000000D03*
D13*
X102160000Y-65080000D03*
D14*
X102160000Y-62540000D03*
X102160000Y-60000000D03*
X102160000Y-57460000D03*
%TD*%
D11*
%TO.C,J13*%
X341150000Y-57775000D03*
X328450000Y-44775000D03*
%TD*%
D15*
%TO.C,J1*%
X191000000Y-40000000D03*
D16*
X196000000Y-40000000D03*
%TD*%
D12*
%TO.C,M7*%
X109840000Y-74040000D03*
D13*
X112000000Y-79120000D03*
D14*
X112000000Y-76580000D03*
X112000000Y-74040000D03*
X112000000Y-71500000D03*
%TD*%
D17*
%TO.C,C12*%
X296300000Y-91500000D03*
D18*
X306300000Y-91500000D03*
%TD*%
D19*
%TO.C,H10*%
X70000000Y-165000000D03*
%TD*%
D11*
%TO.C,J22*%
X169650000Y-142725000D03*
X182350000Y-155725000D03*
%TD*%
D18*
%TO.C,TP25*%
X233000000Y-60000000D03*
%TD*%
D20*
%TO.C,C102*%
X143500000Y-159275000D03*
D21*
X143500000Y-144275000D03*
%TD*%
D22*
%TO.C,C6*%
X134500000Y-53000000D03*
D23*
X129500000Y-53000000D03*
%TD*%
D12*
%TO.C,M3*%
X100000000Y-45720000D03*
D13*
X102160000Y-50800000D03*
D14*
X102160000Y-48260000D03*
X102160000Y-45720000D03*
X102160000Y-43180000D03*
%TD*%
D20*
%TO.C,C104*%
X127500000Y-171125000D03*
D21*
X127500000Y-143625000D03*
%TD*%
D12*
%TO.C,M11*%
X119340000Y-59960000D03*
D13*
X121500000Y-65040000D03*
D14*
X121500000Y-62500000D03*
X121500000Y-59960000D03*
X121500000Y-57420000D03*
%TD*%
D12*
%TO.C,M6*%
X109840000Y-59960000D03*
D13*
X112000000Y-65040000D03*
D14*
X112000000Y-62500000D03*
X112000000Y-59960000D03*
X112000000Y-57420000D03*
%TD*%
D17*
%TO.C,C18*%
X262500000Y-108100000D03*
D18*
X272500000Y-108100000D03*
%TD*%
D24*
%TO.C,Q1*%
X151000000Y-105000000D03*
X180000000Y-105000000D03*
D25*
X215000000Y-85000000D03*
X239000000Y-105000000D03*
%TD*%
D19*
%TO.C,H9*%
X195000000Y-60000000D03*
%TD*%
D20*
%TO.C,C98*%
X183625000Y-71000000D03*
D21*
X156125000Y-71000000D03*
%TD*%
D12*
%TO.C,M10*%
X119340000Y-45720000D03*
D13*
X121500000Y-50800000D03*
D14*
X121500000Y-48260000D03*
X121500000Y-45720000D03*
X121500000Y-43180000D03*
%TD*%
D26*
%TO.C,J15*%
X27500000Y-162500000D03*
D27*
X31000000Y-162500000D03*
X34500000Y-162500000D03*
%TD*%
D26*
%TO.C,J9*%
X70000000Y-70800000D03*
D27*
X70000000Y-74300000D03*
X70000000Y-77800000D03*
%TD*%
D22*
%TO.C,C4*%
X139500000Y-43300000D03*
D23*
X134500000Y-43300000D03*
%TD*%
D17*
%TO.C,C13*%
X296300000Y-124500000D03*
D18*
X306300000Y-124500000D03*
%TD*%
%TO.C,TP26*%
X98000000Y-117000000D03*
%TD*%
D26*
%TO.C,J14*%
X14000000Y-162500000D03*
D27*
X17500000Y-162500000D03*
X21000000Y-162500000D03*
%TD*%
D19*
%TO.C,H4*%
X317300000Y-108500000D03*
%TD*%
%TO.C,H1*%
X12500000Y-35000000D03*
%TD*%
D17*
%TO.C,C15*%
X328800000Y-124500000D03*
D18*
X338800000Y-124500000D03*
%TD*%
D26*
%TO.C,J5*%
X70000000Y-30300000D03*
D27*
X70000000Y-33800000D03*
X70000000Y-37300000D03*
%TD*%
D21*
%TO.C,Y1*%
X35500000Y-126000000D03*
X40380000Y-126000000D03*
%TD*%
D15*
%TO.C,J2*%
X177900000Y-40000000D03*
D16*
X182900000Y-40000000D03*
%TD*%
D26*
%TO.C,J12*%
X85000000Y-51300000D03*
D27*
X85000000Y-47800000D03*
X85000000Y-44300000D03*
%TD*%
D26*
%TO.C,J25*%
X85000000Y-37800000D03*
D27*
X85000000Y-34300000D03*
X85000000Y-30800000D03*
%TD*%
D28*
%TO.C,JP1*%
X5500000Y-115975000D03*
D29*
X5500000Y-118515000D03*
%TD*%
D12*
%TO.C,M9*%
X119340000Y-31000000D03*
D13*
X121500000Y-36080000D03*
D14*
X121500000Y-33540000D03*
X121500000Y-31000000D03*
X121500000Y-28460000D03*
%TD*%
D22*
%TO.C,C9*%
X150500000Y-43300000D03*
D23*
X145500000Y-43300000D03*
%TD*%
D26*
%TO.C,J7*%
X70000000Y-43800000D03*
D27*
X70000000Y-47300000D03*
X70000000Y-50800000D03*
%TD*%
D12*
%TO.C,M4*%
X109540000Y-31000000D03*
D13*
X111700000Y-36080000D03*
D14*
X111700000Y-33540000D03*
X111700000Y-31000000D03*
X111700000Y-28460000D03*
%TD*%
D26*
%TO.C,J24*%
X70000000Y-84300000D03*
D27*
X70000000Y-87800000D03*
X70000000Y-91300000D03*
%TD*%
D22*
%TO.C,C5*%
X135000000Y-32000000D03*
D23*
X130000000Y-32000000D03*
%TD*%
D18*
%TO.C,TP27*%
X85000000Y-102500000D03*
%TD*%
D26*
%TO.C,J6*%
X85000000Y-91800000D03*
D27*
X85000000Y-88300000D03*
X85000000Y-84800000D03*
%TD*%
D22*
%TO.C,C8*%
X161000000Y-43000000D03*
D23*
X156000000Y-43000000D03*
%TD*%
D30*
%TO.C,A1*%
X52130000Y-53825000D03*
D31*
X52130000Y-56365000D03*
X52130000Y-58905000D03*
X52130000Y-61445000D03*
X52130000Y-63985000D03*
X52130000Y-66525000D03*
X52130000Y-69065000D03*
X52130000Y-71605000D03*
X52130000Y-76685000D03*
X52130000Y-79225000D03*
X52130000Y-81765000D03*
X52130000Y-84305000D03*
X52130000Y-86845000D03*
X52130000Y-89385000D03*
X3870000Y-89385000D03*
X3870000Y-86845000D03*
X3870000Y-84305000D03*
X3870000Y-81765000D03*
X3870000Y-79225000D03*
X3870000Y-76685000D03*
X3870000Y-74145000D03*
X3870000Y-71605000D03*
X3870000Y-67545000D03*
X3870000Y-65005000D03*
X3870000Y-62465000D03*
X3870000Y-59925000D03*
X3870000Y-57385000D03*
X3870000Y-54845000D03*
X3870000Y-52305000D03*
X3870000Y-49765000D03*
X3870000Y-47225000D03*
X3870000Y-44685000D03*
%TD*%
D19*
%TO.C,H2*%
X317500000Y-140000000D03*
%TD*%
D20*
%TO.C,C96*%
X172275000Y-85000000D03*
D21*
X157275000Y-85000000D03*
%TD*%
D17*
%TO.C,C19*%
X329300000Y-157500000D03*
D18*
X339300000Y-157500000D03*
%TD*%
%TO.C,TP23*%
X220500000Y-69975000D03*
%TD*%
D32*
%TO.C,PS1*%
X47075000Y-141115000D03*
X44535000Y-141115000D03*
X36915000Y-141115000D03*
X31835000Y-141115000D03*
%TD*%
D11*
%TO.C,J20*%
X231650000Y-142725000D03*
X244350000Y-155725000D03*
%TD*%
D17*
%TO.C,C16*%
X296800000Y-157850000D03*
D18*
X306800000Y-157850000D03*
%TD*%
D26*
%TO.C,J8*%
X70000000Y-57300000D03*
D27*
X70000000Y-60800000D03*
X70000000Y-64300000D03*
%TD*%
D12*
%TO.C,M8*%
X100000000Y-31000000D03*
D13*
X102160000Y-36080000D03*
D14*
X102160000Y-33540000D03*
X102160000Y-31000000D03*
X102160000Y-28460000D03*
%TD*%
D26*
%TO.C,J10*%
X85000000Y-78300000D03*
D27*
X85000000Y-74800000D03*
X85000000Y-71300000D03*
%TD*%
D22*
%TO.C,C3*%
X146500000Y-32000000D03*
D23*
X141500000Y-32000000D03*
%TD*%
D20*
%TO.C,C103*%
X155000000Y-159275000D03*
D21*
X155000000Y-144275000D03*
%TD*%
D12*
%TO.C,M5*%
X109840000Y-45720000D03*
D13*
X112000000Y-50800000D03*
D14*
X112000000Y-48260000D03*
X112000000Y-45720000D03*
X112000000Y-43180000D03*
%TD*%
D33*
%TO.C,C87*%
X113650000Y-171250000D03*
D34*
X113650000Y-133750000D03*
X93350000Y-171250000D03*
X93350000Y-133750000D03*
%TD*%
D17*
%TO.C,C14*%
X328800000Y-91500000D03*
D18*
X338800000Y-91500000D03*
%TD*%
D19*
%TO.C,H8*%
X280000000Y-32500000D03*
%TD*%
D17*
%TO.C,C17*%
X262500000Y-75000000D03*
D18*
X272500000Y-75000000D03*
%TD*%
D26*
%TO.C,J11*%
X85000000Y-64800000D03*
D27*
X85000000Y-61300000D03*
X85000000Y-57800000D03*
%TD*%
D19*
%TO.C,H7*%
X140000000Y-167500000D03*
%TD*%
D22*
%TO.C,C2*%
X105000000Y-88000000D03*
D23*
X100000000Y-88000000D03*
%TD*%
D20*
%TO.C,C97*%
X171775000Y-122500000D03*
D21*
X156775000Y-122500000D03*
%TD*%
D12*
%TO.C,M12*%
X119340000Y-74040000D03*
D13*
X121500000Y-79120000D03*
D14*
X121500000Y-76580000D03*
X121500000Y-74040000D03*
X121500000Y-71500000D03*
%TD*%
D12*
%TO.C,M1*%
X100000000Y-74000000D03*
D13*
X102160000Y-79080000D03*
D14*
X102160000Y-76540000D03*
X102160000Y-74000000D03*
X102160000Y-71460000D03*
%TD*%
D19*
%TO.C,H3*%
X6000000Y-169000000D03*
%TD*%
D11*
%TO.C,J21*%
X200650000Y-142725000D03*
X213350000Y-155725000D03*
%TD*%
D18*
%TO.C,TP28*%
X205500000Y-66500000D03*
%TD*%
%TO.C,TP24*%
X225000000Y-60000000D03*
%TD*%
D11*
%TO.C,J19*%
X262300000Y-142725000D03*
X275000000Y-155725000D03*
%TD*%
D20*
%TO.C,U6*%
X109175000Y-116600000D03*
D21*
X109175000Y-118510000D03*
X109175000Y-120420000D03*
D35*
X131205000Y-119560000D03*
D36*
X129945000Y-119560000D03*
D37*
X132235000Y-120310000D03*
X128915000Y-120310000D03*
X132625000Y-121510000D03*
X128525000Y-121510000D03*
X132625000Y-122840000D03*
X128525000Y-122840000D03*
D38*
X130575000Y-123510000D03*
D37*
X132625000Y-124180000D03*
X128525000Y-124180000D03*
X132625000Y-125510000D03*
X128525000Y-125510000D03*
X132235000Y-126710000D03*
X128915000Y-126710000D03*
X131205000Y-127460000D03*
X129945000Y-127460000D03*
X131205000Y-109560000D03*
X129945000Y-109560000D03*
X132235000Y-110310000D03*
X128915000Y-110310000D03*
X132625000Y-111510000D03*
X128525000Y-111510000D03*
X132625000Y-112840000D03*
X128525000Y-112840000D03*
D38*
X130575000Y-113510000D03*
D37*
X132625000Y-114180000D03*
X128525000Y-114180000D03*
X132625000Y-115510000D03*
X128525000Y-115510000D03*
X132235000Y-116710000D03*
X128915000Y-116710000D03*
D36*
X131205000Y-117460000D03*
D35*
X129945000Y-117460000D03*
%TD*%
D22*
%TO.C,C7*%
X171500000Y-43000000D03*
D23*
X166500000Y-43000000D03*
%TD*%
M02*
