M48
; DRILL file {KiCad 9.0.0} date 2025-04-28T16:55:06-0700
; FORMAT={-:-/ absolute / metric / decimal}
; #@! TF.CreationDate,2025-04-28T16:55:06-07:00
; #@! TF.GenerationSoftware,Kicad,Pcbnew,9.0.0
; #@! TF.FileFunction,Plated,1,4,PTH
FMAT,2
METRIC
; #@! TA.AperFunction,Plated,PTH,ViaDrill
T1C0.300
; #@! TA.AperFunction,Plated,PTH,ViaDrill
T2C0.500
; #@! TA.AperFunction,Plated,PTH,ComponentDrill
T3C0.500
; #@! TA.AperFunction,Plated,PTH,ViaDrill
T4C0.600
; #@! TA.AperFunction,Plated,PTH,ComponentDrill
T5C0.800
; #@! TA.AperFunction,Plated,PTH,ComponentDrill
T6C1.000
; #@! TA.AperFunction,Plated,PTH,ComponentDrill
T7C1.020
; #@! TA.AperFunction,Plated,PTH,ComponentDrill
T8C1.100
; #@! TA.AperFunction,Plated,PTH,ComponentDrill
T9C1.150
; #@! TA.AperFunction,Plated,PTH,ComponentDrill
T10C1.300
; #@! TA.AperFunction,Plated,PTH,ComponentDrill
T11C1.400
; #@! TA.AperFunction,Plated,PTH,ComponentDrill
T12C1.500
; #@! TA.AperFunction,Plated,PTH,ComponentDrill
T13C2.000
; #@! TA.AperFunction,Plated,PTH,ComponentDrill
T14C3.960
; #@! TA.AperFunction,Plated,PTH,ComponentDrill
T15C4.000
; #@! TA.AperFunction,Plated,PTH,ComponentDrill
T16C5.300
; #@! TA.AperFunction,Plated,PTH,ComponentDrill
T17C6.600
%
G90
G05
T1
X9.0Y-71.5
X9.0Y-111.5
X10.0Y-126.0
X11.0Y-67.5
X14.75Y-111.75
X15.0Y-74.5
X16.0Y-122.0
X20.0Y-115.0
X21.5Y-109.5
X32.75Y-120.5
X33.75Y-114.75
X34.233Y-111.233
X36.0Y-122.5
X41.75Y-110.75
X41.75Y-114.5
X43.5Y-62.5
X43.5Y-117.0
X44.5Y-57.5
X44.5Y-118.0
X45.5Y-60.0
X45.5Y-119.0
X46.5Y-55.0
X46.5Y-120.0
X47.5Y-84.5
X47.5Y-121.0
X58.0Y-82.0
X58.0Y-95.0
X82.5Y-102.5
X92.0Y-95.0
X96.0Y-97.0
X207.75Y-60.25
X209.0Y-51.5
X213.5Y-68.5
X219.0Y-55.0
X219.0Y-59.704
X220.0Y-64.975
X224.0Y-36.0
X224.0Y-44.5
X236.095Y-35.144
X238.635Y-43.557
X259.0Y-37.0
T2
X9.0Y-79.5
X9.0Y-100.0
X10.5Y-77.0
X10.5Y-98.5
X15.0Y-71.5
X49.5Y-99.0
X63.0Y-75.5
X63.0Y-102.5
X66.5Y-105.872
X66.5Y-115.0
X72.0Y-104.499
X72.0Y-115.0
X82.5Y-99.0
X84.5Y-106.0
X89.0Y-103.5
X151.0Y-27.5
X157.0Y-27.5
X163.0Y-27.5
X174.0Y-30.0
T3
X128.525Y-111.51
X128.525Y-112.84
X128.525Y-114.18
X128.525Y-115.51
X128.525Y-121.51
X128.525Y-122.84
X128.525Y-124.18
X128.525Y-125.51
X128.915Y-110.31
X128.915Y-116.71
X128.915Y-120.31
X128.915Y-126.71
X129.945Y-109.56
X129.945Y-117.46
X129.945Y-119.56
X129.945Y-127.46
X131.205Y-109.56
X131.205Y-117.46
X131.205Y-119.56
X131.205Y-127.46
X132.235Y-110.31
X132.235Y-116.71
X132.235Y-120.31
X132.235Y-126.71
X132.625Y-111.51
X132.625Y-112.84
X132.625Y-114.18
X132.625Y-115.51
X132.625Y-121.51
X132.625Y-122.84
X132.625Y-124.18
X132.625Y-125.51
T4
X1.0Y-26.0
X1.0Y-27.0
X1.0Y-28.0
X1.0Y-29.0
X1.0Y-30.0
X1.0Y-31.0
X1.0Y-32.0
X1.0Y-33.0
X1.0Y-34.0
X1.0Y-35.0
X1.0Y-36.0
X1.0Y-37.0
X1.0Y-38.0
X1.0Y-39.0
X1.0Y-40.0
X1.0Y-41.0
X1.0Y-42.0
X1.0Y-43.0
X1.0Y-44.0
X1.0Y-45.0
X1.0Y-46.0
X1.0Y-47.0
X1.0Y-48.0
X1.0Y-49.0
X1.0Y-50.0
X1.0Y-51.0
X1.0Y-52.0
X1.0Y-53.0
X1.0Y-54.0
X1.0Y-55.0
X1.0Y-56.0
X1.0Y-57.0
X1.0Y-58.0
X1.0Y-59.0
X1.0Y-60.0
X1.0Y-61.0
X1.0Y-62.0
X1.0Y-63.0
X1.0Y-64.0
X1.0Y-65.0
X1.0Y-66.0
X1.0Y-67.0
X1.0Y-68.0
X1.0Y-69.0
X1.0Y-70.0
X1.0Y-71.0
X1.0Y-72.0
X1.0Y-73.0
X1.0Y-74.0
X1.0Y-75.0
X1.0Y-76.0
X1.0Y-77.0
X1.0Y-78.0
X1.0Y-79.0
X1.0Y-80.0
X1.0Y-81.0
X1.0Y-82.0
X1.0Y-83.0
X1.0Y-84.0
X1.0Y-85.0
X1.0Y-86.0
X1.0Y-87.0
X1.0Y-88.0
X1.0Y-89.0
X1.0Y-90.0
X1.0Y-91.0
X1.0Y-92.0
X1.0Y-93.0
X1.0Y-94.0
X1.0Y-95.0
X1.0Y-96.0
X1.0Y-97.0
X1.0Y-98.0
X1.0Y-99.0
X1.0Y-100.0
X1.0Y-105.0
X1.0Y-106.0
X1.0Y-107.0
X1.0Y-108.0
X1.0Y-109.0
X1.0Y-110.0
X1.0Y-111.0
X1.0Y-112.0
X1.0Y-113.0
X1.0Y-114.0
X1.0Y-115.0
X1.0Y-116.0
X1.0Y-117.0
X1.0Y-118.0
X1.0Y-119.0
X1.0Y-120.0
X1.0Y-121.0
X1.0Y-122.0
X1.0Y-123.0
X1.0Y-124.0
X1.0Y-125.0
X1.0Y-126.0
X1.0Y-127.0
X1.0Y-128.0
X1.0Y-129.0
X1.0Y-130.0
X1.0Y-131.0
X1.0Y-132.0
X1.0Y-133.0
X1.0Y-134.0
X1.0Y-135.0
X1.0Y-136.0
X1.0Y-137.0
X1.0Y-138.0
X1.0Y-139.0
X1.0Y-140.0
X1.0Y-141.0
X1.0Y-142.0
X1.0Y-143.0
X1.0Y-144.0
X1.0Y-145.0
X1.0Y-146.0
X1.0Y-147.0
X1.0Y-148.0
X1.0Y-149.0
X1.0Y-150.0
X1.0Y-151.0
X1.0Y-152.0
X1.0Y-153.0
X1.0Y-154.0
X1.0Y-155.0
X1.0Y-156.0
X1.0Y-157.0
X1.0Y-158.0
X1.0Y-159.0
X1.0Y-160.0
X1.0Y-161.0
X1.0Y-162.0
X1.0Y-163.0
X2.0Y-26.0
X2.0Y-100.0
X2.0Y-105.0
X3.0Y-26.0
X3.0Y-100.0
X3.0Y-105.0
X4.0Y-26.0
X4.0Y-100.0
X4.0Y-105.0
X5.0Y-26.0
X5.0Y-30.0
X5.0Y-35.0
X5.0Y-100.0
X5.0Y-105.0
X6.0Y-26.0
X6.0Y-100.0
X6.0Y-105.0
X7.0Y-26.0
X7.0Y-105.0
X8.0Y-26.0
X8.0Y-105.0
X9.0Y-26.0
X9.0Y-44.0
X9.0Y-105.0
X10.0Y-26.0
X10.0Y-105.0
X11.0Y-26.0
X11.0Y-42.0
X11.0Y-105.0
X12.0Y-26.0
X12.0Y-97.0
X12.0Y-105.0
X12.0Y-174.0
X13.0Y-26.0
X13.0Y-105.0
X13.0Y-174.0
X13.5Y-65.0
X14.0Y-26.0
X14.0Y-95.0
X14.0Y-105.0
X14.0Y-174.0
X15.0Y-26.0
X15.0Y-50.0
X15.0Y-95.0
X15.0Y-105.0
X15.0Y-174.0
X16.0Y-26.0
X16.0Y-95.0
X16.0Y-105.0
X16.0Y-174.0
X17.0Y-26.0
X17.0Y-95.0
X17.0Y-105.0
X17.0Y-174.0
X18.0Y-26.0
X18.0Y-95.0
X18.0Y-105.0
X18.0Y-174.0
X19.0Y-26.0
X19.0Y-95.0
X19.0Y-105.0
X19.0Y-174.0
X20.0Y-26.0
X20.0Y-30.0
X20.0Y-35.0
X20.0Y-40.0
X20.0Y-50.0
X20.0Y-65.0
X20.0Y-75.0
X20.0Y-80.0
X20.0Y-90.0
X20.0Y-95.0
X20.0Y-105.0
X20.0Y-174.0
X21.0Y-26.0
X21.0Y-95.0
X21.0Y-105.0
X21.0Y-174.0
X22.0Y-26.0
X22.0Y-95.0
X22.0Y-105.0
X22.0Y-174.0
X23.0Y-26.0
X23.0Y-95.0
X23.0Y-105.0
X23.0Y-174.0
X24.0Y-26.0
X24.0Y-95.0
X24.0Y-105.0
X24.0Y-174.0
X25.0Y-26.0
X25.0Y-30.0
X25.0Y-35.0
X25.0Y-40.0
X25.0Y-50.0
X25.0Y-65.0
X25.0Y-75.0
X25.0Y-80.0
X25.0Y-90.0
X25.0Y-95.0
X25.0Y-105.0
X25.0Y-174.0
X26.0Y-26.0
X26.0Y-95.0
X26.0Y-105.0
X26.0Y-174.0
X27.0Y-26.0
X27.0Y-95.0
X27.0Y-105.0
X27.0Y-106.0
X27.0Y-107.0
X27.0Y-108.0
X27.0Y-109.0
X27.0Y-119.0
X27.0Y-120.0
X27.0Y-121.0
X27.0Y-122.0
X27.0Y-123.0
X27.0Y-124.0
X27.0Y-125.0
X27.0Y-126.0
X27.0Y-127.0
X27.0Y-128.0
X27.0Y-129.0
X27.0Y-130.0
X27.0Y-131.0
X27.0Y-132.0
X27.0Y-133.0
X27.0Y-134.0
X27.0Y-135.0
X27.0Y-136.0
X27.0Y-137.0
X27.0Y-138.0
X27.0Y-139.0
X27.0Y-140.0
X27.0Y-174.0
X28.0Y-26.0
X28.0Y-95.0
X28.0Y-174.0
X29.0Y-26.0
X29.0Y-95.0
X29.0Y-174.0
X30.0Y-26.0
X30.0Y-30.0
X30.0Y-35.0
X30.0Y-40.0
X30.0Y-50.0
X30.0Y-65.0
X30.0Y-75.0
X30.0Y-80.0
X30.0Y-90.0
X30.0Y-95.0
X30.0Y-174.0
X31.0Y-26.0
X31.0Y-95.0
X31.0Y-174.0
X32.0Y-26.0
X32.0Y-95.0
X32.0Y-174.0
X32.75Y-107.5
X32.75Y-118.5
X33.0Y-26.0
X33.0Y-95.0
X33.0Y-174.0
X34.0Y-26.0
X34.0Y-95.0
X34.0Y-174.0
X35.0Y-26.0
X35.0Y-30.0
X35.0Y-35.0
X35.0Y-40.0
X35.0Y-50.0
X35.0Y-65.0
X35.0Y-75.0
X35.0Y-80.0
X35.0Y-90.0
X35.0Y-95.0
X35.0Y-105.0
X35.0Y-174.0
X36.0Y-26.0
X36.0Y-95.0
X36.0Y-174.0
X37.0Y-26.0
X37.0Y-95.0
X37.0Y-146.0
X37.0Y-147.0
X37.0Y-148.0
X37.0Y-149.0
X37.0Y-150.0
X37.0Y-151.0
X37.0Y-152.0
X37.0Y-153.0
X37.0Y-154.0
X37.0Y-155.0
X37.0Y-156.0
X37.0Y-157.0
X37.0Y-158.0
X37.0Y-159.0
X37.0Y-160.0
X37.0Y-161.0
X37.0Y-162.0
X37.0Y-163.0
X37.0Y-164.0
X37.0Y-165.0
X37.0Y-166.0
X37.0Y-167.0
X37.0Y-168.0
X37.0Y-169.0
X37.0Y-170.0
X37.0Y-171.0
X37.0Y-172.0
X37.0Y-173.0
X37.0Y-174.0
X38.0Y-26.0
X38.0Y-95.0
X38.0Y-124.5
X38.938Y-118.375
X39.0Y-26.0
X39.0Y-95.0
X40.0Y-26.0
X40.0Y-30.0
X40.0Y-35.0
X40.0Y-40.0
X40.0Y-50.0
X40.0Y-65.0
X40.0Y-75.0
X40.0Y-80.0
X40.0Y-90.0
X40.0Y-95.0
X40.5Y-112.75
X41.0Y-26.0
X41.0Y-95.0
X41.25Y-107.25
X42.0Y-26.0
X42.0Y-95.0
X43.0Y-26.0
X43.0Y-135.0
X43.0Y-136.0
X43.0Y-137.0
X43.0Y-138.0
X43.0Y-139.0
X43.0Y-140.0
X43.0Y-141.0
X43.0Y-142.0
X43.0Y-143.0
X43.0Y-144.0
X43.0Y-145.0
X43.0Y-146.0
X43.0Y-147.0
X43.0Y-148.0
X43.0Y-149.0
X43.0Y-150.0
X43.0Y-151.0
X43.0Y-152.0
X43.0Y-153.0
X43.0Y-154.0
X43.0Y-155.0
X43.0Y-156.0
X43.0Y-157.0
X43.0Y-158.0
X43.0Y-159.0
X43.0Y-160.0
X43.0Y-161.0
X43.0Y-162.0
X43.0Y-163.0
X43.0Y-164.0
X43.0Y-165.0
X43.0Y-166.0
X43.0Y-167.0
X43.0Y-168.0
X43.0Y-169.0
X43.0Y-170.0
X43.0Y-171.0
X43.0Y-172.0
X43.0Y-173.0
X43.0Y-174.0
X44.0Y-26.0
X44.0Y-174.0
X44.75Y-129.5
X44.75Y-131.25
X44.75Y-133.25
X45.0Y-26.0
X45.0Y-30.0
X45.0Y-35.0
X45.0Y-40.0
X45.0Y-50.0
X45.0Y-123.25
X45.0Y-150.0
X45.0Y-174.0
X46.0Y-26.0
X46.0Y-174.0
X47.0Y-26.0
X47.0Y-174.0
X48.0Y-26.0
X48.0Y-174.0
X48.5Y-50.0
X48.5Y-71.5
X49.0Y-26.0
X49.0Y-174.0
X49.5Y-110.25
X50.0Y-26.0
X50.0Y-30.0
X50.0Y-35.0
X50.0Y-40.0
X50.0Y-145.0
X50.0Y-150.0
X50.0Y-174.0
X50.75Y-110.242
X51.0Y-26.0
X51.0Y-174.0
X52.0Y-26.0
X52.0Y-95.0
X52.0Y-110.25
X52.0Y-174.0
X52.5Y-125.0
X52.5Y-130.0
X52.5Y-135.0
X52.5Y-140.0
X53.0Y-26.0
X53.0Y-95.0
X53.0Y-174.0
X53.962Y-87.076
X53.967Y-34.08
X53.981Y-67.09
X53.981Y-85.027
X53.981Y-86.042
X54.0Y-26.0
X54.0Y-27.0
X54.0Y-28.0
X54.0Y-29.0
X54.0Y-30.0
X54.0Y-31.0
X54.0Y-32.0
X54.0Y-33.0
X54.0Y-35.0
X54.0Y-36.0
X54.0Y-37.0
X54.0Y-46.0
X54.0Y-47.0
X54.0Y-48.0
X54.0Y-52.0
X54.0Y-53.0
X54.0Y-54.0
X54.0Y-55.0
X54.0Y-56.0
X54.0Y-57.0
X54.0Y-58.0
X54.0Y-59.0
X54.0Y-60.0
X54.0Y-61.0
X54.0Y-66.0
X54.0Y-68.0
X54.0Y-69.081
X54.0Y-70.0
X54.0Y-74.0
X54.0Y-75.0
X54.0Y-76.0
X54.0Y-77.0
X54.0Y-78.0
X54.0Y-79.0
X54.0Y-80.0
X54.0Y-84.0
X54.0Y-88.0
X54.0Y-89.0
X54.0Y-90.0
X54.0Y-91.0
X54.0Y-92.0
X54.0Y-93.0
X54.0Y-94.0
X54.0Y-95.0
X54.0Y-110.0
X54.0Y-174.0
X55.0Y-45.0
X55.0Y-95.0
X55.0Y-102.5
X55.0Y-118.0
X55.0Y-145.0
X55.0Y-150.0
X55.0Y-174.0
X56.0Y-95.0
X56.0Y-174.0
X57.0Y-118.0
X57.0Y-174.0
X58.0Y-29.0
X58.0Y-174.0
X59.0Y-174.0
X60.0Y-45.0
X60.0Y-55.0
X60.0Y-60.0
X60.0Y-85.0
X60.0Y-90.0
X60.0Y-125.0
X60.0Y-145.0
X60.0Y-150.0
X60.0Y-174.0
X61.0Y-110.0
X61.0Y-174.0
X62.0Y-174.0
X62.5Y-50.0
X63.0Y-115.5
X63.0Y-174.0
X64.0Y-61.5
X64.0Y-174.0
X65.0Y-135.0
X65.0Y-140.0
X65.0Y-145.0
X65.0Y-150.0
X65.0Y-174.0
X65.8Y-41.0
X66.0Y-33.0
X66.0Y-174.0
X67.0Y-174.0
X68.0Y-174.0
X69.0Y-113.0
X69.0Y-174.0
X69.906Y-149.979
X70.0Y-125.0
X70.0Y-130.0
X70.0Y-135.0
X70.0Y-140.0
X70.0Y-145.0
X70.0Y-174.0
X71.0Y-174.0
X72.0Y-174.0
X73.0Y-174.0
X74.0Y-174.0
X75.0Y-105.0
X75.0Y-110.0
X75.0Y-115.0
X75.0Y-120.0
X75.0Y-125.0
X75.0Y-130.0
X75.0Y-135.0
X75.0Y-140.0
X75.0Y-145.0
X75.0Y-150.0
X75.0Y-174.0
X76.0Y-174.0
X77.0Y-174.0
X77.5Y-112.5
X78.0Y-42.0
X78.0Y-57.0
X78.0Y-69.5
X78.0Y-82.5
X78.0Y-174.0
X78.919Y-123.955
X78.919Y-124.955
X79.0Y-126.0
X79.0Y-127.0
X79.0Y-128.0
X79.0Y-129.0
X79.0Y-130.0
X79.0Y-131.0
X79.0Y-132.0
X79.0Y-133.0
X79.0Y-134.0
X79.0Y-135.0
X79.0Y-136.0
X79.0Y-137.0
X79.0Y-138.0
X79.0Y-139.0
X79.0Y-140.0
X79.0Y-141.0
X79.0Y-142.0
X79.0Y-143.0
X79.0Y-144.0
X79.0Y-145.0
X79.0Y-146.0
X79.0Y-147.0
X79.0Y-148.0
X79.0Y-149.0
X79.0Y-150.0
X79.0Y-151.0
X79.0Y-152.0
X79.0Y-153.0
X79.0Y-154.0
X79.0Y-155.0
X79.0Y-156.0
X79.0Y-157.0
X79.0Y-158.0
X79.0Y-159.0
X79.0Y-160.0
X79.0Y-161.0
X79.0Y-162.0
X79.0Y-163.0
X79.0Y-164.0
X79.0Y-165.0
X79.0Y-166.0
X79.0Y-167.0
X79.0Y-168.0
X79.0Y-169.0
X79.0Y-170.0
X79.0Y-171.0
X79.0Y-172.0
X79.0Y-173.0
X79.0Y-174.0
X80.0Y-124.0
X81.0Y-124.0
X82.0Y-124.0
X83.0Y-124.0
X84.0Y-124.0
X85.0Y-124.0
X86.0Y-124.0
X86.25Y-109.75
X87.0Y-124.0
X88.0Y-124.0
X88.0Y-153.0
X89.0Y-124.0
X89.0Y-153.0
X90.0Y-124.0
X90.0Y-153.0
X91.0Y-114.0
X91.0Y-124.0
X91.0Y-153.0
X92.0Y-111.0
X92.0Y-124.0
X92.0Y-153.0
X93.0Y-29.0
X93.0Y-40.0
X93.0Y-53.0
X93.0Y-65.0
X93.0Y-79.0
X93.0Y-91.0
X93.0Y-124.0
X93.0Y-153.0
X94.0Y-124.0
X94.0Y-153.0
X95.0Y-105.0
X95.0Y-124.0
X95.0Y-153.0
X96.0Y-124.0
X96.0Y-153.0
X97.0Y-124.0
X97.0Y-153.0
X98.0Y-110.0
X98.0Y-124.0
X98.0Y-153.0
X99.0Y-124.0
X99.0Y-153.0
X99.14Y-105.0
X100.0Y-124.0
X100.0Y-153.0
X101.0Y-124.0
X101.0Y-153.0
X102.0Y-124.0
X102.0Y-153.0
X103.0Y-124.0
X103.0Y-153.0
X104.0Y-26.0
X104.0Y-124.0
X104.0Y-153.0
X105.0Y-26.0
X105.0Y-105.0
X105.0Y-124.0
X105.0Y-153.0
X106.0Y-26.0
X106.0Y-124.0
X106.0Y-153.0
X107.0Y-26.0
X107.0Y-124.0
X107.0Y-153.0
X108.0Y-26.0
X108.0Y-124.0
X108.0Y-153.0
X109.0Y-26.0
X109.0Y-124.0
X109.0Y-153.0
X109.86Y-82.0
X110.0Y-26.0
X110.0Y-124.0
X110.0Y-153.0
X111.0Y-26.0
X111.0Y-124.0
X111.0Y-153.0
X112.0Y-26.0
X112.0Y-97.0
X112.0Y-98.0
X112.0Y-99.0
X112.0Y-100.0
X112.0Y-101.0
X112.0Y-102.0
X112.0Y-103.0
X112.0Y-104.0
X112.0Y-105.0
X112.0Y-106.0
X112.0Y-107.0
X112.0Y-108.0
X112.0Y-109.0
X112.0Y-110.0
X112.0Y-111.0
X112.0Y-112.0
X112.0Y-113.0
X112.0Y-114.0
X112.0Y-115.0
X112.0Y-116.0
X112.0Y-117.0
X112.0Y-118.0
X112.0Y-119.0
X112.0Y-120.0
X112.0Y-121.0
X112.0Y-122.0
X112.0Y-123.0
X112.0Y-124.0
X112.0Y-153.0
X113.0Y-26.0
X113.0Y-97.0
X113.0Y-153.0
X114.0Y-26.0
X114.0Y-97.0
X114.0Y-153.0
X115.0Y-26.0
X115.0Y-97.0
X115.0Y-153.0
X116.0Y-26.0
X116.0Y-97.0
X116.0Y-153.0
X117.0Y-26.0
X117.0Y-97.0
X117.0Y-153.0
X118.0Y-26.0
X118.0Y-97.0
X118.0Y-153.0
X119.0Y-26.0
X119.0Y-97.0
X119.0Y-153.0
X119.613Y-64.546
X120.0Y-26.0
X120.0Y-97.0
X120.0Y-153.0
X121.0Y-26.0
X121.0Y-97.0
X121.0Y-153.0
X122.0Y-26.0
X122.0Y-97.0
X122.0Y-153.0
X123.0Y-26.0
X123.0Y-97.0
X123.0Y-153.0
X124.0Y-26.0
X124.0Y-97.0
X124.0Y-153.0
X125.0Y-26.0
X125.0Y-90.0
X125.0Y-97.0
X125.0Y-153.0
X126.0Y-26.0
X126.0Y-97.0
X126.0Y-153.0
X127.0Y-26.0
X127.0Y-97.0
X127.0Y-153.0
X128.0Y-26.0
X128.0Y-97.0
X128.0Y-153.0
X129.0Y-26.0
X129.0Y-97.0
X129.0Y-153.0
X130.0Y-26.0
X130.0Y-97.0
X130.0Y-153.0
X131.0Y-26.0
X131.0Y-97.0
X131.0Y-153.0
X132.0Y-26.0
X132.0Y-62.0
X132.0Y-63.0
X132.0Y-64.0
X132.0Y-65.0
X132.0Y-66.0
X132.0Y-67.0
X132.0Y-68.0
X132.0Y-69.0
X132.0Y-70.0
X132.0Y-71.0
X132.0Y-72.0
X132.0Y-73.0
X132.0Y-74.0
X132.0Y-75.0
X132.0Y-76.0
X132.0Y-77.0
X132.0Y-78.0
X132.0Y-79.0
X132.0Y-80.0
X132.0Y-81.0
X132.0Y-82.0
X132.0Y-83.0
X132.0Y-84.0
X132.0Y-85.0
X132.0Y-86.0
X132.0Y-87.0
X132.0Y-88.0
X132.0Y-89.0
X132.0Y-90.0
X132.0Y-91.0
X132.0Y-92.0
X132.0Y-93.0
X132.0Y-94.0
X132.0Y-95.0
X132.0Y-96.0
X132.0Y-97.0
X132.0Y-153.0
X133.0Y-26.0
X133.0Y-62.0
X133.0Y-153.0
X134.0Y-26.0
X134.0Y-62.0
X134.0Y-153.0
X135.0Y-26.0
X135.0Y-62.0
X135.0Y-153.0
X136.0Y-26.0
X136.0Y-62.0
X136.0Y-153.0
X137.0Y-26.0
X137.0Y-62.0
X137.0Y-153.0
X138.0Y-26.0
X138.0Y-62.0
X138.0Y-153.0
X139.0Y-26.0
X139.0Y-62.0
X139.0Y-153.0
X140.0Y-26.0
X140.0Y-62.0
X140.0Y-153.0
X141.0Y-26.0
X141.0Y-62.0
X141.0Y-153.0
X142.0Y-26.0
X142.0Y-62.0
X142.0Y-153.0
X143.0Y-26.0
X143.0Y-62.0
X143.0Y-153.0
X144.0Y-26.0
X144.0Y-62.0
X144.0Y-153.0
X145.0Y-26.0
X145.0Y-62.0
X145.0Y-153.0
X146.0Y-26.0
X146.0Y-62.0
X146.0Y-153.0
X147.0Y-26.0
X147.0Y-62.0
X147.0Y-153.0
X148.0Y-26.0
X148.0Y-62.0
X148.0Y-153.0
X149.0Y-26.0
X149.0Y-62.0
X149.0Y-153.0
X150.0Y-26.0
X150.0Y-62.0
X150.0Y-153.0
X151.0Y-26.0
X151.0Y-62.0
X151.0Y-153.0
X152.0Y-26.0
X152.0Y-62.0
X152.0Y-153.0
X153.0Y-26.0
X153.0Y-62.0
X153.0Y-153.0
X154.0Y-26.0
X154.0Y-62.0
X154.0Y-153.0
X155.0Y-26.0
X155.0Y-62.0
X155.0Y-153.0
X156.0Y-26.0
X156.0Y-62.0
X156.0Y-153.0
X157.0Y-26.0
X157.0Y-62.0
X157.0Y-153.0
X158.0Y-26.0
X158.0Y-62.0
X158.0Y-153.0
X159.0Y-26.0
X159.0Y-62.0
X159.0Y-153.0
X160.0Y-26.0
X160.0Y-62.0
X160.0Y-153.0
X161.0Y-26.0
X161.0Y-62.0
X161.0Y-153.0
X162.0Y-26.0
X162.0Y-62.0
X162.0Y-153.0
X163.0Y-26.0
X163.0Y-62.0
X163.0Y-153.0
X164.0Y-26.0
X164.0Y-62.0
X164.0Y-153.0
X165.0Y-26.0
X165.0Y-62.0
X165.0Y-153.0
X166.0Y-26.0
X166.0Y-62.0
X166.0Y-153.0
X167.0Y-26.0
X167.0Y-62.0
X167.0Y-153.0
X168.0Y-26.0
X168.0Y-62.0
X168.0Y-153.0
X169.0Y-26.0
X169.0Y-62.0
X169.0Y-153.0
X170.0Y-26.0
X170.0Y-62.0
X170.0Y-153.0
X171.0Y-26.0
X171.0Y-62.0
X171.0Y-153.0
X172.0Y-26.0
X172.0Y-62.0
X173.0Y-26.0
X173.0Y-62.0
X174.0Y-26.0
X174.0Y-62.0
X175.0Y-26.0
X175.0Y-62.0
X176.0Y-26.0
X176.0Y-62.0
X177.0Y-26.0
X177.0Y-62.0
X178.0Y-26.0
X178.0Y-62.0
X179.0Y-26.0
X179.0Y-62.0
X180.0Y-26.0
X180.0Y-62.0
X181.0Y-26.0
X181.0Y-62.0
X182.0Y-26.0
X182.0Y-62.0
X183.0Y-26.0
X183.0Y-62.0
X184.0Y-26.0
X184.0Y-62.0
X185.0Y-26.0
X185.0Y-62.0
X186.0Y-26.0
X186.0Y-62.0
X187.0Y-26.0
X187.0Y-62.0
X188.0Y-26.0
X188.0Y-62.0
X189.0Y-26.0
X189.0Y-63.0
X190.0Y-26.0
X190.0Y-55.0
X190.0Y-64.0
X191.0Y-26.0
X191.0Y-65.0
X192.0Y-26.0
X192.0Y-66.0
X193.0Y-26.0
X193.0Y-67.0
X194.0Y-26.0
X194.0Y-68.0
X195.0Y-26.0
X195.0Y-69.0
X196.0Y-26.0
X196.0Y-70.0
X196.0Y-71.0
X196.0Y-72.0
X197.0Y-26.0
X197.0Y-72.0
X198.0Y-26.0
X198.0Y-72.0
X199.0Y-26.0
X199.0Y-72.0
X200.0Y-26.0
X200.0Y-72.0
X201.0Y-26.0
X201.0Y-72.0
X202.0Y-26.0
X202.0Y-72.0
X202.5Y-60.0
X203.0Y-26.0
X203.0Y-72.0
X204.0Y-26.0
X204.0Y-72.0
X205.0Y-26.0
X205.0Y-50.0
X205.0Y-72.0
X206.0Y-26.0
X206.0Y-72.0
X207.0Y-26.0
X207.0Y-72.0
X208.0Y-26.0
X208.012Y-72.0
X209.0Y-26.0
X209.0Y-72.0
X210.0Y-26.0
X211.0Y-26.0
X212.0Y-26.0
X213.0Y-26.0
X214.0Y-26.0
X215.0Y-26.0
X216.0Y-26.0
X217.0Y-26.0
X218.0Y-26.0
X219.0Y-26.0
X220.0Y-26.0
X221.0Y-26.0
X222.0Y-26.0
X223.0Y-26.0
X224.0Y-26.0
X225.0Y-26.0
X225.0Y-50.0
X226.0Y-26.0
X227.0Y-26.0
X228.0Y-26.0
X229.0Y-26.0
X230.0Y-26.0
X230.0Y-40.0
X230.0Y-55.0
X231.0Y-26.0
X232.0Y-26.0
X233.0Y-26.0
X234.0Y-26.0
X235.0Y-26.0
X235.0Y-30.0
X236.0Y-26.0
X237.0Y-26.0
X238.0Y-26.0
X239.0Y-26.0
X240.0Y-26.0
X240.0Y-40.0
X240.0Y-55.0
X240.0Y-65.0
X241.0Y-26.0
X242.0Y-26.0
X242.0Y-72.0
X243.0Y-26.0
X243.0Y-72.0
X244.0Y-26.0
X244.0Y-72.0
X245.0Y-26.0
X245.0Y-30.0
X245.0Y-72.0
X246.0Y-26.0
X246.0Y-72.0
X247.0Y-28.988
X247.0Y-39.988
X247.0Y-50.988
X247.0Y-61.988
X247.0Y-27.0
X247.0Y-28.0
X247.0Y-30.0
X247.0Y-31.0
X247.0Y-32.0
X247.0Y-36.0
X247.0Y-37.0
X247.0Y-38.0
X247.0Y-39.0
X247.0Y-41.0
X247.0Y-42.0
X247.0Y-43.0
X247.0Y-44.0
X247.0Y-45.0
X247.0Y-46.0
X247.0Y-47.0
X247.0Y-48.0
X247.0Y-49.0
X247.0Y-50.0
X247.0Y-52.0
X247.0Y-53.0
X247.0Y-54.0
X247.0Y-55.0
X247.0Y-56.0
X247.0Y-57.0
X247.0Y-58.0
X247.0Y-59.0
X247.0Y-60.0
X247.0Y-61.0
X247.0Y-63.0
X247.0Y-64.0
X247.0Y-65.0
X247.0Y-66.0
X247.0Y-67.0
X247.0Y-68.0
X247.0Y-69.0
X247.0Y-70.0
X247.0Y-71.0
X247.0Y-72.0
X247.0Y-26.012
T5
X35.5Y-126.0
X40.38Y-126.0
X100.0Y-88.0
X105.0Y-88.0
X109.175Y-116.6
X109.175Y-118.51
X109.175Y-120.42
X129.5Y-53.0
X130.0Y-32.0
X134.5Y-43.3
X134.5Y-53.0
X135.0Y-32.0
X139.5Y-43.3
X141.5Y-32.0
X145.5Y-43.3
X146.5Y-32.0
X150.5Y-43.3
X156.0Y-43.0
X161.0Y-43.0
X166.5Y-43.0
X171.5Y-43.0
T6
X3.87Y-44.685
X3.87Y-47.225
X3.87Y-49.765
X3.87Y-52.305
X3.87Y-54.845
X3.87Y-57.385
X3.87Y-59.925
X3.87Y-62.465
X3.87Y-65.005
X3.87Y-67.545
X3.87Y-71.605
X3.87Y-74.145
X3.87Y-76.685
X3.87Y-79.225
X3.87Y-81.765
X3.87Y-84.305
X3.87Y-86.845
X3.87Y-89.385
X5.5Y-115.975
X5.5Y-118.515
X52.13Y-53.825
X52.13Y-56.365
X52.13Y-58.905
X52.13Y-61.445
X52.13Y-63.985
X52.13Y-66.525
X52.13Y-69.065
X52.13Y-71.605
X52.13Y-76.685
X52.13Y-79.225
X52.13Y-81.765
X52.13Y-84.305
X52.13Y-86.845
X52.13Y-89.385
X127.5Y-143.625
X127.5Y-171.125
X143.5Y-144.275
X143.5Y-159.275
X155.0Y-144.275
X155.0Y-159.275
X156.125Y-71.0
X156.775Y-122.5
X157.275Y-85.0
X171.775Y-122.5
X172.275Y-85.0
X183.625Y-71.0
T7
X102.16Y-28.46
X102.16Y-31.0
X102.16Y-33.54
X102.16Y-36.08
X102.16Y-43.18
X102.16Y-45.72
X102.16Y-48.26
X102.16Y-50.8
X102.16Y-57.46
X102.16Y-60.0
X102.16Y-62.54
X102.16Y-65.08
X102.16Y-71.46
X102.16Y-74.0
X102.16Y-76.54
X102.16Y-79.08
X111.7Y-28.46
X111.7Y-31.0
X111.7Y-33.54
X111.7Y-36.08
X112.0Y-43.18
X112.0Y-45.72
X112.0Y-48.26
X112.0Y-50.8
X112.0Y-57.42
X112.0Y-59.96
X112.0Y-62.5
X112.0Y-65.04
X112.0Y-71.5
X112.0Y-74.04
X112.0Y-76.58
X112.0Y-79.12
X121.5Y-28.46
X121.5Y-31.0
X121.5Y-33.54
X121.5Y-36.08
X121.5Y-43.18
X121.5Y-45.72
X121.5Y-48.26
X121.5Y-50.8
X121.5Y-57.42
X121.5Y-59.96
X121.5Y-62.5
X121.5Y-65.04
X121.5Y-71.5
X121.5Y-74.04
X121.5Y-76.58
X121.5Y-79.12
T8
X14.0Y-162.5
X17.5Y-162.5
X21.0Y-162.5
X27.5Y-162.5
X31.0Y-162.5
X34.5Y-162.5
X70.0Y-30.3
X70.0Y-33.8
X70.0Y-37.3
X70.0Y-43.8
X70.0Y-47.3
X70.0Y-50.8
X70.0Y-57.3
X70.0Y-60.8
X70.0Y-64.3
X70.0Y-70.8
X70.0Y-74.3
X70.0Y-77.8
X70.0Y-84.3
X70.0Y-87.8
X70.0Y-91.3
X85.0Y-30.8
X85.0Y-34.3
X85.0Y-37.8
X85.0Y-44.3
X85.0Y-47.8
X85.0Y-51.3
X85.0Y-57.8
X85.0Y-61.3
X85.0Y-64.8
X85.0Y-71.3
X85.0Y-74.8
X85.0Y-78.3
X85.0Y-84.8
X85.0Y-88.3
X85.0Y-91.8
T9
X31.835Y-141.115
X36.915Y-141.115
X44.535Y-141.115
X47.075Y-141.115
T10
X177.9Y-40.0
X182.9Y-40.0
X191.0Y-40.0
X196.0Y-40.0
T11
X93.35Y-133.75
X93.35Y-171.25
X113.65Y-133.75
X113.65Y-171.25
T12
X85.0Y-102.5
X98.0Y-117.0
X205.5Y-66.5
X220.5Y-69.975
X225.0Y-60.0
X233.0Y-60.0
T13
X262.5Y-75.0
X262.5Y-108.1
X272.5Y-75.0
X272.5Y-108.1
X296.3Y-91.5
X296.3Y-124.5
X296.8Y-157.85
X306.3Y-91.5
X306.3Y-124.5
X306.8Y-157.85
X328.8Y-91.5
X328.8Y-124.5
X329.3Y-157.5
X338.8Y-91.5
X338.8Y-124.5
X339.3Y-157.5
T14
X169.65Y-142.725
X182.35Y-155.725
X200.65Y-142.725
X213.35Y-155.725
X231.65Y-142.725
X244.35Y-155.725
X262.3Y-142.725
X275.0Y-155.725
X297.95Y-44.775
X310.65Y-57.775
X328.45Y-44.775
X341.15Y-57.775
T15
X215.0Y-85.0
X239.0Y-105.0
T16
X6.0Y-169.0
X12.5Y-35.0
X70.0Y-165.0
X140.0Y-167.5
X195.0Y-60.0
X280.0Y-32.5
X317.3Y-108.5
X317.5Y-140.0
T17
X151.0Y-105.0
X180.0Y-105.0
T13
G00X130.575Y-111.51
M15
G01X130.575Y-115.51
M16
G05
G00X130.575Y-121.51
M15
G01X130.575Y-125.51
M16
G05
M30
