%TF.GenerationSoftware,KiCad,Pcbnew,9.0.0*%
%TF.CreationDate,2025-04-28T14:03:09-07:00*%
%TF.ProjectId,ControlBoard,436f6e74-726f-46c4-926f-6172642e6b69,rev?*%
%TF.SameCoordinates,Original*%
%TF.FileFunction,Paste,Top*%
%TF.FilePolarity,Positive*%
%FSLAX46Y46*%
G04 Gerber Fmt 4.6, Leading zero omitted, Abs format (unit mm)*
G04 Created by KiCad (PCBNEW 9.0.0) date 2025-04-28 14:03:09*
%MOMM*%
%LPD*%
G01*
G04 APERTURE LIST*
G04 Aperture macros list*
%AMRoundRect*
0 Rectangle with rounded corners*
0 $1 Rounding radius*
0 $2 $3 $4 $5 $6 $7 $8 $9 X,Y pos of 4 corners*
0 Add a 4 corners polygon primitive as box body*
4,1,4,$2,$3,$4,$5,$6,$7,$8,$9,$2,$3,0*
0 Add four circle primitives for the rounded corners*
1,1,$1+$1,$2,$3*
1,1,$1+$1,$4,$5*
1,1,$1+$1,$6,$7*
1,1,$1+$1,$8,$9*
0 Add four rect primitives between the rounded corners*
20,1,$1+$1,$2,$3,$4,$5,0*
20,1,$1+$1,$4,$5,$6,$7,0*
20,1,$1+$1,$6,$7,$8,$9,0*
20,1,$1+$1,$8,$9,$2,$3,0*%
G04 Aperture macros list end*
%ADD10RoundRect,0.250000X0.412500X1.100000X-0.412500X1.100000X-0.412500X-1.100000X0.412500X-1.100000X0*%
%ADD11RoundRect,0.250000X-1.075000X0.400000X-1.075000X-0.400000X1.075000X-0.400000X1.075000X0.400000X0*%
%ADD12RoundRect,0.250000X-0.412500X-1.100000X0.412500X-1.100000X0.412500X1.100000X-0.412500X1.100000X0*%
%ADD13RoundRect,0.250000X1.075000X-0.400000X1.075000X0.400000X-1.075000X0.400000X-1.075000X-0.400000X0*%
%ADD14R,1.350000X0.900000*%
%ADD15RoundRect,0.250000X1.100000X-0.412500X1.100000X0.412500X-1.100000X0.412500X-1.100000X-0.412500X0*%
%ADD16R,1.750000X1.000000*%
%ADD17RoundRect,0.250000X-1.100000X0.412500X-1.100000X-0.412500X1.100000X-0.412500X1.100000X0.412500X0*%
%ADD18RoundRect,0.250000X0.400000X1.075000X-0.400000X1.075000X-0.400000X-1.075000X0.400000X-1.075000X0*%
%ADD19R,1.525000X0.650000*%
%ADD20RoundRect,0.250000X-0.400000X-1.075000X0.400000X-1.075000X0.400000X1.075000X-0.400000X1.075000X0*%
%ADD21R,1.850000X0.650000*%
%ADD22R,0.300000X1.675000*%
%ADD23R,0.450000X1.475000*%
G04 APERTURE END LIST*
D10*
%TO.C,C103*%
X93562500Y-85000000D03*
X90437500Y-85000000D03*
%TD*%
D11*
%TO.C,R69*%
X200000000Y-128500000D03*
X200000000Y-131600000D03*
%TD*%
D10*
%TO.C,C73*%
X190562500Y-135000000D03*
X187437500Y-135000000D03*
%TD*%
%TO.C,C85*%
X94562500Y-123500000D03*
X91437500Y-123500000D03*
%TD*%
D12*
%TO.C,C72*%
X198937500Y-153000000D03*
X202062500Y-153000000D03*
%TD*%
D13*
%TO.C,R59*%
X111000000Y-137050000D03*
X111000000Y-133950000D03*
%TD*%
D12*
%TO.C,C77*%
X140437500Y-131000000D03*
X143562500Y-131000000D03*
%TD*%
%TO.C,C107*%
X89437500Y-62000000D03*
X92562500Y-62000000D03*
%TD*%
%TO.C,C117*%
X108000000Y-75000000D03*
X111125000Y-75000000D03*
%TD*%
D10*
%TO.C,C89*%
X107062500Y-140500000D03*
X103937500Y-140500000D03*
%TD*%
D14*
%TO.C,FL1*%
X72500000Y-145500000D03*
X72500000Y-143000000D03*
X67950000Y-143000000D03*
X67950000Y-145500000D03*
%TD*%
D15*
%TO.C,C111*%
X118500000Y-55812500D03*
X118500000Y-52687500D03*
%TD*%
D16*
%TO.C,LED1*%
X45580000Y-30450000D03*
X45580000Y-33450000D03*
%TD*%
D15*
%TO.C,C87*%
X103500000Y-89062500D03*
X103500000Y-85937500D03*
%TD*%
D12*
%TO.C,C100*%
X83437500Y-80500000D03*
X86562500Y-80500000D03*
%TD*%
D11*
%TO.C,R77*%
X106000000Y-63400000D03*
X106000000Y-66500000D03*
%TD*%
D17*
%TO.C,C65*%
X95000000Y-146437500D03*
X95000000Y-149562500D03*
%TD*%
D18*
%TO.C,R75*%
X147024000Y-146730000D03*
X143924000Y-146730000D03*
%TD*%
D11*
%TO.C,R1*%
X75050000Y-97950000D03*
X75050000Y-101050000D03*
%TD*%
D12*
%TO.C,C84*%
X89437500Y-70000000D03*
X92562500Y-70000000D03*
%TD*%
D13*
%TO.C,R66*%
X206500000Y-166550000D03*
X206500000Y-163450000D03*
%TD*%
%TO.C,R62*%
X45580000Y-40000000D03*
X45580000Y-36900000D03*
%TD*%
D19*
%TO.C,IC1*%
X192500000Y-155650000D03*
X192500000Y-156920000D03*
X192500000Y-158190000D03*
X192500000Y-159460000D03*
X192500000Y-160730000D03*
X192500000Y-162000000D03*
X192500000Y-163270000D03*
X197924000Y-163270000D03*
X197924000Y-162000000D03*
X197924000Y-160730000D03*
X197924000Y-159460000D03*
X197924000Y-158190000D03*
X197924000Y-156920000D03*
X197924000Y-155650000D03*
%TD*%
D17*
%TO.C,C83*%
X96000000Y-63437500D03*
X96000000Y-66562500D03*
%TD*%
%TO.C,C93*%
X65500000Y-154937500D03*
X65500000Y-158062500D03*
%TD*%
D10*
%TO.C,C69*%
X190562500Y-153000000D03*
X187437500Y-153000000D03*
%TD*%
%TO.C,C98*%
X86562500Y-65500000D03*
X83437500Y-65500000D03*
%TD*%
D11*
%TO.C,R61*%
X200500000Y-163450000D03*
X200500000Y-166550000D03*
%TD*%
D16*
%TO.C,LED2*%
X51080000Y-30400000D03*
X51080000Y-33400000D03*
%TD*%
D10*
%TO.C,C105*%
X93562500Y-78000000D03*
X90437500Y-78000000D03*
%TD*%
D17*
%TO.C,C66*%
X99500000Y-146437500D03*
X99500000Y-149562500D03*
%TD*%
D10*
%TO.C,C86*%
X94562500Y-118500000D03*
X91437500Y-118500000D03*
%TD*%
D17*
%TO.C,C91*%
X75000000Y-148437500D03*
X75000000Y-151562500D03*
%TD*%
D11*
%TO.C,R67*%
X200500000Y-145950000D03*
X200500000Y-149050000D03*
%TD*%
D20*
%TO.C,R74*%
X127950000Y-138000000D03*
X131050000Y-138000000D03*
%TD*%
D12*
%TO.C,C79*%
X140861500Y-152730000D03*
X143986500Y-152730000D03*
%TD*%
D19*
%TO.C,IC5*%
X191288000Y-120690000D03*
X191288000Y-121960000D03*
X191288000Y-123230000D03*
X191288000Y-124500000D03*
X191288000Y-125770000D03*
X191288000Y-127040000D03*
X191288000Y-128310000D03*
X196712000Y-128310000D03*
X196712000Y-127040000D03*
X196712000Y-125770000D03*
X196712000Y-124500000D03*
X196712000Y-123230000D03*
X196712000Y-121960000D03*
X196712000Y-120690000D03*
%TD*%
D21*
%TO.C,IC3*%
X91750000Y-145843000D03*
X91750000Y-144573000D03*
X91750000Y-143303000D03*
X91750000Y-142033000D03*
X81100000Y-142033000D03*
X81100000Y-143303000D03*
X81100000Y-144573000D03*
X81100000Y-145843000D03*
%TD*%
D12*
%TO.C,C108*%
X89437500Y-58500000D03*
X92562500Y-58500000D03*
%TD*%
D15*
%TO.C,C109*%
X111500000Y-55812500D03*
X111500000Y-52687500D03*
%TD*%
D17*
%TO.C,C68*%
X110500000Y-159437500D03*
X110500000Y-162562500D03*
%TD*%
D10*
%TO.C,C97*%
X86562500Y-62000000D03*
X83437500Y-62000000D03*
%TD*%
D13*
%TO.C,R68*%
X206500000Y-149100000D03*
X206500000Y-146000000D03*
%TD*%
D19*
%TO.C,IC8*%
X139424000Y-149270000D03*
X139424000Y-148000000D03*
X139424000Y-146730000D03*
X139424000Y-145460000D03*
X139424000Y-144190000D03*
X139424000Y-142920000D03*
X139424000Y-141650000D03*
X134000000Y-141650000D03*
X134000000Y-142920000D03*
X134000000Y-144190000D03*
X134000000Y-145460000D03*
X134000000Y-146730000D03*
X134000000Y-148000000D03*
X134000000Y-149270000D03*
%TD*%
D12*
%TO.C,C102*%
X83437500Y-73500000D03*
X86562500Y-73500000D03*
%TD*%
D13*
%TO.C,R70*%
X206000000Y-131600000D03*
X206000000Y-128500000D03*
%TD*%
D17*
%TO.C,C82*%
X100000000Y-57375000D03*
X100000000Y-60500000D03*
%TD*%
D11*
%TO.C,R78*%
X110500000Y-63450000D03*
X110500000Y-66550000D03*
%TD*%
D10*
%TO.C,C99*%
X86562500Y-69000000D03*
X83437500Y-69000000D03*
%TD*%
D18*
%TO.C,R73*%
X131474000Y-141730000D03*
X128374000Y-141730000D03*
%TD*%
D10*
%TO.C,C104*%
X93562500Y-81500000D03*
X90437500Y-81500000D03*
%TD*%
D15*
%TO.C,C110*%
X115000000Y-55812500D03*
X115000000Y-52687500D03*
%TD*%
D10*
%TO.C,C80*%
X132986500Y-152730000D03*
X129861500Y-152730000D03*
%TD*%
D12*
%TO.C,C115*%
X108000000Y-82000000D03*
X111125000Y-82000000D03*
%TD*%
D20*
%TO.C,R76*%
X143924000Y-142730000D03*
X147024000Y-142730000D03*
%TD*%
D12*
%TO.C,C106*%
X89437500Y-65500000D03*
X92562500Y-65500000D03*
%TD*%
%TO.C,C71*%
X73500000Y-92000000D03*
X76625000Y-92000000D03*
%TD*%
D16*
%TO.C,LED3*%
X56580000Y-30450000D03*
X56580000Y-33450000D03*
%TD*%
D15*
%TO.C,C88*%
X99000000Y-89062500D03*
X99000000Y-85937500D03*
%TD*%
D17*
%TO.C,C67*%
X115500000Y-159437500D03*
X115500000Y-162562500D03*
%TD*%
D12*
%TO.C,C90*%
X103437500Y-136500000D03*
X106562500Y-136500000D03*
%TD*%
%TO.C,C74*%
X198937500Y-135500000D03*
X202062500Y-135500000D03*
%TD*%
D22*
%TO.C,IC2*%
X104500000Y-71962000D03*
X104000000Y-71962000D03*
X103500000Y-71962000D03*
X103000000Y-71962000D03*
X102500000Y-71962000D03*
X102000000Y-71962000D03*
X101500000Y-71962000D03*
X101000000Y-71962000D03*
X100500000Y-71962000D03*
X100000000Y-71962000D03*
X99500000Y-71962000D03*
X99000000Y-71962000D03*
X98500000Y-71962000D03*
X98000000Y-71962000D03*
X97500000Y-71962000D03*
X97000000Y-71962000D03*
X96500000Y-71962000D03*
X96000000Y-71962000D03*
X95500000Y-71962000D03*
X95500000Y-78038000D03*
X96000000Y-78038000D03*
X96500000Y-78038000D03*
X97000000Y-78038000D03*
X97500000Y-78038000D03*
X98000000Y-78038000D03*
X98500000Y-78038000D03*
X99000000Y-78038000D03*
X99500000Y-78038000D03*
X100000000Y-78038000D03*
X100500000Y-78038000D03*
X101000000Y-78038000D03*
X101500000Y-78038000D03*
X102000000Y-78038000D03*
X102500000Y-78038000D03*
X103000000Y-78038000D03*
X103500000Y-78038000D03*
X104000000Y-78038000D03*
X104500000Y-78038000D03*
%TD*%
D13*
%TO.C,R63*%
X51080000Y-40000000D03*
X51080000Y-36900000D03*
%TD*%
D12*
%TO.C,C70*%
X73500000Y-87000000D03*
X76625000Y-87000000D03*
%TD*%
D16*
%TO.C,LED4*%
X61580000Y-30400000D03*
X61580000Y-33400000D03*
%TD*%
D19*
%TO.C,IC4*%
X192288000Y-138150000D03*
X192288000Y-139420000D03*
X192288000Y-140690000D03*
X192288000Y-141960000D03*
X192288000Y-143230000D03*
X192288000Y-144500000D03*
X192288000Y-145770000D03*
X197712000Y-145770000D03*
X197712000Y-144500000D03*
X197712000Y-143230000D03*
X197712000Y-141960000D03*
X197712000Y-140690000D03*
X197712000Y-139420000D03*
X197712000Y-138150000D03*
%TD*%
D12*
%TO.C,C101*%
X83437500Y-77000000D03*
X86562500Y-77000000D03*
%TD*%
D13*
%TO.C,R64*%
X56790000Y-40050000D03*
X56790000Y-36950000D03*
%TD*%
%TO.C,R71*%
X131000000Y-120050000D03*
X131000000Y-116950000D03*
%TD*%
D15*
%TO.C,C94*%
X76000000Y-158562500D03*
X76000000Y-155437500D03*
%TD*%
D11*
%TO.C,R72*%
X125000000Y-116950000D03*
X125000000Y-120050000D03*
%TD*%
D12*
%TO.C,C76*%
X197437500Y-118000000D03*
X200562500Y-118000000D03*
%TD*%
%TO.C,C116*%
X108000000Y-78500000D03*
X111125000Y-78500000D03*
%TD*%
D13*
%TO.C,R65*%
X61500000Y-40000000D03*
X61500000Y-36900000D03*
%TD*%
D20*
%TO.C,R60*%
X61950000Y-142500000D03*
X65050000Y-142500000D03*
%TD*%
D10*
%TO.C,C78*%
X133062500Y-131000000D03*
X129937500Y-131000000D03*
%TD*%
D15*
%TO.C,C81*%
X102000000Y-66562500D03*
X102000000Y-63437500D03*
%TD*%
D10*
%TO.C,C75*%
X190062500Y-118000000D03*
X186937500Y-118000000D03*
%TD*%
D15*
%TO.C,C92*%
X81000000Y-151562500D03*
X81000000Y-148437500D03*
%TD*%
D23*
%TO.C,IC6*%
X110075000Y-146438000D03*
X110725000Y-146438000D03*
X111375000Y-146438000D03*
X112025000Y-146438000D03*
X112675000Y-146438000D03*
X113325000Y-146438000D03*
X113975000Y-146438000D03*
X114625000Y-146438000D03*
X115275000Y-146438000D03*
X115925000Y-146438000D03*
X115925000Y-140562000D03*
X115275000Y-140562000D03*
X114625000Y-140562000D03*
X113975000Y-140562000D03*
X113325000Y-140562000D03*
X112675000Y-140562000D03*
X112025000Y-140562000D03*
X111375000Y-140562000D03*
X110725000Y-140562000D03*
X110075000Y-140562000D03*
%TD*%
D19*
%TO.C,IC7*%
X139212000Y-128310000D03*
X139212000Y-127040000D03*
X139212000Y-125770000D03*
X139212000Y-124500000D03*
X139212000Y-123230000D03*
X139212000Y-121960000D03*
X139212000Y-120690000D03*
X133788000Y-120690000D03*
X133788000Y-121960000D03*
X133788000Y-123230000D03*
X133788000Y-124500000D03*
X133788000Y-125770000D03*
X133788000Y-127040000D03*
X133788000Y-128310000D03*
%TD*%
D10*
%TO.C,C95*%
X61562500Y-156500000D03*
X58437500Y-156500000D03*
%TD*%
M02*
