M48
; DRILL file {KiCad 9.0.0} date 2025-04-28T14:03:05-0700
; FORMAT={-:-/ absolute / metric / decimal}
; #@! TF.CreationDate,2025-04-28T14:03:05-07:00
; #@! TF.GenerationSoftware,Kicad,Pcbnew,9.0.0
; #@! TF.FileFunction,Plated,1,4,PTH
FMAT,2
METRIC
; #@! TA.AperFunction,Plated,PTH,ViaDrill
T1C0.300
; #@! TA.AperFunction,Plated,PTH,ViaDrill
T2C0.500
; #@! TA.AperFunction,Plated,PTH,ComponentDrill
T3C0.800
; #@! TA.AperFunction,Plated,PTH,ComponentDrill
T4C1.000
; #@! TA.AperFunction,Plated,PTH,ComponentDrill
T5C1.020
; #@! TA.AperFunction,Plated,PTH,ComponentDrill
T6C1.050
; #@! TA.AperFunction,Plated,PTH,ComponentDrill
T7C1.100
; #@! TA.AperFunction,Plated,PTH,ComponentDrill
T8C1.110
; #@! TA.AperFunction,Plated,PTH,ComponentDrill
T9C1.150
; #@! TA.AperFunction,Plated,PTH,ComponentDrill
T10C1.300
; #@! TA.AperFunction,Plated,PTH,ComponentDrill
T11C1.500
; #@! TA.AperFunction,Plated,PTH,ComponentDrill
T12C3.100
; #@! TA.AperFunction,Plated,PTH,ComponentDrill
T13C3.200
; #@! TA.AperFunction,Plated,PTH,ComponentDrill
T14C5.300
%
G90
G05
T1
X30.0Y-55.5
X30.0Y-94.5
X30.0Y-134.5
X31.5Y-59.5
X31.5Y-99.0
X31.5Y-119.0
X31.5Y-138.5
X33.0Y-62.0
X33.0Y-101.5
X33.0Y-121.0
X33.0Y-141.0
X35.0Y-65.0
X35.0Y-104.0
X35.0Y-122.5
X35.0Y-144.0
X44.5Y-124.0
X44.5Y-131.0
X46.0Y-44.0
X50.0Y-124.5
X50.0Y-132.5
X50.5Y-100.0
X50.5Y-112.5
X50.5Y-135.0
X51.0Y-44.0
X51.0Y-125.5
X51.45Y-140.05
X51.5Y-95.0
X51.5Y-113.5
X52.0Y-126.5
X52.5Y-92.0
X52.5Y-114.5
X53.5Y-61.0
X53.5Y-115.5
X54.5Y-56.0
X54.5Y-116.5
X55.5Y-53.0
X55.5Y-117.5
X56.0Y-46.0
X57.0Y-44.0
X57.0Y-58.5
X58.0Y-46.0
X59.0Y-154.0
X61.5Y-42.0
X65.0Y-160.0
X66.0Y-144.0
X72.0Y-51.5
X72.0Y-64.5
X72.0Y-77.5
X72.0Y-90.5
X72.0Y-98.0
X72.0Y-103.5
X72.0Y-110.5
X73.5Y-84.5
X74.0Y-102.5
X77.5Y-61.0
X77.5Y-147.5
X81.0Y-59.5
X83.5Y-82.5
X85.0Y-52.5
X85.0Y-81.5
X86.5Y-59.5
X89.0Y-60.25
X89.0Y-75.5
X90.0Y-45.0
X94.0Y-69.5
X94.5Y-105.0
X96.0Y-43.0
X96.0Y-61.0
X96.0Y-69.5
X96.0Y-81.5
X97.0Y-59.5
X97.0Y-69.975
X97.0Y-82.5
X97.5Y-145.843
X97.899Y-56.5
X98.0Y-69.975
X98.0Y-81.5
X98.5Y-67.0
X98.975Y-70.0
X99.0Y-75.5
X99.0Y-81.0
X99.0Y-84.5
X99.375Y-68.0
X99.5Y-122.5
X99.5Y-161.5
X100.0Y-62.0
X101.5Y-69.4
X101.5Y-121.0
X101.5Y-159.0
X102.5Y-69.0
X103.25Y-84.0
X103.486Y-119.0
X103.5Y-65.5
X103.5Y-156.5
X104.0Y-83.45
X104.5Y-82.5
X105.5Y-81.5
X106.562Y-138.5
X107.0Y-86.0
X107.0Y-99.0
X107.0Y-146.0
X108.281Y-134.781
X110.0Y-64.5
X111.0Y-70.0
X111.08Y-57.25
X113.5Y-63.5
X113.5Y-134.5
X114.5Y-83.5
X114.5Y-135.5
X115.5Y-72.0
X115.5Y-136.5
X116.5Y-83.0
X116.5Y-137.5
X117.5Y-82.5
X117.5Y-111.5
X117.5Y-138.5
X118.5Y-103.5
X118.5Y-123.5
X118.5Y-146.73
X119.5Y-115.0
X119.5Y-124.5
X119.5Y-125.5
X120.0Y-148.0
X120.0Y-149.0
X121.5Y-104.5
X121.5Y-116.5
X121.5Y-124.5
X121.5Y-126.5
X121.5Y-130.0
X122.5Y-108.5
X122.5Y-113.5
X122.5Y-123.0
X124.5Y-109.5
X124.5Y-112.5
X124.5Y-127.5
X126.5Y-111.5
X126.5Y-113.5
X126.5Y-142.0
X129.0Y-96.0
X129.0Y-101.5
X129.0Y-128.5
X129.0Y-150.5
X143.0Y-116.5
X143.0Y-133.5
X143.0Y-140.5
X143.0Y-155.5
X150.0Y-142.5
X150.0Y-149.5
X150.5Y-123.5
X150.5Y-137.5
X151.0Y-150.0
X151.075Y-131.5
X152.0Y-124.5
X152.0Y-135.0
X153.5Y-126.0
X153.5Y-132.5
X153.5Y-138.5
X153.5Y-155.5
X154.0Y-135.535
X155.0Y-127.5
X155.0Y-129.88
X156.0Y-119.5
X156.0Y-124.5
X159.5Y-118.5
X182.5Y-113.5
X182.5Y-125.0
X183.0Y-157.5
X183.0Y-163.0
X184.0Y-119.5
X184.0Y-125.5
X184.5Y-158.5
X184.5Y-160.36
X185.0Y-118.5
X185.0Y-124.5
X186.0Y-122.0
X186.0Y-129.5
X186.5Y-139.5
X186.5Y-150.0
X186.5Y-156.5
X186.5Y-161.0
X188.0Y-141.0
X188.0Y-147.5
X188.5Y-156.0
X188.5Y-161.0
X189.5Y-142.0
X189.5Y-145.0
X193.5Y-96.0
X193.5Y-101.5
X193.5Y-119.0
X193.5Y-135.5
X193.5Y-151.0
X197.0Y-116.151
X197.0Y-132.0
X197.0Y-134.0
X197.0Y-150.0
X197.0Y-152.5
X197.0Y-166.5
X199.5Y-122.0
X200.424Y-114.424
X200.5Y-140.5
X200.5Y-157.0
X201.0Y-107.5
X201.0Y-142.0
X202.0Y-106.5
X202.0Y-139.0
X202.0Y-158.5
X203.0Y-78.88
X203.0Y-115.0
X203.0Y-143.0
X203.5Y-159.5
X204.0Y-117.5
X204.5Y-161.0
X205.5Y-105.5
X205.5Y-115.5
X205.5Y-125.5
X206.5Y-124.5
X207.5Y-110.5
X207.5Y-123.0
X207.5Y-133.5
X207.5Y-142.5
X210.0Y-140.0
X210.0Y-149.0
X251.0Y-103.5
X251.0Y-109.5
X252.0Y-108.5
X252.5Y-101.0
X253.0Y-107.5
X253.5Y-122.0
X253.5Y-143.5
X254.0Y-66.5
X254.0Y-106.5
X255.0Y-65.0
X255.0Y-105.5
X255.0Y-142.5
X256.0Y-62.5
X256.0Y-104.5
X256.0Y-140.0
X257.5Y-68.041
X257.5Y-103.0
X257.5Y-106.5
X257.5Y-145.5
X266.5Y-58.5
X266.5Y-97.5
X266.5Y-136.5
X266.5Y-159.5
X267.5Y-61.0
X267.5Y-100.0
X267.5Y-139.0
X267.5Y-158.5
X268.5Y-63.5
X268.5Y-102.5
X268.5Y-142.0
X268.5Y-157.0
T2
X26.0Y-26.0
X26.0Y-27.0
X26.0Y-28.0
X26.0Y-29.0
X26.0Y-30.0
X26.0Y-31.0
X26.0Y-32.0
X26.0Y-33.0
X26.0Y-34.0
X26.0Y-35.0
X26.0Y-36.0
X26.0Y-37.0
X26.0Y-38.0
X26.0Y-39.0
X26.0Y-40.0
X26.0Y-41.0
X26.0Y-42.0
X26.0Y-43.0
X26.0Y-44.0
X26.0Y-45.0
X26.0Y-46.0
X26.0Y-47.0
X26.0Y-48.0
X26.0Y-49.0
X26.0Y-50.0
X26.0Y-51.0
X26.0Y-52.0
X26.0Y-53.0
X26.0Y-54.0
X26.0Y-55.0
X26.0Y-56.0
X26.0Y-57.0
X26.0Y-58.0
X26.0Y-59.0
X26.0Y-60.0
X26.0Y-61.0
X26.0Y-62.0
X26.0Y-63.0
X26.0Y-64.0
X26.0Y-65.0
X26.0Y-66.0
X26.0Y-67.0
X26.0Y-68.0
X26.0Y-69.0
X26.0Y-70.0
X26.0Y-71.0
X26.0Y-72.0
X26.0Y-73.0
X26.0Y-74.0
X26.0Y-75.0
X26.0Y-76.0
X26.0Y-77.0
X26.0Y-78.0
X26.0Y-79.0
X26.0Y-80.0
X26.0Y-81.0
X26.0Y-82.0
X26.0Y-83.0
X26.0Y-84.0
X26.0Y-85.0
X26.0Y-86.0
X26.0Y-87.0
X26.0Y-88.0
X26.0Y-89.0
X26.0Y-90.0
X26.0Y-91.0
X26.0Y-92.0
X26.0Y-93.0
X26.0Y-94.0
X26.0Y-95.0
X26.0Y-96.0
X26.0Y-97.0
X26.0Y-98.0
X26.0Y-99.0
X26.0Y-100.0
X26.0Y-101.0
X26.0Y-102.0
X26.0Y-103.0
X26.0Y-104.0
X26.0Y-105.0
X26.0Y-106.0
X26.0Y-107.0
X26.0Y-108.0
X26.0Y-109.0
X26.0Y-110.0
X26.0Y-111.0
X26.0Y-112.0
X26.0Y-113.0
X26.0Y-114.0
X26.0Y-115.0
X26.0Y-116.0
X26.0Y-117.0
X26.0Y-118.0
X26.0Y-119.0
X26.0Y-120.0
X26.0Y-121.0
X26.0Y-122.0
X26.0Y-123.0
X26.0Y-124.0
X26.0Y-125.0
X26.0Y-126.0
X26.0Y-127.0
X26.0Y-128.0
X26.0Y-129.0
X26.0Y-130.0
X26.0Y-131.0
X26.0Y-132.0
X26.0Y-133.0
X26.0Y-134.0
X26.0Y-135.0
X26.0Y-136.0
X26.0Y-137.0
X26.0Y-138.0
X26.0Y-139.0
X26.0Y-140.0
X26.0Y-141.0
X26.0Y-142.0
X26.0Y-143.0
X26.0Y-144.0
X26.0Y-145.0
X26.0Y-146.0
X26.0Y-147.0
X26.0Y-148.0
X26.0Y-149.0
X26.0Y-150.0
X26.0Y-151.0
X26.0Y-152.0
X26.0Y-153.0
X26.0Y-154.0
X26.0Y-155.0
X26.0Y-156.0
X26.0Y-157.0
X26.0Y-158.0
X26.0Y-159.0
X26.0Y-160.0
X26.0Y-161.0
X26.0Y-162.0
X26.0Y-163.0
X26.0Y-164.0
X26.0Y-165.0
X26.0Y-166.0
X26.0Y-167.0
X26.0Y-168.0
X26.0Y-169.0
X26.0Y-170.0
X26.0Y-171.0
X26.0Y-172.0
X26.0Y-173.0
X26.0Y-174.0
X27.0Y-26.0
X27.0Y-174.0
X28.0Y-26.0
X28.0Y-174.0
X29.0Y-26.0
X29.0Y-174.0
X30.0Y-26.0
X30.0Y-140.0
X30.0Y-145.0
X30.0Y-155.0
X30.0Y-160.0
X30.0Y-170.0
X30.0Y-174.0
X31.0Y-26.0
X31.0Y-174.0
X32.0Y-26.0
X32.0Y-174.0
X33.0Y-26.0
X33.0Y-174.0
X34.0Y-26.0
X34.0Y-174.0
X35.0Y-26.0
X35.0Y-155.0
X35.0Y-174.0
X36.0Y-26.0
X36.0Y-174.0
X37.0Y-26.0
X37.0Y-174.0
X38.0Y-26.0
X38.0Y-174.0
X39.0Y-26.0
X39.0Y-174.0
X39.822Y-170.0
X40.0Y-26.0
X40.0Y-80.0
X40.0Y-120.0
X40.0Y-160.0
X40.0Y-174.0
X41.0Y-26.0
X41.0Y-174.0
X42.0Y-26.0
X42.0Y-174.0
X43.0Y-26.0
X43.0Y-174.0
X44.0Y-26.0
X44.0Y-174.0
X44.914Y-64.856
X45.0Y-26.0
X45.0Y-50.0
X45.0Y-70.0
X45.0Y-75.0
X45.0Y-80.0
X45.0Y-85.0
X45.0Y-105.0
X45.0Y-110.0
X45.0Y-115.0
X45.0Y-120.0
X45.0Y-145.0
X45.0Y-150.0
X45.0Y-155.0
X45.0Y-160.0
X45.0Y-170.0
X45.0Y-174.0
X46.0Y-26.0
X46.0Y-174.0
X47.0Y-26.0
X47.0Y-155.0
X47.0Y-156.0
X47.0Y-157.0
X47.0Y-158.0
X47.0Y-159.0
X47.0Y-160.0
X47.0Y-161.0
X47.0Y-162.0
X47.0Y-163.0
X47.0Y-164.0
X47.0Y-165.0
X47.0Y-166.0
X47.0Y-167.0
X47.0Y-168.0
X47.0Y-169.0
X47.0Y-170.0
X47.0Y-171.0
X47.0Y-172.0
X47.0Y-173.0
X47.0Y-174.0
X48.0Y-26.0
X48.0Y-154.0
X49.0Y-26.0
X49.0Y-153.0
X50.0Y-26.0
X50.0Y-35.0
X50.0Y-50.0
X50.0Y-65.0
X50.0Y-70.0
X50.0Y-80.0
X50.0Y-85.0
X50.0Y-115.0
X50.0Y-120.0
X50.0Y-145.0
X50.0Y-150.0
X50.0Y-152.0
X50.021Y-75.761
X51.0Y-26.0
X51.0Y-151.0
X51.989Y-144.005
X52.0Y-26.0
X52.0Y-142.0
X52.0Y-143.0
X52.0Y-145.0
X52.0Y-146.0
X52.0Y-147.0
X52.0Y-148.0
X52.0Y-149.0
X52.0Y-150.0
X52.973Y-158.0
X52.997Y-160.042
X53.0Y-26.0
X53.0Y-136.0
X53.0Y-159.0
X53.0Y-161.0
X53.0Y-162.0
X53.0Y-163.0
X53.0Y-164.0
X53.0Y-165.0
X53.0Y-166.0
X53.0Y-167.0
X53.0Y-168.0
X53.0Y-169.0
X53.0Y-170.0
X53.0Y-171.0
X53.0Y-172.0
X53.0Y-173.0
X53.0Y-174.0
X54.0Y-26.0
X54.0Y-135.0
X54.0Y-157.0
X54.0Y-174.0
X54.942Y-156.038
X54.999Y-173.996
X55.0Y-26.0
X55.0Y-35.0
X55.0Y-50.0
X55.0Y-130.0
X55.0Y-134.0
X55.0Y-160.0
X55.0Y-170.0
X55.118Y-120.002
X55.947Y-155.058
X56.0Y-26.0
X56.0Y-133.0
X56.0Y-174.0
X56.992Y-154.013
X57.0Y-26.0
X57.0Y-132.0
X57.0Y-174.0
X57.962Y-145.122
X57.976Y-147.989
X57.99Y-144.075
X58.0Y-26.0
X58.0Y-140.0
X58.0Y-141.0
X58.0Y-142.0
X58.0Y-143.0
X58.0Y-146.0
X58.0Y-147.0
X58.0Y-149.0
X58.0Y-150.0
X58.0Y-151.0
X58.0Y-152.0
X58.0Y-153.0
X58.0Y-174.0
X58.007Y-130.959
X58.999Y-173.996
X59.0Y-26.0
X59.0Y-130.0
X59.0Y-139.0
X59.987Y-119.968
X60.0Y-64.856
X60.0Y-26.0
X60.0Y-35.0
X60.0Y-45.0
X60.0Y-50.0
X60.0Y-55.0
X60.0Y-60.0
X60.0Y-70.0
X60.0Y-75.0
X60.0Y-80.0
X60.0Y-85.0
X60.0Y-90.0
X60.0Y-95.0
X60.0Y-100.0
X60.0Y-105.0
X60.0Y-110.0
X60.0Y-129.0
X60.0Y-138.0
X60.0Y-140.0
X60.0Y-145.0
X60.0Y-150.0
X60.0Y-160.0
X60.0Y-170.0
X60.0Y-174.0
X61.0Y-26.0
X61.0Y-128.0
X61.0Y-137.0
X61.0Y-174.0
X62.0Y-26.0
X62.0Y-136.0
X62.0Y-174.0
X62.999Y-173.996
X63.0Y-26.0
X63.0Y-135.0
X64.0Y-26.0
X64.0Y-134.0
X64.0Y-174.0
X64.98Y-134.995
X65.0Y-26.0
X65.0Y-35.0
X65.0Y-40.0
X65.0Y-45.0
X65.0Y-133.0
X65.0Y-140.0
X65.0Y-170.0
X65.0Y-174.0
X66.0Y-26.0
X66.0Y-133.0
X66.0Y-174.0
X66.999Y-132.996
X66.999Y-173.996
X67.0Y-26.0
X68.0Y-26.0
X68.0Y-133.0
X68.0Y-174.0
X69.0Y-26.0
X69.0Y-133.0
X69.0Y-174.0
X69.941Y-134.995
X70.0Y-26.0
X70.0Y-35.0
X70.0Y-133.0
X70.0Y-140.0
X70.0Y-145.0
X70.0Y-150.0
X70.0Y-155.0
X70.0Y-165.0
X70.0Y-170.0
X70.0Y-174.0
X70.041Y-45.0
X70.999Y-132.996
X70.999Y-173.996
X71.0Y-26.0
X72.0Y-26.0
X72.0Y-133.0
X72.0Y-174.0
X73.0Y-26.0
X73.0Y-133.0
X73.0Y-174.0
X74.0Y-26.0
X74.0Y-133.0
X74.0Y-174.0
X74.903Y-44.98
X74.999Y-132.996
X74.999Y-173.996
X75.0Y-26.0
X75.0Y-35.0
X75.0Y-135.0
X75.0Y-140.0
X75.0Y-170.0
X76.0Y-26.0
X76.0Y-133.0
X76.0Y-174.0
X77.0Y-26.0
X77.0Y-174.0
X78.0Y-26.0
X78.0Y-174.0
X78.999Y-173.996
X79.0Y-26.0
X80.0Y-26.0
X80.0Y-65.0
X80.0Y-70.0
X80.0Y-75.0
X80.0Y-80.0
X80.0Y-85.0
X80.0Y-90.0
X80.0Y-95.0
X80.0Y-100.0
X80.0Y-140.0
X80.0Y-155.0
X80.0Y-160.0
X80.0Y-170.0
X80.0Y-174.0
X81.0Y-26.0
X81.0Y-174.0
X82.0Y-26.0
X82.0Y-174.0
X82.999Y-173.996
X83.0Y-26.0
X83.996Y-135.001
X83.996Y-139.001
X83.996Y-143.001
X83.996Y-147.001
X83.996Y-151.001
X83.996Y-159.001
X83.996Y-163.001
X83.996Y-167.001
X83.996Y-171.001
X84.0Y-26.0
X84.0Y-136.0
X84.0Y-137.0
X84.0Y-138.0
X84.0Y-140.0
X84.0Y-141.0
X84.0Y-142.0
X84.0Y-144.0
X84.0Y-145.0
X84.0Y-146.0
X84.0Y-148.0
X84.0Y-149.0
X84.0Y-150.0
X84.0Y-152.0
X84.0Y-153.0
X84.0Y-154.0
X84.0Y-155.0
X84.0Y-157.0
X84.0Y-158.0
X84.0Y-160.0
X84.0Y-161.0
X84.0Y-162.0
X84.0Y-168.0
X84.0Y-169.0
X84.0Y-170.0
X84.0Y-172.0
X84.0Y-173.0
X84.0Y-174.0
X84.004Y-155.999
X85.0Y-26.0
X85.0Y-85.0
X85.0Y-90.0
X85.0Y-95.0
X85.0Y-100.0
X86.0Y-26.0
X87.0Y-26.0
X88.0Y-26.0
X89.0Y-26.0
X90.0Y-26.0
X90.0Y-90.0
X90.0Y-95.0
X90.0Y-100.0
X91.0Y-26.0
X91.0Y-128.0
X91.0Y-129.0
X91.0Y-130.0
X91.0Y-131.0
X91.0Y-132.0
X91.0Y-136.0
X91.0Y-137.0
X91.0Y-138.0
X91.0Y-139.0
X91.0Y-140.0
X91.0Y-141.0
X91.0Y-148.0
X91.0Y-149.0
X91.0Y-150.0
X91.0Y-151.0
X91.0Y-152.0
X91.0Y-153.0
X91.0Y-154.0
X91.0Y-155.0
X91.0Y-156.0
X91.0Y-157.0
X91.0Y-158.0
X91.0Y-159.0
X91.0Y-160.0
X91.0Y-161.0
X91.0Y-162.0
X91.0Y-163.0
X91.0Y-164.0
X91.0Y-165.0
X91.0Y-166.0
X91.0Y-167.0
X91.0Y-168.0
X91.0Y-169.0
X91.0Y-170.0
X91.0Y-171.0
X91.0Y-172.0
X91.0Y-173.0
X91.0Y-174.0
X92.0Y-26.0
X92.0Y-174.0
X93.0Y-26.0
X93.0Y-174.0
X94.0Y-26.0
X94.0Y-174.0
X94.982Y-170.242
X95.0Y-26.0
X95.0Y-85.0
X95.0Y-90.0
X95.0Y-95.0
X95.0Y-140.0
X95.0Y-155.0
X95.0Y-160.0
X95.0Y-165.0
X95.0Y-174.0
X96.0Y-26.0
X96.0Y-174.0
X97.0Y-26.0
X97.0Y-174.0
X98.0Y-26.0
X98.0Y-174.0
X99.0Y-26.0
X99.0Y-174.0
X100.0Y-26.0
X100.0Y-105.0
X100.0Y-165.0
X100.0Y-170.0
X100.0Y-174.0
X101.0Y-26.0
X101.0Y-174.0
X102.0Y-26.0
X102.0Y-174.0
X103.0Y-26.0
X103.0Y-174.0
X104.0Y-26.0
X104.0Y-174.0
X105.0Y-26.0
X105.0Y-165.0
X105.0Y-170.0
X105.0Y-174.0
X106.0Y-26.0
X106.0Y-174.0
X107.0Y-26.0
X107.0Y-174.0
X108.0Y-26.0
X108.0Y-174.0
X109.0Y-26.0
X109.0Y-174.0
X110.0Y-26.0
X110.0Y-75.0
X110.0Y-80.0
X110.0Y-90.0
X110.0Y-105.0
X110.0Y-120.0
X110.0Y-130.0
X110.0Y-150.0
X110.0Y-165.0
X110.0Y-170.0
X110.0Y-174.0
X111.0Y-26.0
X111.0Y-174.0
X112.0Y-26.0
X112.0Y-174.0
X113.0Y-26.0
X113.0Y-174.0
X114.0Y-26.0
X114.0Y-174.0
X115.0Y-26.0
X115.0Y-45.0
X115.0Y-50.0
X115.0Y-60.0
X115.0Y-165.0
X115.0Y-170.0
X115.0Y-174.0
X116.0Y-26.0
X116.0Y-174.0
X117.0Y-26.0
X117.0Y-174.0
X118.0Y-26.0
X118.0Y-174.0
X119.0Y-26.0
X119.0Y-174.0
X119.807Y-155.0
X119.918Y-170.077
X119.983Y-79.899
X120.0Y-26.0
X120.0Y-45.0
X120.0Y-60.0
X120.0Y-65.0
X120.0Y-70.0
X120.0Y-75.0
X120.0Y-85.0
X120.0Y-90.0
X120.0Y-160.0
X120.0Y-174.0
X120.017Y-49.964
X120.123Y-165.016
X121.0Y-26.0
X121.0Y-174.0
X122.0Y-26.0
X122.0Y-174.0
X123.0Y-26.0
X123.0Y-174.0
X124.0Y-26.0
X124.0Y-174.0
X124.856Y-154.976
X125.0Y-26.0
X125.0Y-145.0
X125.0Y-160.0
X125.0Y-165.0
X125.0Y-170.0
X125.0Y-174.0
X126.0Y-26.0
X126.0Y-174.0
X127.0Y-26.0
X127.0Y-174.0
X128.0Y-26.0
X128.0Y-174.0
X129.0Y-26.0
X129.0Y-174.0
X130.0Y-26.0
X130.0Y-155.0
X130.0Y-160.0
X130.0Y-165.0
X130.0Y-170.0
X130.0Y-174.0
X131.0Y-26.0
X131.0Y-174.0
X132.0Y-26.0
X132.0Y-174.0
X133.0Y-26.0
X133.0Y-174.0
X134.0Y-26.0
X134.0Y-174.0
X135.0Y-26.0
X135.0Y-155.0
X135.0Y-160.0
X135.0Y-165.0
X135.0Y-170.0
X135.0Y-174.0
X135.5Y-131.0
X136.0Y-26.0
X136.0Y-174.0
X137.0Y-26.0
X137.0Y-174.0
X138.0Y-26.0
X138.0Y-174.0
X139.0Y-26.0
X139.0Y-174.0
X140.0Y-26.0
X140.0Y-155.0
X140.0Y-165.0
X140.0Y-170.0
X140.0Y-174.0
X140.122Y-159.954
X141.0Y-26.0
X141.0Y-174.0
X142.0Y-26.0
X142.0Y-174.0
X143.0Y-26.0
X143.0Y-174.0
X144.0Y-26.0
X144.0Y-174.0
X144.977Y-169.995
X145.0Y-26.0
X145.0Y-165.0
X145.0Y-174.0
X146.0Y-26.0
X146.0Y-174.0
X147.0Y-26.0
X147.0Y-174.0
X148.0Y-26.0
X148.0Y-174.0
X149.0Y-26.0
X149.0Y-174.0
X150.0Y-26.0
X150.0Y-165.0
X150.0Y-170.0
X150.0Y-174.0
X151.0Y-26.0
X151.0Y-174.0
X152.0Y-26.0
X152.0Y-174.0
X153.0Y-26.0
X153.0Y-174.0
X154.0Y-26.0
X154.0Y-174.0
X155.0Y-26.0
X155.0Y-140.0
X155.0Y-145.0
X155.0Y-165.0
X155.0Y-170.0
X155.0Y-174.0
X156.0Y-26.0
X156.0Y-174.0
X157.0Y-26.0
X157.0Y-174.0
X158.0Y-26.0
X158.0Y-174.0
X159.0Y-26.0
X159.0Y-174.0
X160.0Y-26.0
X160.0Y-174.0
X161.0Y-26.0
X161.0Y-174.0
X162.0Y-26.0
X162.0Y-174.0
X163.0Y-26.0
X163.0Y-174.0
X164.0Y-26.0
X164.0Y-174.0
X165.0Y-26.0
X165.0Y-174.0
X166.0Y-26.0
X166.0Y-174.0
X167.0Y-26.0
X167.0Y-174.0
X168.0Y-26.0
X168.0Y-174.0
X169.0Y-26.0
X169.0Y-174.0
X170.0Y-26.0
X170.0Y-174.0
X171.0Y-26.0
X171.0Y-174.0
X172.0Y-26.0
X172.0Y-174.0
X173.0Y-26.0
X173.0Y-174.0
X174.0Y-26.0
X174.0Y-174.0
X175.0Y-26.0
X175.0Y-174.0
X176.0Y-26.0
X176.0Y-174.0
X177.0Y-26.0
X177.0Y-174.0
X178.0Y-26.0
X178.0Y-174.0
X179.0Y-26.0
X179.0Y-174.0
X180.0Y-26.0
X180.0Y-174.0
X181.0Y-26.0
X181.0Y-174.0
X182.0Y-26.0
X182.0Y-174.0
X183.0Y-26.0
X183.0Y-174.0
X184.0Y-26.0
X184.0Y-174.0
X185.0Y-26.0
X185.0Y-135.0
X185.0Y-174.0
X186.0Y-26.0
X186.0Y-174.0
X187.0Y-26.0
X187.0Y-174.0
X188.0Y-26.0
X188.0Y-174.0
X189.0Y-26.0
X189.0Y-174.0
X190.0Y-26.0
X190.0Y-165.0
X190.0Y-170.0
X190.0Y-174.0
X191.0Y-26.0
X191.0Y-174.0
X192.0Y-26.0
X192.0Y-174.0
X193.0Y-26.0
X193.0Y-174.0
X194.0Y-26.0
X194.0Y-174.0
X195.0Y-26.0
X195.0Y-170.0
X195.0Y-174.0
X196.0Y-26.0
X196.0Y-174.0
X197.0Y-26.0
X197.0Y-174.0
X198.0Y-26.0
X198.0Y-174.0
X199.0Y-26.0
X199.0Y-174.0
X200.0Y-26.0
X200.0Y-170.0
X200.0Y-174.0
X201.0Y-26.0
X201.0Y-174.0
X202.0Y-26.0
X202.0Y-174.0
X203.0Y-26.0
X203.0Y-174.0
X204.0Y-26.0
X204.0Y-174.0
X205.0Y-26.0
X205.0Y-140.0
X205.0Y-170.102
X205.0Y-174.0
X206.0Y-26.0
X206.0Y-174.0
X207.0Y-26.0
X207.0Y-174.0
X208.0Y-26.0
X208.0Y-174.0
X209.0Y-26.0
X209.0Y-174.0
X209.796Y-154.964
X209.961Y-169.978
X210.0Y-26.0
X210.0Y-115.0
X210.0Y-120.0
X210.0Y-125.0
X210.0Y-130.0
X210.0Y-135.0
X210.0Y-165.0
X210.0Y-174.0
X211.0Y-26.0
X211.0Y-174.0
X212.0Y-26.0
X212.0Y-174.0
X213.0Y-26.0
X213.0Y-174.0
X214.0Y-26.0
X214.0Y-174.0
X215.0Y-26.0
X215.0Y-145.0
X215.0Y-150.0
X215.0Y-155.0
X215.0Y-170.019
X215.0Y-174.0
X215.145Y-165.164
X216.0Y-26.0
X216.0Y-174.0
X217.0Y-26.0
X217.0Y-174.0
X218.0Y-26.0
X218.0Y-174.0
X219.0Y-26.0
X219.0Y-174.0
X219.836Y-169.978
X220.0Y-26.0
X220.0Y-95.0
X220.0Y-100.0
X220.0Y-150.0
X220.0Y-155.0
X220.0Y-165.0
X220.0Y-174.0
X221.0Y-26.0
X221.0Y-174.0
X222.0Y-26.0
X222.0Y-174.0
X223.0Y-26.0
X223.0Y-174.0
X224.0Y-26.0
X224.0Y-174.0
X224.796Y-124.958
X224.98Y-164.999
X225.0Y-26.0
X225.0Y-95.0
X225.0Y-100.0
X225.0Y-115.0
X225.0Y-150.0
X225.0Y-155.0
X225.0Y-170.0
X225.0Y-174.0
X226.0Y-26.0
X226.0Y-174.0
X227.0Y-26.0
X227.0Y-174.0
X228.0Y-26.0
X228.0Y-174.0
X229.0Y-26.0
X229.0Y-174.0
X229.822Y-155.032
X230.0Y-26.0
X230.0Y-70.0
X230.0Y-75.0
X230.0Y-80.0
X230.0Y-85.0
X230.0Y-90.0
X230.0Y-95.0
X230.0Y-100.0
X230.0Y-115.0
X230.0Y-125.0
X230.0Y-130.0
X230.0Y-150.0
X230.0Y-165.0
X230.0Y-170.0
X230.0Y-174.0
X231.0Y-26.0
X231.0Y-174.0
X232.0Y-26.0
X232.0Y-174.0
X233.0Y-26.0
X233.0Y-174.0
X234.0Y-26.0
X234.0Y-174.0
X234.773Y-170.019
X235.0Y-26.0
X235.0Y-65.0
X235.0Y-70.002
X235.0Y-75.0
X235.0Y-80.0
X235.0Y-85.0
X235.0Y-90.0
X235.0Y-95.0
X235.0Y-100.0
X235.0Y-115.0
X235.0Y-125.0
X235.0Y-130.0
X235.0Y-135.0
X235.0Y-150.0
X235.0Y-155.0
X235.0Y-165.0
X235.0Y-174.0
X236.0Y-26.0
X236.0Y-174.0
X237.0Y-26.0
X237.0Y-174.0
X238.0Y-26.0
X238.0Y-174.0
X239.0Y-26.0
X239.0Y-174.0
X239.856Y-124.958
X239.98Y-114.959
X240.0Y-26.0
X240.0Y-60.0
X240.0Y-65.0
X240.0Y-70.0
X240.0Y-75.0
X240.0Y-80.0
X240.0Y-85.0
X240.0Y-90.0
X240.0Y-95.0
X240.0Y-100.0
X240.0Y-130.0
X240.0Y-135.0
X240.0Y-150.0
X240.0Y-155.0
X240.0Y-165.0
X240.0Y-170.0
X240.0Y-174.0
X241.0Y-26.0
X241.0Y-174.0
X242.0Y-26.0
X242.0Y-174.0
X243.0Y-26.0
X243.0Y-174.0
X244.0Y-26.0
X244.0Y-174.0
X245.0Y-26.0
X245.0Y-55.0
X245.0Y-60.0
X245.0Y-65.0
X245.0Y-70.0
X245.0Y-75.0
X245.0Y-80.0
X245.0Y-85.0
X245.0Y-90.0
X245.0Y-95.0
X245.0Y-100.0
X245.0Y-115.0
X245.0Y-125.0
X245.0Y-130.0
X245.0Y-145.0
X245.0Y-150.0
X245.0Y-155.0
X245.0Y-165.0
X245.0Y-170.0
X245.0Y-174.0
X246.0Y-26.0
X246.0Y-174.0
X247.0Y-26.0
X247.0Y-174.0
X248.0Y-26.0
X248.0Y-174.0
X249.0Y-26.0
X249.0Y-174.0
X249.959Y-39.994
X249.999Y-64.973
X250.0Y-26.0
X250.0Y-35.0
X250.0Y-45.0
X250.0Y-50.0
X250.0Y-55.0
X250.0Y-60.0
X250.0Y-70.0
X250.0Y-75.0
X250.0Y-80.0
X250.0Y-85.0
X250.0Y-90.0
X250.0Y-95.0
X250.0Y-100.0
X250.0Y-115.0
X250.0Y-125.0
X250.0Y-145.0
X250.0Y-150.0
X250.0Y-155.0
X250.0Y-165.0
X250.0Y-170.0
X250.0Y-174.0
X251.0Y-26.0
X251.0Y-174.0
X252.0Y-26.0
X252.0Y-174.0
X253.0Y-26.0
X253.0Y-174.0
X254.0Y-26.0
X254.0Y-174.0
X255.0Y-26.0
X255.0Y-35.0
X255.0Y-40.0
X255.0Y-45.0
X255.0Y-50.0
X255.0Y-55.013
X255.0Y-60.0
X255.0Y-115.0
X255.0Y-135.0
X255.0Y-150.0
X255.0Y-155.0
X255.0Y-165.0
X255.0Y-170.0
X255.0Y-174.0
X256.0Y-26.0
X256.0Y-174.0
X257.0Y-26.0
X257.0Y-174.0
X258.0Y-26.0
X258.0Y-174.0
X259.0Y-26.0
X259.0Y-174.0
X259.787Y-79.952
X259.972Y-44.966
X260.0Y-26.0
X260.0Y-40.0
X260.0Y-85.0
X260.0Y-170.0
X260.0Y-174.0
X261.0Y-26.0
X261.0Y-174.0
X262.0Y-26.0
X262.0Y-174.0
X263.0Y-26.0
X263.0Y-174.0
X264.0Y-26.0
X264.0Y-174.0
X264.979Y-44.966
X265.0Y-26.0
X265.0Y-50.0
X265.0Y-65.0
X265.0Y-70.0
X265.0Y-75.0
X265.0Y-80.0
X265.0Y-85.0
X265.0Y-105.0
X265.0Y-110.0
X265.0Y-115.0
X265.0Y-125.0
X265.0Y-174.0
X266.0Y-26.0
X266.0Y-174.0
X267.0Y-26.0
X267.0Y-174.0
X268.0Y-26.0
X268.0Y-174.0
X269.0Y-26.0
X269.0Y-174.0
X270.0Y-26.0
X270.0Y-40.0
X270.0Y-50.0
X270.0Y-135.0
X270.0Y-140.0
X270.0Y-145.0
X270.0Y-150.0
X270.0Y-155.0
X270.0Y-160.0
X270.0Y-170.0
X270.0Y-174.0
X270.019Y-44.966
X271.0Y-26.0
X271.0Y-174.0
X272.0Y-26.0
X272.0Y-174.0
X273.0Y-26.0
X273.0Y-174.0
X274.0Y-26.0
X274.0Y-27.0
X274.0Y-28.0
X274.0Y-29.0
X274.0Y-30.0
X274.0Y-31.0
X274.0Y-32.0
X274.0Y-33.0
X274.0Y-34.0
X274.0Y-35.0
X274.0Y-36.0
X274.0Y-37.0
X274.0Y-38.0
X274.0Y-39.0
X274.0Y-40.0
X274.0Y-41.0
X274.0Y-42.0
X274.0Y-43.0
X274.0Y-44.0
X274.0Y-45.0
X274.0Y-46.0
X274.0Y-47.0
X274.0Y-48.0
X274.0Y-49.0
X274.0Y-50.0
X274.0Y-51.0
X274.0Y-52.0
X274.0Y-53.0
X274.0Y-54.0
X274.0Y-55.0
X274.0Y-56.0
X274.0Y-57.0
X274.0Y-58.0
X274.0Y-59.0
X274.0Y-60.0
X274.0Y-61.0
X274.0Y-62.0
X274.0Y-63.0
X274.0Y-64.0
X274.0Y-65.0
X274.0Y-66.0
X274.0Y-67.0
X274.0Y-68.0
X274.0Y-69.0
X274.0Y-70.0
X274.0Y-71.0
X274.0Y-72.0
X274.0Y-73.0
X274.0Y-74.0
X274.0Y-75.0
X274.0Y-76.0
X274.0Y-77.0
X274.0Y-78.0
X274.0Y-79.0
X274.0Y-80.0
X274.0Y-81.0
X274.0Y-82.0
X274.0Y-83.0
X274.0Y-84.0
X274.0Y-85.0
X274.0Y-86.0
X274.0Y-87.0
X274.0Y-88.0
X274.0Y-89.0
X274.0Y-90.0
X274.0Y-91.0
X274.0Y-92.0
X274.0Y-93.0
X274.0Y-94.0
X274.0Y-95.0
X274.0Y-96.0
X274.0Y-97.0
X274.0Y-98.0
X274.0Y-99.0
X274.0Y-100.0
X274.0Y-101.0
X274.0Y-102.0
X274.0Y-103.0
X274.0Y-104.0
X274.0Y-105.0
X274.0Y-106.0
X274.0Y-107.0
X274.0Y-108.0
X274.0Y-109.0
X274.0Y-110.0
X274.0Y-111.0
X274.0Y-112.0
X274.0Y-113.0
X274.0Y-114.0
X274.0Y-115.0
X274.0Y-116.0
X274.0Y-117.0
X274.0Y-118.0
X274.0Y-119.0
X274.0Y-120.0
X274.0Y-121.0
X274.0Y-122.0
X274.0Y-123.0
X274.0Y-124.0
X274.0Y-125.0
X274.0Y-126.0
X274.0Y-127.0
X274.0Y-128.0
X274.0Y-129.0
X274.0Y-130.0
X274.0Y-131.0
X274.0Y-132.0
X274.0Y-133.0
X274.0Y-134.0
X274.0Y-135.0
X274.0Y-136.0
X274.0Y-137.0
X274.0Y-138.0
X274.0Y-139.0
X274.0Y-140.0
X274.0Y-141.0
X274.0Y-142.0
X274.0Y-143.0
X274.0Y-144.0
X274.0Y-145.0
X274.0Y-146.0
X274.0Y-147.0
X274.0Y-148.0
X274.0Y-149.0
X274.0Y-150.0
X274.0Y-151.0
X274.0Y-152.0
X274.0Y-153.0
X274.0Y-154.0
X274.0Y-155.0
X274.0Y-156.0
X274.0Y-157.0
X274.0Y-158.0
X274.0Y-159.0
X274.0Y-160.0
X274.0Y-161.0
X274.0Y-162.0
X274.0Y-163.0
X274.0Y-164.0
X274.0Y-165.0
X274.0Y-166.0
X274.0Y-167.0
X274.0Y-168.0
X274.0Y-169.0
X274.0Y-170.0
X274.0Y-171.0
X274.0Y-172.0
X274.0Y-173.0
X274.0Y-174.0
T3
X37.4Y-56.78
X37.4Y-59.52
X37.4Y-62.26
X37.4Y-65.0
X37.4Y-95.828
X37.4Y-98.569
X37.4Y-101.308
X37.4Y-104.048
X37.4Y-135.828
X37.4Y-138.569
X37.4Y-141.308
X37.4Y-144.048
X39.94Y-55.41
X39.94Y-58.15
X39.94Y-60.89
X39.94Y-63.63
X39.94Y-66.37
X39.94Y-94.459
X39.94Y-97.198
X39.94Y-99.938
X39.94Y-102.678
X39.94Y-105.418
X39.94Y-134.458
X39.94Y-137.198
X39.94Y-139.939
X39.94Y-142.678
X39.94Y-145.418
X110.55Y-154.0
X115.43Y-154.0
X139.0Y-30.0
X139.0Y-35.0
X139.0Y-41.45
X139.0Y-46.45
X139.0Y-52.5
X139.0Y-57.5
X150.25Y-30.0
X150.25Y-35.0
X150.25Y-41.45
X150.25Y-46.45
X150.25Y-52.9
X150.25Y-57.9
X161.7Y-30.0
X161.7Y-35.0
X161.7Y-41.45
X161.7Y-46.45
X161.7Y-52.9
X161.7Y-57.9
X173.15Y-30.0
X173.15Y-35.0
X173.15Y-41.45
X173.15Y-46.45
X173.15Y-52.9
X173.15Y-57.9
X173.15Y-64.35
X173.15Y-69.35
X184.6Y-30.0
X184.6Y-35.0
X184.6Y-41.45
X184.6Y-46.45
X184.6Y-52.9
X184.6Y-57.9
X184.6Y-64.35
X184.6Y-69.35
X196.05Y-30.0
X196.05Y-35.0
X196.05Y-41.45
X196.05Y-46.45
X196.05Y-52.9
X196.05Y-57.9
X196.05Y-64.35
X196.05Y-69.35
X207.5Y-30.0
X207.5Y-35.0
X207.5Y-41.45
X207.5Y-46.45
X207.5Y-52.9
X207.5Y-57.9
X207.5Y-64.35
X207.5Y-69.35
X214.0Y-147.0
X219.0Y-147.0
X226.0Y-147.0
X231.0Y-147.0
X237.5Y-147.0
X242.5Y-147.0
X260.06Y-57.081
X260.06Y-59.822
X260.06Y-62.561
X260.06Y-65.301
X260.06Y-68.041
X260.06Y-95.41
X260.06Y-98.15
X260.06Y-100.89
X260.06Y-103.63
X260.06Y-106.37
X260.06Y-134.582
X260.06Y-137.321
X260.06Y-140.061
X260.06Y-142.802
X260.06Y-145.541
X262.6Y-58.451
X262.6Y-61.191
X262.6Y-63.931
X262.6Y-66.671
X262.6Y-96.78
X262.6Y-99.52
X262.6Y-102.26
X262.6Y-105.0
X262.6Y-135.951
X262.6Y-138.691
X262.6Y-141.431
X262.6Y-144.171
T4
X62.225Y-146.75
X64.765Y-146.75
X159.72Y-122.26
X159.72Y-124.8
X159.72Y-127.34
X159.72Y-129.88
X159.72Y-132.42
X159.72Y-134.96
X159.72Y-137.5
X159.72Y-140.04
X159.72Y-142.58
X159.72Y-145.12
X159.72Y-147.66
X159.72Y-150.2
X159.72Y-152.74
X159.72Y-155.28
X159.72Y-157.82
X159.72Y-160.36
X159.72Y-162.9
X159.72Y-165.44
X159.72Y-167.98
X159.72Y-170.52
X177.5Y-122.26
X177.5Y-124.8
X177.5Y-127.34
X177.5Y-129.88
X177.5Y-132.42
X177.5Y-134.96
X177.5Y-137.5
X177.5Y-140.04
X177.5Y-142.58
X177.5Y-145.12
X177.5Y-147.66
X177.5Y-150.2
X177.5Y-152.74
X177.5Y-155.28
X177.5Y-157.82
X177.5Y-160.36
X177.5Y-162.9
X177.5Y-165.44
X177.5Y-167.98
X177.5Y-170.52
X187.0Y-167.96
X187.0Y-170.5
T5
X131.82Y-78.92
X131.82Y-81.46
X131.82Y-84.0
X131.82Y-86.54
X144.66Y-78.92
X144.66Y-81.46
X144.66Y-84.0
X144.66Y-86.54
X156.82Y-78.92
X156.82Y-81.46
X156.82Y-84.0
X156.82Y-86.54
X169.66Y-78.92
X169.66Y-81.46
X169.66Y-84.0
X169.66Y-86.54
X182.16Y-78.92
X182.16Y-81.46
X182.16Y-84.0
X182.16Y-86.54
X194.66Y-78.92
X194.66Y-81.46
X194.66Y-84.0
X194.66Y-86.54
X207.16Y-78.88
X207.16Y-81.42
X207.16Y-83.96
X207.16Y-86.5
X219.66Y-78.88
X219.66Y-81.42
X219.66Y-83.96
X219.66Y-86.5
T6
X77.84Y-40.0
X79.225Y-37.16
X80.61Y-40.0
X81.995Y-37.16
X83.38Y-40.0
X84.765Y-37.16
X86.15Y-40.0
X87.535Y-37.16
X88.92Y-40.0
X90.305Y-37.16
X91.69Y-40.0
X93.075Y-37.16
X94.46Y-40.0
X95.845Y-37.16
X97.23Y-40.0
X98.615Y-37.16
X100.0Y-40.0
X101.385Y-37.16
X102.77Y-40.0
X104.155Y-37.16
X105.54Y-40.0
X106.925Y-37.16
X108.31Y-40.0
X109.695Y-37.16
X111.08Y-40.0
T7
X67.5Y-51.5
X67.5Y-55.0
X67.5Y-58.5
X67.5Y-64.5
X67.5Y-68.0
X67.5Y-71.5
X67.5Y-77.5
X67.5Y-81.0
X67.5Y-84.5
X67.5Y-90.5
X67.5Y-94.0
X67.5Y-97.5
X67.5Y-103.5
X67.5Y-107.0
X67.5Y-110.5
T8
X215.96Y-133.225
X218.5Y-133.225
X221.04Y-133.225
T9
X79.085Y-133.615
X84.165Y-133.615
X91.785Y-133.615
X94.325Y-133.615
X230.085Y-136.915
X235.165Y-136.915
X242.785Y-136.915
X245.325Y-136.915
T10
X55.08Y-165.0
X60.16Y-165.0
X65.24Y-165.0
X73.92Y-165.0
X79.0Y-165.0
X84.08Y-165.0
X222.95Y-37.9
X227.95Y-37.9
X236.05Y-37.9
X241.05Y-37.9
T11
X47.5Y-50.5
X47.5Y-56.0
X47.5Y-61.05
X47.5Y-89.5
X47.5Y-94.95
X47.5Y-100.0
X47.5Y-135.0
X47.5Y-140.05
X47.55Y-130.0
X75.0Y-74.0
X75.0Y-80.0
X77.5Y-49.0
X81.0Y-55.0
X83.5Y-49.0
X89.0Y-49.0
X94.5Y-49.0
X95.5Y-55.5
X100.0Y-49.0
X105.5Y-49.0
X111.0Y-49.0
X129.0Y-64.5
X132.0Y-71.0
T12
X70.94Y-38.58
X117.98Y-38.58
T13
X38.67Y-48.39
X38.67Y-73.39
X38.67Y-87.438
X38.67Y-112.438
X38.67Y-127.438
X38.67Y-152.439
X261.33Y-50.061
X261.33Y-75.061
X261.33Y-88.39
X261.33Y-113.39
X261.33Y-127.561
X261.33Y-152.561
T14
X35.0Y-35.0
X35.0Y-165.0
X265.0Y-35.0
X265.0Y-165.0
M30
